# Blender v2.78 (sub 0) OBJ File: ''
# www.blender.org
mtllib SM_Bld_Wall_02.mtl
o SM_Bld_Wall_02
v -27.128052 51.098862 15.020709
v -15.744019 51.959763 26.553116
v -15.744019 60.719238 15.020711
v -15.744019 47.995415 -26.553452
v -27.128052 48.856316 -15.020858
v -15.744019 60.719261 -15.020854
v 27.128052 51.959785 -15.020490
v 27.128052 -39.440273 -15.020703
v 15.744263 51.959770 -26.553085
v 15.926636 -46.989899 -26.553116
v 27.128052 51.959763 15.021075
v 27.128052 -36.449280 15.021047
v 15.744263 51.959763 26.553482
v 15.744263 60.719238 15.021077
v 15.744263 -60.719257 26.553450
v 15.744263 -43.671822 26.553452
v -15.744019 -60.719257 26.553083
v -15.744019 -35.467766 26.553091
v -15.744019 -40.755142 -26.553476
v 15.744263 60.719261 -15.020488
v -15.744019 -60.719242 -26.553484
v -27.128052 -60.719242 -15.020892
v -27.128052 -39.651184 -15.020886
v -27.128052 -60.719257 15.020673
v -27.128052 -48.458992 15.020677
v 27.128052 -60.719242 -15.020526
v 15.966187 -60.719242 -26.553118
v 27.128052 -60.719257 15.021039
vt 0.8348 0.5583
vt 0.8348 0.5583
vt 0.8348 0.5583
vt 0.8348 0.5583
vt 0.8348 0.5583
vt 0.8348 0.5583
vt 0.8348 0.5583
vt 0.8348 0.5583
vt 0.8348 0.5583
vt 0.8348 0.5583
vt 0.8348 0.5583
vt 0.8348 0.5583
vt 0.8348 0.5583
vt 0.8348 0.5583
vt 0.8348 0.4991
vt 0.8348 0.4991
vt 0.8348 0.4991
vt 0.8348 0.4991
vt 0.8348 0.5583
vt 0.8348 0.5583
vt 0.8348 0.4991
vt 0.8348 0.4991
vt 0.8348 0.4991
vt 0.8348 0.4991
vt 0.8348 0.4991
vt 0.8348 0.4991
vt 0.8348 0.5583
vt 0.8348 0.4991
vt 0.8348 0.4991
vt 0.8348 0.4991
vt 0.8348 0.4991
vt 0.8348 0.4991
vt 0.8348 0.4991
vt 0.8348 0.5583
vt 0.8348 0.5583
vt 0.8348 0.5583
vn -0.5583 0.6607 0.5018
vn -0.5734 0.5502 -0.6071
vn 0.7117 0.0000 -0.7025
vn 0.7138 0.0001 -0.7003
vn 0.7155 0.0010 -0.6986
vn 0.7175 0.0010 -0.6965
vn -0.7206 0.6915 -0.0516
vn -0.6455 0.7638 0.0000
vn 1.0000 0.0000 0.0000
vn -0.0000 0.7963 0.6049
vn -0.0000 -0.0000 1.0000
vn 0.0000 0.0000 -1.0000
vn 0.0000 0.7963 -0.6049
vn -0.0842 0.6692 -0.7383
vn -0.0000 1.0000 0.0000
vn -0.7117 0.0000 -0.7025
vn -1.0000 0.0000 0.0000
vn -0.7117 -0.0000 0.7025
vn 0.5225 0.6790 -0.5157
vn 0.6098 0.7925 0.0000
vn 0.5225 0.6790 0.5157
vn 0.7117 -0.0000 0.7025
vn 0.7185 0.0020 -0.6955
vn 0.7186 0.0021 -0.6955
usemtl None
s 1
f 1/1/1 2/2/1 3/3/1
f 4/4/2 5/5/2 6/6/2
f 7/7/3 8/8/4 9/9/5
f 9/9/5 8/8/4 10/10/6
f 5/5/7 1/1/7 6/6/7
f 6/6/8 1/1/8 3/3/8
f 11/11/9 12/12/9 7/7/9
f 7/7/9 12/12/9 8/8/9
f 2/2/10 13/13/10 3/3/10
f 3/3/10 13/13/10 14/14/10
f 15/15/11 16/16/11 17/17/11
f 17/17/11 16/16/11 18/18/11
f 4/4/12 9/9/12 19/19/12
f 19/19/12 9/9/12 10/10/12
f 20/20/13 9/9/13 6/6/13
f 6/6/14 9/9/14 4/4/14
f 3/3/15 14/14/15 6/6/15
f 6/6/15 14/14/15 20/20/15
f 21/21/16 22/22/16 19/23/16
f 19/23/16 22/22/16 23/24/16
f 24/25/17 25/26/17 22/22/17
f 22/22/17 25/26/17 23/24/17
f 24/25/18 17/17/18 25/26/18
f 25/26/18 17/17/18 18/18/18
f 20/20/19 7/7/19 9/9/19
f 14/14/20 11/11/20 20/20/20
f 20/20/20 11/11/20 7/7/20
f 13/13/21 11/11/21 14/14/21
f 16/27/22 12/12/22 13/13/22
f 13/13/22 12/12/22 11/11/22
f 8/28/4 26/29/23 10/30/6
f 10/30/6 26/29/23 27/31/24
f 12/32/9 28/33/9 8/28/9
f 8/28/9 28/33/9 26/29/9
f 16/27/11 13/13/11 18/34/11
f 18/34/11 13/13/11 2/2/11
f 19/23/12 10/30/12 21/21/12
f 21/21/12 10/30/12 27/31/12
f 19/19/16 23/35/16 4/4/16
f 4/4/16 23/35/16 5/5/16
f 25/36/17 1/1/17 23/35/17
f 23/35/17 1/1/17 5/5/17
f 25/36/18 18/34/18 1/1/18
f 1/1/18 18/34/18 2/2/18
f 12/32/22 16/16/22 28/33/22
f 28/33/22 16/16/22 15/15/22
