# Blender v2.78 (sub 0) OBJ File: ''
# www.blender.org
mtllib SM_Bld_HutDoor_01.mtl
o SM_Bld_HutDoor_01
v 21.679443 95.234108 4.769928
v 21.855591 86.319618 4.769926
v 39.229614 95.629951 4.769928
v 39.588867 86.319618 4.769926
v 21.496460 -95.629951 4.769866
v 21.496460 -95.629951 -4.769928
v 37.964111 -94.114540 4.769866
v 39.229614 -95.629951 -4.769928
v 39.588867 86.319618 -4.769868
v 21.855591 86.319618 -4.769868
v 39.229614 95.629951 -4.769866
v 21.496460 95.629951 -4.769866
v 41.193237 12.337296 -4.769893
v 41.193237 12.337295 4.769901
v 39.590576 -82.729691 -4.769924
v 39.590576 -82.729691 4.769870
v 21.857422 -82.729691 -4.769924
v 19.562622 13.016923 -4.769893
v 19.562622 13.016921 4.769901
v 21.857422 -82.729691 4.769870
v 1.482178 95.234108 4.769928
v 1.658325 86.319618 4.769926
v 19.032349 95.629951 4.769928
v 19.391602 86.319618 4.769926
v 19.269531 -95.362480 4.769866
v 1.299194 -95.629951 4.769866
v 19.032349 -95.629951 -4.769928
v 1.299194 -95.629951 -4.769928
v 19.391602 86.319618 -4.769868
v 1.658325 86.319618 -4.769868
v 19.032349 95.629951 -4.769866
v 1.299194 95.629951 -4.769866
v 17.098511 13.016923 -4.769893
v 17.098511 13.016921 4.769901
v 19.393311 -82.729691 -4.769924
v 19.393311 -82.729691 4.769870
v 1.660156 -82.729691 -4.769924
v 2.880615 9.780320 -4.769894
v 2.880615 9.780318 4.769900
v 1.660156 -82.729691 4.769870
v -20.761230 95.234108 4.769928
v -20.585083 86.319618 4.769926
v -3.211060 95.629951 4.769928
v -2.851929 86.319618 4.769926
v -2.125610 -95.454918 4.769866
v -20.944336 -95.629951 4.769866
v -3.211060 -95.629951 -4.769928
v -20.944336 -95.629951 -4.769928
v -2.851929 86.319618 -4.769868
v -20.585083 86.319618 -4.769868
v -3.211060 95.629951 -4.769866
v -20.944336 95.629951 -4.769866
v -1.430908 13.055818 -4.769893
v -1.430908 13.055816 4.769901
v -2.850220 -82.729691 -4.769924
v -2.850220 -82.729691 4.769870
v -20.583374 -82.729691 -4.769924
v -17.915649 12.358895 -4.769893
v -17.915649 12.358893 4.769901
v -20.583374 -82.729691 4.769870
v -40.958496 95.234108 4.769928
v -40.782349 86.319618 4.769926
v -23.408325 95.629951 4.769928
v -23.049194 86.319618 4.769926
v -23.171143 -95.362480 4.769866
v -41.141602 -95.629951 4.769866
v -23.408325 -95.629951 -4.769928
v -41.141602 -95.629951 -4.769928
v -23.049194 86.319618 -4.769868
v -40.782349 86.319618 -4.769868
v -23.408325 95.629951 -4.769866
v -41.141602 95.629951 -4.769866
v -23.460083 10.470384 -4.769893
v -23.460083 10.470382 4.769901
v -23.047363 -82.729691 -4.769924
v -23.047363 -82.729691 4.769870
v -40.780640 -82.729691 -4.769924
v -41.193237 10.470384 -4.769893
v -41.193237 10.470382 4.769901
v -40.780640 -82.729691 4.769870
vt 0.9891 0.4048
vt 0.9891 0.4048
vt 0.9891 0.4048
vt 0.9891 0.4048
vt 0.9891 0.4048
vt 0.9891 0.4048
vt 0.9891 0.4048
vt 0.9891 0.4048
vt 0.9891 0.4048
vt 0.9891 0.4048
vt 0.9891 0.4048
vt 0.9891 0.4048
vt 0.9891 0.4048
vt 0.9891 0.4048
vt 0.9891 0.4048
vt 0.9891 0.4048
vt 0.9891 0.4048
vt 0.9891 0.4048
vt 0.9891 0.4048
vt 0.9891 0.4048
vt 0.9891 0.4048
vt 0.9891 0.4048
vt 0.9891 0.4048
vt 0.9891 0.4048
vt 0.9891 0.4048
vt 0.9891 0.4048
vt 0.9891 0.4048
vt 0.9891 0.4048
vt 0.9891 0.4048
vt 0.9891 0.4048
vt 0.9891 0.4048
vt 0.9891 0.4048
vt 0.9891 0.4048
vt 0.9891 0.4048
vt 0.9891 0.4048
vt 0.9891 0.4048
vt 0.9891 0.4048
vt 0.9891 0.4048
vt 0.9891 0.4048
vt 0.9891 0.4048
vt 0.9891 0.4048
vt 0.9891 0.4048
vt 0.9891 0.4048
vt 0.9891 0.4048
vt 0.9891 0.4048
vt 0.9891 0.4048
vt 0.9891 0.4048
vt 0.9891 0.4048
vt 0.9891 0.4048
vt 0.9891 0.4048
vt 0.9891 0.4048
vt 0.9891 0.4048
vt 0.9891 0.4048
vt 0.9891 0.4048
vt 0.9891 0.4048
vt 0.9891 0.4048
vt 0.9891 0.4048
vt 0.9891 0.4048
vt 0.9891 0.4048
vt 0.9891 0.4048
vt 0.9891 0.4048
vt 0.9891 0.4048
vt 0.9891 0.4048
vt 0.9891 0.4048
vt 0.9891 0.4048
vt 0.9891 0.4048
vt 0.9891 0.4048
vt 0.9891 0.4048
vt 0.9891 0.4048
vt 0.9891 0.4048
vt 0.9891 0.4048
vt 0.9891 0.4048
vt 0.9891 0.4048
vt 0.9891 0.4048
vt 0.9891 0.4048
vt 0.9891 0.4048
vt 0.9891 0.4048
vt 0.9891 0.4048
vt 0.9891 0.4048
vt 0.9891 0.4048
vn 0.0000 -0.0000 1.0000
vn 0.0916 -0.9958 0.0000
vn 0.0000 -0.9876 0.1569
vn 0.0000 0.0000 -1.0000
vn 0.0000 0.9991 0.0415
vn -0.0225 0.9997 0.0000
vn -0.9991 -0.0385 0.0176
vn -0.9998 -0.0198 0.0000
vn 0.9993 0.0386 0.0000
vn 0.9999 -0.0169 0.0000
vn -0.9997 -0.0240 0.0000
vn 0.9899 -0.1414 0.0000
vn 0.9904 -0.0277 0.1358
vn -0.9996 0.0280 0.0000
vn 0.9998 0.0217 0.0000
vn -0.9995 0.0313 0.0000
vn 0.0149 -0.9995 0.0277
vn 0.0000 -1.0000 0.0000
vn -0.9999 -0.0172 0.0000
vn -0.9998 -0.0179 0.0000
vn 0.9997 0.0240 0.0000
vn -0.9999 0.0132 0.0000
vn 1.0000 -0.0098 0.0000
vn 0.9993 -0.0280 -0.0241
vn 0.9995 -0.0313 0.0000
vn -0.9999 -0.0160 0.0000
vn 0.0093 -0.9998 0.0173
vn -0.9991 -0.0386 0.0176
vn 0.9993 0.0385 0.0000
vn 0.9999 -0.0148 0.0000
vn 0.9984 0.0569 0.0000
vn 0.9933 -0.0278 -0.1125
vn 0.9998 0.0194 0.0000
vn -0.9993 -0.0361 0.0000
vn 1.0000 -0.0054 -0.0000
vn 1.0000 0.0044 0.0000
vn -1.0000 0.0054 0.0000
vn -1.0000 -0.0045 -0.0000
vn -1.0000 -0.0044 0.0000
usemtl None
s 1
f 1/1/1 2/2/1 3/3/1
f 3/3/1 2/2/1 4/4/1
f 5/5/2 6/6/2 7/7/2
f 7/7/3 6/6/3 8/8/3
f 9/9/4 10/10/4 11/11/4
f 11/11/4 10/10/4 12/12/4
f 12/12/5 1/1/5 11/11/5
f 11/11/6 1/1/6 3/3/6
f 12/12/7 10/10/7 1/1/7
f 1/1/8 10/10/8 2/2/8
f 11/11/9 3/3/9 9/9/9
f 9/9/9 3/3/9 4/4/9
f 13/13/10 14/14/10 15/15/10
f 15/15/10 14/14/10 16/16/10
f 15/15/4 17/17/4 13/13/4
f 13/13/4 17/17/4 18/18/4
f 19/19/11 18/18/11 20/20/11
f 20/20/11 18/18/11 17/17/11
f 19/19/1 20/20/1 14/14/1
f 14/14/1 20/20/1 16/16/1
f 16/16/12 7/7/12 15/15/12
f 15/15/13 7/7/13 8/8/13
f 6/6/4 17/17/4 8/8/4
f 8/8/4 17/17/4 15/15/4
f 20/20/14 17/17/14 5/5/14
f 5/5/14 17/17/14 6/6/14
f 16/16/1 20/20/1 7/7/1
f 7/7/1 20/20/1 5/5/1
f 9/9/15 4/4/15 13/13/15
f 13/13/15 4/4/15 14/14/15
f 13/13/4 18/18/4 9/9/4
f 9/9/4 18/18/4 10/10/4
f 2/2/16 10/10/16 19/19/16
f 19/19/16 10/10/16 18/18/16
f 2/2/1 19/19/1 4/4/1
f 4/4/1 19/19/1 14/14/1
f 21/21/1 22/22/1 23/23/1
f 23/23/1 22/22/1 24/24/1
f 25/25/17 26/26/17 27/27/17
f 27/27/18 26/26/18 28/28/18
f 29/29/4 30/30/4 31/31/4
f 31/31/4 30/30/4 32/32/4
f 32/32/5 21/21/5 31/31/5
f 31/31/6 21/21/6 23/23/6
f 32/32/7 30/30/7 21/21/7
f 21/21/8 30/30/19 22/22/20
f 31/31/9 23/23/9 29/29/9
f 29/29/9 23/23/9 24/24/9
f 33/33/21 34/34/21 35/35/21
f 35/35/21 34/34/21 36/36/21
f 37/37/4 38/38/4 35/35/4
f 35/35/4 38/38/4 33/33/4
f 39/39/22 38/38/22 40/40/22
f 40/40/22 38/38/22 37/37/22
f 34/34/1 39/39/1 36/36/1
f 36/36/1 39/39/1 40/40/1
f 36/36/23 25/25/23 35/35/23
f 35/35/24 25/25/24 27/27/24
f 28/28/4 37/37/4 27/27/4
f 27/27/4 37/37/4 35/35/4
f 40/40/14 37/37/14 26/26/14
f 26/26/14 37/37/14 28/28/14
f 36/36/1 40/40/1 25/25/1
f 25/25/1 40/40/1 26/26/1
f 29/29/25 24/24/25 33/33/25
f 33/33/25 24/24/25 34/34/25
f 38/38/4 30/30/4 33/33/4
f 33/33/4 30/30/4 29/29/4
f 22/22/20 30/30/19 39/39/26
f 39/39/26 30/30/19 38/38/26
f 24/24/1 22/22/1 34/34/1
f 34/34/1 22/22/1 39/39/1
f 41/41/1 42/42/1 43/43/1
f 43/43/1 42/42/1 44/44/1
f 45/45/27 46/46/27 47/47/27
f 47/47/18 46/46/18 48/48/18
f 49/49/4 50/50/4 51/51/4
f 51/51/4 50/50/4 52/52/4
f 52/52/5 41/41/5 51/51/5
f 51/51/6 41/41/6 43/43/6
f 52/52/28 50/50/28 41/41/28
f 41/41/8 50/50/8 42/42/8
f 51/51/29 43/43/29 49/49/29
f 49/49/29 43/43/29 44/44/29
f 53/53/30 54/54/30 55/55/30
f 55/55/30 54/54/30 56/56/30
f 57/57/4 58/58/4 55/55/4
f 55/55/4 58/58/4 53/53/4
f 59/59/14 58/58/14 60/60/14
f 60/60/14 58/58/14 57/57/14
f 54/54/1 59/59/1 56/56/1
f 56/56/1 59/59/1 60/60/1
f 56/56/31 45/45/31 55/55/31
f 55/55/32 45/45/32 47/47/32
f 48/48/4 57/57/4 47/47/4
f 47/47/4 57/57/4 55/55/4
f 60/60/14 57/57/14 46/46/14
f 46/46/14 57/57/14 48/48/14
f 60/60/1 46/46/1 56/56/1
f 56/56/1 46/46/1 45/45/1
f 49/49/33 44/44/33 53/53/33
f 53/53/33 44/44/33 54/54/33
f 53/53/4 58/58/4 49/49/4
f 49/49/4 58/58/4 50/50/4
f 42/42/34 50/50/34 59/59/34
f 59/59/34 50/50/34 58/58/34
f 42/42/1 59/59/1 44/44/1
f 44/44/1 59/59/1 54/54/1
f 61/61/1 62/62/1 63/63/1
f 63/63/1 62/62/1 64/64/1
f 65/65/17 66/66/17 67/67/17
f 67/67/18 66/66/18 68/68/18
f 69/69/4 70/70/4 71/71/4
f 71/71/4 70/70/4 72/72/4
f 72/72/5 61/61/5 71/71/5
f 71/71/6 61/61/6 63/63/6
f 72/72/28 70/70/28 61/61/28
f 61/61/8 70/70/8 62/62/8
f 71/71/29 63/63/29 69/69/29
f 69/69/29 63/63/29 64/64/29
f 73/73/35 74/74/36 75/75/36
f 75/75/36 74/74/36 76/76/36
f 75/75/4 77/77/4 73/73/4
f 73/73/4 77/77/4 78/78/4
f 79/79/37 78/78/38 80/80/39
f 80/80/39 78/78/38 77/77/39
f 79/79/1 80/80/1 74/74/1
f 74/74/1 80/80/1 76/76/1
f 76/76/23 65/65/23 75/75/23
f 75/75/24 65/65/24 67/67/24
f 68/68/4 77/77/4 67/67/4
f 67/67/4 77/77/4 75/75/4
f 80/80/14 77/77/14 66/66/14
f 66/66/14 77/77/14 68/68/14
f 76/76/1 80/80/1 65/65/1
f 65/65/1 80/80/1 66/66/1
f 69/69/35 64/64/35 73/73/35
f 73/73/35 64/64/35 74/74/36
f 78/78/4 70/70/4 73/73/4
f 73/73/4 70/70/4 69/69/4
f 62/62/37 70/70/37 79/79/37
f 79/79/37 70/70/37 78/78/38
f 64/64/1 62/62/1 74/74/1
f 74/74/1 62/62/1 79/79/1
