# Blender v2.78 (sub 0) OBJ File: ''
# www.blender.org
mtllib SM_Env_Tree_010.mtl
o SM_Env_Tree_010
v -8.879883 -303.505402 -12.916218
v 5.613281 -222.727692 -8.020195
v 37.568359 -303.505402 -28.008503
v 29.787109 -222.727692 -15.875237
v -8.879883 -303.505402 35.922771
v 5.613281 -222.727692 17.398933
v 37.568359 -303.505402 51.014751
v 29.787109 -222.727692 25.253975
v 66.275391 -303.505402 11.503216
v 44.728516 -222.727692 4.689400
v 24.730469 -303.505402 11.503216
v 16.750977 -3.291713 -27.705608
v -2.571289 -3.291714 -21.427471
v 11.410156 -3.291716 -11.269026
v -2.571289 -3.291717 -1.110761
v 16.750977 -3.291718 5.167437
v 28.692383 -3.291716 -11.269026
v 23.876953 -143.420792 5.023959
v 4.554688 -143.420792 11.302217
v 4.554688 -143.420792 31.618809
v 23.876953 -143.420792 37.897190
v 35.819336 -143.420792 21.460484
v 4.937500 -120.299881 6.709941
v 24.260742 -120.299881 0.431804
v 4.937500 -120.299904 27.026592
v 24.260742 -120.299904 33.304974
v 68.979492 -98.729286 62.399952
v 74.375000 -98.692329 56.050404
v 65.641602 -91.099556 57.487659
v 71.037109 -91.062660 51.137989
v 36.201172 -120.299881 16.868389
v 50.850586 -132.345978 45.505894
v 59.193359 -129.895508 33.782932
v 51.668945 -115.942848 27.819561
v 43.325195 -118.393196 39.542522
v 19.255859 -38.863022 84.844238
v 8.056641 101.160599 106.711349
v -42.333008 1.376730 60.207783
v -68.011719 99.161087 78.913498
v 67.965820 -31.814831 65.857910
v 59.875000 109.156876 79.538742
v 13.093750 214.848221 57.649014
v -26.875977 176.545914 65.918167
v -64.714844 180.149002 50.024921
v -18.833008 301.442291 0.676021
v -65.955078 200.021393 -4.556435
v 14.566406 303.505402 3.504696
v 32.729492 173.029465 -53.416248
v 9.170898 193.318100 -63.815472
v -56.322266 197.821442 -27.198891
v 11.275391 101.295761 -106.711319
v -67.923828 98.480270 -80.211197
v 77.059570 124.182053 -71.987915
v 76.654297 -25.105185 -59.934437
v 16.375000 -17.861528 -79.643112
v -43.742188 11.843851 -59.531528
v -63.213867 -17.643860 -0.081590
v 19.255859 -65.382965 5.284178
v 95.250000 -36.466003 5.886239
v 85.347656 156.272247 4.518686
v -95.250000 104.773468 -0.606880
vt 0.9890 0.3176
vt 0.9890 0.3176
vt 0.9890 0.3176
vt 0.9890 0.3176
vt 0.9890 0.3176
vt 0.9890 0.3176
vt 0.9890 0.3176
vt 0.9890 0.3176
vt 0.9890 0.3176
vt 0.9890 0.3176
vt 0.9890 0.3176
vt 0.9890 0.3176
vt 0.9890 0.3176
vt 0.9890 0.3176
vt 0.9890 0.3176
vt 0.9890 0.3176
vt 0.9890 0.3176
vt 0.9890 0.3176
vt 0.9890 0.3176
vt 0.9890 0.3176
vt 0.9890 0.3176
vt 0.9890 0.3176
vt 0.9890 0.3176
vt 0.9890 0.3176
vt 0.9890 0.3176
vt 0.9890 0.3176
vt 0.9890 0.3176
vt 0.9890 0.3176
vt 0.9890 0.3176
vt 0.9890 0.3176
vt 0.9890 0.3176
vt 0.9890 0.3176
vt 0.9890 0.3176
vt 0.9890 0.3176
vt 0.9890 0.3176
vt 0.8686 0.4176
vt 0.8686 0.4175
vt 0.8686 0.4176
vt 0.8686 0.4175
vt 0.8686 0.4176
vt 0.8686 0.4175
vt 0.8686 0.4175
vt 0.8686 0.4175
vt 0.8686 0.4175
vt 0.8686 0.4175
vt 0.8686 0.4175
vt 0.8686 0.4175
vt 0.8686 0.4175
vt 0.8686 0.4175
vt 0.8686 0.4175
vt 0.8686 0.4175
vt 0.8686 0.4175
vt 0.8686 0.4175
vt 0.8686 0.4176
vt 0.8686 0.4176
vt 0.8686 0.4176
vt 0.8686 0.4176
vt 0.8686 0.4176
vt 0.8686 0.4176
vt 0.8686 0.4175
vt 0.8686 0.4175
vn -0.3071 0.1124 -0.9450
vn -0.9843 0.1766 0.0000
vn -0.2981 0.2638 0.9174
vn -0.2981 0.2638 0.9173
vn 0.7819 0.2565 0.5681
vn 0.7981 0.1640 -0.5798
vn 0.0000 -1.0000 0.0000
vn 0.0000 1.0000 0.0000
vn -0.3013 0.2219 -0.9273
vn -0.9999 -0.0133 0.0000
vn -0.3044 -0.1720 0.9369
vn 0.8086 -0.0334 0.5875
vn 0.7909 0.2104 -0.5746
vn -0.3039 -0.1808 -0.9354
vn -0.3039 -0.1807 -0.9354
vn -0.9999 0.0166 0.0000
vn -0.3034 0.1905 0.9336
vn 0.6076 0.6005 0.5198
vn 0.8022 -0.1290 -0.5829
vn 0.8023 -0.1290 -0.5829
vn 0.8023 -0.1291 -0.5828
vn -0.3025 0.2045 0.9310
vn -0.9979 -0.0640 -0.0000
vn -0.2999 -0.2412 -0.9230
vn 0.8058 -0.0891 -0.5854
vn 0.7944 0.1898 0.5771
vn 0.7943 0.1898 0.5771
vn 0.3140 -0.9216 0.2282
vn 0.4440 -0.8864 0.1307
vn 0.5358 -0.1730 -0.8264
vn 0.5835 -0.0321 -0.8114
vn -0.0804 0.9950 -0.0584
vn -0.2747 0.9615 0.0055
vn -0.3376 0.1888 0.9222
vn -0.3231 0.2192 0.9206
vn 0.7018 -0.6073 0.3725
vn 0.6154 -0.5929 0.5194
vn 0.7388 0.1145 -0.6642
vn 0.7919 -0.0457 -0.6090
vn -0.6118 0.7395 -0.2809
vn -0.5279 0.7238 -0.4444
vn -0.6527 -0.0285 0.7571
vn -0.7136 0.1309 0.6882
vn -0.4611 -0.1728 0.8704
vn -0.3255 -0.2594 0.9093
vn 0.3751 -0.1137 0.9200
vn 0.4707 -0.0584 0.8804
vn 0.3922 0.3498 0.8508
vn -0.1937 0.3959 0.8976
vn -0.3318 0.3289 0.8842
vn -0.3391 0.3220 0.8839
vn -0.3405 0.3206 0.8839
vn -0.3407 0.3204 0.8839
vn -0.3074 0.4561 0.8352
vn -0.8972 0.4081 0.1690
vn -0.2653 0.4598 0.8475
vn -0.1039 0.5196 0.8480
vn 0.0523 0.4054 -0.9126
vn 0.6718 0.5000 -0.5465
vn -0.8268 0.4043 -0.3910
vn -0.4331 0.3732 -0.8205
vn -0.4322 0.3768 -0.8193
vn -0.4323 0.3763 -0.8195
vn -0.4332 0.3726 -0.8207
vn -0.2942 0.4765 -0.8285
vn 0.6118 0.3457 -0.7115
vn 0.2441 0.5302 -0.8119
vn 0.4850 -0.0717 -0.8716
vn 0.2825 -0.2010 -0.9380
vn -0.2933 -0.2986 -0.9082
vn -0.4052 -0.2190 -0.8876
vn -0.5121 -0.6908 -0.5104
vn -0.4314 -0.7935 -0.4294
vn 0.0553 -0.8705 -0.4890
vn 0.3458 -0.9034 -0.2536
vn 0.3447 -0.9107 0.2275
vn 0.2521 -0.9180 0.3060
vn -0.4767 -0.7774 0.4104
vn -0.5981 -0.7603 0.2534
vn 0.9105 0.0497 0.4104
vn 0.9425 0.0217 0.3336
vn 0.9634 0.0476 -0.2639
vn 0.9946 -0.0110 -0.1031
vn 0.6187 0.6983 -0.3599
vn 0.7412 0.3524 -0.5713
vn 0.7349 0.4333 0.5217
vn 0.7226 0.3515 0.5952
vn -0.8840 -0.2331 -0.4052
vn -0.9035 -0.3202 -0.2848
vn -0.8941 -0.2323 0.3830
vn -0.9102 -0.2947 0.2910
vn -0.9311 0.1556 0.3299
vn -0.9463 0.2964 0.1294
vn -0.9004 0.2820 -0.3314
vn -0.8808 0.2543 -0.3994
usemtl None
s 1
f 1/1/1 2/2/1 3/3/1
f 3/3/1 2/2/1 4/4/1
f 5/5/2 6/6/2 1/1/2
f 1/1/2 6/6/2 2/2/2
f 7/7/3 8/8/3 5/5/3
f 5/5/3 8/8/3 6/6/4
f 7/7/5 9/9/5 8/8/5
f 8/8/5 9/9/5 10/10/5
f 9/9/6 3/3/6 10/10/6
f 10/10/6 3/3/6 4/4/6
f 1/1/7 3/3/7 11/11/7
f 5/5/7 1/1/7 11/11/7
f 7/7/7 5/5/7 11/11/7
f 9/9/7 7/7/7 11/11/7
f 3/3/7 9/9/7 11/11/7
f 12/12/8 13/13/8 14/14/8
f 13/13/8 15/15/8 14/14/8
f 15/15/8 16/16/8 14/14/8
f 16/16/8 17/17/8 14/14/8
f 17/17/8 12/12/8 14/14/8
f 4/4/9 2/2/9 18/18/9
f 18/18/9 2/2/9 19/19/9
f 2/2/10 6/6/10 19/19/10
f 19/19/10 6/6/10 20/20/10
f 6/6/11 8/8/11 20/20/11
f 20/20/11 8/8/11 21/21/11
f 10/10/12 22/22/12 8/8/12
f 8/8/12 22/22/12 21/21/12
f 4/4/13 18/18/13 10/10/13
f 10/10/13 18/18/13 22/22/13
f 19/19/14 23/23/15 18/18/15
f 18/18/15 23/23/15 24/24/15
f 20/20/16 25/25/16 19/19/16
f 19/19/16 25/25/16 23/23/16
f 21/21/17 26/26/17 20/20/17
f 20/20/17 26/26/17 25/25/17
f 27/27/18 28/28/18 29/29/18
f 29/29/18 28/28/18 30/30/18
f 22/22/19 18/18/20 31/31/20
f 31/31/20 18/18/20 24/24/21
f 26/26/22 16/16/22 25/25/22
f 25/25/22 16/16/22 15/15/22
f 25/25/23 15/15/23 23/23/23
f 23/23/23 15/15/23 13/13/23
f 23/23/24 13/13/24 24/24/24
f 24/24/24 13/13/24 12/12/24
f 31/31/25 24/24/25 17/17/25
f 17/17/25 24/24/25 12/12/25
f 26/26/26 31/31/27 16/16/27
f 16/16/27 31/31/27 17/17/27
f 21/21/28 22/22/28 32/32/28
f 32/32/29 22/22/29 33/33/29
f 22/22/30 31/31/30 33/33/30
f 33/33/31 31/31/31 34/34/31
f 26/26/32 35/35/32 31/31/32
f 31/31/33 35/35/33 34/34/33
f 21/21/34 32/32/34 26/26/34
f 26/26/35 32/32/35 35/35/35
f 33/33/36 28/28/36 32/32/36
f 32/32/37 28/28/37 27/27/37
f 33/33/38 34/34/38 28/28/38
f 28/28/39 34/34/39 30/30/39
f 34/34/40 35/35/40 30/30/40
f 30/30/41 35/35/41 29/29/41
f 32/32/42 27/27/42 35/35/42
f 35/35/43 27/27/43 29/29/43
f 36/36/44 37/37/44 38/38/44
f 38/38/45 37/37/45 39/39/45
f 36/36/46 40/40/46 37/37/46
f 37/37/47 40/40/47 41/41/47
f 41/41/48 42/42/48 37/37/48
f 37/37/49 42/42/49 43/43/49
f 39/39/50 37/37/51 44/44/52
f 44/44/52 37/37/51 43/43/53
f 43/43/54 45/45/54 44/44/54
f 44/44/55 45/45/55 46/46/55
f 43/43/56 42/42/56 45/45/56
f 45/45/57 42/42/57 47/47/57
f 47/47/58 48/48/58 45/45/58
f 45/45/59 48/48/59 49/49/59
f 46/46/60 45/45/60 50/50/60
f 50/50/61 45/45/62 49/49/63
f 49/49/63 51/51/64 50/50/61
f 50/50/65 51/51/65 52/52/65
f 49/49/66 48/48/66 51/51/66
f 51/51/67 48/48/67 53/53/67
f 53/53/68 54/54/68 51/51/68
f 51/51/69 54/54/69 55/55/69
f 52/52/70 51/51/70 56/56/70
f 56/56/71 51/51/71 55/55/71
f 56/56/72 55/55/72 57/57/72
f 57/57/73 55/55/73 58/58/73
f 55/55/74 54/54/74 58/58/74
f 58/58/75 54/54/75 59/59/75
f 59/59/76 40/40/76 58/58/76
f 58/58/77 40/40/77 36/36/77
f 57/57/78 58/58/78 38/38/78
f 38/38/79 58/58/79 36/36/79
f 59/59/80 60/60/80 40/40/80
f 40/40/81 60/60/81 41/41/81
f 59/59/82 54/54/82 60/60/82
f 60/60/83 54/54/83 53/53/83
f 53/53/84 48/48/84 60/60/84
f 60/60/85 48/48/85 47/47/85
f 41/41/86 60/60/86 42/42/86
f 42/42/87 60/60/87 47/47/87
f 57/57/88 61/61/88 56/56/88
f 56/56/89 61/61/89 52/52/89
f 57/57/90 38/38/90 61/61/90
f 61/61/91 38/38/91 39/39/91
f 39/39/92 44/44/92 61/61/92
f 61/61/93 44/44/93 46/46/93
f 52/52/94 61/61/94 50/50/94
f 50/50/95 61/61/95 46/46/95
