# Blender v2.78 (sub 0) OBJ File: ''
# www.blender.org
mtllib SM_Env_GroundMounds_01.mtl
o SM_Env_GroundMounds_01
v -98.739746 -28.473175 241.041870
v -97.700684 -1.281004 163.134399
v -160.316895 -28.473167 226.789185
v -159.868652 -7.202021 154.535034
v -232.855957 -28.473141 145.785522
v 24.638184 -28.473183 266.240356
v 26.190918 -2.559912 180.703003
v -37.152832 -28.473179 255.139282
v -35.807129 -2.126157 172.673706
v 83.037598 -28.473183 265.843140
v 166.616699 -28.473171 234.370239
v 89.938965 -5.037683 184.802612
v 156.742676 -12.200609 176.228394
v 236.778809 -28.473152 172.616577
v -160.721191 2.780294 86.665413
v -238.391113 -28.473122 80.871941
v -96.992676 25.232075 90.091942
v -96.779785 19.500751 24.381237
v -161.401855 1.447161 23.781620
v -240.871582 -28.473099 17.953976
v -34.769043 21.336063 94.757210
v 27.463379 17.145741 99.327034
v 28.191895 23.432491 26.004772
v -34.264160 25.781002 24.762585
v 92.449707 16.583208 103.089729
v 167.582520 -3.302977 107.760139
v 166.437988 -1.326147 32.407597
v 92.188965 17.780567 27.467663
v 240.814941 -28.473133 119.602654
v 240.871582 -28.473110 50.946896
v -158.971191 -0.995466 -35.415646
v -237.970215 -28.473083 -40.208866
v -95.687012 14.483683 -36.657825
v -154.186035 -7.065489 -91.471062
v -92.845215 12.123081 -95.289177
v -230.011230 -28.473064 -92.319954
v -34.177246 28.473146 -38.074329
v 27.825684 24.263079 -37.090443
v 25.066895 20.380527 -93.387077
v -33.282715 28.012104 -98.336281
v 89.210449 14.897577 -33.723743
v 159.295410 4.431653 -29.294552
v 148.316895 12.225924 -80.928825
v 84.263184 13.684024 -85.951286
v 237.868652 -28.473087 -22.064579
v 223.885254 -28.473064 -78.380745
v -217.514160 -28.473049 -135.505493
v -147.057129 -16.442732 -140.232544
v -88.559082 -9.151865 -150.175415
v -143.253418 -27.239622 -189.614868
v -83.832520 -24.949034 -200.537231
v -195.648926 -28.473034 -188.857056
v -32.295410 -0.952699 -154.444946
v 23.249512 -1.182276 -149.303833
v 21.269043 -20.994516 -203.473267
v -31.248535 -23.063951 -208.595581
v 79.193848 -4.430193 -137.126099
v 139.919434 -4.881296 -132.672974
v 77.121582 -19.512568 -194.946899
v 137.458496 -20.042631 -190.078247
v 208.235840 -28.473053 -131.230103
v 200.309082 -28.473034 -189.996704
v -158.583496 -28.473015 -242.183472
v -84.666504 -28.473011 -259.744019
v -29.313965 -28.473007 -266.240356
v 22.172363 -28.473007 -265.409302
v 77.272949 -28.473011 -257.280151
v 135.096191 -28.473019 -239.479858
vt 0.9678 0.4518
vt 0.9678 0.4518
vt 0.9678 0.4518
vt 0.9678 0.4518
vt 0.9678 0.4518
vt 0.9678 0.4518
vt 0.9678 0.4518
vt 0.9678 0.4518
vt 0.9678 0.4518
vt 0.9678 0.4518
vt 0.9678 0.4518
vt 0.9678 0.4518
vt 0.9678 0.4518
vt 0.9678 0.4518
vt 0.9678 0.4518
vt 0.9678 0.4518
vt 0.9678 0.4518
vt 0.9678 0.4518
vt 0.9678 0.4518
vt 0.9678 0.4518
vt 0.9678 0.4518
vt 0.9678 0.4518
vt 0.9678 0.4518
vt 0.9678 0.4518
vt 0.9678 0.4518
vt 0.9678 0.4518
vt 0.9678 0.4518
vt 0.9678 0.4518
vt 0.9678 0.4518
vt 0.9678 0.4518
vt 0.9678 0.4518
vt 0.9678 0.4518
vt 0.9678 0.4518
vt 0.9678 0.4518
vt 0.9678 0.4518
vt 0.9678 0.4518
vt 0.9678 0.4518
vt 0.9678 0.4518
vt 0.9678 0.4518
vt 0.9678 0.4518
vt 0.9678 0.4518
vt 0.9678 0.4518
vt 0.9678 0.4518
vt 0.9678 0.4518
vt 0.9678 0.4518
vt 0.9678 0.4518
vt 0.9678 0.4518
vt 0.9678 0.4518
vt 0.9678 0.4518
vt 0.9678 0.4518
vt 0.9678 0.4518
vt 0.9678 0.4518
vt 0.9678 0.4518
vt 0.9678 0.4518
vt 0.9678 0.4518
vt 0.9678 0.4518
vt 0.9678 0.4518
vt 0.9678 0.4518
vt 0.9678 0.4518
vt 0.9678 0.4518
vt 0.9678 0.4518
vt 0.9678 0.4518
vt 0.9678 0.4518
vt 0.9678 0.4518
vt 0.9678 0.4518
vt 0.9678 0.4518
vt 0.9678 0.4518
vt 0.9678 0.4518
vn -0.0758 0.9417 0.3277
vn -0.1293 0.9515 0.2793
vn -0.2990 0.9159 0.2678
vn -0.0519 0.9560 0.2887
vn -0.0327 0.9522 0.3037
vn -0.0693 0.9506 0.3026
vn -0.0378 0.9436 0.3289
vn 0.1072 0.9526 0.2846
vn 0.1346 0.9595 0.2475
vn 0.1345 0.9599 0.2458
vn 0.1355 0.9571 0.2560
vn 0.0020 0.9570 0.2900
vn 0.0194 0.9600 0.2793
vn 0.2038 0.9512 0.2316
vn -0.2927 0.9455 0.1427
vn -0.3752 0.9264 0.0320
vn -0.1353 0.9318 0.3369
vn -0.3357 0.9313 0.1412
vn -0.3272 0.9413 -0.0832
vn -0.2689 0.9630 -0.0175
vn -0.3722 0.9280 -0.0156
vn -0.3532 0.9354 0.0139
vn -0.0313 0.9572 0.2878
vn 0.0332 0.9394 0.3413
vn -0.0236 0.9717 0.2349
vn 0.0432 0.9565 0.2886
vn 0.0607 0.9945 0.0859
vn 0.0362 0.9973 0.0636
vn 0.0576 0.9963 0.0637
vn -0.0991 0.9913 -0.0868
vn -0.0991 0.9914 -0.0851
vn -0.0991 0.9914 -0.0850
vn 0.0211 0.9664 0.2563
vn -0.0052 0.9719 0.2353
vn 0.1356 0.9568 0.2573
vn 0.2430 0.9563 0.1627
vn 0.2546 0.9668 0.0215
vn 0.2515 0.9677 0.0181
vn 0.2514 0.9677 0.0179
vn 0.2483 0.9686 0.0145
vn 0.0077 0.9998 0.0158
vn 0.0857 0.9926 0.0860
vn 0.2036 0.9663 0.1578
vn 0.3214 0.9466 0.0245
vn 0.3250 0.9457 0.0003
vn 0.3383 0.9408 0.0195
vn -0.3485 0.9358 -0.0529
vn -0.3276 0.9447 -0.0163
vn -0.2683 0.9620 -0.0507
vn -0.2383 0.9676 -0.0838
vn -0.2380 0.9632 -0.1246
vn -0.3011 0.9521 -0.0529
vn -0.3254 0.9443 -0.0497
vn -0.2682 0.9550 -0.1263
vn -0.0991 0.9916 -0.0833
vn -0.2207 0.9745 0.0414
vn 0.0373 0.9992 0.0129
vn 0.0670 0.9968 0.0428
vn 0.0687 0.9950 -0.0720
vn 0.1302 0.9915 -0.0057
vn -0.2226 0.9736 -0.0500
vn -0.2583 0.9660 -0.0112
vn 0.0890 0.9947 -0.0512
vn 0.1502 0.9886 0.0121
vn 0.2449 0.9676 0.0619
vn 0.1508 0.9871 -0.0538
vn 0.1393 0.9831 0.1188
vn 0.0248 0.9994 -0.0256
vn 0.1527 0.9876 -0.0374
vn 0.1213 0.9898 -0.0742
vn 0.3457 0.9382 -0.0142
vn 0.3827 0.9229 0.0418
vn 0.3920 0.9148 -0.0973
vn 0.4731 0.8804 0.0323
vn -0.2701 0.9597 -0.0782
vn -0.1783 0.9611 -0.2109
vn -0.3037 0.9264 -0.2226
vn -0.1763 0.9131 -0.3677
vn -0.1577 0.9621 -0.2225
vn -0.0928 0.9475 -0.3059
vn -0.1725 0.9825 -0.0707
vn -0.0261 0.9762 -0.2154
vn -0.2573 0.8941 -0.3667
vn -0.1621 0.8757 -0.4549
vn 0.1509 0.9207 -0.3599
vn 0.0460 0.8880 -0.4576
vn 0.0285 0.9384 -0.3443
vn 0.0349 0.9382 -0.3444
vn 0.0358 0.9381 -0.3444
vn 0.0004 0.9258 -0.3780
vn -0.1601 0.9375 -0.3091
vn -0.0910 0.9213 -0.3780
vn 0.1480 0.9276 -0.3430
vn 0.1321 0.9234 -0.3604
vn 0.0467 0.9461 -0.3204
vn 0.0317 0.9412 -0.3363
vn 0.0289 0.9670 -0.2533
vn 0.0275 0.9666 -0.2548
vn 0.0274 0.9666 -0.2548
vn 0.0260 0.9662 -0.2563
vn 0.1112 0.9606 -0.2546
vn 0.0277 0.9385 -0.3443
vn 0.4732 0.8698 -0.1401
vn 0.3130 0.8854 -0.3435
vn 0.3269 0.9440 -0.0441
vn 0.1288 0.9574 -0.2584
vn -0.0238 0.9996 -0.0165
vn -0.0406 0.9991 -0.0116
vn -0.0141 0.9981 -0.0592
vn -0.0448 0.9973 -0.0587
vn -0.0110 0.9955 -0.0938
vn 0.0011 0.9956 -0.0934
vn -0.0106 0.9955 -0.0938
vn -0.0274 0.9924 -0.1202
vn 0.0015 0.9956 -0.0934
vn -0.0045 0.9898 -0.1423
vn 0.0176 0.9927 -0.1196
vn 0.0223 0.9853 -0.1692
vn 0.0437 0.9889 -0.1420
vn 0.1312 0.9762 -0.1729
usemtl None
s 1
f 1/1/1 2/2/1 3/3/1
f 3/3/2 2/2/2 4/4/2
f 5/5/3 3/3/3 4/4/3
f 6/6/4 7/7/4 8/8/4
f 8/8/5 7/7/5 9/9/5
f 8/8/6 9/9/6 1/1/6
f 1/1/7 9/9/7 2/2/7
f 10/10/8 11/11/8 12/12/8
f 12/12/9 11/11/10 13/13/11
f 6/6/12 10/10/12 7/7/12
f 7/7/13 10/10/13 12/12/13
f 11/11/14 14/14/14 13/13/14
f 4/4/15 15/15/15 5/5/15
f 5/5/16 15/15/16 16/16/16
f 2/2/17 17/17/17 4/4/17
f 4/4/18 17/17/18 15/15/18
f 17/17/19 18/18/19 15/15/19
f 15/15/20 18/18/20 19/19/20
f 15/15/21 19/19/21 16/16/21
f 16/16/22 19/19/22 20/20/22
f 9/9/23 21/21/23 2/2/23
f 2/2/24 21/21/24 17/17/24
f 7/7/25 22/22/25 9/9/25
f 9/9/26 22/22/26 21/21/26
f 22/22/27 23/23/27 21/21/27
f 21/21/28 23/23/28 24/24/28
f 21/21/29 24/24/29 17/17/29
f 17/17/30 24/24/31 18/18/32
f 12/12/33 25/25/33 7/7/33
f 7/7/34 25/25/34 22/22/34
f 12/12/9 13/13/11 25/25/35
f 25/25/36 13/13/36 26/26/36
f 26/26/37 27/27/38 25/25/39
f 25/25/39 27/27/38 28/28/40
f 25/25/41 28/28/41 22/22/41
f 22/22/42 28/28/42 23/23/42
f 13/13/43 14/14/43 26/26/43
f 26/26/44 14/14/44 29/29/44
f 29/29/45 30/30/45 26/26/45
f 26/26/46 30/30/46 27/27/46
f 19/19/47 31/31/47 20/20/47
f 20/20/48 31/31/48 32/32/48
f 19/19/49 18/18/49 31/31/49
f 31/31/50 18/18/50 33/33/50
f 31/31/51 33/33/51 34/34/51
f 34/34/52 33/33/52 35/35/52
f 32/32/53 31/31/53 36/36/53
f 36/36/54 31/31/54 34/34/54
f 18/18/32 24/24/31 33/33/55
f 33/33/56 24/24/56 37/37/56
f 23/23/57 38/38/57 24/24/57
f 24/24/58 38/38/58 37/37/58
f 38/38/59 39/39/59 37/37/59
f 37/37/60 39/39/60 40/40/60
f 33/33/61 37/37/61 35/35/61
f 35/35/62 37/37/62 40/40/62
f 28/28/63 41/41/63 23/23/63
f 23/23/64 41/41/64 38/38/64
f 27/27/65 42/42/65 28/28/65
f 28/28/66 42/42/66 41/41/66
f 42/42/67 43/43/67 41/41/67
f 41/41/68 43/43/68 44/44/68
f 41/41/69 44/44/69 38/38/69
f 38/38/70 44/44/70 39/39/70
f 30/30/71 45/45/71 27/27/71
f 27/27/72 45/45/72 42/42/72
f 45/45/73 46/46/73 42/42/73
f 42/42/74 46/46/74 43/43/74
f 36/36/75 34/34/75 47/47/75
f 47/47/76 34/34/76 48/48/76
f 34/34/77 35/35/77 48/48/77
f 48/48/78 35/35/78 49/49/78
f 48/48/79 49/49/79 50/50/79
f 50/50/80 49/49/80 51/51/80
f 47/47/81 48/48/81 52/52/81
f 52/52/82 48/48/82 50/50/82
f 35/35/83 40/40/83 49/49/83
f 49/49/84 40/40/84 53/53/84
f 39/39/85 54/54/85 40/40/85
f 40/40/86 54/54/86 53/53/86
f 54/54/87 55/55/88 53/53/89
f 53/53/90 55/55/90 56/56/90
f 49/49/91 53/53/91 51/51/91
f 51/51/92 53/53/92 56/56/92
f 44/44/93 57/57/93 39/39/93
f 39/39/94 57/57/94 54/54/94
f 43/43/95 58/58/95 44/44/95
f 44/44/96 58/58/96 57/57/96
f 59/59/97 57/57/98 60/60/99
f 60/60/99 57/57/98 58/58/100
f 57/57/101 59/59/101 54/54/101
f 54/54/87 59/59/102 55/55/88
f 46/46/103 61/61/103 43/43/103
f 43/43/104 61/61/104 58/58/104
f 61/61/105 62/62/105 58/58/105
f 58/58/106 62/62/106 60/60/106
f 50/50/107 63/63/107 52/52/107
f 50/50/108 51/51/108 63/63/108
f 63/63/109 51/51/109 64/64/109
f 51/51/110 56/56/110 64/64/110
f 64/64/111 56/56/112 65/65/113
f 55/55/114 66/66/114 56/56/114
f 56/56/112 66/66/115 65/65/113
f 59/59/116 67/67/116 55/55/116
f 55/55/117 67/67/117 66/66/117
f 60/60/118 68/68/118 59/59/118
f 59/59/119 68/68/119 67/67/119
f 60/60/120 62/62/120 68/68/120
