# Blender v2.78 (sub 0) OBJ File: ''
# www.blender.org
mtllib SM_Env_Pebble_06.mtl
o SM_Env_Pebble_06
v -5.360352 -8.772107 5.360319
v 5.360352 -8.772107 5.360319
v -5.360352 8.772106 5.360324
v 1.270020 8.772106 5.360324
v 5.360352 6.365598 5.360323
v -5.360352 8.772107 -1.152035
v -1.344482 8.772108 -5.360319
v 1.647461 8.772108 -5.360319
v 5.360352 8.772107 -1.291531
v 5.360352 8.772106 3.465945
v -5.360352 -8.772103 -5.360324
v 5.360352 -8.772103 -5.360324
v 5.360352 3.912061 -5.360321
v -5.360352 3.727677 -5.360321
vt 0.9431 0.5022
vt 0.9431 0.5022
vt 0.9431 0.5022
vt 0.9431 0.5022
vt 0.9431 0.5022
vt 0.9431 0.5022
vt 0.9431 0.5022
vt 0.9431 0.5022
vt 0.9431 0.5022
vt 0.9431 0.5022
vt 0.9431 0.5022
vt 0.9431 0.5022
vt 0.9431 0.5022
vt 0.9431 0.5022
vn 0.0000 -0.0000 1.0000
vn 0.0000 1.0000 0.0000
vn 0.0000 -1.0000 -0.0000
vn 1.0000 -0.0000 0.0000
vn -1.0000 0.0000 0.0000
vn 0.0000 0.0000 -1.0000
vn -0.6269 0.4991 -0.5982
vn 0.3420 0.5812 0.7384
vn 0.6433 0.4915 -0.5870
usemtl None
s 1
f 1/1/1 2/2/1 3/3/1
f 3/3/1 2/2/1 4/4/1
f 2/2/1 5/5/1 4/4/1
f 3/3/2 4/4/2 6/6/2
f 6/6/2 4/4/2 7/7/2
f 7/7/2 4/4/2 8/8/2
f 8/8/2 4/4/2 9/9/2
f 4/4/2 10/10/2 9/9/2
f 11/11/3 12/12/3 1/1/3
f 1/1/3 12/12/3 2/2/3
f 2/2/4 12/12/4 5/5/4
f 12/12/4 13/13/4 5/5/4
f 5/5/4 13/13/4 10/10/4
f 13/13/4 9/9/4 10/10/4
f 11/11/5 1/1/5 14/14/5
f 3/3/5 6/6/5 1/1/5
f 1/1/5 6/6/5 14/14/5
f 12/12/6 11/11/6 13/13/6
f 11/11/6 14/14/6 13/13/6
f 14/14/6 7/7/6 13/13/6
f 7/7/6 8/8/6 13/13/6
f 6/6/7 7/7/7 14/14/7
f 4/4/8 5/5/8 10/10/8
f 8/8/9 9/9/9 13/13/9
