# Blender v2.78 (sub 0) OBJ File: ''
# www.blender.org
mtllib SM_Env_FloorTile_03.mtl
o SM_Env_FloorTile_03
v 76.159546 0.000001 -0.772827
v 99.547485 0.000001 -0.772827
v 76.159546 0.000005 -16.118652
v 95.697266 0.000007 -24.161133
v 107.293579 0.000005 -15.210571
v -36.145020 0.000025 -76.159302
v -16.739990 0.000013 -41.704956
v -7.114136 0.000025 -76.159424
v 0.772949 0.000021 -63.350586
v 0.772949 0.000013 -41.766357
v -74.613403 -0.000039 122.227661
v -74.613403 -0.000049 150.000000
v -65.451538 -0.000043 131.903442
v 0.772949 -0.000049 150.000000
v -53.984375 -0.000039 120.335327
v 0.772949 -0.000037 112.410400
v -19.411011 -0.000037 113.662231
v -30.689209 -0.000033 98.857300
v -59.725586 -0.000035 106.888062
v -74.613403 -0.000037 111.023926
v -74.613403 -0.000025 74.613525
v -54.391846 -0.000025 74.613525
v -25.845459 -0.000029 91.394287
v -28.675781 -0.000025 74.613525
v 76.159546 -0.000043 132.884033
v 106.376831 -0.000039 121.235474
v 76.159546 -0.000040 122.664795
v -96.214111 0.000001 -0.772949
v -111.694824 0.000003 -12.119385
v -118.782715 0.000001 -0.772949
v -74.613403 0.000009 -30.357178
v -74.613403 0.000019 -57.398193
v -97.613525 0.000017 -55.236450
v -104.000244 0.000025 -76.159302
v -74.613403 0.000001 -0.772827
v -84.078125 0.000009 -26.954590
v -89.174805 0.000001 -0.772827
v -87.637329 0.000003 -10.574585
v -96.847656 0.000007 -21.589233
v -105.926636 0.000011 -35.458130
v -108.890137 0.000007 -20.947021
v -150.000000 0.000001 -0.772827
v -126.313599 0.000001 -0.772827
v -150.000000 0.000025 -76.159302
v -103.906250 0.000015 -43.723999
v -122.782715 0.000015 -46.455688
v -98.774536 -0.000027 81.972534
v -88.168457 -0.000027 85.261719
v -88.924316 -0.000035 104.355225
v -150.000000 -0.000049 150.000000
v -150.000000 -0.000025 74.613525
v -129.823608 -0.000025 74.613525
v -118.272949 -0.000035 107.060303
v -96.977905 -0.000038 116.400879
v 0.772949 0.000025 -76.159302
v 19.951660 0.000019 -59.938477
v 30.061890 0.000025 -76.159302
v 15.052979 0.000017 -51.251221
v 41.823242 0.000011 -32.002686
v 38.973145 0.000017 -51.436401
v 53.550537 0.000013 -40.378296
v 53.740967 0.000019 -59.240112
v 41.871338 0.000023 -68.331543
v 59.176636 0.000007 -21.483765
v 61.571411 0.000001 -0.772827
v 48.387207 0.000025 -76.159302
v 76.159546 0.000025 -76.159302
v 64.608765 0.000011 -33.468750
v 31.791504 -0.000027 84.175049
v 36.741699 -0.000035 105.762085
v 51.319336 -0.000031 96.783813
v 53.989258 -0.000037 111.315674
v 105.795288 -0.000025 74.613525
v 111.794922 -0.000020 61.145508
v 83.955078 -0.000019 59.499634
v 97.347656 -0.000017 49.365723
v 76.159546 -0.000013 37.998047
v 91.294922 -0.000010 30.388428
v 76.159546 -0.000025 74.613525
v 59.265137 -0.000015 45.796387
v -38.763062 -0.000005 12.965820
v -46.043945 0.000003 -6.696533
v -45.611694 -0.000003 11.540894
v -57.494141 -0.000011 31.111816
v -49.862305 -0.000007 19.490967
v -44.810669 -0.000014 42.846313
v -63.791260 -0.000017 53.976807
v -46.296021 -0.000023 68.443604
v -74.613403 -0.000019 56.672607
v -103.840454 -0.000019 55.928711
v -90.251465 -0.000013 41.951782
v -108.937256 -0.000009 27.641357
v -95.488647 -0.000005 13.060913
v 76.159546 0.000049 -150.000000
v 76.159546 0.000041 -126.504883
v 150.000000 0.000049 -150.000000
v 96.645752 0.000031 -97.276367
v 126.862793 0.000023 -73.256104
v 150.000000 0.000025 -76.159302
v 16.769287 0.000029 -88.765991
v 0.772949 0.000033 -103.393677
v 22.047852 0.000033 -101.648071
v 0.772949 0.000049 -150.000000
v 0.772949 0.000035 -108.992188
v 76.159546 0.000035 -104.891846
v 38.809082 0.000033 -99.441284
v 41.988281 0.000027 -83.644409
v -6.577026 0.000039 -120.112549
v -8.719238 0.000033 -99.773438
v -74.613403 0.000049 -150.000000
v -17.875977 0.000039 -119.960938
v -78.877441 0.000043 -130.368164
v -74.613403 0.000037 -114.881470
v -49.731934 0.000035 -109.201416
v -20.506836 0.000035 -107.161255
v -46.307129 0.000029 -86.933105
v -94.897461 0.000045 -139.446899
v -150.000000 0.000049 -150.000000
v -117.833496 0.000043 -132.837036
v -121.558472 0.000037 -115.854492
v -109.235352 0.000033 -100.568115
v -74.613403 0.000025 -76.159302
v -74.613403 0.000031 -94.767578
v -64.457520 0.000029 -90.798584
v -57.119873 0.000031 -97.673096
v -65.429688 0.000035 -105.265625
v -74.613403 0.000033 -103.527832
v -60.401855 0.000003 -11.266235
v 0.772949 0.000009 -25.136108
v 15.375977 0.000005 -13.561646
v 13.585693 0.000009 -26.961548
v 46.616821 0.000001 -0.772827
v 36.616699 0.000007 -19.878174
v 35.342041 0.000001 -0.772827
v 32.653809 0.000003 -7.327271
v 16.983032 -0.000025 74.613525
v 15.209961 -0.000011 36.368652
v 0.772949 -0.000025 74.613525
v 0.772949 -0.000007 22.503540
v 115.436035 -0.000033 99.900635
v 34.359375 -0.000025 74.613525
v 45.551392 -0.000025 74.613525
v 26.156982 -0.000021 63.220947
v 34.104980 -0.000019 57.407959
v 49.465820 -0.000003 9.445923
v 43.912354 -0.000005 15.005615
v 0.772949 0.000001 -0.772827
v -46.208496 0.000007 -21.484497
v -112.775146 0.000039 -117.072021
v 34.847656 -0.000043 130.372192
v 34.847534 -0.000043 130.372192
v 19.009766 -0.000043 131.633911
v 0.773315 -0.000031 94.073975
v -7.013062 -0.000017 53.373901
v -37.678345 -0.000013 41.149292
v -14.499390 -0.000011 36.157471
v -33.355469 -0.000009 25.993774
v 123.319824 0.000001 -0.772949
v 110.614258 -0.000003 10.721924
v 131.031616 0.000001 -0.772827
v 135.494019 -0.000001 5.564941
v 150.000000 0.000001 -0.772827
v 150.000000 -0.000025 74.613525
v 134.084595 -0.000005 17.253174
v 121.458496 -0.000009 24.691650
v 95.737061 0.000024 -73.959595
v 117.799561 0.000019 -58.159790
v 113.473511 0.000013 -37.429688
v 121.596802 0.000005 -18.197021
v 136.490234 0.000011 -33.487061
v -120.803955 -0.000023 70.388794
v -111.533813 -0.000027 81.580322
v 76.159546 -0.000049 150.000000
v 150.000000 -0.000049 150.000000
vt 0.9420 0.4562
vt 0.9420 0.4562
vt 0.9420 0.4562
vt 0.9420 0.4562
vt 0.9420 0.4562
vt 0.9659 0.4514
vt 0.9659 0.4514
vt 0.9659 0.4514
vt 0.9659 0.4514
vt 0.9659 0.4514
vt 0.9659 0.4514
vt 0.9659 0.4514
vt 0.9659 0.4514
vt 0.9659 0.4514
vt 0.9659 0.4514
vt 0.9659 0.4514
vt 0.9659 0.4514
vt 0.9659 0.4514
vt 0.9659 0.4514
vt 0.9659 0.4514
vt 0.9659 0.4514
vt 0.9659 0.4514
vt 0.9659 0.4514
vt 0.9659 0.4514
vt 0.9680 0.5024
vt 0.9680 0.5024
vt 0.9680 0.5024
vt 0.9659 0.4514
vt 0.9659 0.4514
vt 0.9659 0.4514
vt 0.9659 0.4514
vt 0.9659 0.4514
vt 0.9659 0.4514
vt 0.9659 0.4514
vt 0.9659 0.4514
vt 0.9659 0.4514
vt 0.9659 0.4514
vt 0.9659 0.4514
vt 0.9659 0.4514
vt 0.9659 0.4514
vt 0.9659 0.4514
vt 0.9659 0.4514
vt 0.9659 0.4514
vt 0.9659 0.4514
vt 0.9659 0.4514
vt 0.9659 0.4514
vt 0.9659 0.4514
vt 0.9659 0.4514
vt 0.9659 0.4514
vt 0.9659 0.4514
vt 0.9659 0.4514
vt 0.9659 0.4514
vt 0.9659 0.4514
vt 0.9659 0.4514
vt 0.9659 0.4514
vt 0.9659 0.4514
vt 0.9659 0.4514
vt 0.9659 0.4514
vt 0.9659 0.4514
vt 0.9659 0.4514
vt 0.9659 0.4514
vt 0.9659 0.4514
vt 0.9659 0.4514
vt 0.9659 0.4514
vt 0.9659 0.4514
vt 0.9659 0.4514
vt 0.9659 0.4514
vt 0.9659 0.4514
vt 0.9659 0.4514
vt 0.9659 0.4514
vt 0.9680 0.5024
vt 0.9680 0.5024
vt 0.9680 0.5024
vt 0.9680 0.5024
vt 0.9420 0.4562
vt 0.9420 0.4562
vt 0.9420 0.4562
vt 0.9420 0.4562
vt 0.9420 0.4562
vt 0.9420 0.4562
vt 0.9659 0.4514
vt 0.9659 0.4514
vt 0.9659 0.4514
vt 0.9420 0.4562
vt 0.9420 0.4562
vt 0.9420 0.4562
vt 0.9420 0.4562
vt 0.9420 0.4562
vt 0.9420 0.4562
vt 0.9420 0.4562
vt 0.9420 0.4562
vt 0.9420 0.4562
vt 0.9420 0.4562
vt 0.9420 0.4562
vt 0.9420 0.4562
vt 0.9420 0.4562
vt 0.9420 0.4562
vt 0.9420 0.4562
vt 0.9420 0.4562
vt 0.9420 0.4562
vt 0.9420 0.4562
vt 0.9659 0.4514
vt 0.9659 0.4514
vt 0.9659 0.4514
vt 0.9659 0.4514
vt 0.9659 0.4514
vt 0.9659 0.4514
vt 0.9659 0.4514
vt 0.9659 0.4514
vt 0.9659 0.4514
vt 0.9659 0.4514
vt 0.9659 0.4514
vt 0.9659 0.4514
vt 0.9659 0.4514
vt 0.9659 0.4514
vt 0.9659 0.4514
vt 0.9659 0.4514
vt 0.9659 0.4514
vt 0.9659 0.4514
vt 0.9659 0.4514
vt 0.9659 0.4514
vt 0.9659 0.4514
vt 0.9659 0.4514
vt 0.9659 0.4514
vt 0.9659 0.4514
vt 0.9659 0.4514
vt 0.9659 0.4514
vt 0.9659 0.4514
vt 0.9659 0.4514
vt 0.9420 0.4562
vt 0.9420 0.4562
vt 0.9420 0.4562
vt 0.9420 0.4562
vt 0.9420 0.4562
vt 0.9420 0.4562
vt 0.9420 0.4562
vt 0.9420 0.4562
vt 0.9420 0.4562
vt 0.9420 0.4562
vt 0.9420 0.4562
vt 0.9420 0.4562
vt 0.9659 0.4514
vt 0.9659 0.4514
vt 0.9659 0.4514
vt 0.9659 0.4514
vt 0.9659 0.4514
vt 0.9659 0.4514
vt 0.9659 0.4514
vt 0.9659 0.4514
vt 0.9659 0.4514
vt 0.9659 0.4514
vt 0.9659 0.4514
vt 0.9420 0.4562
vt 0.9420 0.4562
vt 0.9420 0.4562
vt 0.9420 0.4562
vt 0.9420 0.4562
vt 0.9420 0.4562
vt 0.9420 0.4562
vt 0.9420 0.4562
vt 0.9420 0.4562
vt 0.9420 0.4562
vt 0.9420 0.4562
vt 0.9420 0.4562
vt 0.9420 0.4562
vt 0.9420 0.4562
vt 0.9420 0.4562
vt 0.9420 0.4562
vt 0.9420 0.4562
vt 0.9420 0.4562
vt 0.9420 0.4562
vt 0.9420 0.4562
vt 0.9420 0.4562
vt 0.9420 0.4562
vt 0.9420 0.4562
vt 0.9420 0.4562
vt 0.9420 0.4562
vt 0.9420 0.4562
vt 0.9420 0.4562
vt 0.9420 0.4562
vt 0.9420 0.4562
vt 0.9420 0.4562
vt 0.9420 0.4562
vt 0.9420 0.4562
vt 0.9420 0.4562
vt 0.9420 0.4562
vt 0.9420 0.4562
vt 0.9420 0.4562
vt 0.9420 0.4562
vt 0.9420 0.4562
vt 0.9420 0.4562
vt 0.9420 0.4562
vt 0.9420 0.4562
vt 0.9420 0.4562
vt 0.9659 0.4514
vt 0.9659 0.4514
vt 0.9420 0.4562
vt 0.9420 0.4562
vt 0.9420 0.4562
vt 0.9420 0.4562
vt 0.9420 0.4562
vt 0.9420 0.4562
vt 0.9420 0.4562
vt 0.9420 0.4562
vt 0.9420 0.4562
vt 0.9420 0.4562
vt 0.9420 0.4562
vt 0.9420 0.4562
vt 0.9420 0.4562
vt 0.9420 0.4562
vt 0.9659 0.4514
vt 0.9659 0.4514
vt 0.9659 0.4514
vt 0.9659 0.4514
vt 0.9659 0.4514
vt 0.9659 0.4514
vt 0.9659 0.4514
vt 0.9659 0.4514
vt 0.9659 0.4514
vt 0.9659 0.4514
vt 0.9659 0.4514
vt 0.9659 0.4514
vt 0.9659 0.4514
vt 0.9420 0.4562
vt 0.9420 0.4562
vt 0.9420 0.4562
vt 0.9420 0.4562
vt 0.9420 0.4562
vt 0.9420 0.4562
vt 0.9420 0.4562
vt 0.9659 0.4514
vt 0.9659 0.4514
vt 0.9659 0.4514
vt 0.9659 0.4514
vt 0.9659 0.4514
vt 0.9659 0.4514
vt 0.9659 0.4514
vt 0.9659 0.4514
vt 0.9659 0.4514
vt 0.9659 0.4514
vt 0.9659 0.4514
vt 0.9659 0.4514
vt 0.9659 0.4514
vt 0.9659 0.4514
vt 0.9420 0.4562
vt 0.9420 0.4562
vt 0.9420 0.4562
vt 0.9420 0.4562
vt 0.9420 0.4562
vt 0.9659 0.4514
vt 0.9659 0.4514
vt 0.9659 0.4514
vt 0.9659 0.4514
vt 0.9659 0.4514
vt 0.9659 0.4514
vt 0.9659 0.4514
vt 0.9420 0.4562
vt 0.9420 0.4562
vt 0.9420 0.4562
vt 0.9420 0.4562
vt 0.9420 0.4562
vt 0.9659 0.4514
vt 0.9659 0.4514
vt 0.9659 0.4514
vt 0.9659 0.4514
vt 0.9659 0.4514
vt 0.9659 0.4514
vt 0.9659 0.4514
vt 0.9659 0.4514
vt 0.9659 0.4514
vt 0.9659 0.4514
vt 0.9659 0.4514
vt 0.9659 0.4514
vt 0.9659 0.4514
vt 0.9659 0.4514
vt 0.9659 0.4514
vt 0.9659 0.4514
vt 0.9420 0.4562
vt 0.9420 0.4562
vt 0.9420 0.4562
vt 0.9420 0.4562
vt 0.9420 0.4562
vt 0.9420 0.4562
vt 0.9420 0.4562
vt 0.9420 0.4562
vt 0.9420 0.4562
vt 0.9420 0.4562
vt 0.9420 0.4562
vt 0.9420 0.4562
vt 0.9420 0.4562
vt 0.9420 0.4562
vt 0.9680 0.5024
vt 0.9680 0.5024
vt 0.9680 0.5024
vt 0.9680 0.5024
vt 0.9680 0.5024
vt 0.9680 0.5024
vt 0.9680 0.5024
vt 0.9659 0.4514
vt 0.9659 0.4514
vt 0.9659 0.4514
vt 0.9659 0.4514
vt 0.9659 0.4514
vt 0.9659 0.4514
vt 0.9659 0.4514
vt 0.9659 0.4514
vt 0.9659 0.4514
vt 0.9659 0.4514
vt 0.9659 0.4514
vt 0.9659 0.4514
vt 0.9680 0.5024
vt 0.9680 0.5024
vt 0.9680 0.5024
vt 0.9680 0.5024
vt 0.9680 0.5024
vt 0.9680 0.5024
vt 0.9680 0.5024
vt 0.9680 0.5024
vt 0.9680 0.5024
vt 0.9680 0.5024
vt 0.9680 0.5024
vt 0.9680 0.5024
vt 0.9680 0.5024
vt 0.9680 0.5024
vt 0.9680 0.5024
vt 0.9680 0.5024
vt 0.9680 0.5024
vt 0.9680 0.5024
vt 0.9680 0.5024
vt 0.9680 0.5024
vt 0.9680 0.5024
vt 0.9659 0.4514
vt 0.9680 0.5024
vt 0.9680 0.5024
vt 0.9680 0.5024
vt 0.9680 0.5024
vt 0.9680 0.5024
vn 0.0000 1.0000 0.0000
usemtl None
s 1
f 1/1/1 2/2/1 3/3/1
f 3/3/1 2/2/1 4/4/1
f 2/2/1 5/5/1 4/4/1
f 6/6/1 7/7/1 8/8/1
f 8/8/1 7/7/1 9/9/1
f 9/9/1 7/7/1 10/10/1
f 11/11/1 12/12/1 13/13/1
f 12/12/1 14/14/1 13/13/1
f 13/13/1 14/14/1 15/15/1
f 14/14/1 16/16/1 15/15/1
f 16/16/1 17/17/1 15/15/1
f 17/17/1 18/18/1 15/15/1
f 15/15/1 18/18/1 19/19/1
f 20/20/1 19/19/1 21/21/1
f 21/21/1 19/19/1 22/22/1
f 19/19/1 18/18/1 22/22/1
f 18/18/1 23/23/1 22/22/1
f 23/23/1 24/24/1 22/22/1
f 25/25/1 26/26/1 27/27/1
f 28/28/1 29/29/1 30/30/1
f 31/31/1 32/32/1 33/33/1
f 32/32/1 34/34/1 33/33/1
f 35/35/1 36/36/1 37/37/1
f 37/37/1 36/36/1 38/38/1
f 38/38/1 36/36/1 39/39/1
f 36/36/1 40/40/1 39/39/1
f 39/39/1 40/40/1 41/41/1
f 42/42/1 43/43/1 44/44/1
f 34/34/1 44/44/1 33/33/1
f 33/33/1 44/44/1 45/45/1
f 45/45/1 44/44/1 46/46/1
f 44/44/1 43/43/1 46/46/1
f 46/46/1 43/43/1 40/40/1
f 40/40/1 43/43/1 41/41/1
f 41/41/1 43/43/1 29/29/1
f 43/43/1 30/30/1 29/29/1
f 47/47/1 48/48/1 21/21/1
f 21/21/1 48/48/1 20/20/1
f 48/48/1 49/49/1 20/20/1
f 12/12/1 11/11/1 50/50/1
f 51/51/1 50/50/1 52/52/1
f 52/52/1 50/50/1 53/53/1
f 49/49/1 54/54/1 20/20/1
f 20/20/1 54/54/1 11/11/1
f 11/11/1 54/54/1 50/50/1
f 54/54/1 53/53/1 50/50/1
f 55/55/1 56/56/1 57/57/1
f 9/9/1 10/10/1 58/58/1
f 10/10/1 59/59/1 58/58/1
f 58/58/1 59/59/1 60/60/1
f 60/60/1 59/59/1 61/61/1
f 56/56/1 62/62/1 57/57/1
f 57/57/1 62/62/1 63/63/1
f 61/61/1 59/59/1 64/64/1
f 59/59/1 65/65/1 64/64/1
f 63/63/1 62/62/1 66/66/1
f 66/66/1 62/62/1 67/67/1
f 67/67/1 62/62/1 3/68/1
f 62/62/1 68/69/1 3/68/1
f 68/69/1 64/64/1 3/68/1
f 64/64/1 65/65/1 3/68/1
f 65/65/1 1/70/1 3/68/1
f 69/71/1 70/72/1 71/73/1
f 25/25/1 27/27/1 72/74/1
f 27/27/1 71/73/1 72/74/1
f 70/72/1 72/74/1 71/73/1
f 73/75/1 74/76/1 75/77/1
f 74/76/1 76/78/1 75/77/1
f 75/77/1 76/78/1 77/79/1
f 76/78/1 78/80/1 77/79/1
f 79/81/1 77/82/1 80/83/1
f 80/83/1 77/82/1 65/65/1
f 65/65/1 77/82/1 1/70/1
f 81/84/1 82/85/1 83/86/1
f 35/87/1 84/88/1 82/85/1
f 82/85/1 84/88/1 83/86/1
f 83/86/1 84/88/1 85/89/1
f 85/89/1 84/88/1 86/90/1
f 84/88/1 87/91/1 86/90/1
f 86/90/1 87/91/1 88/92/1
f 22/93/1 88/92/1 87/91/1
f 21/94/1 89/95/1 90/96/1
f 89/95/1 91/97/1 90/96/1
f 90/96/1 91/97/1 92/98/1
f 91/97/1 93/99/1 92/98/1
f 43/100/1 92/98/1 30/101/1
f 92/98/1 93/99/1 30/101/1
f 94/102/1 95/103/1 96/104/1
f 95/103/1 97/105/1 96/104/1
f 97/105/1 98/106/1 96/104/1
f 98/106/1 99/107/1 96/104/1
f 57/57/1 100/108/1 55/55/1
f 55/55/1 100/108/1 101/109/1
f 100/108/1 102/110/1 101/109/1
f 103/111/1 104/112/1 94/102/1
f 94/102/1 104/112/1 95/103/1
f 95/103/1 104/112/1 105/113/1
f 104/112/1 101/109/1 105/113/1
f 101/109/1 102/110/1 105/113/1
f 102/110/1 106/114/1 105/113/1
f 105/113/1 106/114/1 67/67/1
f 106/114/1 107/115/1 67/67/1
f 107/115/1 66/66/1 67/67/1
f 104/112/1 103/111/1 108/116/1
f 101/109/1 109/117/1 55/55/1
f 55/55/1 109/117/1 8/8/1
f 103/111/1 110/118/1 108/116/1
f 108/116/1 110/118/1 111/119/1
f 110/118/1 112/120/1 111/119/1
f 112/120/1 113/121/1 111/119/1
f 113/121/1 114/122/1 111/119/1
f 111/119/1 114/122/1 115/123/1
f 114/122/1 116/124/1 115/123/1
f 116/124/1 6/6/1 115/123/1
f 8/8/1 109/117/1 6/6/1
f 6/6/1 109/117/1 115/123/1
f 112/120/1 110/118/1 117/125/1
f 110/118/1 118/126/1 117/125/1
f 117/125/1 118/126/1 119/127/1
f 118/126/1 44/44/1 119/127/1
f 119/127/1 44/44/1 120/128/1
f 120/128/1 44/44/1 121/129/1
f 44/44/1 34/34/1 121/129/1
f 6/130/1 116/131/1 122/132/1
f 123/133/1 122/132/1 124/134/1
f 122/132/1 116/131/1 124/134/1
f 124/134/1 116/131/1 125/135/1
f 116/131/1 114/136/1 125/135/1
f 114/136/1 113/137/1 125/135/1
f 125/135/1 113/137/1 126/138/1
f 113/137/1 127/139/1 126/138/1
f 82/85/1 128/140/1 35/87/1
f 35/87/1 128/140/1 31/141/1
f 129/142/1 130/143/1 131/144/1
f 132/145/1 133/146/1 134/147/1
f 134/147/1 133/146/1 135/148/1
f 131/144/1 130/143/1 133/146/1
f 133/146/1 130/143/1 135/148/1
f 136/149/1 137/150/1 138/151/1
f 138/151/1 137/150/1 139/152/1
f 26/153/1 140/154/1 27/155/1
f 27/155/1 140/154/1 79/156/1
f 136/157/1 69/158/1 141/159/1
f 27/155/1 79/156/1 71/160/1
f 79/156/1 142/161/1 71/160/1
f 142/161/1 141/159/1 71/160/1
f 69/158/1 71/160/1 141/159/1
f 141/159/1 143/162/1 136/157/1
f 136/157/1 143/162/1 137/163/1
f 79/156/1 80/164/1 142/161/1
f 142/161/1 80/164/1 144/165/1
f 132/166/1 145/167/1 65/168/1
f 65/168/1 145/167/1 80/164/1
f 145/167/1 146/169/1 80/164/1
f 143/162/1 144/165/1 137/163/1
f 80/164/1 146/169/1 144/165/1
f 144/165/1 146/169/1 137/163/1
f 147/170/1 139/171/1 134/172/1
f 139/171/1 137/163/1 134/172/1
f 137/163/1 146/169/1 134/172/1
f 147/170/1 129/173/1 82/85/1
f 82/85/1 129/173/1 148/174/1
f 10/175/1 7/176/1 129/173/1
f 129/173/1 7/176/1 148/174/1
f 122/132/1 32/177/1 6/130/1
f 32/177/1 148/174/1 6/130/1
f 7/176/1 6/130/1 148/174/1
f 122/132/1 34/178/1 32/177/1
f 122/132/1 123/133/1 34/178/1
f 34/178/1 123/133/1 121/179/1
f 123/133/1 127/139/1 121/179/1
f 127/139/1 113/137/1 121/179/1
f 121/179/1 113/137/1 149/180/1
f 113/137/1 112/181/1 149/180/1
f 112/181/1 117/182/1 149/180/1
f 150/183/1 151/184/1 152/185/1
f 153/186/1 16/187/1 151/184/1
f 16/187/1 152/185/1 151/184/1
f 16/187/1 153/186/1 23/188/1
f 24/189/1 23/188/1 138/190/1
f 138/190/1 23/188/1 153/186/1
f 82/85/1 81/84/1 147/170/1
f 138/190/1 154/191/1 24/189/1
f 24/189/1 154/191/1 155/192/1
f 154/191/1 156/193/1 155/192/1
f 155/192/1 156/193/1 157/194/1
f 147/170/1 81/84/1 139/171/1
f 81/84/1 157/194/1 139/171/1
f 157/194/1 156/193/1 139/171/1
f 156/195/1 154/196/1 139/152/1
f 139/152/1 154/196/1 138/151/1
f 64/197/1 68/198/1 61/199/1
f 68/198/1 62/200/1 61/199/1
f 55/201/1 9/202/1 56/203/1
f 9/202/1 58/204/1 56/203/1
f 61/199/1 62/200/1 60/205/1
f 62/200/1 56/203/1 60/205/1
f 58/204/1 60/205/1 56/203/1
f 35/87/1 31/141/1 36/206/1
f 46/207/1 40/208/1 45/209/1
f 31/141/1 33/210/1 36/206/1
f 33/210/1 45/209/1 36/206/1
f 45/209/1 40/208/1 36/206/1
f 35/35/1 89/211/1 84/212/1
f 84/212/1 89/211/1 87/213/1
f 22/22/1 87/213/1 21/21/1
f 87/213/1 89/211/1 21/21/1
f 22/22/1 24/24/1 88/214/1
f 24/24/1 155/215/1 88/214/1
f 88/214/1 155/215/1 86/216/1
f 86/216/1 155/215/1 85/217/1
f 155/215/1 157/218/1 85/217/1
f 157/218/1 81/219/1 85/217/1
f 81/219/1 83/220/1 85/217/1
f 32/32/1 31/31/1 148/221/1
f 31/31/1 128/222/1 148/221/1
f 82/223/1 148/221/1 128/222/1
f 55/201/1 8/224/1 9/202/1
f 111/225/1 115/226/1 108/227/1
f 115/226/1 109/228/1 108/227/1
f 101/229/1 104/230/1 109/228/1
f 104/230/1 108/227/1 109/228/1
f 73/231/1 75/232/1 79/81/1
f 79/81/1 75/232/1 77/82/1
f 158/233/1 2/234/1 159/235/1
f 160/236/1 161/237/1 162/238/1
f 77/82/1 78/239/1 1/70/1
f 1/70/1 78/239/1 2/234/1
f 2/234/1 78/239/1 159/235/1
f 73/231/1 163/240/1 74/241/1
f 162/238/1 161/237/1 163/240/1
f 161/237/1 164/242/1 163/240/1
f 163/240/1 164/242/1 74/241/1
f 164/242/1 165/243/1 74/241/1
f 74/241/1 165/243/1 76/244/1
f 76/244/1 165/243/1 78/239/1
f 165/243/1 159/235/1 78/239/1
f 13/245/1 15/246/1 11/247/1
f 15/246/1 19/248/1 11/247/1
f 11/247/1 19/248/1 20/249/1
f 2/234/1 158/233/1 5/250/1
f 3/68/1 4/251/1 67/67/1
f 67/67/1 4/251/1 166/252/1
f 166/252/1 4/251/1 167/253/1
f 167/253/1 4/251/1 168/254/1
f 4/251/1 5/250/1 168/254/1
f 168/254/1 5/250/1 169/255/1
f 5/250/1 158/233/1 169/255/1
f 99/107/1 98/106/1 162/238/1
f 98/106/1 170/256/1 162/238/1
f 170/256/1 169/255/1 162/238/1
f 162/238/1 169/255/1 160/236/1
f 169/255/1 158/233/1 160/236/1
f 65/168/1 59/257/1 132/166/1
f 132/166/1 59/257/1 133/258/1
f 10/175/1 129/173/1 59/257/1
f 129/173/1 131/259/1 59/257/1
f 59/257/1 131/259/1 133/258/1
f 129/173/1 147/170/1 130/260/1
f 134/172/1 135/261/1 147/170/1
f 135/261/1 130/260/1 147/170/1
f 134/147/1 146/262/1 132/145/1
f 132/145/1 146/262/1 145/263/1
f 142/264/1 144/265/1 141/266/1
f 141/266/1 144/265/1 143/267/1
f 125/268/1 126/269/1 124/270/1
f 124/270/1 126/269/1 123/271/1
f 123/271/1 126/269/1 127/272/1
f 21/21/1 90/273/1 47/47/1
f 47/47/1 90/273/1 171/274/1
f 51/51/1 52/52/1 42/42/1
f 42/42/1 52/52/1 43/43/1
f 43/43/1 52/52/1 92/275/1
f 52/52/1 171/274/1 92/275/1
f 171/274/1 90/273/1 92/275/1
f 30/30/1 93/276/1 28/28/1
f 89/211/1 35/35/1 91/277/1
f 91/277/1 35/35/1 93/276/1
f 35/35/1 37/37/1 93/276/1
f 93/276/1 37/37/1 28/28/1
f 166/252/1 105/113/1 67/67/1
f 166/278/1 167/279/1 98/280/1
f 98/280/1 167/279/1 170/281/1
f 167/279/1 168/282/1 170/281/1
f 168/282/1 169/283/1 170/281/1
f 95/284/1 105/285/1 97/286/1
f 98/280/1 97/286/1 166/278/1
f 97/286/1 105/285/1 166/278/1
f 54/287/1 172/288/1 53/289/1
f 52/290/1 53/289/1 171/291/1
f 53/289/1 172/288/1 171/291/1
f 66/292/1 107/293/1 57/294/1
f 57/294/1 107/293/1 100/295/1
f 107/293/1 106/296/1 100/295/1
f 106/296/1 102/297/1 100/295/1
f 57/294/1 63/298/1 66/292/1
f 16/16/1 14/14/1 152/299/1
f 14/14/1 173/300/1 152/299/1
f 152/299/1 173/300/1 150/301/1
f 173/300/1 25/302/1 150/301/1
f 25/302/1 72/303/1 150/301/1
f 72/303/1 70/304/1 150/301/1
f 138/151/1 153/305/1 136/149/1
f 150/301/1 70/304/1 151/306/1
f 151/306/1 70/304/1 153/305/1
f 70/304/1 69/307/1 153/305/1
f 69/307/1 136/149/1 153/305/1
f 79/81/1 140/308/1 73/231/1
f 73/231/1 140/308/1 163/240/1
f 163/240/1 140/308/1 174/309/1
f 140/308/1 26/310/1 174/309/1
f 173/300/1 174/309/1 25/302/1
f 26/310/1 25/302/1 174/309/1
f 16/311/1 23/312/1 17/313/1
f 17/313/1 23/312/1 18/314/1
f 37/315/1 38/316/1 28/317/1
f 28/317/1 38/316/1 29/318/1
f 38/316/1 39/319/1 29/318/1
f 39/319/1 41/320/1 29/318/1
f 159/321/1 165/322/1 158/323/1
f 165/322/1 164/324/1 158/323/1
f 158/323/1 164/324/1 160/325/1
f 164/324/1 161/326/1 160/325/1
f 121/327/1 149/328/1 120/329/1
f 117/330/1 119/331/1 149/328/1
f 119/331/1 120/329/1 149/328/1
f 172/332/1 47/47/1 171/274/1
f 54/333/1 49/334/1 172/335/1
f 172/335/1 49/334/1 47/336/1
f 49/334/1 48/337/1 47/336/1
