# Blender v2.78 (sub 0) OBJ File: ''
# www.blender.org
mtllib SM_Env_Grass_01.mtl
o SM_Env_Grass_01
v 6.463989 -0.513322 11.903563
v 8.450806 1.502889 7.122803
v 14.933960 4.197776 14.086670
v 4.852660 5.854664 7.462646
v 2.865601 3.838375 12.243896
v -8.930786 -10.964048 2.665035
v -3.950805 -6.255727 -4.886967
v -5.334351 -15.315778 2.324701
v -0.352905 -10.607412 -5.227056
v 2.476929 6.209715 -3.991943
v 6.162964 3.213446 -6.873047
v 5.564819 13.130013 -14.086667
v 2.431274 2.676778 -11.090334
v -1.254760 5.673122 -8.209228
v -9.703003 -10.031242 -1.422856
v -2.348022 -13.692604 -7.465094
v -5.971313 -9.494607 2.794429
v 1.384156 -13.155875 -3.248053
v -11.073364 10.343416 1.162844
v -6.678101 10.224028 -2.232908
v -14.933960 15.315780 -8.053950
v -9.858521 7.854424 -6.266356
v -14.253784 7.973790 -2.870605
v -12.612915 -13.075675 2.829828
v -5.207885 -11.418995 -3.982671
v -9.433228 -10.706055 6.863521
v -2.026977 -9.049277 0.050533
vt 0.9656 0.4562
vt 0.9656 0.4562
vt 0.9656 0.4562
vt 0.9656 0.4562
vt 0.9656 0.4562
vt 0.9656 0.4562
vt 0.9656 0.4562
vt 0.9656 0.4562
vt 0.9656 0.4562
vt 0.9656 0.4562
vt 0.9656 0.4562
vt 0.9656 0.4562
vt 0.9656 0.4562
vt 0.9656 0.4562
vt 0.9656 0.4562
vt 0.9656 0.4562
vt 0.9656 0.4562
vt 0.9656 0.4562
vt 0.9656 0.4562
vt 0.9656 0.4562
vt 0.9656 0.4562
vt 0.9656 0.4562
vt 0.9656 0.4562
vt 0.9656 0.4562
vt 0.9656 0.4562
vt 0.9656 0.4562
vt 0.9656 0.4562
vn 0.5093 -0.8481 -0.1460
vn -0.0824 0.9301 0.3580
vn -0.5976 -0.4415 -0.6693
vn -0.5975 -0.4416 -0.6694
vn -0.5975 -0.4415 -0.6693
vn -0.5974 -0.4416 -0.6694
vn 0.5327 0.4941 -0.6871
vn -0.1424 -0.1937 0.9707
vn 0.7508 -0.6548 0.0870
vn 0.7777 -0.6258 0.0593
vn 0.4644 0.4439 -0.7663
vn -0.7777 0.6258 -0.0593
vn -0.7509 0.6547 -0.0870
vn -0.3124 -0.3279 0.8916
vn -0.3124 -0.3280 0.8915
vn -0.3124 -0.3279 0.8915
vn 0.7458 0.4207 0.5166
vn -0.6318 -0.0326 -0.7744
vn -0.2114 -0.9285 0.3052
vn -0.2114 -0.9285 0.3053
vn 0.7157 -0.3821 -0.5846
vn -0.5246 0.7685 0.3664
vn 0.6330 -0.0060 0.7741
vn 0.6137 -0.0043 0.7896
vn 0.7245 -0.3438 -0.5974
vn -0.6136 0.0043 -0.7896
vn -0.6330 0.0060 -0.7741
vn -0.6510 0.5679 0.5037
vn -0.6510 0.5679 0.5038
vn 0.2974 0.8868 0.3538
vn -0.5306 -0.5211 -0.6685
vn 0.3957 -0.8934 0.2129
vn 0.6637 0.2858 -0.6912
vn -0.8269 0.2712 0.4927
vn 0.6249 0.2491 0.7399
vn 0.5982 0.2351 0.7661
vn 0.7504 0.1037 -0.6528
vn 0.7505 0.1038 -0.6527
vn -0.5982 -0.2351 -0.7661
vn -0.6249 -0.2491 -0.7399
vn -0.8081 0.0945 0.5815
vn -0.8080 0.0945 0.5815
vn -0.8080 0.0945 0.5816
usemtl None
s 1
f 1/1/1 2/2/1 3/3/1
f 3/3/2 4/4/2 5/5/2
f 6/6/3 7/7/4 8/8/5
f 8/8/5 7/7/4 9/9/6
f 2/2/7 4/4/7 3/3/7
f 5/5/8 1/1/8 3/3/8
f 8/8/9 9/9/9 1/1/9
f 1/1/10 9/9/10 2/2/10
f 9/9/11 7/7/11 2/2/11
f 2/2/11 7/7/11 4/4/11
f 4/4/12 7/7/12 5/5/12
f 5/5/13 7/7/13 6/6/13
f 8/8/14 1/1/15 6/6/16
f 6/6/16 1/1/15 5/5/15
f 10/10/17 11/11/17 12/12/17
f 12/12/18 13/13/18 14/14/18
f 15/15/19 16/16/20 17/17/20
f 17/17/20 16/16/20 18/18/20
f 11/11/21 13/13/21 12/12/21
f 14/14/22 10/10/22 12/12/22
f 17/17/23 18/18/23 10/10/23
f 10/10/24 18/18/24 11/11/24
f 16/16/25 13/13/25 18/18/25
f 18/18/25 13/13/25 11/11/25
f 13/13/26 16/16/26 14/14/26
f 14/14/27 16/16/27 15/15/27
f 15/15/28 17/17/28 14/14/29
f 14/14/29 17/17/28 10/10/29
f 19/19/30 20/20/30 21/21/30
f 21/21/31 22/22/31 23/23/31
f 24/24/32 25/25/32 26/26/32
f 26/26/32 25/25/32 27/27/32
f 20/20/33 22/22/33 21/21/33
f 23/23/34 19/19/34 21/21/34
f 26/26/35 27/27/35 19/19/35
f 19/19/36 27/27/36 20/20/36
f 25/25/37 22/22/38 27/27/37
f 27/27/37 22/22/38 20/20/38
f 22/22/39 25/25/39 23/23/39
f 23/23/40 25/25/40 24/24/40
f 24/24/41 26/26/42 23/23/43
f 23/23/43 26/26/42 19/19/43
