# Blender v2.78 (sub 0) OBJ File: ''
# www.blender.org
mtllib SM_Env_Reeds_01.mtl
o SM_Env_Reeds_01
v -6.200455 -25.429857 20.394691
v -0.876709 -18.826721 20.040234
v -9.171104 4.599733 37.581375
v -2.837929 -4.574553 16.873703
v -8.162209 -11.177947 17.228155
v 4.484017 -67.335205 -4.356782
v 4.891968 -67.335197 3.329993
v -2.706589 -67.335197 0.411954
v -1.377853 -67.335197 2.556510
v 18.470879 -11.590723 12.161363
v 19.565208 -24.550186 13.939951
v 31.310387 0.739472 19.148510
v 23.846138 -26.064726 9.994816
v 22.751793 -13.105218 8.216596
v 6.361206 -67.335197 -7.955090
v 9.904747 -67.335197 -3.169425
v 3.292832 -67.335197 -5.495814
v 6.836556 -67.335197 -0.709944
v 6.279938 6.853535 -25.240215
v 11.894753 5.228772 -26.004799
v 7.702141 15.911352 -37.581371
v 10.683128 -5.195354 -29.718039
v 5.068390 -3.570670 -28.953457
v 8.432778 -67.335197 -11.079907
v 9.085571 -67.335197 -7.718496
v 1.654404 -67.335197 -9.501965
v 2.306450 -67.335197 -6.140596
v -8.556129 18.072922 0.858791
v -11.791237 17.639809 -3.863396
v -18.266602 36.111679 4.288360
v -16.128517 9.043343 -0.828515
v -12.893379 9.476371 3.893653
v -8.659767 -67.335197 -4.622509
v -5.721084 -67.335197 -6.679061
v -4.205749 -67.335197 0.811988
v -1.266762 -67.335197 -1.243912
v -10.600525 -4.820310 -15.846083
v -13.215141 -16.084145 -18.735800
v -22.948769 14.021861 -18.619446
v -16.875732 -18.165274 -14.268886
v -14.261200 -6.901274 -11.379399
v -0.737671 -67.335197 -1.610788
v -5.501121 -67.335197 -6.103962
v 1.834892 -67.335197 -4.582366
v -2.928718 -67.335197 -9.075700
v 22.794319 -30.647486 -7.854846
v 21.893364 -25.960964 -13.110036
v 41.594444 -12.200665 -19.921387
v 22.879631 -10.940557 -10.589341
v 25.479179 -18.740948 -5.406549
v 1.415512 -67.335197 0.054439
v 0.734551 -67.335197 -6.734621
v 2.376854 -67.335197 -2.208956
v -0.960228 -67.335197 -8.372033
v -30.044678 -25.970879 4.402426
v -31.976357 -29.946236 10.064838
v -41.594444 -22.345140 7.074233
v -25.905136 -26.394104 12.095766
v -23.973320 -22.418032 6.432926
v 2.116997 -67.335197 -0.415431
v -2.413353 -67.335197 7.590748
v -5.234657 -67.335205 -0.980020
v -6.836532 -67.335197 2.512527
v 0.895599 54.755066 -7.997169
v 4.734184 54.725662 -8.004408
v 2.907692 67.392433 -10.201221
v 4.726326 54.640568 -11.842157
v 0.887734 54.669987 -11.834919
v -0.042145 -67.363022 -9.128288
v 3.796410 -67.392433 -9.135527
v -0.034263 -67.277954 -5.290538
v 3.804337 -67.307365 -5.297775
v -1.483986 51.565220 -14.105373
v -1.466461 51.754204 -5.581658
v 7.059105 51.688873 -5.597734
v 7.041580 51.499897 -14.121450
v -1.667847 27.434847 -13.570174
v -1.650329 27.623817 -5.046458
v 6.875252 27.558502 -5.062535
v 6.857697 27.369539 -13.586250
v 0.643845 22.666567 -11.125097
v 0.651726 22.751657 -7.287350
v 4.490326 22.722246 -7.294588
v 4.482430 22.637156 -11.132337
vt 0.9656 0.4562
vt 0.9656 0.4562
vt 0.9656 0.4562
vt 0.9656 0.4562
vt 0.9656 0.4562
vt 0.9656 0.4562
vt 0.9656 0.4562
vt 0.9656 0.4562
vt 0.9656 0.4562
vt 0.9656 0.4562
vt 0.9656 0.4562
vt 0.9656 0.4562
vt 0.9656 0.4562
vt 0.9656 0.4562
vt 0.9656 0.4562
vt 0.9656 0.4562
vt 0.9656 0.4562
vt 0.9656 0.4562
vt 0.9656 0.4562
vt 0.9656 0.4562
vt 0.9656 0.4562
vt 0.9656 0.4562
vt 0.9656 0.4562
vt 0.9656 0.4562
vt 0.9656 0.4562
vt 0.9656 0.4562
vt 0.9656 0.4562
vt 0.9656 0.4562
vt 0.9656 0.4562
vt 0.9656 0.4562
vt 0.9656 0.4562
vt 0.9656 0.4562
vt 0.9656 0.4562
vt 0.9656 0.4562
vt 0.9656 0.4562
vt 0.9656 0.4562
vt 0.9656 0.4562
vt 0.9656 0.4562
vt 0.9656 0.4562
vt 0.9656 0.4562
vt 0.9656 0.4562
vt 0.9656 0.4562
vt 0.9656 0.4562
vt 0.9656 0.4562
vt 0.9656 0.4562
vt 0.9656 0.4562
vt 0.9656 0.4562
vt 0.9656 0.4562
vt 0.9656 0.4562
vt 0.9656 0.4562
vt 0.9656 0.4562
vt 0.9656 0.4562
vt 0.9656 0.4562
vt 0.9656 0.4562
vt 0.9656 0.4562
vt 0.9656 0.4562
vt 0.9656 0.4562
vt 0.9656 0.4562
vt 0.9656 0.4562
vt 0.9656 0.4562
vt 0.9656 0.4562
vt 0.9656 0.4562
vt 0.9656 0.4562
vt 0.1457 0.5242
vt 0.1457 0.5242
vt 0.1457 0.5242
vt 0.1457 0.5242
vt 0.1457 0.5242
vt 0.9663 0.5564
vt 0.9663 0.5564
vt 0.9663 0.5564
vt 0.9663 0.5564
vt 0.1539 0.4804
vt 0.1539 0.4804
vt 0.1539 0.4804
vt 0.1539 0.4804
vt 0.1539 0.4804
vt 0.1539 0.4804
vt 0.1539 0.4804
vt 0.1539 0.4804
vt 0.1539 0.4804
vt 0.1539 0.4804
vt 0.1539 0.4804
vt 0.1539 0.4804
vt 0.1539 0.4804
vt 0.1539 0.4804
vt 0.1539 0.4804
vt 0.1539 0.4804
vt 0.9663 0.5564
vt 0.9663 0.5564
vt 0.9663 0.5564
vt 0.9663 0.5564
vn 0.3652 -0.2760 0.8891
vn 0.3641 -0.2752 0.8898
vn 0.6019 -0.4499 0.6598
vn -0.7608 0.6231 0.1816
vn -0.4012 0.3082 -0.8626
vn -0.4040 0.3106 -0.8604
vn 0.3682 -0.1530 -0.9171
vn 0.3681 -0.1530 -0.9171
vn 0.9817 0.1585 0.1052
vn 0.9825 0.1574 0.1000
vn 0.9650 0.1760 0.1946
vn -0.9835 -0.1022 0.1494
vn -0.9823 -0.0999 0.1586
vn -0.9491 -0.0620 0.3089
vn 0.3391 -0.2568 0.9050
vn 0.9845 0.1540 0.0834
vn -0.3391 0.2568 -0.9050
vn -0.9865 -0.1086 0.1223
vn -0.7722 0.0165 0.6352
vn -0.7728 0.0163 0.6345
vn -0.5288 0.0714 0.8457
vn 0.7968 -0.0156 -0.6041
vn 0.8055 -0.0078 -0.5926
vn 0.8055 -0.0079 -0.5926
vn -0.7018 -0.2948 -0.6485
vn -0.7019 -0.2948 -0.6484
vn 0.5466 -0.3880 0.7421
vn 0.5464 -0.3883 0.7420
vn 0.5392 -0.4027 0.7397
vn -0.4542 0.5474 -0.7029
vn -0.4562 0.5444 -0.7040
vn -0.3318 0.7024 -0.6297
vn -0.8069 0.0065 0.5906
vn 0.5485 -0.3842 0.7427
vn 0.8069 -0.0065 -0.5906
vn -0.4772 0.5119 -0.7143
vn 0.2337 0.2806 0.9309
vn 0.2332 0.2781 0.9318
vn 0.2978 0.7529 0.5869
vn -0.2292 -0.3681 -0.9011
vn -0.2261 -0.2524 -0.9408
vn -0.2262 -0.2533 -0.9406
vn 0.3540 -0.3500 0.8673
vn 0.3539 -0.3500 0.8673
vn 0.9717 -0.0295 -0.2343
vn 0.9705 -0.0275 -0.2394
vn 0.9428 0.0091 -0.3331
vn -0.9932 0.0884 0.0759
vn -0.9929 0.0865 0.0811
vn -0.9920 0.1237 -0.0235
vn 0.2257 0.2417 0.9437
vn 0.9752 -0.0354 -0.2187
vn -0.2257 -0.2417 -0.9437
vn -0.9921 0.0814 0.0951
vn 0.8026 0.1031 -0.5875
vn 0.8028 0.1010 -0.5876
vn 0.7033 0.4785 -0.5257
vn -0.8055 -0.1709 0.5675
vn -0.8056 -0.0801 0.5870
vn -0.8057 -0.0808 0.5868
vn 0.4557 -0.4918 -0.7420
vn 0.4557 -0.4918 -0.7419
vn -0.6210 0.0370 -0.7829
vn -0.6240 0.0394 -0.7804
vn -0.6782 0.0844 -0.7300
vn 0.5246 0.0356 0.8506
vn 0.5279 0.0333 0.8487
vn 0.4605 0.0798 0.8841
vn 0.8053 0.0714 -0.5886
vn -0.6118 0.0296 -0.7905
vn -0.8053 -0.0714 0.5886
vn 0.5367 0.0270 0.8434
vn 0.6529 0.0363 -0.7566
vn 0.6535 0.0360 -0.7561
vn 0.4102 0.1361 -0.9018
vn -0.6810 -0.0296 0.7316
vn -0.6881 -0.0201 0.7253
vn 0.7750 -0.4793 0.4118
vn 0.7750 -0.4793 0.4119
vn -0.7054 -0.2115 -0.6766
vn -0.7052 -0.2118 -0.6766
vn -0.7002 -0.2237 -0.6780
vn 0.6424 0.3420 0.6858
vn 0.6438 0.3394 0.6858
vn 0.5632 0.4692 0.6802
vn 0.6893 0.0185 -0.7242
vn -0.7067 -0.2083 -0.6762
vn -0.6893 -0.0184 0.7242
vn 0.6578 0.3132 0.6850
vn 0.3615 -0.4436 -0.8201
vn 0.3631 -0.4429 -0.8197
vn -0.0686 -0.5597 -0.8259
vn 0.7992 0.4886 0.3501
vn -0.2988 0.4719 0.8295
vn -0.2939 0.4739 0.8301
vn -0.9661 0.0219 0.2573
vn -0.9661 0.0219 0.2572
vn -0.2564 0.1838 -0.9489
vn -0.2620 0.1839 -0.9474
vn -0.1594 0.1809 -0.9705
vn 0.5333 -0.1815 0.8263
vn 0.5431 -0.1811 0.8199
vn 0.6974 -0.1701 0.6962
vn 0.4010 -0.4270 -0.8105
vn 0.4011 -0.4270 -0.8105
vn -0.2802 0.1843 -0.9421
vn -0.2801 0.1842 -0.9421
vn -0.4011 0.4270 0.8104
vn -0.4010 0.4270 0.8104
vn 0.5042 -0.1826 0.8441
vn -0.6870 -0.4377 -0.5801
vn -0.6879 -0.4366 -0.5798
vn -0.3621 -0.7003 -0.6152
vn -0.6265 0.7222 0.2932
vn 0.6434 0.4791 0.5971
vn 0.6401 0.4822 0.5981
vn 0.8942 -0.1617 0.4175
vn 0.8942 -0.1617 0.4173
vn 0.8942 -0.1617 0.4174
vn -0.4121 -0.3403 0.8452
vn -0.4066 -0.3412 0.8475
vn -0.5043 -0.3231 0.8008
vn 0.1122 0.3694 -0.9225
vn 0.1005 0.3699 -0.9236
vn -0.0980 0.3690 -0.9243
vn -0.7101 -0.4106 -0.5720
vn -0.3886 -0.3440 0.8548
vn 0.7101 0.4106 0.5720
vn 0.1466 0.3680 -0.9182
vn 0.1466 0.3679 -0.9182
vn 0.0032 0.1713 0.9852
vn -0.0009 0.1275 -0.9918
vn -0.0076 -0.9997 0.0222
vn 0.9899 0.1418 -0.0052
vn -0.9876 0.1570 -0.0015
vn -0.7904 0.6125 -0.0120
vn 0.0063 0.6240 0.7814
vn 0.7996 0.6003 -0.0150
vn 0.7996 0.6003 -0.0149
vn 0.0030 0.5888 -0.8083
vn -1.0000 0.0077 0.0019
vn 0.0021 0.0222 0.9998
vn 1.0000 -0.0077 -0.0019
vn -0.0021 -0.0222 -0.9998
vn -0.9021 -0.4315 0.0114
vn -0.0015 -0.4184 0.9082
vn 0.8954 -0.4452 0.0080
vn -0.0052 -0.4583 -0.8888
usemtl None
s 1
f 1/1/1 2/2/2 3/3/3
f 3/3/4 4/4/5 5/5/6
f 6/6/7 7/7/7 8/8/8
f 8/8/8 7/7/7 9/9/7
f 2/2/9 4/4/10 3/3/11
f 5/5/12 1/1/13 3/3/14
f 9/9/15 7/7/15 1/1/1
f 1/1/1 7/7/15 2/2/2
f 7/7/16 6/6/16 2/2/9
f 2/2/9 6/6/16 4/4/10
f 4/4/5 6/6/17 5/5/6
f 5/5/6 6/6/17 8/8/17
f 9/9/18 1/1/13 8/8/18
f 8/8/18 1/1/13 5/5/12
f 10/10/19 11/11/20 12/12/21
f 12/12/22 13/13/23 14/14/24
f 15/15/25 16/16/26 17/17/25
f 17/17/25 16/16/26 18/18/26
f 11/11/27 13/13/28 12/12/29
f 14/14/30 10/10/31 12/12/32
f 18/18/33 11/11/20 17/17/33
f 17/17/33 11/11/20 10/10/19
f 16/16/34 13/13/28 18/18/34
f 18/18/34 13/13/28 11/11/27
f 14/14/24 13/13/23 15/15/35
f 15/15/35 13/13/23 16/16/35
f 15/15/36 17/17/36 14/14/30
f 14/14/30 17/17/36 10/10/31
f 19/19/37 20/20/38 21/21/39
f 21/21/40 22/22/41 23/23/42
f 24/24/43 25/25/44 26/26/44
f 26/26/44 25/25/44 27/27/44
f 20/20/45 22/22/46 21/21/47
f 23/23/48 19/19/49 21/21/50
f 25/25/51 20/20/38 27/27/51
f 27/27/51 20/20/38 19/19/37
f 24/24/52 22/22/46 25/25/52
f 25/25/52 22/22/46 20/20/45
f 23/23/42 22/22/41 26/26/53
f 26/26/53 22/22/41 24/24/53
f 26/26/54 27/27/54 23/23/48
f 23/23/48 27/27/54 19/19/49
f 28/28/55 29/29/56 30/30/57
f 30/30/58 31/31/59 32/32/60
f 33/33/61 34/34/62 35/35/62
f 35/35/62 34/34/62 36/36/62
f 29/29/63 31/31/64 30/30/65
f 32/32/66 28/28/67 30/30/68
f 34/34/69 29/29/56 36/36/69
f 36/36/69 29/29/56 28/28/55
f 33/33/70 31/31/64 34/34/70
f 34/34/70 31/31/64 29/29/63
f 32/32/60 31/31/59 35/35/71
f 35/35/71 31/31/59 33/33/71
f 35/35/72 36/36/72 32/32/66
f 32/32/66 36/36/72 28/28/67
f 37/37/73 38/38/74 39/39/75
f 39/39/76 40/40/77 41/41/77
f 42/42/78 43/43/78 44/44/78
f 44/44/78 43/43/78 45/45/79
f 38/38/80 40/40/81 39/39/82
f 41/41/83 37/37/84 39/39/85
f 45/45/86 38/38/74 44/44/86
f 44/44/86 38/38/74 37/37/73
f 43/43/87 40/40/81 45/45/87
f 45/45/87 40/40/81 38/38/80
f 41/41/77 40/40/77 42/42/88
f 42/42/88 40/40/77 43/43/88
f 42/42/89 44/44/89 41/41/83
f 41/41/83 44/44/89 37/37/84
f 46/46/90 47/47/91 48/48/92
f 48/48/93 49/49/94 50/50/95
f 51/51/96 52/52/96 53/53/97
f 52/52/96 54/54/97 53/53/97
f 47/47/98 49/49/99 48/48/100
f 50/50/101 46/46/102 48/48/103
f 53/53/104 54/54/105 46/46/90
f 46/46/90 54/54/105 47/47/91
f 54/54/106 52/52/107 47/47/98
f 52/52/107 49/49/99 47/47/98
f 49/49/94 52/52/108 50/50/95
f 50/50/95 52/52/108 51/51/109
f 53/53/110 46/46/102 51/51/110
f 51/51/110 46/46/102 50/50/101
f 55/55/111 56/56/112 57/57/113
f 57/57/114 58/58/115 59/59/116
f 60/60/117 61/61/118 62/62/119
f 62/62/119 61/61/118 63/63/119
f 56/56/120 58/58/121 57/57/122
f 59/59/123 55/55/124 57/57/125
f 63/63/126 56/56/112 62/62/126
f 62/62/126 56/56/112 55/55/111
f 61/61/127 58/58/121 63/63/127
f 63/63/127 58/58/121 56/56/120
f 58/58/115 61/61/128 59/59/116
f 59/59/116 61/61/128 60/60/128
f 60/60/129 62/62/130 59/59/123
f 59/59/123 62/62/130 55/55/124
f 64/64/131 65/65/131 66/66/131
f 66/66/132 67/67/132 68/68/132
f 69/69/133 70/70/133 71/71/133
f 71/71/133 70/70/133 72/72/133
f 65/65/134 67/67/134 66/66/134
f 68/68/135 64/64/135 66/66/135
f 73/73/136 74/74/136 68/75/136
f 68/75/136 74/74/136 64/76/136
f 74/74/137 75/77/137 64/76/137
f 64/76/137 75/77/137 65/78/137
f 75/77/138 76/79/138 65/78/138
f 65/78/138 76/79/138 67/80/139
f 68/75/140 67/80/140 73/73/140
f 73/73/140 67/80/140 76/79/140
f 77/81/141 78/82/141 73/73/141
f 73/73/141 78/82/141 74/74/141
f 78/82/142 79/83/142 74/74/142
f 74/74/142 79/83/142 75/77/142
f 79/83/143 80/84/143 75/77/143
f 75/77/143 80/84/143 76/79/143
f 73/73/144 76/79/144 77/81/144
f 77/81/144 76/79/144 80/84/144
f 81/85/145 82/86/145 77/81/145
f 77/81/145 82/86/145 78/82/145
f 82/86/146 83/87/146 78/82/146
f 78/82/146 83/87/146 79/83/146
f 83/87/147 84/88/147 79/83/147
f 79/83/147 84/88/147 80/84/147
f 77/81/148 80/84/148 81/85/148
f 81/85/148 80/84/148 84/88/148
f 69/69/141 71/71/141 81/89/141
f 81/89/141 71/71/141 82/90/141
f 71/71/142 72/72/142 82/90/142
f 82/90/142 72/72/142 83/91/142
f 72/72/143 70/70/143 83/91/143
f 83/91/143 70/70/143 84/92/143
f 81/89/144 84/92/144 69/69/144
f 69/69/144 84/92/144 70/70/144
