# Blender v2.78 (sub 0) OBJ File: ''
# www.blender.org
mtllib SM_Env_Pebble_03.mtl
o SM_Env_Pebble_03
v 1.265137 -1.235080 -2.585861
v 1.205078 1.235080 -2.266281
v 2.614746 -1.235080 0.143295
v 2.196289 1.235080 0.203293
v -2.614746 -1.235080 -2.095688
v -2.110596 -1.235080 2.118881
v 0.610352 -1.235080 2.585861
v -2.272949 1.235080 -1.870560
v -1.789063 1.235080 1.869461
v 0.497314 -0.271338 2.466415
vt 0.9431 0.5022
vt 0.9431 0.5022
vt 0.9431 0.5022
vt 0.9431 0.5022
vt 0.9431 0.5022
vt 0.9431 0.5022
vt 0.9431 0.5022
vt 0.9431 0.5022
vt 0.9431 0.5022
vt 0.9431 0.5022
vn 0.8936 0.0789 -0.4419
vn 0.9155 0.1640 -0.3674
vn 0.0000 -1.0000 -0.0000
vn -0.9851 0.1256 0.1178
vn -0.9819 0.1406 0.1270
vn 0.2795 0.6891 0.6685
vn -0.1122 0.1248 -0.9858
vn -0.1246 0.1071 -0.9864
vn 0.7622 0.1669 0.6255
vn 0.7572 0.1126 0.6434
vn 0.0000 1.0000 0.0000
vn -0.1751 0.1214 0.9770
vn -0.1683 0.1018 0.9805
usemtl None
s 1
f 1/1/1 2/2/1 3/3/1
f 3/3/2 2/2/2 4/4/2
f 5/5/3 1/1/3 6/6/3
f 1/1/3 3/3/3 6/6/3
f 7/7/3 6/6/3 3/3/3
f 5/5/4 6/6/4 8/8/4
f 8/8/5 6/6/5 9/9/5
f 10/10/6 4/4/6 9/9/6
f 2/2/7 1/1/7 8/8/7
f 8/8/8 1/1/8 5/5/8
f 7/7/9 3/3/9 10/10/9
f 10/10/10 3/3/10 4/4/10
f 2/2/11 8/8/11 4/4/11
f 4/4/11 8/8/11 9/9/11
f 9/9/12 6/6/12 10/10/12
f 10/10/13 6/6/13 7/7/13
