# Blender v2.78 (sub 0) OBJ File: ''
# www.blender.org
mtllib SM_Env_Rock_013.mtl
o SM_Env_Rock_013
v 69.328407 79.051941 -57.727436
v 73.153358 72.942436 -60.140583
v 31.900887 41.799828 -69.288300
v 44.437843 35.690353 -85.542328
v 89.156319 28.151253 23.028086
v 85.331367 34.260773 20.972670
v 60.440804 49.734566 41.357914
v 58.656471 55.844032 37.999882
v 70.347084 34.260780 1.627592
v -66.352226 51.359383 82.931442
v -48.750145 65.547646 67.493134
v -74.898872 96.655853 7.555194
v 40.458443 158.088959 25.743784
v 22.183311 156.847321 -4.159476
v 3.418419 191.657318 20.071459
v -4.305367 162.184509 -8.172903
v -9.560951 35.690346 -58.877529
v -7.435616 41.799820 -43.413906
v 13.243126 44.405647 83.868805
v -0.413826 108.175552 55.883984
v -42.711296 215.759491 40.001598
v -55.528709 -2.417494 -54.281078
v -10.324699 -24.819637 -60.084278
v 41.874733 -62.636803 -80.035553
v 67.793404 -24.819637 -53.250843
v 75.546547 -24.819656 1.746683
v 90.530800 -24.819664 23.766794
v 61.082008 -24.819672 42.564587
v 15.824028 -24.819683 80.934357
v -81.081657 -4.674614 71.304123
v -90.530800 -24.819660 7.005549
v 12.814964 150.198700 -48.036495
v -0.485314 145.345215 -34.907925
v 31.082054 132.983170 -42.695004
v 82.306740 79.051941 -29.616655
v 87.506172 9.085053 -30.985636
v 40.964973 134.012726 -50.784237
v 56.927681 136.108582 -39.336452
v -49.936516 66.275734 -45.386677
v -42.911140 184.974731 -28.151777
v -19.917274 157.554749 -40.158405
v -56.752617 211.731827 -6.526754
v -7.637535 186.799835 41.125462
v 23.479485 152.451233 45.234295
v 52.668526 109.721169 28.838339
v 50.039558 134.142624 19.305326
v 46.433907 150.303238 27.248281
v 48.129128 126.332047 10.871382
v 33.866127 115.023994 -45.677097
v 22.843742 -127.464264 -59.745228
v 26.194588 -121.354736 -70.887817
v 69.328407 -128.691208 -57.727497
v 74.373940 -122.581680 -65.100426
v 58.656471 -105.483307 37.999828
v 72.182320 -99.077606 20.692965
v 70.347084 -83.900055 1.627554
v -73.713905 -61.567955 73.186172
v -74.898872 -107.372406 7.555128
v -60.785393 -67.944412 63.039364
v -63.806755 -115.041351 7.307170
v 54.803261 -215.759491 26.991739
v 7.777061 -207.139404 28.258158
v 27.193367 -206.333618 -5.728443
v -4.763176 -182.475815 -5.728436
v -19.218910 -97.480865 -47.448071
v -27.894951 -90.573349 -52.219250
v 23.484932 -69.329056 85.542328
v 18.713112 -83.690598 67.485657
v -58.256462 -146.339676 55.385258
v -55.068642 -96.520340 -43.026134
v -84.132164 -74.543335 7.230463
v 46.964546 -212.064697 -46.003895
v -4.763176 -182.475815 -39.235088
v 72.716713 -112.010422 -12.019306
v 54.785927 -203.888428 -23.452105
v 0.097511 -180.676590 55.091785
v 40.006660 -182.380417 52.927326
v 73.901161 -182.757156 26.127428
v 62.731361 -214.651947 27.371210
v 66.579506 -206.946381 16.421976
v 63.203926 -200.977081 6.256314
v -51.072502 -137.449585 -0.844769
v -50.679680 -126.149612 -26.542231
v -34.261955 -126.900162 -30.582087
v -54.780632 -107.808395 -24.562212
v -28.525749 -152.703781 -32.883091
vt 0.9406 0.4526
vt 0.9406 0.4526
vt 0.9406 0.4526
vt 0.9406 0.4526
vt 0.9406 0.4526
vt 0.9406 0.4526
vt 0.9406 0.4526
vt 0.9406 0.4526
vt 0.9406 0.4526
vt 0.9406 0.4526
vt 0.9406 0.4526
vt 0.9406 0.4526
vt 0.9406 0.4526
vt 0.9406 0.4526
vt 0.9406 0.4526
vt 0.9406 0.4526
vt 0.9406 0.4526
vt 0.9406 0.4526
vt 0.9406 0.4526
vt 0.9406 0.4526
vt 0.9406 0.4526
vt 0.9406 0.4526
vt 0.9406 0.4526
vt 0.9406 0.4526
vt 0.9406 0.4526
vt 0.9406 0.4526
vt 0.9406 0.4526
vt 0.9406 0.4526
vt 0.9406 0.4526
vt 0.9406 0.4526
vt 0.9406 0.4526
vt 0.9406 0.4526
vt 0.9406 0.4526
vt 0.9406 0.4526
vt 0.9406 0.4526
vt 0.9406 0.4526
vt 0.9406 0.4526
vt 0.9406 0.4526
vt 0.9406 0.4526
vt 0.9406 0.4526
vt 0.9406 0.4526
vt 0.9406 0.4526
vt 0.9406 0.4526
vt 0.9406 0.4526
vt 0.9406 0.4526
vt 0.9406 0.4526
vt 0.9406 0.4526
vt 0.9406 0.4526
vt 0.9406 0.4526
vt 0.9406 0.4526
vt 0.9406 0.4526
vt 0.9406 0.4526
vt 0.9406 0.4526
vt 0.9406 0.4526
vt 0.9406 0.4526
vt 0.9406 0.4526
vt 0.9406 0.4526
vt 0.9406 0.4526
vt 0.9406 0.4526
vt 0.9406 0.4526
vt 0.9406 0.4526
vt 0.9406 0.4526
vt 0.9406 0.4526
vt 0.9406 0.4526
vt 0.9406 0.4526
vt 0.9406 0.4526
vt 0.9406 0.4526
vt 0.9406 0.4526
vt 0.9406 0.4526
vt 0.9406 0.4526
vt 0.9406 0.4526
vt 0.9406 0.4526
vt 0.9406 0.4526
vt 0.9406 0.4526
vt 0.9406 0.4526
vt 0.9406 0.4526
vt 0.9406 0.4526
vt 0.9406 0.4526
vt 0.9406 0.4526
vt 0.9406 0.4526
vt 0.9406 0.4526
vt 0.9406 0.4526
vt 0.9406 0.4526
vt 0.9406 0.4526
vt 0.9406 0.4526
vt 0.9406 0.4526
vn -0.0487 0.3404 -0.9390
vn -0.4057 0.7074 -0.5788
vn 0.7010 0.5790 0.4164
vn 0.7145 0.4856 0.5038
vn 0.7595 0.2776 -0.5883
vn -0.2099 0.8273 0.5210
vn 0.6439 0.6395 -0.4201
vn 0.2395 0.6383 -0.7316
vn -0.2482 0.8280 -0.5027
vn -0.2187 0.9174 -0.3324
vn 0.5379 0.5213 0.6625
vn 0.5869 0.4275 0.6876
vn 0.0439 0.6852 -0.7270
vn -0.6367 0.7431 -0.2061
vn 0.0532 0.7043 0.7079
vn -0.1134 0.3788 0.9185
vn -0.1169 0.0213 -0.9929
vn -0.3829 -0.0417 -0.9228
vn -0.4426 0.0235 -0.8964
vn 0.7216 -0.0880 -0.6867
vn 0.7560 -0.0562 -0.6522
vn 0.7587 0.0655 -0.6481
vn 0.8267 0.0136 -0.5625
vn 0.5379 0.0257 0.8426
vn 0.5396 0.0243 0.8416
vn 0.5465 0.0191 0.8372
vn 0.5477 0.0182 0.8365
vn 0.6467 -0.0082 0.7627
vn 0.6680 0.0178 0.7439
vn -0.0287 -0.1959 0.9802
vn -0.1083 -0.0461 0.9930
vn -0.9683 0.2407 0.0669
vn -0.8801 0.1153 -0.4605
vn 0.4105 0.6378 0.6517
vn 0.2059 0.8410 -0.5003
vn 0.9014 0.0586 0.4290
vn 0.9064 0.0806 0.4147
vn -0.1178 0.9929 -0.0175
vn -0.0332 0.8463 -0.5317
vn 0.7319 0.5917 -0.3379
vn 0.8070 -0.0854 -0.5844
vn 0.9507 0.0765 -0.3004
vn -0.7177 0.1047 -0.6884
vn -0.5483 0.0669 -0.8336
vn -0.3062 0.1545 -0.9393
vn -0.8864 0.1176 0.4477
vn -0.9456 0.1821 0.2696
vn 0.0801 0.1763 0.9811
vn 0.1294 0.1944 0.9724
vn 0.4294 0.1825 0.8845
vn 0.7633 -0.2708 0.5866
vn 0.9795 0.1555 0.1282
vn 0.6783 0.2336 -0.6966
vn 0.7570 0.4217 0.4991
vn 0.6706 0.2956 0.6804
vn 0.8615 0.3155 -0.3978
vn 0.5113 0.3623 -0.7793
vn 0.1181 0.1842 -0.9758
vn -0.8479 0.1832 -0.4975
vn -0.6350 0.0298 -0.7720
vn 0.4545 0.2140 -0.8646
vn 0.5118 0.2512 -0.8216
vn 0.2422 0.8489 -0.4698
vn -0.3291 0.3850 0.8622
vn 0.8557 0.1703 0.4886
vn -0.9747 0.1246 0.1854
vn 0.6588 0.7060 -0.2599
vn 0.5587 0.6943 0.4536
vn 0.4825 0.6345 0.6039
vn -0.8648 0.1331 -0.4841
vn -0.8657 0.1308 -0.4832
vn -0.8686 0.1228 -0.4800
vn -0.8082 0.0557 -0.5862
vn -0.8693 0.1210 -0.4793
vn 0.1140 0.1184 -0.9864
vn 0.0896 0.0756 -0.9931
vn 0.2459 -0.0254 -0.9690
vn 0.6134 0.6635 -0.4284
vn 0.6102 0.6856 -0.3971
vn 0.5635 0.7329 -0.3811
vn 0.9724 0.0137 -0.2330
vn 0.9712 0.2370 -0.0263
vn 0.7325 0.3762 -0.5674
vn -0.1229 0.0965 0.9877
vn 0.7576 0.3843 -0.5275
vn 0.7598 0.4153 -0.5001
vn 0.7409 0.4773 -0.4726
vn 0.6360 0.1975 0.7460
vn 0.9394 0.1563 0.3050
vn -0.0022 -0.8766 -0.4813
vn 0.0538 -0.7867 -0.6150
vn 0.7969 -0.0580 0.6013
vn 0.5306 -0.1655 0.8313
vn 0.9383 -0.2208 -0.2661
vn 0.8246 -0.0714 -0.5611
vn 0.0441 -0.8196 0.5712
vn -0.4500 -0.6699 0.5905
vn -0.1821 -0.9750 -0.1272
vn -0.5627 -0.7538 -0.3394
vn -0.5919 -0.6183 -0.5170
vn -0.5369 -0.8177 -0.2075
vn 0.0273 -0.7858 0.6178
vn -0.7084 -0.6693 -0.2243
vn -0.1836 -0.1176 -0.9759
vn -0.3145 -0.0294 -0.9488
vn -0.1835 -0.7452 0.6412
vn -0.1242 -0.9037 0.4096
vn -0.3519 -0.0516 -0.9346
vn -0.3656 -0.0136 -0.9307
vn 0.1127 -0.1823 -0.9768
vn 0.6093 0.1357 -0.7812
vn 0.6353 0.1869 0.7493
vn 0.7807 -0.0587 0.6222
vn -0.1192 0.0819 0.9895
vn -0.0946 0.0207 0.9953
vn -0.7602 -0.2199 -0.6113
vn -0.4965 -0.8680 0.0000
vn 0.9590 -0.0743 0.2734
vn 0.9387 -0.0833 0.3345
vn 0.9336 -0.2816 -0.2217
vn 0.8366 -0.5316 0.1320
vn 0.8565 -0.1804 -0.4837
vn 0.9977 0.0650 0.0182
vn -0.3758 -0.1522 -0.9141
vn -0.2517 -0.2247 -0.9414
vn -0.0625 -0.1147 0.9914
vn -0.0752 -0.0993 0.9922
vn 0.5976 0.0107 0.8017
vn 0.8138 -0.0858 0.5747
vn 0.9402 -0.3253 0.1015
vn 0.3376 -0.2239 -0.9143
vn 0.5417 -0.2071 0.8147
vn 0.0389 -0.1494 -0.9880
vn -0.5888 -0.7887 -0.1768
vn -0.4753 -0.2279 0.8498
vn 0.8561 -0.2238 0.4658
vn -0.9435 -0.2634 0.2009
vn 0.9626 -0.0482 0.2664
vn -0.6939 -0.6922 -0.1981
vn -0.4119 -0.7050 0.5773
vn -0.0962 -0.6369 0.7649
vn -0.9262 -0.0492 -0.3737
vn -0.1399 -0.9056 -0.4004
vn 0.9868 -0.0660 -0.1476
vn 0.9171 -0.1258 -0.3784
vn 0.8850 -0.0120 -0.4654
vn -0.0339 -0.0981 0.9946
vn 0.1419 -0.8323 -0.5359
vn 0.2398 -0.8602 -0.4501
vn 0.3001 -0.7757 -0.5552
vn 0.7764 0.0567 0.6277
vn 0.3309 -0.0792 0.9403
vn -0.1098 -0.6546 -0.7480
vn -0.0868 -0.8506 -0.5187
vn -0.5420 -0.7733 -0.3290
vn -0.6414 -0.6590 -0.3929
vn -0.2368 -0.3892 -0.8902
vn -0.8813 -0.4275 -0.2015
vn -0.9359 -0.1763 -0.3051
vn -0.9953 -0.0407 0.0884
vn -0.8819 -0.4351 -0.1815
vn 0.2460 -0.9354 0.2539
vn 0.9815 -0.1912 -0.0030
vn -0.9760 -0.1248 0.1787
vn -0.9760 -0.1244 0.1789
vn -0.9760 -0.1207 0.1810
vn -0.9761 -0.1204 0.1812
vn -0.8450 -0.1111 -0.5232
vn -0.4369 -0.1598 -0.8852
vn -0.6969 -0.6997 -0.1573
vn -0.7816 -0.6238 0.0000
vn -0.5351 -0.0285 -0.8443
vn -0.6679 -0.0825 -0.7397
vn -0.8399 -0.1399 -0.5244
usemtl None
s 1
f 1/1/1 2/2/1 3/3/1
f 3/3/2 2/2/2 4/4/2
f 5/5/3 6/6/3 7/7/3
f 7/7/4 6/6/4 8/8/4
f 6/6/5 5/5/5 9/9/5
f 10/10/6 11/11/6 12/12/6
f 13/13/7 14/14/7 15/15/7
f 15/15/8 14/14/8 16/16/8
f 4/4/9 17/17/9 3/3/9
f 3/3/10 17/17/10 18/18/10
f 7/7/11 8/8/11 19/19/11
f 8/8/12 20/20/12 19/19/12
f 21/21/13 15/15/13 16/16/13
f 22/22/14 18/18/14 17/17/14
f 10/10/15 19/19/15 11/11/15
f 11/11/16 19/19/16 20/20/16
f 22/22/17 17/17/17 23/23/17
f 24/24/18 23/23/18 4/4/18
f 4/4/19 23/23/19 17/17/19
f 2/2/20 25/25/20 4/4/20
f 4/4/21 25/25/21 24/24/21
f 9/9/22 5/5/22 26/26/22
f 26/26/23 5/5/23 27/27/23
f 27/27/24 5/5/25 28/28/26
f 28/28/26 5/5/25 7/7/27
f 29/29/28 28/28/28 19/19/28
f 19/19/29 28/28/29 7/7/29
f 10/10/30 30/30/30 19/19/30
f 19/19/31 30/30/31 29/29/31
f 30/30/32 10/10/32 31/31/32
f 22/22/33 31/31/33 12/12/33
f 32/32/34 33/33/34 34/34/34
f 34/34/35 33/33/35 16/16/35
f 35/35/36 9/9/36 36/36/36
f 36/36/37 9/9/37 26/26/37
f 37/37/38 34/34/38 38/38/38
f 38/38/39 34/34/39 14/14/39
f 2/2/40 1/1/40 35/35/40
f 25/25/41 2/2/41 36/36/41
f 36/36/42 2/2/42 35/35/42
f 33/33/43 32/32/43 18/18/43
f 18/18/44 32/32/44 3/3/44
f 39/39/45 40/40/45 41/41/45
f 11/11/46 21/21/46 12/12/46
f 12/12/47 21/21/47 42/42/47
f 11/11/48 20/20/48 21/21/48
f 21/21/49 20/20/49 43/43/49
f 8/8/50 13/13/50 20/20/50
f 20/20/51 13/13/51 44/44/51
f 45/45/52 46/46/52 47/47/52
f 14/14/53 48/48/53 9/9/53
f 38/38/54 14/14/54 35/35/54
f 35/35/55 14/14/55 9/9/55
f 1/1/56 38/38/56 35/35/56
f 38/38/57 1/1/57 37/37/57
f 37/37/58 1/1/58 3/3/58
f 49/49/59 37/37/59 3/3/59
f 34/34/60 37/37/60 49/49/60
f 34/34/61 49/49/61 32/32/61
f 32/32/62 49/49/62 3/3/62
f 14/14/63 34/34/63 16/16/63
f 20/20/64 44/44/64 15/15/64
f 20/20/65 15/15/65 43/43/65
f 10/10/66 12/12/66 31/31/66
f 42/42/67 21/21/67 16/16/67
f 21/21/68 43/43/68 15/15/68
f 44/44/69 13/13/69 15/15/69
f 22/22/70 12/12/71 39/39/72
f 42/42/73 40/40/73 12/12/73
f 40/40/74 39/39/72 12/12/71
f 22/22/75 39/39/75 18/18/75
f 18/18/76 39/39/76 33/33/76
f 39/39/77 41/41/77 33/33/77
f 42/42/78 16/16/78 40/40/78
f 40/40/79 16/16/79 41/41/79
f 16/16/80 33/33/80 41/41/80
f 46/46/81 45/45/81 48/48/81
f 48/48/82 45/45/82 9/9/82
f 45/45/83 6/6/83 9/9/83
f 47/47/84 13/13/84 8/8/84
f 48/48/85 14/14/85 46/46/85
f 46/46/86 14/14/86 47/47/86
f 13/13/87 47/47/87 14/14/87
f 6/6/88 45/45/88 8/8/88
f 45/45/89 47/47/89 8/8/89
f 50/50/90 51/51/90 52/52/90
f 52/52/91 51/51/91 53/53/91
f 54/54/92 55/55/92 28/28/92
f 28/28/93 55/55/93 27/27/93
f 55/55/94 56/56/94 27/27/94
f 27/27/95 56/56/95 26/26/95
f 57/57/96 58/58/96 59/59/96
f 59/59/97 58/58/97 60/60/97
f 61/61/98 62/62/98 63/63/98
f 63/63/99 62/62/99 64/64/99
f 50/50/100 65/65/100 51/51/100
f 51/51/101 65/65/101 66/66/101
f 54/54/102 67/67/102 68/68/102
f 69/69/103 64/64/103 62/62/103
f 22/22/104 23/23/104 70/70/104
f 70/70/105 23/23/105 66/66/105
f 68/68/106 67/67/106 59/59/106
f 59/59/107 67/67/107 57/57/107
f 51/51/108 66/66/108 24/24/108
f 24/24/109 66/66/109 23/23/109
f 51/51/110 24/24/110 53/53/110
f 53/53/111 24/24/111 25/25/111
f 29/29/112 67/67/112 28/28/112
f 28/28/113 67/67/113 54/54/113
f 67/67/114 29/29/114 57/57/114
f 57/57/115 29/29/115 30/30/115
f 22/22/116 58/58/116 71/71/116
f 72/72/117 64/64/117 73/73/117
f 74/74/118 36/36/118 26/26/118
f 74/74/119 26/26/119 56/56/119
f 75/75/120 72/72/120 52/52/120
f 53/53/121 74/74/121 52/52/121
f 36/36/122 74/74/122 25/25/122
f 25/25/123 74/74/123 53/53/123
f 65/65/124 50/50/124 73/73/124
f 73/73/125 50/50/125 72/72/125
f 76/76/126 68/68/126 69/69/126
f 69/69/127 68/68/127 59/59/127
f 68/68/128 77/77/128 54/54/128
f 54/54/129 77/77/129 61/61/129
f 78/78/130 79/79/130 80/80/130
f 63/63/131 74/74/131 81/81/131
f 75/75/132 74/74/132 63/63/132
f 72/72/133 50/50/133 52/52/133
f 63/63/134 64/64/134 72/72/134
f 68/68/135 62/62/135 77/77/135
f 68/68/136 76/76/136 62/62/136
f 57/57/137 71/71/137 58/58/137
f 81/81/138 74/74/138 56/56/138
f 82/82/139 64/64/139 69/69/139
f 69/69/140 62/62/140 76/76/140
f 77/77/141 62/62/141 61/61/141
f 70/70/142 58/58/142 22/22/142
f 83/83/143 84/84/143 82/82/143
f 56/56/144 55/55/144 81/81/144
f 80/80/145 81/81/145 78/78/145
f 81/81/146 55/55/146 78/78/146
f 79/79/147 54/54/147 61/61/147
f 79/79/148 61/61/148 80/80/148
f 61/61/149 63/63/149 80/80/149
f 63/63/150 81/81/150 80/80/150
f 55/55/151 54/54/151 78/78/151
f 78/78/152 54/54/152 79/79/152
f 66/66/153 65/65/153 70/70/153
f 70/70/154 65/65/154 85/85/154
f 60/60/155 58/58/155 85/85/155
f 85/85/156 58/58/156 70/70/156
f 83/83/157 65/65/157 84/84/157
f 82/82/158 60/60/158 83/83/158
f 83/83/159 60/60/159 85/85/159
f 59/59/160 60/60/160 69/69/160
f 69/69/161 60/60/161 82/82/161
f 63/63/162 72/72/162 75/75/162
f 52/52/163 74/74/163 75/75/163
f 71/71/164 57/57/165 31/31/166
f 31/31/166 57/57/165 30/30/167
f 22/22/168 71/71/168 31/31/168
f 86/86/169 65/65/169 73/73/169
f 82/82/170 86/86/170 64/64/170
f 64/64/171 86/86/171 73/73/171
f 85/85/172 65/65/172 83/83/172
f 84/84/173 65/65/173 86/86/173
f 82/82/174 84/84/174 86/86/174
