# Blender v2.78 (sub 0) OBJ File: ''
# www.blender.org
mtllib SM_Env_Plant_01.mtl
o SM_Env_Plant_01
v -6.246338 -10.451100 5.960492
v -0.048523 -10.480527 5.237256
v -2.650391 -1.653485 6.189226
v 2.760498 -1.709302 5.688736
v -0.289734 40.451168 3.158020
v 1.637817 26.895718 1.248103
v -2.212097 27.026958 1.255885
v -3.062500 -32.342041 0.279242
v 1.531982 -32.342041 0.279242
v -3.062500 -32.342041 4.873694
v 1.531982 -32.342041 4.873694
v -0.747803 -10.981091 -0.994860
v 2.309998 -2.658680 0.216386
v -7.003601 -10.947773 -0.261125
v -3.211853 -2.595493 0.728685
v -2.096741 28.983456 4.982693
v 1.521606 28.867535 4.989590
v 3.130005 -25.776066 6.474282
v -4.660034 -25.761524 6.473489
v 3.144531 -26.023438 -1.331107
v -4.674500 -26.006973 -1.330192
v 13.929077 -23.651194 17.263071
v 16.809998 -20.727198 10.329752
v 26.212769 -16.818954 20.429152
v 13.858582 -15.942652 11.418713
v 10.977661 -18.866762 18.352884
v -8.397888 -38.807289 3.864873
v -1.175415 -31.979078 -7.087457
v -3.181396 -45.118359 3.371279
v 4.042297 -38.290089 -7.580470
v 9.570190 -15.305190 -6.916369
v 13.492798 -18.246475 -9.967486
v 12.625122 -11.871640 -20.429155
v 8.080627 -19.024775 -16.083792
v 4.158936 -16.083380 -13.032368
v -9.516724 -37.454494 -2.063655
v 1.149353 -42.764366 -10.826352
v -4.105164 -36.676247 4.052617
v 6.561218 -41.985981 -4.710598
v -13.026062 -15.354357 9.457470
v -13.335144 -15.249514 1.406507
v -26.212769 -12.576512 5.680555
v -16.445312 -20.198086 0.731029
v -16.136230 -20.303162 8.781384
v -3.925293 -41.869297 5.920596
v -6.099182 -39.092564 -8.442776
v 2.875854 -37.286907 5.778203
v 0.703735 -34.509766 -8.585810
v 0.109497 18.232357 4.487938
v 10.541626 9.918616 3.512563
v 6.088501 14.354129 7.741355
v 12.038147 10.209189 5.106832
v 7.895935 18.414013 3.116691
v 12.842773 11.813804 3.587057
v 4.578552 24.942318 5.058740
v 9.584229 26.223606 -2.143590
v 10.223022 27.856007 -0.000004
v 11.653198 8.740428 3.173604
v -0.040649 13.909037 14.209463
v 1.879639 20.476427 11.216545
v 1.473816 15.904317 15.763573
v -0.699707 12.262921 17.779837
v 3.632874 12.741715 15.578512
v -2.131592 30.501040 11.702541
v 0.672546 30.453074 11.285305
v -1.657349 29.518930 11.330837
v 11.020752 24.879971 -0.495703
v -0.126648 28.816919 13.489620
v 9.894104 26.735012 -2.819921
v 8.383850 20.952005 10.258600
v -0.885498 35.317593 3.422209
v 8.098389 35.612659 2.122068
v 4.077698 35.493496 5.328367
v 8.842834 36.213627 3.274412
v 3.068237 38.899395 2.808745
v 8.506897 37.561993 2.487211
v -1.360474 40.611660 4.788361
v 0.367371 44.258289 0.322480
v 0.116516 45.118359 1.975587
v 9.168274 35.521404 1.790800
v 1.365356 31.883577 9.367428
v -0.570313 36.435329 8.248534
v 1.391479 33.373959 10.703520
v 1.898804 30.334375 11.522152
v 3.865540 32.691204 10.268126
v -6.926331 39.821384 9.662627
v -5.450317 41.043957 9.478821
v -6.277039 39.562603 9.310852
v 1.778809 43.986599 1.307374
v -5.063599 39.601009 10.718842
v 0.278748 44.733501 -0.054534
v 2.603821 39.571796 7.900939
v 0.399048 10.670887 2.595144
v -5.222717 1.027674 12.266985
v -6.060181 5.597445 5.310626
v -7.657776 1.031927 12.323503
v -4.195679 10.547480 10.020376
v -7.237976 2.940736 14.033894
v -4.300293 17.642422 5.589164
v -2.267822 19.693438 14.941612
v -4.718445 21.147089 13.832117
v -5.587769 -0.287798 13.481736
v -6.794373 4.633954 -4.466565
v -6.705444 12.098637 -0.962138
v -9.456299 6.507337 -4.436474
v -8.986694 2.392415 -7.556225
v -10.424988 2.931843 -2.387341
v -5.621277 23.260914 -5.045233
v -7.322144 23.082058 -2.422583
v -5.522644 22.205959 -4.340796
v -4.466553 17.906572 14.976982
v -8.299622 21.045635 -4.628333
v -2.016479 20.324320 15.671410
v -10.743225 12.324412 5.089681
v -2.075012 30.222363 3.037655
v -9.820251 30.900690 9.687862
v -7.935364 30.043041 4.275936
v -11.284851 31.321344 8.963467
v -5.842651 34.345768 5.360624
v -10.643127 32.979717 9.236814
v -3.037109 35.775097 0.495634
v -2.387878 40.786938 5.015869
v -3.241577 41.377728 3.169617
v -10.622375 30.879953 10.666927
v -7.400757 25.156475 -0.458044
v -5.402954 30.415318 -1.452030
v -8.395508 26.514896 -1.957921
v -9.030151 22.981510 -1.841101
v -10.397095 25.873882 0.087214
v -0.620605 33.802258 -7.283815
v -2.041626 35.205128 -6.437227
v -0.993958 33.597454 -6.512119
v -4.285217 40.284389 5.017241
v -2.993408 33.344540 -7.081822
v -2.129944 41.393200 5.222748
v -8.544006 33.982716 0.230009
v 2.102234 26.031849 0.445521
v -4.332458 28.991016 -4.293217
v -0.381470 26.250164 -3.878362
v -4.059998 28.972775 -5.671818
v 1.017517 29.878445 -2.622746
v -3.463745 30.309368 -5.350041
v 5.681885 29.049549 -1.698216
v 4.568542 34.531925 -0.925234
v 5.847656 34.205196 -2.095493
v -5.234985 29.346943 -4.706211
v 1.241333 20.803265 -3.782905
v 4.418518 24.297665 -3.204321
v 2.527161 21.172123 -5.101264
v 0.963928 18.621746 -5.053627
v 0.333374 21.470892 -6.132697
v 11.008362 24.561810 -1.223547
v 10.563232 25.889523 -2.364843
v 10.295715 24.711079 -1.316962
v 3.877380 34.118359 -2.347934
v 10.068115 24.249332 -2.983649
v 4.718201 35.063839 -0.765535
v 3.739746 27.497662 -5.837897
vt 0.9622 0.5115
vt 0.9622 0.5115
vt 0.9622 0.5115
vt 0.9622 0.5115
vt 0.9622 0.5115
vt 0.9622 0.5115
vt 0.9622 0.5115
vt 0.9622 0.5115
vt 0.9622 0.5115
vt 0.9622 0.5115
vt 0.9622 0.5115
vt 0.9622 0.5115
vt 0.9622 0.5115
vt 0.9622 0.5115
vt 0.9622 0.5115
vt 0.9622 0.5115
vt 0.9622 0.5115
vt 0.9622 0.5115
vt 0.9622 0.5115
vt 0.9622 0.5115
vt 0.9622 0.5115
vt 0.9631 0.5578
vt 0.9631 0.5578
vt 0.9631 0.5578
vt 0.9631 0.5578
vt 0.9631 0.5578
vt 0.9631 0.5578
vt 0.9631 0.5578
vt 0.9631 0.5578
vt 0.9631 0.5578
vt 0.9631 0.5578
vt 0.9631 0.5578
vt 0.9631 0.5578
vt 0.9631 0.5578
vt 0.9631 0.5578
vt 0.9631 0.5578
vt 0.9631 0.5578
vt 0.9631 0.5578
vt 0.9631 0.5578
vt 0.9631 0.5578
vt 0.9631 0.5578
vt 0.9631 0.5578
vt 0.9631 0.5578
vt 0.9631 0.5578
vt 0.9631 0.5578
vt 0.9631 0.5578
vt 0.9631 0.5578
vt 0.9631 0.5578
vt 0.4494 0.7481
vt 0.4494 0.7481
vt 0.4494 0.7481
vt 0.4494 0.7481
vt 0.4494 0.7481
vt 0.4494 0.7481
vt 0.4494 0.7481
vt 0.4494 0.7481
vt 0.4494 0.7481
vt 0.4494 0.7481
vt 0.4494 0.7481
vt 0.4494 0.7481
vt 0.4494 0.7481
vt 0.4494 0.7481
vt 0.4494 0.7481
vt 0.4494 0.7481
vt 0.4494 0.7481
vt 0.4494 0.7481
vt 0.4494 0.7481
vt 0.4494 0.7481
vt 0.4494 0.7481
vt 0.4447 0.6434
vt 0.4447 0.6434
vt 0.4447 0.6434
vt 0.4447 0.6434
vt 0.4447 0.6434
vt 0.4494 0.7481
vt 0.4494 0.7481
vt 0.4494 0.7481
vt 0.4494 0.7481
vt 0.4494 0.7481
vt 0.4494 0.7481
vt 0.4494 0.7481
vt 0.4494 0.7481
vt 0.4494 0.7481
vt 0.4494 0.7481
vt 0.4494 0.7481
vt 0.4494 0.7481
vt 0.4494 0.7481
vt 0.4494 0.7481
vt 0.4494 0.7481
vt 0.4494 0.7481
vt 0.4494 0.7481
vt 0.4494 0.7481
vt 0.4494 0.7481
vt 0.4494 0.7481
vt 0.4494 0.7481
vt 0.4447 0.6434
vt 0.4447 0.6434
vt 0.4447 0.6434
vt 0.4447 0.6434
vt 0.4447 0.6434
vt 0.4494 0.7481
vt 0.4494 0.7481
vt 0.4494 0.7481
vt 0.4494 0.7481
vt 0.4494 0.7481
vt 0.4494 0.7481
vt 0.4494 0.7481
vt 0.4494 0.7481
vt 0.4494 0.7481
vt 0.4494 0.7481
vt 0.4494 0.7481
vt 0.4494 0.7481
vt 0.4494 0.7481
vt 0.4494 0.7481
vt 0.4494 0.7481
vt 0.4494 0.7481
vt 0.4494 0.7481
vt 0.4494 0.7481
vt 0.4494 0.7481
vt 0.4494 0.7481
vt 0.4494 0.7481
vt 0.4447 0.6434
vt 0.4447 0.6434
vt 0.4447 0.6434
vt 0.4447 0.6434
vt 0.4447 0.6434
vt 0.4494 0.7481
vt 0.4494 0.7481
vt 0.4494 0.7481
vt 0.4494 0.7481
vt 0.4494 0.7481
vt 0.4494 0.7481
vt 0.4494 0.7481
vt 0.4494 0.7481
vt 0.4494 0.7481
vt 0.4494 0.7481
vt 0.4494 0.7481
vt 0.4494 0.7481
vt 0.4494 0.7481
vt 0.4494 0.7481
vt 0.4494 0.7481
vt 0.4494 0.7481
vt 0.4494 0.7481
vt 0.4494 0.7481
vt 0.4494 0.7481
vt 0.4494 0.7481
vt 0.4494 0.7481
vt 0.4447 0.6434
vt 0.4447 0.6434
vt 0.4447 0.6434
vt 0.4447 0.6434
vt 0.4447 0.6434
vt 0.4494 0.7481
vt 0.4494 0.7481
vt 0.4494 0.7481
vt 0.4494 0.7481
vt 0.4494 0.7481
vt 0.4494 0.7481
vt 0.4494 0.7481
vt 0.4494 0.7481
vt 0.4494 0.7481
vt 0.4494 0.7481
vt 0.4494 0.7481
vt 0.4494 0.7481
vt 0.4494 0.7481
vt 0.4494 0.7481
vt 0.4494 0.7481
vt 0.4494 0.7481
vt 0.4494 0.7481
vt 0.4494 0.7481
vt 0.4494 0.7481
vt 0.4494 0.7481
vt 0.4494 0.7481
vt 0.4447 0.6434
vt 0.4447 0.6434
vt 0.4447 0.6434
vt 0.4447 0.6434
vt 0.4447 0.6434
vn 0.1153 -0.0729 0.9907
vn 0.0910 -0.0802 0.9926
vn 0.0028 0.1399 -0.9902
vn 0.0000 -1.0000 0.0000
vn 0.9394 -0.3337 -0.0786
vn 0.9524 -0.3037 -0.0257
vn -0.9112 0.4044 0.0786
vn -0.9255 0.3775 0.0300
vn 0.0031 0.1567 0.9876
vn -0.0890 0.1754 -0.9805
vn -0.1140 0.1678 -0.9792
vn 0.9880 0.1471 -0.0468
vn -0.9878 0.1481 -0.0472
vn 0.0000 0.0806 0.9967
vn 0.1160 0.0453 0.9922
vn 0.9681 0.2506 -0.0061
vn 0.9734 0.1922 -0.1247
vn -0.1161 0.0525 -0.9919
vn -0.0001 0.0223 -0.9998
vn -0.9882 -0.1533 0.0067
vn -0.9869 -0.0980 0.1279
vn 0.0000 -0.2368 0.9715
vn -0.0003 -0.2365 0.9716
vn -0.0003 -0.2366 0.9716
vn -0.0005 -0.2364 0.9717
vn 0.9689 -0.2473 0.0000
vn 0.9692 -0.2464 0.0010
vn 0.9690 -0.2469 0.0005
vn 0.9711 -0.2386 0.0094
vn -0.0006 -0.2464 -0.9692
vn -0.0004 -0.2466 -0.9691
vn -0.0003 -0.2466 -0.9691
vn 0.0000 -0.2470 -0.9690
vn -0.9691 -0.2466 0.0000
vn -0.9692 -0.2462 0.0004
vn -0.9693 -0.2457 0.0010
vn -0.9712 -0.2380 0.0093
vn 0.5093 -0.8481 -0.1460
vn -0.1691 0.9313 0.3225
vn -0.5975 -0.4415 -0.6693
vn -0.5974 -0.4416 -0.6694
vn -0.5975 -0.4416 -0.6693
vn 0.5367 0.4878 -0.6885
vn -0.0934 -0.2755 0.9568
vn 0.7508 -0.6547 0.0870
vn 0.7777 -0.6258 0.0592
vn 0.4644 0.4439 -0.7663
vn 0.4558 0.4553 -0.7648
vn -0.7238 0.6899 -0.0098
vn -0.7074 0.7063 -0.0261
vn -0.3124 -0.3279 0.8916
vn -0.2779 -0.3731 0.8852
vn 0.7149 0.6219 0.3196
vn -0.6401 -0.0587 -0.7661
vn -0.2115 -0.9285 0.3052
vn -0.2114 -0.9285 0.3053
vn -0.2114 -0.9285 0.3052
vn 0.6039 -0.6574 -0.4507
vn -0.3203 0.9329 0.1646
vn 0.6326 -0.0073 0.7744
vn 0.6122 -0.0037 0.7907
vn 0.7245 -0.3438 -0.5974
vn -0.6124 0.0037 -0.7906
vn -0.6326 0.0073 -0.7744
vn -0.6174 0.6341 0.4656
vn 0.2048 0.9788 0.0049
vn -0.6110 -0.7915 0.0131
vn 0.5393 -0.8078 -0.2378
vn 0.5393 -0.8079 -0.2378
vn 0.5392 -0.8079 -0.2377
vn -0.2593 0.2888 -0.9216
vn -0.2492 0.2831 -0.9261
vn -0.2488 0.2828 -0.9264
vn -0.2680 0.0369 0.9627
vn 0.8062 0.5916 -0.0075
vn 0.8075 0.5894 -0.0233
vn -0.2336 0.3182 -0.9188
vn -0.2595 0.2889 -0.9215
vn -0.8683 -0.4952 0.0269
vn -0.8689 -0.4937 0.0347
vn -0.8685 -0.4949 0.0288
vn -0.8690 -0.4934 0.0361
vn 0.0793 -0.0868 0.9931
vn 0.0227 -0.1493 0.9885
vn -0.6026 -0.7773 0.1808
vn -0.3508 -0.8063 0.4763
vn 0.5833 0.4837 0.6526
vn 0.5842 0.3842 0.7149
vn -0.7387 0.5277 -0.4195
vn -0.6490 0.6860 -0.3290
vn -0.1126 0.1752 -0.9781
vn -0.9330 0.3339 0.1341
vn -0.8579 0.3986 0.3242
vn 0.4195 0.2351 0.8768
vn -0.1219 -0.8926 -0.4340
vn -0.1358 0.2926 -0.9465
vn -0.1346 -0.5334 -0.8351
vn 0.3231 -0.5758 -0.7511
vn 0.6499 0.1064 0.7526
vn 0.6525 0.0489 0.7562
vn 0.8812 0.1034 0.4613
vn 0.9067 0.1069 0.4081
vn -0.7694 -0.5147 0.3782
vn -0.8287 0.5505 0.1008
vn 0.7168 0.4586 0.5252
vn 0.8531 0.3893 0.3474
vn -0.2039 -0.9443 -0.2582
vn -0.3450 -0.8556 -0.3858
vn -0.2676 0.6320 -0.7273
vn -0.4920 0.3937 -0.7765
vn 0.1051 0.7799 0.6170
vn -0.8180 -0.3259 0.4740
vn -0.8727 -0.3457 0.3449
vn -0.8927 0.4448 -0.0727
vn -0.0351 -0.7893 -0.6130
vn 0.9317 0.2868 -0.2227
vn -0.4991 -0.6392 0.5850
vn 0.9236 -0.3706 0.0977
vn 0.0562 -0.0290 -0.9980
vn -0.1704 -0.0987 -0.9804
vn 0.8372 0.4948 -0.2330
vn 0.9355 -0.3483 0.0599
vn 0.1621 -0.4005 0.9019
vn 0.0289 0.8031 0.5951
vn 0.0335 -0.9994 0.0049
vn 0.2688 -0.9142 0.3031
vn 0.1974 0.6202 0.7592
vn 0.2651 0.5346 0.8025
vn -0.9347 0.0078 -0.3553
vn -0.9578 0.1685 -0.2330
vn -0.2697 0.2316 -0.9347
vn -0.9230 -0.3573 0.1430
vn -0.8912 -0.2941 0.3454
vn 0.2429 0.2899 0.9257
vn 0.4330 -0.6776 -0.5944
vn -0.3590 0.3005 -0.8836
vn 0.1682 -0.3439 -0.9238
vn 0.5559 -0.1026 -0.8249
vn 0.4930 0.3589 0.7926
vn 0.5313 0.3164 0.7859
vn 0.6527 0.5528 0.5181
vn 0.6663 0.5806 0.4679
vn -0.2459 -0.9398 0.2375
vn -0.9804 -0.1219 0.1551
vn 0.3072 0.7074 0.6366
vn 0.4432 0.7714 0.4566
vn 0.4149 -0.7989 -0.4354
vn 0.2403 -0.7984 -0.5521
vn -0.6577 0.4367 -0.6138
vn -0.6860 0.1235 -0.7171
vn -0.3618 0.5500 0.7528
vn -0.3948 -0.8439 0.3633
vn -0.4344 -0.8708 0.2300
vn -0.9765 -0.2121 -0.0378
vn 0.4222 -0.5138 -0.7468
vn 0.5261 0.8422 -0.1176
vn 0.0571 -0.8999 0.4324
vn 0.9559 0.2834 0.0775
vn -0.0122 0.1866 -0.9824
vn -0.1428 -0.0118 -0.9897
vn 0.3217 0.9420 -0.0951
vn 0.9483 0.3143 0.0450
vn 0.4437 -0.3579 0.8216
vn -0.4370 0.5234 0.7315
vn 0.3668 -0.7567 -0.5412
vn -0.0142 -0.8365 -0.5478
vn -0.9310 0.3646 -0.0147
vn -0.9647 0.2584 -0.0516
vn 0.7293 0.6178 -0.2940
vn 0.5824 0.7583 -0.2929
vn 0.7739 0.3002 0.5576
vn 0.4743 0.3695 -0.7991
vn 0.2757 0.4058 -0.8714
vn -0.9558 0.1005 -0.2764
vn 0.5180 -0.8238 0.2301
vn 0.7506 0.4141 0.5150
vn 0.7756 -0.4180 0.4730
vn 0.4164 -0.4973 0.7611
vn -0.9995 -0.0253 -0.0170
vn -0.9964 -0.0829 -0.0153
vn -0.9370 -0.0062 0.3492
vn -0.9150 0.0023 0.4034
vn 0.2970 -0.5109 -0.8067
vn 0.4016 0.5820 -0.7072
vn -0.9220 0.3476 0.1706
vn -0.8718 0.2926 0.3930
vn 0.4491 -0.8918 0.0542
vn 0.6252 -0.7799 0.0299
vn 0.6314 0.7312 0.2583
vn 0.8473 0.5144 0.1321
vn -0.6273 0.6907 -0.3597
vn 0.2336 -0.3327 -0.9136
vn 0.3677 -0.3332 -0.8682
vn 0.5859 0.5023 -0.6360
vn 0.5793 -0.7047 0.4097
vn -0.4893 0.2565 0.8335
vn -0.0183 -0.6756 -0.7371
vn -0.6345 -0.4337 0.6398
vn 0.7037 0.0904 0.7047
vn 0.8497 0.0325 0.5263
vn -0.4464 0.4693 0.7619
vn -0.6173 -0.4077 0.6728
vn -0.7208 -0.5170 -0.4617
vn -0.5638 0.7209 -0.4031
vn 0.0679 -0.9815 0.1792
vn -0.2974 -0.9536 0.0475
vn -0.6327 0.4640 -0.6200
vn -0.7042 0.3722 -0.6047
vn 0.9737 0.0694 -0.2168
vn 0.9119 0.2034 -0.3565
vn 0.7030 0.4051 0.5845
vn 0.7336 -0.3846 -0.5603
vn 0.5925 -0.3612 -0.7201
vn -0.7272 0.1082 -0.6778
vn 0.0211 -0.5477 0.8364
vn 0.7439 0.4623 0.4826
vn 0.3865 -0.1587 0.9085
vn -0.0156 0.0618 0.9980
vn -0.8729 0.2033 -0.4436
vn -0.8972 0.1631 -0.4103
vn -0.8793 0.4474 -0.1630
vn -0.8667 0.4845 -0.1188
vn 0.1722 -0.9696 -0.1740
vn 0.7521 -0.1563 -0.6403
vn -0.6679 0.5739 -0.4738
vn -0.6922 0.6723 -0.2623
vn -0.0367 -0.6974 0.7157
vn 0.1721 -0.6756 0.7169
vn 0.8370 0.5419 0.0756
vn 0.9468 0.2543 0.1970
vn -0.1529 0.3924 -0.9070
vn 0.2206 -0.9007 -0.3742
vn 0.3277 -0.9018 -0.2816
vn 0.8608 -0.2077 -0.4645
vn 0.0954 -0.3576 0.9290
vn -0.4620 0.8528 0.2437
vn -0.1902 -0.9658 -0.1763
vn -0.8717 0.2699 0.4090
vn 0.5168 0.3719 0.7711
vn 0.6500 0.1776 0.7389
vn -0.3123 0.9450 0.0975
vn -0.8510 0.3064 0.4264
vn -0.7762 -0.5061 -0.3760
vn -0.0757 0.3699 -0.9260
vn -0.5663 -0.7729 0.2862
vn -0.5600 -0.8224 -0.0998
vn 0.5241 0.0910 -0.8468
vn 0.4475 0.0156 -0.8941
vn 0.5225 -0.0141 0.8525
vn 0.6794 0.0346 0.7329
vn -0.0842 0.6564 0.7497
vn 0.5306 -0.5841 0.6143
vn 0.6297 -0.6444 0.4339
vn 0.3835 -0.2517 -0.8886
vn -0.9372 -0.0787 0.3398
vn 0.0396 0.6589 0.7511
vn -0.7075 0.3079 0.6361
vn -0.8120 0.5322 0.2398
vn 0.1837 -0.0603 -0.9811
vn 0.1302 -0.0803 -0.9882
vn 0.0560 0.2881 -0.9560
vn 0.0396 0.3422 -0.9388
vn -0.2324 -0.9287 0.2890
vn 0.7053 -0.4217 0.5699
vn 0.4396 0.2564 -0.8608
vn 0.2990 0.4433 -0.8450
vn -0.9215 -0.2697 0.2795
vn -0.8462 -0.2438 0.4738
vn 0.4452 0.5365 0.7169
vn 0.2503 0.3456 0.9044
vn 0.8850 -0.0952 -0.4559
vn -0.0188 -0.9629 0.2693
vn -0.0626 -0.9163 0.3956
vn 0.5700 -0.3792 0.7289
vn -0.9061 0.1345 0.4011
vn 0.0297 0.8510 -0.5243
vn -0.3442 -0.9373 -0.0556
vn -0.4992 0.4069 -0.7651
vn -0.3143 0.7112 0.6288
vn -0.3316 0.5294 0.7809
vn 0.2407 0.8663 -0.4377
vn -0.4909 0.4479 -0.7473
vn -0.1586 -0.6473 -0.7456
vn 0.9154 -0.1217 -0.3838
vn -0.9948 0.0319 0.0968
vn -0.9996 0.0189 0.0210
vn -0.0014 0.0178 -0.9998
vn -0.0920 0.0327 -0.9952
vn 0.9959 0.0257 -0.0864
vn 0.9991 0.0407 0.0096
vn 0.0923 0.0265 0.9954
vn -0.0006 0.0394 0.9992
usemtl None
s 1
f 1/1/1 2/2/1 3/3/1
f 3/3/2 2/2/2 4/4/2
f 5/5/3 6/6/3 7/7/3
f 8/8/4 9/9/4 10/10/4
f 10/10/4 9/9/4 11/11/4
f 12/12/5 13/13/5 2/2/5
f 2/2/6 13/13/6 4/4/6
f 14/14/7 1/1/7 15/15/7
f 15/15/8 1/1/8 3/3/8
f 16/16/9 17/17/9 5/5/9
f 13/13/10 12/12/10 15/15/10
f 15/15/11 12/12/11 14/14/11
f 17/17/12 6/6/12 5/5/12
f 7/7/13 16/16/13 5/5/13
f 18/18/14 2/2/14 19/19/14
f 19/19/15 2/2/15 1/1/15
f 20/20/16 12/12/16 18/18/16
f 18/18/17 12/12/17 2/2/17
f 14/14/18 12/12/18 21/21/18
f 21/21/19 12/12/19 20/20/19
f 21/21/20 19/19/20 14/14/20
f 14/14/21 19/19/21 1/1/21
f 11/11/22 18/18/23 10/10/24
f 10/10/24 18/18/23 19/19/25
f 9/9/26 20/20/27 11/11/28
f 11/11/28 20/20/27 18/18/29
f 21/21/30 20/20/31 8/8/32
f 8/8/32 20/20/31 9/9/33
f 8/8/34 10/10/35 21/21/36
f 21/21/36 10/10/35 19/19/37
f 22/22/38 23/23/38 24/24/38
f 24/24/39 25/25/39 26/26/39
f 27/27/40 28/28/41 29/29/42
f 29/29/42 28/28/41 30/30/41
f 23/23/43 25/25/43 24/24/43
f 26/26/44 22/22/44 24/24/44
f 29/29/45 30/30/45 22/22/45
f 22/22/46 30/30/46 23/23/46
f 30/30/47 28/28/47 23/23/47
f 23/23/48 28/28/48 25/25/48
f 25/25/49 28/28/49 26/26/49
f 26/26/50 28/28/50 27/27/50
f 29/29/51 22/22/51 27/27/51
f 27/27/52 22/22/52 26/26/52
f 31/31/53 32/32/53 33/33/53
f 33/33/54 34/34/54 35/35/54
f 36/36/55 37/37/56 38/38/57
f 38/38/57 37/37/56 39/39/56
f 32/32/58 34/34/58 33/33/58
f 35/35/59 31/31/59 33/33/59
f 38/38/60 39/39/60 31/31/60
f 31/31/61 39/39/61 32/32/61
f 37/37/62 34/34/62 39/39/62
f 39/39/62 34/34/62 32/32/62
f 34/34/63 37/37/63 35/35/63
f 35/35/64 37/37/64 36/36/64
f 36/36/65 38/38/65 35/35/65
f 35/35/65 38/38/65 31/31/65
f 40/40/66 41/41/66 42/42/66
f 42/42/67 43/43/67 44/44/67
f 45/45/68 46/46/69 47/47/69
f 47/47/69 46/46/69 48/48/70
f 41/41/71 43/43/72 42/42/73
f 44/44/74 40/40/74 42/42/74
f 48/48/75 41/41/75 47/47/75
f 47/47/76 41/41/76 40/40/76
f 46/46/77 43/43/77 48/48/77
f 48/48/78 43/43/72 41/41/71
f 44/44/79 43/43/80 45/45/81
f 45/45/81 43/43/80 46/46/82
f 45/45/83 47/47/83 44/44/83
f 44/44/84 47/47/84 40/40/84
f 49/49/85 50/50/85 51/51/85
f 51/51/86 50/50/86 52/52/86
f 53/53/87 51/51/87 54/54/87
f 54/54/88 51/51/88 52/52/88
f 49/49/89 55/55/89 56/56/89
f 56/56/90 55/55/90 57/57/90
f 58/58/91 50/50/91 54/54/91
f 49/49/92 59/59/92 60/60/92
f 60/60/93 59/59/93 61/61/93
f 62/62/94 63/63/94 61/61/94
f 62/62/95 59/59/95 63/63/95
f 64/64/96 65/65/96 66/66/96
f 49/49/97 56/56/97 53/53/97
f 53/53/98 56/56/98 67/67/98
f 53/53/99 67/67/99 55/55/99
f 55/55/100 67/67/100 57/57/100
f 55/55/101 65/65/101 60/60/101
f 60/60/102 65/65/102 68/68/102
f 64/64/103 66/66/103 68/68/103
f 61/61/104 59/59/104 62/62/104
f 61/61/105 63/63/105 60/60/105
f 60/60/106 63/63/106 51/51/106
f 63/63/107 59/59/107 51/51/107
f 51/51/108 59/59/108 49/49/108
f 65/65/109 55/55/109 66/66/109
f 66/66/110 55/55/110 49/49/110
f 68/68/111 65/65/111 64/64/111
f 68/68/112 66/66/112 60/60/112
f 60/60/113 66/66/113 49/49/113
f 56/56/114 57/57/114 69/69/114
f 67/67/115 56/56/115 69/69/115
f 57/57/116 67/67/116 69/69/116
f 52/52/117 50/50/117 58/58/117
f 54/54/118 52/52/118 58/58/118
f 54/54/119 50/50/119 53/53/119
f 53/53/120 50/50/120 49/49/120
f 55/70/121 70/71/121 53/72/121
f 53/72/122 70/71/122 51/73/122
f 60/74/123 51/73/123 70/71/123
f 60/74/124 70/71/124 55/70/124
f 71/75/125 72/76/125 73/77/125
f 73/77/126 72/76/126 74/78/126
f 75/79/127 73/77/127 76/80/127
f 76/80/128 73/77/128 74/78/128
f 71/75/129 77/81/129 78/82/129
f 78/82/130 77/81/130 79/83/130
f 80/84/131 72/76/131 76/80/131
f 71/75/132 81/85/132 82/86/132
f 82/86/133 81/85/133 83/87/133
f 84/88/134 85/89/134 83/87/134
f 84/88/135 81/85/135 85/89/135
f 86/90/136 87/91/136 88/92/136
f 71/75/137 78/82/137 75/79/137
f 75/79/138 78/82/138 89/93/138
f 75/79/139 89/93/139 77/81/139
f 77/81/140 89/93/140 79/83/140
f 77/81/141 87/91/141 82/86/141
f 82/86/142 87/91/142 90/94/142
f 86/90/143 88/92/143 90/94/143
f 83/87/144 81/85/144 84/88/144
f 83/87/145 85/89/145 82/86/145
f 82/86/146 85/89/146 73/77/146
f 85/89/147 81/85/147 73/77/147
f 73/77/148 81/85/148 71/75/148
f 87/91/149 77/81/149 88/92/149
f 88/92/150 77/81/150 71/75/150
f 90/94/151 87/91/151 86/90/151
f 90/94/152 88/92/152 82/86/152
f 82/86/153 88/92/153 71/75/153
f 78/82/154 79/83/154 91/95/154
f 89/93/155 78/82/155 91/95/155
f 79/83/156 89/93/156 91/95/156
f 74/78/157 72/76/157 80/84/157
f 76/80/158 74/78/158 80/84/158
f 76/80/159 72/76/159 75/79/159
f 75/79/160 72/76/160 71/75/160
f 77/96/161 92/97/161 75/98/161
f 75/98/162 92/97/162 73/99/162
f 82/100/163 73/99/163 92/97/163
f 82/100/164 92/97/164 77/96/164
f 93/101/165 94/102/165 95/103/165
f 95/103/166 94/102/166 96/104/166
f 97/105/167 95/103/167 98/106/167
f 98/106/168 95/103/168 96/104/168
f 93/101/169 99/107/169 100/108/169
f 100/108/170 99/107/170 101/109/170
f 102/110/171 94/102/171 98/106/171
f 93/101/172 103/111/172 104/112/172
f 104/112/173 103/111/173 105/113/173
f 106/114/174 107/115/174 105/113/174
f 106/114/175 103/111/175 107/115/175
f 108/116/176 109/117/176 110/118/176
f 93/101/177 100/108/177 97/105/177
f 97/105/178 100/108/178 111/119/178
f 97/105/179 111/119/179 99/107/179
f 99/107/180 111/119/180 101/109/180
f 99/107/181 109/117/181 104/112/181
f 104/112/182 109/117/182 112/120/182
f 108/116/183 110/118/183 112/120/183
f 105/113/184 103/111/184 106/114/184
f 105/113/185 107/115/185 104/112/185
f 104/112/186 107/115/186 95/103/186
f 107/115/187 103/111/187 95/103/187
f 95/103/188 103/111/188 93/101/188
f 109/117/189 99/107/189 110/118/189
f 110/118/190 99/107/190 93/101/190
f 112/120/191 109/117/191 108/116/191
f 112/120/192 110/118/192 104/112/192
f 104/112/193 110/118/193 93/101/193
f 100/108/194 101/109/194 113/121/194
f 111/119/195 100/108/195 113/121/195
f 101/109/196 111/119/196 113/121/196
f 96/104/197 94/102/197 102/110/197
f 98/106/198 96/104/198 102/110/198
f 98/106/199 94/102/199 97/105/199
f 97/105/200 94/102/200 93/101/200
f 99/122/201 114/123/201 97/124/201
f 97/124/202 114/123/202 95/125/202
f 104/126/203 95/125/203 114/123/203
f 104/126/204 114/123/204 99/122/204
f 115/127/205 116/128/205 117/129/205
f 117/129/206 116/128/206 118/130/206
f 119/131/207 117/129/207 120/132/207
f 120/132/208 117/129/208 118/130/208
f 115/127/209 121/133/209 122/134/209
f 122/134/210 121/133/210 123/135/210
f 124/136/211 116/128/211 120/132/211
f 115/127/212 125/137/212 126/138/212
f 126/138/213 125/137/213 127/139/213
f 128/140/214 129/141/214 127/139/214
f 128/140/215 125/137/215 129/141/215
f 130/142/216 131/143/216 132/144/216
f 115/127/217 122/134/217 119/131/217
f 119/131/218 122/134/218 133/145/218
f 119/131/219 133/145/219 121/133/219
f 121/133/220 133/145/220 123/135/220
f 121/133/221 131/143/221 126/138/221
f 126/138/222 131/143/222 134/146/222
f 130/142/223 132/144/223 134/146/223
f 127/139/224 125/137/224 128/140/224
f 127/139/225 129/141/225 126/138/225
f 126/138/226 129/141/226 117/129/226
f 129/141/227 125/137/227 117/129/227
f 117/129/228 125/137/228 115/127/228
f 131/143/229 121/133/229 132/144/229
f 132/144/230 121/133/230 115/127/230
f 134/146/231 131/143/231 130/142/231
f 134/146/232 132/144/232 126/138/232
f 126/138/233 132/144/233 115/127/233
f 122/134/234 123/135/234 135/147/234
f 133/145/235 122/134/235 135/147/235
f 123/135/236 133/145/236 135/147/236
f 118/130/237 116/128/237 124/136/237
f 120/132/238 118/130/238 124/136/238
f 120/132/239 116/128/239 119/131/239
f 119/131/240 116/128/240 115/127/240
f 121/148/241 136/149/241 119/150/241
f 119/150/242 136/149/242 117/151/242
f 126/152/243 117/151/243 136/149/243
f 126/152/244 136/149/244 121/148/244
f 137/153/245 138/154/245 139/155/245
f 139/155/246 138/154/246 140/156/246
f 141/157/247 139/155/247 142/158/247
f 142/158/248 139/155/248 140/156/248
f 137/153/249 143/159/249 144/160/249
f 144/160/250 143/159/250 145/161/250
f 146/162/251 138/154/251 142/158/251
f 137/153/252 147/163/252 148/164/252
f 148/164/253 147/163/253 149/165/253
f 150/166/254 151/167/254 149/165/254
f 150/166/255 147/163/255 151/167/255
f 152/168/256 153/169/256 154/170/256
f 137/153/257 144/160/257 141/157/257
f 141/157/258 144/160/258 155/171/258
f 141/157/259 155/171/259 143/159/259
f 143/159/260 155/171/260 145/161/260
f 143/159/261 153/169/261 148/164/261
f 148/164/262 153/169/262 156/172/262
f 152/168/263 154/170/263 156/172/263
f 149/165/264 147/163/264 150/166/264
f 149/165/265 151/167/265 148/164/265
f 148/164/266 151/167/266 139/155/266
f 151/167/267 147/163/267 139/155/267
f 139/155/268 147/163/268 137/153/268
f 153/169/269 143/159/269 154/170/269
f 154/170/270 143/159/270 137/153/270
f 156/172/271 153/169/271 152/168/271
f 156/172/272 154/170/272 148/164/272
f 148/164/273 154/170/273 137/153/273
f 144/160/274 145/161/274 157/173/274
f 155/171/275 144/160/275 157/173/275
f 145/161/276 155/171/276 157/173/276
f 140/156/277 138/154/277 146/162/277
f 142/158/278 140/156/278 146/162/278
f 142/158/279 138/154/279 141/157/279
f 141/157/280 138/154/280 137/153/280
f 143/174/281 158/175/281 141/176/281
f 141/176/282 158/175/282 139/177/282
f 148/178/283 139/177/283 158/175/283
f 148/178/284 158/175/284 143/174/284
f 15/15/285 3/3/285 7/7/285
f 7/7/286 3/3/286 16/16/286
f 7/7/287 6/6/287 15/15/287
f 15/15/288 6/6/288 13/13/288
f 13/13/289 6/6/289 4/4/289
f 4/4/290 6/6/290 17/17/290
f 4/4/291 17/17/291 3/3/291
f 3/3/292 17/17/292 16/16/292
