# Blender v2.78 (sub 0) OBJ File: ''
# www.blender.org
mtllib SM_Env_FloorTile_05.mtl
o SM_Env_FloorTile_05
v 87.017700 0.000025 -76.159180
v 99.694824 0.000023 -68.127441
v 150.000000 0.000025 -76.159180
v 76.159668 0.000021 -62.905762
v 76.159668 0.000011 -31.853760
v 83.462402 0.000017 -52.548584
v 150.000000 0.000001 -0.772705
v 109.538086 0.000001 -0.772705
v 95.636230 0.000018 -55.275635
v 92.977905 0.000003 -10.468994
v -74.613403 0.000025 -76.159180
v -74.613403 0.000001 -0.772705
v -45.340942 0.000025 -76.159180
v -42.980591 0.000019 -56.871582
v 0.772949 0.000001 -0.772705
v -28.432617 0.000015 -47.035645
v 0.772949 0.000019 -57.210693
v -16.102539 0.000019 -57.340820
v -74.613403 -0.000025 74.613525
v -49.905762 -0.000027 84.109131
v 0.772949 -0.000025 74.613525
v 0.772949 -0.000039 120.187256
v -48.902832 -0.000033 101.495605
v -74.613403 -0.000049 150.000000
v 0.772949 -0.000049 150.000000
v -74.613403 -0.000036 110.444092
v -62.202637 -0.000033 102.614014
v 0.772949 -0.000041 127.960693
v 76.159668 -0.000033 99.793701
v 88.094238 -0.000031 92.569580
v 76.159668 -0.000025 74.613525
v 150.000000 -0.000025 74.613525
v 99.204102 -0.000034 104.207031
v 150.000000 -0.000049 150.000000
v 93.995483 -0.000039 117.750000
v 76.159668 -0.000037 113.743652
v 76.159668 -0.000049 150.000000
v -82.903198 0.000006 -18.583496
v -100.080078 0.000001 -0.772705
v -107.237793 0.000003 -12.081299
v -150.000000 0.000001 -0.772705
v -150.000000 0.000025 -76.159180
v -121.427368 0.000025 -76.159180
v -97.069946 0.000007 -22.825439
v -113.414551 0.000025 -76.159180
v -84.282227 -0.000025 74.613525
v -150.000000 -0.000025 74.613525
v -93.553711 -0.000027 85.320068
v -150.000000 -0.000049 150.000000
v -93.660156 -0.000033 98.281006
v 19.446777 0.000009 -26.629395
v 63.075684 0.000013 -39.145508
v 76.159668 0.000025 -76.159180
v 12.936035 0.000025 -76.159180
v 38.849121 0.000009 -28.431885
v 9.171387 -0.000044 134.835938
v 10.945679 -0.000037 113.087158
v 17.166504 -0.000043 130.251465
v 20.958496 -0.000039 119.311768
v 113.218750 -0.000007 21.055176
v 99.101074 -0.000013 39.049561
v 76.159668 -0.000013 37.503418
v 10.161621 -0.000007 23.762207
v 64.935181 -0.000017 51.556396
v 37.216187 -0.000017 52.469238
v 31.854126 -0.000009 28.571289
v -74.613403 -0.000013 37.572998
v -68.014160 -0.000015 47.688721
v -58.060547 -0.000013 41.759277
v -58.794312 -0.000009 28.233154
v -74.613403 -0.000007 23.721924
v -84.061646 -0.000003 8.350342
v 76.159668 0.000049 -150.000000
v 76.159668 0.000039 -119.300293
v 150.000000 0.000049 -150.000000
v 85.310059 0.000037 -113.459473
v 76.159668 0.000033 -100.212402
v 0.772949 0.000049 -150.000000
v 0.772949 0.000031 -96.604736
v 64.272949 0.000033 -102.921143
v 61.098755 0.000038 -116.873047
v -6.985840 0.000033 -101.097900
v -74.613403 0.000049 -150.000000
v -17.214966 0.000031 -93.970215
v -35.217773 0.000031 -94.151123
v -130.767944 0.000027 -84.417725
v -105.541992 0.000027 -84.024658
v -150.000000 0.000049 -150.000000
v -124.684082 0.000031 -94.148682
v -112.162598 0.000031 -93.107666
v 20.740112 0.000001 -0.772949
v 30.750854 -0.000004 12.110596
v 76.159668 0.000001 -0.772705
v 51.946899 -0.000005 15.525879
v 55.289062 -0.000011 36.097656
v 0.772949 0.000025 -76.159180
vt 0.9659 0.4514
vt 0.9659 0.4514
vt 0.9659 0.4514
vt 0.9659 0.4514
vt 0.9659 0.4514
vt 0.9659 0.4514
vt 0.9659 0.4514
vt 0.9659 0.4514
vt 0.9659 0.4514
vt 0.9659 0.4514
vt 0.9659 0.4514
vt 0.9659 0.4514
vt 0.9659 0.4514
vt 0.9659 0.4514
vt 0.9659 0.4514
vt 0.9659 0.4514
vt 0.9659 0.4514
vt 0.9659 0.4514
vt 0.9659 0.4514
vt 0.9659 0.4514
vt 0.9659 0.4514
vt 0.9659 0.4514
vt 0.9659 0.4514
vt 0.9659 0.4514
vt 0.9659 0.4514
vt 0.9659 0.4514
vt 0.9659 0.4514
vt 0.9659 0.4514
vt 0.9659 0.4514
vt 0.9659 0.4514
vt 0.9659 0.4514
vt 0.9659 0.4514
vt 0.9659 0.4514
vt 0.9659 0.4514
vt 0.9659 0.4514
vt 0.9659 0.4514
vt 0.9659 0.4514
vt 0.9659 0.4514
vt 0.9659 0.4514
vt 0.9659 0.4514
vt 0.9659 0.4514
vt 0.9659 0.4514
vt 0.9659 0.4514
vt 0.9659 0.4514
vt 0.9659 0.4514
vt 0.9659 0.4514
vt 0.9659 0.4514
vt 0.9659 0.4514
vt 0.9659 0.4514
vt 0.9659 0.4514
vt 0.9659 0.4514
vt 0.9659 0.4514
vt 0.9659 0.4514
vt 0.9659 0.4514
vt 0.9659 0.4514
vt 0.9659 0.4514
vt 0.9659 0.4514
vt 0.9659 0.4514
vt 0.9659 0.4514
vt 0.9659 0.4514
vt 0.9659 0.4514
vt 0.9659 0.4514
vt 0.9659 0.4514
vt 0.9659 0.4514
vt 0.9659 0.4514
vt 0.9659 0.4514
vt 0.9659 0.4514
vt 0.9659 0.4514
vt 0.9659 0.4514
vt 0.9659 0.4514
vt 0.9659 0.4514
vt 0.9659 0.4514
vt 0.9659 0.4514
vt 0.9659 0.4514
vt 0.9659 0.4514
vt 0.9659 0.4514
vt 0.9659 0.4514
vt 0.9659 0.4514
vt 0.9659 0.4514
vt 0.9659 0.4514
vt 0.9659 0.4514
vt 0.9659 0.4514
vt 0.9659 0.4514
vt 0.9659 0.4514
vt 0.9659 0.4514
vt 0.9659 0.4514
vt 0.9659 0.4514
vt 0.9659 0.4514
vt 0.9659 0.4514
vt 0.9659 0.4514
vt 0.9420 0.4562
vt 0.9420 0.4562
vt 0.9420 0.4562
vt 0.9420 0.4562
vt 0.9420 0.4562
vt 0.9420 0.4562
vt 0.9420 0.4562
vt 0.9420 0.4562
vt 0.9420 0.4562
vt 0.9420 0.4562
vt 0.9420 0.4562
vt 0.9420 0.4562
vt 0.9420 0.4562
vt 0.9420 0.4562
vt 0.9420 0.4562
vt 0.9420 0.4562
vt 0.9420 0.4562
vt 0.9420 0.4562
vt 0.9420 0.4562
vt 0.9420 0.4562
vt 0.9420 0.4562
vt 0.9420 0.4562
vt 0.9420 0.4562
vt 0.9420 0.4562
vt 0.9420 0.4562
vt 0.9420 0.4562
vt 0.9420 0.4562
vt 0.9420 0.4562
vt 0.9420 0.4562
vt 0.9420 0.4562
vt 0.9420 0.4562
vt 0.9420 0.4562
vt 0.9420 0.4562
vt 0.9420 0.4562
vt 0.9420 0.4562
vt 0.9420 0.4562
vt 0.9420 0.4562
vt 0.9420 0.4562
vt 0.9420 0.4562
vt 0.9420 0.4562
vt 0.9420 0.4562
vt 0.9420 0.4562
vt 0.9420 0.4562
vt 0.9420 0.4562
vt 0.9420 0.4562
vt 0.9420 0.4562
vt 0.9420 0.4562
vt 0.9420 0.4562
vt 0.9420 0.4562
vt 0.9680 0.5024
vt 0.9680 0.5024
vt 0.9680 0.5024
vt 0.9680 0.5024
vt 0.9680 0.5024
vt 0.9680 0.5024
vt 0.9680 0.5024
vt 0.9680 0.5024
vt 0.9680 0.5024
vt 0.9680 0.5024
vt 0.9680 0.5024
vt 0.9680 0.5024
vt 0.9680 0.5024
vt 0.9680 0.5024
vt 0.9680 0.5024
vt 0.9680 0.5024
vt 0.9680 0.5024
vt 0.9680 0.5024
vt 0.9680 0.5024
vt 0.9680 0.5024
vt 0.9680 0.5024
vt 0.9680 0.5024
vt 0.9680 0.5024
vt 0.9680 0.5024
vt 0.9680 0.5024
vt 0.9680 0.5024
vt 0.9680 0.5024
vt 0.9680 0.5024
vt 0.9680 0.5024
vt 0.9680 0.5024
vt 0.9680 0.5024
vt 0.9680 0.5024
vt 0.9680 0.5024
vt 0.9680 0.5024
vn -0.0000 1.0000 0.0000
usemtl None
s 1
f 1/1/1 2/2/1 3/3/1
f 4/4/1 5/5/1 6/6/1
f 3/3/1 2/2/1 7/7/1
f 7/7/1 2/2/1 8/8/1
f 2/2/1 9/9/1 8/8/1
f 8/8/1 9/9/1 10/10/1
f 9/9/1 6/6/1 10/10/1
f 6/6/1 5/5/1 10/10/1
f 11/11/1 12/12/1 13/13/1
f 13/13/1 12/12/1 14/14/1
f 12/12/1 15/15/1 14/14/1
f 14/14/1 15/15/1 16/16/1
f 17/17/1 18/18/1 15/15/1
f 18/18/1 16/16/1 15/15/1
f 19/19/1 20/20/1 21/21/1
f 21/21/1 20/20/1 22/22/1
f 20/20/1 23/23/1 22/22/1
f 24/24/1 25/25/1 26/26/1
f 26/26/1 25/25/1 27/27/1
f 27/27/1 25/25/1 23/23/1
f 25/25/1 28/28/1 23/23/1
f 23/23/1 28/28/1 22/22/1
f 29/29/1 30/30/1 31/31/1
f 31/31/1 30/30/1 32/32/1
f 30/30/1 33/33/1 32/32/1
f 32/32/1 33/33/1 34/34/1
f 33/33/1 35/35/1 34/34/1
f 36/36/1 37/37/1 35/35/1
f 35/35/1 37/37/1 34/34/1
f 12/12/1 11/11/1 38/38/1
f 39/39/1 40/40/1 41/41/1
f 41/41/1 40/40/1 42/42/1
f 42/42/1 40/40/1 43/43/1
f 40/40/1 44/44/1 43/43/1
f 43/43/1 44/44/1 45/45/1
f 45/45/1 44/44/1 11/11/1
f 11/11/1 44/44/1 38/38/1
f 46/46/1 47/47/1 48/48/1
f 47/47/1 49/49/1 48/48/1
f 48/48/1 49/49/1 50/50/1
f 24/24/1 26/26/1 49/49/1
f 26/26/1 50/50/1 49/49/1
f 15/15/1 51/51/1 17/17/1
f 5/5/1 4/4/1 52/52/1
f 53/53/1 54/54/1 4/4/1
f 4/4/1 54/54/1 52/52/1
f 52/52/1 54/54/1 55/55/1
f 54/54/1 17/17/1 55/55/1
f 17/17/1 51/51/1 55/55/1
f 28/28/1 25/25/1 56/56/1
f 22/22/1 57/57/1 21/21/1
f 25/25/1 37/37/1 56/56/1
f 56/56/1 37/37/1 58/58/1
f 37/37/1 36/36/1 58/58/1
f 58/58/1 36/36/1 59/59/1
f 21/21/1 57/57/1 31/31/1
f 31/31/1 57/57/1 29/29/1
f 57/57/1 59/59/1 29/29/1
f 36/36/1 29/29/1 59/59/1
f 8/8/1 60/60/1 7/7/1
f 7/7/1 60/60/1 32/32/1
f 60/60/1 61/61/1 32/32/1
f 62/62/1 31/31/1 61/61/1
f 61/61/1 31/31/1 32/32/1
f 15/15/1 21/21/1 63/63/1
f 62/62/1 64/64/1 31/31/1
f 31/31/1 64/64/1 21/21/1
f 64/64/1 65/65/1 21/21/1
f 63/63/1 21/21/1 66/66/1
f 21/21/1 65/65/1 66/66/1
f 67/67/1 19/19/1 68/68/1
f 19/19/1 21/21/1 68/68/1
f 68/68/1 21/21/1 69/69/1
f 21/21/1 15/15/1 69/69/1
f 69/69/1 15/15/1 70/70/1
f 12/12/1 71/71/1 15/15/1
f 15/15/1 71/71/1 70/70/1
f 12/12/1 72/72/1 71/71/1
f 47/47/1 46/46/1 41/41/1
f 41/41/1 46/46/1 39/39/1
f 39/39/1 46/46/1 72/72/1
f 72/72/1 46/46/1 71/71/1
f 71/71/1 46/46/1 67/67/1
f 46/46/1 19/19/1 67/67/1
f 73/73/1 74/74/1 75/75/1
f 74/74/1 76/76/1 75/75/1
f 75/75/1 76/76/1 3/3/1
f 53/53/1 1/1/1 77/77/1
f 76/76/1 77/77/1 3/3/1
f 77/77/1 1/1/1 3/3/1
f 78/78/1 79/79/1 73/73/1
f 53/53/1 77/77/1 54/54/1
f 77/77/1 80/80/1 54/54/1
f 54/54/1 80/80/1 79/79/1
f 80/80/1 81/81/1 79/79/1
f 74/74/1 73/73/1 81/81/1
f 79/79/1 81/81/1 73/73/1
f 79/79/1 78/78/1 82/82/1
f 78/78/1 83/83/1 82/82/1
f 82/82/1 83/83/1 84/84/1
f 84/84/1 83/83/1 85/85/1
f 11/11/1 13/13/1 83/83/1
f 83/83/1 13/13/1 85/85/1
f 43/43/1 86/86/1 42/42/1
f 45/45/1 11/11/1 87/87/1
f 42/42/1 86/86/1 88/88/1
f 86/86/1 89/89/1 88/88/1
f 88/88/1 89/89/1 83/83/1
f 89/89/1 90/90/1 83/83/1
f 11/11/1 83/83/1 87/87/1
f 90/90/1 87/87/1 83/83/1
f 26/91/1 19/92/1 50/93/1
f 50/93/1 19/92/1 48/94/1
f 46/95/1 48/94/1 19/92/1
f 26/91/1 27/96/1 19/92/1
f 19/92/1 27/96/1 20/97/1
f 27/96/1 23/98/1 20/97/1
f 91/99/1 92/100/1 93/101/1
f 92/100/1 94/102/1 93/101/1
f 93/101/1 94/102/1 62/103/1
f 94/102/1 95/104/1 62/103/1
f 93/101/1 5/105/1 91/99/1
f 5/105/1 52/106/1 91/99/1
f 52/106/1 55/107/1 91/99/1
f 55/107/1 51/108/1 91/99/1
f 8/109/1 10/110/1 93/101/1
f 93/101/1 10/110/1 5/105/1
f 93/101/1 62/103/1 8/109/1
f 8/109/1 62/103/1 60/111/1
f 62/103/1 61/112/1 60/111/1
f 13/113/1 96/114/1 85/115/1
f 85/115/1 96/114/1 84/116/1
f 84/116/1 96/114/1 82/117/1
f 79/118/1 82/117/1 96/114/1
f 54/119/1 79/118/1 96/114/1
f 17/120/1 54/119/1 96/114/1
f 13/113/1 14/121/1 96/114/1
f 14/121/1 16/122/1 96/114/1
f 16/122/1 18/123/1 96/114/1
f 96/114/1 18/123/1 17/120/1
f 35/124/1 33/125/1 36/126/1
f 36/126/1 33/125/1 29/127/1
f 33/125/1 30/128/1 29/127/1
f 81/129/1 80/130/1 74/131/1
f 74/131/1 80/130/1 77/132/1
f 77/132/1 76/133/1 74/131/1
f 87/134/1 90/135/1 45/136/1
f 90/135/1 89/137/1 45/136/1
f 45/136/1 89/137/1 43/138/1
f 89/137/1 86/139/1 43/138/1
f 62/140/1 95/141/1 64/142/1
f 64/142/1 95/141/1 65/143/1
f 65/143/1 95/141/1 66/144/1
f 95/141/1 94/145/1 66/144/1
f 94/145/1 92/146/1 66/144/1
f 15/147/1 63/148/1 91/149/1
f 91/149/1 63/148/1 92/146/1
f 63/148/1 66/144/1 92/146/1
f 51/150/1 15/147/1 91/149/1
f 12/151/1 38/152/1 39/153/1
f 38/152/1 44/154/1 39/153/1
f 44/154/1 40/155/1 39/153/1
f 39/153/1 72/156/1 12/151/1
f 53/157/1 4/158/1 1/159/1
f 1/159/1 4/158/1 2/160/1
f 2/160/1 4/158/1 9/161/1
f 4/158/1 6/162/1 9/161/1
f 59/163/1 57/164/1 58/165/1
f 57/164/1 22/166/1 58/165/1
f 22/166/1 28/167/1 58/165/1
f 28/167/1 56/168/1 58/165/1
f 71/169/1 67/170/1 70/171/1
f 70/171/1 67/170/1 69/172/1
f 67/170/1 68/173/1 69/172/1
