# Blender v2.78 (sub 0) OBJ File: ''
# www.blender.org
mtllib SM_Env_Rock_07.mtl
o SM_Env_Rock_07
v -25.590363 -15.307396 26.634369
v 11.248505 -18.927469 27.084682
v -22.664703 -1.292335 23.708561
v 10.161469 6.546788 24.564674
v -14.718231 21.380014 16.970562
v -7.684968 26.986635 14.848433
v -13.804474 26.986635 12.087600
v 8.141205 21.357983 -20.211994
v 8.655853 16.020966 -21.405205
v -18.206390 13.373369 -19.700554
v -19.591644 0.465457 -21.085903
v -26.196503 -26.986635 9.032007
v 9.140656 -26.986635 7.814876
v -22.637299 -26.986641 23.681271
v 10.151215 -26.986641 24.541134
v 26.221161 20.381868 9.042674
v 25.202789 17.427872 19.942116
v 28.855682 -10.485378 10.175569
v 25.682404 10.614900 24.188210
v 28.128571 -10.485385 26.634369
v -28.855682 -15.307390 10.175567
v -26.221161 -4.959078 9.042666
v -17.950287 0.635949 21.081882
v 9.019684 6.916646 21.917946
v -16.564972 13.460876 19.696541
v 8.505035 16.684755 16.615822
v 9.797638 15.625987 -24.051994
v 10.884613 -14.065313 -26.571930
v -22.664703 -1.487943 -24.158901
v -25.590363 -18.927454 -27.084690
v 22.129791 16.062847 20.635628
v 23.454132 20.045328 7.852734
v 20.744476 21.379471 19.250225
v 22.206696 23.423677 7.316265
v -20.398285 -1.171841 9.062200
v -18.937653 11.582697 8.525735
v 23.713837 16.240292 22.219643
v 16.342682 26.986635 14.848433
v 18.243134 26.986637 5.611768
v 6.869537 26.986635 12.824570
v 6.185638 26.986637 4.869001
v 20.744476 21.291965 -19.700550
v 22.129791 15.892356 -21.085899
v 25.202789 16.211472 -24.158897
v 28.128571 -18.927454 -27.084690
v 26.196564 -26.986635 9.032007
v 25.175446 -26.986641 23.681271
v 23.064911 15.005603 23.708565
v 16.342682 26.986639 -15.298783
v 6.505645 26.986639 -16.420734
v -5.241241 26.986639 -15.298783
v -12.430267 26.986637 5.611768
v -13.804474 26.986639 -8.523149
v 9.787384 -26.986626 -24.028446
v -22.637299 -26.986626 -24.131535
v 25.175446 -26.986626 -24.131535
v -15.871185 20.595282 -17.365376
vt 0.9467 0.4995
vt 0.9467 0.4995
vt 0.9467 0.4995
vt 0.9467 0.4995
vt 0.9467 0.4995
vt 0.9467 0.4995
vt 0.9467 0.4995
vt 0.9467 0.4995
vt 0.9467 0.4995
vt 0.9467 0.4995
vt 0.9467 0.4995
vt 0.9467 0.4995
vt 0.9467 0.4995
vt 0.9467 0.4995
vt 0.9467 0.4995
vt 0.9467 0.4995
vt 0.9467 0.4995
vt 0.9467 0.4995
vt 0.9467 0.4995
vt 0.9467 0.4995
vt 0.9467 0.4995
vt 0.9467 0.4995
vt 0.9467 0.4995
vt 0.9467 0.4995
vt 0.9467 0.4995
vt 0.9467 0.4995
vt 0.9467 0.4995
vt 0.9467 0.4995
vt 0.9467 0.4995
vt 0.9467 0.4995
vt 0.9467 0.4995
vt 0.9467 0.4995
vt 0.9467 0.4995
vt 0.9467 0.4995
vt 0.9467 0.4995
vt 0.9467 0.4995
vt 0.9467 0.4995
vt 0.9467 0.4995
vt 0.9467 0.4995
vt 0.9467 0.4995
vt 0.9467 0.4995
vt 0.9467 0.4995
vt 0.9467 0.4995
vt 0.9467 0.4995
vt 0.9467 0.4995
vt 0.9467 0.4995
vt 0.9467 0.4995
vt 0.9467 0.4995
vt 0.9467 0.4995
vt 0.9467 0.4995
vt 0.9467 0.4995
vt 0.9467 0.4995
vt 0.9467 0.4995
vt 0.9467 0.4995
vt 0.9467 0.4995
vt 0.9467 0.4995
vt 0.9467 0.4995
vn 0.0080 0.2028 0.9792
vn -0.0489 0.0963 0.9942
vn -0.3117 0.6524 0.6908
vn -0.0825 0.2099 -0.9742
vn -0.0741 0.1143 -0.9907
vn -0.0000 -1.0000 -0.0000
vn 0.9892 0.0887 0.1165
vn 0.9922 0.1083 0.0617
vn 0.9918 0.1201 0.0438
vn -0.9467 0.2616 0.1878
vn -0.9563 0.2357 0.1730
vn -0.0571 0.1133 0.9919
vn 0.0462 0.4784 0.8769
vn -0.0405 0.0830 -0.9957
vn -0.0084 0.1668 -0.9860
vn 0.9372 0.2933 0.1885
vn 0.9143 0.3653 0.1746
vn -0.9762 0.1194 0.1809
vn -0.9746 0.1252 0.1857
vn -0.9762 0.1195 0.1809
vn -0.9745 0.1253 0.1859
vn -0.4640 0.8807 -0.0958
vn -0.4595 0.8278 -0.3218
vn -0.2302 0.9342 0.2726
vn -0.2275 0.9461 0.2303
vn 0.6266 0.4435 0.6409
vn 0.6265 0.4435 0.6409
vn -0.5434 0.8359 -0.0772
vn -0.4041 0.9131 -0.0550
vn -0.0000 1.0000 0.0000
vn 0.0407 0.2217 -0.9743
vn 0.0253 0.2545 -0.9667
vn -0.0374 0.9971 0.0661
vn 0.0128 0.9898 -0.1422
vn -0.0101 0.0842 -0.9964
vn -0.0069 0.0827 -0.9966
vn -0.0094 0.0838 -0.9964
vn -0.0064 0.0824 -0.9966
vn -0.0222 0.0975 0.9950
vn -0.0038 0.1064 0.9943
vn -0.0042 0.1080 0.9941
vn -0.0038 0.1066 0.9943
vn -0.0059 0.1145 0.9934
vn -0.5173 0.7882 0.3333
vn -0.4991 0.7613 0.4138
vn -0.4801 0.7742 0.4125
vn -0.2329 0.4544 0.8598
vn -0.2712 0.1759 0.9463
vn -0.9934 0.1129 -0.0204
vn -0.9938 0.1096 -0.0192
vn -0.9935 0.1121 -0.0201
vn -0.9939 0.1087 -0.0189
vn -0.5556 0.8310 0.0274
vn -0.5528 0.8328 0.0283
vn -0.5478 0.8361 0.0300
vn -0.5450 0.8378 0.0309
vn -0.9780 0.1814 -0.1033
vn -0.9681 0.2378 -0.0788
vn 0.9957 0.0835 -0.0410
vn 0.9956 0.0848 -0.0400
vn 0.9957 0.0836 -0.0409
vn 0.9955 0.0861 -0.0389
vn -0.0604 0.9884 -0.1391
vn -0.2159 0.9696 -0.1152
vn 0.9392 0.3345 -0.0772
vn 0.9601 0.2674 -0.0823
vn -0.9162 0.3503 -0.1944
vn -0.9481 0.2821 0.1465
vn -0.9482 0.2814 0.1473
vn -0.9488 0.2756 0.1543
vn -0.9489 0.2748 0.1553
vn -0.9510 0.3091 -0.0050
vn -0.9509 0.3094 -0.0049
vn -0.9500 0.3121 -0.0039
vn -0.9499 0.3124 -0.0038
vn -0.9114 0.4018 0.0886
vn 0.0348 0.6279 -0.7775
vn 0.0927 0.5746 -0.8131
vn 0.6818 0.7289 -0.0620
vn 0.7521 0.6526 -0.0922
vn 0.6860 0.6985 0.2037
vn 0.6314 0.7645 0.1299
vn -0.1986 0.3106 0.9296
vn -0.3376 0.4028 0.8507
vn 0.0768 0.3085 0.9481
vn 0.0702 0.2749 0.9589
vn 0.1285 0.3604 0.9239
vn -0.2290 0.9359 0.2678
vn -0.3468 0.9053 0.2454
vn -0.3560 0.9098 0.2133
vn -0.3810 0.7893 -0.4815
vn -0.1213 0.3407 -0.9323
vn -0.1184 0.4782 -0.8702
vn -0.0800 0.5408 -0.8374
vn -0.0367 -0.2537 0.9666
vn -0.0250 -0.2978 0.9543
vn -0.9402 -0.2849 0.1865
vn -0.9440 -0.2374 0.2293
vn 0.9821 -0.1835 0.0434
vn 0.9842 -0.1634 0.0686
vn 0.1241 -0.1963 0.9727
vn 0.0544 -0.3073 0.9501
vn 0.0566 -0.3252 -0.9440
vn 0.0031 -0.1934 -0.9811
vn -0.0061 -0.1926 -0.9813
vn -0.0063 -0.1926 -0.9813
vn -0.9323 -0.3588 -0.0468
vn -0.9719 -0.2111 -0.1043
vn -0.1140 -0.3047 -0.9456
vn -0.0066 -0.1926 -0.9813
vn 0.9869 -0.1602 0.0170
vn 0.9351 -0.3532 -0.0288
usemtl None
s 1
f 1/1/1 2/2/1 3/3/1
f 3/3/2 2/2/2 4/4/2
f 5/5/3 6/6/3 7/7/3
f 8/8/4 9/9/4 10/10/4
f 10/10/5 9/9/5 11/11/5
f 12/12/6 13/13/6 14/14/6
f 14/14/6 13/13/6 15/15/6
f 16/16/7 17/17/7 18/18/7
f 17/17/8 19/19/8 18/18/8
f 20/20/9 18/18/9 19/19/9
f 21/21/10 1/1/10 22/22/10
f 22/22/11 1/1/11 3/3/11
f 23/23/12 24/24/12 25/25/12
f 25/25/13 24/24/13 26/26/13
f 27/27/14 28/28/14 29/29/14
f 29/29/15 28/28/15 30/30/15
f 31/31/16 32/32/16 33/33/16
f 33/33/17 32/32/17 34/34/17
f 35/35/18 23/23/19 36/36/20
f 36/36/20 23/23/19 25/25/21
f 29/29/22 11/11/22 27/27/22
f 27/27/23 11/11/23 9/9/23
f 3/3/24 4/4/24 23/23/24
f 23/23/25 4/4/25 24/24/25
f 19/19/26 17/17/27 37/37/27
f 22/22/28 3/3/28 35/35/28
f 35/35/29 3/3/29 23/23/29
f 38/38/30 39/39/30 40/40/30
f 40/40/30 39/39/30 41/41/30
f 8/8/31 42/42/31 9/9/31
f 9/9/32 42/42/32 43/43/32
f 44/44/33 27/27/33 43/43/33
f 43/43/34 27/27/34 9/9/34
f 27/27/35 44/44/36 28/28/37
f 28/28/37 44/44/36 45/45/38
f 13/13/6 46/46/6 15/15/6
f 15/15/6 46/46/6 47/47/6
f 2/2/39 20/20/39 4/4/39
f 48/48/40 4/4/41 19/19/42
f 4/4/41 20/20/43 19/19/42
f 24/24/44 4/4/44 31/31/44
f 37/37/45 31/31/45 48/48/45
f 4/4/46 48/48/46 31/31/46
f 24/24/47 31/31/47 26/26/47
f 26/26/48 31/31/48 33/33/48
f 39/39/30 49/49/30 41/41/30
f 41/41/30 49/49/30 50/50/30
f 50/50/30 51/51/30 41/41/30
f 41/41/30 51/51/30 52/52/30
f 52/52/30 51/51/30 53/53/30
f 35/35/49 36/36/50 11/11/51
f 11/11/51 36/36/50 10/10/52
f 29/29/53 22/22/54 11/11/55
f 11/11/55 22/22/54 35/35/56
f 30/30/57 21/21/57 29/29/57
f 29/29/58 21/21/58 22/22/58
f 54/54/6 13/13/6 55/55/6
f 55/55/6 13/13/6 12/12/6
f 46/46/6 13/13/6 56/56/6
f 56/56/6 13/13/6 54/54/6
f 16/16/59 18/18/60 44/44/61
f 44/44/61 18/18/60 45/45/62
f 32/32/63 16/16/63 43/43/63
f 43/43/64 16/16/64 44/44/64
f 34/34/65 32/32/65 42/42/65
f 42/42/66 32/32/66 43/43/66
f 52/52/67 36/36/67 7/7/67
f 7/7/68 36/36/69 5/5/70
f 36/36/69 25/25/71 5/5/70
f 10/10/72 36/36/73 57/57/74
f 57/57/74 36/36/73 53/53/75
f 36/36/76 52/52/76 53/53/76
f 42/42/77 8/8/77 49/49/77
f 49/49/78 8/8/78 50/50/78
f 39/39/79 34/34/79 49/49/79
f 49/49/80 34/34/80 42/42/80
f 33/33/81 34/34/81 38/38/81
f 38/38/82 34/34/82 39/39/82
f 40/40/83 26/26/83 38/38/83
f 38/38/84 26/26/84 33/33/84
f 25/25/85 26/26/85 5/5/85
f 5/5/86 26/26/86 6/6/86
f 26/26/87 40/40/87 6/6/87
f 40/40/30 41/41/30 6/6/30
f 7/7/30 6/6/30 52/52/30
f 6/6/30 41/41/30 52/52/30
f 32/32/88 31/31/88 16/16/88
f 37/37/89 17/17/89 31/31/89
f 17/17/90 16/16/90 31/31/90
f 37/37/27 48/48/26 19/19/26
f 53/53/91 51/51/91 57/57/91
f 10/10/92 57/57/92 8/8/92
f 57/57/93 51/51/93 8/8/93
f 51/51/94 50/50/94 8/8/94
f 1/1/95 14/14/95 2/2/95
f 2/2/96 14/14/96 15/15/96
f 1/1/97 21/21/97 14/14/97
f 14/14/98 21/21/98 12/12/98
f 20/20/99 47/47/99 18/18/99
f 18/18/100 47/47/100 46/46/100
f 20/20/101 2/2/101 47/47/101
f 47/47/102 2/2/102 15/15/102
f 30/30/103 28/28/103 55/55/103
f 55/55/104 28/28/105 54/54/106
f 30/30/107 55/55/107 21/21/107
f 21/21/108 55/55/108 12/12/108
f 45/45/109 56/56/109 28/28/109
f 28/28/105 56/56/110 54/54/106
f 18/18/111 46/46/111 45/45/111
f 45/45/112 46/46/112 56/56/112
