# Blender v2.78 (sub 0) OBJ File: ''
# www.blender.org
mtllib SM_Env_Ice_01.mtl
o SM_Env_Ice_01
v 29.326447 8.884692 84.661194
v 15.876328 8.884720 1.095523
v -67.569313 8.884701 60.684875
v -88.649048 8.884718 3.932314
v 87.116852 8.884705 45.835632
v 88.649048 8.884734 -47.664124
v -35.963120 8.884745 -74.243103
v 44.461884 8.884747 -84.661194
v -88.649048 -8.884722 3.932310
v 15.876328 -8.884720 1.095518
v -67.569313 -8.884739 60.684875
v 29.326447 -8.884747 84.661194
v 87.116852 -8.884734 45.835632
v 88.649048 -8.884705 -47.664124
v -35.963120 -8.884695 -74.243103
v 44.461884 -8.884692 -84.661194
vt 0.5608 0.7937
vt 0.5608 0.7937
vt 0.5608 0.7937
vt 0.5608 0.7937
vt 0.5608 0.7937
vt 0.5608 0.7937
vt 0.5608 0.7937
vt 0.5608 0.7937
vt 0.5608 0.7937
vt 0.5608 0.7937
vt 0.5608 0.7937
vt 0.5608 0.7937
vt 0.5608 0.7937
vt 0.5608 0.7937
vt 0.5608 0.7937
vt 0.5608 0.7937
vn 0.0000 1.0000 0.0000
vn 0.0000 -1.0000 -0.0000
vn -0.2402 0.0000 0.9707
vn -0.9374 0.0000 0.3482
vn 0.5577 0.0000 0.8301
vn 0.9999 0.0000 0.0164
vn -0.8293 0.0000 -0.5589
vn -0.1285 0.0000 -0.9917
vn 0.6420 0.0000 -0.7667
usemtl None
s 1
f 1/1/1 2/2/1 3/3/1
f 3/3/1 2/2/1 4/4/1
f 1/1/1 5/5/1 2/2/1
f 2/2/1 5/5/1 6/6/1
f 4/4/1 2/2/1 7/7/1
f 2/2/1 8/8/1 7/7/1
f 2/2/1 6/6/1 8/8/1
f 9/9/2 10/10/2 11/11/2
f 11/11/2 10/10/2 12/12/2
f 12/12/2 10/10/2 13/13/2
f 10/10/2 14/14/2 13/13/2
f 9/9/2 15/15/2 10/10/2
f 10/10/2 15/15/2 16/16/2
f 10/10/2 16/16/2 14/14/2
f 11/11/3 12/12/3 3/3/3
f 3/3/3 12/12/3 1/1/3
f 9/9/4 11/11/4 4/4/4
f 4/4/4 11/11/4 3/3/4
f 12/12/5 13/13/5 1/1/5
f 1/1/5 13/13/5 5/5/5
f 13/13/6 14/14/6 5/5/6
f 5/5/6 14/14/6 6/6/6
f 15/15/7 9/9/7 7/7/7
f 7/7/7 9/9/7 4/4/7
f 16/16/8 15/15/8 8/8/8
f 8/8/8 15/15/8 7/7/8
f 14/14/9 16/16/9 6/6/9
f 6/6/9 16/16/9 8/8/9
