# Blender v2.78 (sub 0) OBJ File: ''
# www.blender.org
mtllib SM_Env_Rock_014.mtl
o SM_Env_Rock_014
v -2.578857 -11.909762 -28.543871
v -3.551758 5.575004 -22.415052
v 10.632569 3.978370 -13.938396
v 13.043457 -13.669105 -14.762560
v 21.354004 2.266725 4.273119
v -17.929932 -13.340362 -16.455400
v -17.422607 6.793132 -15.684246
v -22.478027 -14.578620 3.200726
v -22.894775 4.582827 4.228076
v -15.136475 -14.183663 22.492231
v -3.586426 3.765528 25.150805
v -6.858398 -14.465701 28.543867
v 6.656494 -13.919057 25.725752
v 22.894775 -13.878989 6.694256
v 20.026123 1.862619 15.652026
v 19.772461 -12.593009 17.701460
v 4.232666 11.504977 10.287771
v 5.513916 15.287746 -6.382730
v -12.174561 19.120123 -7.771705
v 13.849121 11.495089 5.472219
v -14.457520 17.640537 2.899956
v -0.597656 12.587517 17.299002
v 13.468018 11.428493 12.067923
v -1.447510 -14.711102 -23.154863
v -2.090576 -19.120121 -0.727680
v 1.952637 -19.069708 9.600262
v -16.941406 -16.389673 13.415813
vt 0.9431 0.5022
vt 0.9431 0.5022
vt 0.9431 0.5022
vt 0.9431 0.5022
vt 0.9431 0.5022
vt 0.9431 0.5022
vt 0.9431 0.5022
vt 0.9431 0.5022
vt 0.9431 0.5022
vt 0.9431 0.5022
vt 0.9431 0.5022
vt 0.9431 0.5022
vt 0.9431 0.5022
vt 0.9431 0.5022
vt 0.9431 0.5022
vt 0.9431 0.5022
vt 0.9431 0.5022
vt 0.9431 0.5022
vt 0.9431 0.5022
vt 0.9431 0.5022
vt 0.9431 0.5022
vt 0.9431 0.5022
vt 0.9431 0.5022
vt 0.9431 0.5022
vt 0.9431 0.5022
vt 0.9431 0.5022
vt 0.9431 0.5022
vn 0.5133 0.3092 -0.8006
vn 0.6642 0.1252 -0.7370
vn 0.8589 0.1403 -0.4925
vn -0.6206 0.0456 -0.7828
vn -0.3984 0.2836 -0.8723
vn -0.9640 -0.0067 -0.2657
vn -0.9742 0.0331 -0.2233
vn -0.6832 0.3443 0.6440
vn -0.5662 0.2479 0.7861
vn 0.1963 0.1452 0.9697
vn 0.9625 0.0215 0.2705
vn 0.1886 0.9545 0.2311
vn 0.1153 0.9668 0.2282
vn 0.7476 0.5681 -0.3439
vn -0.8572 0.4818 -0.1821
vn 0.2403 0.9532 0.1836
vn -0.6378 0.4739 0.6071
vn 0.3487 0.5544 0.7557
vn 0.3346 0.5231 0.7838
vn 0.0333 0.9909 -0.1301
vn 0.7780 0.6181 0.1127
vn 0.8143 0.5781 0.0529
vn 0.1766 -0.9667 -0.1850
vn 0.2573 -0.9616 -0.0960
vn 0.3409 -0.8029 -0.4890
vn 0.2243 -0.9680 -0.1125
vn -0.2391 -0.8812 -0.4079
vn -0.1597 -0.9678 -0.1948
vn -0.1455 -0.9847 -0.0957
vn -0.2619 -0.9610 -0.0894
vn -0.7404 -0.6044 0.2941
vn -0.2314 -0.9338 0.2730
vn -0.1000 -0.9765 0.1908
vn 0.0965 -0.9560 0.2772
vn 0.2373 -0.9433 0.2321
vn 0.2605 -0.9477 0.1846
vn 0.5103 0.1119 0.8527
vn 0.9086 0.0242 -0.4169
vn 0.9865 0.1120 0.1191
vn 0.2148 0.7768 -0.5920
vn -0.3048 0.6030 -0.7372
vn -0.8401 0.5320 -0.1059
vn 0.0063 0.9999 0.0105
vn 0.7021 0.6171 -0.3553
vn 0.3787 0.2483 0.8916
vn -0.9336 -0.0394 0.3561
vn -0.3924 0.6821 0.6171
vn 0.2922 0.9548 0.0539
vn 0.4501 0.6279 -0.6349
vn -0.1292 -0.9901 0.0554
usemtl None
s 1
f 1/1/1 2/2/1 3/3/1
f 1/1/2 3/3/2 4/4/2
f 3/3/3 5/5/3 4/4/3
f 6/6/4 7/7/4 1/1/4
f 1/1/5 7/7/5 2/2/5
f 8/8/6 9/9/6 7/7/6
f 8/8/7 7/7/7 6/6/7
f 10/10/8 11/11/8 9/9/8
f 12/12/9 11/11/9 10/10/9
f 13/13/10 11/11/10 12/12/10
f 14/14/11 15/15/11 16/16/11
f 17/17/12 18/18/12 19/19/12
f 20/20/13 18/18/13 17/17/13
f 20/20/14 3/3/14 18/18/14
f 7/7/15 9/9/15 19/19/15
f 21/21/16 17/17/16 19/19/16
f 9/9/17 11/11/17 21/21/17
f 11/11/18 15/15/18 22/22/18
f 22/22/19 15/15/19 23/23/19
f 22/22/20 23/23/20 17/17/20
f 5/5/21 20/20/21 15/15/21
f 15/15/22 20/20/22 23/23/22
f 24/24/23 4/4/23 25/25/23
f 4/4/24 26/26/24 25/25/24
f 4/4/25 24/24/25 1/1/25
f 4/4/26 14/14/26 26/26/26
f 1/1/27 24/24/27 6/6/27
f 6/6/28 24/24/28 25/25/28
f 6/6/29 27/27/29 8/8/29
f 27/27/30 6/6/30 25/25/30
f 10/10/31 8/8/31 27/27/31
f 27/27/32 12/12/32 10/10/32
f 12/12/33 27/27/33 26/26/33
f 12/12/34 26/26/34 13/13/34
f 13/13/35 26/26/35 16/16/35
f 14/14/36 16/16/36 26/26/36
f 13/13/37 16/16/37 15/15/37
f 14/14/38 4/4/38 5/5/38
f 15/15/39 14/14/39 5/5/39
f 18/18/40 2/2/40 19/19/40
f 19/19/41 2/2/41 7/7/41
f 19/19/42 9/9/42 21/21/42
f 17/17/43 23/23/43 20/20/43
f 3/3/44 20/20/44 5/5/44
f 11/11/45 13/13/45 15/15/45
f 8/8/46 10/10/46 9/9/46
f 11/11/47 22/22/47 21/21/47
f 21/21/48 22/22/48 17/17/48
f 18/18/49 3/3/49 2/2/49
f 27/27/50 25/25/50 26/26/50
