# Blender v2.78 (sub 0) OBJ File: ''
# www.blender.org
mtllib SM_Item_Gourd_01.mtl
o SM_Item_Gourd_01
v 3.573423 -5.161572 -3.573456
v -0.000001 -5.161571 -5.053607
v 2.890505 -1.989632 -2.890538
v 0.000000 -1.989632 -4.087816
v -3.573424 -5.161572 -3.573456
v -2.890506 -1.989632 -2.890538
v -5.053575 -5.161573 -0.000001
v -4.087816 -1.989634 -0.000000
v -3.573424 -5.161573 3.573423
v -2.890506 -1.989635 2.890537
v -0.000001 -5.161575 5.053605
v 0.000000 -1.989635 4.087785
v 3.573424 -5.161573 3.573423
v 2.890505 -1.989635 2.890537
v 5.053575 -5.161573 -0.000001
v 4.087816 -1.989634 -0.000000
v 0.000000 -10.501970 -2.930703
v 2.072325 -10.501972 -2.072328
v 0.000000 -10.501972 -0.000003
v -2.072326 -10.501972 -2.072328
v -2.930670 -10.501972 -0.000003
v -2.072326 -10.501972 2.072291
v 0.000000 -10.501974 2.930697
v 2.072325 -10.501972 2.072292
v 2.930669 -10.501972 -0.000003
v 0.601441 10.501973 0.000004
v 0.425248 10.501973 -0.425243
v 0.425248 10.501973 0.425282
v 0.000000 10.501973 -0.601406
v -0.425247 10.501973 -0.425243
v -0.601380 10.501973 0.000004
v -0.425247 10.501973 0.425282
v 0.000000 10.501973 0.601415
v 0.000000 -8.343024 -4.782406
v -3.381677 -8.343024 -3.381679
v -4.782405 -8.343026 -0.000002
v -3.381677 -8.343028 3.381643
v 0.000000 -8.343028 4.782372
v 3.381676 -8.343028 3.381644
v 4.782405 -8.343026 -0.000002
v 3.381676 -8.343024 -3.381679
v 1.293055 -0.436867 1.293086
v 1.828675 -0.436867 0.000001
v 0.000000 -0.436867 1.828615
v -1.293055 -0.436867 1.293086
v -1.828675 -0.436867 0.000001
v -1.293055 -0.436867 -1.293055
v 0.000000 -0.436866 -1.828643
v 1.293054 -0.436867 -1.293055
v 2.085824 1.107891 2.085856
v 2.949847 1.107891 0.000001
v 0.000000 1.107890 2.949847
v -2.085824 1.107891 2.085856
v -2.949848 1.107891 0.000001
v -2.085824 1.107891 -2.085884
v 0.000000 1.107893 -2.949816
v 2.085824 1.107891 -2.085884
v 2.338194 3.493481 2.338166
v 3.306692 3.493483 0.000002
v 1.795022 5.289597 1.795025
v 2.538573 5.289598 0.000003
v 0.000000 3.493481 3.306724
v 0.000000 5.289597 2.538605
v -2.338195 3.493481 2.338165
v -1.795023 5.289597 1.795025
v -3.306693 3.493483 0.000002
v -2.538574 5.289598 0.000003
v -2.338195 3.493484 -2.338162
v -1.795023 5.289600 -1.795051
v 0.000000 3.493484 -3.306691
v 0.000000 5.289600 -2.538571
v 2.338194 3.493484 -2.338162
v 1.795022 5.289600 -1.795051
v 0.940452 6.063872 0.940455
v 1.330007 6.063872 0.000003
v 0.000000 6.063872 1.330009
v -0.940452 6.063872 0.940455
v -1.330006 6.063872 0.000003
v -0.940452 6.063872 -0.940419
v 0.000000 6.063872 -1.329973
v 0.940452 6.063872 -0.940419
v 1.330007 7.491221 0.000003
v 0.940452 7.491221 -0.940419
v 0.000000 7.491221 -1.329973
v -0.940452 7.491221 -0.940419
v -1.330006 7.491221 0.000003
v -0.940452 7.491221 0.940455
v 0.000000 7.491221 1.330009
v 0.940452 7.491221 0.940455
v 1.043407 7.491221 0.000003
v 0.737804 7.491221 -0.737831
v 0.000000 7.491221 -1.043434
v -0.737803 7.491221 -0.737831
v -1.043468 7.491221 0.000003
v -0.737803 7.491221 0.737837
v 0.000000 7.491221 1.043410
v 0.737804 7.491221 0.737837
v 1.043407 9.109088 0.000004
v 0.737804 9.109088 -0.737830
v 0.000000 9.109088 -1.043434
v -0.737803 9.109088 -0.737830
v -1.043468 9.109088 0.000004
v -0.737803 9.109088 0.737838
v 0.000000 9.109088 1.043410
v 0.737804 9.109088 0.737838
v 0.773660 9.109088 0.000004
v 0.547059 9.109088 -0.547055
v 0.000000 9.109088 -0.773655
v -0.547059 9.109088 -0.547055
v -0.773659 9.109088 0.000004
v -0.547059 9.109088 0.547032
v 0.000000 9.109088 0.773694
v 0.547059 9.109088 0.547032
vt 0.0902 0.3779
vt 0.0902 0.3779
vt 0.0902 0.3779
vt 0.0902 0.3779
vt 0.0902 0.3779
vt 0.0902 0.3779
vt 0.0902 0.3779
vt 0.0902 0.3779
vt 0.0902 0.3779
vt 0.0902 0.3779
vt 0.0902 0.3779
vt 0.0902 0.3779
vt 0.0902 0.3779
vt 0.0902 0.3779
vt 0.0902 0.3779
vt 0.0902 0.3779
vt 0.0902 0.3779
vt 0.0902 0.3779
vt 0.0902 0.3779
vt 0.0902 0.3779
vt 0.0902 0.3779
vt 0.0902 0.3779
vt 0.0902 0.3779
vt 0.0902 0.3779
vt 0.0902 0.3779
vt 0.0181 0.3260
vt 0.0181 0.3260
vt 0.0181 0.3260
vt 0.0181 0.3260
vt 0.0181 0.3260
vt 0.0181 0.3260
vt 0.0181 0.3260
vt 0.0181 0.3260
vt 0.0902 0.3779
vt 0.0902 0.3779
vt 0.0902 0.3779
vt 0.0902 0.3779
vt 0.0902 0.3779
vt 0.0902 0.3779
vt 0.0902 0.3779
vt 0.0902 0.3779
vt 0.0902 0.3779
vt 0.0902 0.3779
vt 0.0902 0.3779
vt 0.0902 0.3779
vt 0.0902 0.3779
vt 0.0902 0.3779
vt 0.0902 0.3779
vt 0.0902 0.3779
vt 0.0902 0.3779
vt 0.0902 0.3779
vt 0.0902 0.3779
vt 0.0902 0.3779
vt 0.0902 0.3779
vt 0.0902 0.3779
vt 0.0902 0.3779
vt 0.0902 0.3779
vt 0.0902 0.3779
vt 0.0902 0.3779
vt 0.0902 0.3779
vt 0.0902 0.3779
vt 0.0902 0.3779
vt 0.0902 0.3779
vt 0.0902 0.3779
vt 0.0902 0.3779
vt 0.0902 0.3779
vt 0.0902 0.3779
vt 0.0902 0.3779
vt 0.0902 0.3779
vt 0.0902 0.3779
vt 0.0902 0.3779
vt 0.0902 0.3779
vt 0.0902 0.3779
vt 0.0902 0.3779
vt 0.0902 0.3779
vt 0.0902 0.3779
vt 0.0902 0.3779
vt 0.0902 0.3779
vt 0.0902 0.3779
vt 0.0902 0.3779
vt 0.0902 0.3779
vt 0.0902 0.3779
vt 0.0902 0.3779
vt 0.0902 0.3779
vt 0.0902 0.3779
vt 0.0902 0.3779
vt 0.0902 0.3779
vt 0.0902 0.3779
vt 0.0902 0.3779
vt 0.0902 0.3779
vt 0.0902 0.3779
vt 0.0902 0.3779
vt 0.0902 0.3779
vt 0.0902 0.3779
vt 0.0902 0.3779
vt 0.0902 0.3779
vt 0.0902 0.3779
vt 0.5610 0.4252
vt 0.5610 0.4252
vt 0.5610 0.4252
vt 0.5610 0.4252
vt 0.5610 0.4252
vt 0.5610 0.4252
vt 0.5610 0.4252
vt 0.5610 0.4252
vt 0.5610 0.4252
vt 0.5610 0.4252
vt 0.5610 0.4252
vt 0.5610 0.4252
vt 0.5610 0.4252
vt 0.5610 0.4252
vt 0.5610 0.4252
vt 0.5610 0.4252
vt 0.5610 0.4252
vt 0.5610 0.4252
vt 0.5610 0.4252
vt 0.5610 0.4252
vt 0.5610 0.4252
vt 0.5610 0.4252
vt 0.5610 0.4252
vt 0.5610 0.4252
vt 0.0181 0.3260
vt 0.0181 0.3260
vt 0.0181 0.3260
vt 0.0181 0.3260
vt 0.0181 0.3260
vt 0.0181 0.3260
vt 0.0181 0.3260
vt 0.0181 0.3260
vn 0.3684 0.2708 -0.8894
vn -0.3684 0.2708 -0.8894
vn -0.8894 0.2708 -0.3684
vn -0.8894 0.2708 0.3684
vn -0.3684 0.2708 0.8894
vn 0.3684 0.2708 0.8894
vn 0.8894 0.2708 0.3684
vn 0.8894 0.2708 -0.3684
vn -0.0000 -1.0000 -0.0000
vn 0.0000 1.0000 0.0000
vn -0.2999 -0.6211 -0.7241
vn -0.7241 -0.6211 -0.2999
vn -0.7241 -0.6211 0.2999
vn -0.2999 -0.6211 0.7241
vn 0.2999 -0.6210 0.7241
vn 0.2999 -0.6211 0.7241
vn 0.7241 -0.6211 0.2999
vn 0.7241 -0.6211 -0.2999
vn 0.2999 -0.6211 -0.7241
vn 0.5515 0.8023 0.2284
vn 0.2284 0.8023 0.5515
vn -0.2284 0.8023 0.5515
vn -0.5515 0.8023 0.2284
vn -0.5515 0.8023 -0.2284
vn -0.2284 0.8023 -0.5515
vn 0.2284 0.8023 -0.5515
vn 0.5515 0.8023 -0.2284
vn 0.5514 0.8023 -0.2284
vn 0.7673 -0.5569 0.3178
vn 0.7673 -0.5569 0.3179
vn 0.3178 -0.5570 0.7673
vn 0.3178 -0.5569 0.7673
vn -0.3178 -0.5569 0.7674
vn -0.3178 -0.5569 0.7673
vn -0.7673 -0.5569 0.3178
vn -0.7673 -0.5569 0.3179
vn -0.7673 -0.5569 -0.3179
vn -0.7673 -0.5569 -0.3178
vn -0.3178 -0.5569 -0.7673
vn 0.3178 -0.5569 -0.7673
vn 0.7673 -0.5569 -0.3179
vn 0.7673 -0.5569 -0.3178
vn 0.8592 0.3675 0.3559
vn 0.3559 0.3675 0.8592
vn -0.3559 0.3675 0.8592
vn -0.8592 0.3675 0.3559
vn -0.8592 0.3675 -0.3559
vn -0.3559 0.3675 -0.8592
vn 0.3559 0.3675 -0.8592
vn 0.8592 0.3675 -0.3559
vn 0.5265 0.8218 0.2181
vn 0.2181 0.8218 0.5265
vn -0.2181 0.8218 0.5265
vn -0.5265 0.8218 0.2181
vn -0.5265 0.8218 -0.2181
vn -0.2181 0.8218 -0.5265
vn -0.2181 0.8218 -0.5264
vn 0.2181 0.8218 -0.5264
vn 0.2181 0.8218 -0.5265
vn 0.5265 0.8218 -0.2181
vn -0.3815 -0.0785 -0.9210
vn -0.9210 -0.0785 -0.3815
vn -0.9210 -0.0785 0.3815
vn -0.3815 -0.0785 0.9210
vn 0.3815 -0.0785 0.9210
vn 0.9210 -0.0785 0.3815
vn 0.9210 -0.0785 -0.3815
vn 0.3815 -0.0785 -0.9210
vn 0.9239 0.0000 -0.3827
vn 0.3827 0.0000 -0.9239
vn -0.3827 0.0000 -0.9239
vn -0.9239 0.0000 -0.3827
vn -0.9239 -0.0000 0.3827
vn -0.3827 -0.0000 0.9239
vn 0.3827 -0.0000 0.9239
vn 0.9239 -0.0000 0.3827
vn -0.9152 -0.1369 -0.3791
vn -0.9152 -0.1369 0.3791
vn -0.3791 -0.1369 0.9152
vn 0.3791 -0.1369 0.9152
vn 0.9152 -0.1369 0.3791
vn 0.9152 -0.1369 -0.3791
vn 0.3791 -0.1369 -0.9152
vn -0.3791 -0.1369 -0.9152
vn -0.3826 -0.0000 0.9239
vn 0.3826 -0.0000 0.9239
vn 0.9179 0.1135 -0.3802
vn 0.9179 0.1135 -0.3803
vn 0.3802 0.1135 -0.9179
vn -0.3802 0.1135 -0.9179
vn -0.9179 0.1135 -0.3802
vn -0.9179 0.1135 0.3802
vn -0.3803 0.1135 0.9179
vn -0.3802 0.1135 0.9179
vn 0.3803 0.1135 0.9179
vn 0.3802 0.1135 0.9179
vn 0.9179 0.1135 0.3802
vn 0.9179 0.1135 0.3803
usemtl None
s 1
f 1/1/1 2/2/1 3/3/1
f 3/3/1 2/2/1 4/4/1
f 2/2/2 5/5/2 4/4/2
f 4/4/2 5/5/2 6/6/2
f 5/5/3 7/7/3 6/6/3
f 6/6/3 7/7/3 8/8/3
f 7/7/4 9/9/4 8/8/4
f 8/8/4 9/9/4 10/10/4
f 9/9/5 11/11/5 10/10/5
f 10/10/5 11/11/5 12/12/5
f 11/11/6 13/13/6 12/12/6
f 12/12/6 13/13/6 14/14/6
f 13/13/7 15/15/7 14/14/7
f 14/14/7 15/15/7 16/16/7
f 15/15/8 1/1/8 16/16/8
f 16/16/8 1/1/8 3/3/8
f 17/17/9 18/18/9 19/19/9
f 20/20/9 17/17/9 19/19/9
f 21/21/9 20/20/9 19/19/9
f 22/22/9 21/21/9 19/19/9
f 23/23/9 22/22/9 19/19/9
f 24/24/9 23/23/9 19/19/9
f 25/25/9 24/24/9 19/19/9
f 18/18/9 25/25/9 19/19/9
f 26/26/10 27/27/10 28/28/10
f 27/27/10 29/29/10 28/28/10
f 29/29/10 30/30/10 28/28/10
f 30/30/10 31/31/10 28/28/10
f 31/31/10 32/32/10 28/28/10
f 32/32/10 33/33/10 28/28/10
f 17/17/11 20/20/11 34/34/11
f 34/34/11 20/20/11 35/35/11
f 20/20/12 21/21/12 35/35/12
f 35/35/12 21/21/12 36/36/12
f 21/21/13 22/22/13 36/36/13
f 36/36/13 22/22/13 37/37/13
f 22/22/14 23/23/14 37/37/14
f 37/37/14 23/23/14 38/38/14
f 23/23/15 24/24/16 38/38/16
f 38/38/16 24/24/16 39/39/16
f 24/24/17 25/25/17 39/39/17
f 39/39/17 25/25/17 40/40/17
f 25/25/18 18/18/18 40/40/18
f 40/40/18 18/18/18 41/41/18
f 18/18/19 17/17/19 41/41/19
f 41/41/19 17/17/19 34/34/19
f 14/14/20 16/16/20 42/42/20
f 42/42/20 16/16/20 43/43/20
f 12/12/21 14/14/21 44/44/21
f 44/44/21 14/14/21 42/42/21
f 10/10/22 12/12/22 45/45/22
f 45/45/22 12/12/22 44/44/22
f 8/8/23 10/10/23 46/46/23
f 46/46/23 10/10/23 45/45/23
f 6/6/24 8/8/24 47/47/24
f 47/47/24 8/8/24 46/46/24
f 4/4/25 6/6/25 48/48/25
f 48/48/25 6/6/25 47/47/25
f 3/3/26 4/4/26 49/49/26
f 49/49/26 4/4/26 48/48/26
f 16/16/27 3/3/27 43/43/27
f 43/43/27 3/3/27 49/49/28
f 42/42/29 43/43/30 50/50/30
f 50/50/30 43/43/30 51/51/30
f 44/44/31 42/42/32 52/52/32
f 52/52/32 42/42/32 50/50/32
f 45/45/33 44/44/34 53/53/34
f 53/53/34 44/44/34 52/52/34
f 46/46/35 45/45/36 54/54/36
f 54/54/36 45/45/36 53/53/36
f 47/47/37 46/46/37 55/55/37
f 55/55/37 46/46/37 54/54/38
f 48/48/39 47/47/39 56/56/39
f 56/56/39 47/47/39 55/55/39
f 49/49/40 48/48/40 57/57/40
f 57/57/40 48/48/40 56/56/40
f 43/43/41 49/49/41 51/51/41
f 51/51/41 49/49/41 57/57/42
f 58/58/43 59/59/43 60/60/43
f 60/60/43 59/59/43 61/61/43
f 62/62/44 58/58/44 63/63/44
f 63/63/44 58/58/44 60/60/44
f 64/64/45 62/62/45 65/65/45
f 65/65/45 62/62/45 63/63/45
f 66/66/46 64/64/46 67/67/46
f 67/67/46 64/64/46 65/65/46
f 68/68/47 66/66/47 69/69/47
f 69/69/47 66/66/47 67/67/47
f 70/70/48 68/68/48 71/71/48
f 71/71/48 68/68/48 69/69/48
f 72/72/49 70/70/49 73/73/49
f 73/73/49 70/70/49 71/71/49
f 59/59/50 72/72/50 61/61/50
f 61/61/50 72/72/50 73/73/50
f 60/60/51 61/61/51 74/74/51
f 74/74/51 61/61/51 75/75/51
f 63/63/52 60/60/52 76/76/52
f 76/76/52 60/60/52 74/74/52
f 65/65/53 63/63/53 77/77/53
f 77/77/53 63/63/53 76/76/53
f 67/67/54 65/65/54 78/78/54
f 78/78/54 65/65/54 77/77/54
f 69/69/55 67/67/55 79/79/55
f 79/79/55 67/67/55 78/78/55
f 71/71/56 69/69/56 80/80/56
f 80/80/56 69/69/56 79/79/57
f 73/73/58 71/71/59 81/81/59
f 81/81/59 71/71/59 80/80/59
f 61/61/60 73/73/60 75/75/60
f 75/75/60 73/73/60 81/81/60
f 34/34/61 35/35/61 2/2/61
f 2/2/61 35/35/61 5/5/61
f 35/35/62 36/36/62 5/5/62
f 5/5/62 36/36/62 7/7/62
f 36/36/63 37/37/63 7/7/63
f 7/7/63 37/37/63 9/9/63
f 37/37/64 38/38/64 9/9/64
f 9/9/64 38/38/64 11/11/64
f 38/38/65 39/39/65 11/11/65
f 11/11/65 39/39/65 13/13/65
f 39/39/66 40/40/66 13/13/66
f 13/13/66 40/40/66 15/15/66
f 40/40/67 41/41/67 15/15/67
f 15/15/67 41/41/67 1/1/67
f 41/41/68 34/34/68 1/1/68
f 1/1/68 34/34/68 2/2/68
f 75/75/69 81/81/69 82/82/69
f 82/82/69 81/81/69 83/83/69
f 81/81/70 80/80/70 83/83/70
f 83/83/70 80/80/70 84/84/70
f 80/80/71 79/79/71 84/84/71
f 84/84/71 79/79/71 85/85/71
f 79/79/72 78/78/72 85/85/72
f 85/85/72 78/78/72 86/86/72
f 78/78/73 77/77/73 86/86/73
f 86/86/73 77/77/73 87/87/73
f 77/77/74 76/76/74 87/87/74
f 87/87/74 76/76/74 88/88/74
f 76/76/75 74/74/75 88/88/75
f 88/88/75 74/74/75 89/89/75
f 74/74/76 75/75/76 89/89/76
f 89/89/76 75/75/76 82/82/76
f 55/55/77 54/54/77 68/68/77
f 68/68/77 54/54/77 66/66/77
f 54/54/78 53/53/78 66/66/78
f 66/66/78 53/53/78 64/64/78
f 53/53/79 52/52/79 64/64/79
f 64/64/79 52/52/79 62/62/79
f 52/52/80 50/50/80 62/62/80
f 62/62/80 50/50/80 58/58/80
f 50/50/81 51/51/81 58/58/81
f 58/58/81 51/51/81 59/59/81
f 51/51/82 57/57/82 59/59/82
f 59/59/82 57/57/82 72/72/82
f 57/57/83 56/56/83 72/72/83
f 72/72/83 56/56/83 70/70/83
f 56/56/84 55/55/84 70/70/84
f 70/70/84 55/55/84 68/68/84
f 82/82/10 83/83/10 90/90/10
f 90/90/10 83/83/10 91/91/10
f 83/83/10 84/84/10 91/91/10
f 91/91/10 84/84/10 92/92/10
f 84/84/10 85/85/10 92/92/10
f 92/92/10 85/85/10 93/93/10
f 85/85/10 86/86/10 93/93/10
f 93/93/10 86/86/10 94/94/10
f 86/86/10 87/87/10 94/94/10
f 94/94/10 87/87/10 95/95/10
f 87/87/10 88/88/10 95/95/10
f 95/95/10 88/88/10 96/96/10
f 88/88/10 89/89/10 96/96/10
f 96/96/10 89/89/10 97/97/10
f 89/89/10 82/82/10 97/97/10
f 97/97/10 82/82/10 90/90/10
f 90/98/69 91/99/69 98/100/69
f 98/100/69 91/99/69 99/101/69
f 91/99/70 92/102/70 99/101/70
f 99/101/70 92/102/70 100/103/70
f 92/102/71 93/104/71 100/103/71
f 100/103/71 93/104/71 101/105/71
f 93/104/72 94/106/72 101/105/72
f 101/105/72 94/106/72 102/107/72
f 94/106/73 95/108/73 102/107/73
f 102/107/73 95/108/73 103/109/73
f 95/108/85 96/110/85 103/109/85
f 103/109/85 96/110/85 104/111/85
f 96/110/86 97/112/86 104/111/86
f 104/111/86 97/112/86 105/113/86
f 97/112/76 90/98/76 105/113/76
f 105/113/76 90/98/76 98/100/76
f 98/100/10 99/101/10 106/114/10
f 106/114/10 99/101/10 107/115/10
f 99/101/10 100/103/10 107/115/10
f 107/115/10 100/103/10 108/116/10
f 100/103/10 101/105/10 108/116/10
f 108/116/10 101/105/10 109/117/10
f 101/105/10 102/107/10 109/117/10
f 109/117/10 102/107/10 110/118/10
f 102/107/10 103/109/10 110/118/10
f 110/118/10 103/109/10 111/119/10
f 103/109/10 104/111/10 111/119/10
f 111/119/10 104/111/10 112/120/10
f 104/111/10 105/113/10 112/120/10
f 112/120/10 105/113/10 113/121/10
f 105/113/10 98/100/10 113/121/10
f 113/121/10 98/100/10 106/114/10
f 106/122/87 107/123/87 26/26/88
f 26/26/88 107/123/87 27/27/88
f 107/123/89 108/124/89 27/27/89
f 27/27/89 108/124/89 29/29/89
f 108/124/90 109/125/90 29/29/90
f 29/29/90 109/125/90 30/30/90
f 109/125/91 110/126/91 30/30/91
f 30/30/91 110/126/91 31/31/91
f 110/126/92 111/127/92 31/31/92
f 31/31/92 111/127/92 32/32/92
f 111/127/93 112/128/93 32/32/94
f 32/32/94 112/128/93 33/33/94
f 112/128/95 113/129/95 33/33/96
f 33/33/96 113/129/95 28/28/96
f 113/129/97 106/122/97 28/28/98
f 28/28/98 106/122/97 26/26/98
