# Blender v2.78 (sub 0) OBJ File: ''
# www.blender.org
mtllib SM_Prop_Basket_01.mtl
o SM_Prop_Basket_01
v 0.000000 8.258435 16.253119
v 13.117367 8.258434 12.641380
v 0.000000 11.108171 16.816097
v 13.571705 11.108173 13.079295
v 0.000000 -10.549725 -14.616219
v 0.000000 -10.549728 0.000013
v 12.069681 -10.549725 -11.368303
v 14.460060 -10.549728 0.000013
v 0.000000 8.258445 -16.253111
v 0.000000 11.108184 -16.816059
v 13.117369 8.258446 -12.641376
v 13.571705 11.108181 -13.079226
v 13.795858 -13.655723 0.000011
v 0.000000 -13.798363 0.000011
v 11.515232 -13.655719 -11.097402
v 0.000000 -13.655719 -14.267985
v 15.715246 8.258442 0.000019
v 16.259573 11.108177 0.000019
v -15.715246 8.258438 0.000019
v -16.259634 11.108177 0.000019
v -13.117369 8.258446 -12.641376
v -13.571705 11.108181 -13.079226
v -14.460121 -10.549728 0.000013
v -12.069681 -10.549725 -11.368303
v -13.117367 8.258434 12.641380
v -13.571705 11.108173 13.079295
v -11.515293 -13.655719 -11.097402
v -13.795858 -13.655723 0.000011
v 0.000000 -10.549732 14.616272
v -12.069681 -10.549732 11.368296
v 12.069681 -10.549732 11.368296
v 0.000000 -13.655726 14.268008
v 11.515232 -13.655726 11.097425
v -11.515293 -13.655726 11.097425
v -13.762318 3.737122 -13.262951
v -7.635168 5.620995 -14.616997
v 0.000000 4.345317 -16.944698
v -14.481670 -1.305760 -13.956196
v -17.349792 -1.305764 0.000015
v -14.481670 -1.305768 13.956226
v -13.887119 2.862320 13.383189
v -15.350424 3.290973 5.906405
v -13.663589 4.429081 13.167861
v 0.000000 -1.305770 17.943546
v -6.322415 3.331144 15.383215
v 5.222138 0.689912 16.152966
v 13.679237 4.319280 13.182945
v 14.481670 -1.305768 13.956226
v 14.823704 5.612510 6.538734
v 16.148596 5.722523 0.000017
v 17.349792 -1.305764 0.000015
v 14.481670 -1.305760 -13.956196
v 16.446899 3.977283 0.000017
v 14.830212 4.694030 -8.544467
v 7.460053 -1.305759 -15.889486
v 0.000000 -1.305758 -17.943546
v -14.193287 -4.076017 -13.678260
v -10.712448 -4.662338 -14.561037
v 0.000000 -6.330901 -17.295311
v -8.800655 -8.100734 -14.643885
v -16.979265 -4.276548 0.000015
v -14.970415 -5.391733 9.098400
v -13.774302 -8.100744 13.274498
v 0.000000 -6.242197 17.306765
v 7.928785 -2.738709 15.575634
v 13.774240 -8.100744 13.274498
v 16.502254 -8.100740 0.000013
v 14.305046 -3.002131 -13.786022
v -13.774302 -8.100736 -13.274441
v -12.672543 -10.810006 -12.212670
v -6.494894 -11.691385 -13.469527
v 0.000000 -8.100734 -17.067051
v -12.171148 -12.042924 -11.729498
v -13.858845 -11.250152 -5.396472
v -15.318645 -10.530195 0.000013
v 0.000000 -8.100745 17.067043
v 13.774240 -8.100736 -13.274441
v 6.915913 -8.100734 -15.162819
v 12.500612 13.798365 -12.047035
v 14.976429 13.798361 0.000020
v 0.000000 13.798366 -15.488958
v -12.500673 13.798365 -12.047035
v -14.976429 13.798361 0.000020
v -12.500673 13.798357 12.047103
v 0.000000 13.798356 15.488966
v 12.500612 13.798357 12.047103
v 10.450064 13.798365 -9.842783
v 12.519743 13.798361 0.000020
v 0.000000 13.798365 -12.654938
v -10.450064 13.798365 -9.842783
v -12.519743 13.798361 0.000020
v -10.450064 13.798357 9.842821
v 0.000000 13.798357 12.654945
v 10.450064 13.798357 9.842821
v 12.695055 11.174238 0.000019
v 10.596462 11.174242 -9.980693
v 0.000000 11.174242 -12.832153
v -10.596523 11.174242 -9.980693
v -12.695116 11.174238 0.000019
v 0.000000 11.174234 12.832222
v -10.596523 11.174234 9.980762
v 10.596462 11.174234 9.980762
v 14.622791 2.476780 0.000017
v 12.205420 2.476784 -11.496180
v 0.000000 2.476784 -14.780701
v -12.205481 2.476784 -11.496180
v -14.622791 2.476780 0.000017
v 0.000000 2.476776 14.780762
v -12.205481 2.476776 11.496180
v 12.205420 2.476776 11.496180
v -4.841086 3.301505 -15.796286
v -16.502316 -8.100740 0.000013
v -14.024033 -5.701667 -13.515171
v -16.796165 -5.744316 0.000013
vt 0.0842 0.3300
vt 0.0842 0.3300
vt 0.0842 0.3300
vt 0.0842 0.3300
vt 0.0842 0.3300
vt 0.0842 0.3300
vt 0.0842 0.3300
vt 0.0842 0.3300
vt 0.0842 0.3300
vt 0.0842 0.3300
vt 0.0842 0.3300
vt 0.0842 0.3300
vt 0.0842 0.3300
vt 0.0842 0.3300
vt 0.0842 0.3300
vt 0.0842 0.3300
vt 0.0842 0.3300
vt 0.0842 0.3300
vt 0.0842 0.3300
vt 0.0842 0.3300
vt 0.0842 0.3300
vt 0.0842 0.3300
vt 0.0842 0.3300
vt 0.0842 0.3300
vt 0.0842 0.3300
vt 0.0842 0.3300
vt 0.0842 0.3300
vt 0.0842 0.3300
vt 0.0842 0.3300
vt 0.0842 0.3300
vt 0.0842 0.3300
vt 0.0842 0.3300
vt 0.0842 0.3300
vt 0.0842 0.3300
vt 0.0842 0.3300
vt 0.0842 0.3300
vt 0.0842 0.3300
vt 0.0842 0.3300
vt 0.0842 0.3300
vt 0.0842 0.3300
vt 0.0842 0.3300
vt 0.0842 0.3300
vt 0.0842 0.3300
vt 0.0842 0.3300
vt 0.0842 0.3300
vt 0.0842 0.3300
vt 0.0842 0.3300
vt 0.0842 0.3300
vt 0.0842 0.3300
vt 0.0842 0.3300
vt 0.0842 0.3300
vt 0.0842 0.3300
vt 0.0842 0.3300
vt 0.0842 0.3300
vt 0.0842 0.3300
vt 0.0842 0.3300
vt 0.0842 0.3300
vt 0.0842 0.3300
vt 0.0842 0.3300
vt 0.0842 0.3300
vt 0.0842 0.3300
vt 0.0842 0.3300
vt 0.0842 0.3300
vt 0.0842 0.3300
vt 0.0842 0.3300
vt 0.0842 0.3300
vt 0.0842 0.3300
vt 0.0278 0.3285
vt 0.0278 0.3285
vt 0.0278 0.3285
vt 0.0278 0.3285
vt 0.0842 0.3300
vt 0.0842 0.3300
vt 0.0842 0.3300
vt 0.0842 0.3300
vt 0.0842 0.3300
vt 0.0278 0.3285
vt 0.0278 0.3285
vt 0.0278 0.3285
vt 0.0278 0.3285
vt 0.0278 0.3285
vt 0.0278 0.3285
vt 0.0842 0.3300
vt 0.0842 0.3300
vt 0.0842 0.3300
vt 0.0842 0.3300
vt 0.0842 0.3300
vt 0.0842 0.3300
vt 0.0842 0.3300
vt 0.0842 0.3300
vt 0.0842 0.3300
vt 0.0842 0.3300
vt 0.0842 0.3300
vt 0.0842 0.3300
vt 0.0842 0.3300
vt 0.0842 0.3300
vt 0.0842 0.3300
vt 0.0842 0.3300
vt 0.0842 0.3300
vt 0.0842 0.3300
vt 0.0842 0.3300
vt 0.0842 0.3300
vt 0.0842 0.3300
vt 0.0842 0.3300
vt 0.0842 0.3300
vt 0.0842 0.3300
vt 0.0842 0.3300
vt 0.0842 0.3300
vt 0.0842 0.3300
vt 0.0842 0.3300
vt 0.0842 0.3300
vt 0.0842 0.3300
vt 0.0842 0.3300
vt 0.0842 0.3300
vt 0.0842 0.3300
vt 0.0842 0.3300
vt 0.0842 0.3300
vt 0.0278 0.3285
vt 0.0278 0.3285
vt 0.0278 0.3285
vt 0.0278 0.3285
vt 0.0278 0.3285
vt 0.0278 0.3285
vt 0.0278 0.3285
vt 0.0842 0.3300
vt 0.0278 0.3285
vt 0.0278 0.3285
vt 0.0278 0.3285
vt 0.0278 0.3285
vt 0.0842 0.3300
vt 0.0278 0.3285
vt 0.0278 0.3285
vt 0.0278 0.3285
vt 0.0278 0.3285
vt 0.0278 0.3285
vt 0.0278 0.3285
vt 0.0278 0.3285
vt 0.0278 0.3285
vt 0.0842 0.3300
vt 0.0842 0.3300
vt 0.0842 0.3300
vt 0.0278 0.3285
vt 0.0311 0.3266
vt 0.0311 0.3266
vt 0.0311 0.3266
vt 0.0311 0.3266
vt 0.0311 0.3266
vt 0.0320 0.3221
vt 0.0320 0.3221
vt 0.0320 0.3221
vt 0.0842 0.3300
vt 0.0842 0.3300
vt 0.0336 0.3270
vt 0.0336 0.3270
vt 0.0336 0.3270
vt 0.0336 0.3270
vt 0.0336 0.3270
vt 0.0336 0.3270
vn 0.2608 -0.1871 0.9471
vn 0.0000 1.0000 0.0000
vn 0.2608 -0.1871 -0.9471
vn 0.0103 -0.9999 -0.0000
vn 0.0103 -0.9999 -0.0021
vn 0.0028 -0.9999 -0.0100
vn 0.0000 -1.0000 -0.0100
vn 0.0000 -0.9999 -0.0100
vn 0.9628 -0.1839 -0.1979
vn -0.9628 -0.1839 -0.1979
vn -0.2608 -0.1871 0.9471
vn -0.0028 -0.9999 -0.0100
vn -0.0103 -0.9999 -0.0021
vn -0.0103 -0.9999 -0.0000
vn -0.2608 -0.1871 -0.9471
vn 0.9628 -0.1839 0.1979
vn 0.0000 -0.9999 0.0100
vn 0.0000 -1.0000 0.0100
vn 0.0028 -0.9999 0.0100
vn 0.0103 -0.9999 0.0021
vn -0.0103 -0.9999 0.0021
vn -0.0028 -0.9999 0.0100
vn -0.9628 -0.1839 0.1979
vn -0.2617 0.1680 -0.9504
vn -0.9661 0.1651 -0.1985
vn -0.9661 0.1651 0.1985
vn -0.2617 0.1680 0.9504
vn 0.2617 0.1680 0.9504
vn 0.9661 0.1651 0.1985
vn 0.9661 0.1651 -0.1985
vn 0.9789 0.1024 -0.1766
vn 0.9531 0.1704 -0.2502
vn 0.9526 0.2328 -0.1958
vn 0.9714 0.1660 -0.1699
vn 0.2617 0.1680 -0.9504
vn -0.2634 -0.1234 -0.9568
vn -0.9723 -0.1213 -0.1998
vn -0.9723 -0.1213 0.1998
vn -0.2634 -0.1234 0.9568
vn 0.2634 -0.1234 0.9568
vn 0.9723 -0.1213 0.1998
vn 0.9723 -0.1213 -0.1998
vn 0.2634 -0.1234 -0.9568
vn -0.2388 -0.4370 -0.8672
vn -0.8840 -0.4307 -0.1817
vn -0.8840 -0.4307 0.1817
vn -0.2388 -0.4370 0.8672
vn 0.2388 -0.4370 0.8672
vn 0.8840 -0.4307 0.1817
vn 0.8840 -0.4307 -0.1817
vn 0.2388 -0.4370 -0.8672
vn 0.8874 0.4233 -0.1824
vn 0.2397 0.4295 -0.8707
vn -0.2397 0.4295 -0.8707
vn -0.8874 0.4233 -0.1824
vn -0.2397 0.4295 0.8707
vn -0.8874 0.4233 0.1824
vn 0.2397 0.4295 0.8707
vn 0.8874 0.4233 0.1824
vn -0.9765 -0.0652 0.2053
vn -0.9765 -0.0653 0.2053
vn -0.2593 -0.0651 0.9636
vn 0.2593 -0.0651 0.9636
vn 0.9765 -0.0653 0.2053
vn 0.2593 -0.0651 -0.9636
vn 0.9765 -0.0653 -0.2053
vn -0.2593 -0.0651 -0.9636
vn -0.9765 -0.0652 -0.2053
vn -0.9765 -0.0653 -0.2053
vn -0.9564 -0.2120 0.2011
vn -0.2540 -0.2114 0.9438
vn 0.2540 -0.2114 0.9438
vn 0.9564 -0.2120 0.2011
vn 0.2540 -0.2114 -0.9438
vn 0.9564 -0.2120 -0.2011
vn -0.2540 -0.2114 -0.9438
vn -0.9564 -0.2120 -0.2011
vn -0.9785 0.0122 0.2058
vn -0.2598 0.0122 0.9656
vn 0.2598 0.0122 0.9656
vn 0.9785 0.0122 0.2058
vn 0.2598 0.0122 -0.9656
vn 0.9785 0.0122 -0.2058
vn -0.2598 0.0122 -0.9656
vn -0.9785 0.0122 -0.2058
vn 0.2634 -0.1234 -0.9567
vn -0.9723 -0.1212 -0.1998
usemtl None
s 1
f 1/1/1 2/2/1 3/3/1
f 3/3/1 2/2/1 4/4/1
f 5/5/2 6/6/2 7/7/2
f 7/7/2 6/6/2 8/8/2
f 9/9/3 10/10/3 11/11/3
f 11/11/3 10/10/3 12/12/3
f 13/13/4 14/14/4 15/15/5
f 15/15/6 14/14/7 16/16/8
f 17/17/9 11/11/9 18/18/9
f 18/18/9 11/11/9 12/12/9
f 19/19/10 20/20/10 21/21/10
f 21/21/10 20/20/10 22/22/10
f 23/23/2 6/6/2 24/24/2
f 24/24/2 6/6/2 5/5/2
f 1/1/11 3/3/11 25/25/11
f 25/25/11 3/3/11 26/26/11
f 16/16/8 14/14/7 27/27/12
f 27/27/13 14/14/14 28/28/14
f 22/22/15 10/10/15 21/21/15
f 21/21/15 10/10/15 9/9/15
f 29/29/2 6/6/2 30/30/2
f 30/30/2 6/6/2 23/23/2
f 8/8/2 6/6/2 31/31/2
f 31/31/2 6/6/2 29/29/2
f 17/17/16 18/18/16 2/2/16
f 2/2/16 18/18/16 4/4/16
f 32/32/17 14/14/18 33/33/19
f 33/33/20 14/14/4 13/13/4
f 28/28/14 14/14/14 34/34/21
f 34/34/22 14/14/18 32/32/17
f 19/19/23 25/25/23 20/20/23
f 20/20/23 25/25/23 26/26/23
f 35/35/24 21/21/24 36/36/24
f 21/21/24 9/9/24 36/36/24
f 9/9/24 37/37/24 36/36/24
f 38/38/25 39/39/25 35/35/25
f 39/39/25 19/19/25 35/35/25
f 19/19/25 21/21/25 35/35/25
f 40/40/26 41/41/26 39/39/26
f 41/41/26 42/42/26 39/39/26
f 39/39/26 42/42/26 19/19/26
f 19/19/26 42/42/26 25/25/26
f 25/25/26 42/42/26 43/43/26
f 40/40/27 44/44/27 41/41/27
f 41/41/27 44/44/27 45/45/27
f 44/44/27 1/1/27 45/45/27
f 1/1/27 25/25/27 45/45/27
f 25/25/27 43/43/27 45/45/27
f 44/44/28 46/46/28 1/1/28
f 1/1/28 46/46/28 2/2/28
f 2/2/28 46/46/28 47/47/28
f 46/46/28 48/48/28 47/47/28
f 47/47/29 49/49/29 2/2/29
f 2/2/29 49/49/29 17/17/29
f 49/49/29 50/50/29 17/17/29
f 51/51/30 52/52/30 53/53/30
f 53/53/31 52/52/31 54/54/31
f 52/52/32 11/11/32 54/54/32
f 11/11/33 17/17/33 54/54/33
f 17/17/34 50/50/34 54/54/34
f 52/52/35 55/55/35 11/11/35
f 11/11/35 55/55/35 9/9/35
f 9/9/35 55/55/35 37/37/35
f 55/55/35 56/56/35 37/37/35
f 38/38/36 56/56/36 57/57/36
f 57/57/36 56/56/36 58/58/36
f 56/56/36 59/59/36 58/58/36
f 59/59/36 60/60/36 58/58/36
f 61/61/37 39/39/37 57/57/37
f 57/57/37 39/39/37 38/38/37
f 40/40/38 39/39/38 62/62/38
f 62/62/38 39/39/38 61/61/38
f 63/63/39 64/64/39 40/40/39
f 40/40/39 64/64/39 44/44/39
f 48/48/40 65/65/40 66/66/40
f 66/66/40 65/65/40 64/64/40
f 65/65/40 44/44/40 64/64/40
f 67/67/41 51/51/41 66/66/41
f 66/66/41 51/51/41 48/48/41
f 52/68/42 51/69/42 68/70/42
f 68/70/43 55/71/43 52/68/43
f 69/72/44 60/60/44 70/73/44
f 70/73/44 60/60/44 71/74/44
f 60/60/44 72/75/44 71/74/44
f 72/75/44 16/16/44 71/74/44
f 16/16/44 27/27/44 71/74/44
f 27/27/44 73/76/44 71/74/44
f 70/77/45 73/78/45 74/79/45
f 73/78/45 28/80/45 74/79/45
f 28/80/45 75/81/45 74/79/45
f 34/82/46 75/81/46 28/80/46
f 32/32/47 76/83/47 34/34/47
f 34/34/47 76/83/47 63/63/47
f 66/66/48 76/83/48 33/33/48
f 33/33/48 76/83/48 32/32/48
f 13/13/49 67/67/49 33/33/49
f 33/33/49 67/67/49 66/66/49
f 77/84/50 67/67/50 15/15/50
f 15/15/50 67/67/50 13/13/50
f 77/84/51 15/15/51 78/85/51
f 15/15/51 16/16/51 78/85/51
f 16/16/51 72/75/51 78/85/51
f 12/12/52 79/86/52 18/18/52
f 18/18/52 79/86/52 80/87/52
f 12/12/53 10/10/53 79/86/53
f 79/86/53 10/10/53 81/88/53
f 22/22/54 82/89/54 10/10/54
f 10/10/54 82/89/54 81/88/54
f 22/22/55 20/20/55 82/89/55
f 82/89/55 20/20/55 83/90/55
f 26/26/56 3/3/56 84/91/56
f 84/91/56 3/3/56 85/92/56
f 26/26/57 84/91/57 20/20/57
f 20/20/57 84/91/57 83/90/57
f 4/4/58 86/93/58 3/3/58
f 3/3/58 86/93/58 85/92/58
f 4/4/59 18/18/59 86/93/59
f 86/93/59 18/18/59 80/87/59
f 79/86/2 87/94/2 80/87/2
f 80/87/2 87/94/2 88/95/2
f 79/86/2 81/88/2 87/94/2
f 87/94/2 81/88/2 89/96/2
f 82/89/2 90/97/2 81/88/2
f 81/88/2 90/97/2 89/96/2
f 82/89/2 83/90/2 90/97/2
f 90/97/2 83/90/2 91/98/2
f 84/91/2 85/92/2 92/99/2
f 92/99/2 85/92/2 93/100/2
f 84/91/2 92/99/2 83/90/2
f 83/90/2 92/99/2 91/98/2
f 86/93/2 94/101/2 85/92/2
f 85/92/2 94/101/2 93/100/2
f 86/93/2 80/87/2 94/101/2
f 94/101/2 80/87/2 88/95/2
f 88/95/60 87/94/61 95/102/60
f 95/102/60 87/94/61 96/103/61
f 89/96/62 97/104/62 87/94/62
f 87/94/62 97/104/62 96/103/62
f 89/96/63 90/97/63 97/104/63
f 97/104/63 90/97/63 98/105/63
f 91/98/64 99/106/64 90/97/64
f 90/97/64 99/106/64 98/105/64
f 93/100/65 100/107/65 92/99/65
f 92/99/65 100/107/65 101/108/65
f 91/98/66 92/99/66 99/106/66
f 99/106/66 92/99/66 101/108/66
f 93/100/67 94/101/67 100/107/67
f 100/107/67 94/101/67 102/109/67
f 88/95/68 95/102/68 94/101/69
f 94/101/69 95/102/68 102/109/69
f 95/102/70 96/103/70 103/110/70
f 103/110/70 96/103/70 104/111/70
f 97/104/71 105/112/71 96/103/71
f 96/103/71 105/112/71 104/111/71
f 97/104/72 98/105/72 105/112/72
f 105/112/72 98/105/72 106/113/72
f 99/106/73 107/114/73 98/105/73
f 98/105/73 107/114/73 106/113/73
f 100/107/74 108/115/74 101/108/74
f 101/108/74 108/115/74 109/116/74
f 99/106/75 101/108/75 107/114/75
f 107/114/75 101/108/75 109/116/75
f 100/107/76 102/109/76 108/115/76
f 108/115/76 102/109/76 110/117/76
f 95/102/77 103/110/77 102/109/77
f 102/109/77 103/110/77 110/117/77
f 104/111/78 7/7/78 103/110/78
f 103/110/78 7/7/78 8/8/78
f 104/111/79 105/112/79 7/7/79
f 7/7/79 105/112/79 5/5/79
f 106/113/80 24/24/80 105/112/80
f 105/112/80 24/24/80 5/5/80
f 106/113/81 107/114/81 24/24/81
f 24/24/81 107/114/81 23/23/81
f 109/116/82 108/115/82 30/30/82
f 30/30/82 108/115/82 29/29/82
f 109/116/83 30/30/83 107/114/83
f 107/114/83 30/30/83 23/23/83
f 110/117/84 31/31/84 108/115/84
f 108/115/84 31/31/84 29/29/84
f 110/117/85 103/110/85 31/31/85
f 31/31/85 103/110/85 8/8/85
f 48/118/28 46/119/28 44/120/28
f 63/121/39 76/122/39 64/123/39
f 66/124/40 64/123/40 76/122/40
f 51/51/42 67/67/42 68/125/42
f 68/125/42 67/67/42 77/84/42
f 56/56/43 55/55/43 59/59/43
f 59/59/43 55/55/43 78/85/43
f 55/55/43 68/125/43 78/85/43
f 77/84/86 78/85/43 68/125/43
f 59/126/43 78/127/43 72/128/43
f 60/129/36 59/126/36 72/128/36
f 37/37/24 56/56/24 111/130/24
f 56/56/24 38/38/24 111/130/24
f 35/35/24 111/130/24 38/38/24
f 35/131/24 36/132/24 111/133/24
f 111/133/24 36/132/24 37/134/24
f 43/135/26 42/136/26 41/137/26
f 41/137/27 45/138/27 43/135/27
f 69/72/45 70/73/45 112/139/45
f 70/73/45 74/140/45 112/139/45
f 74/140/45 75/141/45 112/139/45
f 70/77/44 71/142/44 73/78/44
f 27/27/45 28/28/45 73/76/45
f 63/63/46 112/139/46 34/34/46
f 34/34/46 112/139/46 75/141/46
f 48/48/29 51/51/29 47/47/29
f 47/47/29 51/51/29 53/53/29
f 53/143/34 54/144/34 50/145/34
f 47/146/29 53/143/29 49/147/29
f 49/147/29 53/143/29 50/145/29
f 48/148/40 44/149/40 65/150/40
f 113/151/36 58/58/36 69/72/36
f 69/72/36 58/58/36 60/60/36
f 112/139/87 114/152/37 69/72/37
f 69/72/37 114/152/37 113/151/37
f 114/153/38 62/154/38 61/155/38
f 114/153/37 61/155/37 113/156/37
f 113/156/37 61/155/37 57/157/37
f 57/157/36 58/158/36 113/156/36
f 40/40/38 62/62/38 63/63/38
f 63/63/38 62/62/38 112/139/38
f 62/62/38 114/152/38 112/139/38
