# Blender v2.78 (sub 0) OBJ File: ''
# www.blender.org
mtllib SM_Prop_Sack_01.mtl
o SM_Prop_Sack_01
v 0.000000 11.295684 14.699961
v 0.000000 -3.200925 17.640329
v 15.107330 10.963551 11.937770
v 17.135422 -4.196040 13.540351
v 1.164917 23.165304 3.253702
v 6.448562 22.527170 4.002412
v -1.796662 23.165304 -4.659574
v 7.862304 22.527176 -6.899844
v 17.135422 -4.196029 -13.540355
v 0.000000 -3.200912 -17.640329
v 15.107330 10.963562 -11.937762
v 0.000000 11.295697 -14.699953
v 0.000000 -23.165304 4.408808
v 0.000000 -23.165304 -4.408823
v 19.866028 -22.673691 4.408808
v 19.866028 -22.673691 -4.408823
v 22.865875 -4.196036 4.159684
v 22.865875 -4.196033 -4.159686
v 20.159561 10.963555 3.667362
v 20.159561 10.963557 -3.667356
v -22.865875 -4.196033 -4.159686
v -22.865875 -4.196036 4.159684
v -20.159561 10.963557 -3.667356
v -20.159561 10.963555 3.667362
v -24.347565 -19.984755 -3.179128
v -24.347565 -19.984755 3.179114
v -20.159561 -17.295820 -3.667365
v -20.159561 -17.295822 3.667353
v 0.000000 -15.500874 16.987341
v 0.000000 -21.541676 12.292715
v 15.107330 -17.295826 11.937760
v 19.478058 -19.984758 8.821157
v 24.347565 -19.984755 3.179114
v 24.347565 -19.984755 -3.179128
v 20.159561 -17.295822 3.667353
v 20.159561 -17.295820 -3.667365
v 0.000000 -15.500859 -16.987349
v 15.107330 -17.295816 -11.937772
v 0.000000 -21.541668 -12.292730
v 19.478058 -19.984751 -8.821168
v -24.832535 -22.673691 -1.140208
v -24.832535 -22.673691 1.140193
v 24.832535 -22.673691 1.140193
v 24.832535 -22.673691 -1.140208
v -7.709397 22.527170 -5.108983
v -4.682862 22.527170 4.382545
v -15.107330 10.963551 11.937770
v -17.135422 -4.196040 13.540351
v -19.478058 -19.984758 8.821157
v -15.107330 -17.295826 11.937760
v -19.866028 -22.673691 4.408808
v -19.866028 -22.673691 -4.408823
v -19.478058 -19.984751 -8.821168
v -15.107330 -17.295816 -11.937772
v -17.135422 -4.196029 -13.540355
v -15.107330 10.963562 -11.937762
v -10.327316 22.121218 1.878718
v -10.327316 22.121218 -1.878704
v 9.580872 22.121218 -0.913753
v 10.579300 22.121218 3.306116
v 19.636444 17.528418 3.572201
v 19.636444 17.528418 -3.572191
v 20.598557 19.536276 3.747226
v 20.598557 19.536276 -3.747214
v 15.436310 19.536274 12.197730
v 14.715318 17.528416 11.628004
v 0.000000 19.536274 14.489405
v 0.000000 17.528416 13.812636
v -15.436310 19.536274 12.197730
v -14.715317 17.528416 11.628004
v -19.636444 17.528418 3.572201
v -20.598557 19.536276 3.747226
v -19.636444 17.528418 -3.572191
v -20.598557 19.536276 -3.747214
v -15.436310 19.536278 -12.197719
v -14.715317 17.528419 -11.627993
v 0.000000 17.528419 -13.812627
v 0.000000 19.536278 -14.489393
v 14.715318 17.528419 -11.627993
v 15.436310 19.536278 -12.197719
v 18.230957 17.666166 3.316521
v 18.230957 17.666166 -3.316510
v 13.662064 17.666164 10.795727
v 0.000000 17.666164 12.823996
v -13.662064 17.666164 10.795727
v -18.230957 17.666166 3.316521
v -18.230957 17.666166 -3.316510
v -13.662064 17.666168 -10.795715
v 0.000000 17.666168 -12.823985
v 13.662064 17.666168 -10.795715
v 19.636444 21.377485 3.572203
v 19.636444 21.377485 -3.572189
v 14.715318 21.377483 11.628006
v 0.000000 21.377483 13.812640
v -14.715317 21.377483 11.628006
v -19.636444 21.377485 3.572203
v -19.636444 21.377485 -3.572189
v -14.715317 21.377487 -11.627991
v 0.000000 21.377487 -13.812625
v 14.715318 21.377487 -11.627991
v 12.554855 21.317638 9.920812
v 0.000000 21.317638 11.784704
v 12.554855 21.317642 -9.920796
v 0.000000 21.317642 -11.784689
v -12.554855 21.317638 9.920812
v -12.554855 21.317642 -9.920796
v -16.753464 21.317640 3.047742
v -16.753464 21.317640 -3.047728
v 16.753464 21.317640 3.047742
v 16.753464 21.317640 -3.047728
v 11.299164 19.694164 8.928573
v 0.000000 19.694164 10.606045
v 11.299164 19.694168 -8.928561
v 0.000000 19.694168 -10.606033
v -11.299164 19.694164 8.928573
v -11.299164 19.694168 -8.928561
v -15.077850 19.694166 2.742919
v -15.077850 19.694166 -2.742907
v 15.077850 19.694166 2.742919
v 15.077850 19.694166 -2.742907
vt 0.0910 0.3253
vt 0.0910 0.3253
vt 0.0910 0.3253
vt 0.0910 0.3253
vt 0.0848 0.4269
vt 0.0848 0.4269
vt 0.0848 0.4269
vt 0.0848 0.4269
vt 0.0910 0.3253
vt 0.0910 0.3253
vt 0.0910 0.3253
vt 0.0910 0.3253
vt 0.0910 0.3253
vt 0.0910 0.3253
vt 0.0910 0.3253
vt 0.0910 0.3253
vt 0.0910 0.3253
vt 0.0910 0.3253
vt 0.0910 0.3253
vt 0.0910 0.3253
vt 0.0910 0.3253
vt 0.0910 0.3253
vt 0.0910 0.3253
vt 0.0910 0.3253
vt 0.0910 0.3253
vt 0.0910 0.3253
vt 0.0910 0.3253
vt 0.0910 0.3253
vt 0.0910 0.3253
vt 0.0910 0.3253
vt 0.0910 0.3253
vt 0.0910 0.3253
vt 0.0910 0.3253
vt 0.0910 0.3253
vt 0.0910 0.3253
vt 0.0910 0.3253
vt 0.0910 0.3253
vt 0.0910 0.3253
vt 0.0910 0.3253
vt 0.0910 0.3253
vt 0.0910 0.3253
vt 0.0910 0.3253
vt 0.0910 0.3253
vt 0.0910 0.3253
vt 0.0848 0.4269
vt 0.0848 0.4269
vt 0.0910 0.3253
vt 0.0910 0.3253
vt 0.0910 0.3253
vt 0.0910 0.3253
vt 0.0910 0.3253
vt 0.0910 0.3253
vt 0.0910 0.3253
vt 0.0910 0.3253
vt 0.0910 0.3253
vt 0.0910 0.3253
vt 0.0848 0.4269
vt 0.0848 0.4269
vt 0.0848 0.4269
vt 0.0848 0.4269
vt 0.0910 0.3253
vt 0.0910 0.3253
vt 0.0910 0.3253
vt 0.0910 0.3253
vt 0.0910 0.3253
vt 0.0910 0.3253
vt 0.0910 0.3253
vt 0.0910 0.3253
vt 0.0910 0.3253
vt 0.0910 0.3253
vt 0.0910 0.3253
vt 0.0910 0.3253
vt 0.0910 0.3253
vt 0.0910 0.3253
vt 0.0910 0.3253
vt 0.0910 0.3253
vt 0.0910 0.3253
vt 0.0910 0.3253
vt 0.0910 0.3253
vt 0.0910 0.3253
vt 0.0910 0.3253
vt 0.0910 0.3253
vt 0.0910 0.3253
vt 0.0910 0.3253
vt 0.0910 0.3253
vt 0.0910 0.3253
vt 0.0910 0.3253
vt 0.0910 0.3253
vt 0.0910 0.3253
vt 0.0910 0.3253
vt 0.0910 0.3253
vt 0.0910 0.3253
vt 0.0910 0.3253
vt 0.0910 0.3253
vt 0.0910 0.3253
vt 0.0910 0.3253
vt 0.0910 0.3253
vt 0.0910 0.3253
vt 0.0910 0.3253
vt 0.0910 0.3253
vt 0.0910 0.3253
vt 0.0910 0.3253
vt 0.0910 0.3253
vt 0.0910 0.3253
vt 0.0910 0.3253
vt 0.0910 0.3253
vt 0.0910 0.3253
vt 0.0910 0.3253
vt 0.0910 0.3253
vt 0.0910 0.3253
vt 0.0910 0.3253
vt 0.0910 0.3253
vt 0.0910 0.3253
vt 0.0910 0.3253
vt 0.0910 0.3253
vt 0.0910 0.3253
vt 0.0910 0.3253
vt 0.0910 0.3253
vt 0.0910 0.3253
vt 0.0910 0.3253
vt 0.0848 0.4269
vt 0.0848 0.4269
vt 0.0848 0.4269
vt 0.0848 0.4269
vt 0.0848 0.4269
vt 0.0848 0.4269
vt 0.0848 0.4269
vt 0.0848 0.4269
vt 0.0848 0.4269
vt 0.0848 0.4269
vn 0.1805 0.2014 0.9627
vn 0.1805 0.1955 0.9639
vn 0.1805 0.1966 0.9637
vn 0.2379 0.1335 0.9621
vn 0.1264 0.9909 -0.0473
vn 0.0680 0.9976 0.0088
vn 0.2379 0.1335 -0.9621
vn 0.1805 0.1966 -0.9637
vn 0.1805 0.1955 -0.9639
vn 0.1805 0.2014 -0.9627
vn 0.0247 -0.9997 0.0000
vn 0.9844 0.1757 0.0000
vn -0.9844 0.1757 0.0000
vn -0.5403 0.8415 0.0000
vn 0.1876 -0.6027 0.7756
vn 0.1869 -0.5999 0.7779
vn 0.1874 -0.6019 0.7763
vn 0.1867 -0.5991 0.7786
vn 0.5403 0.8415 0.0000
vn 0.1876 -0.6027 -0.7756
vn 0.1874 -0.6019 -0.7763
vn 0.1869 -0.6000 -0.7779
vn 0.1867 -0.5991 -0.7786
vn -0.9841 0.1775 0.0000
vn 0.1135 -0.9731 0.2004
vn 0.0211 -0.8529 0.5216
vn 0.9841 0.1775 0.0000
vn 0.1135 -0.9731 -0.2004
vn 0.0211 -0.8529 -0.5216
vn -0.1099 0.9933 0.0350
vn -0.1089 0.9934 0.0354
vn -0.1024 0.9940 0.0375
vn -0.1012 0.9941 0.0379
vn -0.1805 0.2014 0.9627
vn -0.1805 0.1966 0.9637
vn -0.1805 0.1955 0.9639
vn -0.2379 0.1335 0.9621
vn -0.1867 -0.5991 0.7786
vn -0.1869 -0.6000 0.7779
vn -0.1874 -0.6019 0.7763
vn -0.1876 -0.6027 0.7756
vn -0.0211 -0.8529 0.5216
vn -0.1135 -0.9731 0.2004
vn -0.0247 -0.9997 0.0000
vn -0.0211 -0.8529 -0.5216
vn -0.1135 -0.9731 -0.2004
vn -0.1867 -0.5991 -0.7786
vn -0.1874 -0.6019 -0.7762
vn -0.1869 -0.6000 -0.7779
vn -0.1876 -0.6027 -0.7756
vn -0.2379 0.1335 -0.9621
vn -0.1805 0.1955 -0.9639
vn -0.1805 0.1965 -0.9637
vn -0.1805 0.2014 -0.9627
vn -0.0834 0.9962 0.0266
vn -0.1532 0.9882 0.0000
vn -0.8414 0.1669 0.5140
vn -0.5194 0.7275 0.4483
vn -0.6719 0.6164 0.4105
vn -0.4849 -0.4712 0.7368
vn -0.5453 -0.6936 0.4707
vn 0.0000 -1.0000 0.0000
vn -0.5453 -0.6936 -0.4707
vn -0.4849 -0.4712 -0.7368
vn -0.6719 0.6164 -0.4105
vn -0.5194 0.7275 -0.4483
vn -0.8414 0.1669 -0.5140
vn 0.5453 -0.6936 0.4707
vn 0.4849 -0.4712 0.7368
vn 0.6719 0.6164 0.4105
vn 0.5194 0.7275 0.4483
vn 0.8414 0.1669 0.5140
vn 0.1606 0.9868 0.0208
vn 0.0941 0.9953 -0.0223
vn 0.8414 0.1669 -0.5140
vn 0.6719 0.6164 -0.4105
vn 0.5194 0.7275 -0.4483
vn 0.5453 -0.6936 -0.4707
vn 0.4849 -0.4712 -0.7368
vn 0.9018 -0.4321 0.0000
vn 0.7769 -0.4137 0.4746
vn 0.1393 -0.3163 0.9384
vn -0.1393 -0.3163 0.9384
vn -0.7769 -0.4137 0.4746
vn -0.9018 -0.4321 0.0000
vn -0.7769 -0.4137 -0.4746
vn -0.1393 -0.3163 -0.9384
vn 0.1393 -0.3163 -0.9384
vn 0.7769 -0.4137 -0.4746
vn -0.0975 -0.9952 0.0000
vn -0.0877 -0.9947 -0.0536
vn -0.0205 -0.9902 -0.1380
vn 0.0205 -0.9902 -0.1380
vn 0.0877 -0.9947 -0.0536
vn 0.0975 -0.9952 0.0000
vn 0.0877 -0.9947 0.0536
vn 0.0205 -0.9902 0.1380
vn -0.0205 -0.9902 0.1380
vn -0.0877 -0.9947 0.0536
vn 0.8863 0.4631 0.0000
vn 0.7647 0.4440 0.4671
vn 0.1380 0.3417 0.9296
vn -0.1380 0.3417 0.9296
vn -0.7647 0.4440 0.4671
vn -0.8863 0.4631 0.0000
vn -0.7647 0.4440 -0.4671
vn -0.1380 0.3417 -0.9296
vn 0.1380 0.3417 -0.9296
vn 0.7647 0.4440 -0.4671
vn -0.0044 0.9996 -0.0295
vn 0.0000 0.9996 -0.0295
vn -0.0044 0.9996 0.0295
vn 0.0000 0.9996 0.0295
vn 0.0044 0.9996 -0.0295
vn 0.0044 0.9996 0.0295
vn 0.0208 0.9998 0.0003
vn 0.0187 0.9998 -0.0114
vn 0.0186 0.9998 -0.0116
vn 0.0187 0.9998 0.0110
vn 0.0207 0.9998 0.0003
vn 0.0187 0.9998 0.0114
vn -0.0187 0.9998 -0.0110
vn -0.0207 0.9998 -0.0003
vn -0.0187 0.9998 -0.0114
vn -0.0208 0.9998 -0.0003
vn -0.0186 0.9998 0.0116
vn -0.0187 0.9998 0.0114
vn -0.1193 0.5833 -0.8034
vn -0.1193 0.5833 0.8034
vn 0.1193 0.5833 -0.8034
vn 0.1193 0.5833 0.8034
vn 0.6099 0.6994 -0.3726
vn 0.6099 0.6994 0.3726
vn 0.6958 0.7182 0.0000
vn -0.6099 0.6994 -0.3726
vn -0.6958 0.7182 0.0000
vn -0.6099 0.6994 0.3726
vn 0.0664 0.8918 0.4475
vn 0.0474 0.9003 0.4326
vn 0.1099 0.6634 -0.7402
vn -0.0636 0.8534 -0.5174
vn -0.0546 0.8551 -0.5156
vn -0.0626 0.8536 -0.5172
vn -0.0676 0.8879 0.4550
vn -0.0168 0.9052 0.4247
vn -0.0807 0.8354 -0.5437
vn -0.0531 0.8553 -0.5153
vn -0.4048 0.8803 0.2473
vn -0.1979 0.9349 0.2946
vn -0.4048 0.8803 -0.2473
vn -0.4311 0.8698 -0.2400
vn -0.4550 0.8905 0.0000
vn 0.4821 0.8252 0.2945
vn 0.1531 0.9143 0.3751
vn 0.4039 0.9148 0.0000
vn 0.4614 0.8805 -0.1092
vn 0.3371 0.9187 -0.2059
vn 0.5904 0.7988 -0.1153
vn -0.9793 -0.2023 -0.0000
vn -0.8375 -0.1922 0.5116
vn -0.2296 -0.0516 0.9719
vn -0.2956 -0.1610 0.9416
vn 0.2296 -0.0516 0.9719
vn 0.2956 -0.1610 0.9416
vn 0.8375 -0.1922 0.5116
vn 0.9793 -0.2023 -0.0000
vn 0.8375 -0.1922 -0.5116
vn 0.2296 -0.0516 -0.9719
vn 0.2956 -0.1610 -0.9416
vn -0.2956 -0.1610 -0.9416
vn -0.2296 -0.0516 -0.9719
vn -0.8375 -0.1922 -0.5116
vn 0.1804 0.2029 -0.9624
vn 0.1410 0.2797 -0.9497
vn 0.8233 0.2632 -0.5029
vn 0.9610 0.2765 0.0000
vn 0.8233 0.2632 0.5029
vn 0.1410 0.2797 0.9497
vn 0.1804 0.2029 0.9624
vn -0.1410 0.2797 0.9497
vn -0.1804 0.2029 0.9624
vn -0.8233 0.2632 0.5029
vn -0.9610 0.2765 0.0000
vn -0.8233 0.2632 -0.5029
vn -0.1804 0.2029 -0.9624
vn -0.1410 0.2797 -0.9497
usemtl None
s 1
f 1/1/1 2/2/2 3/3/3
f 3/3/4 2/2/4 4/4/4
f 5/5/5 6/6/5 7/7/5
f 7/7/6 6/6/6 8/8/6
f 9/9/7 10/10/7 11/11/7
f 11/11/8 10/10/9 12/12/10
f 13/13/11 14/14/11 15/15/11
f 15/15/11 14/14/11 16/16/11
f 17/17/12 18/18/12 19/19/12
f 19/19/12 18/18/12 20/20/12
f 21/21/13 22/22/13 23/23/13
f 23/23/13 22/22/13 24/24/13
f 25/25/14 26/26/14 27/27/14
f 27/27/14 26/26/14 28/28/14
f 29/29/15 30/30/16 31/31/17
f 31/31/17 30/30/16 32/32/18
f 33/33/19 34/34/19 35/35/19
f 35/35/19 34/34/19 36/36/19
f 37/37/20 38/38/21 39/39/22
f 39/39/22 38/38/21 40/40/23
f 41/41/24 42/42/24 25/25/24
f 25/25/24 42/42/24 26/26/24
f 30/30/25 13/13/25 32/32/25
f 32/32/26 13/13/26 15/15/26
f 43/43/27 44/44/27 33/33/27
f 33/33/27 44/44/27 34/34/27
f 39/39/28 40/40/28 14/14/28
f 14/14/29 40/40/29 16/16/29
f 45/45/30 46/46/31 7/7/32
f 7/7/32 46/46/31 5/5/33
f 1/1/34 47/47/35 2/2/36
f 2/2/37 47/47/37 48/48/37
f 49/49/38 30/30/39 50/50/40
f 50/50/40 30/30/39 29/29/41
f 51/51/42 13/13/42 49/49/42
f 49/49/43 13/13/43 30/30/43
f 51/51/44 52/52/44 13/13/44
f 13/13/44 52/52/44 14/14/44
f 52/52/45 53/53/45 14/14/45
f 14/14/46 53/53/46 39/39/46
f 53/53/47 54/54/48 39/39/49
f 39/39/49 54/54/48 37/37/50
f 55/55/51 56/56/51 10/10/51
f 10/10/52 56/56/53 12/12/54
f 46/46/55 45/45/55 57/57/55
f 57/57/56 45/45/56 58/58/56
f 22/22/57 48/48/57 24/24/57
f 24/24/57 48/48/57 47/47/57
f 26/26/58 49/49/58 28/28/58
f 28/28/59 49/49/59 50/50/59
f 42/42/60 51/51/60 26/26/60
f 26/26/61 51/51/61 49/49/61
f 41/41/62 52/52/62 42/42/62
f 42/42/62 52/52/62 51/51/62
f 53/53/63 52/52/63 25/25/63
f 25/25/64 52/52/64 41/41/64
f 54/54/65 53/53/65 27/27/65
f 27/27/66 53/53/66 25/25/66
f 56/56/67 55/55/67 23/23/67
f 23/23/67 55/55/67 21/21/67
f 15/15/62 16/16/62 43/43/62
f 43/43/62 16/16/62 44/44/62
f 32/32/68 15/15/68 33/33/68
f 33/33/69 15/15/69 43/43/69
f 31/31/70 32/32/70 35/35/70
f 35/35/71 32/32/71 33/33/71
f 3/3/72 4/4/72 19/19/72
f 19/19/72 4/4/72 17/17/72
f 8/8/73 6/6/73 59/59/73
f 59/59/74 6/6/74 60/60/74
f 18/18/75 9/9/75 20/20/75
f 20/20/75 9/9/75 11/11/75
f 38/38/76 36/36/76 40/40/76
f 40/40/77 36/36/77 34/34/77
f 40/40/78 34/34/78 16/16/78
f 16/16/79 34/34/79 44/44/79
f 61/61/80 62/62/80 63/63/80
f 63/63/80 62/62/80 64/64/80
f 63/63/81 65/65/81 61/61/81
f 61/61/81 65/65/81 66/66/81
f 65/65/82 67/67/82 66/66/82
f 66/66/82 67/67/82 68/68/82
f 69/69/83 70/70/83 67/67/83
f 67/67/83 70/70/83 68/68/83
f 70/70/84 69/69/84 71/71/84
f 71/71/84 69/69/84 72/72/84
f 73/73/85 71/71/85 74/74/85
f 74/74/85 71/71/85 72/72/85
f 74/74/86 75/75/86 73/73/86
f 73/73/86 75/75/86 76/76/86
f 77/77/87 76/76/87 78/78/87
f 78/78/87 76/76/87 75/75/87
f 77/77/88 78/78/88 79/79/88
f 79/79/88 78/78/88 80/80/88
f 79/79/89 80/80/89 62/62/89
f 62/62/89 80/80/89 64/64/89
f 81/81/90 82/82/90 61/61/90
f 61/61/90 82/82/90 62/62/90
f 83/83/91 81/81/91 66/66/91
f 66/66/91 81/81/91 61/61/91
f 84/84/92 83/83/92 68/68/92
f 68/68/92 83/83/92 66/66/92
f 84/84/93 68/68/93 85/85/93
f 85/85/93 68/68/93 70/70/93
f 85/85/94 70/70/94 86/86/94
f 86/86/94 70/70/94 71/71/94
f 87/87/95 86/86/95 73/73/95
f 73/73/95 86/86/95 71/71/95
f 88/88/96 87/87/96 76/76/96
f 76/76/96 87/87/96 73/73/96
f 89/89/97 88/88/97 77/77/97
f 77/77/97 88/88/97 76/76/97
f 89/89/98 77/77/98 90/90/98
f 90/90/98 77/77/98 79/79/98
f 90/90/99 79/79/99 82/82/99
f 82/82/99 79/79/99 62/62/99
f 63/63/100 64/64/100 91/91/100
f 91/91/100 64/64/100 92/92/100
f 93/93/101 65/65/101 91/91/101
f 91/91/101 65/65/101 63/63/101
f 94/94/102 67/67/102 93/93/102
f 93/93/102 67/67/102 65/65/102
f 69/69/103 67/67/103 95/95/103
f 95/95/103 67/67/103 94/94/103
f 72/72/104 69/69/104 96/96/104
f 96/96/104 69/69/104 95/95/104
f 74/74/105 72/72/105 97/97/105
f 97/97/105 72/72/105 96/96/105
f 98/98/106 75/75/106 97/97/106
f 97/97/106 75/75/106 74/74/106
f 75/75/107 98/98/107 78/78/107
f 78/78/107 98/98/107 99/99/107
f 80/80/108 78/78/108 100/100/108
f 100/100/108 78/78/108 99/99/108
f 64/64/109 80/80/109 92/92/109
f 92/92/109 80/80/109 100/100/109
f 93/93/110 101/101/110 94/94/111
f 94/94/111 101/101/110 102/102/111
f 100/100/112 99/99/113 103/103/112
f 103/103/112 99/99/113 104/104/113
f 95/95/114 94/94/111 105/105/114
f 105/105/114 94/94/111 102/102/111
f 98/98/115 106/106/115 99/99/113
f 99/99/113 106/106/115 104/104/113
f 96/96/116 95/95/117 107/107/118
f 107/107/118 95/95/117 105/105/117
f 97/97/119 108/108/120 98/98/121
f 98/98/121 108/108/120 106/106/121
f 97/97/119 96/96/116 108/108/120
f 108/108/120 96/96/116 107/107/118
f 91/91/122 109/109/123 93/93/124
f 93/93/124 109/109/123 101/101/124
f 91/91/122 92/92/125 109/109/123
f 109/109/123 92/92/125 110/110/126
f 92/92/125 100/100/127 110/110/126
f 110/110/126 100/100/127 103/103/127
f 101/101/128 111/111/128 102/102/128
f 102/102/128 111/111/128 112/112/128
f 103/103/129 104/104/129 113/113/129
f 113/113/129 104/104/129 114/114/129
f 105/105/130 102/102/130 115/115/130
f 115/115/130 102/102/130 112/112/130
f 106/106/131 116/116/131 104/104/131
f 104/104/131 116/116/131 114/114/131
f 107/107/132 105/105/132 117/117/132
f 117/117/132 105/105/132 115/115/132
f 108/108/133 118/118/133 106/106/133
f 106/106/133 118/118/133 116/116/133
f 108/108/134 107/107/134 118/118/134
f 118/118/134 107/107/134 117/117/134
f 109/109/135 119/119/135 101/101/135
f 101/101/135 119/119/135 111/111/135
f 109/109/136 110/110/136 119/119/136
f 119/119/136 110/110/136 120/120/136
f 110/110/137 103/103/137 120/120/137
f 120/120/137 103/103/137 113/113/137
f 111/121/138 6/6/138 112/122/138
f 112/122/139 6/6/139 5/5/139
f 113/123/140 114/124/140 8/8/140
f 8/8/141 114/124/142 7/7/143
f 115/125/144 112/122/144 46/46/144
f 46/46/145 112/122/145 5/5/145
f 116/126/146 45/45/146 114/124/146
f 114/124/142 45/45/147 7/7/143
f 117/127/148 115/125/148 57/57/148
f 57/57/149 115/125/149 46/46/149
f 118/128/150 58/58/150 116/126/150
f 116/126/151 58/58/151 45/45/151
f 118/128/152 117/127/152 58/58/152
f 58/58/152 117/127/152 57/57/152
f 119/129/153 60/60/153 111/121/153
f 111/121/154 60/60/154 6/6/154
f 120/130/155 59/59/155 119/129/155
f 119/129/156 59/59/156 60/60/156
f 120/130/157 113/123/157 59/59/157
f 59/59/158 113/123/158 8/8/158
f 27/27/159 28/28/159 21/21/159
f 21/21/159 28/28/159 22/22/159
f 50/50/160 48/48/160 28/28/160
f 28/28/160 48/48/160 22/22/160
f 2/2/161 48/48/161 29/29/161
f 29/29/162 48/48/162 50/50/162
f 2/2/163 29/29/163 4/4/163
f 4/4/164 29/29/164 31/31/164
f 17/17/165 4/4/165 35/35/165
f 35/35/165 4/4/165 31/31/165
f 35/35/166 36/36/166 17/17/166
f 17/17/166 36/36/166 18/18/166
f 38/38/167 9/9/167 36/36/167
f 36/36/167 9/9/167 18/18/167
f 10/10/168 9/9/168 37/37/168
f 37/37/169 9/9/169 38/38/169
f 54/54/170 55/55/170 37/37/170
f 37/37/171 55/55/171 10/10/171
f 21/21/172 55/55/172 27/27/172
f 27/27/172 55/55/172 54/54/172
f 11/11/8 12/12/10 90/90/173
f 90/90/174 12/12/174 89/89/174
f 20/20/175 11/11/175 82/82/175
f 82/82/175 11/11/175 90/90/175
f 19/19/176 20/20/176 81/81/176
f 81/81/176 20/20/176 82/82/176
f 83/83/177 3/3/177 81/81/177
f 81/81/177 3/3/177 19/19/177
f 84/84/178 1/1/178 83/83/178
f 83/83/179 1/1/1 3/3/3
f 84/84/180 85/85/180 1/1/180
f 1/1/34 85/85/181 47/47/35
f 24/24/182 47/47/182 86/86/182
f 86/86/182 47/47/182 85/85/182
f 23/23/183 24/24/183 87/87/183
f 87/87/183 24/24/183 86/86/183
f 88/88/184 56/56/184 87/87/184
f 87/87/184 56/56/184 23/23/184
f 56/56/53 88/88/185 12/12/54
f 12/12/186 88/88/186 89/89/186
