# Blender v2.78 (sub 0) OBJ File: ''
# www.blender.org
mtllib SM_Prop_Chest_01.mtl
o SM_Prop_Chest_01
v -61.700638 0.163622 14.154996
v -54.211048 0.163622 14.154996
v -54.211048 6.245014 14.154998
v -61.700638 6.245014 14.154998
v -54.211048 6.245021 -8.214448
v -61.700638 6.245021 -8.214448
v -54.211048 0.163629 -8.214450
v -61.700638 0.163629 -8.214450
v -40.342239 19.996380 -25.247889
v -31.810287 19.996380 -25.247889
v -31.810287 19.996382 -33.650906
v -40.342239 19.996382 -33.650906
v -31.810287 8.580717 -33.650909
v -40.342239 8.580717 -33.650909
v -31.810287 8.580713 -25.247892
v -40.342239 8.580713 -25.247892
v 31.810287 19.996380 -25.247889
v 40.342239 19.996380 -25.247889
v 40.342239 19.996382 -33.650906
v 31.810287 19.996382 -33.650906
v 40.342239 8.580717 -33.650909
v 31.810287 8.580717 -33.650909
v 40.342239 8.580713 -25.247892
v 31.810287 8.580713 -25.247892
v -54.619526 5.091407 -21.561861
v -54.619526 5.091392 24.930998
v -55.754429 6.298469 24.931002
v -55.754429 6.298484 -21.561857
v 42.254490 -12.904493 -10.932349
v -42.254921 -12.904493 -10.932349
v -42.254921 -12.904495 -8.559852
v 42.254490 -12.904495 -8.559852
v 55.754429 6.298484 -21.561857
v 55.754429 6.298469 24.931002
v 54.619526 5.091392 24.930998
v 54.619526 5.091407 -21.561861
v 58.767277 -19.996357 -30.281717
v 58.767277 -19.996380 33.650898
v -58.767277 -19.996380 33.650898
v -58.767277 -19.996357 -30.281717
v -51.293465 6.256549 30.697727
v 51.293465 6.256549 30.697727
v 51.293465 11.878444 30.697727
v -51.293465 11.878444 30.697727
v 51.293465 -5.128528 -27.328524
v -51.293465 -5.128526 -27.328524
v -51.293465 3.884331 -27.328524
v 51.293465 3.884331 -27.328524
v -58.767277 17.035429 -30.281706
v -58.767277 17.035402 33.650913
v -48.518341 17.035408 25.409334
v -48.518341 17.035423 -22.040190
v 58.767277 17.035402 33.650913
v 48.517845 17.035408 25.409334
v 58.767277 17.035429 -30.281706
v 48.517845 17.035423 -22.040190
v -48.518551 12.290768 25.409334
v -48.518551 12.290783 -22.040190
v 48.517845 12.290768 25.409334
v 48.517845 12.290783 -22.040190
v 51.293465 -14.892477 33.650898
v -51.293465 -14.892477 33.650898
v 51.293465 11.878441 33.650913
v -51.293465 11.878441 33.650913
v -58.767284 2.235058 33.650909
v -56.574863 -7.165441 33.650909
v -58.767277 -8.025053 33.650909
v -51.293465 -14.892455 -30.281713
v 51.293465 -14.892455 -30.281713
v -51.293465 11.931527 -30.281706
v 51.293465 11.931527 -30.281706
v -58.767277 -14.892473 24.930994
v -58.767277 -14.892458 -21.561865
v -58.767277 -6.577081 29.581505
v -58.767277 11.931505 24.931002
v -58.767277 11.931520 -21.561857
v 58.767277 11.931505 24.931002
v 58.767277 11.931520 -21.561857
v 58.767277 -14.892473 24.930994
v 58.767277 -14.892458 -21.561865
v -45.420029 -0.172941 -22.040194
v 45.419456 -0.172941 -22.040194
v 45.419456 -0.172957 25.409330
v -45.420029 -0.172957 25.409330
v -55.754429 -14.892473 24.930994
v -55.754429 -14.892458 -21.561865
v -55.754429 11.931505 24.931002
v -55.754429 3.884311 24.930998
v -55.754436 -5.128544 24.930998
v -54.619534 -6.255152 24.930994
v -55.754436 -7.381760 24.930994
v -55.754429 11.931520 -21.561857
v -55.754436 -7.381745 -21.561865
v -54.619534 -6.255137 -21.561865
v -55.754436 -5.128531 -21.561861
v -55.754429 3.884327 -21.561861
v 55.754429 11.931505 24.931002
v 55.754429 11.931520 -21.561857
v 55.754429 -14.892473 24.930994
v 55.754436 -7.381760 24.930994
v 54.619534 -6.255152 24.930994
v 55.754436 -5.128546 24.930998
v 55.754429 3.884311 24.930998
v 55.754429 -14.892458 -21.561865
v 55.754429 3.884327 -21.561861
v 55.754436 -5.128529 -21.561861
v 54.619534 -6.255137 -21.561865
v 55.754436 -7.381745 -21.561865
v 51.293465 -14.892475 30.697720
v -51.293465 -14.892475 30.697720
v 51.293465 5.051860 29.360807
v 51.293465 3.847167 30.697723
v 51.293465 -5.147861 30.697723
v 51.293465 -6.272241 29.360804
v 51.293465 -7.396618 30.697720
v -51.293465 -7.396619 30.697720
v -51.293465 -6.272241 29.360804
v -51.293465 -5.147861 30.697723
v -51.293465 3.847167 30.697723
v -51.293465 5.051860 29.360807
v -51.293465 -14.892455 -27.328527
v 51.293465 -14.892455 -27.328527
v -51.293465 11.931527 -27.328520
v -51.293465 6.298487 -27.328520
v -51.293465 5.091410 -25.991608
v -51.293465 -6.255134 -25.991611
v -51.293465 -7.381742 -27.328527
v 51.293465 11.931527 -27.328520
v 51.293465 -7.381742 -27.328527
v 51.293465 -6.255134 -25.991611
v 51.293465 5.091410 -25.991608
v 51.293465 6.298487 -27.328520
v 61.700638 0.163629 -8.214450
v 54.211048 0.163629 -8.214450
v 54.211048 6.245021 -8.214448
v 61.700638 6.245021 -8.214448
v 54.211048 6.245014 14.154998
v 61.700638 6.245014 14.154998
v 54.211048 0.163622 14.154996
v 61.700638 0.163622 14.154996
v -44.861164 -2.420979 25.409330
v -44.861164 -2.420964 -22.040194
v 44.860615 -2.420964 -22.040194
v 44.860615 -2.420979 25.409330
v -42.254921 -12.904505 25.409327
v -42.254921 -12.904504 15.164880
v -42.254921 -12.904501 12.792382
v -42.254921 -12.904500 3.302514
v -42.254921 -12.904497 0.930017
v -42.254921 -12.904490 -22.040197
v 42.254490 -12.904490 -22.040197
v 42.254490 -12.904497 0.930017
v 42.254490 -12.904500 3.302514
v 42.254490 -12.904501 12.792382
v 42.254490 -12.904504 15.164880
v 42.254490 -12.904505 25.409327
vt 0.5577 0.3773
vt 0.5577 0.3773
vt 0.5577 0.3773
vt 0.5577 0.3773
vt 0.5577 0.3773
vt 0.5577 0.3773
vt 0.5577 0.3773
vt 0.5577 0.3773
vt 0.5704 0.3707
vt 0.5704 0.3707
vt 0.5704 0.3707
vt 0.5704 0.3707
vt 0.5704 0.3707
vt 0.5704 0.3707
vt 0.5704 0.3707
vt 0.5704 0.3707
vt 0.5704 0.3707
vt 0.5704 0.3707
vt 0.5704 0.3707
vt 0.5704 0.3707
vt 0.5704 0.3707
vt 0.5704 0.3707
vt 0.5704 0.3707
vt 0.5704 0.3707
vt 0.9900 0.4042
vt 0.9900 0.4042
vt 0.9900 0.4042
vt 0.9900 0.4042
vt 0.9900 0.3479
vt 0.9900 0.3479
vt 0.9900 0.3479
vt 0.9900 0.3479
vt 0.9900 0.4042
vt 0.9900 0.4042
vt 0.9900 0.4042
vt 0.9900 0.4042
vt 0.5577 0.3773
vt 0.5577 0.3773
vt 0.5577 0.3773
vt 0.5577 0.3773
vt 0.9899 0.4560
vt 0.9899 0.4560
vt 0.9899 0.4560
vt 0.9899 0.4560
vt 0.9899 0.4560
vt 0.9899 0.4560
vt 0.9899 0.4560
vt 0.9899 0.4560
vt 0.5577 0.3773
vt 0.5577 0.3773
vt 0.5577 0.3773
vt 0.5577 0.3773
vt 0.5577 0.3773
vt 0.5577 0.3773
vt 0.5577 0.3773
vt 0.5577 0.3773
vt 0.5577 0.3773
vt 0.5577 0.3773
vt 0.5577 0.3773
vt 0.5577 0.3773
vt 0.5577 0.3773
vt 0.5577 0.3773
vt 0.5577 0.3773
vt 0.5577 0.3773
vt 0.5577 0.3773
vt 0.5577 0.3773
vt 0.5577 0.3773
vt 0.5577 0.3773
vt 0.5577 0.3773
vt 0.5577 0.3773
vt 0.5577 0.3773
vt 0.5577 0.3773
vt 0.5577 0.3773
vt 0.5577 0.3773
vt 0.5577 0.3773
vt 0.5577 0.3773
vt 0.5577 0.3773
vt 0.5577 0.3773
vt 0.5577 0.3773
vt 0.5577 0.3773
vt 0.9899 0.4036
vt 0.9899 0.4036
vt 0.9899 0.4036
vt 0.9899 0.4036
vt 0.9899 0.4036
vt 0.9899 0.4036
vt 0.9899 0.4036
vt 0.9899 0.4036
vt 0.5577 0.3773
vt 0.5577 0.3773
vt 0.5577 0.3773
vt 0.5577 0.3773
vt 0.5577 0.3773
vt 0.5577 0.3773
vt 0.5577 0.3773
vt 0.5577 0.3773
vt 0.5577 0.3773
vt 0.5577 0.3773
vt 0.5577 0.3773
vt 0.5577 0.3773
vt 0.5577 0.3773
vt 0.5577 0.3773
vt 0.5577 0.3773
vt 0.5577 0.3773
vt 0.5577 0.3773
vt 0.5577 0.3773
vt 0.5577 0.3773
vt 0.5577 0.3773
vt 0.5577 0.3773
vt 0.5577 0.3773
vt 0.5577 0.3773
vt 0.5577 0.3773
vt 0.5577 0.3773
vt 0.5577 0.3773
vt 0.5577 0.3773
vt 0.5577 0.3773
vt 0.5577 0.3773
vt 0.5577 0.3773
vt 0.5577 0.3773
vt 0.5577 0.3773
vt 0.5577 0.3773
vt 0.5577 0.3773
vt 0.5577 0.3773
vt 0.5577 0.3773
vt 0.5577 0.3773
vt 0.5577 0.3773
vt 0.5577 0.3773
vt 0.5577 0.3773
vt 0.5577 0.3773
vt 0.5577 0.3773
vt 0.5577 0.3773
vt 0.5577 0.3773
vt 0.5577 0.3773
vt 0.5577 0.3773
vt 0.5577 0.3773
vt 0.5577 0.3773
vt 0.5577 0.3773
vt 0.5577 0.3773
vt 0.5577 0.3773
vt 0.5577 0.3773
vt 0.5577 0.3773
vt 0.5577 0.3773
vt 0.5577 0.3773
vt 0.5577 0.3773
vt 0.5577 0.3773
vt 0.5577 0.3773
vt 0.5577 0.3773
vt 0.5577 0.3773
vt 0.5577 0.3773
vt 0.5577 0.3773
vt 0.5577 0.3773
vt 0.5577 0.3773
vt 0.9899 0.4560
vt 0.9899 0.4560
vt 0.9899 0.4560
vt 0.9899 0.4560
vt 0.9899 0.4560
vt 0.9899 0.4560
vt 0.9899 0.4560
vt 0.9899 0.4560
vt 0.9900 0.4042
vt 0.9900 0.4042
vt 0.9900 0.4042
vt 0.9900 0.4042
vt 0.9900 0.4042
vt 0.9900 0.4042
vt 0.9900 0.4042
vt 0.9900 0.4042
vt 0.9899 0.4560
vt 0.9899 0.4560
vt 0.9899 0.4560
vt 0.9899 0.4560
vt 0.9899 0.4560
vt 0.9899 0.4560
vt 0.9899 0.4560
vt 0.9899 0.4560
vt 0.9900 0.4042
vt 0.9900 0.4042
vt 0.9900 0.4042
vt 0.9900 0.4042
vt 0.9900 0.4042
vt 0.9900 0.4042
vt 0.9900 0.4042
vt 0.9900 0.4042
vt 0.9899 0.4560
vt 0.9899 0.4560
vt 0.9899 0.4560
vt 0.9899 0.4560
vt 0.9900 0.4042
vt 0.9900 0.4042
vt 0.9900 0.4042
vt 0.9900 0.4042
vt 0.9899 0.4560
vt 0.9899 0.4560
vt 0.9899 0.4560
vt 0.9899 0.4560
vt 0.9899 0.4560
vt 0.9899 0.4560
vt 0.9899 0.4560
vt 0.9899 0.4560
vt 0.9900 0.4042
vt 0.9900 0.4042
vt 0.9900 0.4042
vt 0.9900 0.4042
vt 0.9899 0.4560
vt 0.9899 0.4560
vt 0.9899 0.4560
vt 0.9899 0.4560
vt 0.9899 0.4560
vt 0.9899 0.4560
vt 0.9899 0.4560
vt 0.9899 0.4560
vt 0.9899 0.4560
vt 0.9899 0.4560
vt 0.9899 0.4560
vt 0.9899 0.4560
vt 0.9900 0.4042
vt 0.9900 0.4042
vt 0.9900 0.4042
vt 0.9900 0.4042
vt 0.9900 0.4042
vt 0.9900 0.4042
vt 0.9900 0.4042
vt 0.9900 0.4042
vt 0.9900 0.4042
vt 0.9900 0.4042
vt 0.9900 0.4042
vt 0.9900 0.4042
vt 0.9900 0.4042
vt 0.9900 0.4042
vt 0.9900 0.4042
vt 0.9900 0.4042
vt 0.5577 0.3773
vt 0.5577 0.3773
vt 0.5577 0.3773
vt 0.5577 0.3773
vt 0.5577 0.3773
vt 0.5577 0.3773
vt 0.5577 0.3773
vt 0.5577 0.3773
vt 0.5632 0.4330
vt 0.5632 0.4330
vt 0.5632 0.4330
vt 0.5632 0.4330
vt 0.9900 0.3479
vt 0.9900 0.3479
vt 0.9900 0.3479
vt 0.9900 0.3479
vt 0.9900 0.3479
vt 0.9900 0.3479
vt 0.9900 0.3483
vt 0.9900 0.3483
vt 0.9900 0.3483
vt 0.9900 0.3483
vt 0.9900 0.3479
vt 0.9900 0.3479
vt 0.9899 0.4036
vt 0.9899 0.4036
vt 0.9899 0.4036
vt 0.9899 0.4036
vt 0.9899 0.4036
vt 0.9899 0.4036
vt 0.9899 0.4036
vt 0.9899 0.4036
vt 0.9899 0.4036
vt 0.9899 0.4036
vt 0.9899 0.4036
vt 0.9899 0.4036
vt 0.9899 0.4036
vt 0.9899 0.4036
vt 0.9899 0.4036
vt 0.9899 0.4036
vt 0.9899 0.4036
vt 0.9899 0.4036
vt 0.9899 0.4036
vt 0.9899 0.4036
vt 0.9900 0.3479
vt 0.9900 0.3479
vt 0.9900 0.3479
vt 0.9900 0.3479
vt 0.9900 0.3479
vt 0.9900 0.3479
vt 0.9900 0.3479
vt 0.9900 0.3479
vn 0.0000 -0.0000 1.0000
vn 0.0000 1.0000 0.0000
vn 0.0000 0.0000 -1.0000
vn 0.0000 -1.0000 -0.0000
vn -1.0000 0.0000 0.0000
vn 1.0000 0.0000 0.0000
vn -0.7286 -0.6850 -0.0000
vn 0.7286 -0.6850 -0.0000
vn -0.9705 0.2412 0.0000
vn -0.9705 0.2413 0.0000
vn 0.9705 0.2413 0.0000
vn 0.0000 -0.7653 0.6437
vn 0.0000 -0.7429 0.6694
vn -0.0000 -0.7647 -0.6444
vn 0.0000 -0.7422 -0.6701
vn -0.7045 -0.7097 -0.0000
vn 0.7045 -0.7097 -0.0000
vn -0.0000 0.7653 0.6437
vn 0.0000 0.7429 0.6694
vn -0.7045 0.7097 0.0000
vn -0.7286 0.6850 0.0000
vn 0.0000 0.7647 -0.6444
vn 0.0000 0.7422 -0.6701
vn 0.7286 0.6850 0.0000
vn 0.7045 0.7097 0.0000
vn -0.8739 -0.2038 0.4413
vn -0.3465 0.8838 0.3145
usemtl None
s 1
f 1/1/1 2/2/1 3/3/1 4/4/1
f 4/4/2 3/3/2 5/5/2 6/6/2
f 6/6/3 5/5/3 7/7/3 8/8/3
f 8/8/4 7/7/4 2/2/4 1/1/4
f 8/8/5 1/1/5 4/4/5 6/6/5
f 9/9/2 10/10/2 11/11/2 12/12/2
f 12/12/3 11/11/3 13/13/3 14/14/3
f 14/14/4 13/13/4 15/15/4 16/16/4
f 15/15/6 13/13/6 11/11/6 10/10/6
f 14/14/5 16/16/5 9/9/5 12/12/5
f 17/17/2 18/18/2 19/19/2 20/20/2
f 20/20/3 19/19/3 21/21/3 22/22/3
f 22/22/4 21/21/4 23/23/4 24/24/4
f 23/23/6 21/21/6 19/19/6 18/18/6
f 22/22/5 24/24/5 17/17/5 20/20/5
f 25/25/7 26/26/7 27/27/7 28/28/7
f 29/29/2 30/30/2 31/31/2 32/32/2
f 33/33/8 34/34/8 35/35/8 36/36/8
f 37/37/4 38/38/4 39/39/4 40/40/4
f 41/41/1 42/42/1 43/43/1 44/44/1
f 45/45/3 46/46/3 47/47/3 48/48/3
f 49/49/2 50/50/2 51/51/2 52/52/2
f 50/50/2 53/53/2 54/54/2 51/51/2
f 53/53/2 55/55/2 56/56/2 54/54/2
f 55/55/2 49/49/2 52/52/2 56/56/2
f 52/52/6 51/51/6 57/57/6 58/58/6
f 51/51/3 54/54/3 59/59/3 57/57/3
f 54/54/5 56/56/5 60/60/5 59/59/5
f 56/56/1 52/52/1 58/58/1 60/60/1
f 39/39/1 38/38/1 61/61/1 62/62/1
f 38/38/1 53/53/1 63/63/1 61/61/1
f 53/53/1 50/50/1 64/64/1 63/63/1
f 50/50/1 65/65/1 66/66/1 67/67/1 39/39/1 62/62/1 64/64/1
f 37/37/3 40/40/3 68/68/3 69/69/3
f 40/40/3 49/49/3 70/70/3 68/68/3
f 49/49/3 55/55/3 71/71/3 70/70/3
f 55/55/3 37/37/3 69/69/3 71/71/3
f 40/40/5 39/39/5 72/72/5 73/73/5
f 39/39/5 67/67/5 74/74/5 65/65/5 50/50/5 75/75/5 72/72/5
f 50/50/5 49/49/5 76/76/5 75/75/5
f 49/49/5 40/40/5 73/73/5 76/76/5
f 55/55/6 53/53/6 77/77/6 78/78/6
f 53/53/6 38/38/6 79/79/6 77/77/6
f 38/38/6 37/37/6 80/80/6 79/79/6
f 37/37/6 55/55/6 78/78/6 80/80/6
f 60/81/1 58/82/1 81/83/1 82/84/1
f 59/85/9 60/81/9 82/84/10 83/86/10
f 57/87/3 59/85/3 83/86/3 84/88/3
f 58/82/11 57/87/11 84/88/11 81/83/11
f 73/73/2 72/72/2 85/89/2 86/90/2
f 72/72/3 75/75/3 87/91/3 27/92/3 26/93/3 88/94/3 89/95/3 90/96/3 91/97/3 85/89/3
f 75/75/4 76/76/4 92/98/4 87/91/4
f 76/76/1 73/73/1 86/90/1 93/99/1 94/100/1 95/101/1 96/102/1 25/103/1 28/104/1 92/98/1
f 78/78/4 77/77/4 97/105/4 98/106/4
f 77/77/3 79/79/3 99/107/3 100/108/3 101/109/3 102/110/3 103/111/3 35/112/3 34/113/3 97/105/3
f 79/79/2 80/80/2 104/114/2 99/107/2
f 80/80/1 78/78/1 98/106/1 33/115/1 36/116/1 105/117/1 106/118/1 107/119/1 108/120/1 104/114/1
f 62/62/2 61/61/2 109/121/2 110/122/2
f 61/61/5 63/63/5 43/123/5 42/124/5 111/125/5 112/126/5 113/127/5 114/128/5 115/129/5 109/121/5
f 63/63/4 64/64/4 44/130/4 43/123/4
f 64/64/6 62/62/6 110/122/6 116/131/6 117/132/6 118/133/6 119/134/6 120/135/6 41/136/6 44/130/6
f 69/69/2 68/68/2 121/137/2 122/138/2
f 68/68/6 70/70/6 123/139/6 124/140/6 125/141/6 47/142/6 46/143/6 126/144/6 127/145/6 121/137/6
f 70/70/4 71/71/4 128/146/4 123/139/4
f 71/71/5 69/69/5 122/138/5 129/147/5 130/148/5 45/149/5 48/150/5 131/151/5 132/152/5 128/146/5
f 118/153/1 113/154/1 112/155/1 119/156/1
f 110/157/1 109/158/1 115/159/1 116/160/1
f 117/161/12 114/162/12 113/163/12 118/164/12
f 120/165/13 111/166/13 42/167/13 41/168/13
f 132/169/3 124/170/3 123/171/3 128/172/3
f 122/173/3 121/174/3 127/175/3 129/176/3
f 130/177/14 126/178/14 46/179/14 45/180/14
f 131/181/15 125/182/15 124/183/15 132/184/15
f 86/185/5 85/186/5 91/187/5 93/188/5
f 94/189/16 90/190/16 89/191/16 95/192/16
f 95/193/5 89/194/5 88/195/5 96/196/5
f 28/197/5 27/198/5 87/199/5 92/200/5
f 106/201/17 102/202/17 101/203/17 107/204/17
f 108/205/6 100/206/6 99/207/6 104/208/6
f 105/209/6 103/210/6 102/211/6 106/212/6
f 98/213/6 97/214/6 34/215/6 33/216/6
f 116/217/18 115/218/18 114/162/18 117/161/18
f 119/219/19 112/220/19 111/166/19 120/165/19
f 93/221/20 91/222/20 90/190/20 94/189/20
f 96/223/21 88/224/21 26/26/21 25/25/21
f 129/225/22 127/226/22 126/178/22 130/177/22
f 48/227/23 47/228/23 125/182/23 131/181/23
f 36/36/24 35/35/24 103/229/24 105/230/24
f 107/204/25 101/203/25 100/231/25 108/232/25
f 133/233/3 134/234/3 135/235/3 136/236/3
f 136/236/2 135/235/2 137/237/2 138/238/2
f 138/238/1 137/237/1 139/239/1 140/240/1
f 140/240/4 139/239/4 134/234/4 133/233/4
f 140/240/6 133/233/6 136/236/6 138/238/6
f 15/15/1 10/10/1 9/9/1 16/16/1
f 23/23/1 18/18/1 17/17/1 24/24/1
f 65/241/26 74/242/26 66/243/26
f 66/243/27 74/242/27 67/244/27
f 81/245/11 84/246/11 141/247/11 142/248/11
f 82/249/1 81/245/1 142/248/1 143/250/1
f 83/251/10 82/252/10 143/253/10 144/254/10
f 84/246/3 83/255/3 144/256/3 141/247/3
f 142/257/11 141/258/11 145/259/11 146/260/11 147/261/11 148/262/11 149/263/11 31/264/11 30/265/11 150/266/11
f 143/267/1 142/257/1 150/266/1 151/268/1
f 144/269/10 143/267/10 151/268/9 29/270/9 32/271/9 152/272/9 153/273/9 154/274/9 155/275/9 156/276/9
f 141/258/3 144/269/3 156/276/3 145/259/3
f 152/277/2 149/278/2 148/279/2 153/280/2
f 150/266/2 30/265/2 29/270/2 151/268/2
f 154/281/2 147/282/2 146/283/2 155/284/2
f 155/275/2 146/260/2 145/259/2 156/276/2
f 153/273/2 148/262/2 147/261/2 154/274/2
f 32/271/2 31/264/2 149/263/2 152/272/2
