# Blender v2.78 (sub 0) OBJ File: ''
# www.blender.org
mtllib SM_Prop_Loghalf_01.mtl
o SM_Prop_Loghalf_01
v -127.853516 -1.225567 27.037056
v -61.688477 -0.812969 26.401768
v -116.474602 16.906385 31.895514
v -50.386723 16.866716 31.139009
v -127.853516 -13.038906 12.448945
v -59.057617 -12.331637 12.177494
v -127.853516 -14.021306 -6.296894
v -57.668949 -12.513640 -7.436633
v -115.497063 -3.797574 -22.040161
v -57.486324 -3.872916 -21.599171
v -127.853516 13.727190 -28.767279
v -59.057617 13.766836 -28.010683
v -114.293945 5.659712 18.273067
v -114.293945 16.428738 22.781916
v -114.293945 15.316777 1.564226
v -114.293945 -2.604069 8.068183
v -114.293945 4.239521 9.394993
v -114.293945 -5.206124 -3.934864
v -114.293945 2.123901 -1.970814
v -114.293945 3.616828 -14.172945
v -114.293945 7.504492 -8.943789
v -114.293945 14.204819 -19.653559
v -114.293945 16.971586 -12.665049
v 115.412102 3.744896 19.383293
v 115.412102 12.825309 12.677217
v 115.412102 13.937572 21.791883
v 115.412102 15.316777 1.564226
v 115.412102 -2.708064 9.661469
v 115.412102 2.196049 7.421138
v 115.412102 -5.206124 -3.934864
v 115.412102 2.250411 -4.218529
v 115.412102 1.945697 -14.947693
v 115.412102 14.659241 -17.768805
v 115.412102 13.840611 -12.787399
v -115.763680 16.580673 25.681231
v -128.697266 2.163649 21.818218
v -128.697266 -7.229277 10.218692
v -128.697266 -8.010453 -4.686306
v -114.653328 0.118590 -17.203899
v -128.697266 14.052850 -22.552790
v 128.000977 16.906385 31.895514
v 115.644524 -1.225567 27.037056
v 128.697266 16.554371 25.179152
v 114.946297 2.437482 21.396519
v 128.000977 -13.038906 12.448945
v 128.697266 -6.759924 10.038630
v 128.000977 -14.021306 -6.296894
v 128.697266 -7.524830 -4.556180
v 128.000977 -3.797574 -22.040161
v 128.697266 0.435006 -16.813179
v 128.000977 13.727190 -28.767279
v 128.697266 14.079196 -22.050791
v -32.518555 -12.264960 -6.883200
v -31.074221 -3.911133 -19.861759
v 37.146484 -8.122904 -12.460140
v 40.167969 0.719973 -26.077019
v 37.146484 -7.273165 3.753751
v 29.481447 2.944573 16.371838
v 39.928711 18.627594 20.574074
v 37.146484 15.877790 -31.895510
v -46.585938 -13.045635 -1.657021
v -45.665039 -13.770404 -9.699951
v -43.668945 -8.025950 -18.670210
v -39.607422 -12.575126 -11.871935
v -39.058594 -8.927896 -17.068438
v -43.083984 -1.298280 -22.093746
v -49.845703 -9.265770 -17.233927
v -50.281250 -11.922023 -12.943275
v -42.961914 -8.197946 -27.417707
v -31.577148 -10.425422 -23.461718
v -32.976562 -18.264990 -11.296471
v -46.135742 -21.461161 -6.574095
v -56.492188 -18.504614 -11.798653
v -56.459965 -10.336593 -25.179968
v -35.144531 -11.661492 -21.656893
v -43.844727 -9.958951 -24.680605
v -36.299805 -17.058302 -13.346712
v -45.515625 -19.700174 -9.311174
v -52.800781 -17.088577 -13.910112
v -53.406250 -11.197265 -23.532259
v 115.412102 5.376820 6.029408
v -114.293945 5.061895 -1.183558
v -114.293945 9.342752 -6.471132
v -57.785587 17.055157 -19.333357
v -59.057617 16.600403 -28.010683
v -114.293945 17.038387 -19.653559
v -128.697266 16.886414 -22.552790
v -127.853516 16.560753 -28.767279
v 37.507141 19.067814 -25.093929
v 37.146484 18.711363 -31.895508
v 128.000977 16.560753 -28.767279
v 128.697266 16.912762 -22.050791
v 115.412102 17.492805 -17.768805
v -50.386723 19.700285 31.139011
v -51.523430 19.293907 23.384796
v -116.474602 19.739950 31.895515
v -115.763680 19.414238 25.681232
v -114.293945 19.262306 22.781918
v 39.507740 21.045095 12.635007
v -15.515777 19.986595 19.132687
v 39.928711 21.461159 20.574074
v 115.412102 16.771137 21.791883
v 128.000977 19.739950 31.895515
v 128.697266 19.387939 25.179153
v 39.507740 18.211531 12.635005
v 50.243973 17.466469 4.855417
v 38.437080 17.153349 -7.556348
v -52.405857 16.144869 17.365171
v -42.463287 16.437149 18.338953
v -44.192070 16.166918 13.695645
v -30.201775 16.552027 14.495347
v -51.523430 16.460339 23.384794
v -54.494781 15.398067 3.115344
v 37.507141 16.234245 -25.093931
v -57.785587 14.221592 -19.333357
v -33.005959 15.803946 0.647709
v -103.765213 15.559397 -6.170314
v -83.638992 14.787840 -8.528657
v -68.792992 14.941149 -5.603299
v 5.560618 16.739338 0.269366
v 89.136612 16.077631 8.934192
v 69.949883 16.853081 4.538732
v 70.409340 16.410189 9.668418
v -86.654022 15.036695 -3.780126
v -15.515777 17.153027 19.132685
vt 0.9857 0.3129
vt 0.9857 0.3129
vt 0.9857 0.3129
vt 0.9857 0.3129
vt 0.9857 0.3129
vt 0.9857 0.3129
vt 0.9857 0.3129
vt 0.9857 0.3129
vt 0.9857 0.3129
vt 0.9857 0.3129
vt 0.9857 0.3129
vt 0.9857 0.3129
vt 0.0868 0.4158
vt 0.0868 0.4158
vt 0.0868 0.4158
vt 0.0868 0.4158
vt 0.0868 0.4158
vt 0.0868 0.4158
vt 0.0868 0.4158
vt 0.0868 0.4158
vt 0.0868 0.4158
vt 0.0868 0.4158
vt 0.0868 0.4158
vt 0.0868 0.4158
vt 0.0868 0.4158
vt 0.0868 0.4158
vt 0.0868 0.4158
vt 0.0868 0.4158
vt 0.0868 0.4158
vt 0.0868 0.4158
vt 0.0868 0.4158
vt 0.0868 0.4158
vt 0.0868 0.4158
vt 0.0868 0.4158
vt 0.9857 0.3129
vt 0.9857 0.3129
vt 0.9857 0.3129
vt 0.9857 0.3129
vt 0.9857 0.3129
vt 0.9857 0.3129
vt 0.9857 0.3129
vt 0.9857 0.3129
vt 0.9857 0.3129
vt 0.9857 0.3129
vt 0.9857 0.3129
vt 0.9857 0.3129
vt 0.9857 0.3129
vt 0.9857 0.3129
vt 0.9857 0.3129
vt 0.9857 0.3129
vt 0.9857 0.3129
vt 0.9857 0.3129
vt 0.9857 0.3129
vt 0.9857 0.3129
vt 0.9857 0.3129
vt 0.9857 0.3129
vt 0.9857 0.3129
vt 0.9857 0.3129
vt 0.9857 0.3129
vt 0.9857 0.3129
vt 0.9857 0.3129
vt 0.9857 0.3129
vt 0.9857 0.3129
vt 0.9857 0.3129
vt 0.9857 0.3129
vt 0.9857 0.3129
vt 0.9857 0.3129
vt 0.9857 0.3129
vt 0.9857 0.3129
vt 0.9857 0.3129
vt 0.9857 0.3129
vt 0.9857 0.3129
vt 0.9857 0.3129
vt 0.2175 0.3264
vt 0.2175 0.3264
vt 0.2175 0.3264
vt 0.2175 0.3264
vt 0.9857 0.3129
vt 0.2175 0.3264
vt 0.2175 0.3264
vt 0.9857 0.3129
vt 0.9857 0.3129
vt 0.9857 0.3129
vt 0.9857 0.3129
vt 0.9857 0.3129
vt 0.9857 0.3129
vt 0.9857 0.3129
vt 0.9857 0.3129
vt 0.9857 0.3129
vt 0.9857 0.3129
vt 0.9857 0.3129
vt 0.9857 0.3129
vt 0.9857 0.3129
vt 0.9857 0.3129
vt 0.9857 0.3129
vt 0.9857 0.3129
vt 0.9857 0.3129
vt 0.9857 0.3129
vt 0.0868 0.4158
vt 0.1016 0.3331
vt 0.1016 0.3331
vt 0.1016 0.3331
vt 0.1016 0.3331
vt 0.0868 0.4158
vt 0.0868 0.4158
vt 0.0967 0.3297
vt 0.0967 0.3297
vt 0.0967 0.3297
vt 0.0967 0.3298
vt 0.0967 0.3298
vt 0.0967 0.3297
vt 0.9908 0.3171
vt 0.9908 0.3171
vt 0.9908 0.3171
vt 0.9908 0.3171
vt 0.9908 0.3171
vt 0.9908 0.3171
vt 0.9908 0.3171
vt 0.9908 0.3171
vt 0.9908 0.3171
vt 0.9908 0.3171
vt 0.9908 0.3171
vt 0.9908 0.3171
vt 0.9908 0.3171
vt 0.9908 0.3171
vt 0.9908 0.3171
vt 0.9908 0.3171
vt 0.9908 0.3171
vt 0.9908 0.3171
vt 0.9908 0.3171
vt 0.9908 0.3171
vt 0.9908 0.3171
vt 0.0868 0.4234
vt 0.0868 0.4234
vt 0.0868 0.4234
vt 0.0868 0.3323
vt 0.0868 0.3323
vt 0.0868 0.3323
vt 0.0868 0.3323
vt 0.0868 0.4234
vt 0.0868 0.4234
vt 0.0868 0.4234
vt 0.0868 0.4234
vt 0.0868 0.4234
vt 0.0868 0.4234
vt 0.0868 0.4234
vt 0.0868 0.4234
vt 0.0868 0.4234
vt 0.0868 0.4234
vt 0.0868 0.4234
vt 0.0868 0.4234
vt 0.0868 0.4234
vt 0.0868 0.4234
vt 0.0868 0.4234
vt 0.0868 0.3323
vt 0.0868 0.3323
vt 0.0868 0.3323
vt 0.0868 0.4234
vt 0.0868 0.4234
vt 0.0868 0.3323
vt 0.0868 0.3323
vt 0.0868 0.3323
vt 0.0868 0.3323
vt 0.0868 0.4234
vt 0.0868 0.4234
vt 0.0868 0.4234
vt 0.0868 0.4234
vt 0.0868 0.3323
vt 0.0868 0.3323
vt 0.0868 0.3323
vt 0.0868 0.3323
vt 0.0868 0.4234
vt 0.0868 0.4234
vt 0.0868 0.4234
vt 0.0868 0.4234
vt 0.0868 0.4234
vt 0.9908 0.3171
vt 0.9908 0.3171
vt 0.9908 0.3171
vt 0.9908 0.3171
vt 0.9908 0.3171
vt 0.9908 0.3171
vt 0.9908 0.3171
vt 0.9908 0.3171
vt 0.9908 0.3171
vt 0.9908 0.3171
vt 0.9908 0.3171
vt 0.9908 0.3171
vt 0.9908 0.3171
vt 0.9908 0.3171
vt 0.9908 0.3171
vt 0.9908 0.3171
vt 0.9908 0.3171
vt 0.9908 0.3171
vt 0.9908 0.3171
vt 0.9908 0.3171
vt 0.9908 0.3171
vn 0.0109 -0.2652 0.9641
vn 0.0109 -0.2653 0.9641
vn 0.0109 -0.7771 0.6293
vn 0.0106 -0.7763 0.6302
vn 0.0108 -0.7768 0.6297
vn 0.0105 -0.7762 0.6305
vn 0.0105 -0.9986 0.0523
vn 0.0217 -0.9997 0.0108
vn 0.0093 -0.8420 -0.5395
vn 0.0029 -0.8537 -0.5208
vn 0.0105 -0.3519 -0.9360
vn 0.0097 -0.3495 -0.9369
vn 0.0076 -0.3437 -0.9391
vn 0.0067 -0.3411 -0.9400
vn -1.0000 0.0000 0.0000
vn 1.0000 0.0000 0.0000
vn -0.8253 0.5510 -0.1233
vn -0.7197 0.5234 0.4562
vn -0.9900 -0.1097 0.0888
vn -0.9900 -0.1410 0.0074
vn -0.9900 -0.1409 0.0074
vn -0.8005 0.5263 -0.2865
vn -0.6923 0.0945 -0.7154
vn -0.8006 -0.5942 -0.0776
vn -0.6923 -0.4969 0.5232
vn 0.8065 -0.5802 0.1140
vn 0.6972 -0.5588 -0.4492
vn 0.8064 0.5365 0.2486
vn 0.6972 0.1882 0.6917
vn 0.9941 -0.1081 0.0057
vn 0.9941 -0.0908 -0.0589
vn 0.9941 -0.0388 -0.1010
vn -0.3197 0.5021 -0.8036
vn -0.8718 0.1892 -0.4519
vn -0.3249 0.7350 -0.5952
vn -0.3121 0.9488 -0.0497
vn -0.1764 0.9620 -0.2085
vn -0.1961 0.9082 0.3698
vn -0.9970 0.0586 0.0505
vn -0.1961 0.1729 0.9652
vn -0.9965 0.0383 0.0740
vn 0.2426 0.0235 -0.9698
vn 0.9794 -0.0464 0.1965
vn 0.2801 0.8832 -0.3762
vn 0.9784 -0.1724 0.1144
vn 0.1694 0.9842 -0.0516
vn 0.2918 0.9407 -0.1728
vn 0.1694 0.8266 0.5368
vn 0.1694 0.3532 0.9201
vn 0.3083 0.2061 0.9287
vn 0.0067 -0.8412 -0.5407
vn 0.0070 -0.8399 -0.5427
vn 0.0068 -0.8407 -0.5415
vn 0.0071 -0.8394 -0.5435
vn 0.0592 -0.9951 0.0790
vn 0.0634 -0.9966 0.0522
vn 0.1016 -0.7638 0.6373
vn 0.0970 -0.7438 0.6613
vn 0.1166 -0.3259 0.9382
vn 0.1165 -0.3267 0.9379
vn 0.1162 -0.3276 0.9376
vn 0.1161 -0.3285 0.9374
vn -0.0261 -0.4522 -0.8915
vn -0.0571 -0.3677 -0.9282
vn -0.0172 -0.8368 -0.5472
vn -0.0179 -0.8381 -0.5452
vn -0.0174 -0.8372 -0.5466
vn -0.0181 -0.8385 -0.5445
vn -0.0682 -0.9963 0.0522
vn -0.1112 -0.8043 0.5837
vn -0.1062 -0.8148 0.5699
vn -0.1293 -0.1754 0.9760
vn -0.1292 -0.1750 0.9761
vn -0.1290 -0.1743 0.9762
vn -0.1289 -0.1738 0.9763
vn 0.0238 -0.3541 -0.9349
vn 0.0240 -0.3552 -0.9345
vn 0.0243 -0.3572 -0.9337
vn 0.0245 -0.3583 -0.9333
vn 0.1103 -0.9825 0.1501
vn -0.0294 -0.8388 -0.5437
vn 0.0381 -0.8198 -0.5714
vn 0.1255 -0.2446 -0.9615
vn -0.0509 -0.9987 0.0057
vn 0.0495 -0.8515 -0.5221
vn 0.0362 -0.8452 -0.5332
vn 0.0284 -0.3392 -0.9403
vn 0.2699 0.5912 -0.7600
vn 0.3702 0.4273 -0.8249
vn 0.9938 -0.1017 0.0452
vn 0.9937 -0.1027 0.0450
vn 0.9932 -0.1073 0.0445
vn 0.9931 -0.1084 0.0444
vn 0.3312 -0.4627 0.8223
vn 0.3969 -0.5633 0.7247
vn -0.9876 -0.1279 -0.0908
vn -0.9905 -0.1165 -0.0735
vn -0.1349 0.6038 -0.7856
vn -0.2148 0.4470 -0.8684
vn -0.4250 -0.4735 0.7715
vn -0.4936 -0.5732 0.6541
vn 0.0197 -0.8426 -0.5381
vn 0.0257 -0.8420 -0.5389
vn 0.0212 -0.8439 -0.5361
vn 0.0203 -0.8412 -0.5404
vn 0.0291 -0.8402 -0.5416
vn 0.0170 -0.8494 -0.5275
vn 0.0046 -0.8414 -0.5403
vn 0.0294 -0.8532 -0.5207
vn 0.0318 -0.8528 -0.5213
vn 0.0393 -0.8515 -0.5229
vn 0.0427 -0.8509 -0.5236
vn 0.0466 -0.8474 -0.5289
vn 0.0464 -0.8472 -0.5292
vn 0.0461 -0.8469 -0.5297
vn 0.0460 -0.8468 -0.5300
vn 0.0238 -0.8491 -0.5277
vn 0.0352 -0.8441 -0.5351
vn -0.2829 -0.9106 0.3012
vn -0.2828 -0.9106 0.3012
vn -0.2828 -0.9107 0.3012
vn -0.7930 -0.4547 -0.4055
vn -0.7939 -0.4543 -0.4040
vn -0.7946 -0.4541 -0.4030
vn -0.7949 -0.4540 -0.4026
vn -0.4022 0.0044 -0.9155
vn -0.3244 -0.0700 -0.9433
vn 0.8285 -0.4529 -0.3294
vn 0.8986 -0.4080 -0.1614
vn 0.1504 -0.9658 0.2111
vn 0.2526 -0.9232 0.2895
vn 0.5223 -0.0427 -0.8517
vn 0.5421 -0.1084 -0.8333
vn 0.0000 0.9986 -0.0523
vn -0.0242 0.9984 -0.0510
vn -0.0240 0.9985 -0.0494
vn -0.0241 0.9984 -0.0504
vn -0.0239 0.9985 -0.0488
vn 0.0255 0.9982 -0.0537
vn 0.0254 0.9981 -0.0552
vn 0.0255 0.9982 -0.0540
vn 0.0254 0.9981 -0.0557
vn 0.0255 0.9981 -0.0562
vn -0.0252 0.9984 -0.0510
vn -0.0248 0.9984 -0.0504
vn -0.0253 0.9984 -0.0503
vn -0.0251 0.9985 -0.0491
vn -0.0250 0.9985 -0.0487
vn 0.0628 0.9965 -0.0556
vn 0.0259 0.9984 -0.0496
vn 0.0539 0.6768 -0.7342
vn 0.0302 0.9981 -0.0539
vn -0.0245 0.9985 -0.0488
vn -0.0248 0.9985 -0.0492
vn -0.0246 0.9985 -0.0489
vn -0.0248 0.9985 -0.0489
vn 0.0252 0.9982 -0.0537
vn 0.0534 0.9854 0.1619
vn 0.0358 0.9941 -0.1023
vn -0.0240 0.9985 -0.0488
vn -0.0246 0.9985 -0.0498
vn -0.0243 0.9985 -0.0496
vn -0.0247 0.9984 -0.0500
vn -0.0247 0.9984 -0.0510
vn 0.0003 0.9950 -0.1002
vn 0.0446 0.9975 0.0545
vn -0.0249 0.9985 -0.0497
vn 0.0254 0.9996 -0.0128
vn 0.0842 0.9772 -0.1951
vn 0.0323 0.9960 0.0831
vn 0.0239 0.9962 0.0839
vn 0.0217 0.9962 0.0841
vn 0.0210 0.9962 0.0841
vn 0.0479 0.9965 0.0679
vn 0.0581 0.9982 -0.0155
vn 0.0223 0.9926 0.1196
vn 0.0219 0.9979 0.0612
vn 0.0619 0.9914 0.1153
vn 0.3318 0.8771 -0.3472
vn 0.0347 0.9989 -0.0303
vn -0.0250 0.9985 -0.0493
vn -0.0251 0.9984 -0.0499
vn -0.0248 0.9984 -0.0507
vn -0.0057 0.0000 1.0000
vn 0.0110 0.0000 -0.9999
vn -0.9909 0.0000 -0.1345
vn -0.1973 0.0000 0.9803
vn 0.0603 0.0000 0.9982
vn -0.0403 0.0000 -0.9992
vn -0.0936 0.0000 0.9956
vn 0.3068 0.0000 0.9518
vn 0.9947 0.0000 -0.1031
vn 0.0344 0.0000 -0.9994
vn 0.0096 0.0000 -1.0000
vn -0.8919 0.0000 -0.4521
vn -0.9935 0.0000 -0.1137
vn 0.0114 -0.0000 0.9999
vn 0.1162 -0.0000 0.9932
vn -0.1173 0.0000 -0.9931
vn 0.1198 0.0000 -0.9928
vn -0.1275 -0.0000 0.9918
vn 0.9947 0.0000 0.1031
vn 0.2471 0.0000 -0.9690
usemtl None
s 1
f 1/1/1 2/2/2 3/3/1
f 3/3/1 2/2/2 4/4/2
f 1/1/3 5/5/4 2/2/5
f 2/2/5 5/5/4 6/6/6
f 5/5/7 7/7/7 6/6/7
f 6/6/8 7/7/8 8/8/8
f 7/7/9 9/9/9 8/8/9
f 8/8/10 9/9/10 10/10/10
f 11/11/11 12/12/12 9/9/13
f 9/9/13 12/12/12 10/10/14
f 13/13/15 14/14/15 15/15/15
f 16/16/15 13/13/15 17/17/15
f 17/17/15 13/13/15 15/15/15
f 18/18/15 16/16/15 19/19/15
f 19/19/15 16/16/15 17/17/15
f 18/18/15 19/19/15 20/20/15
f 20/20/15 19/19/15 21/21/15
f 20/20/15 21/21/15 22/22/15
f 22/22/15 21/21/15 23/23/15
f 24/24/16 25/25/16 26/26/16
f 26/26/16 25/25/16 27/27/16
f 28/28/16 29/29/16 24/24/16
f 24/24/16 29/29/16 25/25/16
f 28/28/16 30/30/16 29/29/16
f 29/29/16 30/30/16 31/31/16
f 30/30/16 32/32/16 31/31/16
f 31/31/16 32/32/16 27/27/16
f 33/33/16 34/34/16 32/32/16
f 32/32/16 34/34/16 27/27/16
f 3/3/17 35/35/17 1/1/17
f 1/1/18 35/35/18 36/36/18
f 5/5/19 1/1/19 37/37/19
f 37/37/19 1/1/19 36/36/19
f 7/7/20 5/5/21 38/38/21
f 38/38/21 5/5/21 37/37/21
f 9/9/22 7/7/22 39/39/22
f 39/39/23 7/7/23 38/38/23
f 11/11/24 9/9/24 40/40/24
f 40/40/25 9/9/25 39/39/25
f 41/41/26 42/42/26 43/43/26
f 43/43/27 42/42/27 44/44/27
f 42/42/28 45/45/28 44/44/28
f 44/44/29 45/45/29 46/46/29
f 45/45/30 47/47/30 46/46/30
f 46/46/30 47/47/30 48/48/30
f 47/47/31 49/49/31 48/48/31
f 48/48/31 49/49/31 50/50/31
f 49/49/32 51/51/32 50/50/32
f 50/50/32 51/51/32 52/52/32
f 36/36/33 35/35/33 13/53/33
f 13/53/34 35/35/34 14/54/34
f 37/37/35 36/36/35 16/55/35
f 16/55/35 36/36/35 13/53/35
f 37/37/36 16/55/36 38/38/36
f 38/38/37 16/55/37 18/56/37
f 38/38/38 18/56/38 39/39/38
f 39/39/39 18/56/39 20/57/39
f 40/40/40 39/39/40 22/58/40
f 22/58/41 39/39/41 20/57/41
f 43/43/42 44/44/42 26/59/42
f 26/59/43 44/44/43 24/60/43
f 46/46/44 28/61/44 44/44/44
f 44/44/45 28/61/45 24/60/45
f 48/48/46 30/62/46 46/46/46
f 46/46/47 30/62/47 28/61/47
f 48/48/48 50/50/48 30/62/48
f 30/62/48 50/50/48 32/63/48
f 50/50/49 52/52/49 32/63/49
f 32/63/50 52/52/50 33/64/50
f 53/65/51 54/66/52 55/67/53
f 55/67/53 54/66/52 56/68/54
f 6/6/55 53/65/55 57/69/55
f 57/69/56 53/65/56 55/67/56
f 2/2/57 6/6/57 58/70/57
f 58/70/58 6/6/58 57/69/58
f 2/2/59 58/70/60 4/4/61
f 4/4/61 58/70/60 59/71/62
f 12/12/63 60/72/63 54/66/63
f 54/66/64 60/72/64 56/68/64
f 55/67/65 56/68/66 47/47/67
f 47/47/67 56/68/66 49/49/68
f 55/67/69 47/47/69 57/69/69
f 57/69/69 47/47/69 45/45/69
f 58/70/70 57/69/70 42/42/70
f 42/42/71 57/69/71 45/45/71
f 58/70/72 42/42/73 59/71/74
f 59/71/74 42/42/73 41/41/75
f 60/72/76 51/51/77 56/68/78
f 56/68/78 51/51/77 49/49/79
f 6/6/80 61/73/80 53/65/80
f 62/74/81 63/75/81 64/76/81
f 64/76/82 63/75/82 65/77/82
f 66/78/83 12/12/83 54/66/83
f 6/6/84 8/8/84 61/73/84
f 67/79/85 63/75/85 68/80/85
f 68/80/86 63/75/86 62/74/86
f 10/10/87 12/12/87 66/78/87
f 66/78/88 54/66/88 69/81/88
f 69/81/89 54/66/89 70/82/89
f 54/66/90 53/65/91 70/82/92
f 70/82/92 53/65/91 71/83/93
f 61/73/94 72/84/94 53/65/94
f 53/65/95 72/84/95 71/83/95
f 8/8/96 10/10/96 73/85/96
f 73/85/97 10/10/97 74/86/97
f 66/78/98 69/81/98 10/10/98
f 10/10/99 69/81/99 74/86/99
f 61/73/100 8/8/100 72/84/100
f 72/84/101 8/8/101 73/85/101
f 70/82/102 75/87/103 69/81/104
f 69/81/104 75/87/103 76/88/104
f 70/82/102 71/83/105 75/87/103
f 75/87/103 71/83/105 77/89/106
f 71/83/107 72/84/107 77/89/107
f 77/89/108 72/84/108 78/90/108
f 73/85/109 74/86/110 79/91/111
f 79/91/111 74/86/110 80/92/112
f 74/86/113 69/81/114 80/92/115
f 80/92/115 69/81/114 76/88/116
f 73/85/117 79/91/117 72/84/117
f 72/84/118 79/91/118 78/90/118
f 75/87/119 65/93/120 76/88/121
f 76/88/121 65/93/120 63/94/121
f 75/87/122 77/89/123 65/93/124
f 65/93/124 77/89/123 64/95/125
f 77/89/126 78/90/126 64/95/126
f 64/95/127 78/90/127 62/96/127
f 80/92/128 67/97/128 79/91/128
f 79/91/129 67/97/129 68/98/129
f 80/92/130 76/88/130 67/97/130
f 67/97/131 76/88/131 63/94/131
f 78/90/132 79/91/132 62/96/132
f 62/96/133 79/91/133 68/98/133
f 81/99/16 31/31/16 27/27/16
f 25/25/16 81/99/16 27/27/16
f 25/100/16 29/101/16 81/102/16
f 29/101/16 31/103/16 81/102/16
f 82/104/15 17/17/15 15/15/15
f 83/105/15 82/104/15 15/15/15
f 23/23/15 83/105/15 15/15/15
f 23/106/15 21/107/15 83/108/15
f 19/109/15 82/110/15 21/107/15
f 21/107/15 82/110/15 83/108/15
f 19/109/15 17/111/15 82/110/15
f 84/112/134 85/113/134 86/114/134
f 87/115/134 86/114/134 88/116/134
f 86/114/134 85/113/134 88/116/134
f 89/117/135 90/118/136 84/112/137
f 84/112/137 90/118/136 85/113/138
f 90/118/139 89/117/140 91/119/141
f 91/119/141 89/117/140 92/120/142
f 89/117/140 93/121/143 92/120/142
f 94/122/134 95/123/134 96/124/134
f 96/124/134 95/123/134 97/125/134
f 95/123/134 98/126/134 97/125/134
f 99/127/144 100/128/145 101/129/146
f 101/129/146 100/128/145 94/122/147
f 94/122/147 100/128/145 95/123/148
f 99/127/149 101/129/149 102/130/149
f 103/131/150 104/132/150 101/129/150
f 102/130/151 101/129/151 104/132/151
f 105/133/152 106/134/152 107/135/152
f 108/136/153 109/137/154 110/138/155
f 110/138/155 109/137/154 111/139/156
f 112/140/134 108/141/134 14/142/134
f 14/142/134 108/141/134 15/143/134
f 108/141/134 113/144/134 15/143/134
f 114/145/157 107/135/157 33/146/157
f 33/146/158 107/135/158 34/147/158
f 107/135/159 27/148/159 34/147/159
f 115/149/160 113/144/161 114/145/162
f 113/144/161 116/150/163 114/145/162
f 116/150/163 107/135/164 114/145/162
f 22/151/165 117/152/165 115/149/165
f 117/152/166 118/153/166 115/149/166
f 118/153/134 119/154/134 115/149/134
f 116/155/163 120/156/167 107/157/164
f 27/148/168 107/135/168 121/158/168
f 121/158/169 107/135/169 122/159/169
f 107/135/152 106/134/152 122/159/152
f 106/160/170 123/161/171 122/162/172
f 122/162/172 123/161/171 121/163/173
f 27/148/174 121/158/174 26/164/174
f 105/133/175 26/164/175 106/134/175
f 106/134/170 26/164/170 123/165/171
f 26/164/176 121/158/176 123/165/176
f 113/144/134 119/154/134 15/143/134
f 119/154/134 124/166/134 15/143/134
f 15/143/177 124/166/177 117/152/177
f 15/143/178 117/152/178 23/167/178
f 23/167/179 117/152/179 22/151/179
f 119/168/134 118/169/134 124/170/134
f 124/170/180 118/169/180 117/171/180
f 115/149/134 119/154/134 113/144/134
f 120/172/167 116/150/163 111/173/156
f 108/141/153 110/174/155 113/144/161
f 113/144/161 110/174/155 116/150/163
f 110/174/155 111/173/156 116/150/163
f 112/140/181 125/175/182 109/176/154
f 125/175/182 111/173/156 109/176/154
f 112/140/181 109/176/154 108/141/153
f 120/172/167 105/133/183 107/135/164
f 111/173/156 125/175/182 120/172/167
f 120/172/167 125/175/182 105/133/183
f 22/177/184 115/178/184 86/114/184
f 86/114/184 115/178/184 84/112/184
f 12/179/185 11/180/185 85/113/185
f 85/113/185 11/180/185 88/116/185
f 11/180/186 40/181/186 88/116/186
f 88/116/186 40/181/186 87/115/186
f 40/181/187 22/177/187 87/115/187
f 87/115/187 22/177/187 86/114/187
f 115/178/188 114/182/188 84/112/188
f 84/112/188 114/182/188 89/117/188
f 12/179/189 85/113/189 60/183/189
f 60/183/189 85/113/189 90/118/189
f 33/184/190 93/121/190 114/182/190
f 114/182/190 93/121/190 89/117/190
f 52/185/191 92/120/191 33/184/191
f 33/184/191 92/120/191 93/121/191
f 51/186/192 91/119/192 52/185/192
f 52/185/192 91/119/192 92/120/192
f 51/186/193 60/183/193 91/119/193
f 91/119/193 60/183/193 90/118/193
f 112/187/194 14/188/194 95/123/194
f 95/123/194 14/188/194 98/126/194
f 14/188/195 35/189/195 98/126/195
f 98/126/195 35/189/195 97/125/195
f 35/189/196 3/190/196 97/125/196
f 97/125/196 3/190/196 96/124/196
f 3/190/197 4/191/197 96/124/197
f 96/124/197 4/191/197 94/122/197
f 4/191/198 59/192/198 94/122/198
f 94/122/198 59/192/198 101/129/198
f 125/193/199 100/128/199 105/194/199
f 105/194/199 100/128/199 99/127/199
f 112/187/199 95/123/199 125/193/199
f 125/193/199 95/123/199 100/128/199
f 26/195/200 105/194/200 102/130/200
f 102/130/200 105/194/200 99/127/200
f 41/196/201 103/131/201 59/192/201
f 59/192/201 103/131/201 101/129/201
f 43/197/202 104/132/202 41/196/202
f 41/196/202 104/132/202 103/131/202
f 26/195/203 102/130/203 43/197/203
f 43/197/203 102/130/203 104/132/203
