# Blender v2.78 (sub 0) OBJ File: ''
# www.blender.org
mtllib SM_Bld_Village_Top_01.mtl
o SM_Bld_Village_Top_01
v 152.471481 1.046658 195.052185
v 174.102341 1.046628 195.052185
v 152.471481 1.046695 84.538391
v 174.102432 1.046695 84.538391
v 152.471481 1.046780 -176.190491
v 174.102341 1.046780 -176.190491
v 152.471481 -17.120792 -176.190491
v 174.102341 -17.120823 -176.190491
v 152.471451 -17.120876 84.538391
v 174.102432 -17.120876 84.538391
v 152.471481 -17.120945 195.052185
v 174.102341 -17.120945 195.052185
v 157.170517 1.046745 -69.370300
v 178.801376 1.046715 -69.370300
v 157.170517 -17.120827 -69.370300
v 178.801376 -17.120827 -69.370300
v -178.801254 1.046658 195.052185
v -157.170395 1.046658 195.052185
v -178.801254 1.046695 84.538391
v -157.170395 1.046695 84.538391
v -178.801376 1.046780 -176.190491
v -157.170517 1.046780 -176.190491
v -178.801376 -17.120792 -176.190491
v -157.170517 -17.120823 -176.190491
v -178.801254 -17.120876 84.538391
v -157.170395 -17.120876 84.538391
v -178.801376 -17.120914 195.052185
v -157.170273 -17.120945 195.052185
v -174.102219 1.046745 -69.370300
v -152.471359 1.046745 -69.370300
v -174.102341 -17.120827 -69.370300
v -152.471359 -17.120827 -69.370300
v -156.536789 1.046669 162.430847
v -156.536789 1.046631 184.061707
v -64.759811 1.046669 162.430847
v -64.759811 1.046662 184.061707
v 151.764236 1.046669 162.430847
v 151.764206 1.046662 184.061707
v 151.764236 -17.120903 162.430847
v 151.764206 -17.120941 184.061707
v -64.759811 -17.120903 162.430847
v -64.759811 -17.120911 184.061707
v -156.536789 -17.120903 162.430847
v -156.536789 -17.120941 184.061707
v 63.054764 1.046638 167.129822
v 63.054764 1.046661 188.760681
v 63.054703 -17.120903 167.129822
v 63.054764 -17.120911 188.760681
v -156.536667 1.046777 -168.841858
v -156.536789 1.046741 -147.210999
v -64.759750 1.046777 -168.841858
v -64.759811 1.046741 -147.210999
v 151.764206 1.046777 -168.841858
v 151.764206 1.046741 -147.210999
v 151.764206 -17.120796 -168.841858
v 151.764206 -17.120800 -147.210999
v -64.759750 -17.120796 -168.841858
v -64.759811 -17.120800 -147.210999
v -156.536789 -17.120796 -168.841858
v -156.536789 -17.120800 -147.210999
v 63.054764 1.046776 -164.142883
v 63.054764 1.046738 -142.512024
v 63.054764 -17.120796 -164.142883
v 63.054764 -17.120804 -142.512024
v 69.567093 13.225608 216.347351
v 85.416031 9.127189 216.347351
v 69.567093 13.225639 209.501160
v 91.198013 13.225639 209.501160
v 69.567093 13.225778 -216.347351
v 91.198013 13.225778 -216.347351
v 69.567093 1.058480 -216.347351
v 91.198013 1.058480 -216.347351
v 69.567093 1.058342 209.501160
v 91.197952 1.058312 209.501160
v 69.567093 1.058341 216.347351
v 91.197952 1.058341 216.347351
v 67.423721 17.120911 -0.383597
v 89.054642 17.120911 -0.383597
v 74.266129 13.225739 -91.845642
v 95.897049 13.225769 -91.845642
v 67.423721 4.953613 -0.383601
v 74.266129 1.058441 -91.845642
v 95.897049 1.058441 -91.845642
v 89.054642 4.953613 -0.383601
v 174.102341 13.225638 216.347351
v 174.102341 13.225640 203.076843
v 157.821518 10.289634 216.347351
v 152.471481 13.225671 203.076843
v 152.471481 13.225808 -216.347351
v 174.102341 13.225778 -216.347351
v 152.471481 1.058480 -216.347351
v 174.102341 1.058480 -216.347351
v 152.471481 1.058345 203.076843
v 174.102341 1.058345 203.076843
v 152.471481 1.058402 216.347351
v 174.102341 1.058341 216.347351
v 178.429947 13.225722 147.282654
v 169.170700 13.225716 -25.397028
v 156.799088 13.225661 147.282654
v 147.539841 13.225716 -25.397028
v 156.799088 1.058301 147.282654
v 147.539810 1.058449 -25.397032
v 169.170700 1.058419 -25.397032
v 178.430038 1.058362 147.282654
v -13.217941 9.791892 215.651794
v 1.407974 9.791892 215.651794
v -16.720444 13.225639 209.804626
v 4.910476 13.225639 209.804626
v -16.720444 13.225778 -216.347351
v 4.910476 13.225778 -216.347351
v -16.720444 1.058480 -216.347351
v 4.910476 1.058480 -216.347351
v -16.720444 1.058342 209.804626
v 4.910476 1.058312 209.804626
v -16.720444 1.058341 216.347351
v 4.910476 1.058311 216.347351
v -16.720444 13.225678 87.539978
v 4.910476 13.225678 87.539978
v -12.021408 13.225739 -91.845642
v 9.609512 13.225739 -91.845642
v -16.720444 1.058381 87.539978
v -12.021408 1.058441 -91.845642
v 9.609512 1.058441 -91.845642
v 4.910476 1.058381 87.539978
v -95.565598 13.225638 216.347351
v -73.934677 13.225638 216.347351
v -83.842453 10.386288 104.877380
v -62.211533 10.386288 104.877380
v -95.565598 13.225778 -216.347351
v -73.934677 13.225778 -216.347351
v -95.565598 1.058450 -216.347351
v -73.934677 1.058480 -216.347351
v -62.211533 -1.781010 104.877380
v -73.934677 1.058341 216.347351
v -83.842453 -1.781010 104.877380
v -95.565598 1.058341 216.347351
v -75.805893 13.225739 -99.929871
v -97.436813 13.225739 -99.929871
v -97.436813 1.058444 -99.929871
v -75.805893 1.058444 -99.929871
v -178.801376 13.225638 216.347351
v -157.170395 13.225638 216.347351
v -178.801376 13.225639 208.995300
v -157.170395 13.225639 208.995300
v -178.801376 13.225778 -216.347351
v -157.170517 13.225778 -216.347351
v -178.801376 1.058419 -216.347351
v -157.170395 1.058480 -216.347351
v -178.801376 1.058342 208.995300
v -157.170395 1.058342 208.995300
v -175.593552 4.080192 216.347351
v -157.170395 1.058341 216.347351
v -147.398788 13.225671 109.118347
v -148.126266 7.912777 -85.308289
v -169.029709 13.225671 109.118347
v -169.757065 7.912808 -85.308289
v -169.029709 1.058406 109.118347
v -169.757065 -4.254489 -85.308289
v -148.126266 -4.254489 -85.308289
v -147.398849 1.058376 109.118347
vt 0.0391 0.3353
vt 0.0391 0.3353
vt 0.0391 0.3353
vt 0.0391 0.3353
vt 0.0391 0.3353
vt 0.0391 0.3353
vt 0.0391 0.3353
vt 0.0391 0.3353
vt 0.0391 0.3353
vt 0.0391 0.3353
vt 0.0391 0.3353
vt 0.0391 0.3353
vt 0.0391 0.3353
vt 0.0391 0.3353
vt 0.0391 0.3353
vt 0.0391 0.3353
vt 0.0391 0.3353
vt 0.0391 0.3353
vt 0.0391 0.3353
vt 0.0391 0.3353
vt 0.0391 0.3353
vt 0.0391 0.3353
vt 0.0391 0.3353
vt 0.0391 0.3353
vt 0.0391 0.3353
vt 0.0391 0.3353
vt 0.0391 0.3353
vt 0.0391 0.3353
vt 0.0391 0.3353
vt 0.0391 0.3353
vt 0.0391 0.3353
vt 0.0391 0.3353
vt 0.0391 0.3353
vt 0.0391 0.3353
vt 0.0391 0.3353
vt 0.0391 0.3353
vt 0.0391 0.3353
vt 0.0391 0.3353
vt 0.0391 0.3353
vt 0.0391 0.3353
vt 0.0391 0.3353
vt 0.0391 0.3353
vt 0.0391 0.3353
vt 0.0391 0.3353
vt 0.0391 0.3353
vt 0.0391 0.3353
vt 0.0391 0.3353
vt 0.0391 0.3353
vt 0.0391 0.3353
vt 0.0391 0.3353
vt 0.0391 0.3353
vt 0.0391 0.3353
vt 0.0391 0.3353
vt 0.0391 0.3353
vt 0.0391 0.3353
vt 0.0391 0.3353
vt 0.0391 0.3353
vt 0.0391 0.3353
vt 0.0391 0.3353
vt 0.0391 0.3353
vt 0.0391 0.3353
vt 0.0391 0.3353
vt 0.0391 0.3353
vt 0.0391 0.3353
vt 0.0391 0.3353
vt 0.0391 0.3353
vt 0.0391 0.3353
vt 0.0391 0.3353
vt 0.0391 0.3353
vt 0.0391 0.3353
vt 0.0391 0.3353
vt 0.0391 0.3353
vt 0.0391 0.3353
vt 0.0391 0.3353
vt 0.0391 0.3353
vt 0.0391 0.3353
vt 0.0391 0.3353
vt 0.0391 0.3353
vt 0.0391 0.3353
vt 0.0391 0.3353
vt 0.0391 0.3353
vt 0.0391 0.3353
vt 0.0391 0.3353
vt 0.0391 0.3353
vt 0.0391 0.3353
vt 0.0391 0.3353
vt 0.0391 0.3353
vt 0.0391 0.3353
vt 0.0391 0.3353
vt 0.0391 0.3353
vt 0.0391 0.3353
vt 0.0391 0.3353
vt 0.0391 0.3353
vt 0.0391 0.3353
vt 0.0391 0.3353
vt 0.0391 0.3353
vt 0.0391 0.3353
vt 0.0391 0.3353
vt 0.0391 0.3353
vt 0.0391 0.3353
vt 0.0391 0.3353
vt 0.0391 0.3353
vt 0.0391 0.3353
vt 0.0391 0.3353
vt 0.0391 0.3353
vt 0.0391 0.3353
vt 0.0391 0.3353
vt 0.0391 0.3353
vt 0.0391 0.3353
vt 0.0391 0.3353
vt 0.0391 0.3353
vt 0.0391 0.3353
vt 0.0391 0.3353
vt 0.0391 0.3353
vt 0.0391 0.3353
vt 0.0391 0.3353
vt 0.0391 0.3353
vt 0.0391 0.3353
vt 0.0391 0.3353
vt 0.0391 0.3353
vt 0.0391 0.3353
vt 0.0391 0.3353
vt 0.0391 0.3353
vt 0.0391 0.3353
vt 0.0391 0.3353
vt 0.0391 0.3353
vt 0.0391 0.3353
vt 0.0391 0.3353
vt 0.0391 0.3353
vt 0.0391 0.3353
vt 0.0391 0.3353
vt 0.0391 0.3353
vt 0.0391 0.3353
vt 0.0391 0.3353
vt 0.0391 0.3353
vt 0.0391 0.3353
vt 0.0391 0.3353
vt 0.0391 0.3353
vt 0.0391 0.3353
vt 0.0391 0.3353
vt 0.0391 0.3353
vt 0.0391 0.3353
vt 0.0391 0.3353
vt 0.0391 0.3353
vt 0.0391 0.3353
vt 0.0391 0.3353
vt 0.0391 0.3353
vt 0.0391 0.3353
vt 0.0391 0.3353
vt 0.0391 0.3353
vt 0.0391 0.3353
vt 0.0391 0.3353
vt 0.0391 0.3353
vt 0.0391 0.3353
vt 0.0391 0.3353
vt 0.0391 0.3353
vt 0.0391 0.3353
vt 0.0391 0.3353
vt 0.0391 0.3353
vt 0.0391 0.3353
vn 0.0000 1.0000 0.0000
vn 0.0000 0.0000 -1.0000
vn 0.0000 -1.0000 -0.0000
vn 0.0000 0.0000 1.0000
vn 1.0000 0.0000 0.0000
vn -1.0000 0.0000 0.0000
vn -0.9995 0.0000 -0.0305
vn 0.9995 0.0000 0.0305
vn -0.9990 0.0000 0.0439
vn 0.9990 0.0000 -0.0439
vn 0.0367 0.0000 -0.9993
vn -0.0367 0.0000 0.9993
vn -0.0529 0.0000 -0.9986
vn 0.0529 0.0000 0.9986
vn 0.2504 0.9682 0.0000
vn 0.0000 0.8580 0.5136
vn 0.8129 0.5825 -0.0000
vn 0.7640 -0.0000 0.6452
vn -0.9999 -0.0000 0.0102
vn 0.0000 0.9991 -0.0425
vn -0.9972 -0.0000 -0.0746
vn 0.0000 -0.9991 0.0425
vn 0.9972 0.0000 0.0746
vn -0.9993 0.0000 0.0377
vn 0.9993 0.0000 -0.0377
vn 0.0000 0.9998 0.0186
vn 0.0000 -0.9998 -0.0186
vn 0.9999 -0.0000 -0.0102
vn -0.1775 0.9841 0.0000
vn 0.0000 0.9764 0.2160
vn -0.8652 0.5014 -0.0000
vn -0.9275 0.0000 0.3739
vn -0.9986 0.0000 0.0535
vn 0.9986 0.0000 -0.0535
vn -0.9997 0.0000 -0.0258
vn 0.9997 0.0000 0.0258
vn -0.9970 0.0000 -0.0773
vn 0.9970 0.0000 0.0773
vn 0.0000 0.8623 0.5064
vn 0.0000 0.0794 0.9968
vn 0.9281 0.3722 0.0000
vn 0.8579 0.0000 0.5139
vn -0.9281 0.3722 0.0000
vn -0.8579 0.0000 0.5139
vn -0.9997 0.0000 -0.0262
vn 0.9997 0.0000 0.0262
vn 0.0000 0.9997 -0.0255
vn 0.0000 -0.9997 0.0255
vn 0.9945 0.0000 0.1046
vn -0.9945 0.0000 -0.1046
vn 0.0000 0.9999 0.0139
vn 0.0000 1.0000 0.0001
vn -0.0000 0.9999 0.0137
vn -0.9978 0.0000 0.0662
vn 0.0000 -0.9999 -0.0137
vn -0.0000 -1.0000 -0.0001
vn 0.0000 -0.9999 -0.0139
vn 0.9978 0.0000 -0.0662
vn -0.9999 0.0000 -0.0161
vn 0.9999 0.0000 0.0161
vn 0.0000 -0.9249 0.3802
vn -0.1619 -0.9868 -0.0000
vn -0.9436 -0.3310 -0.0000
vn -0.9166 0.0000 0.3999
vn 0.0000 0.9996 -0.0273
vn -1.0000 0.0000 0.0037
vn 0.0000 -0.9996 0.0273
vn 1.0000 -0.0000 -0.0037
vn 0.0000 0.9992 0.0405
vn -0.9976 0.0000 0.0689
vn 0.0000 -0.9992 -0.0405
vn 0.9976 0.0000 -0.0689
vn -0.9952 0.0000 -0.0974
vn 0.9952 0.0000 0.0974
usemtl None
s 1
f 1/1/1 2/2/1 3/3/1
f 3/3/1 2/2/1 4/4/1
f 5/5/2 6/6/2 7/7/2
f 7/7/2 6/6/2 8/8/2
f 9/9/3 10/10/3 11/11/3
f 11/11/3 10/10/3 12/12/3
f 11/11/4 12/12/4 1/1/4
f 1/1/4 12/12/4 2/2/4
f 2/2/5 12/12/5 4/4/5
f 4/4/5 12/12/5 10/10/5
f 11/11/6 1/1/6 9/9/6
f 9/9/6 1/1/6 3/3/6
f 3/3/1 4/4/1 13/13/1
f 13/13/1 4/4/1 14/14/1
f 9/9/7 3/3/7 15/15/7
f 15/15/7 3/3/7 13/13/7
f 16/16/3 10/10/3 15/15/3
f 15/15/3 10/10/3 9/9/3
f 4/4/8 10/10/8 14/14/8
f 14/14/8 10/10/8 16/16/8
f 14/14/1 6/6/1 13/13/1
f 13/13/1 6/6/1 5/5/1
f 15/15/9 13/13/9 7/7/9
f 7/7/9 13/13/9 5/5/9
f 7/7/3 8/8/3 15/15/3
f 15/15/3 8/8/3 16/16/3
f 14/14/10 16/16/10 6/6/10
f 6/6/10 16/16/10 8/8/10
f 17/17/1 18/18/1 19/19/1
f 19/19/1 18/18/1 20/20/1
f 21/21/2 22/22/2 23/23/2
f 23/23/2 22/22/2 24/24/2
f 25/25/3 26/26/3 27/27/3
f 27/27/3 26/26/3 28/28/3
f 27/27/4 28/28/4 17/17/4
f 17/17/4 28/28/4 18/18/4
f 18/18/5 28/28/5 20/20/5
f 20/20/5 28/28/5 26/26/5
f 27/27/6 17/17/6 25/25/6
f 25/25/6 17/17/6 19/19/6
f 19/19/1 20/20/1 29/29/1
f 29/29/1 20/20/1 30/30/1
f 25/25/7 19/19/7 31/31/7
f 31/31/7 19/19/7 29/29/7
f 32/32/3 26/26/3 31/31/3
f 31/31/3 26/26/3 25/25/3
f 20/20/8 26/26/8 30/30/8
f 30/30/8 26/26/8 32/32/8
f 30/30/1 22/22/1 29/29/1
f 29/29/1 22/22/1 21/21/1
f 31/31/9 29/29/9 23/23/9
f 23/23/9 29/29/9 21/21/9
f 23/23/3 24/24/3 31/31/3
f 31/31/3 24/24/3 32/32/3
f 30/30/10 32/32/10 22/22/10
f 22/22/10 32/32/10 24/24/10
f 33/33/1 34/34/1 35/35/1
f 35/35/1 34/34/1 36/36/1
f 37/37/5 38/38/5 39/39/5
f 39/39/5 38/38/5 40/40/5
f 41/41/3 42/42/3 43/43/3
f 43/43/3 42/42/3 44/44/3
f 43/43/6 44/44/6 33/33/6
f 33/33/6 44/44/6 34/34/6
f 34/34/4 44/44/4 36/36/4
f 36/36/4 44/44/4 42/42/4
f 43/43/2 33/33/2 41/41/2
f 41/41/2 33/33/2 35/35/2
f 35/35/1 36/36/1 45/45/1
f 45/45/1 36/36/1 46/46/1
f 41/41/11 35/35/11 47/47/11
f 47/47/11 35/35/11 45/45/11
f 48/48/3 42/42/3 47/47/3
f 47/47/3 42/42/3 41/41/3
f 36/36/12 42/42/12 46/46/12
f 46/46/12 42/42/12 48/48/12
f 46/46/1 38/38/1 45/45/1
f 45/45/1 38/38/1 37/37/1
f 47/47/13 45/45/13 39/39/13
f 39/39/13 45/45/13 37/37/13
f 39/39/3 40/40/3 47/47/3
f 47/47/3 40/40/3 48/48/3
f 46/46/14 48/48/14 38/38/14
f 38/38/14 48/48/14 40/40/14
f 49/49/1 50/50/1 51/51/1
f 51/51/1 50/50/1 52/52/1
f 53/53/5 54/54/5 55/55/5
f 55/55/5 54/54/5 56/56/5
f 57/57/3 58/58/3 59/59/3
f 59/59/3 58/58/3 60/60/3
f 59/59/6 60/60/6 49/49/6
f 49/49/6 60/60/6 50/50/6
f 50/50/4 60/60/4 52/52/4
f 52/52/4 60/60/4 58/58/4
f 59/59/2 49/49/2 57/57/2
f 57/57/2 49/49/2 51/51/2
f 51/51/1 52/52/1 61/61/1
f 61/61/1 52/52/1 62/62/1
f 57/57/11 51/51/11 63/63/11
f 63/63/11 51/51/11 61/61/11
f 64/64/3 58/58/3 63/63/3
f 63/63/3 58/58/3 57/57/3
f 52/52/12 58/58/12 62/62/12
f 62/62/12 58/58/12 64/64/12
f 62/62/1 54/54/1 61/61/1
f 61/61/1 54/54/1 53/53/1
f 63/63/13 61/61/13 55/55/13
f 55/55/13 61/61/13 53/53/13
f 55/55/3 56/56/3 63/63/3
f 63/63/3 56/56/3 64/64/3
f 62/62/14 64/64/14 54/54/14
f 54/54/14 64/64/14 56/56/14
f 65/65/15 66/66/15 67/67/15
f 67/67/16 66/66/16 68/68/16
f 69/69/2 70/70/2 71/71/2
f 71/71/2 70/70/2 72/72/2
f 73/73/3 74/74/3 75/75/3
f 75/75/3 74/74/3 76/76/3
f 76/76/4 66/66/4 75/75/4
f 75/75/4 66/66/4 65/65/4
f 76/76/17 74/74/17 66/66/17
f 66/66/18 74/74/18 68/68/18
f 75/75/6 65/65/6 73/73/6
f 73/73/6 65/65/6 67/67/19
f 77/77/20 78/78/20 79/79/20
f 79/79/20 78/78/20 80/80/20
f 77/77/21 79/79/21 81/81/21
f 81/81/21 79/79/21 82/82/21
f 83/83/22 84/84/22 82/82/22
f 82/82/22 84/84/22 81/81/22
f 78/78/23 84/84/23 80/80/23
f 80/80/23 84/84/23 83/83/23
f 80/80/1 70/70/1 79/79/1
f 79/79/1 70/70/1 69/69/1
f 82/82/24 79/79/24 71/71/24
f 71/71/24 79/79/24 69/69/24
f 71/71/3 72/72/3 82/82/3
f 82/82/3 72/72/3 83/83/3
f 80/80/25 83/83/25 70/70/25
f 70/70/25 83/83/25 72/72/25
f 68/68/26 78/78/26 67/67/26
f 67/67/26 78/78/26 77/77/26
f 73/73/6 67/67/19 81/81/19
f 81/81/19 67/67/19 77/77/19
f 81/81/27 84/84/27 73/73/27
f 73/73/27 84/84/27 74/74/27
f 74/74/28 84/84/28 68/68/28
f 68/68/28 84/84/28 78/78/28
f 85/85/29 86/86/29 87/87/29
f 87/87/30 86/86/30 88/88/30
f 89/89/2 90/90/2 91/91/2
f 91/91/2 90/90/2 92/92/2
f 93/93/3 94/94/3 95/95/3
f 95/95/3 94/94/3 96/96/3
f 95/95/4 96/96/4 87/87/4
f 87/87/4 96/96/4 85/85/4
f 85/85/5 96/96/5 86/86/5
f 86/86/5 96/96/5 94/94/5
f 95/95/31 87/87/31 93/93/31
f 93/93/32 87/87/32 88/88/32
f 97/97/1 98/98/1 99/99/1
f 99/99/1 98/98/1 100/100/1
f 101/101/33 99/99/33 102/102/33
f 102/102/33 99/99/33 100/100/33
f 102/102/3 103/103/3 101/101/3
f 101/101/3 103/103/3 104/104/3
f 97/97/34 104/104/34 98/98/34
f 98/98/34 104/104/34 103/103/34
f 100/100/1 98/98/1 89/89/1
f 89/89/1 98/98/1 90/90/1
f 102/102/35 100/100/35 91/91/35
f 91/91/35 100/100/35 89/89/35
f 92/92/3 103/103/3 91/91/3
f 91/91/3 103/103/3 102/102/3
f 98/98/36 103/103/36 90/90/36
f 90/90/36 103/103/36 92/92/36
f 88/88/1 86/86/1 99/99/1
f 99/99/1 86/86/1 97/97/1
f 93/93/37 88/88/37 101/101/37
f 101/101/37 88/88/37 99/99/37
f 104/104/3 94/94/3 101/101/3
f 101/101/3 94/94/3 93/93/3
f 86/86/38 94/94/38 97/97/38
f 97/97/38 94/94/38 104/104/38
f 105/105/39 106/106/39 107/107/39
f 107/107/39 106/106/39 108/108/39
f 109/109/2 110/110/2 111/111/2
f 111/111/2 110/110/2 112/112/2
f 113/113/3 114/114/3 115/115/3
f 115/115/3 114/114/3 116/116/3
f 115/115/40 116/116/40 105/105/40
f 105/105/40 116/116/40 106/106/40
f 116/116/41 114/114/41 106/106/41
f 106/106/42 114/114/42 108/108/42
f 115/115/43 105/105/43 113/113/43
f 113/113/44 105/105/44 107/107/44
f 117/117/1 118/118/1 119/119/1
f 119/119/1 118/118/1 120/120/1
f 121/121/45 117/117/45 122/122/45
f 122/122/45 117/117/45 119/119/45
f 123/123/3 124/124/3 122/122/3
f 122/122/3 124/124/3 121/121/3
f 118/118/46 124/124/46 120/120/46
f 120/120/46 124/124/46 123/123/46
f 120/120/1 110/110/1 119/119/1
f 119/119/1 110/110/1 109/109/1
f 122/122/24 119/119/24 111/111/24
f 111/111/24 119/119/24 109/109/24
f 111/111/3 112/112/3 122/122/3
f 122/122/3 112/112/3 123/123/3
f 120/120/25 123/123/25 110/110/25
f 110/110/25 123/123/25 112/112/25
f 107/107/1 108/108/1 117/117/1
f 117/117/1 108/108/1 118/118/1
f 113/113/6 107/107/6 121/121/6
f 121/121/6 107/107/6 117/117/6
f 121/121/3 124/124/3 113/113/3
f 113/113/3 124/124/3 114/114/3
f 108/108/5 114/114/5 118/118/5
f 118/118/5 114/114/5 124/124/5
f 125/125/47 126/126/47 127/127/47
f 127/127/47 126/126/47 128/128/47
f 129/129/2 130/130/2 131/131/2
f 131/131/2 130/130/2 132/132/2
f 133/133/48 134/134/48 135/135/48
f 135/135/48 134/134/48 136/136/48
f 136/136/4 134/134/4 125/125/4
f 125/125/4 134/134/4 126/126/4
f 126/126/49 134/134/49 128/128/49
f 128/128/49 134/134/49 133/133/49
f 125/125/50 127/127/50 136/136/50
f 136/136/50 127/127/50 135/135/50
f 128/128/51 137/137/52 127/127/51
f 127/127/51 137/137/52 138/138/53
f 135/135/54 127/127/54 139/139/54
f 139/139/54 127/127/54 138/138/54
f 139/139/55 140/140/56 135/135/57
f 135/135/57 140/140/56 133/133/57
f 133/133/58 140/140/58 128/128/58
f 128/128/58 140/140/58 137/137/58
f 138/138/53 137/137/52 129/129/1
f 129/129/1 137/137/52 130/130/1
f 139/139/59 138/138/59 131/131/59
f 131/131/59 138/138/59 129/129/59
f 132/132/3 140/140/56 131/131/3
f 131/131/3 140/140/56 139/139/55
f 137/137/60 140/140/60 130/130/60
f 130/130/60 140/140/60 132/132/60
f 141/141/1 142/142/1 143/143/1
f 143/143/1 142/142/1 144/144/1
f 145/145/2 146/146/2 147/147/2
f 147/147/2 146/146/2 148/148/2
f 149/149/61 150/150/61 151/151/61
f 151/151/62 150/150/62 152/152/62
f 152/152/4 142/142/4 151/151/4
f 151/151/4 142/142/4 141/141/4
f 142/142/5 152/152/5 144/144/5
f 144/144/5 152/152/5 150/150/5
f 141/141/63 143/143/63 151/151/63
f 151/151/64 143/143/64 149/149/64
f 153/153/65 154/154/65 155/155/65
f 155/155/65 154/154/65 156/156/65
f 155/155/66 156/156/66 157/157/66
f 157/157/66 156/156/66 158/158/66
f 158/158/67 159/159/67 157/157/67
f 157/157/67 159/159/67 160/160/67
f 153/153/68 160/160/68 154/154/68
f 154/154/68 160/160/68 159/159/68
f 154/154/69 146/146/69 156/156/69
f 156/156/69 146/146/69 145/145/69
f 158/158/70 156/156/70 147/147/70
f 147/147/70 156/156/70 145/145/70
f 147/147/71 148/148/71 158/158/71
f 158/158/71 148/148/71 159/159/71
f 159/159/72 148/148/72 154/154/72
f 154/154/72 148/148/72 146/146/72
f 143/143/1 144/144/1 155/155/1
f 155/155/1 144/144/1 153/153/1
f 149/149/73 143/143/73 157/157/73
f 157/157/73 143/143/73 155/155/73
f 160/160/3 150/150/3 157/157/3
f 157/157/3 150/150/3 149/149/3
f 144/144/74 150/150/74 153/153/74
f 153/153/74 150/150/74 160/160/74
