# Blender v2.78 (sub 0) OBJ File: ''
# www.blender.org
mtllib SM_Bld_Market_Snow_01.mtl
o SM_Bld_Market_Snow_01
v -171.420258 -12.889914 94.361603
v -138.225891 -17.243023 134.406311
v -120.773010 -6.313851 81.281845
v -105.760803 -15.018547 129.463165
v -78.330170 -21.021786 115.665634
v -105.241013 -6.818703 82.096794
v -80.800110 -25.345854 83.378807
v -38.721630 -24.878523 133.058594
v -38.721630 -21.387220 88.290146
v 4.287642 -13.136239 145.820465
v 3.690983 -7.406476 90.148560
v 46.421448 -22.854952 138.209351
v 46.185108 -15.205910 86.617043
v 84.652870 -24.244715 126.723900
v 83.064171 -21.938030 80.819122
v 135.338440 -14.109795 121.593246
v 131.681885 -13.509125 80.127846
v 174.781494 -10.004897 121.682663
v 164.601074 -9.692198 80.378601
v -159.352997 3.177043 39.946560
v -122.733719 0.273252 39.719528
v -81.134346 -18.438126 41.060307
v -38.721630 -15.495858 42.080620
v 3.731608 -0.493741 41.371582
v 45.941994 -3.778433 37.436569
v 89.130699 -13.300800 38.119808
v 131.096283 -6.920439 38.971115
v 168.297485 -2.091326 39.588589
v -125.036804 10.619040 -2.856322
v -171.181183 9.122552 -6.544651
v -81.131233 -9.199039 -0.563477
v -38.718094 -7.990727 -0.297117
v 3.095589 4.532559 -2.653132
v 44.619884 0.791320 -6.601136
v 88.663116 -4.805425 -3.448200
v 150.301453 6.665604 0.218031
v 173.191833 -4.372128 -0.239681
v -126.235809 21.797409 -46.274765
v -175.654053 11.643141 -48.196068
v -80.526817 0.859760 -43.766621
v -38.414883 0.164312 -43.526188
v 2.471336 10.651154 -44.989933
v 43.824982 7.075823 -48.380592
v 88.403984 5.776973 -44.510914
v 161.523956 18.436659 -39.839989
v 179.331299 -4.245680 -42.227123
v -119.794739 39.652580 -91.966805
v -179.331299 30.138056 -107.038834
v -79.915329 17.798277 -86.616028
v -38.375103 15.159709 -87.187553
v 2.659319 22.368576 -90.138359
v 45.200191 20.654068 -93.591515
v 89.481415 17.619331 -89.815895
v 147.417633 44.792473 -103.870079
v 172.370941 41.605873 -104.595093
v -130.697388 50.242912 -137.745117
v -79.913010 35.315163 -128.269012
v -35.002804 28.098537 -115.694153
v 4.762006 36.522194 -135.395569
v 47.294697 34.853584 -142.722076
v 88.683907 31.169615 -134.416626
v 151.857574 43.686256 -139.354187
v 173.031342 42.306877 -136.969147
v -166.237061 -36.205173 130.703796
v -158.586121 21.493408 -145.820465
v -138.225891 -31.280710 134.406311
v -166.237061 -50.242912 130.703766
v -105.760803 -29.056236 129.463135
v -78.330170 -35.059471 115.665611
v -38.721630 -38.916214 133.058563
v 4.287642 -27.173925 145.820465
v 46.421448 -36.892639 138.209351
v 84.652870 -38.282398 126.723900
v 135.338440 -28.147480 121.593224
v 174.781494 -24.042637 121.682640
v -171.420258 -26.927551 94.361595
v 164.601074 -23.729887 80.378578
v -159.352997 -10.860593 39.946564
v 168.297485 -16.129063 39.588562
v -171.181183 -4.915133 -6.544661
v 173.191864 -18.409815 -0.239693
v -175.654053 -2.394598 -48.196087
v 179.331299 -18.283417 -42.227150
v -179.331299 16.100370 -107.038857
v 172.370941 27.568186 -104.595100
v -158.586121 12.925698 -145.820465
v -130.697388 36.205170 -137.745148
v -79.913010 21.277426 -128.269012
v -35.002804 14.060833 -115.694061
v 4.762006 22.484558 -135.395569
v 47.294697 20.815903 -142.722107
v 88.683907 17.131926 -134.416626
v 151.857574 29.648621 -139.354156
v 173.031342 28.269135 -136.969177
v -152.886353 -46.771534 120.206779
v -127.124786 -29.332220 123.611946
v -97.267021 -27.286377 119.065781
v -72.039375 -32.807510 106.376366
v -35.611847 -36.354500 122.372444
v 3.943295 -25.555233 134.109467
v 42.693283 -34.493423 127.109550
v 77.854294 -35.771587 116.546539
v 124.469231 -26.450607 111.827927
v 160.744568 -22.675446 111.910156
v -157.653259 -25.328657 86.783295
v 151.381744 -22.387806 73.923279
v -146.555145 -10.552065 36.738403
v 154.781311 -15.397425 36.409149
v -157.433411 -5.084084 -6.019051
v 159.282593 -17.494982 -0.220441
v -161.547058 -2.765978 -44.325397
v 164.928955 -17.378754 -38.835835
v -164.928986 14.243638 -98.442429
v 158.527618 24.790451 -96.194939
v -145.849884 11.323939 -134.109436
v -120.200905 32.733788 -126.682663
v -73.495094 19.004902 -117.967575
v -32.191685 12.367903 -106.402527
v 4.379561 20.115110 -124.521774
v 43.496399 18.580446 -131.259918
v 81.561592 15.192346 -123.621460
v 139.661682 26.703802 -128.162476
v 159.134979 25.435110 -125.969002
vt 0.5656 0.7778
vt 0.5656 0.7778
vt 0.5656 0.7778
vt 0.5656 0.7778
vt 0.5656 0.7778
vt 0.5656 0.7778
vt 0.5656 0.7778
vt 0.5656 0.7778
vt 0.5656 0.7778
vt 0.5656 0.7778
vt 0.5656 0.7778
vt 0.5656 0.7778
vt 0.5656 0.7778
vt 0.5656 0.7778
vt 0.5656 0.7778
vt 0.5656 0.7778
vt 0.5656 0.7778
vt 0.5656 0.7778
vt 0.5656 0.7778
vt 0.5656 0.7778
vt 0.5656 0.7778
vt 0.5656 0.7778
vt 0.5656 0.7778
vt 0.5656 0.7778
vt 0.5656 0.7778
vt 0.5656 0.7778
vt 0.5656 0.7778
vt 0.5656 0.7778
vt 0.5656 0.7778
vt 0.5656 0.7778
vt 0.5656 0.7778
vt 0.5656 0.7778
vt 0.5656 0.7778
vt 0.5656 0.7778
vt 0.5656 0.7778
vt 0.5656 0.7778
vt 0.5656 0.7778
vt 0.5656 0.7778
vt 0.5656 0.7778
vt 0.5656 0.7778
vt 0.5656 0.7778
vt 0.5656 0.7778
vt 0.5656 0.7778
vt 0.5656 0.7778
vt 0.5656 0.7778
vt 0.5656 0.7778
vt 0.5656 0.7778
vt 0.5656 0.7778
vt 0.5656 0.7778
vt 0.5656 0.7778
vt 0.5656 0.7778
vt 0.5656 0.7778
vt 0.5656 0.7778
vt 0.5656 0.7778
vt 0.5656 0.7778
vt 0.5656 0.7778
vt 0.5656 0.7778
vt 0.5656 0.7778
vt 0.5656 0.7778
vt 0.5656 0.7778
vt 0.5656 0.7778
vt 0.5656 0.7778
vt 0.5656 0.7778
vt 0.5656 0.7778
vt 0.5656 0.7778
vt 0.5656 0.7778
vt 0.5656 0.7778
vt 0.5656 0.7778
vt 0.5656 0.7778
vt 0.5656 0.7778
vt 0.5656 0.7778
vt 0.5656 0.7778
vt 0.5656 0.7778
vt 0.5656 0.7778
vt 0.5656 0.7778
vt 0.5656 0.7778
vt 0.5656 0.7778
vt 0.5656 0.7778
vt 0.5656 0.7778
vt 0.5656 0.7778
vt 0.5656 0.7778
vt 0.5656 0.7778
vt 0.5656 0.7778
vt 0.5656 0.7778
vt 0.5656 0.7778
vt 0.5656 0.7778
vt 0.5656 0.7778
vt 0.5656 0.7778
vt 0.5656 0.7778
vt 0.5656 0.7778
vt 0.5656 0.7778
vt 0.5656 0.7778
vt 0.5656 0.7778
vt 0.5656 0.7778
vt 0.5656 0.7778
vt 0.5656 0.7778
vt 0.5656 0.7778
vt 0.5656 0.7778
vt 0.5656 0.7778
vt 0.5656 0.7778
vt 0.5656 0.7778
vt 0.5656 0.7778
vt 0.5656 0.7778
vt 0.5656 0.7778
vt 0.5656 0.7778
vt 0.5656 0.7778
vt 0.5656 0.7778
vt 0.5656 0.7778
vt 0.5656 0.7778
vt 0.5656 0.7778
vt 0.5656 0.7778
vt 0.5656 0.7778
vt 0.5656 0.7778
vt 0.5656 0.7778
vt 0.5656 0.7778
vt 0.5656 0.7778
vt 0.5656 0.7778
vt 0.5656 0.7778
vt 0.5656 0.7778
vt 0.5656 0.7778
vt 0.5656 0.7778
vt 0.5656 0.7778
vt 0.5656 0.7778
vn -0.0822 0.9812 0.1748
vn 0.2899 0.9425 0.1663
vn 0.6022 0.7839 -0.1511
vn 0.0628 0.9950 0.0776
vn -0.0783 0.9889 -0.1264
vn -0.2898 0.9517 0.1011
vn -0.3151 0.9462 0.0738
vn 0.2403 0.9659 0.0968
vn 0.1901 0.9714 0.1425
vn 0.1902 0.9713 0.1431
vn 0.1899 0.9720 0.1385
vn 0.0797 0.9861 0.1458
vn 0.1859 0.9816 0.0429
vn -0.1903 0.9801 0.0558
vn -0.1703 0.9849 0.0293
vn -0.1035 0.9941 0.0330
vn -0.1153 0.9930 0.0246
vn -0.0546 0.9609 0.2716
vn 0.0791 0.9852 0.1524
vn 0.4106 0.9117 -0.0169
vn 0.5952 0.7938 0.1249
vn -0.1075 0.9862 0.1257
vn -0.0722 0.9843 0.1612
vn -0.0723 0.9840 0.1630
vn -0.0723 0.9824 0.1722
vn -0.3155 0.9413 0.1200
vn -0.3283 0.9353 0.1323
vn 0.1899 0.9721 0.1379
vn 0.0964 0.9696 0.2248
vn 0.2086 0.9529 0.2204
vn 0.2077 0.9529 0.2212
vn 0.2075 0.9529 0.2213
vn 0.2066 0.9529 0.2221
vn -0.1659 0.9709 0.1728
vn -0.1516 0.9757 0.1584
vn -0.1149 0.9806 0.1586
vn -0.1296 0.9768 0.1703
vn 0.0783 0.9697 0.2314
vn -0.0431 0.9896 0.1375
vn 0.3967 0.8961 0.1989
vn 0.3958 0.8968 0.1979
vn 0.3957 0.8968 0.1977
vn 0.3948 0.8975 0.1967
vn -0.0723 0.9821 0.1739
vn -0.0292 0.9758 0.2166
vn -0.0292 0.9747 0.2215
vn -0.0292 0.9747 0.2214
vn -0.3262 0.9308 0.1648
vn -0.2792 0.9536 0.1129
vn 0.0874 0.9899 0.1118
vn 0.0987 0.9901 0.0998
vn 0.2083 0.9587 0.1936
vn 0.1185 0.9880 0.0990
vn -0.1512 0.9681 0.1996
vn -0.1914 0.9517 0.2400
vn -0.1914 0.9520 0.2389
vn -0.1915 0.9504 0.2451
vn -0.1283 0.9540 0.2709
vn 0.4344 0.9007 0.0018
vn -0.0514 0.9668 0.2503
vn -0.2036 0.9757 0.0809
vn 0.3926 0.8945 0.2138
vn 0.3963 0.8917 0.2185
vn 0.3928 0.8944 0.2140
vn 0.3964 0.8917 0.2186
vn -0.0292 0.9736 0.2263
vn 0.0152 0.9825 0.1855
vn -0.2733 0.9456 0.1765
vn -0.2411 0.9600 0.1423
vn 0.1021 0.9848 0.1408
vn 0.0997 0.9846 0.1435
vn 0.0996 0.9846 0.1435
vn 0.0971 0.9845 0.1462
vn 0.1047 0.9632 0.2476
vn 0.0159 0.9888 0.1484
vn -0.1915 0.9502 0.2461
vn -0.1803 0.9562 0.2305
vn 0.4109 0.8371 0.3611
vn 0.7871 0.6056 0.1169
vn -0.2022 0.9215 0.3316
vn -0.2251 0.9254 0.3049
vn 0.3751 0.8602 0.3454
vn 0.4043 0.8312 0.3818
vn 0.0138 0.9457 0.3248
vn 0.0640 0.9278 0.3677
vn -0.2250 0.9216 0.3163
vn -0.1503 0.9571 0.2478
vn 0.1037 0.9626 0.2503
vn 0.0620 0.9550 0.2901
vn 0.0619 0.9554 0.2888
vn 0.0627 0.9521 0.2993
vn 0.0062 0.9674 0.2530
vn 0.0410 0.9566 0.2885
vn 0.0409 0.9566 0.2885
vn 0.0408 0.9562 0.2898
vn -0.1806 0.9526 0.2447
vn -0.3003 0.8569 0.4189
vn 0.7595 0.5617 0.3282
vn 0.1286 0.9267 0.3531
vn -0.2180 0.9382 0.2690
vn 0.4127 0.8396 0.3531
vn 0.2505 0.9546 0.1612
vn 0.0633 0.9059 0.4187
vn 0.0395 0.9211 0.3874
vn -0.1311 0.9085 0.3968
vn -0.0555 0.9537 0.2957
vn 0.0628 0.9517 0.3005
vn 0.0857 0.9562 0.2800
vn 0.0295 0.9599 0.2787
vn -0.3518 0.8939 0.2779
vn -0.1982 0.9786 -0.0553
vn 0.1262 0.9919 -0.0151
vn 0.0624 0.9978 0.0229
vn -0.5272 0.6790 0.5108
vn -0.5707 0.6820 -0.4573
vn 0.0239 0.9876 0.1554
vn -0.0384 0.9812 0.1892
vn 0.0231 0.9850 0.1708
vn -0.1310 0.0000 0.9914
vn 0.1505 -0.0000 0.9886
vn -0.4021 -0.0000 0.9156
vn -0.2845 0.0000 0.9587
vn 0.1778 0.0000 0.9841
vn 0.2877 0.0000 0.9577
vn 0.1007 -0.0000 0.9949
vn -0.0023 -0.0000 1.0000
vn -0.9900 -0.0000 0.1412
vn 0.9709 0.0000 -0.2393
vn -0.9763 0.0000 -0.2165
vn 0.9959 0.0000 0.0903
vn -0.9691 -0.0000 0.2466
vn 0.9925 0.0000 0.1220
vn -0.9943 0.0000 0.1068
vn 0.9895 -0.0000 0.1447
vn -0.9981 0.0000 0.0624
vn 0.9938 0.0000 -0.1109
vn -0.8818 0.0000 -0.4717
vn 0.2781 0.0000 -0.9605
vn 0.1834 0.0000 -0.9830
vn 0.2696 0.0000 -0.9630
vn -0.4439 0.0000 -0.8961
vn -0.1698 0.0000 -0.9855
vn 0.1967 0.0000 -0.9805
vn -0.0779 -0.0000 -0.9970
vn 0.9998 0.0000 0.0204
vn 0.1119 -0.0000 -0.9937
vn 0.4494 -0.0000 0.8934
vn 0.4898 -0.7939 0.3604
vn 0.0482 -0.9904 -0.1292
vn 0.0068 -0.9729 -0.2312
vn 0.2991 -0.9440 -0.1393
vn -0.2445 -0.9615 -0.1257
vn -0.0901 -0.9793 -0.1814
vn 0.1526 -0.9310 -0.3316
vn 0.1001 -0.9555 -0.2774
vn -0.1844 -0.8390 -0.5120
vn -0.1105 -0.9937 0.0197
vn -0.0505 -0.9548 -0.2931
vn -0.0099 -0.9829 -0.1840
vn -0.0074 -0.9921 -0.1250
vn -0.0655 -0.9966 0.0490
vn -0.0100 -0.9982 -0.0593
vn -0.0656 -0.9978 -0.0126
vn 0.0580 -0.9513 -0.3026
vn -0.1843 -0.8016 -0.5688
vn -0.1335 -0.9910 0.0097
vn 0.5734 -0.4493 -0.6851
vn -0.2748 -0.9606 -0.0407
vn -0.1177 -0.9826 -0.1434
vn 0.1028 -0.9726 -0.2083
vn -0.0752 -0.9738 -0.2148
vn -0.0457 -0.9775 -0.2058
vn 0.1903 -0.9804 -0.0506
vn 0.1865 -0.9823 -0.0175
vn -0.0303 -0.9580 -0.2851
vn -0.4063 -0.7861 -0.4657
usemtl None
s 1
f 1/1/1 2/2/1 3/3/1
f 4/4/2 5/5/2 6/6/2
f 6/6/3 5/5/3 7/7/3
f 8/8/4 9/9/4 5/5/4
f 5/5/5 9/9/5 7/7/5
f 10/10/6 11/11/6 8/8/6
f 8/8/7 11/11/7 9/9/7
f 10/10/8 12/12/8 11/11/8
f 11/11/9 12/12/10 13/13/11
f 12/12/12 14/14/12 13/13/12
f 13/13/13 14/14/13 15/15/13
f 14/14/14 16/16/14 15/15/14
f 15/15/15 16/16/15 17/17/15
f 18/18/16 19/19/16 16/16/16
f 16/16/17 19/19/17 17/17/17
f 1/1/18 3/3/18 20/20/18
f 20/20/19 3/3/19 21/21/19
f 21/21/20 6/6/20 22/22/20
f 22/22/21 6/6/21 7/7/21
f 9/9/22 23/23/22 7/7/22
f 7/7/23 23/23/24 22/22/25
f 9/9/26 11/11/26 23/23/26
f 23/23/27 11/11/27 24/24/27
f 11/11/9 13/13/11 24/24/28
f 24/24/29 13/13/29 25/25/29
f 13/13/30 15/15/31 25/25/32
f 25/25/32 15/15/31 26/26/33
f 15/15/34 17/17/34 26/26/34
f 26/26/35 17/17/35 27/27/35
f 17/17/36 19/19/36 27/27/36
f 27/27/37 19/19/37 28/28/37
f 21/21/38 29/29/38 20/20/38
f 20/20/39 29/29/39 30/30/39
f 22/22/40 31/31/41 21/21/42
f 21/21/42 31/31/41 29/29/43
f 23/23/24 32/32/44 22/22/25
f 22/22/45 32/32/46 31/31/47
f 23/23/48 24/24/48 32/32/48
f 32/32/49 24/24/49 33/33/49
f 24/24/50 25/25/50 33/33/50
f 33/33/51 25/25/51 34/34/51
f 26/26/52 35/35/52 25/25/52
f 25/25/53 35/35/53 34/34/53
f 26/26/54 27/27/54 35/35/54
f 35/35/55 27/27/56 36/36/57
f 27/27/58 28/28/58 36/36/58
f 36/36/59 28/28/59 37/37/59
f 29/29/60 38/38/60 30/30/60
f 30/30/61 38/38/61 39/39/61
f 31/31/62 40/40/63 29/29/64
f 29/29/64 40/40/63 38/38/65
f 31/31/47 32/32/46 40/40/66
f 40/40/67 32/32/67 41/41/67
f 32/32/68 33/33/68 41/41/68
f 41/41/69 33/33/69 42/42/69
f 33/33/70 34/34/71 42/42/72
f 42/42/72 34/34/71 43/43/73
f 35/35/74 44/44/74 34/34/74
f 34/34/75 44/44/75 43/43/75
f 35/35/55 36/36/57 44/44/76
f 44/44/77 36/36/77 45/45/77
f 36/36/78 37/37/78 45/45/78
f 45/45/79 37/37/79 46/46/79
f 38/38/80 47/47/80 39/39/80
f 39/39/81 47/47/81 48/48/81
f 40/40/82 49/49/82 38/38/82
f 38/38/83 49/49/83 47/47/83
f 41/41/84 50/50/84 40/40/84
f 40/40/85 50/50/85 49/49/85
f 41/41/86 42/42/86 50/50/86
f 50/50/87 42/42/87 51/51/87
f 42/42/88 43/43/88 51/51/88
f 51/51/89 43/43/90 52/52/91
f 44/44/92 53/53/92 43/43/92
f 43/43/93 53/53/94 52/52/95
f 44/44/96 45/45/96 53/53/96
f 53/53/97 45/45/97 54/54/97
f 46/46/98 55/55/98 45/45/98
f 45/45/99 55/55/99 54/54/99
f 48/48/100 47/47/100 56/56/100
f 49/49/101 57/57/101 47/47/101
f 47/47/102 57/57/102 56/56/102
f 50/50/103 58/58/103 49/49/103
f 49/49/104 58/58/104 57/57/104
f 50/50/105 51/51/105 58/58/105
f 58/58/106 51/51/106 59/59/106
f 51/51/89 52/52/91 59/59/107
f 59/59/108 52/52/108 60/60/108
f 53/53/94 61/61/95 52/52/95
f 52/52/109 61/61/109 60/60/109
f 53/53/110 54/54/110 61/61/110
f 61/61/111 54/54/111 62/62/111
f 54/54/112 55/55/112 62/62/112
f 62/62/113 55/55/113 63/63/113
f 64/64/114 2/2/114 1/1/114
f 48/48/115 56/56/115 65/65/115
f 3/3/116 6/6/116 21/21/116
f 2/2/117 4/4/117 3/3/117
f 3/3/118 4/4/118 6/6/118
f 2/2/119 64/64/119 66/66/119
f 66/66/119 64/64/119 67/67/119
f 4/4/120 2/2/120 68/68/120
f 68/68/120 2/2/120 66/66/120
f 5/5/121 69/69/121 8/8/121
f 8/8/121 69/69/121 70/70/121
f 10/10/122 8/8/122 71/71/122
f 71/71/122 8/8/122 70/70/122
f 10/10/123 71/71/123 12/12/123
f 12/12/123 71/71/123 72/72/123
f 12/12/124 72/72/124 14/14/124
f 14/14/124 72/72/124 73/73/124
f 16/16/125 14/14/125 74/74/125
f 74/74/125 14/14/125 73/73/125
f 18/18/126 16/16/126 75/75/126
f 75/75/126 16/16/126 74/74/126
f 1/1/127 76/76/127 64/64/127
f 64/64/127 76/76/127 67/67/127
f 19/19/128 18/18/128 77/77/128
f 77/77/128 18/18/128 75/75/128
f 20/20/129 78/78/129 1/1/129
f 1/1/129 78/78/129 76/76/129
f 28/28/130 19/19/130 79/79/130
f 79/79/130 19/19/130 77/77/130
f 30/30/131 80/80/131 20/20/131
f 20/20/131 80/80/131 78/78/131
f 28/28/132 79/79/132 37/37/132
f 37/37/132 79/79/132 81/81/132
f 39/39/133 82/82/133 30/30/133
f 30/30/133 82/82/133 80/80/133
f 46/46/134 37/37/134 83/83/134
f 83/83/134 37/37/134 81/81/134
f 48/48/135 84/84/135 39/39/135
f 39/39/135 84/84/135 82/82/135
f 55/55/136 46/46/136 85/85/136
f 85/85/136 46/46/136 83/83/136
f 48/48/137 65/65/137 84/84/137
f 84/84/137 65/65/137 86/86/137
f 56/56/138 87/87/138 65/65/138
f 65/65/138 87/87/138 86/86/138
f 56/56/139 57/57/139 87/87/139
f 87/87/139 57/57/139 88/88/139
f 57/57/140 58/58/140 88/88/140
f 88/88/140 58/58/140 89/89/140
f 59/59/141 90/90/141 58/58/141
f 58/58/141 90/90/141 89/89/141
f 59/59/142 60/60/142 90/90/142
f 90/90/142 60/60/142 91/91/142
f 60/60/143 61/61/143 91/91/143
f 91/91/143 61/61/143 92/92/143
f 62/62/144 93/93/144 61/61/144
f 61/61/144 93/93/144 92/92/144
f 63/63/145 55/55/145 94/94/145
f 94/94/145 55/55/145 85/85/145
f 62/62/146 63/63/146 93/93/146
f 93/93/146 63/63/146 94/94/146
f 4/4/147 68/68/147 5/5/147
f 5/5/147 68/68/147 69/69/147
f 67/67/148 95/95/148 66/66/148
f 66/66/148 95/95/148 96/96/148
f 66/66/149 96/96/149 68/68/149
f 68/68/149 96/96/149 97/97/149
f 69/69/150 98/98/150 70/70/150
f 70/70/150 98/98/150 99/99/150
f 71/71/151 70/70/151 100/100/151
f 100/100/151 70/70/151 99/99/151
f 72/72/152 71/71/152 101/101/152
f 101/101/152 71/71/152 100/100/152
f 73/73/153 72/72/153 102/102/153
f 102/102/153 72/72/153 101/101/153
f 74/74/154 73/73/154 103/103/154
f 103/103/154 73/73/154 102/102/154
f 75/75/155 74/74/155 104/104/155
f 104/104/155 74/74/155 103/103/155
f 67/67/156 76/76/156 95/95/156
f 95/95/156 76/76/156 105/105/156
f 75/75/157 104/104/157 77/77/157
f 77/77/157 104/104/157 106/106/157
f 76/76/158 78/78/158 105/105/158
f 105/105/158 78/78/158 107/107/158
f 77/77/159 106/106/159 79/79/159
f 79/79/159 106/106/159 108/108/159
f 80/80/160 109/109/160 78/78/160
f 78/78/160 109/109/160 107/107/160
f 81/81/161 79/79/161 110/110/161
f 110/110/161 79/79/161 108/108/161
f 82/82/162 111/111/162 80/80/162
f 80/80/162 111/111/162 109/109/162
f 83/83/163 81/81/163 112/112/163
f 112/112/163 81/81/163 110/110/163
f 84/84/164 113/113/164 82/82/164
f 82/82/164 113/113/164 111/111/164
f 85/85/165 83/83/165 114/114/165
f 114/114/165 83/83/165 112/112/165
f 86/86/166 115/115/166 84/84/166
f 84/84/166 115/115/166 113/113/166
f 86/86/167 87/87/167 115/115/167
f 115/115/167 87/87/167 116/116/167
f 87/87/168 88/88/168 116/116/168
f 116/116/168 88/88/168 117/117/168
f 88/88/169 89/89/169 117/117/169
f 117/117/169 89/89/169 118/118/169
f 90/90/170 119/119/170 89/89/170
f 89/89/170 119/119/170 118/118/170
f 91/91/171 120/120/171 90/90/171
f 90/90/171 120/120/171 119/119/171
f 92/92/172 121/121/172 91/91/172
f 91/91/172 121/121/172 120/120/172
f 93/93/173 122/122/173 92/92/173
f 92/92/173 122/122/173 121/121/173
f 94/94/174 85/85/174 123/123/174
f 123/123/174 85/85/174 114/114/174
f 94/94/175 123/123/175 93/93/175
f 93/93/175 123/123/175 122/122/175
f 68/68/176 97/97/176 69/69/176
f 69/69/176 97/97/176 98/98/176
