# Blender v2.78 (sub 0) OBJ File: ''
# www.blender.org
mtllib SM_Bld_Market_Snow_01.mtl
o SM_Bld_Market_Snow_01
v -174.840576 4.634050 101.924210
v -141.646210 0.280947 141.968918
v -124.193329 11.210111 88.844452
v -109.181122 2.505423 137.025772
v -81.750488 -3.497818 123.228241
v -108.661331 10.705259 89.659401
v -84.220428 -7.821892 90.941422
v -42.141949 -7.354553 140.621201
v -42.141949 -3.863256 95.852753
v 0.867324 4.387734 153.383072
v 0.270664 10.117487 97.711166
v 43.001129 -5.330980 145.771957
v 42.764790 2.318053 94.179649
v 81.232552 -6.720745 134.286514
v 79.643852 -4.414068 88.381729
v 131.918121 3.414174 129.155853
v 128.261566 4.014837 87.690453
v 171.361176 7.519071 129.245270
v 161.180756 7.831764 87.941208
v -162.773315 20.700998 47.509167
v -126.154037 17.797207 47.282135
v -84.554665 -0.914169 48.622917
v -42.141949 2.028097 49.643230
v 0.311289 17.030214 48.934189
v 42.521675 13.745522 44.999176
v 85.710381 4.223155 45.682419
v 127.675957 10.603516 46.533722
v 164.877167 15.432630 47.151196
v -128.457123 28.142988 4.706283
v -174.601501 26.646500 1.017955
v -84.551552 8.324910 6.999131
v -42.138412 9.533221 7.265491
v -0.324730 22.056507 4.909474
v 41.199566 18.315268 0.961471
v 85.242798 12.718523 4.114407
v 146.881134 24.189552 7.780637
v 169.771515 13.151821 7.322926
v -129.656128 39.321350 -38.712162
v -179.074371 29.167082 -40.633461
v -83.947136 18.383701 -36.204014
v -41.835201 17.688253 -35.963581
v -0.948983 28.175095 -37.427326
v 40.404663 24.599764 -40.817986
v 84.983665 23.300915 -36.948307
v 158.103638 35.960602 -32.277386
v 175.910980 13.278262 -34.664516
v -123.215057 57.176514 -84.404205
v -182.751617 47.661987 -99.476234
v -83.335648 35.322212 -79.053421
v -41.795422 32.683643 -79.624947
v -0.761000 39.892509 -82.575752
v 41.779873 38.178001 -86.028908
v 86.061096 35.143265 -82.253288
v 143.997314 62.316406 -96.307480
v 168.950623 59.129807 -97.032494
v -134.117706 67.766838 -130.182526
v -83.333328 52.839092 -120.706398
v -38.423122 45.622467 -108.131554
v 1.341687 54.046120 -127.832954
v 43.874378 52.377510 -135.159470
v 85.263588 48.693542 -126.854027
v 148.437256 61.210182 -131.791580
v 169.611023 59.830803 -129.406540
v -169.657379 -18.681202 138.266403
v -162.006439 39.017334 -138.257858
v -141.646210 -13.756741 141.968918
v -169.657379 -32.718941 138.266388
v -109.181122 -11.532267 137.025742
v -81.750488 -17.535503 123.228226
v -42.141949 -21.392242 140.621170
v 0.867324 -9.649954 153.383072
v 43.001129 -19.368668 145.771957
v 81.232552 -20.758430 134.286514
v 131.918121 -10.623512 129.155838
v 171.361176 -6.518669 129.245255
v -174.840576 -9.403587 101.924210
v 161.180756 -6.205925 87.941193
v -162.773315 6.663363 47.509171
v 164.877167 1.394892 47.151173
v -174.601501 12.608815 1.017947
v 169.771545 -0.885866 7.322917
v -179.074371 15.129343 -40.633480
v 175.910980 -0.759476 -34.664539
v -182.751617 33.624302 -99.476250
v 168.950623 45.092117 -97.032501
v -162.006439 30.449623 -138.257858
v -134.117706 53.729095 -130.182541
v -83.333328 38.801353 -120.706413
v -38.423122 31.584763 -108.131454
v 1.341687 40.008484 -127.832954
v 43.874378 38.339828 -135.159500
v 85.263588 34.655853 -126.854027
v 148.437256 47.172546 -131.791550
v 169.611023 45.793060 -129.406570
v -156.306671 -29.247566 127.769394
v -130.545105 -11.808249 131.174561
v -100.687340 -9.762409 126.628395
v -75.459694 -15.283543 113.938980
v -39.032166 -18.830532 129.935059
v 0.522977 -8.031263 141.672073
v 39.272964 -16.969456 134.672165
v 74.433975 -18.247620 124.109154
v 121.048912 -8.926640 119.390541
v 157.324249 -5.151478 119.472763
v -161.073578 -7.804695 94.345909
v 147.961426 -4.863846 81.485886
v -149.975464 6.971890 44.301010
v 151.360992 2.126530 43.971760
v -160.853729 12.439864 1.543557
v 155.862274 0.028967 7.342169
v -164.967377 14.757963 -36.762791
v 161.508636 0.145189 -31.273224
v -168.349304 31.767570 -90.879822
v 155.107300 42.314384 -88.632339
v -149.270203 28.847866 -126.546837
v -123.621223 50.257717 -119.120064
v -76.915413 36.528831 -110.404968
v -35.612003 29.891834 -98.839920
v 0.959243 37.639038 -116.959167
v 40.076080 36.104374 -123.697304
v 78.141273 32.716274 -116.058853
v 136.241364 44.227730 -120.599876
v 155.714661 42.959038 -118.406403
vt 0.5656 0.7778
vt 0.5656 0.7778
vt 0.5656 0.7778
vt 0.5656 0.7778
vt 0.5656 0.7778
vt 0.5656 0.7778
vt 0.5656 0.7778
vt 0.5656 0.7778
vt 0.5656 0.7778
vt 0.5656 0.7778
vt 0.5656 0.7778
vt 0.5656 0.7778
vt 0.5656 0.7778
vt 0.5656 0.7778
vt 0.5656 0.7778
vt 0.5656 0.7778
vt 0.5656 0.7778
vt 0.5656 0.7778
vt 0.5656 0.7778
vt 0.5656 0.7778
vt 0.5656 0.7778
vt 0.5656 0.7778
vt 0.5656 0.7778
vt 0.5656 0.7778
vt 0.5656 0.7778
vt 0.5656 0.7778
vt 0.5656 0.7778
vt 0.5656 0.7778
vt 0.5656 0.7778
vt 0.5656 0.7778
vt 0.5656 0.7778
vt 0.5656 0.7778
vt 0.5656 0.7778
vt 0.5656 0.7778
vt 0.5656 0.7778
vt 0.5656 0.7778
vt 0.5656 0.7778
vt 0.5656 0.7778
vt 0.5656 0.7778
vt 0.5656 0.7778
vt 0.5656 0.7778
vt 0.5656 0.7778
vt 0.5656 0.7778
vt 0.5656 0.7778
vt 0.5656 0.7778
vt 0.5656 0.7778
vt 0.5656 0.7778
vt 0.5656 0.7778
vt 0.5656 0.7778
vt 0.5656 0.7778
vt 0.5656 0.7778
vt 0.5656 0.7778
vt 0.5656 0.7778
vt 0.5656 0.7778
vt 0.5656 0.7778
vt 0.5656 0.7778
vt 0.5656 0.7778
vt 0.5656 0.7778
vt 0.5656 0.7778
vt 0.5656 0.7778
vt 0.5656 0.7778
vt 0.5656 0.7778
vt 0.5656 0.7778
vt 0.5656 0.7778
vt 0.5656 0.7778
vt 0.5656 0.7778
vt 0.5656 0.7778
vt 0.5656 0.7778
vt 0.5656 0.7778
vt 0.5656 0.7778
vt 0.5656 0.7778
vt 0.5656 0.7778
vt 0.5656 0.7778
vt 0.5656 0.7778
vt 0.5656 0.7778
vt 0.5656 0.7778
vt 0.5656 0.7778
vt 0.5656 0.7778
vt 0.5656 0.7778
vt 0.5656 0.7778
vt 0.5656 0.7778
vt 0.5656 0.7778
vt 0.5656 0.7778
vt 0.5656 0.7778
vt 0.5656 0.7778
vt 0.5656 0.7778
vt 0.5656 0.7778
vt 0.5656 0.7778
vt 0.5656 0.7778
vt 0.5656 0.7778
vt 0.5656 0.7778
vt 0.5656 0.7778
vt 0.5656 0.7778
vt 0.5656 0.7778
vt 0.5656 0.7778
vt 0.5656 0.7778
vt 0.5656 0.7778
vt 0.5656 0.7778
vt 0.5656 0.7778
vt 0.5656 0.7778
vt 0.5656 0.7778
vt 0.5656 0.7778
vt 0.5656 0.7778
vt 0.5656 0.7778
vt 0.5656 0.7778
vt 0.5656 0.7778
vt 0.5656 0.7778
vt 0.5656 0.7778
vt 0.5656 0.7778
vt 0.5656 0.7778
vt 0.5656 0.7778
vt 0.5656 0.7778
vt 0.5656 0.7778
vt 0.5656 0.7778
vt 0.5656 0.7778
vt 0.5656 0.7778
vt 0.5656 0.7778
vt 0.5656 0.7778
vt 0.5656 0.7778
vt 0.5656 0.7778
vt 0.5656 0.7778
vt 0.5656 0.7778
vt 0.5656 0.7778
vn -0.0822 0.9812 0.1748
vn 0.2899 0.9425 0.1663
vn 0.6022 0.7839 -0.1511
vn 0.0628 0.9950 0.0776
vn -0.0783 0.9889 -0.1264
vn -0.2898 0.9517 0.1011
vn -0.3151 0.9462 0.0738
vn 0.2403 0.9659 0.0968
vn 0.1901 0.9714 0.1425
vn 0.1902 0.9713 0.1431
vn 0.1899 0.9720 0.1385
vn 0.0797 0.9861 0.1458
vn 0.1859 0.9816 0.0429
vn -0.1903 0.9801 0.0558
vn -0.1703 0.9849 0.0293
vn -0.1035 0.9941 0.0330
vn -0.1153 0.9930 0.0246
vn -0.0546 0.9609 0.2716
vn 0.0791 0.9852 0.1524
vn 0.4106 0.9117 -0.0169
vn 0.5952 0.7938 0.1249
vn -0.1075 0.9862 0.1257
vn -0.0722 0.9843 0.1612
vn -0.0723 0.9840 0.1630
vn -0.0723 0.9824 0.1722
vn -0.3155 0.9413 0.1200
vn -0.3283 0.9353 0.1323
vn 0.1899 0.9721 0.1379
vn 0.0964 0.9696 0.2248
vn 0.2086 0.9529 0.2204
vn 0.2077 0.9529 0.2212
vn 0.2075 0.9529 0.2213
vn 0.2066 0.9529 0.2221
vn -0.1659 0.9709 0.1728
vn -0.1516 0.9757 0.1584
vn -0.1149 0.9806 0.1586
vn -0.1296 0.9768 0.1703
vn 0.0783 0.9697 0.2314
vn -0.0431 0.9896 0.1375
vn 0.3967 0.8961 0.1989
vn 0.3958 0.8968 0.1979
vn 0.3957 0.8968 0.1977
vn 0.3948 0.8975 0.1967
vn -0.0723 0.9821 0.1739
vn -0.0292 0.9758 0.2166
vn -0.0292 0.9747 0.2215
vn -0.0292 0.9747 0.2214
vn -0.3262 0.9308 0.1648
vn -0.2792 0.9536 0.1129
vn 0.0874 0.9899 0.1118
vn 0.0987 0.9901 0.0998
vn 0.2083 0.9587 0.1936
vn 0.1185 0.9880 0.0990
vn -0.1512 0.9681 0.1996
vn -0.1914 0.9517 0.2400
vn -0.1914 0.9520 0.2389
vn -0.1915 0.9504 0.2451
vn -0.1283 0.9540 0.2709
vn 0.4344 0.9007 0.0018
vn -0.0514 0.9668 0.2503
vn -0.2036 0.9757 0.0809
vn 0.3926 0.8945 0.2138
vn 0.3963 0.8917 0.2185
vn 0.3928 0.8944 0.2140
vn 0.3964 0.8917 0.2186
vn -0.0292 0.9736 0.2263
vn 0.0152 0.9825 0.1855
vn -0.2733 0.9456 0.1765
vn -0.2411 0.9600 0.1423
vn 0.1021 0.9848 0.1408
vn 0.0997 0.9846 0.1435
vn 0.0996 0.9846 0.1435
vn 0.0971 0.9845 0.1462
vn 0.1047 0.9632 0.2476
vn 0.0159 0.9888 0.1484
vn -0.1915 0.9502 0.2461
vn -0.1803 0.9562 0.2305
vn 0.4109 0.8371 0.3611
vn 0.7871 0.6056 0.1169
vn -0.2022 0.9215 0.3316
vn -0.2251 0.9254 0.3049
vn 0.3751 0.8602 0.3454
vn 0.4043 0.8312 0.3818
vn 0.0138 0.9457 0.3248
vn 0.0640 0.9278 0.3677
vn -0.2250 0.9216 0.3163
vn -0.1503 0.9571 0.2478
vn 0.1037 0.9626 0.2503
vn 0.0620 0.9550 0.2901
vn 0.0619 0.9554 0.2888
vn 0.0627 0.9521 0.2993
vn 0.0062 0.9674 0.2530
vn 0.0410 0.9566 0.2885
vn 0.0409 0.9565 0.2887
vn 0.0408 0.9562 0.2897
vn -0.1806 0.9526 0.2447
vn -0.3003 0.8569 0.4189
vn 0.7595 0.5617 0.3282
vn 0.1286 0.9267 0.3531
vn -0.2180 0.9382 0.2690
vn 0.4127 0.8396 0.3531
vn 0.2505 0.9546 0.1612
vn 0.0633 0.9059 0.4187
vn 0.0395 0.9211 0.3874
vn -0.1311 0.9085 0.3968
vn -0.0555 0.9537 0.2957
vn 0.0628 0.9517 0.3005
vn 0.0857 0.9562 0.2800
vn 0.0408 0.9562 0.2898
vn 0.0295 0.9599 0.2787
vn -0.3518 0.8939 0.2779
vn -0.1982 0.9786 -0.0553
vn 0.1262 0.9919 -0.0151
vn 0.0624 0.9978 0.0229
vn -0.5272 0.6790 0.5108
vn -0.5707 0.6820 -0.4573
vn 0.0239 0.9876 0.1554
vn -0.0384 0.9812 0.1892
vn 0.0231 0.9850 0.1708
vn -0.1310 0.0000 0.9914
vn 0.1505 -0.0000 0.9886
vn -0.4021 -0.0000 0.9156
vn -0.2845 0.0000 0.9587
vn 0.1778 0.0000 0.9841
vn 0.2877 0.0000 0.9577
vn 0.1007 -0.0000 0.9949
vn -0.0023 -0.0000 1.0000
vn -0.9900 0.0000 0.1412
vn 0.9709 0.0000 -0.2393
vn -0.9763 0.0000 -0.2165
vn 0.9959 0.0000 0.0903
vn -0.9691 0.0000 0.2466
vn 0.9925 0.0000 0.1220
vn -0.9943 0.0000 0.1068
vn 0.9895 0.0000 0.1447
vn -0.9981 0.0000 0.0624
vn 0.9938 0.0000 -0.1109
vn -0.8818 0.0000 -0.4717
vn 0.2781 0.0000 -0.9605
vn 0.1834 0.0000 -0.9830
vn 0.2696 0.0000 -0.9630
vn -0.4439 0.0000 -0.8961
vn -0.1698 0.0000 -0.9855
vn 0.1967 0.0000 -0.9805
vn -0.0779 -0.0000 -0.9970
vn 0.9998 0.0000 0.0204
vn 0.1119 -0.0000 -0.9937
vn 0.4494 -0.0000 0.8934
vn 0.4898 -0.7939 0.3604
vn 0.0482 -0.9904 -0.1292
vn 0.0068 -0.9729 -0.2312
vn 0.2991 -0.9440 -0.1393
vn -0.2445 -0.9615 -0.1257
vn -0.0901 -0.9793 -0.1814
vn 0.1526 -0.9310 -0.3316
vn 0.1001 -0.9555 -0.2774
vn -0.1844 -0.8390 -0.5120
vn -0.1105 -0.9937 0.0197
vn -0.0505 -0.9548 -0.2931
vn -0.0099 -0.9829 -0.1840
vn -0.0074 -0.9921 -0.1250
vn -0.0655 -0.9966 0.0490
vn -0.0100 -0.9982 -0.0593
vn -0.0656 -0.9978 -0.0126
vn 0.0580 -0.9513 -0.3026
vn -0.1843 -0.8016 -0.5688
vn -0.1335 -0.9910 0.0097
vn 0.5734 -0.4493 -0.6851
vn -0.2748 -0.9606 -0.0407
vn -0.1177 -0.9826 -0.1434
vn 0.1028 -0.9726 -0.2083
vn -0.0752 -0.9738 -0.2148
vn -0.0457 -0.9775 -0.2058
vn 0.1903 -0.9804 -0.0506
vn 0.1865 -0.9823 -0.0175
vn -0.0303 -0.9580 -0.2851
vn -0.4063 -0.7861 -0.4657
usemtl None
s 1
f 1/1/1 2/2/1 3/3/1
f 4/4/2 5/5/2 6/6/2
f 6/6/3 5/5/3 7/7/3
f 8/8/4 9/9/4 5/5/4
f 5/5/5 9/9/5 7/7/5
f 10/10/6 11/11/6 8/8/6
f 8/8/7 11/11/7 9/9/7
f 10/10/8 12/12/8 11/11/8
f 11/11/9 12/12/10 13/13/11
f 12/12/12 14/14/12 13/13/12
f 13/13/13 14/14/13 15/15/13
f 14/14/14 16/16/14 15/15/14
f 15/15/15 16/16/15 17/17/15
f 18/18/16 19/19/16 16/16/16
f 16/16/17 19/19/17 17/17/17
f 1/1/18 3/3/18 20/20/18
f 20/20/19 3/3/19 21/21/19
f 21/21/20 6/6/20 22/22/20
f 22/22/21 6/6/21 7/7/21
f 9/9/22 23/23/22 7/7/22
f 7/7/23 23/23/24 22/22/25
f 9/9/26 11/11/26 23/23/26
f 23/23/27 11/11/27 24/24/27
f 11/11/9 13/13/11 24/24/28
f 24/24/29 13/13/29 25/25/29
f 13/13/30 15/15/31 25/25/32
f 25/25/32 15/15/31 26/26/33
f 15/15/34 17/17/34 26/26/34
f 26/26/35 17/17/35 27/27/35
f 17/17/36 19/19/36 27/27/36
f 27/27/37 19/19/37 28/28/37
f 21/21/38 29/29/38 20/20/38
f 20/20/39 29/29/39 30/30/39
f 22/22/40 31/31/41 21/21/42
f 21/21/42 31/31/41 29/29/43
f 23/23/24 32/32/44 22/22/25
f 22/22/45 32/32/46 31/31/47
f 23/23/48 24/24/48 32/32/48
f 32/32/49 24/24/49 33/33/49
f 24/24/50 25/25/50 33/33/50
f 33/33/51 25/25/51 34/34/51
f 26/26/52 35/35/52 25/25/52
f 25/25/53 35/35/53 34/34/53
f 26/26/54 27/27/54 35/35/54
f 35/35/55 27/27/56 36/36/57
f 27/27/58 28/28/58 36/36/58
f 36/36/59 28/28/59 37/37/59
f 29/29/60 38/38/60 30/30/60
f 30/30/61 38/38/61 39/39/61
f 31/31/62 40/40/63 29/29/64
f 29/29/64 40/40/63 38/38/65
f 31/31/47 32/32/46 40/40/66
f 40/40/67 32/32/67 41/41/67
f 32/32/68 33/33/68 41/41/68
f 41/41/69 33/33/69 42/42/69
f 33/33/70 34/34/71 42/42/72
f 42/42/72 34/34/71 43/43/73
f 35/35/74 44/44/74 34/34/74
f 34/34/75 44/44/75 43/43/75
f 35/35/55 36/36/57 44/44/76
f 44/44/77 36/36/77 45/45/77
f 36/36/78 37/37/78 45/45/78
f 45/45/79 37/37/79 46/46/79
f 38/38/80 47/47/80 39/39/80
f 39/39/81 47/47/81 48/48/81
f 40/40/82 49/49/82 38/38/82
f 38/38/83 49/49/83 47/47/83
f 41/41/84 50/50/84 40/40/84
f 40/40/85 50/50/85 49/49/85
f 41/41/86 42/42/86 50/50/86
f 50/50/87 42/42/87 51/51/87
f 42/42/88 43/43/88 51/51/88
f 51/51/89 43/43/90 52/52/91
f 44/44/92 53/53/92 43/43/92
f 43/43/93 53/53/94 52/52/95
f 44/44/96 45/45/96 53/53/96
f 53/53/97 45/45/97 54/54/97
f 46/46/98 55/55/98 45/45/98
f 45/45/99 55/55/99 54/54/99
f 48/48/100 47/47/100 56/56/100
f 49/49/101 57/57/101 47/47/101
f 47/47/102 57/57/102 56/56/102
f 50/50/103 58/58/103 49/49/103
f 49/49/104 58/58/104 57/57/104
f 50/50/105 51/51/105 58/58/105
f 58/58/106 51/51/106 59/59/106
f 51/51/89 52/52/91 59/59/107
f 59/59/108 52/52/108 60/60/108
f 53/53/94 61/61/109 52/52/95
f 52/52/110 61/61/110 60/60/110
f 53/53/111 54/54/111 61/61/111
f 61/61/112 54/54/112 62/62/112
f 54/54/113 55/55/113 62/62/113
f 62/62/114 55/55/114 63/63/114
f 64/64/115 2/2/115 1/1/115
f 48/48/116 56/56/116 65/65/116
f 3/3/117 6/6/117 21/21/117
f 2/2/118 4/4/118 3/3/118
f 3/3/119 4/4/119 6/6/119
f 2/2/120 64/64/120 66/66/120
f 66/66/120 64/64/120 67/67/120
f 4/4/121 2/2/121 68/68/121
f 68/68/121 2/2/121 66/66/121
f 5/5/122 69/69/122 8/8/122
f 8/8/122 69/69/122 70/70/122
f 10/10/123 8/8/123 71/71/123
f 71/71/123 8/8/123 70/70/123
f 10/10/124 71/71/124 12/12/124
f 12/12/124 71/71/124 72/72/124
f 12/12/125 72/72/125 14/14/125
f 14/14/125 72/72/125 73/73/125
f 16/16/126 14/14/126 74/74/126
f 74/74/126 14/14/126 73/73/126
f 18/18/127 16/16/127 75/75/127
f 75/75/127 16/16/127 74/74/127
f 1/1/128 76/76/128 64/64/128
f 64/64/128 76/76/128 67/67/128
f 19/19/129 18/18/129 77/77/129
f 77/77/129 18/18/129 75/75/129
f 20/20/130 78/78/130 1/1/130
f 1/1/130 78/78/130 76/76/130
f 28/28/131 19/19/131 79/79/131
f 79/79/131 19/19/131 77/77/131
f 30/30/132 80/80/132 20/20/132
f 20/20/132 80/80/132 78/78/132
f 28/28/133 79/79/133 37/37/133
f 37/37/133 79/79/133 81/81/133
f 39/39/134 82/82/134 30/30/134
f 30/30/134 82/82/134 80/80/134
f 46/46/135 37/37/135 83/83/135
f 83/83/135 37/37/135 81/81/135
f 48/48/136 84/84/136 39/39/136
f 39/39/136 84/84/136 82/82/136
f 55/55/137 46/46/137 85/85/137
f 85/85/137 46/46/137 83/83/137
f 48/48/138 65/65/138 84/84/138
f 84/84/138 65/65/138 86/86/138
f 56/56/139 87/87/139 65/65/139
f 65/65/139 87/87/139 86/86/139
f 56/56/140 57/57/140 87/87/140
f 87/87/140 57/57/140 88/88/140
f 57/57/141 58/58/141 88/88/141
f 88/88/141 58/58/141 89/89/141
f 59/59/142 90/90/142 58/58/142
f 58/58/142 90/90/142 89/89/142
f 59/59/143 60/60/143 90/90/143
f 90/90/143 60/60/143 91/91/143
f 60/60/144 61/61/144 91/91/144
f 91/91/144 61/61/144 92/92/144
f 62/62/145 93/93/145 61/61/145
f 61/61/145 93/93/145 92/92/145
f 63/63/146 55/55/146 94/94/146
f 94/94/146 55/55/146 85/85/146
f 62/62/147 63/63/147 93/93/147
f 93/93/147 63/63/147 94/94/147
f 4/4/148 68/68/148 5/5/148
f 5/5/148 68/68/148 69/69/148
f 67/67/149 95/95/149 66/66/149
f 66/66/149 95/95/149 96/96/149
f 66/66/150 96/96/150 68/68/150
f 68/68/150 96/96/150 97/97/150
f 69/69/151 98/98/151 70/70/151
f 70/70/151 98/98/151 99/99/151
f 71/71/152 70/70/152 100/100/152
f 100/100/152 70/70/152 99/99/152
f 72/72/153 71/71/153 101/101/153
f 101/101/153 71/71/153 100/100/153
f 73/73/154 72/72/154 102/102/154
f 102/102/154 72/72/154 101/101/154
f 74/74/155 73/73/155 103/103/155
f 103/103/155 73/73/155 102/102/155
f 75/75/156 74/74/156 104/104/156
f 104/104/156 74/74/156 103/103/156
f 67/67/157 76/76/157 95/95/157
f 95/95/157 76/76/157 105/105/157
f 75/75/158 104/104/158 77/77/158
f 77/77/158 104/104/158 106/106/158
f 76/76/159 78/78/159 105/105/159
f 105/105/159 78/78/159 107/107/159
f 77/77/160 106/106/160 79/79/160
f 79/79/160 106/106/160 108/108/160
f 80/80/161 109/109/161 78/78/161
f 78/78/161 109/109/161 107/107/161
f 81/81/162 79/79/162 110/110/162
f 110/110/162 79/79/162 108/108/162
f 82/82/163 111/111/163 80/80/163
f 80/80/163 111/111/163 109/109/163
f 83/83/164 81/81/164 112/112/164
f 112/112/164 81/81/164 110/110/164
f 84/84/165 113/113/165 82/82/165
f 82/82/165 113/113/165 111/111/165
f 85/85/166 83/83/166 114/114/166
f 114/114/166 83/83/166 112/112/166
f 86/86/167 115/115/167 84/84/167
f 84/84/167 115/115/167 113/113/167
f 86/86/168 87/87/168 115/115/168
f 115/115/168 87/87/168 116/116/168
f 87/87/169 88/88/169 116/116/169
f 116/116/169 88/88/169 117/117/169
f 88/88/170 89/89/170 117/117/170
f 117/117/170 89/89/170 118/118/170
f 90/90/171 119/119/171 89/89/171
f 89/89/171 119/119/171 118/118/171
f 91/91/172 120/120/172 90/90/172
f 90/90/172 120/120/172 119/119/172
f 92/92/173 121/121/173 91/91/173
f 91/91/173 121/121/173 120/120/173
f 93/93/174 122/122/174 92/92/174
f 92/92/174 122/122/174 121/121/174
f 94/94/175 85/85/175 123/123/175
f 123/123/175 85/85/175 114/114/175
f 94/94/176 123/123/176 93/93/176
f 93/93/176 123/123/176 122/122/176
f 68/68/177 97/97/177 69/69/177
f 69/69/177 97/97/177 98/98/177
