# Blender v2.78 (sub 0) OBJ File: ''
# www.blender.org
mtllib SM_Bld_Fence_02.mtl
o SM_Bld_Fence_02
v -68.568542 -62.262474 0.404574
v -59.789795 -61.398151 0.404574
v -70.393127 -24.542252 0.925674
v -62.125916 -23.728302 0.925674
v -80.853943 59.881035 0.770306
v -71.346313 62.262474 0.770306
v -71.346313 60.817177 -8.782703
v -62.125916 -23.728300 -7.380570
v -59.789795 -61.398151 -8.417019
v -70.393127 -24.542250 -7.380570
v -68.568542 -62.262474 -8.417021
v -78.510498 27.150711 -0.412612
v -69.770386 28.011307 -0.412612
v -81.400208 56.434792 1.542628
v -70.355286 58.967537 1.542629
v -78.510498 27.150713 -9.195463
v -81.400208 57.880074 -9.555073
v -70.355286 57.522255 -9.555073
v -69.770386 28.011309 -9.195463
v -80.853943 61.326332 -8.782703
v -78.199341 42.642944 5.626623
v -78.199341 28.479218 5.626619
v -27.776062 39.622307 5.626623
v -27.776062 26.285873 5.626617
v 42.061279 27.307737 9.960115
v 81.400208 27.893219 5.626619
v 42.061279 41.409294 9.960119
v 81.400208 43.228951 5.626623
v -20.549683 36.594513 6.213246
v -11.525391 40.038124 6.635031
v -78.199341 42.642944 -0.390588
v -27.776062 39.622307 -0.390589
v -78.199341 28.479218 -0.390592
v -27.776062 26.285873 -0.390594
v 81.400208 43.228951 -0.390588
v 81.400208 27.893219 -0.390593
v 42.061279 41.409294 3.942892
v 42.061279 27.307739 3.942887
v -21.285522 36.575684 0.150379
v -11.582520 40.036674 0.614232
v -78.199341 20.968208 5.626615
v -78.199341 9.358268 5.626611
v -27.776062 17.947578 5.626615
v -27.776062 7.164924 5.626611
v 42.061279 8.186790 3.292460
v 81.400208 8.772262 5.626611
v 42.061279 19.734550 3.292463
v 81.400208 21.554214 5.626615
v 26.551514 7.959846 3.810754
v 26.551514 19.337685 3.810758
v -78.199341 20.968208 -0.390595
v -27.776062 17.947578 -0.390596
v -78.199341 9.358269 -0.390599
v -27.776062 7.164925 -0.390600
v 81.400208 21.554214 -0.390595
v 81.400208 8.772263 -0.390599
v 42.061279 19.734550 -2.724749
v 42.061279 8.186790 -2.724752
v 26.551514 19.337685 -2.206469
v 26.551514 7.959847 -2.206472
v 31.756409 19.470886 -2.380388
v 31.756409 19.470886 3.636839
v 34.400574 10.408997 -2.380390
v 34.400574 10.408996 3.636837
v -78.199341 -0.233468 5.626609
v -78.199341 -20.408802 5.626603
v -27.776062 -4.536179 2.462607
v -27.776062 -23.533077 2.462600
v 42.061279 -1.990739 5.626607
v 38.816772 -18.827309 5.626603
v 52.222534 -3.016770 5.626607
v 51.179382 -21.884197 5.626603
v -78.199341 -0.233467 -0.390602
v -27.776062 -4.536178 -3.554605
v -78.199341 -20.408802 -0.390608
v -27.776062 -23.533077 -3.554612
v 42.061279 -1.990738 -0.390602
v 52.222534 -3.016769 -0.390603
v 38.816772 -18.827309 -0.390608
v 51.179382 -21.884197 -0.390609
v 81.400208 -21.243523 -0.390609
v 81.400208 0.601250 -0.390602
v 81.400208 -21.243523 5.626603
v 81.400208 0.601249 5.626609
v 57.099731 -0.999901 -0.390602
v 57.099731 -0.999902 5.626609
v 57.099731 -21.758690 -0.390609
v 57.099731 -21.758690 5.626603
v -78.199341 -29.444115 5.626599
v -78.199341 -38.287384 5.626596
v -27.776062 -31.330082 2.106839
v -27.776062 -39.656822 2.106837
v 42.061279 -39.018806 5.626596
v 81.400208 -38.653259 5.626596
v 42.061279 -30.214363 5.626599
v 81.400208 -29.078239 5.626599
v -23.319336 -33.555351 2.540386
v -19.174133 -39.578236 2.540385
v -78.199341 -29.444115 -0.390612
v -27.776062 -31.330082 -3.910373
v -78.199341 -38.287384 -0.390614
v -27.776062 -39.656822 -3.910376
v 81.400208 -29.078239 -0.390612
v 81.400208 -38.653259 -0.390614
v 42.061279 -30.214363 -0.390612
v 42.061279 -39.018806 -0.390614
v -23.319336 -33.555351 -3.476826
v -19.174133 -39.578236 -3.476828
v -13.601257 -34.114311 -2.750065
v -13.601257 -34.114311 3.267162
v -13.575439 -39.446499 -2.750067
v -13.575439 -39.446499 3.267160
v -6.767151 -30.738823 -2.045108
v -6.767151 -30.738823 3.972119
v -6.767151 -39.318714 -2.045110
v -6.767151 -39.318714 3.972116
v 60.837219 -61.592403 0.404574
v 69.634521 -62.257702 0.404574
v 65.557617 -24.124191 0.925674
v 73.840271 -24.750637 0.925674
v 70.242554 60.210793 0.001660
v 76.208008 57.274696 0.834880
v 69.803589 57.971596 -8.418934
v 73.840271 -24.750631 -7.380570
v 69.634521 -62.257702 -8.417021
v 65.557617 -24.124189 -7.380570
v 60.837219 -61.592403 -8.417021
v 75.250610 27.531639 -0.412612
v 77.744568 54.368279 2.375956
v 66.491943 28.193993 -0.412612
v 68.705261 57.536888 1.542629
v 66.491943 28.193995 -9.195463
v 68.267029 55.297684 -9.960104
v 79.771790 56.699928 -9.555073
v 75.250610 27.531641 -9.195463
v 78.235291 59.606346 -8.013996
vt 0.9909 0.4015
vt 0.9909 0.4015
vt 0.9909 0.4015
vt 0.9909 0.4015
vt 0.9909 0.4402
vt 0.9909 0.4402
vt 0.9909 0.4402
vt 0.9909 0.4015
vt 0.9909 0.4015
vt 0.9909 0.4015
vt 0.9909 0.4015
vt 0.9909 0.4015
vt 0.9909 0.4015
vt 0.9909 0.4015
vt 0.9909 0.4015
vt 0.9909 0.4015
vt 0.9909 0.4015
vt 0.9909 0.4015
vt 0.9909 0.4015
vt 0.9909 0.4402
vt 0.9909 0.4402
vt 0.9909 0.4402
vt 0.9909 0.4402
vt 0.9909 0.4402
vt 0.9909 0.4015
vt 0.9909 0.4015
vt 0.9909 0.4015
vt 0.9909 0.4015
vt 0.9909 0.4015
vt 0.9909 0.4015
vt 0.9909 0.4015
vt 0.9909 0.4015
vt 0.9909 0.4015
vt 0.9909 0.4015
vt 0.9909 0.4015
vt 0.9909 0.4015
vt 0.9909 0.4015
vt 0.9909 0.4015
vt 0.9909 0.4015
vt 0.9909 0.4015
vt 0.9909 0.4015
vt 0.9909 0.4015
vt 0.9909 0.4015
vt 0.9909 0.4015
vt 0.9909 0.4015
vt 0.9909 0.4015
vt 0.9909 0.4015
vt 0.9909 0.4015
vt 0.9909 0.4015
vt 0.9909 0.4015
vt 0.9909 0.4015
vt 0.9909 0.4015
vt 0.9909 0.4015
vt 0.9909 0.4015
vt 0.9909 0.4015
vt 0.9909 0.4015
vt 0.9909 0.4015
vt 0.9909 0.4015
vt 0.9909 0.4015
vt 0.9909 0.4015
vt 0.9909 0.4015
vt 0.9909 0.4015
vt 0.9909 0.4015
vt 0.9909 0.4015
vt 0.9909 0.4015
vt 0.9909 0.4015
vt 0.9909 0.4015
vt 0.9909 0.4015
vt 0.9909 0.4015
vt 0.9909 0.4015
vt 0.9909 0.4015
vt 0.9909 0.4015
vt 0.9909 0.4015
vt 0.9909 0.4015
vt 0.9909 0.4015
vt 0.9909 0.4015
vt 0.9909 0.4015
vt 0.9909 0.4015
vt 0.9909 0.4015
vt 0.9909 0.4015
vt 0.9909 0.4015
vt 0.9909 0.4015
vt 0.9909 0.4015
vt 0.9909 0.4015
vt 0.9909 0.4015
vt 0.9909 0.4015
vt 0.9909 0.4015
vt 0.9909 0.4015
vt 0.9909 0.4015
vt 0.9909 0.4015
vt 0.9909 0.4015
vt 0.9909 0.4015
vt 0.9909 0.4015
vt 0.9909 0.4015
vt 0.9909 0.4015
vt 0.9909 0.4015
vt 0.9909 0.4015
vt 0.9909 0.4015
vt 0.9909 0.4015
vt 0.9909 0.4015
vt 0.9909 0.4015
vt 0.9909 0.4015
vt 0.9909 0.4015
vt 0.9909 0.4015
vt 0.9909 0.4015
vt 0.9909 0.4015
vt 0.9909 0.4015
vt 0.9909 0.4015
vt 0.9909 0.4015
vt 0.9909 0.4015
vt 0.9909 0.4015
vt 0.9909 0.4015
vt 0.9909 0.4015
vt 0.9909 0.4015
vt 0.9909 0.4015
vt 0.9909 0.4015
vt 0.9909 0.4015
vt 0.9909 0.4015
vt 0.9909 0.4015
vt 0.9909 0.4015
vt 0.9909 0.4015
vt 0.9909 0.4015
vt 0.9909 0.4015
vt 0.9909 0.4015
vt 0.9912 0.4589
vt 0.9912 0.4589
vt 0.9912 0.4589
vt 0.9909 0.4015
vt 0.9909 0.4015
vt 0.9909 0.4015
vt 0.9909 0.4015
vt 0.9909 0.4015
vt 0.9909 0.4015
vt 0.9909 0.4015
vt 0.9909 0.4015
vt 0.9909 0.4015
vt 0.9909 0.4015
vt 0.9909 0.4015
vt 0.9909 0.4015
vt 0.9912 0.4589
vt 0.9912 0.4589
vt 0.9912 0.4589
vt 0.9912 0.4589
vt 0.9912 0.4589
vn 0.0014 -0.0137 0.9999
vn -0.2404 0.9598 -0.1452
vn -0.0027 0.0273 -0.9996
vn 0.0980 -0.9952 0.0000
vn 0.9981 0.0619 0.0000
vn -0.9988 -0.0483 0.0000
vn 0.0065 -0.0660 0.9978
vn 0.0128 -0.0634 0.9979
vn 0.0083 -0.0652 0.9978
vn 0.0144 -0.0628 0.9979
vn -0.9952 -0.0982 0.0000
vn -0.9953 -0.0972 -0.0028
vn -0.9955 -0.0947 -0.0097
vn -0.9955 -0.0938 -0.0122
vn -0.0004 -0.0117 -0.9999
vn 0.0006 -0.0120 -0.9999
vn 0.0002 -0.0119 -0.9999
vn 0.0012 -0.0122 -0.9999
vn 0.9998 0.0198 0.0000
vn 0.9998 0.0196 -0.0006
vn 0.9998 0.0192 -0.0020
vn 0.9998 0.0190 -0.0025
vn -0.0025 0.0255 0.9997
vn -0.9879 -0.1551 -0.0000
vn 0.0034 -0.0346 -0.9994
vn 0.9893 0.1462 0.0000
vn -0.0519 0.2262 0.9727
vn -0.0522 0.2234 0.9733
vn -0.0530 0.2158 0.9750
vn -0.0533 0.2127 0.9757
vn 0.9544 0.2961 -0.0386
vn 0.9595 0.2787 -0.0422
vn 0.0075 0.2303 -0.9731
vn 0.0116 0.2169 -0.9761
vn -0.9867 0.1611 0.0210
vn -0.9879 0.1537 0.0225
vn -0.9870 0.1591 0.0214
vn -0.9882 0.1515 0.0229
vn 0.0529 0.9874 0.1494
vn 0.0000 -0.0000 1.0000
vn 0.1095 -0.0000 0.9940
vn -0.0809 -0.0000 0.9967
vn -0.0617 -0.0135 0.9980
vn -0.0561 0.0247 0.9981
vn -0.0619 -0.0000 0.9981
vn 0.0000 0.0000 -1.0000
vn -0.1095 0.0000 -0.9940
vn 0.0831 0.0000 -0.9965
vn 0.0617 0.0135 -0.9980
vn 0.0563 -0.0239 -0.9981
vn 0.0619 0.0000 -0.9981
vn -1.0000 0.0000 0.0000
vn -0.0435 -0.9991 0.0000
vn 0.0598 0.9982 0.0000
vn 0.0149 -0.9999 0.0000
vn 0.0148 -0.9999 0.0000
vn 1.0000 -0.0000 0.0000
vn -0.0462 0.9989 0.0000
vn 0.0146 -0.9999 0.0000
vn 0.3894 0.9197 -0.0501
vn 0.4249 0.9052 0.0000
vn -0.0256 0.9997 0.0000
vn -0.3566 0.9342 0.0032
vn -0.3373 0.9406 0.0380
vn -0.0592 -0.0000 0.9982
vn 0.0334 -0.0000 0.9994
vn 0.0339 -0.0000 0.9994
vn 0.0238 -0.0000 0.9997
vn 0.0592 0.0000 -0.9982
vn -0.0238 -0.0000 -0.9997
vn -0.0338 0.0000 -0.9994
vn -0.0334 0.0000 -0.9994
vn -0.0222 0.0000 -0.9998
vn -0.0331 -0.0097 -0.9994
vn 0.2979 -0.9546 -0.0000
vn 0.0222 -0.0000 0.9998
vn 0.0331 0.0097 0.9994
vn 0.0332 0.0097 0.9994
vn -0.0449 0.0000 -0.9990
vn -0.2786 -0.9604 -0.0000
vn 0.0449 -0.0000 0.9990
vn 0.0626 -0.0000 0.9980
vn -0.0475 -0.0000 0.9989
vn -0.0470 0.0021 0.9989
vn -0.0460 0.0067 0.9989
vn -0.0456 0.0088 0.9989
vn -0.0626 0.0000 -0.9980
vn 0.0456 -0.0088 -0.9989
vn 0.0470 -0.0021 -0.9989
vn 0.0460 -0.0067 -0.9989
vn 0.0475 0.0000 -0.9989
vn -0.0618 -0.9981 0.0000
vn 0.0850 0.9964 0.0000
vn -0.2400 -0.9708 0.0000
vn 0.1005 0.9949 0.0000
vn 0.0705 -0.9975 0.0000
vn -0.0364 0.9993 0.0000
vn -0.0657 0.9978 0.0000
vn 0.0212 -0.9998 0.0000
vn -0.3821 0.9241 0.0000
vn 0.0696 -0.0000 0.9976
vn -0.0968 -0.0000 0.9953
vn -0.0500 -0.0344 0.9982
vn -0.0696 0.0000 -0.9976
vn 0.0968 0.0000 -0.9953
vn 0.0500 0.0344 -0.9982
vn -0.0271 -0.9996 0.0000
vn 0.0374 0.9993 0.0000
vn 0.0062 -1.0000 -0.0000
vn 0.0093 -1.0000 0.0000
vn 0.0091 -1.0000 0.0000
vn -0.0289 0.9996 0.0000
vn 0.4467 0.8947 0.0000
vn 0.0574 0.9984 0.0000
vn 0.0574 0.9983 0.0000
vn 0.0775 0.0534 -0.9956
vn 0.1287 0.0006 -0.9917
vn 0.0235 -0.9997 0.0000
vn 0.0236 -0.9997 -0.0000
vn 0.0187 -0.9998 -0.0000
vn -0.0775 -0.0534 0.9956
vn -0.1287 -0.0006 0.9917
vn -0.4428 0.8966 0.0000
vn 0.1030 0.0005 -0.9947
vn 0.1028 0.0002 -0.9947
vn 0.1026 0.0000 -0.9947
vn 0.0189 -0.9998 0.0000
vn 0.0060 -1.0000 0.0000
vn -0.1030 -0.0005 0.9947
vn -0.1028 -0.0002 0.9947
vn -0.1026 -0.0000 0.9947
vn -0.0107 0.9999 0.0000
vn 0.0339 0.0000 -0.9994
vn -0.0339 -0.0000 0.9994
vn -0.0010 -0.0138 0.9999
vn 0.4555 0.8542 -0.2509
vn 0.0021 0.0274 -0.9996
vn -0.0754 -0.9972 0.0000
vn 0.9938 -0.1114 0.0000
vn -0.9922 0.1250 0.0000
vn -0.0078 -0.1026 0.9947
vn -0.1117 -0.0577 0.9921
vn -0.9979 0.0654 0.0000
vn -0.9970 0.0736 0.0237
vn 0.0374 -0.0181 -0.9991
vn -0.0021 -0.0281 -0.9996
vn -0.0026 -0.0349 -0.9994
vn -0.0024 -0.0313 -0.9995
vn 0.9957 -0.0925 0.0000
vn 0.9791 -0.1501 0.1370
vn 0.0019 0.0255 0.9997
vn -0.9998 0.0179 0.0000
vn -0.0026 -0.0346 -0.9994
vn 0.9996 -0.0270 -0.0000
vn 0.0985 0.5063 0.8567
vn 0.0994 0.4533 0.8858
vn 0.7982 0.5510 0.2433
vn 0.9009 0.3219 0.2912
vn -0.0323 0.5130 -0.8578
vn -0.0443 0.4496 -0.8921
vn -0.8468 0.5272 -0.0704
vn -0.8829 0.4632 -0.0771
vn -0.1958 0.9584 0.2077
usemtl None
s 1
f 1/1/1 2/2/1 3/3/1
f 3/3/1 2/2/1 4/4/1
f 5/5/2 6/6/2 7/7/2
f 8/8/3 9/9/3 10/10/3
f 10/10/3 9/9/3 11/11/3
f 11/11/4 9/9/4 1/1/4
f 1/1/4 9/9/4 2/2/4
f 9/9/5 8/8/5 2/2/5
f 2/2/5 8/8/5 4/4/5
f 11/11/6 1/1/6 10/10/6
f 10/10/6 1/1/6 3/3/6
f 12/12/7 13/13/8 14/14/9
f 14/14/9 13/13/8 15/15/10
f 12/12/11 14/14/12 16/16/13
f 16/16/13 14/14/12 17/17/14
f 17/17/15 18/18/16 16/16/17
f 16/16/17 18/18/16 19/19/18
f 19/19/19 18/18/20 13/13/21
f 13/13/21 18/18/20 15/15/22
f 4/4/23 13/13/23 3/3/23
f 3/3/23 13/13/23 12/12/23
f 3/3/24 12/12/24 10/10/24
f 10/10/24 12/12/24 16/16/24
f 16/16/25 19/19/25 10/10/25
f 10/10/25 19/19/25 8/8/25
f 4/4/26 8/8/26 13/13/26
f 13/13/26 8/8/26 19/19/26
f 14/20/27 15/21/28 5/5/29
f 5/5/29 15/21/28 6/6/30
f 18/22/31 7/7/31 15/21/31
f 15/21/32 7/7/32 6/6/32
f 18/22/33 17/23/33 7/7/33
f 7/7/34 17/23/34 20/24/34
f 14/20/35 5/5/36 17/23/37
f 17/23/37 5/5/36 20/24/38
f 5/5/39 7/7/39 20/24/39
f 21/25/40 22/26/40 23/27/40
f 23/27/40 22/26/40 24/28/40
f 25/29/41 26/30/41 27/31/41
f 27/31/41 26/30/41 28/32/41
f 23/27/42 24/28/42 29/33/42
f 24/28/43 25/29/43 29/33/43
f 29/33/44 25/29/44 30/34/44
f 25/29/45 27/31/45 30/34/45
f 31/35/46 32/36/46 33/37/46
f 33/37/46 32/36/46 34/38/46
f 35/39/47 36/40/47 37/41/47
f 37/41/47 36/40/47 38/42/47
f 32/36/48 39/43/48 34/38/48
f 34/38/49 39/43/49 38/42/49
f 39/43/50 40/44/50 38/42/50
f 40/44/51 37/41/51 38/42/51
f 31/35/52 33/37/52 21/25/52
f 21/25/52 33/37/52 22/26/52
f 33/37/53 34/38/53 22/26/53
f 22/26/53 34/38/53 24/28/53
f 32/36/54 31/35/54 23/27/54
f 23/27/54 31/35/54 21/25/54
f 36/40/55 26/30/55 38/42/56
f 38/42/56 26/30/55 25/29/56
f 36/40/57 35/39/57 26/30/57
f 26/30/57 35/39/57 28/32/57
f 35/39/58 37/41/58 28/32/58
f 28/32/58 37/41/58 27/31/58
f 34/38/59 38/42/56 24/28/59
f 24/28/59 38/42/56 25/29/56
f 29/33/60 39/43/60 23/27/60
f 23/27/61 39/43/61 32/36/61
f 40/44/62 30/34/62 37/41/62
f 37/41/62 30/34/62 27/31/62
f 30/34/63 40/44/63 29/33/63
f 29/33/64 40/44/64 39/43/64
f 41/45/40 42/46/40 43/47/40
f 43/47/40 42/46/40 44/48/40
f 45/49/65 46/50/65 47/51/65
f 47/51/65 46/50/65 48/52/65
f 44/48/66 49/53/67 43/47/66
f 43/47/66 49/53/67 50/54/68
f 51/55/46 52/56/46 53/57/46
f 53/57/46 52/56/46 54/58/46
f 55/59/69 56/60/69 57/61/69
f 57/61/69 56/60/69 58/62/69
f 59/63/70 60/64/71 52/56/72
f 52/56/72 60/64/71 54/58/72
f 51/55/52 53/57/52 41/45/52
f 41/45/52 53/57/52 42/46/52
f 53/57/53 54/58/53 42/46/53
f 42/46/53 54/58/53 44/48/53
f 52/56/54 51/55/54 43/47/54
f 43/47/54 51/55/54 41/45/54
f 58/62/55 56/60/55 45/49/55
f 45/49/55 56/60/55 46/50/55
f 56/60/57 55/59/57 46/50/57
f 46/50/57 55/59/57 48/52/57
f 57/61/58 47/51/58 55/59/58
f 55/59/58 47/51/58 48/52/58
f 60/64/59 49/53/59 54/58/59
f 54/58/59 49/53/59 44/48/59
f 59/63/62 52/56/62 50/54/62
f 50/54/62 52/56/62 43/47/62
f 61/65/62 59/63/62 62/66/62
f 62/66/62 59/63/62 50/54/62
f 60/64/71 59/63/70 63/67/73
f 63/67/74 59/63/74 61/65/74
f 49/53/75 60/64/75 64/68/75
f 64/68/75 60/64/75 63/67/75
f 49/53/67 64/68/76 50/54/68
f 50/54/77 64/68/78 62/66/77
f 57/61/62 61/65/62 47/51/62
f 47/51/62 61/65/62 62/66/62
f 61/65/74 57/61/74 63/67/74
f 63/67/79 57/61/79 58/62/79
f 64/68/80 63/67/80 45/49/80
f 45/49/80 63/67/80 58/62/80
f 62/66/77 64/68/78 47/51/78
f 47/51/81 64/68/81 45/49/81
f 65/69/82 66/70/82 67/71/82
f 67/71/82 66/70/82 68/72/82
f 69/73/40 70/74/40 71/75/40
f 71/75/40 70/74/40 72/76/40
f 68/72/83 70/74/84 67/71/85
f 67/71/85 70/74/84 69/73/86
f 73/77/87 74/78/87 75/79/87
f 75/79/87 74/78/87 76/80/87
f 77/81/46 78/82/46 79/83/46
f 79/83/46 78/82/46 80/84/46
f 77/81/88 79/83/89 74/78/90
f 74/78/90 79/83/89 76/80/91
f 73/77/52 75/79/52 65/69/52
f 65/69/52 75/79/52 66/70/52
f 76/80/92 68/72/92 75/79/92
f 75/79/92 68/72/92 66/70/92
f 74/78/93 73/77/93 67/71/93
f 67/71/93 73/77/93 65/69/93
f 79/83/94 80/84/94 70/74/94
f 70/74/94 80/84/94 72/76/94
f 81/85/57 82/86/57 83/87/57
f 83/87/57 82/86/57 84/88/57
f 78/82/95 77/81/95 71/75/95
f 71/75/95 77/81/95 69/73/95
f 76/80/96 79/83/96 68/72/96
f 68/72/96 79/83/96 70/74/96
f 74/78/97 67/71/97 77/81/97
f 77/81/97 67/71/97 69/73/97
f 82/86/98 85/89/98 84/88/98
f 84/88/98 85/89/98 86/90/98
f 87/91/46 85/89/46 81/85/46
f 81/85/46 85/89/46 82/86/46
f 88/92/99 87/91/99 83/87/99
f 83/87/99 87/91/99 81/85/99
f 88/92/40 83/87/40 86/90/40
f 86/90/40 83/87/40 84/88/40
f 85/89/100 78/82/100 86/90/100
f 86/90/100 78/82/100 71/75/100
f 80/84/46 78/82/46 87/91/46
f 87/91/46 78/82/46 85/89/46
f 72/76/99 80/84/99 88/92/99
f 88/92/99 80/84/99 87/91/99
f 72/76/40 88/92/40 71/75/40
f 71/75/40 88/92/40 86/90/40
f 89/93/101 90/94/101 91/95/101
f 91/95/101 90/94/101 92/96/101
f 93/97/40 94/98/40 95/99/40
f 95/99/40 94/98/40 96/100/40
f 91/95/102 92/96/102 97/101/102
f 97/101/103 92/96/103 98/102/103
f 99/103/104 100/104/104 101/105/104
f 101/105/104 100/104/104 102/106/104
f 103/107/46 104/108/46 105/109/46
f 105/109/46 104/108/46 106/110/46
f 100/104/105 107/111/105 102/106/105
f 102/106/106 107/111/106 108/112/106
f 99/103/52 101/105/52 89/93/52
f 89/93/52 101/105/52 90/94/52
f 102/106/107 92/96/107 101/105/107
f 101/105/107 92/96/107 90/94/107
f 100/104/108 99/103/108 91/95/108
f 91/95/108 99/103/108 89/93/108
f 106/110/109 104/108/110 93/97/111
f 93/97/111 104/108/110 94/98/110
f 104/108/57 103/107/57 94/98/57
f 94/98/57 103/107/57 96/100/57
f 103/107/112 105/109/112 96/100/112
f 96/100/112 105/109/112 95/99/112
f 102/106/111 108/112/111 92/96/111
f 92/96/111 108/112/111 98/102/111
f 100/104/113 91/95/113 107/111/113
f 107/111/113 91/95/113 97/101/113
f 107/111/114 97/101/115 109/113/115
f 109/113/115 97/101/115 110/114/115
f 107/111/116 109/113/116 108/112/116
f 108/112/117 109/113/117 111/115/117
f 108/112/118 111/115/119 98/102/118
f 98/102/118 111/115/119 112/116/120
f 97/101/121 98/102/121 110/114/121
f 110/114/122 98/102/122 112/116/122
f 109/113/123 110/114/123 113/117/123
f 113/117/123 110/114/123 114/118/123
f 111/115/124 109/113/125 115/119/125
f 115/119/125 109/113/125 113/117/126
f 111/115/119 115/119/127 112/116/120
f 112/116/120 115/119/127 116/120/128
f 112/116/129 116/120/130 110/114/130
f 110/114/130 116/120/130 114/118/131
f 113/117/132 114/118/132 105/109/132
f 105/109/132 114/118/132 95/99/132
f 115/119/133 113/117/133 106/110/133
f 106/110/133 113/117/133 105/109/133
f 115/119/127 106/110/109 116/120/128
f 116/120/128 106/110/109 93/97/111
f 116/120/134 93/97/134 114/118/134
f 114/118/134 93/97/134 95/99/134
f 117/121/135 118/122/135 119/123/135
f 119/123/135 118/122/135 120/124/135
f 121/125/136 122/126/136 123/127/136
f 124/128/137 125/129/137 126/130/137
f 126/130/137 125/129/137 127/131/137
f 127/131/138 125/129/138 117/121/138
f 117/121/138 125/129/138 118/122/138
f 125/129/139 124/128/139 118/122/139
f 118/122/139 124/128/139 120/124/139
f 127/131/140 117/121/140 126/130/140
f 126/130/140 117/121/140 119/123/140
f 128/132/141 129/133/141 130/134/141
f 130/134/142 129/133/142 131/135/142
f 132/136/143 130/134/143 133/137/143
f 133/137/144 130/134/144 131/135/144
f 134/138/145 135/139/145 133/137/145
f 133/137/146 135/139/147 132/136/148
f 128/132/149 135/139/149 129/133/149
f 129/133/150 135/139/150 134/138/150
f 120/124/151 128/132/151 119/123/151
f 119/123/151 128/132/151 130/134/151
f 119/123/152 130/134/152 126/130/152
f 126/130/152 130/134/152 132/136/152
f 132/136/148 135/139/147 126/130/153
f 126/130/153 135/139/147 124/128/153
f 120/124/154 124/128/154 128/132/154
f 128/132/154 124/128/154 135/139/154
f 129/140/155 122/126/155 131/141/155
f 131/141/156 122/126/156 121/125/156
f 129/140/157 134/142/157 122/126/157
f 122/126/158 134/142/158 136/143/158
f 133/144/159 123/127/159 134/142/159
f 134/142/160 123/127/160 136/143/160
f 133/144/161 131/141/161 123/127/161
f 123/127/162 131/141/162 121/125/162
f 123/127/163 122/126/163 136/143/163
