# Blender v2.78 (sub 0) OBJ File: ''
# www.blender.org
mtllib SM_Env_Cloud_07.mtl
o SM_Env_Cloud_07
v -189.388229 -99.164093 181.821884
v -114.845444 -70.094643 236.308456
v -205.331223 -71.695953 195.575302
v -44.453964 -109.102562 154.625839
v -33.062851 -92.346588 193.905136
v 6.897903 -74.547760 188.027695
v -32.111496 -0.300448 200.183716
v -36.646347 25.581301 173.372681
v -129.992111 26.100222 174.864136
v -159.204819 -35.023598 224.746948
v -167.842758 41.920944 93.611458
v -144.212021 50.810783 53.382942
v -229.826279 -2.202711 77.959106
v 26.717300 -17.634789 135.961548
v -58.739059 45.104877 71.332161
v -101.007492 39.321285 19.678350
v 6.547989 5.571948 72.144653
v -11.042831 -25.361572 1.002804
v -204.059677 25.041252 42.453983
v -153.196518 19.108034 -7.711789
v -213.030807 -48.291809 -11.376106
v -98.345810 -39.694695 -37.048958
v -127.612900 -66.995476 -37.415661
v -22.446030 -98.322876 6.390487
v -97.052048 -106.869141 10.390486
v -222.675400 -82.199341 15.826036
v -128.197311 -116.507217 84.389999
v -212.616562 -101.706558 108.981796
v 25.198563 -93.153816 53.413681
v 11.499771 -99.514793 129.952255
v 38.645767 -67.039436 50.707630
v -244.114243 -39.360722 34.088249
v -41.504868 -101.826797 93.224228
v -56.114548 -76.547752 157.336044
v -116.879379 -57.390400 127.049675
v 35.061539 -79.077660 141.389755
v 4.148880 -19.746794 176.000366
v -41.981491 -16.208036 176.539185
v 116.818863 -79.983780 96.212753
v 154.220230 -45.368118 88.749138
v 89.640640 -15.856348 149.588013
v 141.647537 14.990554 100.007690
v 53.196548 49.944191 144.166153
v 99.076675 60.412884 110.749641
v 37.168045 82.073067 122.494522
v -105.581406 18.816908 104.243774
v -33.911667 32.864933 156.582397
v 8.299454 103.065567 90.837296
v -59.804977 110.711884 11.484027
v 3.331863 121.801117 13.856343
v -117.412949 81.763641 -20.531847
v 51.842911 105.024490 73.173477
v 125.638748 58.974266 56.483776
v 67.359024 105.072540 15.604631
v 2.083145 117.691139 -33.460064
v 121.790909 50.724953 -40.185905
v 2.550980 100.674667 -74.107773
v 106.101212 13.763077 -95.602661
v -77.225143 104.800789 -48.937607
v -43.043747 63.272846 -115.678825
v -139.199387 47.494335 -64.973503
v -62.985397 11.102286 -135.317505
v 20.938370 19.096457 -129.122192
v 6.276443 -31.777382 -139.879761
v -62.732407 -41.324013 -135.534790
v -137.857101 -4.268172 -98.223999
v 138.697891 -44.189804 -90.562141
v 7.147171 -80.462387 -114.910294
v 120.061050 -90.943474 -44.535538
v -128.465988 -61.974960 -90.295540
v 6.554581 -105.292107 -45.375137
v -28.870834 -109.127197 16.051619
v -105.271591 -96.762207 -0.550431
v 72.337662 -105.486946 26.711775
v 144.378189 -83.212646 10.112413
v 167.879166 -27.367924 29.229122
v 145.485123 -70.134636 -63.462780
v 161.261368 -5.429135 -20.213013
v -146.331223 -73.514885 -34.913219
v -150.502365 -69.402718 27.876575
v -165.457809 -23.641420 9.441036
v -159.996933 20.272526 -24.399532
v 114.398209 -103.889404 -6.200334
v 94.611099 -84.916008 -40.094620
v 134.737442 -75.583855 -53.533092
v 62.528275 -83.229370 6.157336
v 64.566360 -42.763912 -22.383675
v 92.491776 -9.170283 -30.866335
v 39.821609 -37.317753 25.846552
v 36.668167 -56.875744 79.970329
v 41.029861 -15.753124 69.338745
v 61.873917 5.872221 11.993287
v 80.085892 26.346403 14.128789
v 144.633072 -23.819086 -39.377811
v 107.349930 38.281216 15.054572
v 143.827164 48.072227 45.710091
v 207.450760 14.157714 8.470583
v 69.406693 12.031694 80.753296
v 114.763382 39.505573 72.748421
v 180.703995 30.395647 83.125618
v 112.162552 2.707500 120.483521
v 140.347000 -25.264671 137.634399
v 204.065079 30.635340 37.846806
v 215.618301 1.315508 81.429565
v 233.673050 -11.841739 18.274778
v 229.224319 -35.939098 81.537468
v 198.978470 -62.384052 113.702751
v 225.855026 -71.777115 82.071152
v 244.114243 -48.379642 33.402946
v 120.598343 -63.272118 149.937851
v 184.734818 -94.721207 103.708847
v 94.384415 -103.821060 71.483017
v 233.009811 -87.130867 34.436874
v 153.440811 -109.193008 73.871933
v 182.251907 -106.632446 6.304304
v 72.311905 -86.039566 109.586044
v 57.651505 -46.136005 111.216179
v 104.375381 -79.726219 141.446884
v 216.012375 -93.788940 3.102158
v 208.232742 -58.918026 -24.451059
v -11.383713 -114.694550 -172.883926
v -37.897873 -89.270714 -218.301407
v 15.870071 -76.766075 -236.308487
v -80.887741 -87.010719 -156.325089
v -78.156784 -32.788422 -194.568970
v -40.737717 12.225863 -205.935913
v -111.313889 -25.490763 -129.942505
v -115.539291 -51.697746 -57.418098
v -109.694992 3.405102 -71.664673
v -81.764633 32.382347 -148.505005
v -57.361069 59.817009 -145.643173
v 29.129837 -7.403041 -217.340942
v -20.828232 75.809258 -144.403183
v 113.303482 43.484676 -153.224976
v 28.050003 88.928909 -103.325546
v -71.670944 40.635780 -56.369255
v -10.894516 77.449898 -67.095566
v 77.463699 65.242836 -53.190540
v -14.379440 28.141724 -3.131953
v 23.386734 -9.340030 19.849730
v 108.766678 65.564041 -113.862175
v 124.247757 26.276529 -55.463009
v 148.440384 8.646263 -140.087769
v 142.479202 -23.643423 -55.318485
v 101.950821 -59.078732 -12.217906
v 137.964554 -71.665154 -54.603649
v 162.431290 -40.313335 -119.817268
v -3.075790 -60.268684 36.335316
v 82.864761 -102.409416 -25.609514
v -38.201523 -114.603020 -68.790665
v 147.551773 -92.238625 -118.430801
v 40.931961 -121.801140 -65.589256
v 79.537796 -118.370094 -156.128555
v -67.778000 -90.776245 -17.734756
v -87.422470 -37.306942 -15.549932
v -24.814133 -82.316658 24.958361
v 124.775711 -101.160133 -160.419083
v 134.539871 -15.534761 -175.155396
vt 0.4394 0.5267
vt 0.4394 0.5267
vt 0.4394 0.5267
vt 0.4394 0.5267
vt 0.4394 0.5267
vt 0.4394 0.5267
vt 0.4394 0.5267
vt 0.4394 0.5267
vt 0.4394 0.5267
vt 0.4394 0.5267
vt 0.4394 0.5267
vt 0.4394 0.5267
vt 0.4394 0.5267
vt 0.4394 0.5267
vt 0.4394 0.5267
vt 0.4394 0.5267
vt 0.4394 0.5267
vt 0.4394 0.5267
vt 0.4394 0.5267
vt 0.4394 0.5267
vt 0.4394 0.5267
vt 0.4394 0.5267
vt 0.4394 0.5267
vt 0.4394 0.5267
vt 0.4394 0.5267
vt 0.4394 0.5267
vt 0.4394 0.5267
vt 0.4394 0.5267
vt 0.4394 0.5267
vt 0.4394 0.5267
vt 0.4394 0.5267
vt 0.4394 0.5267
vt 0.4394 0.5267
vt 0.4394 0.5267
vt 0.4394 0.5267
vt 0.4394 0.5267
vt 0.4394 0.5267
vt 0.4394 0.5267
vt 0.4394 0.5267
vt 0.4394 0.5267
vt 0.4394 0.5267
vt 0.4394 0.5267
vt 0.4394 0.5267
vt 0.4394 0.5267
vt 0.4394 0.5267
vt 0.4394 0.5267
vt 0.4394 0.5267
vt 0.4394 0.5267
vt 0.4394 0.5267
vt 0.4394 0.5267
vt 0.4394 0.5267
vt 0.4394 0.5267
vt 0.4394 0.5267
vt 0.4394 0.5267
vt 0.4394 0.5267
vt 0.4394 0.5267
vt 0.4394 0.5267
vt 0.4394 0.5267
vt 0.4394 0.5267
vt 0.4394 0.5267
vt 0.4394 0.5267
vt 0.4394 0.5267
vt 0.4394 0.5267
vt 0.4394 0.5267
vt 0.4394 0.5267
vt 0.4394 0.5267
vt 0.4394 0.5267
vt 0.4394 0.5267
vt 0.4394 0.5267
vt 0.4394 0.5267
vt 0.4394 0.5267
vt 0.4394 0.5267
vt 0.4394 0.5267
vt 0.4394 0.5267
vt 0.4394 0.5267
vt 0.4394 0.5267
vt 0.4394 0.5267
vt 0.4394 0.5267
vt 0.4394 0.5267
vt 0.4394 0.5267
vt 0.4394 0.5267
vt 0.4394 0.5267
vt 0.4394 0.5267
vt 0.4394 0.5267
vt 0.4394 0.5267
vt 0.4394 0.5267
vt 0.4394 0.5267
vt 0.4394 0.5267
vt 0.4394 0.5267
vt 0.4394 0.5267
vt 0.4394 0.5267
vt 0.4394 0.5267
vt 0.4394 0.5267
vt 0.4394 0.5267
vt 0.4394 0.5267
vt 0.4394 0.5267
vt 0.4394 0.5267
vt 0.4394 0.5267
vt 0.4394 0.5267
vt 0.4394 0.5267
vt 0.4394 0.5267
vt 0.4394 0.5267
vt 0.4394 0.5267
vt 0.4394 0.5267
vt 0.4394 0.5267
vt 0.4394 0.5267
vt 0.4394 0.5267
vt 0.4394 0.5267
vt 0.4394 0.5267
vt 0.4394 0.5267
vt 0.4394 0.5267
vt 0.4394 0.5267
vt 0.4394 0.5267
vt 0.4394 0.5267
vt 0.4394 0.5267
vt 0.4394 0.5267
vt 0.4394 0.5267
vt 0.4394 0.5267
vt 0.4394 0.5267
vt 0.4394 0.5267
vt 0.4394 0.5267
vt 0.4394 0.5267
vt 0.4394 0.5267
vt 0.4394 0.5267
vt 0.4394 0.5267
vt 0.4394 0.5267
vt 0.4394 0.5267
vt 0.4394 0.5267
vt 0.4394 0.5267
vt 0.4394 0.5267
vt 0.4394 0.5267
vt 0.4394 0.5267
vt 0.4394 0.5267
vt 0.4394 0.5267
vt 0.4394 0.5267
vt 0.4394 0.5267
vt 0.4394 0.5267
vt 0.4394 0.5267
vt 0.4394 0.5267
vt 0.4394 0.5267
vt 0.4394 0.5267
vt 0.4394 0.5267
vt 0.4394 0.5267
vt 0.4394 0.5267
vt 0.4394 0.5267
vt 0.4394 0.5267
vt 0.4394 0.5267
vt 0.4394 0.5267
vt 0.4394 0.5267
vt 0.4394 0.5267
vt 0.4394 0.5267
vt 0.4394 0.5267
vt 0.4394 0.5267
vt 0.4394 0.5267
vt 0.4394 0.5267
vt 0.4394 0.5267
vt 0.4394 0.5267
vt 0.4394 0.5267
vn -0.3293 -0.5686 0.7538
vn 0.0224 -0.8945 0.4465
vn -0.0405 -0.9148 0.4020
vn 0.4244 -0.8708 0.2484
vn 0.3180 -0.4358 0.8420
vn 0.3697 0.0422 0.9282
vn 0.0151 0.7207 0.6931
vn -0.3983 -0.2094 0.8930
vn 0.0704 0.3915 0.9175
vn -0.0262 0.6395 0.7683
vn 0.0085 0.9823 0.1873
vn -0.0071 0.9773 0.2118
vn -0.5923 0.6773 0.4364
vn -0.6347 0.6475 0.4217
vn 0.6693 0.5879 0.4544
vn 0.5759 0.8169 0.0316
vn 0.0274 0.9829 0.1821
vn 0.1063 0.9748 -0.1961
vn 0.4674 0.7626 -0.4472
vn 0.4545 0.7643 -0.4575
vn -0.5502 0.8230 -0.1413
vn -0.4236 0.8406 0.3376
vn -0.1107 0.8887 -0.4449
vn -0.2983 0.8644 -0.4047
vn -0.5618 0.5331 -0.6326
vn 0.1934 0.5765 -0.7939
vn -0.2294 0.2578 -0.9386
vn -0.2294 0.2547 -0.9394
vn -0.2294 0.2584 -0.9384
vn -0.2294 0.2586 -0.9384
vn 0.2476 0.5705 -0.7831
vn 0.4141 -0.1312 -0.9007
vn 0.0222 -0.5764 -0.8168
vn -0.3513 -0.5231 -0.7765
vn 0.4764 -0.5010 -0.7225
vn -0.1831 -0.8094 -0.5580
vn -0.1971 -0.9581 -0.2078
vn -0.2198 -0.9593 -0.1772
vn -0.1489 -0.9855 0.0819
vn 0.1107 -0.9923 -0.0557
vn 0.1551 -0.9867 -0.0487
vn 0.1468 -0.9877 -0.0546
vn 0.1547 -0.9867 -0.0491
vn 0.1445 -0.9879 -0.0562
vn 0.1442 -0.9872 -0.0679
vn 0.3218 -0.8603 0.3954
vn -0.0394 -0.9877 0.1511
vn 0.8875 -0.4444 0.1219
vn 0.9497 -0.1945 0.2456
vn 0.9685 -0.1917 0.1591
vn 0.6637 -0.4068 -0.6277
vn 0.6308 -0.1547 -0.7604
vn 0.7897 0.4667 -0.3982
vn 0.8932 0.4318 -0.1253
vn 0.7432 0.2919 0.6020
vn 0.5110 0.8470 0.1465
vn -0.8938 -0.4484 0.0026
vn -0.9471 -0.2702 0.1733
vn -0.8276 -0.1888 -0.5287
vn -0.7700 -0.5800 0.2658
vn -0.9656 0.0789 0.2477
vn -0.7123 0.5292 0.4610
vn -0.8233 0.5362 -0.1860
vn -0.6718 0.4900 -0.5555
vn -0.4039 -0.8787 0.2544
vn 0.0398 -0.9264 0.3744
vn -0.0119 -0.3007 0.9536
vn -0.4806 -0.1617 0.8619
vn 0.4566 -0.3138 0.8325
vn 0.2899 -0.3650 0.8847
vn 0.4644 -0.4961 0.7336
vn 0.6876 0.0078 0.7261
vn 0.1426 -0.4423 0.8855
vn 0.2776 0.2306 0.9326
vn 0.5261 0.3551 0.7728
vn 0.5176 0.2952 0.8031
vn 0.3530 0.6378 0.6845
vn -0.6363 0.3062 0.7081
vn 0.0408 0.3913 0.9194
vn 0.0602 0.3675 0.9281
vn 0.0077 0.5618 0.8272
vn -0.5923 0.3852 0.7077
vn -0.4881 0.7347 0.4711
vn -0.1900 0.7295 0.6570
vn -0.1767 0.9537 0.2435
vn -0.5050 0.7504 0.4265
vn -0.5992 0.5636 0.5686
vn 0.1439 0.8801 0.4524
vn 0.3694 0.7956 0.4802
vn 0.5526 0.7952 0.2494
vn 0.5475 0.8236 0.1482
vn 0.0509 0.9711 0.2331
vn 0.2505 0.9657 0.0683
vn 0.2541 0.9630 -0.0903
vn 0.6559 0.7494 -0.0901
vn 0.4374 0.8191 -0.3712
vn 0.4441 0.8283 -0.3416
vn 0.4496 0.6791 -0.5802
vn -0.4702 0.8812 0.0494
vn -0.1711 0.9841 -0.0470
vn -0.1443 0.9861 -0.0818
vn -0.0742 0.9196 -0.3858
vn -0.1392 0.8072 -0.5736
vn -0.6152 0.7408 -0.2696
vn -0.4361 0.6467 -0.6258
vn -0.4713 0.4635 -0.7504
vn -0.4717 0.4628 -0.7505
vn -0.4681 0.4682 -0.7494
vn 0.0370 0.3396 -0.9398
vn 0.0541 0.1916 -0.9800
vn -0.0634 0.0038 -0.9980
vn -0.4442 0.0016 -0.8959
vn 0.2849 0.5360 -0.7947
vn 0.3109 0.6588 -0.6851
vn 0.3702 0.1282 -0.9201
vn 0.3552 0.0943 -0.9300
vn 0.2783 -0.4344 -0.8567
vn 0.3135 -0.7267 -0.6112
vn -0.5127 -0.1982 -0.8354
vn 0.0071 -0.4562 -0.8898
vn -0.2172 -0.7295 -0.6486
vn -0.1863 -0.9248 -0.3318
vn -0.2393 -0.9507 -0.1974
vn -0.0770 -0.9362 -0.3430
vn 0.0400 -0.9984 -0.0392
vn 0.1207 -0.9352 -0.3329
vn 0.2961 -0.9552 0.0034
vn 0.1254 -0.9852 -0.1171
vn 0.3215 -0.9368 0.1380
vn 0.1352 -0.9550 0.2639
vn 0.1211 -0.9580 0.2600
vn -0.1731 -0.9828 0.0646
vn 0.0254 -0.9948 0.0983
vn -0.4138 -0.8798 0.2338
vn 0.6844 -0.6867 0.2448
vn 0.9078 -0.4108 0.0841
vn 0.9267 -0.3721 -0.0522
vn 0.5648 -0.8139 -0.1362
vn 0.0635 -0.7129 -0.6984
vn 0.9582 -0.0446 -0.2827
vn 0.9764 -0.1162 -0.1823
vn 0.7923 0.3901 -0.4691
vn 0.7796 0.3963 -0.4850
vn 0.8287 0.5539 -0.0803
vn 0.9044 0.4216 0.0660
vn 0.9529 0.1493 0.2638
vn 0.9054 0.4155 0.0869
vn 0.7251 0.5994 0.3390
vn -0.2828 -0.9167 -0.2822
vn -0.5069 -0.8617 0.0228
vn -0.9447 -0.3254 -0.0414
vn -0.9509 -0.1059 -0.2909
vn -0.9205 -0.1962 -0.3378
vn -0.9615 -0.1119 -0.2511
vn -0.3880 -0.8901 0.2393
vn -0.9272 -0.1682 0.3347
vn -0.8649 0.2572 0.4311
vn -0.8483 0.3854 0.3632
vn -0.7837 0.5215 0.3374
vn -0.4675 0.4692 -0.7492
vn -0.9198 0.1950 -0.3406
vn -0.8204 0.5705 -0.0378
vn 0.0326 -0.8639 -0.5026
vn -0.4093 -0.8769 -0.2519
vn -0.7802 -0.3338 -0.5290
vn -0.3974 0.1000 -0.9122
vn -0.3376 0.1045 -0.9355
vn -0.8723 -0.2517 -0.4191
vn -0.9101 -0.3700 -0.1867
vn -0.9948 0.0999 -0.0219
vn -0.8407 0.2807 -0.4630
vn -0.8985 0.4027 -0.1747
vn -0.7460 0.6657 -0.0201
vn -0.0785 0.2769 -0.9577
vn -0.6724 0.4020 -0.6215
vn -0.5646 0.5650 -0.6017
vn 0.0727 0.6817 -0.7280
vn -0.2894 0.7109 -0.6410
vn 0.1751 0.8582 -0.4825
vn 0.1207 0.6943 -0.7095
vn -0.7069 0.7062 0.0384
vn -0.5018 0.8587 0.1041
vn -0.3992 0.8973 0.1884
vn -0.3088 0.9506 -0.0307
vn 0.0700 0.9268 0.3689
vn -0.3555 0.7495 0.5584
vn 0.0132 0.7916 0.6109
vn 0.1608 0.6286 0.7609
vn 0.1900 0.8655 -0.4636
vn 0.2934 0.9431 0.1564
vn 0.6152 0.7199 0.3212
vn 0.7270 0.6313 -0.2703
vn 0.8406 0.5256 0.1308
vn 0.9212 0.3376 0.1934
vn 0.9214 0.3371 0.1932
vn 0.9190 0.3425 0.1951
vn 0.5400 0.1996 0.8176
vn 0.5311 0.3378 0.7771
vn 0.7517 -0.0609 0.6567
vn 0.9456 -0.0842 0.3143
vn 0.4212 0.4601 0.7816
vn 0.4177 0.0760 0.9054
vn 0.3842 -0.4229 0.8207
vn -0.0830 -0.8737 0.4793
vn 0.9381 -0.2628 0.2256
vn 0.6014 -0.4656 0.6493
vn 0.5858 -0.7415 0.3270
vn 0.3201 -0.9397 0.1201
vn 0.3100 -0.9458 0.0963
vn -0.0873 -0.9934 -0.0749
vn -0.0983 -0.8510 0.5159
vn -0.6313 -0.7755 -0.0038
vn -0.6246 -0.7787 0.0592
vn -0.3885 -0.9161 -0.0993
vn -0.0387 -0.9992 -0.0091
vn 0.0561 -0.8673 -0.4946
vn -0.7422 -0.2972 0.6006
vn -0.6519 -0.2685 0.7092
vn -0.1569 -0.9267 0.3415
vn 0.6611 -0.7334 0.1582
vn -0.5108 0.0612 0.8575
vn -0.4312 0.3213 0.8431
vn -0.1720 0.3831 0.9075
vn -0.5421 0.4732 0.6944
vn -0.8433 0.2166 0.4919
vn -0.6733 0.4452 0.5903
vn 0.3560 -0.9345 0.0054
vn 0.8708 -0.2606 -0.4170
vn 0.8487 -0.1981 -0.4903
vn 0.2378 -0.7720 -0.5894
vn 0.4141 -0.5056 -0.7569
vn 0.3232 0.1916 -0.9267
vn 0.4046 0.3792 -0.8322
vn 0.9186 0.3434 0.1954
vn 0.8477 0.0228 -0.5299
vn 0.6019 0.3334 -0.7257
vn -0.5646 0.5650 -0.6016
vn 0.8406 0.5257 0.1308
vn 0.9190 0.3426 0.1951
vn 0.8708 -0.2607 -0.4169
vn 0.8424 -0.1833 -0.5067
vn 0.5290 -0.2022 -0.8242
vn 0.3774 0.1764 -0.9091
vn 0.3631 0.4365 -0.8232
vn 0.9046 0.0856 -0.4176
vn 0.6718 0.4580 -0.5821
usemtl None
s 1
f 1/1/1 2/2/1 3/3/1
f 1/1/2 4/4/2 2/2/2
f 4/4/3 5/5/3 2/2/3
f 4/4/4 6/6/4 5/5/4
f 5/5/5 6/6/5 2/2/5
f 2/2/6 6/6/6 7/7/6
f 7/7/7 8/8/7 9/9/7
f 3/3/8 2/2/8 10/10/8
f 2/2/9 7/7/9 10/10/9
f 10/10/10 7/7/10 9/9/10
f 9/9/11 8/8/11 11/11/11
f 11/11/12 8/8/12 12/12/12
f 10/10/13 11/11/13 13/13/13
f 10/10/14 9/9/14 11/11/14
f 7/7/15 14/14/15 8/8/15
f 8/8/16 14/14/16 15/15/16
f 8/8/17 15/15/17 12/12/17
f 12/12/18 15/15/18 16/16/18
f 15/15/19 17/17/19 18/18/19
f 15/15/20 18/18/20 16/16/20
f 13/13/21 11/11/21 12/12/21
f 13/13/22 12/12/22 19/19/22
f 12/12/23 16/16/23 20/20/23
f 19/19/24 12/12/24 20/20/24
f 19/19/25 20/20/25 21/21/25
f 20/20/26 16/16/26 22/22/26
f 21/21/27 20/20/28 22/22/29
f 21/21/27 22/22/29 23/23/30
f 16/16/31 18/18/31 22/22/31
f 18/18/32 24/24/32 22/22/32
f 22/22/33 24/24/33 25/25/33
f 21/21/34 23/23/34 26/26/34
f 23/23/35 22/22/35 25/25/35
f 26/26/36 23/23/36 25/25/36
f 26/26/37 25/25/37 27/27/37
f 26/26/38 27/27/38 28/28/38
f 28/28/39 27/27/39 1/1/39
f 25/25/40 24/24/40 4/4/40
f 24/24/41 29/29/42 4/4/43
f 29/29/42 30/30/44 4/4/43
f 25/25/45 4/4/45 27/27/45
f 30/30/46 6/6/46 4/4/46
f 27/27/47 4/4/47 1/1/47
f 30/30/48 29/29/48 31/31/48
f 30/30/49 31/31/49 14/14/49
f 6/6/50 30/30/50 14/14/50
f 29/29/51 24/24/51 31/31/51
f 31/31/52 24/24/52 18/18/52
f 31/31/53 18/18/53 17/17/53
f 14/14/54 31/31/54 17/17/54
f 6/6/55 14/14/55 7/7/55
f 14/14/56 17/17/56 15/15/56
f 26/26/57 28/28/57 32/32/57
f 32/32/58 28/28/58 3/3/58
f 21/21/59 26/26/59 32/32/59
f 28/28/60 1/1/60 3/3/60
f 32/32/61 3/3/61 13/13/61
f 13/13/62 3/3/62 10/10/62
f 32/32/63 13/13/63 19/19/63
f 21/21/64 32/32/64 19/19/64
f 33/33/65 34/34/65 35/35/65
f 34/34/66 33/33/66 36/36/66
f 34/34/67 37/37/67 38/38/67
f 35/35/68 34/34/68 38/38/68
f 36/36/69 39/39/69 40/40/69
f 36/36/70 41/41/70 37/37/70
f 36/36/71 40/40/71 41/41/71
f 41/41/72 40/40/72 42/42/72
f 34/34/73 36/36/73 37/37/73
f 37/37/74 41/41/74 43/43/74
f 41/41/75 42/42/75 43/43/75
f 43/43/76 42/42/76 44/44/76
f 43/43/77 44/44/77 45/45/77
f 46/46/78 35/35/78 38/38/78
f 38/38/79 37/37/79 43/43/79
f 38/38/80 43/43/80 47/47/80
f 47/47/81 43/43/81 45/45/81
f 38/38/82 47/47/82 46/46/82
f 46/46/83 47/47/83 48/48/83
f 47/47/84 45/45/84 48/48/84
f 49/49/85 48/48/85 50/50/85
f 46/46/86 48/48/86 51/51/86
f 48/48/87 49/49/87 51/51/87
f 45/45/88 52/52/88 48/48/88
f 45/45/89 44/44/89 52/52/89
f 52/52/90 44/44/90 53/53/90
f 52/52/91 53/53/91 54/54/91
f 48/48/92 52/52/92 50/50/92
f 52/52/93 54/54/93 50/50/93
f 50/50/94 54/54/94 55/55/94
f 53/53/95 56/56/95 54/54/95
f 55/55/96 54/54/96 56/56/96
f 55/55/97 56/56/97 57/57/97
f 57/57/98 56/56/98 58/58/98
f 51/51/99 49/49/99 59/59/99
f 49/49/100 50/50/100 59/59/100
f 50/50/101 55/55/101 59/59/101
f 55/55/102 57/57/102 59/59/102
f 59/59/103 57/57/103 60/60/103
f 51/51/104 59/59/104 61/61/104
f 61/61/105 59/59/105 60/60/105
f 61/61/106 60/60/107 62/62/108
f 60/60/109 63/63/109 62/62/109
f 62/62/110 63/63/110 64/64/110
f 62/62/111 64/64/111 65/65/111
f 66/66/112 62/62/112 65/65/112
f 57/57/113 58/58/113 60/60/113
f 60/60/114 58/58/114 63/63/114
f 58/58/115 67/67/115 63/63/115
f 64/64/116 63/63/116 67/67/116
f 64/64/117 67/67/117 68/68/117
f 67/67/118 69/69/118 68/68/118
f 66/66/119 65/65/119 70/70/119
f 65/65/120 64/64/120 68/68/120
f 65/65/121 68/68/121 70/70/121
f 70/70/122 68/68/122 71/71/122
f 70/70/123 71/71/123 72/72/123
f 70/70/124 72/72/124 73/73/124
f 72/72/125 71/71/125 74/74/125
f 71/71/126 68/68/126 69/69/126
f 74/74/127 69/69/127 75/75/127
f 71/71/128 69/69/128 74/74/128
f 74/74/129 75/75/129 39/39/129
f 74/74/130 39/39/130 36/36/130
f 33/33/131 74/74/131 36/36/131
f 73/73/132 72/72/132 33/33/132
f 72/72/133 74/74/133 33/33/133
f 73/73/134 33/33/134 35/35/134
f 39/39/135 75/75/135 40/40/135
f 40/40/136 75/75/136 76/76/136
f 75/75/137 77/77/137 76/76/137
f 69/69/138 77/77/138 75/75/138
f 69/69/139 67/67/139 77/77/139
f 77/77/140 67/67/140 78/78/140
f 77/77/141 78/78/141 76/76/141
f 78/78/142 67/67/142 56/56/142
f 67/67/143 58/58/143 56/56/143
f 78/78/144 56/56/144 53/53/144
f 76/76/145 78/78/145 53/53/145
f 40/40/146 76/76/146 42/42/146
f 42/42/147 76/76/147 53/53/147
f 42/42/148 53/53/148 44/44/148
f 70/70/149 73/73/149 79/79/149
f 79/79/150 73/73/150 80/80/150
f 79/79/151 80/80/151 81/81/151
f 79/79/152 81/81/152 82/82/152
f 70/70/153 79/79/153 66/66/153
f 66/66/154 79/79/154 82/82/154
f 73/73/155 35/35/155 80/80/155
f 80/80/156 35/35/156 81/81/156
f 81/81/157 35/35/157 46/46/157
f 81/81/158 46/46/158 82/82/158
f 82/82/159 46/46/159 51/51/159
f 66/66/160 61/61/106 62/62/108
f 66/66/161 82/82/161 61/61/161
f 61/61/162 82/82/162 51/51/162
f 83/83/163 84/84/163 85/85/163
f 84/84/164 83/83/164 86/86/164
f 84/84/165 86/86/165 87/87/165
f 84/84/166 87/87/166 88/88/166
f 84/84/167 88/88/167 85/85/167
f 86/86/168 89/89/168 87/87/168
f 86/86/169 90/90/169 89/89/169
f 89/89/170 90/90/170 91/91/170
f 87/87/171 89/89/171 92/92/171
f 89/89/172 91/91/172 92/92/172
f 92/92/173 91/91/173 93/93/173
f 94/94/174 85/85/174 88/88/174
f 88/88/175 87/87/175 92/92/175
f 88/88/176 92/92/176 93/93/176
f 94/94/177 88/88/177 95/95/177
f 88/88/178 93/93/178 95/95/178
f 95/95/179 96/96/179 97/97/179
f 94/94/180 95/95/180 97/97/180
f 93/93/181 91/91/181 98/98/181
f 93/93/182 98/98/182 99/99/182
f 95/95/183 93/93/183 96/96/183
f 93/93/184 99/99/184 96/96/184
f 96/96/185 99/99/185 100/100/185
f 98/98/186 101/101/186 99/99/186
f 100/100/187 99/99/187 101/101/187
f 100/100/188 101/101/188 102/102/188
f 97/97/189 96/96/189 103/103/189
f 96/96/190 100/100/190 103/103/190
f 103/103/191 100/100/191 104/104/191
f 97/97/192 103/103/192 105/105/192
f 105/105/193 103/103/193 104/104/193
f 105/105/194 104/104/195 106/106/196
f 104/104/197 102/102/197 106/106/197
f 106/106/198 102/102/198 107/107/198
f 106/106/199 107/107/199 108/108/199
f 109/109/200 106/106/200 108/108/200
f 100/100/201 102/102/201 104/104/201
f 107/107/202 102/102/202 110/110/202
f 107/107/203 110/110/203 111/111/203
f 110/110/204 112/112/204 111/111/204
f 109/109/205 108/108/205 113/113/205
f 108/108/206 107/107/206 111/111/206
f 108/108/207 111/111/207 113/113/207
f 113/113/208 111/111/208 114/114/208
f 113/113/209 114/114/209 115/115/209
f 115/115/210 114/114/210 112/112/210
f 114/114/211 111/111/211 112/112/211
f 112/112/212 116/116/212 90/90/212
f 112/112/213 90/90/213 86/86/213
f 83/83/214 112/112/214 86/86/214
f 115/115/215 112/112/215 83/83/215
f 115/115/216 83/83/216 85/85/216
f 90/90/217 116/116/217 117/117/217
f 116/116/218 118/118/218 117/117/218
f 112/112/219 118/118/219 116/116/219
f 112/112/220 110/110/220 118/118/220
f 118/118/221 110/110/221 117/117/221
f 117/117/222 110/110/222 101/101/222
f 110/110/223 102/102/223 101/101/223
f 117/117/224 101/101/224 98/98/224
f 90/90/225 117/117/225 91/91/225
f 91/91/226 117/117/226 98/98/226
f 113/113/227 115/115/227 119/119/227
f 113/113/228 119/119/228 109/109/228
f 109/109/229 119/119/229 120/120/229
f 115/115/230 85/85/230 119/119/230
f 119/119/231 85/85/231 120/120/231
f 120/120/232 85/85/232 94/94/232
f 120/120/233 94/94/233 97/97/233
f 109/109/234 105/105/194 106/106/196
f 109/109/235 120/120/235 105/105/235
f 105/105/236 120/120/236 97/97/236
f 121/121/163 122/122/163 123/123/163
f 122/122/164 121/121/164 124/124/164
f 122/122/165 124/124/165 125/125/165
f 122/122/166 125/125/166 126/126/166
f 122/122/167 126/126/167 123/123/167
f 124/124/168 127/127/168 125/125/168
f 124/124/169 128/128/169 127/127/169
f 127/127/170 128/128/170 129/129/170
f 125/125/171 127/127/171 130/130/171
f 127/127/172 129/129/172 130/130/172
f 130/130/173 129/129/173 131/131/173
f 132/132/174 123/123/174 126/126/174
f 126/126/175 125/125/175 130/130/175
f 126/126/237 130/130/237 131/131/237
f 132/132/177 126/126/177 133/133/177
f 126/126/178 131/131/178 133/133/178
f 132/132/180 133/133/180 134/134/180
f 133/133/179 135/135/179 134/134/179
f 131/131/181 129/129/181 136/136/181
f 131/131/182 136/136/182 137/137/182
f 133/133/183 131/131/183 135/135/183
f 131/131/184 137/137/184 135/135/184
f 135/135/185 137/137/185 138/138/185
f 136/136/186 139/139/186 137/137/186
f 138/138/187 137/137/187 139/139/187
f 138/138/188 139/139/188 140/140/188
f 134/134/189 135/135/189 141/141/189
f 135/135/190 138/138/190 141/141/190
f 141/141/191 138/138/191 142/142/191
f 134/134/192 141/141/192 143/143/192
f 143/143/238 141/141/238 142/142/238
f 143/143/194 142/142/195 144/144/239
f 142/142/197 140/140/197 144/144/197
f 144/144/198 140/140/198 145/145/198
f 144/144/199 145/145/199 146/146/199
f 147/147/200 144/144/200 146/146/200
f 138/138/201 140/140/201 142/142/201
f 145/145/202 140/140/202 148/148/202
f 145/145/203 148/148/203 149/149/203
f 148/148/204 150/150/204 149/149/204
f 147/147/205 146/146/205 151/151/205
f 146/146/206 145/145/206 149/149/206
f 146/146/207 149/149/207 151/151/207
f 151/151/208 149/149/208 152/152/208
f 151/151/209 152/152/209 153/153/209
f 153/153/210 152/152/210 150/150/210
f 152/152/211 149/149/211 150/150/211
f 150/150/212 154/154/212 128/128/212
f 150/150/213 128/128/213 124/124/213
f 121/121/214 150/150/214 124/124/214
f 153/153/215 150/150/215 121/121/215
f 153/153/216 121/121/216 123/123/216
f 128/128/217 154/154/217 155/155/217
f 154/154/218 156/156/218 155/155/218
f 150/150/219 156/156/219 154/154/219
f 150/150/220 148/148/220 156/156/220
f 156/156/221 148/148/221 155/155/221
f 155/155/222 148/148/222 139/139/222
f 148/148/223 140/140/223 139/139/223
f 155/155/224 139/139/224 136/136/224
f 128/128/225 155/155/225 129/129/225
f 129/129/226 155/155/226 136/136/226
f 151/151/227 153/153/227 157/157/227
f 151/151/240 157/157/240 147/147/240
f 147/147/241 157/157/241 158/158/241
f 153/153/230 123/123/230 157/157/230
f 157/157/242 123/123/242 158/158/242
f 158/158/243 123/123/243 132/132/243
f 158/158/244 132/132/244 134/134/244
f 147/147/234 143/143/194 144/144/239
f 147/147/245 158/158/245 143/143/245
f 143/143/246 158/158/246 134/134/246
