# Blender v2.78 (sub 0) OBJ File: ''
# www.blender.org
mtllib SM_Env_FloorTile_07.mtl
o SM_Env_FloorTile_07
v 256.246826 0.000037 -226.159424
v 266.529053 0.000033 -200.301025
v 266.489868 0.000037 -226.159424
v 299.999756 0.000037 -226.159424
v 276.780273 0.000037 -226.159424
v 299.999756 0.000025 -150.772949
v 270.892822 0.000025 -150.772949
v 257.107666 0.000028 -169.178589
v 39.945557 0.000023 -139.314575
v 71.273193 0.000017 -104.052002
v 76.001709 0.000023 -139.428223
v 108.971924 0.000020 -121.233154
v 99.697632 0.000017 -103.391235
v 106.552002 0.000007 -43.994751
v 121.426147 0.000007 -40.950806
v 107.937378 0.000010 -64.067627
v 126.009521 0.000011 -67.476807
v 155.063721 0.000010 -60.567993
v 161.000732 0.000007 -44.919556
v 132.528931 0.000004 -27.193115
v 157.803101 0.000005 -30.874512
v 299.999756 0.000012 -75.386597
v 281.122314 0.000012 -75.386597
v 299.999756 0.000000 -0.000122
v 270.946655 0.000008 -46.271240
v 226.159424 0.000000 -0.000122
v 226.159424 0.000004 -23.227295
v 60.313110 0.000038 -233.625000
v 42.152466 0.000038 -231.377075
v 63.242798 0.000035 -214.420654
v 34.594116 0.000034 -208.942505
v 48.816406 0.000031 -188.650879
v 67.764038 0.000032 -194.183105
v 74.696045 0.000034 -207.856323
v 75.386475 0.000000 -0.000122
v 59.406616 0.000007 -43.087402
v -0.000122 0.000000 -0.000122
v -0.000122 0.000012 -75.386597
v 59.406616 0.000009 -57.058350
v 205.168701 0.000025 -150.772949
v 150.772949 0.000031 -188.328735
v 213.391846 0.000031 -190.745239
v 159.657349 0.000032 -198.715576
v 167.397217 0.000037 -228.429077
v 150.772949 0.000035 -212.355347
v 167.937988 0.000012 -75.386597
v 167.802002 0.000008 -52.172485
v 150.772949 0.000000 -0.000122
v 201.791260 0.000007 -44.764404
v 283.712158 0.000023 -138.192871
v 277.601685 0.000020 -125.100952
v 278.119141 0.000018 -109.236328
v 269.739502 0.000016 -96.054688
v 179.595337 0.000015 -91.109497
v 155.131104 0.000016 -97.688843
v 163.080933 0.000016 -100.351929
v 211.042358 0.000019 -113.609009
v 146.995239 0.000017 -106.611938
v 151.710571 0.000019 -114.949097
v 162.394775 0.000018 -112.942505
v 22.601196 0.000016 -95.179443
v -0.000122 0.000025 -150.772949
v 18.041748 0.000020 -121.233154
v 285.174438 0.000038 -231.935303
v 226.159424 0.000046 -279.982056
v 234.116333 0.000047 -288.244019
v 226.159424 0.000049 -300.000122
v 299.999756 0.000049 -300.000122
v 250.533813 0.000046 -279.572754
v 258.622314 0.000039 -239.454346
v 286.376465 0.000039 -241.311157
v 271.352539 0.000041 -249.146729
v 250.400513 0.000042 -258.536865
v 244.825806 0.000040 -245.966675
v 243.967896 0.000038 -233.183228
v 213.480713 0.000044 -270.079468
v 226.159424 0.000040 -245.435669
v 205.518311 0.000041 -250.956665
v 174.354492 0.000044 -269.451172
v 190.073853 0.000045 -276.971191
v 137.449341 0.000039 -237.250000
v 127.222778 0.000042 -258.400879
v 89.598389 0.000039 -237.250000
v 108.381226 0.000044 -268.090820
v 89.598389 0.000042 -256.008423
v 79.494385 0.000047 -287.283569
v 50.487061 0.000045 -279.139038
v 82.207275 0.000045 -278.887329
v 67.973389 0.000044 -268.287964
v 36.357666 0.000042 -256.731079
v 68.870239 0.000042 -255.984741
v 150.772949 0.000042 -256.571777
v 226.159424 0.000037 -226.159424
v 240.124756 0.000037 -226.159424
v 226.159424 0.000025 -150.772949
v 226.159424 0.000012 -75.386597
v 75.386475 0.000049 -300.000122
v 150.772949 0.000049 -300.000122
v 108.737061 0.000036 -220.282959
v 53.155029 0.000014 -86.802612
v 70.781982 0.000009 -57.058350
v 135.149902 0.000034 -211.096191
v 130.640381 0.000032 -198.898193
v 82.730225 0.000007 -45.081177
v 72.284424 0.000006 -34.471436
v -0.000122 0.000037 -226.159424
v -0.000122 0.000049 -300.000122
vt 0.9675 0.4653
vt 0.9675 0.4653
vt 0.9675 0.4653
vt 0.9675 0.4653
vt 0.9675 0.4653
vt 0.9675 0.4653
vt 0.9675 0.4653
vt 0.9675 0.4653
vt 0.9420 0.4562
vt 0.9420 0.4562
vt 0.9420 0.4562
vt 0.9420 0.4562
vt 0.9420 0.4562
vt 0.9680 0.5024
vt 0.9680 0.5024
vt 0.9680 0.5024
vt 0.9680 0.5024
vt 0.9680 0.5024
vt 0.9680 0.5024
vt 0.9680 0.5024
vt 0.9680 0.5024
vt 0.9675 0.4653
vt 0.9675 0.4653
vt 0.9675 0.4653
vt 0.9675 0.4653
vt 0.9675 0.4653
vt 0.9675 0.4653
vt 0.9680 0.5024
vt 0.9680 0.5024
vt 0.9680 0.5024
vt 0.9680 0.5024
vt 0.9680 0.5024
vt 0.9680 0.5024
vt 0.9680 0.5024
vt 0.9675 0.4653
vt 0.9675 0.4653
vt 0.9675 0.4653
vt 0.9675 0.4653
vt 0.9675 0.4653
vt 0.9675 0.4653
vt 0.9675 0.4653
vt 0.9675 0.4653
vt 0.9675 0.4653
vt 0.9675 0.4653
vt 0.9675 0.4653
vt 0.9675 0.4653
vt 0.9675 0.4653
vt 0.9675 0.4653
vt 0.9675 0.4653
vt 0.9675 0.4653
vt 0.9675 0.4653
vt 0.9675 0.4653
vt 0.9675 0.4653
vt 0.9675 0.4653
vt 0.9675 0.4653
vt 0.9675 0.4653
vt 0.9675 0.4653
vt 0.9675 0.4653
vt 0.9675 0.4653
vt 0.9675 0.4653
vt 0.9675 0.4653
vt 0.9675 0.4653
vt 0.9675 0.4653
vt 0.9675 0.4653
vt 0.9675 0.4653
vt 0.9675 0.4653
vt 0.9675 0.4653
vt 0.9675 0.4653
vt 0.9675 0.4653
vt 0.9675 0.4653
vt 0.9675 0.4653
vt 0.9675 0.4653
vt 0.9675 0.4653
vt 0.9675 0.4653
vt 0.9675 0.4653
vt 0.9675 0.4653
vt 0.9675 0.4653
vt 0.9675 0.4653
vt 0.9680 0.5024
vt 0.9680 0.5024
vt 0.9680 0.5024
vt 0.9680 0.5024
vt 0.9680 0.5024
vt 0.9680 0.5024
vt 0.9420 0.4562
vt 0.9420 0.4562
vt 0.9420 0.4562
vt 0.9420 0.4562
vt 0.9420 0.4562
vt 0.9680 0.5024
vt 0.9680 0.5024
vt 0.9680 0.5024
vt 0.9680 0.5024
vt 0.9680 0.5024
vt 0.9680 0.5024
vt 0.9420 0.4562
vt 0.9420 0.4562
vt 0.9420 0.4562
vt 0.9420 0.4562
vt 0.9420 0.4562
vt 0.9420 0.4562
vt 0.9420 0.4562
vt 0.9420 0.4562
vt 0.9420 0.4562
vt 0.9420 0.4562
vt 0.9420 0.4562
vt 0.9420 0.4562
vt 0.9420 0.4562
vt 0.9420 0.4562
vt 0.9420 0.4562
vt 0.9420 0.4562
vt 0.9420 0.4562
vt 0.9675 0.4653
vt 0.9675 0.4653
vt 0.9675 0.4653
vt 0.9675 0.4653
vt 0.9675 0.4653
vt 0.9675 0.4653
vt 0.9675 0.4653
vt 0.9675 0.4653
vt 0.9675 0.4653
vt 0.9420 0.4562
vt 0.9420 0.4562
vt 0.9420 0.4562
vt 0.9420 0.4562
vt 0.9675 0.4653
vt 0.9675 0.4653
vt 0.9675 0.4653
vt 0.9675 0.4653
vt 0.9675 0.4653
vt 0.9675 0.4653
vt 0.9675 0.4653
vt 0.9675 0.4653
vt 0.9675 0.4653
vt 0.9675 0.4653
vt 0.9675 0.4653
vt 0.9675 0.4653
vt 0.9675 0.4653
vt 0.9675 0.4653
vt 0.9420 0.4562
vt 0.9420 0.4562
vt 0.9420 0.4562
vt 0.9420 0.4562
vt 0.9420 0.4562
vt 0.9420 0.4562
vt 0.9420 0.4562
vt 0.9420 0.4562
vt 0.9420 0.4562
vt 0.9420 0.4562
vt 0.9420 0.4562
vt 0.9420 0.4562
vt 0.9420 0.4562
vt 0.9420 0.4562
vt 0.9420 0.4562
vt 0.9420 0.4562
vt 0.9420 0.4562
vt 0.9420 0.4562
vt 0.9420 0.4562
vt 0.9420 0.4562
vt 0.9420 0.4562
vt 0.9420 0.4562
vt 0.9420 0.4562
vt 0.9420 0.4562
vt 0.9420 0.4562
vt 0.9420 0.4562
vt 0.9420 0.4562
vt 0.9675 0.4653
vt 0.9675 0.4653
vt 0.9675 0.4653
vt 0.9675 0.4653
vt 0.9675 0.4653
vt 0.9675 0.4653
vt 0.9675 0.4653
vt 0.9675 0.4653
vt 0.9675 0.4653
vt 0.9675 0.4653
vt 0.9675 0.4653
vt 0.9675 0.4653
vt 0.9675 0.4653
vt 0.9675 0.4653
vt 0.9675 0.4653
vt 0.9675 0.4653
vt 0.9675 0.4653
vt 0.9680 0.5024
vt 0.9680 0.5024
vt 0.9680 0.5024
vt 0.9680 0.5024
vt 0.9680 0.5024
vt 0.9680 0.5024
vt 0.9680 0.5024
vt 0.9680 0.5024
vt 0.9675 0.4653
vt 0.9675 0.4653
vt 0.9675 0.4653
vt 0.9680 0.5024
vt 0.9680 0.5024
vt 0.9680 0.5024
vt 0.9680 0.5024
vt 0.9680 0.5024
vn 0.0000 1.0000 0.0000
usemtl None
s 1
f 1/1/1 2/2/1 3/3/1
f 4/4/1 5/5/1 6/6/1
f 6/6/1 5/5/1 7/7/1
f 5/5/1 3/3/1 7/7/1
f 3/3/1 2/2/1 7/7/1
f 2/2/1 8/8/1 7/7/1
f 9/9/1 10/10/1 11/11/1
f 11/11/1 10/10/1 12/12/1
f 12/12/1 10/10/1 13/13/1
f 14/14/1 15/15/1 16/16/1
f 16/16/1 15/15/1 17/17/1
f 17/17/1 15/15/1 18/18/1
f 18/18/1 15/15/1 19/19/1
f 15/15/1 20/20/1 19/19/1
f 19/19/1 20/20/1 21/21/1
f 22/22/1 23/23/1 24/24/1
f 23/23/1 25/25/1 24/24/1
f 26/26/1 24/24/1 27/27/1
f 25/25/1 27/27/1 24/24/1
f 28/28/1 29/29/1 30/30/1
f 29/29/1 31/31/1 30/30/1
f 31/31/1 32/32/1 30/30/1
f 32/32/1 33/33/1 30/30/1
f 34/34/1 30/30/1 33/33/1
f 35/35/1 36/36/1 37/37/1
f 38/38/1 37/37/1 39/39/1
f 36/36/1 39/39/1 37/37/1
f 12/40/1 40/41/1 41/42/1
f 40/41/1 42/43/1 41/42/1
f 41/42/1 42/43/1 43/44/1
f 44/45/1 45/46/1 42/43/1
f 42/43/1 45/46/1 43/44/1
f 46/47/1 19/48/1 47/49/1
f 48/50/1 26/26/1 21/51/1
f 26/26/1 27/27/1 21/51/1
f 27/27/1 49/52/1 21/51/1
f 21/51/1 49/52/1 19/48/1
f 49/52/1 47/49/1 19/48/1
f 7/7/1 50/53/1 6/6/1
f 6/6/1 50/53/1 22/22/1
f 50/53/1 51/54/1 22/22/1
f 51/54/1 52/55/1 22/22/1
f 22/22/1 52/55/1 23/23/1
f 52/55/1 53/56/1 23/23/1
f 46/47/1 54/57/1 55/58/1
f 55/58/1 54/57/1 56/59/1
f 40/41/1 12/40/1 57/60/1
f 58/61/1 59/62/1 12/40/1
f 12/40/1 59/62/1 57/60/1
f 59/62/1 60/63/1 57/60/1
f 60/63/1 56/59/1 57/60/1
f 54/57/1 57/60/1 56/59/1
f 39/39/1 61/64/1 38/38/1
f 62/65/1 38/38/1 63/66/1
f 38/38/1 61/64/1 63/66/1
f 5/5/1 4/4/1 64/67/1
f 65/68/1 66/69/1 67/70/1
f 67/70/1 66/69/1 68/71/1
f 66/69/1 69/72/1 68/71/1
f 3/3/1 70/73/1 1/1/1
f 4/4/1 68/71/1 64/67/1
f 64/67/1 68/71/1 71/74/1
f 68/71/1 69/72/1 71/74/1
f 71/74/1 69/72/1 72/75/1
f 69/72/1 73/76/1 72/75/1
f 72/75/1 73/76/1 70/73/1
f 73/76/1 74/77/1 70/73/1
f 74/77/1 75/78/1 70/73/1
f 75/78/1 1/1/1 70/73/1
f 65/79/1 76/80/1 77/81/1
f 77/81/1 76/80/1 78/82/1
f 79/83/1 78/82/1 80/84/1
f 76/80/1 80/84/1 78/82/1
f 81/85/1 82/86/1 83/87/1
f 82/86/1 84/88/1 83/87/1
f 84/88/1 85/89/1 83/87/1
f 86/90/1 87/91/1 88/92/1
f 88/92/1 87/91/1 89/93/1
f 87/91/1 90/94/1 89/93/1
f 89/93/1 90/94/1 91/95/1
f 91/95/1 90/94/1 28/28/1
f 90/94/1 29/29/1 28/28/1
f 92/96/1 44/97/1 79/98/1
f 79/98/1 44/97/1 78/99/1
f 93/100/1 77/101/1 44/97/1
f 77/101/1 78/99/1 44/97/1
f 94/102/1 77/101/1 93/100/1
f 7/103/1 8/104/1 95/105/1
f 95/105/1 8/104/1 93/100/1
f 93/100/1 8/104/1 94/102/1
f 8/104/1 2/106/1 94/102/1
f 46/107/1 96/108/1 54/109/1
f 54/109/1 96/108/1 57/110/1
f 96/108/1 95/105/1 57/110/1
f 95/105/1 40/111/1 57/110/1
f 44/97/1 42/112/1 93/100/1
f 93/100/1 42/112/1 95/105/1
f 42/112/1 40/111/1 95/105/1
f 44/45/1 92/113/1 81/114/1
f 81/114/1 92/113/1 82/115/1
f 97/116/1 86/117/1 98/118/1
f 85/119/1 84/120/1 88/121/1
f 98/118/1 86/117/1 92/113/1
f 92/113/1 86/117/1 82/115/1
f 82/115/1 86/117/1 84/120/1
f 86/117/1 88/121/1 84/120/1
f 83/87/1 99/122/1 81/85/1
f 10/10/1 9/9/1 100/123/1
f 100/123/1 9/9/1 61/124/1
f 61/124/1 9/9/1 63/125/1
f 61/64/1 39/39/1 100/126/1
f 46/47/1 55/58/1 17/127/1
f 55/58/1 58/61/1 17/127/1
f 58/61/1 12/40/1 17/127/1
f 12/40/1 13/128/1 17/127/1
f 17/127/1 13/128/1 16/129/1
f 16/129/1 13/128/1 101/130/1
f 13/128/1 10/131/1 101/130/1
f 10/131/1 100/126/1 101/130/1
f 100/126/1 39/39/1 101/130/1
f 44/45/1 81/114/1 45/46/1
f 9/132/1 11/133/1 33/134/1
f 45/46/1 81/114/1 102/135/1
f 81/114/1 99/136/1 102/135/1
f 83/137/1 34/138/1 99/136/1
f 41/42/1 103/139/1 12/40/1
f 12/40/1 103/139/1 11/133/1
f 11/133/1 103/139/1 33/134/1
f 33/134/1 103/139/1 34/138/1
f 34/138/1 103/139/1 99/136/1
f 99/136/1 103/139/1 102/135/1
f 23/140/1 53/141/1 96/108/1
f 96/108/1 53/141/1 95/105/1
f 53/141/1 7/103/1 95/105/1
f 27/142/1 25/143/1 96/108/1
f 96/108/1 25/143/1 23/140/1
f 27/142/1 96/108/1 49/144/1
f 96/108/1 46/107/1 49/144/1
f 49/144/1 46/107/1 47/145/1
f 102/146/1 103/147/1 45/148/1
f 45/148/1 103/147/1 41/149/1
f 41/149/1 43/150/1 45/148/1
f 39/151/1 36/152/1 101/153/1
f 101/153/1 36/152/1 104/154/1
f 36/152/1 105/155/1 104/154/1
f 70/156/1 3/157/1 72/158/1
f 72/158/1 3/157/1 71/159/1
f 3/157/1 5/160/1 71/159/1
f 5/160/1 64/161/1 71/159/1
f 60/162/1 59/163/1 56/164/1
f 59/163/1 58/165/1 56/164/1
f 55/166/1 56/164/1 58/165/1
f 17/127/1 18/167/1 46/47/1
f 46/47/1 18/167/1 19/48/1
f 36/36/1 35/35/1 105/168/1
f 101/130/1 104/169/1 16/129/1
f 16/129/1 104/169/1 14/170/1
f 21/51/1 20/171/1 48/50/1
f 48/50/1 20/171/1 35/35/1
f 35/35/1 20/171/1 105/168/1
f 20/171/1 15/172/1 105/168/1
f 15/172/1 14/170/1 105/168/1
f 14/170/1 104/169/1 105/168/1
f 106/173/1 29/174/1 107/175/1
f 29/174/1 90/176/1 107/175/1
f 90/176/1 87/177/1 107/175/1
f 86/117/1 97/116/1 87/177/1
f 107/175/1 87/177/1 97/116/1
f 33/134/1 32/178/1 9/132/1
f 29/174/1 106/173/1 31/179/1
f 106/173/1 62/65/1 31/179/1
f 31/179/1 62/65/1 32/178/1
f 32/178/1 62/65/1 9/132/1
f 62/65/1 63/66/1 9/132/1
f 83/137/1 28/180/1 34/138/1
f 34/138/1 28/180/1 30/181/1
f 28/180/1 83/137/1 91/182/1
f 83/137/1 85/119/1 91/182/1
f 88/121/1 89/183/1 85/119/1
f 89/183/1 91/182/1 85/119/1
f 1/184/1 75/185/1 94/186/1
f 94/186/1 75/185/1 77/81/1
f 75/185/1 74/187/1 77/81/1
f 77/81/1 74/187/1 65/79/1
f 74/187/1 73/188/1 65/79/1
f 73/188/1 69/189/1 65/79/1
f 69/189/1 66/190/1 65/79/1
f 2/191/1 1/184/1 94/186/1
f 92/113/1 79/192/1 98/118/1
f 98/118/1 79/192/1 67/70/1
f 79/192/1 80/193/1 67/70/1
f 67/70/1 80/193/1 65/68/1
f 80/193/1 76/194/1 65/68/1
f 53/195/1 52/196/1 7/197/1
f 52/196/1 51/198/1 7/197/1
f 51/198/1 50/199/1 7/197/1
