# Blender v2.78 (sub 0) OBJ File: ''
# www.blender.org
mtllib SM_Env_Grass_02.mtl
o SM_Env_Grass_02
v 6.664307 19.419889 -0.228268
v 10.351074 15.657139 -3.109372
v 9.752686 28.110474 -10.322995
v 6.619141 14.983185 -7.326657
v 2.933105 18.746029 -4.445555
v 1.839844 -5.573667 -3.701417
v 5.571533 -4.899637 0.515625
v -5.514894 -0.975684 2.340820
v -1.783447 -0.301774 6.558105
v -0.625685 21.953278 14.455117
v -5.824419 22.028645 12.495658
v -6.626806 26.116215 23.701839
v -7.451841 18.035824 16.575645
v -2.253107 17.960426 18.535095
v 2.684764 -6.779149 8.659870
v -7.085335 -4.529262 6.409694
v 4.312521 -2.786313 4.579957
v -5.458256 -0.536296 2.329651
vt 0.9656 0.4562
vt 0.9656 0.4562
vt 0.9656 0.4562
vt 0.9656 0.4562
vt 0.9656 0.4562
vt 0.9656 0.4562
vt 0.9656 0.4562
vt 0.9656 0.4562
vt 0.9656 0.4562
vt 0.9656 0.4562
vt 0.9656 0.4562
vt 0.9656 0.4562
vt 0.9656 0.4562
vt 0.9656 0.4562
vt 0.9656 0.4562
vt 0.9656 0.4562
vt 0.9656 0.4562
vt 0.9656 0.4562
vn 0.7711 0.3465 0.5342
vn -0.6319 -0.0260 -0.7746
vn -0.2555 -0.8936 0.3690
vn -0.2556 -0.8936 0.3690
vn -0.2556 -0.8936 0.3689
vn 0.7356 -0.3127 -0.6009
vn -0.5925 0.6912 0.4138
vn 0.6310 -0.0099 0.7757
vn 0.6190 0.0051 0.7854
vn 0.7407 -0.2799 -0.6107
vn -0.6190 -0.0051 -0.7853
vn -0.6311 0.0099 -0.7757
vn -0.6932 0.4815 0.5364
vn 0.1382 0.9336 -0.3306
vn -0.2853 -0.6174 0.7331
vn -0.0032 -0.7141 -0.7001
vn -0.9600 0.2339 -0.1540
vn 0.8588 0.1503 0.4897
vn 0.2927 0.4043 -0.8665
vn 0.3294 0.3923 -0.8588
vn -0.9553 0.1083 -0.2749
vn -0.9553 0.1084 -0.2750
vn -0.9553 0.1084 -0.2749
vn -0.3294 -0.3923 0.8588
vn -0.2927 -0.4043 0.8665
vn 0.9192 0.0267 0.3928
usemtl None
s 1
f 1/1/1 2/2/1 3/3/1
f 3/3/2 4/4/2 5/5/2
f 6/6/3 7/7/4 8/8/5
f 8/8/5 7/7/4 9/9/5
f 2/2/6 4/4/6 3/3/6
f 5/5/7 1/1/7 3/3/7
f 7/7/8 2/2/8 9/9/8
f 9/9/9 2/2/9 1/1/9
f 6/6/10 4/4/10 7/7/10
f 7/7/10 4/4/10 2/2/10
f 5/5/11 4/4/11 8/8/11
f 8/8/12 4/4/12 6/6/12
f 8/8/13 9/9/13 5/5/13
f 5/5/13 9/9/13 1/1/13
f 10/10/14 11/11/14 12/12/14
f 12/12/15 13/13/15 14/14/15
f 15/15/16 16/16/16 17/17/16
f 17/17/16 16/16/16 18/18/16
f 11/11/17 13/13/17 12/12/17
f 14/14/18 10/10/18 12/12/18
f 17/17/19 18/18/19 10/10/19
f 10/10/20 18/18/20 11/11/20
f 16/16/21 13/13/22 18/18/23
f 18/18/23 13/13/22 11/11/22
f 13/13/24 16/16/24 14/14/24
f 14/14/25 16/16/25 15/15/25
f 15/15/26 17/17/26 14/14/26
f 14/14/26 17/17/26 10/10/26
