# This file uses centimeters as units for non-parametric coordinates.

v 0.000000 10.780013 100.000000
v 300.000000 10.780013 100.000000
v 0.000000 10.780013 -0.000019
v 300.000000 10.780013 -0.000019
v -23.424393 -0.000009 100.000000
v -23.424393 -0.000009 -0.000019
v 323.424408 -0.000009 100.000000
v 323.424408 -0.000009 -0.000019
v 280.725311 3.891885 99.999992
v 280.725311 3.891885 -0.000019
v 19.274668 3.891885 99.999992
v 19.274668 3.891885 -0.000019
v 265.061737 -0.000018 99.999992
v 265.061737 -0.000018 -0.000019
v 34.938221 -0.000018 99.999992
v 34.938221 -0.000018 -0.000019
v 217.603592 -0.000018 99.999992
v 217.603592 -0.000018 -0.000019
v 82.396362 -0.000018 99.999992
v 82.396362 -0.000018 -0.000019
v 169.089142 -0.000018 99.999992
v 169.089142 -0.000018 -0.000019
v 130.910797 -0.000018 99.999992
v 130.910797 -0.000018 -0.000019
v 331.919586 -0.000018 30.414728
v 269.263184 0.668406 30.692539
v 218.444031 -0.000018 31.751842
v 159.631439 -0.000018 29.663153
v 133.157471 -0.000018 30.187662
v 66.162758 -0.000018 29.237049
v 45.116863 0.579286 30.576397
v -34.046391 -0.000018 33.333328
v 323.424408 -0.000018 66.666656
v 252.500244 0.668406 64.029373
v 222.030396 -0.000018 69.029503
v 163.217804 -0.000018 66.940819
v 129.213577 -0.000018 67.691841
v 75.856331 -0.000018 69.351364
v 29.428188 0.579286 65.102753
v -34.046391 -0.000018 66.666656
v 0.000000 19.187908 100.000000
v 19.274668 12.299782 99.999992
v 13.764632 14.310169 65.102753
v 0.000000 21.198296 66.666656
v -34.046391 8.407878 66.666656
v -23.424393 8.407887 100.000000
v 34.938221 8.407878 99.999992
v 29.428188 8.987182 65.102753
v 45.116863 8.987182 30.576397
v 29.453310 14.310169 30.576397
v 34.938221 8.407878 -0.000019
v 19.274668 12.299782 -0.000019
v 0.000000 21.198296 33.333328
v 0.000000 19.187908 -0.000019
v -34.046391 8.407878 33.333328
v -23.424393 8.407887 -0.000019
v 300.000000 19.187908 100.000000
v 300.000000 25.834726 66.666656
v 323.424408 8.407887 100.000000
v 323.424408 8.407878 66.666656
v 280.725311 12.299782 99.999992
v 268.163818 18.946598 64.029373
v 265.061737 8.407878 99.999992
v 252.500244 9.076303 64.029373
v 300.000000 25.834726 33.333328
v 300.000000 19.187908 -0.000019
v 331.919586 8.407878 30.414728
v 323.424408 8.407887 -0.000019
v 284.926727 18.946598 30.692539
v 280.725311 12.299782 -0.000019
v 269.263184 9.076303 30.692539
v 265.061737 8.407878 -0.000019
vt 0.561227 0.754541
vt 0.561228 0.754542
vt 0.561227 0.754542
vt 0.561227 0.754541
vt 0.561226 0.754542
vt 0.561226 0.754542
vt 0.561218 0.754541
vt 0.561218 0.754541
vt 0.561218 0.754542
vt 0.561218 0.754542
vt 0.561218 0.754542
vt 0.561218 0.754541
vt 0.561226 0.754542
vt 0.561226 0.754542
vt 0.561218 0.754542
vt 0.561234 0.754542
vt 0.951705 0.360908
vt 0.561218 0.754541
vt 0.561218 0.754541
vt 0.951705 0.360908
vt 0.943366 0.307303
vt 0.951705 0.360908
vt 0.951705 0.360908
vt 0.943366 0.307303
vt 0.951705 0.360908
vt 0.943366 0.307303
vt 0.943366 0.307303
vt 0.951705 0.360908
vt 0.951705 0.360908
vt 0.943366 0.307303
vt 0.943366 0.307303
vt 0.951705 0.360908
vt 0.943366 0.307303
vt 0.951705 0.360908
vt 0.943366 0.307303
vt 0.951705 0.360908
vt 0.951705 0.360908
vt 0.561218 0.754542
vt 0.561218 0.754542
vt 0.951705 0.360908
vt 0.561218 0.754541
vt 0.561218 0.754542
vt 0.561218 0.754542
vt 0.561218 0.754542
vt 0.561228 0.754542
vt 0.561226 0.754542
vt 0.561226 0.754542
vt 0.561228 0.754542
vt 0.561227 0.754541
vt 0.951705 0.360908
vt 0.561227 0.754541
vt 0.943366 0.307303
vt 0.951705 0.360908
vt 0.951705 0.360908
vt 0.943366 0.307303
vt 0.943366 0.307303
vt 0.951705 0.360908
vt 0.951705 0.360908
vt 0.943366 0.307303
vt 0.561226 0.754542
vt 0.951705 0.360908
vt 0.561226 0.754542
vt 0.561227 0.754542
vt 0.561228 0.754542
vt 0.561226 0.754542
vt 0.561226 0.754542
vt 0.561226 0.754542
vt 0.561226 0.754542
vt 0.561226 0.754542
vt 0.561226 0.754542
vt 0.561228 0.754542
vt 0.951705 0.360908
vt 0.561227 0.754542
vt 0.943366 0.307303
vt 0.951705 0.360908
vt 0.951705 0.360908
vt 0.943366 0.307303
vt 0.943366 0.307303
vt 0.951705 0.360908
vt 0.951705 0.360908
vt 0.943366 0.307303
vt 0.561226 0.754542
vt 0.951705 0.360908
vt 0.561226 0.754542
vt 0.561218 0.754542
vt 0.561218 0.754542
vt 0.561218 0.754542
vt 0.561218 0.754542
vt 0.561218 0.754542
vt 0.561234 0.754542
vt 0.561218 0.754542
vt 0.561218 0.754542
vt 0.561218 0.754542
vt 0.561218 0.754542
vt 0.561218 0.754542
vt 0.561218 0.754542
vn 0.336523 0.941675 0.001114
vn 0.336523 0.941675 0.001114
vn 0.336523 0.941675 0.001114
vn 0.451743 0.890530 0.053709
vn 0.451743 0.890530 0.053709
vn 0.451743 0.890530 0.053709
vn -0.417433 0.907059 0.054706
vn -0.417433 0.907059 0.054706
vn -0.417433 0.907059 0.054706
vn -0.349491 0.930298 0.111368
vn -0.349491 0.930298 0.111368
vn -0.349491 0.930297 0.111368
vn 0.589399 0.792245 0.157977
vn 0.589399 0.792245 0.157977
vn 0.589399 0.792245 0.157977
vn 0.418060 0.908420 -0.000000
vn 0.418060 0.908420 -0.000000
vn 0.418060 0.908420 -0.000000
vn -0.330744 0.925500 0.184549
vn -0.330744 0.925500 0.184549
vn -0.330744 0.925500 0.184549
vn -0.224549 0.941224 0.252339
vn -0.224549 0.941224 0.252339
vn -0.224549 0.941224 0.252339
vn 0.241079 0.970257 -0.021958
vn 0.241079 0.970257 -0.021958
vn 0.241079 0.970257 -0.021958
vn 0.321758 0.946814 0.003741
vn 0.321758 0.946814 0.003741
vn 0.321758 0.946814 0.003741
vn -0.233175 0.938449 0.254839
vn -0.233175 0.938449 0.254839
vn -0.233175 0.938449 0.254839
vn -0.522579 0.829304 0.197903
vn -0.522579 0.829304 0.197903
vn -0.522579 0.829304 0.197903
vn 0.000000 1.000000 0.000000
vn 0.000000 1.000000 0.000000
vn 0.000000 1.000000 0.000000
vn 0.011117 0.999828 0.014842
vn 0.011117 0.999828 0.014842
vn 0.011117 0.999828 0.014842
vn 0.000000 0.999828 0.018579
vn 0.000000 0.999828 0.018579
vn 0.000000 0.999828 0.018579
vn -0.022458 0.999743 -0.003210
vn -0.022458 0.999743 -0.003210
vn -0.022458 0.999743 -0.003210
vn 0.000000 1.000000 0.000000
vn 0.000000 1.000000 0.000000
vn 0.000000 1.000000 0.000000
vn 0.000000 1.000000 -0.000000
vn 0.000000 1.000000 -0.000000
vn 0.000000 1.000000 -0.000000
vn 0.000000 1.000000 0.000000
vn 0.000000 1.000000 0.000000
vn 0.000000 1.000000 0.000000
vn 0.000000 1.000000 0.000000
vn 0.000000 1.000000 0.000000
vn 0.000000 1.000000 0.000000
vn 0.000000 1.000000 0.000000
vn 0.000000 1.000000 0.000000
vn 0.000000 1.000000 0.000000
vn 0.000000 1.000000 -0.000000
vn 0.000000 1.000000 -0.000000
vn 0.000000 1.000000 -0.000000
vn 0.411363 0.893874 -0.178242
vn 0.411363 0.893874 -0.178242
vn 0.411363 0.893874 -0.178242
vn 0.465927 0.875200 -0.130138
vn 0.465927 0.875200 -0.130138
vn 0.465927 0.875200 -0.130138
vn -0.382431 0.906144 -0.180690
vn -0.382431 0.906144 -0.180690
vn -0.382431 0.906144 -0.180690
vn -0.332406 0.930156 -0.155933
vn -0.332406 0.930156 -0.155933
vn -0.332406 0.930156 -0.155934
vn -0.529915 0.840942 -0.109577
vn -0.529915 0.840942 -0.109577
vn -0.529915 0.840942 -0.109577
vn -0.241119 0.970423 0.011873
vn -0.241119 0.970423 0.011873
vn -0.241119 0.970423 0.011873
vn -0.013564 0.999710 -0.019915
vn -0.013564 0.999710 -0.019915
vn -0.013564 0.999710 -0.019915
vn 0.000000 1.000000 -0.000000
vn 0.000000 1.000000 -0.000000
vn 0.000000 1.000000 -0.000000
vn 0.000000 1.000000 -0.000000
vn 0.000000 1.000000 -0.000000
vn 0.000000 1.000000 -0.000000
vn 0.000000 1.000000 0.000000
vn 0.000000 1.000000 0.000000
vn 0.000000 1.000000 0.000000
vn 0.000000 1.000000 0.000000
vn 0.000000 1.000000 0.000000
vn 0.000000 1.000000 0.000000
vn 0.000000 1.000000 -0.000000
vn 0.000000 1.000000 -0.000000
vn 0.000000 1.000000 -0.000000
vn 0.000000 1.000000 0.000000
vn 0.000000 1.000000 0.000000
vn 0.000000 1.000000 0.000000
vn 0.000000 1.000000 0.000000
vn 0.000000 1.000000 0.000000
vn 0.000000 1.000000 0.000000
vn 0.025756 0.999290 -0.027506
vn 0.025756 0.999290 -0.027506
vn 0.025756 0.999290 -0.027506
vn 0.000000 1.000000 0.000000
vn 0.000000 1.000000 0.000000
vn 0.000000 1.000000 0.000000
vn 0.319274 0.939504 -0.124084
vn 0.319274 0.939504 -0.124084
vn 0.319274 0.939504 -0.124084
vn 0.238672 0.960572 -0.142609
vn 0.238672 0.960572 -0.142609
vn 0.238672 0.960572 -0.142609
vn 0.213669 0.967569 -0.134746
vn 0.213669 0.967569 -0.134746
vn 0.213669 0.967569 -0.134746
vn 0.335982 0.940160 -0.056703
vn 0.335982 0.940160 -0.056703
vn 0.335982 0.940160 -0.056703
vn -0.349491 0.930297 -0.111368
vn -0.349491 0.930297 -0.111368
vn -0.349491 0.930297 -0.111368
vn -0.417433 0.907059 -0.054706
vn -0.417433 0.907059 -0.054706
vn -0.417433 0.907059 -0.054706
vn 0.596894 0.802320 0.000000
vn 0.596894 0.802320 0.000000
vn 0.596894 0.802320 0.000000
vn 0.484072 0.867644 0.113436
vn 0.484072 0.867644 0.113436
vn 0.484072 0.867644 0.113436
vn -0.202314 0.974023 -0.101730
vn -0.202314 0.974023 -0.101730
vn -0.202314 0.974023 -0.101730
vn -0.415636 0.909531 0.000000
vn -0.415636 0.909531 0.000000
vn -0.415636 0.909531 0.000000
vn -0.514943 0.817183 -0.258931
vn -0.514943 0.817183 -0.258931
vn -0.514943 0.817183 -0.258931
vn -0.514943 0.817183 -0.258931
vn -0.514943 0.817183 -0.258931
vn -0.514943 0.817183 -0.258931
vn -0.021591 0.999765 0.002077
vn -0.021591 0.999765 0.002077
vn -0.021591 0.999765 0.002077
vn -0.013291 0.999889 -0.006683
vn -0.013291 0.999889 -0.006683
vn -0.013291 0.999889 -0.006683
vn 0.000000 1.000000 0.000000
vn 0.000000 1.000000 0.000000
vn 0.000000 1.000000 0.000000
vn 0.000000 1.000000 -0.000000
vn 0.000000 1.000000 -0.000000
vn 0.000000 1.000000 -0.000000
vn 0.000000 1.000000 0.000000
vn 0.000000 1.000000 0.000000
vn 0.000000 1.000000 0.000000
vn 0.000000 1.000000 0.000000
vn 0.000000 1.000000 0.000000
vn 0.000000 1.000000 0.000000
vn 0.000000 1.000000 0.000000
vn 0.000000 1.000000 0.000000
vn 0.000000 1.000000 0.000000
vn 0.000000 1.000000 -0.000000
vn 0.000000 1.000000 -0.000000
vn 0.000000 1.000000 -0.000000
vn 0.011978 0.999914 0.005443
vn 0.011978 0.999914 0.005443
vn 0.011978 0.999914 0.005443
vn 0.027098 0.999611 -0.006548
vn 0.027098 0.999611 -0.006548
vn 0.027098 0.999611 -0.006548
vn 0.318376 0.936861 0.144669
vn 0.318376 0.936861 0.144669
vn 0.318376 0.936861 0.144669
vn 0.318376 0.936861 0.144669
vn 0.318376 0.936861 0.144669
vn 0.318376 0.936861 0.144669
vn 0.447516 0.894276 0.000000
vn 0.447516 0.894276 0.000000
vn 0.447516 0.894276 0.000000
vn 0.235912 0.965844 0.107198
vn 0.235912 0.965844 0.107198
vn 0.235912 0.965844 0.107198
vn -0.351678 0.936121 0.000000
vn -0.351678 0.936121 0.000000
vn -0.351678 0.936121 0.000000
vn -0.351678 0.936121 0.000000
vn -0.351678 0.936121 0.000000
vn -0.351678 0.936121 0.000000
vn 0.000002 0.000000 1.000000
vn 0.000002 0.000000 1.000000
vn 0.000002 0.000000 1.000000
vn 0.000000 0.000000 1.000000
vn 0.000000 0.000000 1.000000
vn 0.000000 0.000000 1.000000
vn -0.952794 0.000000 0.303617
vn -0.952794 0.000000 0.303617
vn -0.952794 0.000000 0.303617
vn -0.952794 0.000000 0.303617
vn -0.952794 0.000000 0.303617
vn -0.952794 0.000000 0.303617
vn -0.000001 0.000000 1.000000
vn -0.000001 0.000000 1.000000
vn -0.000001 0.000000 1.000000
vn 0.000000 0.000000 1.000000
vn 0.000000 0.000000 1.000000
vn 0.000000 0.000000 1.000000
vn -0.000000 0.000000 1.000000
vn -0.000000 0.000000 1.000000
vn -0.000000 0.000000 1.000000
vn -0.000001 0.000000 1.000000
vn -0.000001 0.000000 1.000000
vn -0.000001 0.000000 1.000000
vn 0.987763 0.000000 -0.155961
vn 0.987763 0.000000 -0.155961
vn 0.987763 0.000000 -0.155961
vn 0.987763 0.000000 -0.155961
vn 0.987763 0.000000 -0.155961
vn 0.987763 0.000000 -0.155961
vn 0.948809 0.000000 -0.315851
vn 0.948809 0.000000 -0.315851
vn 0.948809 0.000000 -0.315851
vn 0.948809 0.000000 -0.315851
vn 0.948809 0.000000 -0.315851
vn 0.948809 0.000000 -0.315851
vn 0.000000 0.000000 -1.000000
vn 0.000000 0.000000 -1.000000
vn 0.000000 0.000000 -1.000000
vn -0.000000 0.000000 -1.000000
vn -0.000000 0.000000 -1.000000
vn -0.000000 0.000000 -1.000000
vn 0.000000 0.000000 -1.000000
vn 0.000000 0.000000 -1.000000
vn 0.000000 0.000000 -1.000000
vn 0.000000 0.000000 -1.000000
vn 0.000000 0.000000 -1.000000
vn 0.000000 0.000000 -1.000000
vn 0.000000 0.000000 -1.000000
vn 0.000000 0.000000 -1.000000
vn 0.000000 0.000000 -1.000000
vn 0.000000 0.000000 -1.000000
vn 0.000000 0.000000 -1.000000
vn 0.000000 0.000000 -1.000000
vn -0.952794 0.000000 -0.303617
vn -0.952794 0.000000 -0.303617
vn -0.952794 0.000000 -0.303617
vn -0.952794 0.000000 -0.303617
vn -0.952794 0.000000 -0.303617
vn -0.952794 0.000000 -0.303617
vn 0.910417 0.000000 0.413691
vn 0.910417 0.000000 0.413691
vn 0.910417 0.000000 0.413691
vn 0.910417 0.000000 0.413691
vn 0.910417 0.000000 0.413691
vn 0.910417 0.000000 0.413691
vn -1.000000 0.000000 0.000000
vn -1.000000 0.000000 0.000000
vn -1.000000 0.000000 0.000000
vn -1.000000 0.000000 0.000000
vn -1.000000 0.000000 0.000000
vn -1.000000 0.000000 0.000000
vn 0.000000 0.000000 1.000000
vn 0.000000 0.000000 1.000000
vn 0.000000 0.000000 1.000000
vn -0.000001 0.000000 1.000000
vn -0.000001 0.000000 1.000000
vn -0.000001 0.000000 1.000000
vn 1.000000 0.000000 0.000000
vn 1.000000 0.000000 0.000000
vn 1.000000 0.000000 0.000000
vn 1.000000 0.000000 0.000000
vn 1.000000 0.000000 0.000000
vn 1.000000 0.000000 0.000000
vn -0.000002 0.000000 1.000000
vn -0.000002 0.000000 1.000000
vn -0.000002 0.000000 1.000000
vn 0.000000 0.000000 1.000000
vn 0.000000 0.000000 1.000000
vn 0.000000 0.000000 1.000000
vn 0.000000 0.000000 1.000000
vn 0.000000 0.000000 1.000000
vn 0.000000 0.000000 1.000000
vn 0.000001 0.000000 1.000000
vn 0.000001 0.000000 1.000000
vn 0.000001 0.000000 1.000000
vn -0.944089 0.000000 0.329690
vn -0.944089 0.000000 0.329690
vn -0.944089 0.000000 0.329690
vn -0.944089 0.000000 0.329691
vn -0.944089 0.000000 0.329691
vn -0.944089 0.000000 0.329691
vn 0.963136 0.000000 -0.269015
vn 0.963136 0.000000 -0.269015
vn 0.963136 0.000000 -0.269015
vn 0.963136 0.000000 -0.269015
vn 0.963136 0.000000 -0.269015
vn 0.963136 0.000000 -0.269015
vn 0.000000 0.000000 -1.000000
vn 0.000000 0.000000 -1.000000
vn 0.000000 0.000000 -1.000000
vn 0.000000 0.000000 -1.000000
vn 0.000000 0.000000 -1.000000
vn 0.000000 0.000000 -1.000000
vn -0.000000 0.000000 -1.000000
vn -0.000000 0.000000 -1.000000
vn -0.000000 0.000000 -1.000000
vn 0.000000 0.000000 -1.000000
vn 0.000000 0.000000 -1.000000
vn 0.000000 0.000000 -1.000000
vn 0.000000 0.000000 -1.000000
vn 0.000000 0.000000 -1.000000
vn 0.000000 0.000000 -1.000000
vn 0.000000 0.000000 -1.000000
vn 0.000000 0.000000 -1.000000
vn 0.000000 0.000000 -1.000000
vn -0.990761 0.000000 0.135623
vn -0.990761 0.000000 0.135623
vn -0.990761 0.000000 0.135623
vn -0.990761 0.000000 0.135623
vn -0.990761 0.000000 0.135623
vn -0.990761 0.000000 0.135623
vn 0.973624 0.000000 0.228157
vn 0.973625 0.000000 0.228157
vn 0.973624 0.000000 0.228157
vn 0.973625 0.000000 0.228157
vn 0.973624 0.000000 0.228157
vn 0.973624 0.000000 0.228157
vn -0.893412 0.000000 -0.449239
vn -0.893412 0.000000 -0.449239
vn -0.893412 0.000000 -0.449239
vn -0.893412 0.000000 -0.449239
vn -0.893412 0.000000 -0.449239
vn -0.893412 0.000000 -0.449239
s off
f 42/2/1 43/3/2 41/1/3
f 41/1/4 43/3/5 44/4/6
f 41/1/7 44/4/8 46/6/9
f 46/6/10 44/4/11 45/5/12
f 58/7/13 57/8/14 60/10/15
f 60/10/16 57/8/17 59/9/18
f 57/8/19 58/7/20 61/11/21
f 61/11/22 58/7/23 62/12/24
f 47/13/25 48/14/26 42/2/27
f 42/2/28 48/14/29 43/3/30
f 61/11/31 62/12/32 63/15/33
f 63/15/34 62/12/35 64/16/36
f 19/23/37 38/80/38 15/37/39
f 15/37/40 38/80/41 39/83/42
f 13/17/43 34/72/44 17/34/45
f 17/34/46 34/72/47 35/75/48
f 23/27/49 37/78/50 19/35/51
f 19/35/52 37/78/53 38/81/54
f 17/21/55 35/74/56 21/31/57
f 21/31/58 35/74/59 36/77/60
f 21/25/61 36/76/62 23/29/63
f 23/29/64 36/76/65 37/79/66
f 66/18/67 65/19/68 68/39/69
f 68/39/70 65/19/71 67/38/72
f 65/19/73 66/18/74 69/41/75
f 69/41/76 66/18/77 70/42/78
f 69/41/79 70/42/80 71/43/81
f 71/43/82 70/42/83 72/44/84
f 26/50/85 14/40/86 27/53/87
f 27/53/88 14/40/89 18/22/90
f 28/55/91 27/52/92 22/26/93
f 22/26/94 27/52/95 18/33/96
f 29/57/97 28/54/98 24/28/99
f 24/28/100 28/54/101 22/32/102
f 30/59/103 29/56/104 20/24/105
f 20/24/106 29/56/107 24/30/108
f 31/61/109 30/58/110 16/20/111
f 16/20/112 30/58/113 20/36/114
f 49/46/115 51/47/116 50/45/117
f 50/45/118 51/47/119 52/48/120
f 50/45/121 52/48/122 53/49/123
f 53/49/124 52/48/125 54/51/126
f 55/60/127 53/49/128 56/62/129
f 56/62/130 53/49/131 54/51/132
f 58/7/133 60/10/134 65/19/135
f 65/19/136 60/10/137 67/38/138
f 62/12/139 58/7/140 69/41/141
f 69/41/142 58/7/143 65/19/144
f 64/16/145 62/12/146 71/43/147
f 71/43/148 62/12/149 69/41/150
f 35/75/151 34/72/152 27/53/153
f 27/53/154 34/72/155 26/50/156
f 35/74/157 27/52/158 36/77/159
f 36/77/160 27/52/161 28/55/162
f 37/79/163 36/76/164 29/57/165
f 29/57/166 36/76/167 28/54/168
f 37/78/169 29/56/170 38/81/171
f 38/81/172 29/56/173 30/59/174
f 39/83/175 38/80/176 31/61/177
f 31/61/178 38/80/179 30/58/180
f 43/3/181 48/14/182 50/45/183
f 50/45/184 48/14/185 49/46/186
f 44/4/187 43/3/188 53/49/189
f 53/49/190 43/3/191 50/45/192
f 45/5/193 44/4/194 55/60/195
f 55/60/196 44/4/197 53/49/198
f 11/64/199 42/2/200 1/63/201
f 1/63/202 42/2/203 41/1/204
f 40/65/205 5/66/206 45/5/207
f 45/5/208 5/66/209 46/6/210
f 5/66/211 1/63/212 46/6/213
f 46/6/214 1/63/215 41/1/216
f 15/67/217 47/13/218 11/64/219
f 11/64/220 47/13/221 42/2/222
f 15/67/223 39/68/224 47/13/225
f 47/13/226 39/68/227 48/14/228
f 16/70/229 51/47/230 31/69/231
f 31/69/232 51/47/233 49/46/234
f 16/70/235 12/71/236 51/47/237
f 51/47/238 12/71/239 52/48/240
f 12/71/241 3/73/242 52/48/243
f 52/48/244 3/73/245 54/51/246
f 6/82/247 56/62/248 3/73/249
f 3/73/250 56/62/251 54/51/252
f 6/82/253 32/84/254 56/62/255
f 56/62/256 32/84/257 55/60/258
f 39/68/259 31/69/260 48/14/261
f 48/14/262 31/69/263 49/46/264
f 32/84/265 40/65/266 55/60/267
f 55/60/268 40/65/269 45/5/270
f 7/86/271 59/9/272 2/85/273
f 2/85/274 59/9/275 57/8/276
f 7/86/277 33/87/278 59/9/279
f 59/9/280 33/87/281 60/10/282
f 9/88/283 2/85/284 61/11/285
f 61/11/286 2/85/287 57/8/288
f 13/89/289 9/88/290 63/15/291
f 63/15/292 9/88/293 61/11/294
f 13/89/295 63/15/296 34/90/297
f 34/90/298 63/15/299 64/16/300
f 25/91/301 8/92/302 67/38/303
f 67/38/304 8/92/305 68/39/306
f 8/92/307 4/93/308 68/39/309
f 68/39/310 4/93/311 66/18/312
f 10/94/313 70/42/314 4/93/315
f 4/93/316 70/42/317 66/18/318
f 14/95/319 72/44/320 10/94/321
f 10/94/322 72/44/323 70/42/324
f 14/95/325 26/96/326 72/44/327
f 72/44/328 26/96/329 71/43/330
f 33/87/331 25/91/332 60/10/333
f 60/10/334 25/91/335 67/38/336
f 26/96/337 34/90/338 71/43/339
f 71/43/340 34/90/341 64/16/342
