# Blender v2.78 (sub 0) OBJ File: ''
# www.blender.org
mtllib SM_Env_Pebble_01.mtl
o SM_Env_Pebble_01
v 6.639648 -0.000009 10.382324
v 4.428711 7.579003 7.492189
v -2.154785 -0.000009 9.855469
v -2.195313 8.295473 6.605227
v -9.077637 -0.000006 6.599854
v -6.977051 6.935011 4.232423
v -1.121094 9.726676 0.566164
v -7.848633 7.956737 0.248048
v 7.271484 8.798133 1.579835
v 4.355469 7.525387 -4.541747
v -0.035645 8.355690 -7.756347
v -4.885742 7.009884 -5.655272
v 0.676758 0.000000 -10.058350
v -6.463867 0.000010 -7.605957
v 7.089355 -0.000004 -5.969971
v 10.419922 0.000004 2.389893
v -10.243652 -0.000003 0.386230
vt 0.5493 0.3706
vt 0.5493 0.3706
vt 0.5493 0.3706
vt 0.5493 0.3706
vt 0.5493 0.3706
vt 0.5493 0.3706
vt 0.5493 0.3706
vt 0.5493 0.3706
vt 0.5493 0.3706
vt 0.5493 0.3706
vt 0.5493 0.3706
vt 0.5493 0.3706
vt 0.5493 0.3706
vt 0.5493 0.3706
vt 0.5493 0.3706
vt 0.5493 0.3706
vt 0.5493 0.3706
vn -0.0562 0.3414 0.9382
vn -0.0850 0.3631 0.9279
vn -0.3898 0.4011 0.8290
vn -0.4923 0.3154 0.8112
vn -0.3422 0.9261 0.1586
vn -0.2562 0.9214 0.2923
vn 0.0722 0.9675 0.2421
vn 0.0728 0.9676 0.2417
vn 0.0783 0.9682 0.2375
vn 0.0785 0.9682 0.2374
vn 0.1375 0.9547 -0.2640
vn 0.2700 0.9551 -0.1221
vn -0.2334 0.9350 -0.2671
vn -0.3401 0.9198 -0.1959
vn -0.4363 0.2042 -0.8763
vn -0.3079 0.3188 -0.8964
vn 0.6019 0.2594 -0.7552
vn 0.5066 0.3348 -0.7945
vn 0.8602 0.3776 -0.3427
vn 0.8491 0.2616 -0.4589
vn 0.8314 0.3925 0.3933
vn 0.8199 0.3361 0.4635
vn -0.9246 0.3393 0.1735
vn -0.9198 0.2816 0.2734
vn -0.8604 0.3069 -0.4069
vn -0.8494 0.2476 -0.4660
usemtl None
s 1
f 1/1/1 2/2/1 3/3/1
f 3/3/2 2/2/2 4/4/2
f 5/5/3 3/3/3 6/6/3
f 6/6/4 3/3/4 4/4/4
f 4/4/5 7/7/5 6/6/5
f 6/6/6 7/7/6 8/8/6
f 4/4/7 2/2/8 7/7/9
f 7/7/9 2/2/8 9/9/10
f 9/9/11 10/10/11 7/7/11
f 7/7/12 10/10/12 11/11/12
f 8/8/13 7/7/13 12/12/13
f 12/12/14 7/7/14 11/11/14
f 11/11/15 13/13/15 12/12/15
f 12/12/16 13/13/16 14/14/16
f 11/11/17 10/10/17 13/13/17
f 13/13/18 10/10/18 15/15/18
f 15/15/19 10/10/19 16/16/19
f 16/16/20 10/10/20 9/9/20
f 1/1/21 16/16/21 2/2/21
f 2/2/22 16/16/22 9/9/22
f 5/5/23 6/6/23 17/17/23
f 17/17/24 6/6/24 8/8/24
f 14/14/25 17/17/25 12/12/25
f 12/12/26 17/17/26 8/8/26
