# This file uses centimeters as units for non-parametric coordinates.

v -67.569313 -8.884720 60.684814
v 29.326447 -8.884720 84.661133
v 87.116852 -8.884720 45.835571
v -88.649048 -8.884720 3.932251
v 15.876328 -8.884720 1.095459
v 88.649048 -8.884720 -47.664185
v -35.963120 -8.884720 -74.243164
v 44.461884 -8.884720 -84.661255
v -67.569313 8.884720 60.684814
v 29.326447 8.884720 84.661133
v 15.876328 8.884720 1.095459
v -88.649048 8.884720 3.932251
v 87.116852 8.884720 45.835571
v 88.649048 8.884720 -47.664185
v -35.963120 8.884720 -74.243164
v 44.461884 8.884720 -84.661255
vt 0.560784 0.793684
vt 0.560784 0.793684
vt 0.560784 0.793684
vt 0.560784 0.793684
vt 0.560784 0.793684
vt 0.560784 0.793684
vt 0.560784 0.793684
vt 0.560784 0.793684
vt 0.560784 0.793684
vt 0.560784 0.793684
vt 0.560784 0.793684
vt 0.560784 0.793684
vt 0.560784 0.793684
vt 0.560784 0.793684
vt 0.560784 0.793684
vt 0.560784 0.793684
vt 0.560784 0.793684
vt 0.560784 0.793684
vt 0.560784 0.793684
vt 0.560784 0.793684
vt 0.560784 0.793684
vt 0.560784 0.793684
vt 0.560784 0.793684
vn 0.000000 1.000000 0.000000
vn 0.000000 1.000000 0.000000
vn 0.000000 1.000000 0.000000
vn 0.000000 1.000000 0.000000
vn 0.000000 1.000000 0.000000
vn 0.000000 1.000000 0.000000
vn 0.000000 1.000000 0.000000
vn 0.000000 1.000000 0.000000
vn 0.000000 1.000000 0.000000
vn 0.000000 1.000000 0.000000
vn 0.000000 1.000000 0.000000
vn 0.000000 1.000000 0.000000
vn 0.000000 1.000000 0.000000
vn 0.000000 1.000000 0.000000
vn 0.000000 1.000000 0.000000
vn 0.000000 1.000000 0.000000
vn 0.000000 1.000000 0.000000
vn 0.000000 1.000000 0.000000
vn 0.000000 1.000000 -0.000000
vn 0.000000 1.000000 -0.000000
vn 0.000000 1.000000 -0.000000
vn 0.000000 -1.000000 0.000000
vn 0.000000 -1.000000 0.000000
vn 0.000000 -1.000000 0.000000
vn 0.000000 -1.000000 0.000000
vn 0.000000 -1.000000 0.000000
vn 0.000000 -1.000000 0.000000
vn 0.000000 -1.000000 0.000000
vn 0.000000 -1.000000 0.000000
vn 0.000000 -1.000000 0.000000
vn 0.000000 -1.000000 0.000000
vn 0.000000 -1.000000 0.000000
vn 0.000000 -1.000000 0.000000
vn 0.000000 -1.000000 0.000000
vn 0.000000 -1.000000 0.000000
vn 0.000000 -1.000000 0.000000
vn 0.000000 -1.000000 0.000000
vn 0.000000 -1.000000 0.000000
vn 0.000000 -1.000000 0.000000
vn 0.000000 -1.000000 0.000000
vn 0.000000 -1.000000 0.000000
vn 0.000000 -1.000000 0.000000
vn -0.240200 0.000000 0.970723
vn -0.240200 0.000000 0.970723
vn -0.240200 0.000000 0.970723
vn -0.240200 0.000000 0.970723
vn -0.240200 0.000000 0.970723
vn -0.240200 0.000000 0.970723
vn -0.937424 0.000000 0.348190
vn -0.937424 0.000000 0.348190
vn -0.937424 0.000000 0.348190
vn -0.937424 0.000000 0.348190
vn -0.937424 0.000000 0.348190
vn -0.937424 0.000000 0.348190
vn 0.557666 0.000000 0.830065
vn 0.557666 0.000000 0.830065
vn 0.557666 0.000000 0.830065
vn 0.557666 0.000000 0.830065
vn 0.557666 0.000000 0.830065
vn 0.557666 0.000000 0.830065
vn 0.999866 0.000000 0.016385
vn 0.999866 0.000000 0.016385
vn 0.999866 0.000000 0.016385
vn 0.999866 0.000000 0.016385
vn 0.999866 0.000000 0.016385
vn 0.999866 0.000000 0.016385
vn -0.829254 0.000000 -0.558872
vn -0.829254 0.000000 -0.558872
vn -0.829254 0.000000 -0.558872
vn -0.829254 0.000000 -0.558872
vn -0.829254 0.000000 -0.558872
vn -0.829254 0.000000 -0.558872
vn -0.128465 0.000000 -0.991714
vn -0.128465 0.000000 -0.991714
vn -0.128465 0.000000 -0.991714
vn -0.128465 0.000000 -0.991714
vn -0.128465 0.000000 -0.991714
vn -0.128465 0.000000 -0.991714
vn 0.641969 0.000000 -0.766731
vn 0.641969 0.000000 -0.766731
vn 0.641969 0.000000 -0.766731
vn 0.641969 0.000000 -0.766731
vn 0.641969 0.000000 -0.766731
vn 0.641969 0.000000 -0.766731
s off
f 10/2/1 11/3/2 9/1/3
f 9/1/4 11/3/5 12/4/6
f 10/2/7 13/5/8 11/3/9
f 11/3/10 13/5/11 14/6/12
f 12/4/13 11/3/14 15/7/15
f 11/3/16 16/8/17 15/7/18
f 11/3/19 14/6/20 16/8/21
f 4/10/22 5/11/23 1/9/24
f 1/9/25 5/11/26 2/12/27
f 2/12/28 5/11/29 3/13/30
f 5/11/31 6/14/32 3/13/33
f 4/10/34 7/15/35 5/11/36
f 5/11/37 7/15/38 8/16/39
f 5/11/40 8/16/41 6/14/42
f 1/17/43 2/18/44 9/1/45
f 9/1/46 2/18/47 10/2/48
f 4/19/49 1/17/50 12/4/51
f 12/4/52 1/17/53 9/1/54
f 2/18/55 3/20/56 10/2/57
f 10/2/58 3/20/59 13/5/60
f 3/20/61 6/21/62 13/5/63
f 13/5/64 6/21/65 14/6/66
f 7/22/67 4/19/68 15/7/69
f 15/7/70 4/19/71 12/4/72
f 8/23/73 7/22/74 16/8/75
f 16/8/76 7/22/77 15/7/78
f 6/21/79 8/23/80 14/6/81
f 14/6/82 8/23/83 16/8/84
