# Blender v2.78 (sub 0) OBJ File: ''
# www.blender.org
mtllib SM_Env_Rock_09.mtl
o SM_Env_Rock_09
v -2.284882 -22.350039 28.473797
v -12.013275 -21.885096 28.473797
v -4.438385 -29.332500 29.865120
v -20.096771 -29.332500 29.865120
v 1.154449 -29.332478 -33.340473
v -31.133148 -29.332478 -33.340473
v -4.824615 -21.885075 -31.820148
v -30.742828 -21.885077 -31.820148
v -36.753937 -19.083313 16.129131
v -38.404388 -19.083302 -19.991108
v -37.282562 -29.332493 17.007851
v -38.933014 -29.332481 -21.018761
v 38.933014 -29.332481 -20.370476
v 38.695831 -24.085577 -19.482868
v 38.933014 -29.332497 19.988289
v 38.695831 -24.085594 19.114910
v 23.001984 -29.332500 33.340466
v 23.001984 -29.332497 19.988289
v 22.789093 -21.885099 31.820141
v 22.838043 -23.109877 19.079693
v 20.472809 10.085481 16.673851
v 20.472809 10.085494 -17.041817
v 20.023041 16.035759 21.243523
v 20.043732 16.035774 -21.639046
v 22.838043 -23.109859 -19.447681
v 23.001984 -29.332481 -20.370476
v 22.789093 -21.885080 -25.287464
v 23.001984 -29.332481 -26.555992
v 30.659882 5.345218 -17.447979
v 30.659882 5.345210 9.707327
v 27.087189 7.007615 16.937553
v -30.998016 -29.332481 -21.215599
v -30.458282 -19.083302 -20.115009
v -25.635162 16.035774 -21.586220
v -26.160126 11.273509 -17.621681
v -25.666412 16.035759 21.240898
v -26.286774 11.273496 17.327171
v -30.458282 -19.083317 19.746990
v -30.998016 -29.332497 20.833412
v -30.742828 -21.885096 24.919476
v -31.133148 -29.332497 26.173805
v -34.108185 8.123346 -12.441385
v -30.614655 9.568065 -17.740028
v -34.796356 5.508704 -18.061016
v 33.700653 -15.428251 -19.414047
v 33.700653 -15.428266 19.046097
v 22.700470 -19.504974 -19.307819
v 22.586029 -17.767025 -25.017597
v -12.595490 -6.402047 -31.547714
v -30.364349 -17.767021 -31.545887
v -30.106049 -15.786674 -19.910721
v -34.296234 -9.137520 -19.858505
v -32.645782 -9.137533 15.996507
v -30.106049 -15.786687 19.542709
v -30.364349 -17.767040 24.645214
v 5.648713 -14.847879 28.202164
v 6.329803 -8.583485 28.201431
v 22.700470 -19.504990 18.939861
v 22.586029 -17.767044 31.550274
v 31.048615 1.998445 17.330830
v -27.021027 6.129464 -29.123207
v -26.113983 12.612598 -21.933266
v -34.796417 5.508712 -18.060986
v -32.737823 8.123339 13.978293
v 20.623383 8.118769 25.595604
v 21.927094 -9.076376 27.328232
v 20.177155 14.003357 21.448326
v 22.306183 -14.075415 31.178299
v -24.433990 22.629463 19.809719
v -15.674225 29.124771 18.614376
v 17.824432 30.871357 19.178253
v -23.350067 30.245716 3.656432
v -23.437286 32.619167 -19.526733
v 18.454559 28.584316 -19.793400
v 9.495514 34.340309 -19.011780
v 17.720001 33.532291 -6.816316
v -21.025543 -21.885096 24.919476
v -29.565826 -29.332497 26.173805
v -2.431854 -8.583483 24.646378
v 10.248260 -17.767044 31.549236
v 6.038300 -22.350042 31.820141
v 5.851716 -29.332500 33.340466
v -2.642365 -6.402050 -25.015854
v 5.659089 -21.885078 -25.287464
v 12.597382 -29.332481 -26.555992
v 18.494293 -34.340309 25.811928
v 4.704926 -34.340309 25.811928
v 18.494293 -34.340294 -20.559441
v 10.128693 -34.340294 -20.559441
v 18.494293 -34.340294 -15.770653
v 18.494293 -34.340309 15.474770
v 31.303375 -34.340294 -15.770653
v 31.303375 -34.340309 15.474770
v -25.032135 -34.340294 -25.811943
v -24.923492 -34.340294 -16.424950
v -25.032135 -34.340309 20.263557
v -24.923492 -34.340309 16.129066
v -31.303497 -34.340294 -16.272575
v -29.976471 -34.340309 13.167336
v -23.771942 -34.340309 20.263557
v -16.158478 -34.340309 23.121346
v -3.568634 -34.340309 23.121346
v 0.928192 -34.340294 -25.811943
v -2.907928 -34.340302 2.314309
v 31.048676 1.998441 17.330891
v -34.796356 5.508704 -18.061016
v -34.796417 5.508712 -18.060986
v -34.108185 8.123346 -12.441385
vt 0.9467 0.4995
vt 0.9467 0.4995
vt 0.9467 0.4995
vt 0.9467 0.4995
vt 0.9467 0.4995
vt 0.9467 0.4995
vt 0.9467 0.4995
vt 0.9467 0.4995
vt 0.9467 0.4995
vt 0.9467 0.4995
vt 0.9467 0.4995
vt 0.9467 0.4995
vt 0.9467 0.4995
vt 0.9467 0.4995
vt 0.9467 0.4995
vt 0.9467 0.4995
vt 0.9467 0.4995
vt 0.9467 0.4995
vt 0.9467 0.4995
vt 0.9467 0.4995
vt 0.9467 0.4995
vt 0.9467 0.4995
vt 0.9467 0.4995
vt 0.9467 0.4995
vt 0.9467 0.4995
vt 0.9467 0.4995
vt 0.9467 0.4995
vt 0.9467 0.4995
vt 0.9467 0.4995
vt 0.9467 0.4995
vt 0.9467 0.4995
vt 0.9467 0.4995
vt 0.9467 0.4995
vt 0.9467 0.4995
vt 0.9467 0.4995
vt 0.9467 0.4995
vt 0.9467 0.4995
vt 0.9467 0.4995
vt 0.9467 0.4995
vt 0.9467 0.4995
vt 0.9467 0.4995
vt 0.9467 0.4995
vt 0.9467 0.4995
vt 0.9467 0.4995
vt 0.9467 0.4995
vt 0.9467 0.4995
vt 0.9467 0.4995
vt 0.9467 0.4995
vt 0.9467 0.4995
vt 0.9467 0.4995
vt 0.9467 0.4995
vt 0.9467 0.4995
vt 0.9467 0.4995
vt 0.9467 0.4995
vt 0.9467 0.4995
vt 0.9467 0.4995
vt 0.9467 0.4995
vt 0.9467 0.4995
vt 0.9467 0.4995
vt 0.9467 0.4995
vt 0.9467 0.4995
vt 0.9467 0.4995
vt 0.9467 0.4995
vt 0.9467 0.4995
vt 0.9467 0.4995
vt 0.9467 0.4995
vt 0.9467 0.4995
vt 0.9467 0.4995
vt 0.9467 0.4995
vt 0.9467 0.4995
vt 0.9467 0.4995
vt 0.9467 0.4995
vt 0.9467 0.4995
vt 0.9467 0.4995
vt 0.9467 0.4995
vt 0.9467 0.4995
vt 0.9467 0.4995
vt 0.9467 0.4995
vt 0.9467 0.4995
vt 0.9467 0.4995
vt 0.9467 0.4995
vt 0.9467 0.4995
vt 0.9467 0.4995
vt 0.9467 0.4995
vt 0.9467 0.4995
vt 0.9467 0.4995
vt 0.9467 0.4995
vt 0.9467 0.4995
vt 0.9467 0.4995
vt 0.9467 0.4995
vt 0.9467 0.4995
vt 0.9467 0.4995
vt 0.9467 0.4995
vt 0.9467 0.4995
vt 0.9467 0.4995
vt 0.9467 0.4995
vt 0.9467 0.4995
vt 0.9467 0.4995
vt 0.9467 0.4995
vt 0.9467 0.4995
vt 0.9467 0.4995
vt 0.9467 0.4995
vt 0.9467 0.4995
vt 0.9467 0.4995
vt 0.9467 0.4995
vt 0.9467 0.4995
vt 0.9467 0.4995
vt 0.9467 0.4995
vn 0.0092 0.1927 0.9812
vn 0.0078 0.1913 0.9815
vn 0.0007 0.1843 0.9829
vn 0.0000 0.1836 0.9830
vn 0.0000 0.2000 -0.9798
vn -0.9974 0.0554 0.0456
vn -0.9976 0.0534 0.0450
vn -0.9978 0.0490 0.0438
vn -0.9979 0.0471 0.0433
vn 0.9990 0.0452 0.0000
vn 0.9996 0.0286 0.0000
vn 0.9996 0.0282 0.0002
vn 0.9996 0.0297 0.0007
vn 0.9995 0.0323 0.0007
vn 0.9972 0.0753 -0.0001
vn 0.9971 0.0755 0.0011
vn 0.9973 0.0735 0.0002
vn 0.9972 0.0746 0.0034
vn 0.9993 0.0378 -0.0005
vn 0.9996 0.0269 -0.0026
vn 0.9996 0.0282 0.0003
vn 0.0000 0.1642 0.9864
vn 0.0067 0.1447 0.9895
vn 0.4219 0.9066 0.0000
vn 0.4219 0.9067 0.0000
vn 0.0068 0.1469 -0.9891
vn 0.0000 0.1668 -0.9860
vn -0.9987 0.0501 0.0111
vn -0.9987 0.0502 0.0112
vn -0.9987 0.0506 0.0115
vn -0.9986 0.0513 0.0120
vn -0.9940 0.1090 -0.0007
vn -0.9909 0.1344 -0.0065
vn -0.9912 0.1321 -0.0036
vn -0.9904 0.1381 0.0004
vn -0.9984 0.0496 -0.0281
vn -0.9984 0.0493 -0.0276
vn -0.9985 0.0483 -0.0258
vn -0.9985 0.0481 -0.0253
vn -0.0247 0.1010 -0.9946
vn -0.0240 0.1015 -0.9945
vn -0.0162 0.1071 -0.9941
vn -0.0155 0.1076 -0.9941
vn -0.6652 0.7048 -0.2464
vn -0.4955 0.1049 0.8623
vn -0.4958 0.0995 0.8627
vn -0.4957 0.1003 0.8627
vn -0.5164 0.1171 0.8483
vn 0.8662 0.4998 0.0000
vn -0.0237 0.0379 -0.9990
vn -0.0018 0.0069 -1.0000
vn 0.9988 0.0496 -0.0049
vn 0.9988 0.0483 -0.0044
vn 0.0000 0.0176 -0.9998
vn -0.0452 0.0705 -0.9965
vn -0.9944 0.1060 0.0040
vn -0.9958 0.0914 0.0023
vn 0.0053 0.0112 -0.9999
vn -0.0156 0.0635 -0.9979
vn -0.9232 0.3819 0.0425
vn -0.9234 0.3816 0.0424
vn -0.9235 0.3813 0.0423
vn -0.9236 0.3809 0.0422
vn -0.5326 0.2308 0.8143
vn -0.4954 0.1064 0.8621
vn -0.9944 0.1057 -0.0093
vn -0.9958 0.0912 -0.0054
vn 0.0380 -0.0040 0.9993
vn 0.0009 0.0192 0.9998
vn 0.9989 0.0469 0.0018
vn 0.9988 0.0494 0.0023
vn -0.0018 0.0069 1.0000
vn -0.0237 0.0378 0.9990
vn 0.9886 0.1505 0.0000
vn 0.9910 0.1336 0.0081
vn 0.9907 0.1362 0.0063
vn 0.9898 0.1426 0.0016
vn 0.9895 0.1448 0.0000
vn -0.0044 0.0760 -0.9971
vn -0.0422 0.0880 -0.9952
vn 0.9972 0.0748 0.0029
vn 0.9972 0.0749 0.0028
vn -0.0707 0.1104 -0.9914
vn -0.9903 0.1353 0.0314
vn -0.9895 0.1409 0.0332
vn -0.9901 0.1366 0.0318
vn -0.9903 0.1387 -0.0016
vn -0.9903 0.1390 -0.0008
vn -0.9903 0.1388 -0.0013
vn -0.9894 0.1415 0.0333
vn -0.9903 0.1392 -0.0006
vn -0.3463 0.6900 -0.6356
vn 0.3732 -0.4491 0.8118
vn 0.3732 -0.4492 0.8118
vn -0.0948 0.9012 -0.4229
vn -0.8217 0.5700 0.0019
vn -0.4959 0.0982 0.8628
vn -0.6457 0.1524 0.7482
vn -0.9905 0.1376 -0.0060
vn -0.9901 0.1401 0.0043
vn 0.0589 0.1045 0.9928
vn 0.0557 -0.0059 0.9984
vn 0.9971 0.0755 -0.0002
vn 0.9972 0.0754 -0.0011
vn 0.9972 0.0752 -0.0012
vn 0.9972 0.0749 -0.0012
vn 0.9972 0.0751 -0.0012
vn 0.9971 0.0755 -0.0013
vn -0.0044 0.0760 0.9971
vn -0.0038 0.0759 0.9971
vn -0.0034 0.0759 0.9971
vn -0.0031 0.0758 0.9971
vn -0.0434 0.0913 0.9949
vn -0.0001 0.2121 0.9772
vn -0.0041 0.1863 0.9825
vn -0.0237 0.1344 0.9906
vn -0.9830 0.1836 -0.0007
vn -0.9886 0.1506 0.0047
vn -0.9915 0.1293 0.0170
vn -0.0011 0.1234 -0.9924
vn 0.0078 0.1465 -0.9892
vn 0.9921 0.1256 0.0005
vn 0.9906 0.1367 0.0039
vn 0.9893 0.1455 0.0095
vn 0.9903 0.1390 0.0054
vn 0.9889 0.1481 0.0112
vn 0.0000 0.1661 0.9861
vn -0.0126 0.0381 0.9992
vn 0.0000 0.0665 0.9978
vn -0.0345 0.1049 0.9939
vn -0.0001 0.1003 0.9950
vn 0.0017 0.1386 0.9904
vn -0.4412 0.4944 0.7490
vn -0.3353 0.4526 0.8263
vn -0.3312 0.4734 0.8162
vn -0.3256 0.4705 0.8201
vn -0.3295 0.4725 0.8174
vn -0.3239 0.4696 0.8213
vn -0.3185 0.4965 0.8075
vn -0.3153 0.4974 0.8082
vn -0.3182 0.4966 0.8075
vn -0.3151 0.4974 0.8083
vn -0.0001 0.1002 0.9950
vn -0.0001 0.0654 0.9979
vn -0.0005 0.0642 0.9979
vn -0.0014 0.0615 0.9981
vn -0.0017 0.0605 0.9982
vn -0.0055 0.1999 0.9798
vn 0.0000 0.2128 0.9771
vn -0.1579 0.5950 0.7881
vn -0.1749 0.6103 0.7726
vn -0.3683 0.3883 0.8448
vn -0.3429 0.3935 0.8530
vn -0.3649 0.2074 0.9076
vn -0.3075 0.2763 0.9105
vn -0.0535 0.9934 0.1019
vn -0.5323 0.7789 0.3315
vn 0.5007 0.8179 -0.2835
vn 0.0462 0.1028 -0.9936
vn -0.0012 0.1010 -0.9949
vn -0.0051 0.1539 -0.9881
vn 0.0000 0.0654 -0.9979
vn 0.0103 0.0231 -0.9997
vn 0.0000 0.1679 -0.9858
vn 0.4258 0.6307 -0.6488
vn 0.4465 0.6358 -0.6296
vn 0.5068 0.2860 -0.8133
vn 0.5269 0.2786 -0.8029
vn 0.4331 0.5280 -0.7305
vn 0.4539 0.5131 -0.7285
vn 0.0000 -0.8326 0.5538
vn 0.0000 -0.7675 -0.6410
vn 0.7432 -0.6690 0.0000
vn 0.0000 -0.6765 -0.7365
vn 0.0000 -0.6695 0.7428
vn 0.5487 -0.8360 -0.0000
vn -0.6397 -0.7686 0.0071
vn -0.6396 -0.7687 0.0073
vn -0.6396 -0.7687 0.0074
vn -0.6438 -0.7651 -0.0163
vn -0.6438 -0.7650 -0.0169
vn -0.6438 -0.7650 -0.0168
vn -0.0177 -0.7018 -0.7121
vn -0.0170 -0.7019 -0.7121
vn -0.0172 -0.7019 -0.7121
vn -0.3003 -0.8164 0.4933
vn -0.2994 -0.8166 0.4935
vn -0.2919 -0.8181 0.4955
vn -0.2906 -0.8183 0.4958
vn -0.5591 -0.8288 0.0243
vn -0.5570 -0.8301 0.0249
vn -0.5585 -0.8292 0.0244
vn -0.5562 -0.8307 0.0251
vn -0.1996 -0.8354 0.5121
vn -0.1918 -0.8382 0.5106
vn -0.1920 -0.8381 0.5106
vn -0.1916 -0.8382 0.5105
vn 0.0000 -0.7630 0.6465
vn -0.1904 -0.8038 0.5637
vn -0.1879 -0.8020 0.5670
vn -0.1858 -0.8004 0.5699
vn -0.1855 -0.8002 0.5703
vn 0.0000 -0.8028 0.5962
vn 0.3085 -0.7963 -0.5204
vn 0.3046 -0.7890 -0.5335
vn 0.0000 -0.8326 -0.5538
vn -0.0000 -1.0000 -0.0000
vn 0.7542 0.6146 0.2313
vn 0.3296 -0.8611 -0.3870
vn 0.8039 0.5936 0.0369
vn 0.3297 -0.8611 -0.3870
vn 0.3972 0.6314 0.6660
vn -0.6428 -0.4579 0.6142
vn -0.6427 -0.4579 0.6142
vn 0.0982 0.0697 -0.9927
vn -0.0180 0.1160 -0.9931
vn -0.0407 0.1203 -0.9919
vn -0.9989 0.0000 0.0460
vn -0.9987 -0.0094 0.0508
vn -0.9989 -0.0010 0.0465
vn -0.9986 -0.0114 0.0518
vn -0.9881 -0.0515 0.1450
vn -0.4381 0.8989 -0.0016
vn -0.3579 0.9336 0.0186
vn 0.0000 0.0000 1.0000
usemtl None
s 1
f 1/1/1 2/2/2 3/3/3
f 3/3/3 2/2/2 4/4/4
f 5/5/5 6/6/5 7/7/5
f 7/7/5 6/6/5 8/8/5
f 9/9/6 10/10/7 11/11/8
f 11/11/8 10/10/7 12/12/9
f 13/13/10 14/14/10 15/15/10
f 15/15/10 14/14/10 16/16/10
f 17/17/11 18/18/12 19/19/13
f 19/19/13 18/18/12 20/20/14
f 21/21/15 22/22/16 23/23/17
f 23/23/17 22/22/16 24/24/18
f 25/25/19 26/26/20 27/27/21
f 27/27/21 26/26/20 28/28/11
f 15/15/22 16/16/22 18/18/22
f 18/18/23 16/16/23 20/20/23
f 29/29/24 22/22/24 30/30/25
f 21/21/24 31/31/24 22/22/24
f 31/31/24 30/30/25 22/22/24
f 25/25/26 14/14/26 26/26/26
f 26/26/27 14/14/27 13/13/27
f 6/6/28 32/32/29 8/8/30
f 8/8/30 32/32/29 33/33/31
f 34/34/32 35/35/32 36/36/32
f 36/36/33 35/35/34 37/37/35
f 38/38/36 39/39/37 40/40/38
f 40/40/38 39/39/37 41/41/39
f 12/12/40 10/10/41 32/32/42
f 32/32/42 10/10/41 33/33/43
f 42/42/44 43/43/44 44/44/44
f 9/9/45 11/11/46 38/38/47
f 38/38/48 11/11/48 39/39/48
f 14/14/49 45/45/49 16/16/49
f 16/16/49 45/45/49 46/46/49
f 47/47/50 45/45/50 25/25/50
f 25/25/51 45/45/51 14/14/51
f 48/48/52 47/47/53 27/27/21
f 27/27/21 47/47/53 25/25/19
f 7/7/54 8/8/54 49/49/54
f 49/49/55 8/8/55 50/50/55
f 51/51/56 50/50/56 33/33/56
f 33/33/57 50/50/57 8/8/57
f 52/52/58 51/51/58 10/10/58
f 10/10/59 51/51/59 33/33/59
f 53/53/60 52/52/61 9/9/62
f 9/9/62 52/52/61 10/10/63
f 53/53/64 9/9/64 54/54/64
f 54/54/65 9/9/45 38/38/47
f 54/54/66 38/38/66 55/55/66
f 55/55/67 38/38/67 40/40/67
f 56/56/68 57/57/68 1/1/68
f 1/1/69 57/57/69 2/2/69
f 20/20/14 58/58/70 19/19/13
f 19/19/13 58/58/70 59/59/71
f 16/16/72 46/46/72 20/20/72
f 20/20/73 46/46/73 58/58/73
f 46/46/74 45/45/74 60/60/74
f 60/60/75 45/45/76 30/30/77
f 45/45/76 29/29/78 30/30/77
f 22/22/79 29/29/79 47/47/79
f 47/47/80 29/29/80 45/45/80
f 24/24/18 22/22/16 48/48/81
f 48/48/81 22/22/16 47/47/82
f 61/61/83 49/49/83 50/50/83
f 34/34/84 62/62/85 35/35/86
f 50/50/87 51/51/88 61/61/89
f 35/35/86 62/62/85 51/51/90
f 51/51/88 62/62/91 61/61/89
f 43/43/92 63/63/93 44/44/94
f 63/63/95 42/42/96 44/44/95
f 64/64/97 53/53/97 37/37/97
f 37/37/98 53/53/98 54/54/98
f 36/36/33 37/37/35 55/55/99
f 55/55/99 37/37/35 54/54/100
f 65/65/101 57/57/101 66/66/101
f 66/66/102 57/57/102 56/56/102
f 23/23/17 67/67/103 21/21/15
f 67/67/103 65/65/104 21/21/15
f 21/21/15 65/65/104 58/58/105
f 65/65/104 66/66/106 58/58/105
f 66/66/106 68/68/107 58/58/105
f 58/58/105 68/68/107 59/59/108
f 21/21/109 58/58/110 31/31/111
f 31/31/111 58/58/110 60/60/112
f 46/46/113 60/60/113 58/58/113
f 36/36/114 23/23/114 69/69/114
f 69/69/115 23/23/115 70/70/115
f 23/23/116 71/71/116 70/70/116
f 36/36/117 69/69/117 34/34/117
f 69/69/118 72/72/118 34/34/118
f 72/72/119 73/73/119 34/34/119
f 34/34/120 73/73/120 24/24/120
f 24/24/121 73/73/121 74/74/121
f 73/73/121 75/75/121 74/74/121
f 24/24/122 74/74/122 23/23/122
f 74/74/123 76/76/124 23/23/125
f 76/76/124 71/71/126 23/23/125
f 77/77/127 40/40/127 78/78/127
f 78/78/127 40/40/127 41/41/127
f 79/79/128 55/55/128 77/77/128
f 77/77/129 55/55/129 40/40/129
f 55/55/130 79/79/130 36/36/130
f 23/23/131 36/36/131 67/67/131
f 67/67/132 36/36/132 79/79/132
f 65/65/133 67/67/133 57/57/133
f 57/57/134 67/67/134 79/79/134
f 57/57/135 79/79/136 2/2/137
f 2/2/137 79/79/136 77/77/138
f 2/2/139 77/77/140 4/4/141
f 4/4/141 77/77/140 78/78/142
f 59/59/143 68/68/143 80/80/143
f 59/59/144 80/80/145 19/19/146
f 19/19/146 80/80/145 81/81/147
f 19/19/148 81/81/148 17/17/148
f 17/17/149 81/81/149 82/82/149
f 68/68/150 66/66/150 80/80/150
f 80/80/151 66/66/151 56/56/151
f 80/80/152 56/56/152 81/81/152
f 81/81/153 56/56/153 1/1/153
f 81/81/154 1/1/154 82/82/154
f 82/82/155 1/1/155 3/3/155
f 71/71/156 76/76/156 70/70/156
f 70/70/156 76/76/156 72/72/156
f 76/76/156 75/75/156 72/72/156
f 72/72/156 75/75/156 73/73/156
f 69/69/157 70/70/157 72/72/157
f 74/74/158 75/75/158 76/76/158
f 48/48/159 83/83/159 24/24/159
f 34/34/160 24/24/160 62/62/160
f 24/24/161 83/83/161 62/62/161
f 27/27/162 84/84/162 48/48/162
f 48/48/163 84/84/163 83/83/163
f 28/28/164 85/85/164 27/27/164
f 27/27/164 85/85/164 84/84/164
f 83/83/165 49/49/165 62/62/165
f 62/62/166 49/49/166 61/61/166
f 84/84/167 7/7/167 83/83/167
f 83/83/168 7/7/168 49/49/168
f 85/85/169 5/5/169 84/84/169
f 84/84/170 5/5/170 7/7/170
f 17/17/171 82/82/171 86/86/171
f 86/86/171 82/82/171 87/87/171
f 28/28/172 88/88/172 85/85/172
f 85/85/172 88/88/172 89/89/172
f 28/28/173 26/26/173 88/88/173
f 88/88/173 26/26/173 90/90/173
f 17/17/173 86/86/173 18/18/173
f 18/18/173 86/86/173 91/91/173
f 13/13/174 92/92/174 26/26/174
f 26/26/174 92/92/174 90/90/174
f 15/15/175 18/18/175 93/93/175
f 93/93/175 18/18/175 91/91/175
f 13/13/176 15/15/176 92/92/176
f 92/92/176 15/15/176 93/93/176
f 6/6/177 94/94/178 32/32/178
f 32/32/178 94/94/178 95/95/179
f 41/41/180 39/39/181 96/96/182
f 96/96/182 39/39/181 97/97/181
f 12/12/183 32/32/184 98/98/185
f 98/98/185 32/32/184 95/95/184
f 11/11/186 99/99/187 39/39/188
f 39/39/188 99/99/187 97/97/189
f 12/12/190 98/98/191 11/11/192
f 11/11/192 98/98/191 99/99/193
f 78/78/194 100/100/195 4/4/196
f 4/4/196 100/100/195 101/101/197
f 41/41/198 96/96/198 78/78/198
f 78/78/198 96/96/198 100/100/198
f 82/82/199 3/3/200 87/87/201
f 87/87/201 3/3/200 102/102/202
f 4/4/203 101/101/203 3/3/203
f 3/3/203 101/101/203 102/102/203
f 5/5/204 85/85/204 103/103/204
f 103/103/205 85/85/205 89/89/205
f 6/6/206 5/5/206 94/94/206
f 94/94/206 5/5/206 103/103/206
f 86/86/207 87/87/207 104/104/207
f 89/89/207 88/88/207 104/104/207
f 88/88/207 90/90/207 104/104/207
f 91/91/207 86/86/207 104/104/207
f 90/90/207 92/92/207 104/104/207
f 93/93/207 91/91/207 104/104/207
f 92/92/207 93/93/207 104/104/207
f 95/95/207 94/94/207 104/104/207
f 96/96/207 97/97/207 104/104/207
f 98/98/207 95/95/207 104/104/207
f 97/97/207 99/99/207 104/104/207
f 99/99/207 98/98/207 104/104/207
f 101/101/207 100/100/207 104/104/207
f 100/100/207 96/96/207 104/104/207
f 87/87/207 102/102/207 104/104/207
f 102/102/207 101/101/207 104/104/207
f 103/103/207 89/89/207 104/104/207
f 94/94/207 103/103/207 104/104/207
f 30/30/208 31/31/208 105/105/208
f 60/60/209 30/30/210 105/105/211
f 31/31/212 60/60/213 105/105/214
f 51/51/215 52/52/215 35/35/215
f 35/35/216 52/52/216 43/43/216
f 52/52/217 63/63/217 43/43/217
f 53/53/218 64/64/219 52/52/220
f 64/64/219 42/42/221 52/52/220
f 42/42/222 63/63/222 52/52/222
f 37/37/223 35/35/223 64/64/223
f 35/35/224 43/43/224 64/64/224
f 43/43/224 42/42/224 64/64/224
f 106/106/225 44/44/225 107/107/225
f 44/44/225 63/63/225 107/107/225
f 108/108/225 42/42/225 106/106/225
f 42/42/225 44/44/225 106/106/225
