# Blender v2.78 (sub 0) OBJ File: ''
# www.blender.org
mtllib SM_Env_Flower_03.mtl
o SM_Env_Flower_03
v -13.312790 17.209549 10.526237
v -8.698257 10.581403 6.988196
v -1.020115 17.459900 7.762951
v -0.778675 11.146672 4.123381
v -8.336452 10.271718 -14.827299
v -5.251099 18.070105 -18.507145
v -0.496327 10.922237 -11.715033
v 1.591622 16.160595 -12.340519
v 6.816291 17.342798 2.268326
v 2.344020 11.257796 -3.757353
v -16.265099 9.719259 -11.955713
v -19.378670 9.595317 -4.081717
v -17.630379 14.074749 -12.919977
v -24.644005 16.464550 -7.476146
v -16.521191 9.936284 3.869250
v -18.910076 14.402410 4.524617
v -0.078400 14.928966 -3.876997
v -1.886482 14.974171 -10.674595
v -9.238750 14.838520 -13.238770
v -15.622334 14.117893 -11.089211
v -17.730541 13.518428 -4.260017
v -14.928829 13.592234 1.767588
v -8.994919 14.324956 4.794144
v -2.730896 15.023747 3.228012
v -2.366134 17.135891 -10.046246
v -2.708530 18.961023 -4.173134
v -9.844913 19.336521 -11.417175
v -15.166573 16.516552 -10.616371
v -15.859924 17.850912 -4.599369
v -13.898979 15.542810 0.644848
v -9.304901 18.457472 2.239979
v -3.732467 17.148466 2.955643
v -8.890350 13.633273 -3.995123
v -8.082344 7.175703 -7.656174
v -4.516911 7.427020 -3.788292
v -12.348911 7.084876 -3.910820
v -8.220844 7.365162 0.140659
v -5.552998 -12.602529 -7.972941
v -1.272240 -12.249648 -3.323878
v -4.987782 -18.767126 -6.101085
v -2.288243 -18.515781 -3.166363
v -10.669712 -12.823119 -3.467299
v -8.211128 -18.969063 -3.254849
v -5.713699 -12.424819 1.402197
v -5.085999 -18.683090 -0.180981
v -4.296455 -0.418094 -4.581999
v -5.795563 -0.410612 -1.875868
v -8.660469 -0.606195 -3.535711
v -6.823196 -0.595939 -6.220091
v 12.537940 11.381237 -2.121900
v 12.749413 5.106807 -4.651435
v 20.360580 8.846625 -5.921916
v 17.751945 3.780854 -7.915504
v 9.331303 4.555131 -20.260139
v 13.475677 9.983122 -24.134375
v 15.283455 3.376338 -19.250748
v 18.378304 7.038345 -20.536234
v 24.644005 6.973789 -10.983505
v 18.586418 3.099398 -14.014965
v 4.328431 5.893224 -16.991125
v 3.494236 6.562540 -10.896546
v 4.763916 9.615346 -17.923128
v 1.803620 13.097561 -13.249456
v 6.809464 6.286014 -5.668690
v 6.865292 10.337298 -5.304907
v 18.219635 6.523560 -14.119137
v 15.924217 6.885701 -18.715818
v 10.563789 8.368649 -19.457445
v 6.414093 9.226949 -16.913527
v 5.915524 9.289553 -11.664366
v 13.485404 8.098895 -6.556373
v 8.788269 8.794677 -7.775424
v 17.642853 7.255781 -8.663784
v 16.452522 8.701089 -18.416533
v 17.810028 10.275948 -14.355676
v 12.007584 12.065267 -18.524675
v 7.621696 11.021741 -16.886427
v 8.599812 12.288551 -12.621374
v 9.963809 10.093491 -8.926760
v 14.287926 11.396655 -8.756266
v 17.664101 9.147377 -8.927809
v 11.885353 7.438986 -12.781292
v 9.600784 2.134667 -14.858625
v 12.691628 1.589146 -12.642698
v 7.337975 3.040422 -11.548546
v 10.843430 2.395929 -9.286768
v 8.143574 -14.624060 -10.784597
v 5.332116 -19.336519 -9.885947
v 4.414169 -14.009453 -13.443598
v 2.969821 -18.971680 -11.561924
v 1.664353 -13.011091 -9.452669
v 1.217075 -18.392279 -9.035667
v 5.894973 -13.736070 -6.739577
v 3.897388 -18.821968 -7.326214
v 10.004246 -4.649329 -12.444140
v 9.449146 -4.285518 -10.291824
v 7.203515 -3.827024 -11.038330
v 7.993526 -4.251005 -13.226467
v -2.929256 8.152274 15.049961
v -0.459336 3.318753 15.460545
v 0.890953 6.730643 21.063581
v 2.618721 2.678088 19.212177
v 11.590576 3.368483 11.460823
v 14.582520 8.039639 13.986115
v 11.370857 2.711869 16.318794
v 12.368027 5.822402 18.372540
v 5.365475 5.696825 24.134377
v 7.539798 2.445369 19.391449
v 8.507797 4.018500 7.708309
v 3.591384 4.241869 7.529919
v 9.004025 7.019728 7.695671
v 4.825286 9.411035 5.513792
v -0.232495 3.976679 10.611496
v -0.811871 7.162119 10.387905
v 7.340183 5.133254 18.841053
v 10.744522 5.493365 16.610294
v 10.779617 6.410147 12.218670
v 8.372967 6.757876 9.110237
v 4.194377 6.556326 9.167511
v 0.881168 5.801301 15.653980
v 1.404392 6.152447 11.801105
v 2.943672 5.447310 18.805241
v 10.418961 6.941745 16.917967
v 7.217255 8.083625 18.221380
v 9.892204 9.365227 13.162657
v 8.318943 8.237822 9.930345
v 4.947982 9.107586 10.975595
v 2.312123 7.289549 12.530640
v 2.437066 8.541293 15.851688
v 3.014339 6.952926 18.659502
v 5.699741 5.461271 13.904949
v 7.537415 1.241243 12.318931
v 6.086407 0.880533 14.983107
v 4.678874 1.694189 10.758005
v 3.233001 1.275472 13.759611
v 5.440915 -14.472759 12.761610
v 4.848679 -18.380878 10.974785
v 7.183311 -14.072585 9.551523
v 5.947556 -18.147062 8.944046
v 3.741940 -13.601590 7.659475
v 3.772132 -17.891056 7.740769
v 2.006198 -14.064505 11.276785
v 2.677635 -18.160557 10.029430
v 6.167648 -4.195654 13.345940
v 4.400723 -4.030050 13.068604
v 4.770615 -3.755826 11.203136
v 6.589366 -3.954886 11.666715
vt 0.7953 0.6039
vt 0.7953 0.6039
vt 0.7953 0.6039
vt 0.7953 0.6039
vt 0.7953 0.6039
vt 0.7953 0.6039
vt 0.7953 0.6039
vt 0.7953 0.6039
vt 0.7953 0.6039
vt 0.7953 0.6039
vt 0.7953 0.6039
vt 0.7953 0.6039
vt 0.7953 0.6039
vt 0.7953 0.6039
vt 0.7953 0.6039
vt 0.7953 0.6039
vt 0.7953 0.6039
vt 0.7953 0.6039
vt 0.7953 0.6039
vt 0.7953 0.6039
vt 0.7953 0.6039
vt 0.7953 0.6039
vt 0.7953 0.6039
vt 0.7953 0.6039
vt 0.7953 0.6039
vt 0.7953 0.6039
vt 0.7953 0.6039
vt 0.7953 0.6039
vt 0.7953 0.6039
vt 0.7953 0.6039
vt 0.7953 0.6039
vt 0.7953 0.6039
vt 0.7953 0.6039
vt 0.7953 0.6039
vt 0.7953 0.6039
vt 0.7953 0.6039
vt 0.7953 0.6039
vt 0.9656 0.4562
vt 0.9656 0.4562
vt 0.9656 0.4562
vt 0.9656 0.4562
vt 0.9656 0.4562
vt 0.9656 0.4562
vt 0.9656 0.4562
vt 0.9656 0.4562
vt 0.9656 0.4562
vt 0.9656 0.4562
vt 0.9656 0.4562
vt 0.9656 0.4562
vt 0.9656 0.4562
vt 0.9656 0.4562
vt 0.9656 0.4562
vt 0.9656 0.4562
vt 0.7953 0.6039
vt 0.7953 0.6039
vt 0.7953 0.6039
vt 0.7953 0.6039
vt 0.7953 0.6039
vt 0.7953 0.6039
vt 0.7953 0.6039
vt 0.7953 0.6039
vt 0.7953 0.6039
vt 0.7953 0.6039
vt 0.7953 0.6039
vt 0.7953 0.6039
vt 0.7953 0.6039
vt 0.7953 0.6039
vt 0.7953 0.6039
vt 0.7953 0.6039
vt 0.7953 0.6039
vt 0.7953 0.6039
vt 0.7953 0.6039
vt 0.7953 0.6039
vt 0.7953 0.6039
vt 0.7953 0.6039
vt 0.7953 0.6039
vt 0.7953 0.6039
vt 0.7953 0.6039
vt 0.7953 0.6039
vt 0.7953 0.6039
vt 0.7953 0.6039
vt 0.7953 0.6039
vt 0.7953 0.6039
vt 0.7953 0.6039
vt 0.7953 0.6039
vt 0.7953 0.6039
vt 0.7953 0.6039
vt 0.7953 0.6039
vt 0.7953 0.6039
vt 0.7953 0.6039
vt 0.9656 0.4562
vt 0.9656 0.4562
vt 0.9656 0.4562
vt 0.9656 0.4562
vt 0.9656 0.4562
vt 0.9656 0.4562
vt 0.9656 0.4562
vt 0.9656 0.4562
vt 0.9656 0.4562
vt 0.9656 0.4562
vt 0.9656 0.4562
vt 0.9656 0.4562
vt 0.9656 0.4562
vt 0.9656 0.4562
vt 0.9656 0.4562
vt 0.9656 0.4562
vt 0.7953 0.6039
vt 0.7953 0.6039
vt 0.7953 0.6039
vt 0.7953 0.6039
vt 0.7953 0.6039
vt 0.7953 0.6039
vt 0.7953 0.6039
vt 0.7953 0.6039
vt 0.7953 0.6039
vt 0.7953 0.6039
vt 0.7953 0.6039
vt 0.7953 0.6039
vt 0.7953 0.6039
vt 0.7953 0.6039
vt 0.7953 0.6039
vt 0.7953 0.6039
vt 0.7953 0.6039
vt 0.7953 0.6039
vt 0.7953 0.6039
vt 0.7953 0.6039
vt 0.7953 0.6039
vt 0.7953 0.6039
vt 0.7953 0.6039
vt 0.7953 0.6039
vt 0.7953 0.6039
vt 0.7953 0.6039
vt 0.7953 0.6039
vt 0.7953 0.6039
vt 0.7953 0.6039
vt 0.7953 0.6039
vt 0.7953 0.6039
vt 0.7953 0.6039
vt 0.7953 0.6039
vt 0.7953 0.6039
vt 0.7953 0.6039
vt 0.7953 0.6039
vt 0.7953 0.6039
vt 0.9656 0.4562
vt 0.9656 0.4562
vt 0.9656 0.4562
vt 0.9656 0.4562
vt 0.9656 0.4562
vt 0.9656 0.4562
vt 0.9656 0.4562
vt 0.9656 0.4562
vt 0.9656 0.4562
vt 0.9656 0.4562
vt 0.9656 0.4562
vt 0.9656 0.4562
vt 0.9656 0.4562
vt 0.9656 0.4562
vt 0.9656 0.4562
vt 0.9656 0.4562
vn 0.2128 -0.3407 0.9158
vn 0.3307 -0.4618 0.8230
vn 0.3536 -0.5099 -0.7842
vn 0.5829 -0.3214 -0.7463
vn 0.8851 -0.3664 -0.2869
vn 0.8746 -0.3840 -0.2960
vn -0.8693 -0.3498 -0.3492
vn -0.5831 -0.6723 -0.4561
vn -0.2572 -0.5883 0.7667
vn -0.5650 -0.4075 0.7175
vn -0.3090 -0.3031 -0.9015
vn -0.3073 -0.2978 -0.9038
vn -0.3089 -0.3026 -0.9017
vn -0.3069 -0.2964 -0.9044
vn -0.8223 -0.4766 0.3110
vn -0.8181 -0.4820 0.3138
vn -0.8219 -0.4771 0.3112
vn -0.8171 -0.4832 0.3144
vn 0.6481 -0.7205 0.2466
vn 0.5190 -0.4119 0.7490
vn -0.3771 0.9242 0.0601
vn -0.2861 0.9546 0.0825
vn -0.1141 0.9062 0.4072
vn -0.1639 0.8913 0.4227
vn -0.0607 0.8707 0.4881
vn -0.0877 0.9935 0.0727
vn -0.0875 0.9935 0.0725
vn -0.0833 0.9942 0.0680
vn 0.3659 0.9284 0.0639
vn -0.0788 0.9949 0.0630
vn -0.0678 0.9265 -0.3701
vn 0.0880 0.9149 -0.3941
vn 0.4064 0.9129 -0.0373
vn 0.1455 0.9861 -0.0797
vn -0.1351 0.8405 -0.5247
vn -0.2005 0.8926 -0.4038
vn -0.2542 0.8887 -0.3815
vn -0.2446 0.9640 -0.1042
vn 0.9289 0.2774 -0.2452
vn 0.8357 0.5364 -0.1180
vn 0.3057 0.3277 -0.8940
vn 0.2763 0.3925 -0.8773
vn -0.3341 0.2430 -0.9107
vn -0.3054 0.3218 -0.8962
vn -0.9353 0.2306 -0.2685
vn -0.9070 0.3769 -0.1881
vn -0.4188 0.6089 0.6737
vn -0.5235 0.4192 0.7418
vn -0.7390 0.5838 0.3363
vn -0.7983 0.3812 0.4663
vn 0.2131 0.2224 0.9514
vn 0.0145 0.5265 0.8501
vn 0.8443 0.4376 0.3093
vn 0.8017 0.5416 0.2529
vn -0.6342 0.7271 -0.2629
vn 0.1248 0.7944 0.5944
vn -0.2997 0.7375 0.6052
vn 0.5216 0.8437 -0.1270
vn -0.2692 0.7530 -0.6005
vn 0.4966 0.8475 0.1873
vn 0.2561 0.7727 -0.5808
vn -0.6480 0.7552 0.0989
vn 0.2297 -0.8905 -0.3926
vn 0.4834 -0.8647 -0.1361
vn 0.3240 -0.9153 -0.2392
vn -0.0784 -0.9163 -0.3928
vn -0.1786 -0.9575 -0.2266
vn -0.3296 -0.9329 -0.1450
vn -0.0921 -0.9037 0.4181
vn -0.3354 -0.9283 0.1604
vn -0.1818 -0.9508 0.2510
vn 0.4791 -0.8596 0.1777
vn 0.2172 -0.8776 0.4273
vn 0.3118 -0.9081 0.2796
vn 0.7340 -0.1348 -0.6656
vn 0.7347 -0.1356 -0.6647
vn 0.7345 -0.1353 -0.6650
vn 0.7349 -0.1359 -0.6644
vn -0.6284 -0.2765 -0.7271
vn -0.6261 -0.2784 -0.7284
vn -0.6271 -0.2775 -0.7278
vn -0.6258 -0.2786 -0.7285
vn -0.6697 -0.2437 0.7015
vn -0.6691 -0.2442 0.7019
vn -0.6686 -0.2445 0.7022
vn -0.6684 -0.2447 0.7024
vn 0.7270 -0.0990 0.6795
vn 0.7278 -0.1001 0.6784
vn 0.7285 -0.1009 0.6776
vn 0.7287 -0.1011 0.6773
vn 0.0761 -0.9970 0.0154
vn 0.8437 0.2653 0.4667
vn 0.7120 0.1893 0.6762
vn -0.4999 0.2248 0.8364
vn -0.7007 0.1192 0.7034
vn -0.8183 0.1314 -0.5596
vn -0.6613 0.0394 -0.7491
vn 0.5266 0.1771 -0.8315
vn 0.7266 0.1137 -0.6776
vn 0.7264 0.0488 0.6856
vn 0.8745 -0.0244 0.4845
vn -0.6618 -0.2836 0.6940
vn -0.4508 -0.3532 0.8198
vn -0.6185 -0.3313 -0.7126
vn -0.8024 -0.2316 -0.5500
vn 0.7355 -0.0060 -0.6776
vn 0.5363 0.0999 -0.8381
vn 0.3171 -0.3454 0.8832
vn 0.3761 -0.5005 0.7797
vn 0.0198 -0.5908 -0.8066
vn 0.2800 -0.5199 -0.8070
vn 0.6286 -0.6567 -0.4167
vn 0.6137 -0.6670 -0.4225
vn -0.9864 0.0794 -0.1437
vn -0.8881 -0.3408 -0.3085
vn -0.1846 -0.0854 0.9791
vn -0.4075 -0.3532 0.8421
vn -0.5707 -0.1416 -0.8089
vn -0.5679 -0.1378 -0.8115
vn -0.5705 -0.1413 -0.8090
vn -0.5673 -0.1370 -0.8121
vn -0.8475 -0.0284 0.5301
vn -0.8453 -0.0349 0.5332
vn -0.8474 -0.0287 0.5302
vn -0.8448 -0.0363 0.5338
vn 0.4731 -0.8661 0.1615
vn 0.5378 -0.5338 0.6526
vn -0.1070 0.9913 0.0769
vn -0.0027 0.9968 0.0799
vn 0.2400 0.8855 0.3978
vn 0.1869 0.8869 0.4225
vn 0.3031 0.8267 0.4741
vn 0.2158 0.9762 0.0227
vn 0.6953 0.7130 -0.0908
vn 0.2235 0.9747 0.0096
vn 0.1671 0.8092 -0.5633
vn 0.2312 0.8959 -0.3794
vn 0.7070 0.6733 -0.2165
vn 0.4341 0.8762 -0.2092
vn -0.0317 0.8001 -0.5990
vn -0.0538 0.8859 -0.4607
vn -0.1031 0.9013 -0.4207
vn -0.0043 0.9910 -0.1335
vn 0.8743 -0.1801 -0.4508
vn 0.9355 0.0804 -0.3439
vn 0.1668 0.1130 -0.9795
vn 0.1612 0.1818 -0.9700
vn -0.4481 0.3141 -0.8370
vn -0.4009 0.3683 -0.8388
vn -0.7552 0.6506 -0.0795
vn -0.8296 0.5578 0.0246
vn -0.0801 0.7008 0.7088
vn -0.2051 0.5772 0.7904
vn -0.4464 0.7849 0.4297
vn -0.5131 0.6413 0.5705
vn 0.4678 0.1170 0.8761
vn 0.3481 0.4602 0.8168
vn 0.9945 0.0034 0.1047
vn 0.9925 0.1115 0.0499
vn -0.4635 0.8673 -0.1814
vn 0.4949 0.6716 0.5515
vn 0.0493 0.7773 0.6272
vn 0.7744 0.5357 -0.3367
vn -0.2033 0.7561 -0.6221
vn 0.8280 0.5601 0.0271
vn 0.3368 0.5631 -0.7547
vn -0.3862 0.9051 0.1778
vn -0.1119 -0.9089 -0.4017
vn 0.2046 -0.9622 -0.1800
vn 0.0131 -0.9665 -0.2563
vn -0.4473 -0.8243 -0.3471
vn -0.5368 -0.8321 -0.1393
vn -0.6766 -0.7362 -0.0118
vn -0.2527 -0.7863 0.5638
vn -0.6021 -0.7207 0.3437
vn -0.4144 -0.8120 0.4110
vn 0.2769 -0.9500 0.1440
vn 0.0803 -0.8745 0.4784
vn 0.1302 -0.9453 0.2990
vn 0.4760 -0.4302 -0.7670
vn 0.4768 -0.4299 -0.7667
vn 0.4772 -0.4297 -0.7666
vn 0.4774 -0.4296 -0.7665
vn -0.8206 0.0223 -0.5710
vn -0.8191 0.0234 -0.5732
vn -0.8188 0.0236 -0.5735
vn -0.5235 0.1081 0.8452
vn -0.5223 0.1088 0.8458
vn -0.5227 0.1086 0.8456
vn -0.5221 0.1089 0.8459
vn 0.7770 -0.3659 0.5123
vn 0.7787 -0.3650 0.5103
vn 0.7771 -0.3658 0.5122
vn 0.7790 -0.3648 0.5100
vn -0.2072 -0.9750 0.0798
vn 0.9540 -0.1333 0.2686
vn 0.8538 -0.1318 0.5036
vn -0.2105 0.4123 0.8864
vn -0.4433 0.4054 0.7995
vn -0.8671 0.3264 -0.3763
vn -0.7325 0.3400 -0.5898
vn 0.3174 -0.2129 -0.9241
vn 0.5504 -0.1838 -0.8144
vn 0.8220 -0.2486 0.5124
vn 0.8822 -0.3708 0.2902
vn -0.5312 0.0731 0.8441
vn -0.3280 -0.0732 0.9418
vn -0.8285 -0.0253 -0.5594
vn -0.9223 0.1401 -0.3601
vn 0.5332 -0.2553 -0.8065
vn 0.2922 -0.3052 -0.9064
vn -0.8184 -0.3817 0.4296
vn -0.7013 -0.5212 0.4864
vn 0.8496 -0.5265 -0.0327
vn 0.8749 -0.4289 0.2249
vn 0.5296 -0.5667 0.6312
vn 0.5345 -0.5783 0.6163
vn 0.0358 -0.0101 -0.9993
vn 0.2330 -0.4011 -0.8859
vn -0.9805 -0.1833 -0.0707
vn -0.8431 -0.4552 -0.2863
vn 0.7521 -0.1328 -0.6455
vn 0.7548 -0.1286 -0.6432
vn 0.7523 -0.1326 -0.6453
vn 0.7554 -0.1276 -0.6427
vn -0.6091 -0.1578 -0.7772
vn -0.6114 -0.1642 -0.7741
vn -0.6092 -0.1581 -0.7771
vn -0.6118 -0.1656 -0.7735
vn -0.0594 -0.8358 0.5458
vn -0.5597 -0.5298 0.6372
vn -0.1486 0.9760 -0.1594
vn -0.1406 0.9885 -0.0550
vn -0.4251 0.8759 0.2281
vn -0.4564 0.8717 0.1783
vn -0.4908 0.8170 0.3028
vn -0.0592 0.9860 0.1561
vn 0.1165 0.7728 0.6239
vn -0.0453 0.9857 0.1622
vn 0.5181 0.8536 0.0540
vn 0.3406 0.9310 0.1311
vn 0.2419 0.7439 0.6230
vn 0.1958 0.9168 0.3480
vn 0.5360 0.8318 -0.1439
vn 0.3942 0.9056 -0.1563
vn 0.3499 0.9148 -0.2018
vn 0.0717 0.9943 -0.0791
vn 0.5512 -0.0530 0.8327
vn 0.4304 0.2027 0.8796
vn 0.9766 0.2086 0.0514
vn 0.9605 0.2748 0.0426
vn 0.7629 0.3344 -0.5533
vn 0.7656 0.3927 -0.5096
vn -0.0353 0.4834 -0.8747
vn -0.0944 0.5941 -0.7989
vn -0.7662 0.6409 -0.0456
vn -0.8542 0.4963 -0.1549
vn -0.5316 0.7153 -0.4535
vn -0.6720 0.5500 -0.4960
vn -0.8284 0.0924 0.5525
vn -0.8062 0.4284 0.4081
vn -0.0012 0.0964 0.9953
vn 0.0461 0.2072 0.9772
vn 0.0802 0.8391 -0.5380
vn -0.5364 0.6729 0.5095
vn -0.6730 0.7362 0.0708
vn 0.3737 0.6265 0.6840
vn 0.5463 0.7768 -0.3133
vn 0.0244 0.6292 0.7769
vn 0.7349 0.6438 0.2131
vn -0.2762 0.8614 -0.4262
vn 0.4457 -0.8896 -0.1001
vn 0.2616 -0.9335 0.2451
vn 0.3171 -0.9474 0.0444
vn 0.3468 -0.8339 -0.4293
vn 0.1317 -0.8611 -0.4910
vn -0.0134 -0.7871 -0.6167
vn -0.5276 -0.8382 -0.1384
vn -0.3516 -0.7888 -0.5041
vn -0.3931 -0.8657 -0.3101
vn -0.0570 -0.9348 0.3506
vn -0.4098 -0.8935 0.1837
vn -0.2252 -0.9494 0.2188
vn 0.8486 -0.3209 0.4206
vn 0.8483 -0.3205 0.4214
vn 0.8482 -0.3203 0.4218
vn 0.8481 -0.3202 0.4221
vn 0.4802 -0.0149 -0.8771
vn 0.4816 -0.0140 -0.8763
vn 0.4824 -0.0134 -0.8758
vn 0.4828 -0.0132 -0.8756
vn -0.9007 -0.0154 -0.4342
vn -0.9013 -0.0147 -0.4330
vn -0.9011 -0.0150 -0.4334
vn -0.9014 -0.0145 -0.4328
vn -0.4074 -0.3279 0.8523
vn -0.4053 -0.3267 0.8538
vn -0.4073 -0.3279 0.8524
vn -0.4050 -0.3265 0.8540
vn -0.0411 -0.9898 -0.1362
vn -0.1590 -0.0448 0.9863
vn -0.4026 -0.0669 0.9129
vn -0.9549 0.2550 -0.1519
vn -0.8877 0.2352 -0.3958
vn 0.2631 0.2122 -0.9411
vn 0.4926 0.2487 -0.8340
vn 0.9697 0.0058 0.2444
vn 0.8800 -0.0888 0.4666
vn -0.4096 -0.2059 0.8887
vn -0.1755 -0.3047 0.9361
vn -0.8970 -0.0510 -0.4392
vn -0.9589 -0.1828 -0.2170
vn 0.4705 -0.0640 -0.8801
vn 0.2540 0.0747 -0.9643
vn 0.8778 -0.1343 0.4599
vn 0.9565 -0.2010 0.2114
usemtl None
s 1
f 1/1/1 2/2/1 3/3/1
f 3/3/2 2/2/2 4/4/2
f 5/5/3 6/6/3 7/7/3
f 7/7/4 6/6/4 8/8/4
f 9/9/5 10/10/5 8/8/5
f 8/8/6 10/10/6 7/7/6
f 11/11/7 12/12/7 13/13/7
f 13/13/8 12/12/8 14/14/8
f 2/2/9 1/1/9 15/15/9
f 15/15/10 1/1/10 16/16/10
f 6/6/11 5/5/12 13/13/13
f 13/13/13 5/5/12 11/11/14
f 14/14/15 12/12/16 16/16/17
f 16/16/17 12/12/16 15/15/18
f 10/10/19 9/9/19 4/4/19
f 4/4/20 9/9/20 3/3/20
f 9/9/21 8/8/21 17/17/21
f 17/17/22 8/8/22 18/18/22
f 8/8/23 6/6/23 18/18/23
f 18/18/24 6/6/24 19/19/24
f 6/6/25 13/13/25 19/19/25
f 19/19/26 13/13/27 20/20/28
f 14/14/29 21/21/29 13/13/29
f 13/13/27 21/21/30 20/20/28
f 16/16/31 1/1/31 22/22/31
f 22/22/32 1/1/32 23/23/32
f 14/14/33 16/16/33 21/21/33
f 21/21/34 16/16/34 22/22/34
f 1/1/35 3/3/35 23/23/35
f 23/23/36 3/3/36 24/24/36
f 3/3/37 9/9/37 24/24/37
f 24/24/38 9/9/38 17/17/38
f 18/18/39 25/25/39 17/17/39
f 17/17/40 25/25/40 26/26/40
f 18/18/41 19/19/41 25/25/41
f 25/25/42 19/19/42 27/27/42
f 20/20/43 28/28/43 19/19/43
f 19/19/44 28/28/44 27/27/44
f 20/20/45 21/21/45 28/28/45
f 28/28/46 21/21/46 29/29/46
f 22/22/47 23/23/47 30/30/47
f 30/30/48 23/23/48 31/31/48
f 22/22/49 30/30/49 21/21/49
f 21/21/50 30/30/50 29/29/50
f 24/24/51 32/32/51 23/23/51
f 23/23/52 32/32/52 31/31/52
f 24/24/53 17/17/53 32/32/53
f 32/32/54 17/17/54 26/26/54
f 26/26/55 25/25/55 33/33/55
f 25/25/56 27/27/56 33/33/56
f 27/27/57 28/28/57 33/33/57
f 28/28/58 29/29/58 33/33/58
f 30/30/59 31/31/59 33/33/59
f 29/29/60 30/30/60 33/33/60
f 31/31/61 32/32/61 33/33/61
f 32/32/62 26/26/62 33/33/62
f 5/5/63 7/7/63 34/34/63
f 10/10/64 35/35/64 7/7/64
f 7/7/65 35/35/65 34/34/65
f 5/5/66 34/34/66 11/11/66
f 11/11/67 34/34/67 36/36/67
f 12/12/68 11/11/68 36/36/68
f 2/2/69 15/15/69 37/37/69
f 12/12/70 36/36/70 15/15/70
f 15/15/71 36/36/71 37/37/71
f 10/10/72 4/4/72 35/35/72
f 2/2/73 37/37/73 4/4/73
f 4/4/74 37/37/74 35/35/74
f 38/38/75 39/39/76 40/40/77
f 40/40/77 39/39/76 41/41/78
f 42/42/79 38/38/80 43/43/81
f 43/43/81 38/38/80 40/40/82
f 42/42/83 43/43/84 44/44/85
f 44/44/85 43/43/84 45/45/86
f 44/44/87 45/45/88 39/39/89
f 39/39/89 45/45/88 41/41/90
f 41/41/91 45/45/91 40/40/91
f 40/40/91 45/45/91 43/43/91
f 46/46/92 47/47/92 39/39/92
f 39/39/93 47/47/93 44/44/93
f 47/47/94 48/48/94 44/44/94
f 44/44/95 48/48/95 42/42/95
f 48/48/96 49/49/96 42/42/96
f 42/42/97 49/49/97 38/38/97
f 49/49/98 46/46/98 38/38/98
f 38/38/99 46/46/99 39/39/99
f 37/50/100 47/47/100 35/51/100
f 35/51/101 47/47/101 46/46/101
f 36/52/102 48/48/102 37/50/102
f 37/50/103 48/48/103 47/47/103
f 36/52/104 34/53/104 48/48/104
f 48/48/105 34/53/105 49/49/105
f 34/53/106 35/51/106 49/49/106
f 49/49/107 35/51/107 46/46/107
f 50/54/108 51/55/108 52/56/108
f 52/56/109 51/55/109 53/57/109
f 54/58/110 55/59/110 56/60/110
f 56/60/111 55/59/111 57/61/111
f 58/62/112 59/63/112 57/61/112
f 57/61/113 59/63/113 56/60/113
f 60/64/114 61/65/114 62/66/114
f 62/66/115 61/65/115 63/67/115
f 64/68/116 51/55/116 65/69/116
f 65/69/117 51/55/117 50/54/117
f 55/59/118 54/58/119 62/66/120
f 62/66/120 54/58/119 60/64/121
f 63/67/122 61/65/123 65/69/124
f 65/69/124 61/65/123 64/68/125
f 59/63/126 58/62/126 53/57/126
f 53/57/127 58/62/127 52/56/127
f 58/62/128 57/61/128 66/70/128
f 66/70/129 57/61/129 67/71/129
f 57/61/130 55/59/130 67/71/130
f 67/71/131 55/59/131 68/72/131
f 55/59/132 62/66/132 68/72/132
f 68/72/133 62/66/133 69/73/133
f 63/67/134 70/74/134 62/66/134
f 62/66/135 70/74/135 69/73/135
f 50/54/136 71/75/136 65/69/136
f 65/69/137 71/75/137 72/76/137
f 63/67/138 65/69/138 70/74/138
f 70/74/139 65/69/139 72/76/139
f 50/54/140 52/56/140 71/75/140
f 71/75/141 52/56/141 73/77/141
f 52/56/142 58/62/142 73/77/142
f 73/77/143 58/62/143 66/70/143
f 67/71/144 74/78/144 66/70/144
f 66/70/145 74/78/145 75/79/145
f 67/71/146 68/72/146 74/78/146
f 74/78/147 68/72/147 76/80/147
f 69/73/148 77/81/148 68/72/148
f 68/72/149 77/81/149 76/80/149
f 70/74/150 78/82/150 69/73/150
f 69/73/151 78/82/151 77/81/151
f 72/76/152 71/75/152 79/83/152
f 79/83/153 71/75/153 80/84/153
f 72/76/154 79/83/154 70/74/154
f 70/74/155 79/83/155 78/82/155
f 73/77/156 81/85/156 71/75/156
f 71/75/157 81/85/157 80/84/157
f 73/77/158 66/70/158 81/85/158
f 81/85/159 66/70/159 75/79/159
f 75/79/160 74/78/160 82/86/160
f 74/78/161 76/80/161 82/86/161
f 76/80/162 77/81/162 82/86/162
f 77/81/163 78/82/163 82/86/163
f 79/83/164 80/84/164 82/86/164
f 78/82/165 79/83/165 82/86/165
f 80/84/166 81/85/166 82/86/166
f 81/85/167 75/79/167 82/86/167
f 54/58/168 56/60/168 83/87/168
f 59/63/169 84/88/169 56/60/169
f 56/60/170 84/88/170 83/87/170
f 54/58/171 83/87/171 60/64/171
f 60/64/172 83/87/172 85/89/172
f 61/65/173 60/64/173 85/89/173
f 51/55/174 64/68/174 86/90/174
f 61/65/175 85/89/175 64/68/175
f 64/68/176 85/89/176 86/90/176
f 59/63/177 53/57/177 84/88/177
f 51/55/178 86/90/178 53/57/178
f 53/57/179 86/90/179 84/88/179
f 87/91/180 88/92/181 89/93/182
f 89/93/182 88/92/181 90/94/183
f 89/93/184 90/94/184 91/95/185
f 91/95/185 90/94/184 92/96/186
f 93/97/187 91/95/188 94/98/189
f 94/98/189 91/95/188 92/96/190
f 87/91/191 93/97/192 88/92/193
f 88/92/193 93/97/192 94/98/194
f 90/94/195 88/92/195 92/96/195
f 92/96/195 88/92/195 94/98/195
f 95/99/196 96/100/196 87/91/196
f 87/91/197 96/100/197 93/97/197
f 96/100/198 97/101/198 93/97/198
f 93/97/199 97/101/199 91/95/199
f 98/102/200 89/93/200 97/101/200
f 97/101/201 89/93/201 91/95/201
f 95/99/202 87/91/202 98/102/202
f 98/102/203 87/91/203 89/93/203
f 86/103/204 96/100/204 84/104/204
f 84/104/205 96/100/205 95/99/205
f 85/105/206 97/101/206 86/103/206
f 86/103/207 97/101/207 96/100/207
f 85/105/208 83/106/208 97/101/208
f 97/101/209 83/106/209 98/102/209
f 84/104/210 95/99/210 83/106/210
f 83/106/211 95/99/211 98/102/211
f 99/107/212 100/108/212 101/109/212
f 101/109/213 100/108/213 102/110/213
f 103/111/214 104/112/214 105/113/214
f 105/113/215 104/112/215 106/114/215
f 107/115/216 108/116/216 106/114/216
f 106/114/217 108/116/217 105/113/217
f 109/117/218 110/118/218 111/119/218
f 111/119/219 110/118/219 112/120/219
f 113/121/220 100/108/220 114/122/220
f 114/122/221 100/108/221 99/107/221
f 104/112/222 103/111/223 111/119/224
f 111/119/224 103/111/223 109/117/225
f 112/120/226 110/118/227 114/122/228
f 114/122/228 110/118/227 113/121/229
f 108/116/230 107/115/230 102/110/230
f 102/110/231 107/115/231 101/109/231
f 107/115/232 106/114/232 115/123/232
f 115/123/233 106/114/233 116/124/233
f 106/114/234 104/112/234 116/124/234
f 116/124/235 104/112/235 117/125/235
f 104/112/236 111/119/236 117/125/236
f 117/125/237 111/119/237 118/126/237
f 112/120/238 119/127/238 111/119/238
f 111/119/239 119/127/239 118/126/239
f 99/107/240 120/128/240 114/122/240
f 114/122/241 120/128/241 121/129/241
f 112/120/242 114/122/242 119/127/242
f 119/127/243 114/122/243 121/129/243
f 99/107/244 101/109/244 120/128/244
f 120/128/245 101/109/245 122/130/245
f 101/109/246 107/115/246 122/130/246
f 122/130/247 107/115/247 115/123/247
f 116/124/248 123/131/248 115/123/248
f 115/123/249 123/131/249 124/132/249
f 116/124/250 117/125/250 123/131/250
f 123/131/251 117/125/251 125/133/251
f 118/126/252 126/134/252 117/125/252
f 117/125/253 126/134/253 125/133/253
f 118/126/254 119/127/254 126/134/254
f 126/134/255 119/127/255 127/135/255
f 121/129/256 120/128/256 128/136/256
f 128/136/257 120/128/257 129/137/257
f 121/129/258 128/136/258 119/127/258
f 119/127/259 128/136/259 127/135/259
f 122/130/260 130/138/260 120/128/260
f 120/128/261 130/138/261 129/137/261
f 122/130/262 115/123/262 130/138/262
f 130/138/263 115/123/263 124/132/263
f 124/132/264 123/131/264 131/139/264
f 123/131/265 125/133/265 131/139/265
f 125/133/266 126/134/266 131/139/266
f 126/134/267 127/135/267 131/139/267
f 128/136/268 129/137/268 131/139/268
f 127/135/269 128/136/269 131/139/269
f 129/137/270 130/138/270 131/139/270
f 130/138/271 124/132/271 131/139/271
f 103/111/272 105/113/272 132/140/272
f 108/116/273 133/141/273 105/113/273
f 105/113/274 133/141/274 132/140/274
f 103/111/275 132/140/275 109/117/275
f 109/117/276 132/140/276 134/142/276
f 110/118/277 109/117/277 134/142/277
f 100/108/278 113/121/278 135/143/278
f 110/118/279 134/142/279 113/121/279
f 113/121/280 134/142/280 135/143/280
f 108/116/281 102/110/281 133/141/281
f 100/108/282 135/143/282 102/110/282
f 102/110/283 135/143/283 133/141/283
f 136/144/284 137/145/285 138/146/286
f 138/146/286 137/145/285 139/147/287
f 138/146/288 139/147/289 140/148/290
f 140/148/290 139/147/289 141/149/291
f 142/150/292 140/148/293 143/151/294
f 143/151/294 140/148/293 141/149/295
f 136/144/296 142/150/297 137/145/298
f 137/145/298 142/150/297 143/151/299
f 139/147/300 137/145/300 141/149/300
f 141/149/300 137/145/300 143/151/300
f 144/152/301 145/153/301 136/144/301
f 136/144/302 145/153/302 142/150/302
f 145/153/303 146/154/303 142/150/303
f 142/150/304 146/154/304 140/148/304
f 147/155/305 138/146/305 146/154/305
f 146/154/306 138/146/306 140/148/306
f 147/155/307 144/152/307 138/146/307
f 138/146/308 144/152/308 136/144/308
f 135/156/309 145/153/309 133/157/309
f 133/157/310 145/153/310 144/152/310
f 134/158/311 146/154/311 135/156/311
f 135/156/312 146/154/312 145/153/312
f 134/158/313 132/159/313 146/154/313
f 146/154/314 132/159/314 147/155/314
f 133/157/315 144/152/315 132/159/315
f 132/159/316 144/152/316 147/155/316
