# Blender v2.78 (sub 0) OBJ File: ''
# www.blender.org
mtllib SM_Env_SnowPile_01.mtl
o SM_Env_SnowPile_01
v -5.597471 1.348404 123.642944
v 70.525406 1.348400 125.652534
v 31.759911 7.606041 118.296112
v 6.982212 13.821672 105.410400
v -117.962585 1.348408 79.965637
v -81.786865 1.348404 114.240021
v -97.016693 11.341743 85.676147
v -60.505951 16.020464 104.361359
v -56.365814 15.929920 85.691406
v -83.814331 14.332106 55.026524
v -32.282867 1.348400 133.280060
v -13.333717 22.643457 80.705940
v -47.553909 20.073877 72.623940
v 22.427223 20.891470 101.735970
v 30.887527 23.994267 71.495049
v 68.447433 16.244274 95.042274
v 89.573120 12.727026 99.008026
v 114.248260 1.348412 76.093781
v -137.242432 1.348412 57.292084
v -122.422760 11.470762 56.394276
v -19.789513 49.952568 57.044456
v -64.020813 19.139997 50.180698
v 15.472919 43.051888 47.012047
v 89.576782 11.256643 55.375629
v 104.677124 10.976349 68.356995
v 115.830322 8.263924 41.989124
v 142.885040 1.348415 43.791977
v -141.993713 1.348419 23.235558
v -114.035248 14.693724 32.324093
v -88.260956 27.687325 35.761913
v -73.120575 33.868992 21.679251
v -49.962051 50.624260 36.834663
v -61.657013 45.453442 20.713829
v -11.444954 58.689384 30.211184
v 31.645889 40.426861 24.307981
v 42.484924 34.048565 19.731855
v 85.749084 15.702715 27.376787
v 83.651642 29.390781 11.656568
v 109.874451 19.731930 15.112243
v 137.049561 11.739752 28.460779
v 150.501099 1.348419 13.327985
v -119.548462 17.915632 11.123443
v -134.696899 1.348423 -2.955547
v -76.234619 35.683727 8.987706
v -37.597229 68.177811 8.844910
v -23.440887 68.063995 21.303644
v 19.439003 69.446060 17.895248
v -3.245369 78.535675 16.761063
v 18.176514 92.557983 -16.431076
v -3.842750 98.526520 -10.399141
v -22.465843 89.308228 -2.421761
v 46.381119 46.300812 4.313137
v 70.273666 41.387554 8.594138
v 79.684784 38.033203 -7.269321
v 120.790710 16.254013 -9.689477
v -118.536194 26.173603 -19.285915
v -113.141968 14.090645 -53.986782
v -70.876770 37.796066 -14.235196
v -79.459320 27.565758 -56.479092
v -60.148514 45.868195 -9.814316
v -35.169395 83.012299 -27.367800
v -41.140518 57.032295 -67.214577
v -49.322479 46.825539 -47.058647
v -18.109863 94.993988 -30.783119
v -0.361976 92.514381 -45.927704
v 31.155174 74.035889 -20.981998
v 11.620434 85.507820 -49.109573
v 53.918518 40.004932 -20.411776
v 74.607574 32.839447 -49.957832
v 108.381073 15.203962 -33.261265
v 134.895111 13.859760 -24.725340
v 137.172974 1.348434 -74.255981
v -144.808502 1.348427 -22.844910
v -135.025787 1.348431 -44.620773
v -123.498962 13.877048 -72.123917
v -144.618774 1.348434 -72.351959
v -63.811478 34.566574 -55.658195
v -23.836624 73.077492 -62.330021
v 0.443011 78.372719 -61.689911
v -5.963778 54.709270 -76.325493
v 24.288177 55.833656 -64.134621
v 0.574128 48.102234 -85.120323
v 56.254379 42.642666 -64.622856
v 30.677330 47.372860 -76.847801
v 82.495697 23.182903 -70.157356
v 67.483200 24.971958 -74.756859
v 105.673706 16.657385 -57.766247
v -85.596313 13.840057 -121.857697
v -121.770844 1.348438 -99.007935
v -70.804291 18.290243 -84.028099
v -86.183838 18.967415 -93.342400
v -55.898468 21.894835 -88.584435
v -34.899788 43.940079 -90.387505
v -45.274399 20.369837 -113.915916
v 15.245522 35.076729 -95.058617
v -7.577211 33.232018 -93.137169
v -30.736938 27.213335 -107.975395
v 41.031815 29.563335 -80.237267
v 13.971672 13.181084 -121.730804
v 6.997034 19.065149 -113.897087
v 101.615143 13.647104 -90.264618
v 108.572357 1.348438 -102.769104
v -68.458893 1.348446 -140.895844
v -51.368530 1.348446 -133.383820
v -7.529612 19.899082 -124.613884
v -1.818978 15.886538 -135.452576
v 78.159637 19.251892 -100.667778
v 45.867249 13.025051 -125.739410
v 81.962799 12.398411 -116.150116
v -24.677628 1.348446 -140.952850
v 47.688065 1.348446 -138.998749
v -28.644165 -19.342709 119.077423
v -4.722858 -19.342709 110.438599
v -129.514282 -19.342686 -20.875889
v -120.744904 -19.342682 -40.396244
v 43.043320 -19.342670 -124.998566
v -21.826675 -19.342670 -126.750153
v 63.515137 -19.342709 112.239960
v 128.379700 -19.342697 38.858639
v 102.709137 -19.342701 67.814575
v -126.991058 -19.342693 20.431461
v -120.450073 -19.342690 -3.046748
v 123.259338 -19.342678 -66.961876
v 135.206848 -19.342693 11.550111
v 97.621155 -19.342674 -92.521515
v -108.862885 -19.342674 -89.150024
v -61.073029 -19.342670 -126.699097
v -45.752914 -19.342670 -119.965179
v -73.020477 -19.342709 102.009674
v -105.449097 -19.342701 71.285385
v -122.731934 -19.342697 50.960262
v -129.344208 -19.342678 -65.255089
v -24.066376 -19.342690 -8.188300
vt 0.5635 0.7910
vt 0.5635 0.7910
vt 0.5635 0.7910
vt 0.5635 0.7910
vt 0.5635 0.7910
vt 0.5635 0.7910
vt 0.5635 0.7910
vt 0.5635 0.7910
vt 0.5635 0.7910
vt 0.5635 0.7910
vt 0.5635 0.7910
vt 0.5635 0.7910
vt 0.5635 0.7910
vt 0.5635 0.7910
vt 0.5635 0.7910
vt 0.5635 0.7910
vt 0.5635 0.7910
vt 0.5635 0.7910
vt 0.5635 0.7910
vt 0.5635 0.7910
vt 0.5635 0.7910
vt 0.5635 0.7910
vt 0.5635 0.7910
vt 0.5635 0.7910
vt 0.5635 0.7910
vt 0.5635 0.7910
vt 0.5635 0.7910
vt 0.5635 0.7910
vt 0.5635 0.7910
vt 0.5635 0.7910
vt 0.5635 0.7910
vt 0.5635 0.7910
vt 0.5635 0.7910
vt 0.5635 0.7910
vt 0.5635 0.7910
vt 0.5635 0.7910
vt 0.5635 0.7910
vt 0.5635 0.7910
vt 0.5635 0.7910
vt 0.5635 0.7910
vt 0.5635 0.7910
vt 0.5635 0.7910
vt 0.5635 0.7910
vt 0.5635 0.7910
vt 0.5635 0.7910
vt 0.5635 0.7910
vt 0.5635 0.7910
vt 0.5635 0.7910
vt 0.5635 0.7910
vt 0.5635 0.7910
vt 0.5635 0.7910
vt 0.5635 0.7910
vt 0.5635 0.7910
vt 0.5635 0.7910
vt 0.5635 0.7910
vt 0.5635 0.7910
vt 0.5635 0.7910
vt 0.5635 0.7910
vt 0.5635 0.7910
vt 0.5635 0.7910
vt 0.5635 0.7910
vt 0.5635 0.7910
vt 0.5635 0.7910
vt 0.5635 0.7910
vt 0.5635 0.7910
vt 0.5635 0.7910
vt 0.5635 0.7910
vt 0.5635 0.7910
vt 0.5635 0.7910
vt 0.5635 0.7910
vt 0.5635 0.7910
vt 0.5635 0.7910
vt 0.5635 0.7910
vt 0.5635 0.7910
vt 0.5635 0.7910
vt 0.5635 0.7910
vt 0.5635 0.7910
vt 0.5635 0.7910
vt 0.5635 0.7910
vt 0.5635 0.7910
vt 0.5635 0.7910
vt 0.5635 0.7910
vt 0.5635 0.7910
vt 0.5635 0.7910
vt 0.5635 0.7910
vt 0.5635 0.7910
vt 0.5635 0.7910
vt 0.5635 0.7910
vt 0.5635 0.7910
vt 0.5635 0.7910
vt 0.5635 0.7910
vt 0.5635 0.7910
vt 0.5635 0.7910
vt 0.5635 0.7910
vt 0.5635 0.7910
vt 0.5635 0.7910
vt 0.5635 0.7910
vt 0.5635 0.7910
vt 0.5635 0.7910
vt 0.5635 0.7910
vt 0.5635 0.7910
vt 0.5635 0.7910
vt 0.5635 0.7910
vt 0.5635 0.7910
vt 0.5635 0.7910
vt 0.5635 0.7910
vt 0.5635 0.7910
vt 0.5635 0.7910
vt 0.5635 0.7910
vt 0.5635 0.7910
vt 0.5635 0.7910
vt 0.5635 0.7910
vt 0.5635 0.7910
vt 0.5635 0.7910
vt 0.5635 0.7910
vt 0.5635 0.7910
vt 0.5635 0.7910
vt 0.5635 0.7910
vt 0.5635 0.7910
vt 0.5635 0.7910
vt 0.5635 0.7910
vt 0.5635 0.7910
vt 0.5635 0.7910
vt 0.5635 0.7910
vt 0.5635 0.7910
vt 0.5635 0.7910
vt 0.5635 0.7910
vt 0.5635 0.7910
vt 0.5635 0.7910
vt 0.5635 0.7910
vt 0.5635 0.7910
vt 0.5635 0.7910
vt 0.5635 0.7910
vn -0.0186 0.7112 0.7027
vn -0.0652 0.8440 0.5324
vn -0.4799 0.7164 0.5065
vn -0.0423 0.9990 -0.0142
vn -0.3439 0.8140 0.4681
vn -0.1443 0.9889 0.0343
vn -0.2357 0.7544 0.6127
vn 0.1258 0.9288 0.3484
vn 0.2418 0.9691 0.0489
vn -0.0953 0.9101 0.4033
vn -0.1251 0.9669 0.2223
vn -0.1268 0.8573 0.4990
vn -0.2568 0.8238 0.5054
vn -0.1694 0.7199 0.6730
vn -0.0097 0.9950 0.0994
vn 0.0629 0.8991 0.4332
vn 0.0677 0.8989 0.4328
vn 0.0632 0.8991 0.4332
vn 0.1634 0.8124 0.5597
vn 0.0684 0.8989 0.4328
vn 0.7195 0.2819 0.6347
vn -0.4943 0.7609 0.4203
vn -0.4094 0.9081 -0.0877
vn -0.2263 0.9620 0.1525
vn -0.2256 0.6070 0.7621
vn -0.5669 0.7279 0.3857
vn 0.1324 0.6668 0.7334
vn 0.2954 0.8351 0.4640
vn 0.1189 0.9838 0.1342
vn 0.1702 0.9849 -0.0332
vn 0.2090 0.9778 -0.0116
vn 0.5832 0.7751 0.2431
vn 0.6195 0.7633 0.1835
vn 0.0474 0.9983 -0.0336
vn 0.2297 0.9517 0.2036
vn -0.5591 0.8254 0.0780
vn -0.4236 0.9055 -0.0264
vn 0.4632 0.8427 0.2743
vn -0.1732 0.9538 0.2457
vn -0.1778 0.9513 0.2518
vn -0.1771 0.9517 0.2509
vn -0.1720 0.9543 0.2442
vn -0.3358 0.4467 0.8293
vn -0.2084 0.9715 0.1125
vn 0.0499 0.8937 0.4459
vn -0.4695 0.5140 0.7180
vn -0.6982 0.5202 0.4918
vn -0.6738 0.6890 0.2670
vn -0.6736 0.6889 0.2677
vn -0.6743 0.6893 0.2648
vn 0.2796 0.8840 0.3748
vn -0.1544 0.9526 0.2622
vn 0.5312 0.7974 0.2862
vn 0.5716 0.7720 0.2780
vn 0.3397 0.9061 0.2521
vn 0.2419 0.9629 0.1198
vn 0.2079 0.7513 0.6264
vn 0.2075 0.7513 0.6265
vn 0.1953 0.7524 0.6291
vn -0.1305 0.9763 0.1729
vn 0.0414 0.9223 0.3844
vn 0.2394 0.9709 0.0014
vn 0.1824 0.8447 0.5031
vn 0.7202 0.6700 0.1800
vn -0.4825 0.8386 0.2529
vn -0.4623 0.8509 0.2495
vn -0.6451 0.7426 -0.1797
vn -0.3352 0.9407 0.0526
vn -0.3611 0.9066 0.2182
vn -0.6172 0.7599 0.2040
vn -0.3359 0.8576 0.3895
vn -0.6745 0.6894 0.2641
vn -0.0156 0.6781 0.7348
vn 0.0330 0.7103 0.7031
vn 0.0668 0.2859 0.9559
vn 0.3554 0.7565 0.5490
vn -0.3481 0.8463 0.4033
vn -0.3492 0.6232 0.6998
vn 0.0103 0.7402 0.6724
vn 0.7589 0.4277 0.4911
vn 0.7055 0.5996 0.3778
vn 0.2934 0.7980 0.5265
vn 0.2092 0.7392 0.6402
vn -0.1618 0.0708 0.9843
vn 0.6687 0.4173 0.6154
vn 0.5796 0.5603 0.5917
vn 0.6251 0.7512 0.2120
vn 0.1942 0.7525 0.6293
vn 0.2832 0.8935 0.3486
vn 0.0875 0.9231 0.3745
vn 0.2860 0.9582 -0.0085
vn -0.7864 0.6023 0.1374
vn -0.8784 0.3922 -0.2731
vn -0.3592 0.9036 0.2334
vn -0.2401 0.9702 0.0329
vn -0.2137 0.9585 -0.1887
vn -0.5479 0.8364 -0.0157
vn -0.5839 0.8095 -0.0611
vn -0.6928 0.7207 -0.0244
vn -0.7588 0.6305 0.1633
vn -0.7543 0.6154 0.2288
vn -0.8539 0.4852 -0.1884
vn -0.5575 0.8181 -0.1410
vn -0.5624 0.8231 0.0786
vn -0.1417 0.7958 0.5888
vn -0.3982 0.9093 0.1211
vn 0.2227 0.9646 -0.1414
vn -0.0050 0.9859 -0.1673
vn 0.7527 0.5961 -0.2796
vn 0.4309 0.8604 -0.2721
vn 0.8255 0.5536 0.1101
vn 0.8262 0.5528 0.1088
vn 0.8252 0.5539 0.1105
vn 0.8265 0.5525 0.1083
vn 0.2282 0.9579 -0.1743
vn 0.1400 0.9820 -0.1271
vn 0.1390 0.9823 -0.1252
vn 0.1441 0.9803 -0.1354
vn 0.1446 0.9800 -0.1364
vn 0.4704 0.8785 0.0838
vn 0.4547 0.8760 -0.1607
vn 0.5597 0.7608 -0.3285
vn 0.1993 0.9795 0.0310
vn 0.6159 0.7878 0.0065
vn 0.7812 0.6129 -0.1189
vn 0.0778 0.9933 -0.0852
vn 0.0000 1.0000 0.0000
vn -0.5019 0.8649 0.0040
vn -0.4157 0.8807 0.2270
vn -0.5038 0.8461 0.1743
vn -0.3697 0.8581 -0.3563
vn -0.3984 0.9067 -0.1386
vn -0.5800 0.7985 -0.1612
vn -0.9372 0.2247 -0.2667
vn -0.5646 0.7275 -0.3897
vn -0.5801 0.7145 -0.3911
vn -0.3159 0.8051 -0.5020
vn -0.1424 0.7331 -0.6650
vn -0.0963 0.5423 -0.8347
vn -0.1922 0.4696 -0.8617
vn 0.2551 0.7262 -0.6385
vn 0.7861 0.5202 -0.3338
vn 0.7859 0.5114 -0.3475
vn 0.4459 0.5485 -0.7073
vn 0.3230 0.4330 -0.8415
vn 0.1726 0.8449 -0.5064
vn 0.3814 0.9214 0.0751
vn 0.3456 0.8520 -0.3933
vn 0.4217 0.9035 0.0762
vn 0.2161 0.9110 -0.3511
vn 0.6574 0.6430 -0.3929
vn 0.4623 0.8867 0.0015
vn 0.3912 0.8804 -0.2681
vn 0.0327 0.9979 0.0556
vn -0.5347 0.7100 -0.4583
vn -0.3660 0.8411 -0.3982
vn -0.0218 0.9939 0.1082
vn -0.1073 0.9930 0.0496
vn -0.4729 0.8038 -0.3610
vn -0.3278 0.8594 -0.3923
vn -0.7409 0.5476 -0.3888
vn -0.3547 0.8408 -0.4088
vn -0.6755 0.7311 0.0960
vn -0.4448 0.7232 -0.5284
vn -0.7660 0.5368 -0.3536
vn -0.0742 0.8596 -0.5056
vn -0.0042 0.7980 -0.6026
vn -0.1133 0.5189 -0.8473
vn 0.0168 0.7265 -0.6870
vn 0.4953 0.1859 -0.8486
vn 0.1559 0.8567 -0.4918
vn 0.5164 0.4400 -0.7347
vn 0.1985 0.7260 -0.6584
vn 0.4249 0.6382 -0.6420
vn 0.2448 0.3168 -0.9164
vn 0.2467 0.8356 -0.4908
vn 0.2476 0.8349 -0.4916
vn 0.2499 0.8330 -0.4937
vn 0.1987 0.8604 -0.4693
vn 0.3316 0.9347 -0.1280
vn 0.7849 0.6002 -0.1536
vn 0.3931 0.8779 -0.2733
vn 0.2279 0.9465 -0.2286
vn -0.2310 0.9567 -0.1768
vn -0.5830 0.3310 -0.7420
vn 0.0012 0.9975 0.0705
vn -0.1230 0.9763 -0.1781
vn 0.0231 0.7114 -0.7024
vn -0.2816 0.9435 -0.1749
vn -0.0548 0.7184 -0.6934
vn -0.0537 0.7172 -0.6948
vn -0.0581 0.7219 -0.6895
vn 0.1045 0.8541 -0.5095
vn 0.2986 0.9544 -0.0031
vn 0.0952 0.8348 -0.5423
vn 0.3152 0.9320 -0.1790
vn -0.1148 0.7812 -0.6137
vn 0.5038 0.5368 -0.6768
vn 0.2507 0.8323 -0.4945
vn -0.1031 0.9883 -0.1127
vn -0.0165 0.9854 -0.1693
vn 0.2973 0.9407 -0.1634
vn 0.3478 0.8860 -0.3068
vn 0.1164 0.9185 -0.3780
vn 0.5225 0.7350 -0.4322
vn 0.1838 0.8896 -0.4182
vn -0.0593 0.7232 -0.6881
vn -0.2000 0.7632 -0.6145
vn -0.1836 0.7398 -0.6473
vn -0.3805 0.7839 -0.4907
vn 0.0256 0.9860 0.1650
vn 0.1749 0.7507 -0.6371
vn 0.1816 0.7502 -0.6357
vn 0.1748 0.7507 -0.6371
vn 0.1819 0.7502 -0.6357
vn 0.5023 0.1874 -0.8441
vn 0.0256 0.3183 -0.9476
vn 0.2931 -0.5055 0.8115
vn -0.7426 -0.5807 -0.3336
vn 0.0223 -0.5637 -0.8257
vn -0.0222 -0.5385 0.8423
vn 0.6180 -0.5639 0.5479
vn 0.6186 -0.5639 0.5471
vn -0.8032 -0.5521 -0.2238
vn 0.8031 -0.5831 -0.1222
vn 0.5718 -0.5867 -0.5735
vn -0.4919 -0.6051 -0.6260
vn 0.3621 -0.4360 -0.8239
vn -0.2936 -0.5755 0.7633
vn -0.5580 -0.5846 0.5890
vn 0.6193 -0.5640 0.5463
vn -0.6146 -0.5909 0.5226
vn -0.7973 -0.5932 0.1112
vn 0.7806 -0.5938 0.1952
vn -0.7590 -0.5243 0.3859
vn -0.8155 -0.5053 0.2821
vn -0.5976 -0.6168 -0.5122
vn -0.2237 -0.5723 -0.7889
vn 0.4197 -0.5714 -0.7053
vn -0.0000 -1.0000 -0.0000
usemtl None
s 1
f 1/1/1 2/2/1 3/3/1
f 1/1/2 3/3/2 4/4/2
f 5/5/3 6/6/3 7/7/3
f 8/8/4 9/9/4 10/10/4
f 6/6/5 8/8/5 7/7/5
f 7/7/6 8/8/6 10/10/6
f 6/6/7 11/11/7 8/8/7
f 8/8/8 11/11/8 1/1/8
f 8/8/9 1/1/9 9/9/9
f 9/9/10 4/4/10 12/12/10
f 9/9/11 12/12/11 13/13/11
f 1/1/12 4/4/12 9/9/12
f 4/4/13 14/14/13 12/12/13
f 3/3/14 14/14/14 4/4/14
f 12/12/15 14/14/15 15/15/15
f 3/3/16 2/2/17 16/16/18
f 3/3/19 16/16/19 14/14/19
f 2/2/17 17/17/20 16/16/18
f 17/17/21 2/2/21 18/18/21
f 19/19/22 5/5/22 20/20/22
f 5/5/23 7/7/23 10/10/23
f 10/10/24 9/9/24 13/13/24
f 13/13/25 12/12/25 21/21/25
f 13/13/26 21/21/26 22/22/26
f 12/12/27 15/15/27 21/21/27
f 21/21/28 15/15/28 23/23/28
f 14/14/29 16/16/29 15/15/29
f 16/16/30 17/17/30 24/24/30
f 15/15/31 16/16/31 24/24/31
f 17/17/32 18/18/32 25/25/32
f 25/25/33 18/18/33 26/26/33
f 24/24/34 17/17/34 25/25/34
f 18/18/35 27/27/35 26/26/35
f 19/19/36 20/20/36 28/28/36
f 20/20/37 29/29/37 28/28/37
f 20/20/38 5/5/38 29/29/38
f 29/29/39 5/5/40 10/10/41
f 10/10/41 22/22/42 29/29/39
f 29/29/43 22/22/43 30/30/43
f 10/10/44 13/13/44 22/22/44
f 22/22/45 31/31/45 30/30/45
f 22/22/46 21/21/46 32/32/46
f 31/31/47 22/22/47 32/32/47
f 31/31/48 32/32/49 33/33/50
f 21/21/51 23/23/51 34/34/51
f 21/21/52 34/34/52 32/32/52
f 23/23/53 15/15/53 35/35/53
f 35/35/54 15/15/54 36/36/54
f 15/15/55 37/37/55 36/36/55
f 15/15/56 24/24/56 37/37/56
f 36/36/57 37/37/58 38/38/59
f 24/24/60 25/25/60 37/37/60
f 26/26/61 39/39/61 37/37/61
f 25/25/62 26/26/62 37/37/62
f 26/26/63 27/27/63 40/40/63
f 27/27/64 41/41/64 40/40/64
f 29/29/65 42/42/65 28/28/65
f 29/29/66 30/30/66 42/42/66
f 28/28/67 42/42/67 43/43/67
f 42/42/68 30/30/68 31/31/68
f 42/42/69 31/31/69 44/44/69
f 33/33/70 32/32/70 45/45/70
f 32/32/71 46/46/71 45/45/71
f 31/31/48 33/33/50 44/44/72
f 32/32/73 34/34/73 46/46/73
f 34/34/74 47/47/74 46/46/74
f 46/46/75 47/47/75 48/48/75
f 48/48/76 49/49/76 50/50/76
f 46/46/77 48/48/77 45/45/77
f 45/45/78 48/48/78 51/51/78
f 23/23/79 47/47/79 34/34/79
f 23/23/80 35/35/80 47/47/80
f 47/47/81 52/52/81 49/49/81
f 48/48/82 47/47/82 49/49/82
f 36/36/83 38/38/83 52/52/83
f 52/52/84 38/38/84 53/53/84
f 35/35/85 52/52/85 47/47/85
f 35/35/86 36/36/86 52/52/86
f 53/53/87 38/38/87 54/54/87
f 37/37/58 39/39/88 38/38/59
f 54/54/89 38/38/89 39/39/89
f 26/26/90 40/40/90 39/39/90
f 39/39/91 40/40/91 55/55/91
f 42/42/92 56/56/92 43/43/92
f 43/43/93 56/56/93 57/57/93
f 42/42/94 44/44/94 56/56/94
f 56/56/95 44/44/95 58/58/95
f 59/59/96 56/56/96 58/58/96
f 33/33/97 60/60/97 44/44/97
f 44/44/98 60/60/98 58/58/98
f 45/45/99 60/60/99 33/33/99
f 60/60/100 45/45/100 51/51/100
f 60/60/101 51/51/101 61/61/101
f 60/60/102 61/61/102 62/62/102
f 58/58/103 60/60/103 63/63/103
f 51/51/104 64/64/104 61/61/104
f 51/51/105 48/48/105 50/50/105
f 51/51/106 50/50/106 64/64/106
f 50/50/107 49/49/107 65/65/107
f 50/50/108 65/65/108 64/64/108
f 49/49/109 66/66/109 67/67/109
f 65/65/110 49/49/110 67/67/110
f 66/66/111 52/52/112 68/68/113
f 49/49/114 52/52/112 66/66/111
f 52/52/115 53/53/115 68/68/115
f 68/68/116 53/53/117 54/54/118
f 68/68/116 54/54/118 69/69/119
f 39/39/120 55/55/120 54/54/120
f 54/54/121 55/55/121 69/69/121
f 69/69/122 55/55/122 70/70/122
f 55/55/123 40/40/123 71/71/123
f 40/40/124 41/41/124 71/71/124
f 41/41/125 72/72/125 71/71/125
f 70/70/126 55/55/126 71/71/126
f 73/73/127 43/43/127 74/74/127
f 43/43/128 57/57/128 74/74/128
f 74/74/129 57/57/129 75/75/129
f 74/74/130 75/75/130 76/76/130
f 56/56/131 59/59/131 57/57/131
f 59/59/132 58/58/132 77/77/132
f 58/58/133 63/63/133 77/77/133
f 60/60/134 62/62/134 63/63/134
f 61/61/135 78/78/135 62/62/135
f 61/61/136 64/64/136 78/78/136
f 64/64/137 65/65/137 78/78/137
f 78/78/138 65/65/138 79/79/138
f 80/80/139 78/78/139 79/79/139
f 62/62/140 78/78/140 80/80/140
f 65/65/141 67/67/141 79/79/141
f 66/66/142 68/68/142 67/67/142
f 67/67/143 68/68/143 81/81/143
f 67/67/144 81/81/144 79/79/144
f 79/79/145 81/81/145 80/80/145
f 80/80/146 81/81/146 82/82/146
f 81/81/147 68/68/147 83/83/147
f 81/81/148 83/83/148 84/84/148
f 68/68/149 69/69/149 83/83/149
f 69/69/150 85/85/150 86/86/150
f 83/83/151 69/69/151 86/86/151
f 69/69/152 70/70/152 87/87/152
f 85/85/153 69/69/153 87/87/153
f 70/70/154 71/71/154 87/87/154
f 76/76/155 88/88/155 89/89/155
f 57/57/156 59/59/156 90/90/156
f 90/90/157 91/91/157 57/57/157
f 57/57/158 91/91/158 75/75/158
f 76/76/159 75/75/159 88/88/159
f 90/90/160 59/59/160 92/92/160
f 77/77/161 62/62/161 92/92/161
f 59/59/162 77/77/162 92/92/162
f 63/63/163 62/62/163 77/77/163
f 62/62/164 93/93/164 94/94/164
f 92/92/165 62/62/165 94/94/165
f 93/93/166 62/62/166 80/80/166
f 93/93/167 80/80/167 82/82/167
f 82/82/168 95/95/168 96/96/168
f 93/93/169 82/82/169 97/97/169
f 97/97/170 82/82/170 96/96/170
f 82/82/171 81/81/171 84/84/171
f 84/84/172 98/98/172 95/95/172
f 82/82/173 84/84/173 95/95/173
f 84/84/174 83/83/174 86/86/174
f 84/84/175 86/86/175 98/98/175
f 98/98/176 86/86/177 99/99/178
f 98/98/179 99/99/179 100/100/179
f 87/87/180 101/101/180 85/85/180
f 101/101/181 87/87/181 102/102/181
f 87/87/182 71/71/182 102/102/182
f 71/71/183 72/72/183 102/102/183
f 75/75/184 91/91/184 88/88/184
f 89/89/185 88/88/185 103/103/185
f 90/90/186 94/94/186 91/91/186
f 91/91/187 94/94/187 88/88/187
f 88/88/188 94/94/188 104/104/188
f 90/90/189 92/92/189 94/94/189
f 94/94/190 93/93/191 97/97/192
f 96/96/193 100/100/193 97/97/193
f 97/97/194 99/99/194 105/105/194
f 97/97/195 100/100/195 99/99/195
f 105/105/196 99/99/196 106/106/196
f 95/95/197 100/100/197 96/96/197
f 95/95/198 98/98/198 100/100/198
f 86/86/177 85/85/199 99/99/178
f 85/85/200 107/107/200 108/108/200
f 99/99/201 85/85/201 108/108/201
f 85/85/202 101/101/202 107/107/202
f 107/107/203 101/101/203 109/109/203
f 107/107/204 109/109/204 108/108/204
f 101/101/205 102/102/205 109/109/205
f 88/88/206 104/104/206 103/103/206
f 94/94/190 97/97/192 104/104/207
f 97/97/208 105/105/208 104/104/208
f 104/104/209 105/105/209 110/110/209
f 110/110/210 105/105/210 106/106/210
f 99/99/211 108/108/211 106/106/211
f 108/108/212 111/111/213 106/106/214
f 108/108/212 109/109/215 111/111/213
f 109/109/216 102/102/216 111/111/216
f 106/106/217 111/111/217 110/110/217
f 11/11/218 112/112/218 1/1/218
f 1/1/218 112/112/218 113/113/218
f 73/73/219 74/74/219 114/114/219
f 114/114/219 74/74/219 115/115/219
f 111/111/220 116/116/220 110/110/220
f 110/110/220 116/116/220 117/117/220
f 2/2/221 1/1/221 118/118/221
f 118/118/221 1/1/221 113/113/221
f 27/27/222 18/18/223 119/119/222
f 119/119/222 18/18/223 120/120/223
f 28/28/224 43/43/224 121/121/224
f 121/121/224 43/43/224 122/122/224
f 72/72/225 41/41/225 123/123/225
f 123/123/225 41/41/225 124/124/225
f 72/72/226 123/123/226 102/102/226
f 102/102/226 123/123/226 125/125/226
f 89/89/227 103/103/227 126/126/227
f 126/126/227 103/103/227 127/127/227
f 103/103/228 104/104/228 127/127/228
f 127/127/228 104/104/228 128/128/228
f 6/6/229 129/129/229 11/11/229
f 11/11/229 129/129/229 112/112/229
f 5/5/230 130/130/230 6/6/230
f 6/6/230 130/130/230 129/129/230
f 2/2/231 118/118/231 18/18/223
f 18/18/223 118/118/231 120/120/223
f 19/19/232 131/131/232 5/5/232
f 5/5/232 131/131/232 130/130/232
f 19/19/233 28/28/233 131/131/233
f 131/131/233 28/28/233 121/121/233
f 41/41/234 27/27/234 124/124/234
f 124/124/234 27/27/234 119/119/234
f 73/73/235 114/114/235 43/43/235
f 43/43/235 114/114/235 122/122/235
f 76/76/236 132/132/236 74/74/236
f 74/74/236 132/132/236 115/115/236
f 76/76/237 89/89/237 132/132/237
f 132/132/237 89/89/237 126/126/237
f 104/104/238 110/110/238 128/128/238
f 128/128/238 110/110/238 117/117/238
f 102/102/239 125/125/239 111/111/239
f 111/111/239 125/125/239 116/116/239
f 113/113/240 112/112/240 133/133/240
f 114/114/240 115/115/240 133/133/240
f 117/117/240 116/116/240 133/133/240
f 118/118/240 113/113/240 133/133/240
f 119/119/240 120/120/240 133/133/240
f 121/121/240 122/122/240 133/133/240
f 123/123/240 124/124/240 133/133/240
f 125/125/240 123/123/240 133/133/240
f 126/126/240 127/127/240 133/133/240
f 127/127/240 128/128/240 133/133/240
f 112/112/240 129/129/240 133/133/240
f 129/129/240 130/130/240 133/133/240
f 120/120/240 118/118/240 133/133/240
f 130/130/240 131/131/240 133/133/240
f 131/131/240 121/121/240 133/133/240
f 124/124/240 119/119/240 133/133/240
f 122/122/240 114/114/240 133/133/240
f 115/115/240 132/132/240 133/133/240
f 132/132/240 126/126/240 133/133/240
f 128/128/240 117/117/240 133/133/240
f 116/116/240 125/125/240 133/133/240
