# Blender v2.78 (sub 0) OBJ File: ''
# www.blender.org
mtllib SM_Env_Lillypads_02.mtl
o SM_Env_Lillypads_02
v 3.683589 3.916625 19.021257
v 3.735609 1.469686 19.033083
v 13.274872 3.916625 17.808512
v 13.274872 1.469686 17.808512
v 8.411713 3.916630 -11.680458
v 4.642720 3.916626 9.560883
v 18.277403 3.916629 -4.191284
v 19.785084 3.916627 7.720201
v 8.411713 1.469691 -11.680458
v 18.277403 1.469689 -4.191284
v 19.785084 1.469687 7.720200
v 4.642720 1.469687 9.560883
v -3.722383 1.469690 -9.193817
v -10.232597 1.469689 0.894478
v -3.722383 3.916629 -9.193817
v -10.232597 3.916628 0.894479
v -8.724917 1.469687 12.805969
v -1.191730 1.469686 18.865938
v -8.724917 3.916626 12.805969
v -1.191730 3.916625 18.865938
v 77.244316 3.420391 66.697723
v 77.278496 1.469678 66.672417
v 81.493500 3.420392 60.267799
v 81.493500 1.469679 60.267799
v 61.134987 3.420394 47.889465
v 72.021812 3.420392 61.203194
v 70.788834 3.420395 45.814148
v 78.775009 3.420394 51.090302
v 61.134987 1.469681 47.889465
v 70.788834 1.469681 45.814148
v 78.775009 1.469681 51.090302
v 72.021812 1.469679 61.203194
v 56.335175 1.469680 56.518806
v 59.053665 1.469678 65.696304
v 56.335175 3.420393 56.518806
v 59.053665 3.420391 65.696304
v 67.039841 1.469677 70.972473
v 74.617722 1.469677 69.565178
v 67.039841 3.420391 70.972473
v 74.617722 3.420391 69.565178
v -39.103344 3.794166 -45.614326
v -39.071663 1.469697 -45.574776
v -31.254622 3.794166 -40.845726
v -31.254622 1.469696 -40.845726
v -17.436832 3.794170 -65.647781
v -32.797199 3.794168 -52.081680
v -14.528645 3.794168 -54.246498
v -20.449657 3.794166 -44.498207
v -17.436832 1.469699 -65.647781
v -14.528645 1.469698 -54.246498
v -20.449657 1.469696 -44.498207
v -32.797199 1.469697 -52.081680
v -27.929419 1.469700 -70.972473
v -38.734390 1.469700 -67.320007
v -27.929419 3.794170 -70.972473
v -38.734390 3.794170 -67.320007
v -44.655392 1.469698 -57.571701
v -42.636627 1.469697 -48.612091
v -44.655392 3.794168 -57.571701
v -42.636627 3.794167 -48.612091
v -28.560863 4.650103 -25.993063
v -28.618090 1.469693 -26.032202
v -40.733849 4.650104 -29.109304
v -40.733849 1.469694 -29.109304
v -48.943592 4.650097 8.859262
v -34.239857 4.650101 -15.015914
v -57.290985 4.650100 -4.906662
v -53.422783 4.650102 -20.025137
v -48.943592 1.469687 8.859261
v -57.290985 1.469690 -4.906662
v -53.422783 1.469692 -20.025137
v -34.239857 1.469691 -15.015915
v -33.088348 1.469687 11.650482
v -20.399420 1.469688 2.566307
v -33.088348 4.650097 11.650483
v -20.399420 4.650098 2.566308
v -16.531210 1.469691 -12.552162
v -22.741955 1.469693 -23.476171
v -16.531210 4.650101 -12.552161
v -22.741955 4.650103 -23.476171
v -81.125488 3.420397 28.937456
v -81.129608 1.469684 28.979784
v -79.200790 3.420396 36.400352
v -79.200790 1.469683 36.400352
v -56.369862 3.420397 29.585573
v -73.547455 3.420397 28.743502
v -61.299221 3.420396 38.141571
v -70.567307 3.420395 40.533112
v -56.369862 1.469684 29.585573
v -61.299221 1.469683 38.141571
v -70.567307 1.469682 40.533112
v -73.547455 1.469684 28.743502
v -59.557999 1.469686 20.240007
v -68.191475 1.469686 16.107256
v -59.557999 3.420399 20.240007
v -68.191475 3.420399 16.107256
v -77.459572 1.469686 18.498789
v -81.493500 1.469685 25.066301
v -77.459572 3.420399 18.498789
v -81.493500 3.420398 25.066301
v 46.989502 3.649723 -32.262566
v 46.942169 1.469694 -32.266907
v 38.661720 3.649723 -30.063971
v 38.661720 1.469694 -30.063971
v 46.423309 3.649719 -4.593102
v 47.254646 3.649722 -23.795065
v 36.830177 3.649720 -10.047188
v 34.098362 3.649721 -20.389334
v 46.423309 1.469690 -4.593102
v 36.830177 1.469690 -10.047188
v 34.098362 1.469692 -20.389334
v 47.254646 1.469693 -23.795065
v 56.846962 1.469690 -8.215637
v 61.410324 1.469692 -17.890280
v 56.846962 3.649719 -8.215637
v 61.410324 3.649721 -17.890280
v 58.678513 1.469694 -28.232405
v 51.313305 1.469694 -32.698547
v 58.678513 3.649723 -28.232405
v 51.313305 3.649723 -32.698547
v -1.456802 14.084487 -5.116987
v 1.107357 5.701129 -6.645972
v 8.257565 12.399036 -7.260054
v 7.413074 4.924730 -8.958472
v 4.629011 10.303201 -28.153975
v 9.828939 8.074509 -22.879660
v 1.029879 2.549413 -23.817884
v 7.372313 2.634385 -21.425497
v 14.353291 10.545980 -11.523497
v 9.784451 3.640342 -15.182266
v -5.280915 3.342048 -21.502417
v -7.647294 4.610229 -15.281554
v -5.695904 8.215806 -23.084181
v -10.788456 12.467932 -19.277990
v -5.220883 5.619031 -9.044509
v -6.404231 10.954477 -9.374647
v 8.439642 8.002938 -15.976874
v 6.919339 7.429554 -21.367369
v 1.050497 7.919364 -23.419233
v -4.075759 8.231934 -21.631918
v -5.736586 8.710056 -16.140875
v 1.423931 9.602314 -9.077743
v -3.423656 9.187246 -11.373702
v 6.460734 9.355179 -10.400901
v 6.885953 9.962696 -21.276648
v 6.984208 12.769568 -16.979650
v 1.297920 13.203877 -22.821529
v -3.335314 10.884703 -21.701628
v -3.588684 13.213065 -17.202015
v -2.322386 11.067165 -12.616285
v 1.785233 13.889851 -11.866400
v 5.995865 11.801812 -11.018499
v 1.271909 7.711005 -15.890830
v 0.852559 0.000003 -17.575531
v 3.765251 0.299893 -14.542061
v -2.479563 0.933389 -14.630089
v 0.885152 1.214803 -11.452919
vt 0.9690 0.5520
vt 0.9690 0.5520
vt 0.9690 0.5520
vt 0.9690 0.5520
vt 0.9690 0.5520
vt 0.9690 0.5520
vt 0.9690 0.5520
vt 0.9690 0.5520
vt 0.9690 0.5520
vt 0.9690 0.5520
vt 0.9690 0.5520
vt 0.9690 0.5520
vt 0.9690 0.5520
vt 0.9690 0.5520
vt 0.9690 0.5520
vt 0.9690 0.5520
vt 0.9690 0.5520
vt 0.9690 0.5520
vt 0.9690 0.5520
vt 0.9690 0.5520
vt 0.9690 0.5520
vt 0.9690 0.5520
vt 0.9690 0.5520
vt 0.9690 0.5520
vt 0.9690 0.5520
vt 0.9690 0.5520
vt 0.9690 0.5520
vt 0.9690 0.5520
vt 0.9690 0.5520
vt 0.9690 0.5520
vt 0.9690 0.5520
vt 0.9690 0.5520
vt 0.9690 0.5520
vt 0.9690 0.5520
vt 0.9690 0.5520
vt 0.9690 0.5520
vt 0.9690 0.5520
vt 0.9690 0.5520
vt 0.9690 0.5520
vt 0.9690 0.5520
vt 0.9690 0.5520
vt 0.9690 0.5520
vt 0.9690 0.5520
vt 0.9690 0.5520
vt 0.9690 0.5520
vt 0.9690 0.5520
vt 0.9690 0.5520
vt 0.9690 0.5520
vt 0.9690 0.5520
vt 0.9690 0.5520
vt 0.9690 0.5520
vt 0.9690 0.5520
vt 0.9690 0.5520
vt 0.9690 0.5520
vt 0.9690 0.5520
vt 0.9690 0.5520
vt 0.9690 0.5520
vt 0.9690 0.5520
vt 0.9690 0.5520
vt 0.9690 0.5520
vt 0.9690 0.5520
vt 0.9690 0.5520
vt 0.9690 0.5520
vt 0.9690 0.5520
vt 0.9690 0.5520
vt 0.9690 0.5520
vt 0.9690 0.5520
vt 0.9690 0.5520
vt 0.9690 0.5520
vt 0.9690 0.5520
vt 0.9690 0.5520
vt 0.9690 0.5520
vt 0.9690 0.5520
vt 0.9690 0.5520
vt 0.9690 0.5520
vt 0.9690 0.5520
vt 0.9690 0.5520
vt 0.9690 0.5520
vt 0.9690 0.5520
vt 0.9690 0.5520
vt 0.9690 0.5520
vt 0.9690 0.5520
vt 0.9690 0.5520
vt 0.9690 0.5520
vt 0.9690 0.5520
vt 0.9690 0.5520
vt 0.9690 0.5520
vt 0.9690 0.5520
vt 0.9690 0.5520
vt 0.9690 0.5520
vt 0.9690 0.5520
vt 0.9690 0.5520
vt 0.9690 0.5520
vt 0.9690 0.5520
vt 0.9690 0.5520
vt 0.9690 0.5520
vt 0.9690 0.5520
vt 0.9690 0.5520
vt 0.9690 0.5520
vt 0.9690 0.5520
vt 0.9690 0.5520
vt 0.9690 0.5520
vt 0.9690 0.5520
vt 0.9690 0.5520
vt 0.9690 0.5520
vt 0.9690 0.5520
vt 0.9690 0.5520
vt 0.9690 0.5520
vt 0.9690 0.5520
vt 0.9690 0.5520
vt 0.9690 0.5520
vt 0.9690 0.5520
vt 0.9690 0.5520
vt 0.9690 0.5520
vt 0.9690 0.5520
vt 0.9690 0.5520
vt 0.9690 0.5520
vt 0.9690 0.5520
vt 0.9690 0.5520
vt 0.9690 0.5520
vt 0.0325 0.7109
vt 0.0325 0.7109
vt 0.0325 0.7109
vt 0.0325 0.7109
vt 0.0325 0.7109
vt 0.0325 0.7109
vt 0.0325 0.7109
vt 0.0325 0.7109
vt 0.0325 0.7109
vt 0.0325 0.7109
vt 0.0325 0.7109
vt 0.0325 0.7109
vt 0.0325 0.7109
vt 0.0325 0.7109
vt 0.0325 0.7109
vt 0.0325 0.7109
vt 0.0325 0.7109
vt 0.0325 0.7109
vt 0.0325 0.7109
vt 0.0325 0.7109
vt 0.0325 0.7109
vt 0.0325 0.7109
vt 0.0325 0.7109
vt 0.0325 0.7109
vt 0.0325 0.7109
vt 0.0325 0.7109
vt 0.0325 0.7109
vt 0.0325 0.7109
vt 0.0325 0.7109
vt 0.0325 0.7109
vt 0.0325 0.7109
vt 0.0325 0.7109
vt 0.0325 0.7109
vt 0.0325 0.7109
vt 0.0325 0.7109
vt 0.0325 0.7109
vt 0.0325 0.7109
vn 0.1264 0.0037 0.9920
vn -0.0000 1.0000 0.0000
vn 0.2217 0.0000 -0.9751
vn 0.6046 0.0000 -0.7965
vn -0.0000 -1.0000 -0.0000
vn 0.9751 0.0000 0.2217
vn 0.9921 -0.0000 -0.1256
vn -0.8402 0.0000 -0.5422
vn -0.9751 0.0000 -0.2217
vn -0.6268 0.0000 0.7792
vn -0.2008 0.0000 -0.9796
vn 0.8402 0.0000 0.5422
vn -0.9921 0.0000 0.1256
vn 0.8472 0.0000 0.5312
vn -0.0329 -0.0210 0.9992
vn -0.9951 -0.0108 -0.0981
vn 0.8348 0.0037 0.5505
vn 0.8348 0.0038 0.5505
vn -0.5952 0.0000 -0.8036
vn -0.2102 0.0000 -0.9777
vn 0.8036 0.0000 -0.5952
vn 0.5512 0.0000 -0.8344
vn -0.9588 0.0000 0.2840
vn -0.8036 0.0000 0.5952
vn 0.1826 0.0000 0.9832
vn -0.8739 0.0000 -0.4861
vn 0.9588 0.0000 -0.2840
vn -0.5512 0.0000 0.8344
vn 0.9550 0.0000 -0.2965
vn 0.7365 -0.0210 0.6761
vn -0.7229 -0.0108 0.6909
vn -0.5184 0.0037 0.8551
vn -0.5184 0.0038 0.8551
vn 0.7804 0.0000 -0.6253
vn 0.9690 0.0000 -0.2472
vn 0.6253 0.0000 0.7804
vn 0.8547 0.0000 0.5191
vn -0.3202 0.0000 -0.9473
vn -0.6253 0.0000 -0.7804
vn -0.9755 0.0000 0.2198
vn 0.4525 0.0000 -0.8917
vn 0.3202 0.0000 0.9473
vn -0.8547 0.0000 -0.5191
vn 0.3326 0.0000 0.9431
vn -0.6476 -0.0210 0.7617
vn -0.6476 -0.0211 0.7617
vn -0.7179 -0.0108 -0.6961
vn 0.2471 0.0037 -0.9690
vn 0.2471 0.0038 -0.9690
vn -0.5646 -0.0000 0.8253
vn -0.8551 0.0000 0.5185
vn -0.8253 0.0000 -0.5646
vn -0.9688 0.0000 -0.2479
vn 0.5821 0.0000 0.8131
vn 0.8253 0.0000 0.5646
vn 0.8693 0.0000 -0.4942
vn -0.1734 -0.0000 0.9849
vn -0.5821 0.0000 -0.8131
vn 0.9688 0.0000 0.2479
vn -0.5927 0.0000 -0.8055
vn 0.3979 -0.0210 -0.9172
vn 0.3978 -0.0208 -0.9172
vn 0.8894 -0.0108 0.4570
vn -0.9681 0.0037 0.2506
vn -0.9681 0.0037 0.2507
vn 0.9953 0.0000 0.0968
vn 0.8665 0.0000 0.4992
vn -0.0968 0.0000 0.9953
vn 0.2499 0.0000 0.9683
vn 0.4318 0.0000 -0.9020
vn 0.0968 0.0000 -0.9953
vn -0.8521 0.0000 -0.5234
vn 0.9464 0.0000 -0.3229
vn -0.4318 0.0000 0.9020
vn -0.2499 0.0000 -0.9683
vn -0.4200 0.0000 0.9075
vn -0.9954 -0.0210 0.0936
vn -0.0284 -0.0108 -0.9995
vn -0.2562 0.0038 -0.9666
vn -0.2562 0.0037 -0.9666
vn -0.0911 0.0000 0.9958
vn -0.4942 0.0000 0.8693
vn -0.9958 0.0000 -0.0911
vn -0.9668 0.0000 0.2554
vn 0.9044 0.0000 0.4266
vn 0.9958 0.0000 0.0911
vn 0.5185 0.0000 -0.8551
vn 0.3283 0.0000 0.9446
vn -0.9044 0.0000 -0.4266
vn 0.9668 0.0000 -0.2554
vn -0.9099 0.0000 -0.4148
vn -0.0993 -0.0210 -0.9948
vn 0.9994 -0.0108 -0.0341
vn 0.2400 -0.1685 0.9560
vn 0.2400 -0.1686 0.9560
vn 0.4050 -0.5169 -0.7542
vn 0.8599 -0.4445 -0.2511
vn 0.8598 -0.4446 -0.2511
vn -0.8265 -0.4030 -0.3929
vn -0.8265 -0.4031 -0.3930
vn -0.8265 -0.4030 -0.3930
vn -0.4552 -0.2001 0.8676
vn -0.4552 -0.2002 0.8676
vn -0.3638 -0.3185 -0.8753
vn -0.3638 -0.3184 -0.8754
vn -0.9092 -0.1740 0.3782
vn -0.9091 -0.1741 0.3783
vn 0.6139 -0.4679 0.6357
vn 0.6140 -0.4679 0.6357
vn -0.3230 0.9448 -0.0552
vn -0.0408 0.9151 0.4012
vn -0.0409 0.9151 0.4013
vn 0.0592 0.9259 0.3731
vn 0.5182 0.8533 -0.0577
vn 0.1544 0.7539 -0.6386
vn 0.5742 0.7923 -0.2062
vn 0.5742 0.7923 -0.2061
vn -0.0829 0.6776 -0.7307
vn -0.0829 0.6776 -0.7308
vn -0.1952 0.8741 -0.4449
vn 0.9610 0.1686 -0.2194
vn 0.3207 0.0744 -0.9443
vn -0.3030 0.1007 -0.9476
vn -0.3030 0.1008 -0.9476
vn -0.9079 0.3246 -0.2651
vn -0.4412 0.5620 0.6997
vn -0.4412 0.5619 0.6997
vn -0.7593 0.5252 0.3843
vn 0.1583 0.4476 0.8801
vn 0.9268 0.2980 0.2284
vn 0.9268 0.2981 0.2284
vn -0.6480 0.6443 -0.4061
vn 0.2717 0.7537 0.5984
vn -0.2357 0.7621 0.6031
vn 0.7528 0.6010 -0.2686
vn -0.2269 0.5447 -0.8073
vn 0.7311 0.6728 0.1129
vn 0.3951 0.4781 -0.7844
vn -0.6616 0.7497 0.0120
vn 0.1518 -0.9165 -0.3700
vn 0.3985 -0.9117 -0.1004
vn -0.3150 -0.9069 -0.2799
vn -0.3150 -0.9069 -0.2798
vn -0.5746 -0.8168 -0.0521
vn -0.2439 -0.7033 0.6677
vn -0.4895 -0.7713 0.4068
vn 0.4828 -0.8029 0.3496
vn 0.2101 -0.7726 0.5992
vn 0.2101 -0.7725 0.5992
vn -0.1017 -0.9757 0.1941
usemtl None
s 1
f 1/1/1 2/2/1 3/3/1
f 3/3/1 2/2/1 4/4/1
f 5/5/2 6/6/2 7/7/2
f 7/7/2 6/6/2 8/8/2
f 9/9/3 5/5/3 10/10/4
f 10/10/4 5/5/3 7/7/4
f 11/11/5 12/12/5 10/10/5
f 10/10/5 12/12/5 9/9/5
f 8/8/6 11/11/6 7/7/7
f 7/7/7 11/11/6 10/10/7
f 13/13/8 14/14/9 15/15/8
f 15/15/8 14/14/9 16/16/9
f 17/17/10 18/18/10 19/19/10
f 19/19/10 18/18/10 20/20/10
f 9/9/5 12/12/5 13/13/5
f 13/13/5 12/12/5 14/14/5
f 15/15/11 5/5/3 13/13/11
f 13/13/11 5/5/3 9/9/3
f 16/16/2 6/6/2 15/15/2
f 15/15/2 6/6/2 5/5/2
f 20/20/2 6/6/2 19/19/2
f 19/19/2 6/6/2 16/16/2
f 8/8/2 6/6/2 3/3/2
f 3/3/2 6/6/2 1/1/2
f 4/4/12 11/11/6 3/3/12
f 3/3/12 11/11/6 8/8/6
f 2/2/5 12/12/5 4/4/5
f 4/4/5 12/12/5 11/11/5
f 14/14/5 12/12/5 17/17/5
f 17/17/5 12/12/5 18/18/5
f 16/16/9 14/14/9 19/19/13
f 19/19/13 14/14/9 17/17/13
f 18/18/14 12/12/15 20/20/14
f 20/20/14 12/12/15 6/6/15
f 6/6/15 12/12/15 1/1/16
f 1/1/16 12/12/15 2/2/16
f 21/21/17 22/22/18 23/23/17
f 23/23/17 22/22/18 24/24/17
f 25/25/2 26/26/2 27/27/2
f 27/27/2 26/26/2 28/28/2
f 29/29/19 25/25/19 30/30/20
f 30/30/20 25/25/19 27/27/20
f 31/31/5 32/32/5 30/30/5
f 30/30/5 32/32/5 29/29/5
f 28/28/21 31/31/21 27/27/22
f 27/27/22 31/31/21 30/30/22
f 33/33/23 34/34/24 35/35/23
f 35/35/23 34/34/24 36/36/24
f 37/37/25 38/38/25 39/39/25
f 39/39/25 38/38/25 40/40/25
f 29/29/5 32/32/5 33/33/5
f 33/33/5 32/32/5 34/34/5
f 35/35/26 25/25/19 33/33/26
f 33/33/26 25/25/19 29/29/19
f 36/36/2 26/26/2 35/35/2
f 35/35/2 26/26/2 25/25/2
f 40/40/2 26/26/2 39/39/2
f 39/39/2 26/26/2 36/36/2
f 28/28/2 26/26/2 23/23/2
f 23/23/2 26/26/2 21/21/2
f 24/24/27 31/31/21 23/23/27
f 23/23/27 31/31/21 28/28/21
f 22/22/5 32/32/5 24/24/5
f 24/24/5 32/32/5 31/31/5
f 34/34/5 32/32/5 37/37/5
f 37/37/5 32/32/5 38/38/5
f 36/36/24 34/34/24 39/39/28
f 39/39/28 34/34/24 37/37/28
f 38/38/29 32/32/30 40/40/29
f 40/40/29 32/32/30 26/26/30
f 26/26/30 32/32/30 21/21/31
f 21/21/31 32/32/30 22/22/31
f 41/41/32 42/42/33 43/43/32
f 43/43/32 42/42/33 44/44/32
f 45/45/2 46/46/2 47/47/2
f 47/47/2 46/46/2 48/48/2
f 49/49/34 45/45/34 50/50/35
f 50/50/35 45/45/34 47/47/35
f 51/51/5 52/52/5 50/50/5
f 50/50/5 52/52/5 49/49/5
f 48/48/36 51/51/36 47/47/37
f 47/47/37 51/51/36 50/50/37
f 53/53/38 54/54/39 55/55/38
f 55/55/38 54/54/39 56/56/39
f 57/57/40 58/58/40 59/59/40
f 59/59/40 58/58/40 60/60/40
f 49/49/5 52/52/5 53/53/5
f 53/53/5 52/52/5 54/54/5
f 55/55/41 45/45/34 53/53/41
f 53/53/41 45/45/34 49/49/34
f 56/56/2 46/46/2 55/55/2
f 55/55/2 46/46/2 45/45/2
f 60/60/2 46/46/2 59/59/2
f 59/59/2 46/46/2 56/56/2
f 48/48/2 46/46/2 43/43/2
f 43/43/2 46/46/2 41/41/2
f 44/44/42 51/51/36 43/43/42
f 43/43/42 51/51/36 48/48/36
f 42/42/5 52/52/5 44/44/5
f 44/44/5 52/52/5 51/51/5
f 54/54/5 52/52/5 57/57/5
f 57/57/5 52/52/5 58/58/5
f 56/56/39 54/54/39 59/59/43
f 59/59/43 54/54/39 57/57/43
f 58/58/44 52/52/45 60/60/44
f 60/60/44 52/52/45 46/46/46
f 46/46/46 52/52/45 41/41/47
f 41/41/47 52/52/45 42/42/47
f 61/61/48 62/62/49 63/63/48
f 63/63/48 62/62/49 64/64/48
f 65/65/2 66/66/2 67/67/2
f 67/67/2 66/66/2 68/68/2
f 69/69/50 65/65/50 70/70/51
f 70/70/51 65/65/50 67/67/51
f 71/71/5 72/72/5 70/70/5
f 70/70/5 72/72/5 69/69/5
f 68/68/52 71/71/52 67/67/53
f 67/67/53 71/71/52 70/70/53
f 73/73/54 74/74/55 75/75/54
f 75/75/54 74/74/55 76/76/55
f 77/77/56 78/78/56 79/79/56
f 79/79/56 78/78/56 80/80/56
f 69/69/5 72/72/5 73/73/5
f 73/73/5 72/72/5 74/74/5
f 75/75/57 65/65/50 73/73/57
f 73/73/57 65/65/50 69/69/50
f 76/76/2 66/66/2 75/75/2
f 75/75/2 66/66/2 65/65/2
f 80/80/2 66/66/2 79/79/2
f 79/79/2 66/66/2 76/76/2
f 68/68/2 66/66/2 63/63/2
f 63/63/2 66/66/2 61/61/2
f 64/64/58 71/71/52 63/63/58
f 63/63/58 71/71/52 68/68/52
f 62/62/5 72/72/5 64/64/5
f 64/64/5 72/72/5 71/71/5
f 74/74/5 72/72/5 77/77/5
f 77/77/5 72/72/5 78/78/5
f 76/76/55 74/74/55 79/79/59
f 79/79/59 74/74/55 77/77/59
f 78/78/60 72/72/61 80/80/60
f 80/80/60 72/72/61 66/66/62
f 66/66/62 72/72/61 61/61/63
f 61/61/63 72/72/61 62/62/63
f 81/81/64 82/82/64 83/83/64
f 83/83/64 82/82/64 84/84/65
f 85/85/2 86/86/2 87/87/2
f 87/87/2 86/86/2 88/88/2
f 89/89/66 85/85/66 90/90/67
f 90/90/67 85/85/66 87/87/67
f 91/91/5 92/92/5 90/90/5
f 90/90/5 92/92/5 89/89/5
f 88/88/68 91/91/68 87/87/69
f 87/87/69 91/91/68 90/90/69
f 93/93/70 94/94/71 95/95/70
f 95/95/70 94/94/71 96/96/71
f 97/97/72 98/98/72 99/99/72
f 99/99/72 98/98/72 100/100/72
f 89/89/5 92/92/5 93/93/5
f 93/93/5 92/92/5 94/94/5
f 95/95/73 85/85/66 93/93/73
f 93/93/73 85/85/66 89/89/66
f 96/96/2 86/86/2 95/95/2
f 95/95/2 86/86/2 85/85/2
f 100/100/2 86/86/2 99/99/2
f 99/99/2 86/86/2 96/96/2
f 88/88/2 86/86/2 83/83/2
f 83/83/2 86/86/2 81/81/2
f 84/84/74 91/91/68 83/83/74
f 83/83/74 91/91/68 88/88/68
f 82/82/5 92/92/5 84/84/5
f 84/84/5 92/92/5 91/91/5
f 94/94/5 92/92/5 97/97/5
f 97/97/5 92/92/5 98/98/5
f 96/96/71 94/94/71 99/99/75
f 99/99/75 94/94/71 97/97/75
f 98/98/76 92/92/77 100/100/76
f 100/100/76 92/92/77 86/86/77
f 86/86/77 92/92/77 81/81/78
f 81/81/78 92/92/77 82/82/78
f 101/101/79 102/102/79 103/103/80
f 103/103/80 102/102/79 104/104/79
f 105/105/2 106/106/2 107/107/2
f 107/107/2 106/106/2 108/108/2
f 109/109/81 105/105/81 110/110/82
f 110/110/82 105/105/81 107/107/82
f 111/111/5 112/112/5 110/110/5
f 110/110/5 112/112/5 109/109/5
f 108/108/83 111/111/83 107/107/84
f 107/107/84 111/111/83 110/110/84
f 113/113/85 114/114/86 115/115/85
f 115/115/85 114/114/86 116/116/86
f 117/117/87 118/118/87 119/119/87
f 119/119/87 118/118/87 120/120/87
f 109/109/5 112/112/5 113/113/5
f 113/113/5 112/112/5 114/114/5
f 115/115/88 105/105/81 113/113/88
f 113/113/88 105/105/81 109/109/81
f 116/116/2 106/106/2 115/115/2
f 115/115/2 106/106/2 105/105/2
f 120/120/2 106/106/2 119/119/2
f 119/119/2 106/106/2 116/116/2
f 108/108/2 106/106/2 103/103/2
f 103/103/2 106/106/2 101/101/2
f 104/104/89 111/111/83 103/103/89
f 103/103/89 111/111/83 108/108/83
f 102/102/5 112/112/5 104/104/5
f 104/104/5 112/112/5 111/111/5
f 114/114/5 112/112/5 117/117/5
f 117/117/5 112/112/5 118/118/5
f 116/116/86 114/114/86 119/119/90
f 119/119/90 114/114/86 117/117/90
f 118/118/91 112/112/92 120/120/91
f 120/120/91 112/112/92 106/106/92
f 106/106/92 112/112/92 101/101/93
f 101/101/93 112/112/92 102/102/93
f 121/121/94 122/122/95 123/123/95
f 123/123/95 122/122/95 124/124/94
f 125/125/96 126/126/96 127/127/96
f 127/127/96 126/126/96 128/128/96
f 129/129/97 130/130/98 126/126/97
f 126/126/97 130/130/98 128/128/97
f 131/131/99 132/132/100 133/133/101
f 133/133/101 132/132/100 134/134/101
f 135/135/102 122/122/103 136/136/103
f 136/136/103 122/122/103 121/121/102
f 125/125/104 127/127/105 133/133/104
f 133/133/104 127/127/105 131/131/104
f 134/134/106 132/132/107 136/136/106
f 136/136/106 132/132/107 135/135/106
f 130/130/108 129/129/109 124/124/109
f 124/124/109 129/129/109 123/123/108
f 129/129/110 126/126/110 137/137/110
f 137/137/110 126/126/110 138/138/110
f 126/126/111 125/125/112 138/138/111
f 138/138/111 125/125/112 139/139/111
f 125/125/113 133/133/113 139/139/113
f 139/139/113 133/133/113 140/140/113
f 134/134/114 141/141/114 133/133/114
f 133/133/114 141/141/114 140/140/114
f 121/121/115 142/142/115 136/136/115
f 136/136/115 142/142/115 143/143/115
f 134/134/116 136/136/116 141/141/116
f 141/141/116 136/136/116 143/143/117
f 121/121/118 123/123/119 142/142/119
f 142/142/119 123/123/119 144/144/118
f 123/123/120 129/129/120 144/144/120
f 144/144/120 129/129/120 137/137/120
f 138/138/121 145/145/121 137/137/121
f 137/137/121 145/145/121 146/146/121
f 138/138/122 139/139/122 145/145/122
f 145/145/122 139/139/122 147/147/122
f 140/140/123 148/148/124 139/139/124
f 139/139/124 148/148/124 147/147/124
f 140/140/125 141/141/125 148/148/125
f 148/148/125 141/141/125 149/149/125
f 143/143/126 142/142/127 150/150/127
f 150/150/127 142/142/127 151/151/126
f 143/143/128 150/150/128 141/141/128
f 141/141/128 150/150/128 149/149/128
f 144/144/129 152/152/129 142/142/129
f 142/142/129 152/152/129 151/151/129
f 144/144/130 137/137/131 152/152/130
f 152/152/130 137/137/131 146/146/131
f 146/146/132 145/145/132 153/153/132
f 145/145/133 147/147/133 153/153/133
f 147/147/134 148/148/134 153/153/134
f 148/148/135 149/149/135 153/153/135
f 150/150/136 151/151/136 153/153/136
f 149/149/137 150/150/137 153/153/137
f 151/151/138 152/152/138 153/153/138
f 152/152/139 146/146/139 153/153/139
f 127/127/140 128/128/140 154/154/140
f 130/130/141 155/155/141 128/128/141
f 128/128/141 155/155/141 154/154/141
f 127/127/142 154/154/143 131/131/143
f 131/131/143 154/154/143 156/156/143
f 132/132/144 131/131/144 156/156/144
f 122/122/145 135/135/145 157/157/145
f 132/132/146 156/156/146 135/135/146
f 135/135/146 156/156/146 157/157/146
f 130/130/147 124/124/147 155/155/147
f 122/122/148 157/157/148 124/124/149
f 124/124/149 157/157/148 155/155/148
f 155/155/150 157/157/150 154/154/150
f 154/154/150 157/157/150 156/156/150
