# Blender v2.78 (sub 0) OBJ File: ''
# www.blender.org
mtllib SM_Env_Tree_01.mtl
o SM_Env_Tree_01
v -30.424805 255.465714 -96.530960
v -84.290039 267.589844 -122.202835
v -34.854980 290.355774 -117.652351
v -90.549316 250.336655 -65.640396
v -93.791504 329.152740 -132.024551
v -53.478027 362.360382 -131.397583
v -103.396973 299.647125 -76.674263
v -77.104980 383.025818 -102.765862
v 26.552246 356.931122 -141.565384
v -21.440430 398.184021 -110.484795
v -99.652344 262.538116 -21.755266
v -145.229492 327.218140 -42.484077
v -151.312012 317.025085 24.784294
v -139.055664 373.245148 -39.987671
v -112.080566 340.358398 -69.067810
v -159.094727 440.795044 34.389538
v -140.655762 450.697998 11.555310
v -95.126953 452.994080 -25.981432
v -104.340332 406.989502 -71.927422
v -73.482910 505.458069 -80.389015
v -67.801758 492.272339 3.182209
v -46.507812 518.214966 -24.393957
v -81.021973 444.595520 18.802868
v -35.916992 570.903748 5.885652
v -51.686523 552.462402 -6.577242
v -25.673340 434.846863 -97.388351
v -56.330078 505.305969 -94.137978
v -18.059570 513.213074 -91.368874
v -17.687988 517.908203 -59.873573
v -13.680664 608.153198 12.758766
v 35.880859 574.143250 41.947845
v 23.426758 523.282593 -7.708776
v -23.816406 621.419861 56.553017
v 4.492676 614.035034 55.625587
v -46.965820 585.677734 30.785618
v -40.835938 567.717529 52.556915
v -8.100098 584.842346 71.934425
v -17.908691 469.612610 93.207108
v 15.166016 525.089111 75.150848
v 16.508789 491.841431 67.621727
v 43.481445 528.323975 37.165550
v 45.336426 504.620117 17.030846
v 67.404785 503.059021 32.586933
v 72.137695 470.243469 55.325027
v 71.240234 415.281342 30.482796
v 48.807617 395.933655 83.580818
v 87.917480 416.569580 5.152472
v 80.849121 383.177673 85.273140
v 139.896973 419.355957 39.057503
v 137.862793 414.447998 4.728216
v -3.118164 419.595093 82.448982
v 17.395996 384.130432 97.108467
v 50.957031 362.757629 83.450928
v 57.183594 286.821655 80.861618
v 77.554199 283.876526 87.403793
v 26.187988 347.286621 133.952805
v 3.203613 378.676025 141.565491
v -6.716309 323.936279 137.452682
v 30.114746 276.685059 94.096298
v 39.370117 269.082214 60.247845
v 72.811035 243.126373 50.500710
v 152.135742 402.806335 25.700506
v 137.176270 390.570618 57.424438
v 159.094238 315.803955 34.020802
v 137.729004 304.290161 -39.927990
v 142.595215 259.798218 25.632307
v 146.428223 250.309509 2.053020
v 63.464844 225.660858 -1.592187
v 129.622559 258.613464 -30.993731
v 31.733398 208.269745 -23.200954
v -10.238770 213.995331 36.056370
v 78.380371 264.724640 -54.696552
v -14.420898 264.885193 108.927780
v -70.776367 261.420715 88.026535
v -49.984863 229.804047 51.698952
v -36.444824 220.748810 -50.368618
v -63.877441 227.423340 -4.552819
v -102.072266 259.666809 19.549177
v -102.948242 296.381927 58.383713
v 66.132812 252.077957 -87.604691
v 37.200684 258.370758 -117.806961
v -86.851074 358.425934 69.223755
v -77.755371 297.298370 98.016289
v -55.753906 466.619263 60.207718
v -81.621582 448.729187 39.534618
v -133.323730 449.290039 39.946056
v -44.866211 317.531281 118.595757
v -22.197754 369.288452 127.276855
v -38.692383 346.430908 87.917114
v -25.424805 385.689453 84.625435
v -46.496582 486.138306 74.281334
v 88.421875 300.885162 -67.570015
v 89.269531 277.579895 -92.775528
v 89.878418 346.954712 -97.088867
v 99.215820 380.688843 -55.024475
v 80.786133 420.586731 -79.293877
v 87.850586 397.938202 -33.346920
v 43.921875 284.383728 -133.100296
v 23.123047 305.604828 -130.744217
v 51.851562 381.970154 -107.010124
v 46.734375 449.092773 -67.231613
v 60.767090 485.871307 -42.699142
v -29.271484 0.000000 -16.876343
v -14.777832 80.777710 -11.980089
v 17.178711 0.000000 -31.968323
v 9.396973 80.777710 -19.835070
v -29.271484 0.000000 31.962830
v -14.777832 80.777710 13.439039
v 17.178711 0.000000 47.054810
v 9.396973 80.777710 21.293898
v 45.884766 0.000000 7.543274
v 24.338379 80.777710 0.729444
v 4.340332 0.000000 7.543274
v -3.638672 300.213684 -31.665783
v -22.962402 300.213684 -25.387463
v -8.979492 300.213684 -15.229016
v -22.962402 300.213684 -5.070631
v -3.638672 300.213684 1.207569
v 8.303223 300.213684 -15.229016
v 3.487305 160.084610 1.063991
v -15.834961 160.084610 7.342311
v -15.834961 160.084610 27.658962
v 3.487305 160.084610 33.937222
v 15.429199 160.084610 17.500576
v -15.451660 183.205521 2.750030
v 3.870605 183.205521 -3.528168
v -15.451660 183.205521 23.066681
v 3.870605 183.205505 29.345001
v 48.589355 204.776123 58.439972
v 53.985352 204.813080 52.090302
v 45.251953 212.405853 53.527805
v 50.647949 212.442749 47.178135
v 15.812500 183.205521 12.908416
v 30.460449 171.159424 41.545986
v 38.803711 173.609894 29.823088
v 31.278809 187.562561 23.859650
v 22.935547 185.112213 35.582367
vt 0.8691 0.4165
vt 0.8691 0.4165
vt 0.8691 0.4165
vt 0.8691 0.4165
vt 0.8691 0.4165
vt 0.8691 0.4165
vt 0.8691 0.4165
vt 0.8691 0.4165
vt 0.8691 0.4165
vt 0.8691 0.4165
vt 0.8691 0.4165
vt 0.8691 0.4165
vt 0.8691 0.4165
vt 0.8691 0.4165
vt 0.8691 0.4165
vt 0.8691 0.4165
vt 0.8691 0.4165
vt 0.8691 0.4165
vt 0.8691 0.4165
vt 0.8691 0.4165
vt 0.8691 0.4165
vt 0.8691 0.4165
vt 0.8691 0.4165
vt 0.8691 0.4165
vt 0.8691 0.4165
vt 0.8691 0.4165
vt 0.8691 0.4165
vt 0.8691 0.4165
vt 0.8691 0.4165
vt 0.8691 0.4165
vt 0.8691 0.4165
vt 0.8691 0.4165
vt 0.8691 0.4165
vt 0.8691 0.4165
vt 0.8691 0.4165
vt 0.8691 0.4165
vt 0.8691 0.4165
vt 0.8691 0.4165
vt 0.8691 0.4165
vt 0.8691 0.4165
vt 0.8691 0.4165
vt 0.8691 0.4165
vt 0.8691 0.4165
vt 0.8691 0.4165
vt 0.8691 0.4165
vt 0.8691 0.4165
vt 0.8691 0.4165
vt 0.8691 0.4165
vt 0.8691 0.4165
vt 0.8691 0.4165
vt 0.8691 0.4165
vt 0.8691 0.4165
vt 0.8691 0.4165
vt 0.8691 0.4165
vt 0.8691 0.4165
vt 0.8691 0.4165
vt 0.8691 0.4165
vt 0.8691 0.4165
vt 0.8691 0.4165
vt 0.8691 0.4165
vt 0.8691 0.4165
vt 0.8691 0.4165
vt 0.8691 0.4165
vt 0.8691 0.4165
vt 0.8691 0.4165
vt 0.8691 0.4165
vt 0.8691 0.4165
vt 0.8691 0.4165
vt 0.8691 0.4165
vt 0.8691 0.4165
vt 0.8691 0.4165
vt 0.8691 0.4165
vt 0.8691 0.4165
vt 0.8691 0.4165
vt 0.8691 0.4165
vt 0.8691 0.4165
vt 0.8691 0.4165
vt 0.8691 0.4165
vt 0.8691 0.4165
vt 0.8691 0.4165
vt 0.8691 0.4165
vt 0.8691 0.4165
vt 0.8691 0.4165
vt 0.8691 0.4165
vt 0.8691 0.4165
vt 0.8691 0.4165
vt 0.8691 0.4165
vt 0.8691 0.4165
vt 0.8691 0.4165
vt 0.8691 0.4165
vt 0.8691 0.4165
vt 0.8691 0.4165
vt 0.8691 0.4165
vt 0.8691 0.4165
vt 0.8691 0.4165
vt 0.8691 0.4165
vt 0.8691 0.4165
vt 0.8691 0.4165
vt 0.8691 0.4165
vt 0.8691 0.4165
vt 0.8691 0.4165
vt 0.8691 0.4165
vt 0.9890 0.3176
vt 0.9890 0.3176
vt 0.9890 0.3176
vt 0.9890 0.3176
vt 0.9890 0.3176
vt 0.9890 0.3176
vt 0.9890 0.3176
vt 0.9890 0.3176
vt 0.9890 0.3176
vt 0.9890 0.3176
vt 0.9890 0.3176
vt 0.9890 0.3176
vt 0.9890 0.3176
vt 0.9890 0.3176
vt 0.9890 0.3176
vt 0.9890 0.3176
vt 0.9890 0.3176
vt 0.9890 0.3176
vt 0.9890 0.3176
vt 0.9890 0.3176
vt 0.9890 0.3176
vt 0.9890 0.3176
vt 0.9890 0.3176
vt 0.9890 0.3176
vt 0.9890 0.3176
vt 0.9890 0.3176
vt 0.9890 0.3176
vt 0.9890 0.3176
vt 0.9890 0.3176
vt 0.9890 0.3176
vt 0.9890 0.3176
vt 0.9890 0.3176
vt 0.9890 0.3176
vt 0.9890 0.3176
vt 0.9890 0.3176
vn 0.2922 -0.4678 -0.8341
vn -0.0721 -0.9518 -0.2983
vn 0.1514 -0.1329 -0.9795
vn 0.1394 -0.1508 -0.9787
vn -0.9459 -0.1882 -0.2645
vn -0.4253 0.5301 -0.7336
vn -0.1376 -0.2200 -0.9658
vn -0.2761 0.6567 -0.7018
vn -0.0687 0.5481 -0.8336
vn -0.9385 -0.2874 -0.1915
vn -0.9536 -0.2756 -0.1212
vn -0.7017 -0.6116 -0.3654
vn -0.7815 -0.6026 -0.1620
vn -0.6508 0.1279 -0.7484
vn -0.9883 0.1363 -0.0687
vn -0.8001 0.3208 -0.5069
vn -0.5840 0.4413 -0.6813
vn -0.4250 0.3785 -0.8223
vn -0.9555 -0.1572 -0.2496
vn -0.6283 0.0113 -0.7779
vn -0.9897 0.1184 0.0799
vn -0.9509 0.0979 -0.2937
vn -0.3879 0.5298 -0.7542
vn -0.6796 0.1513 -0.7178
vn -0.9519 0.2898 -0.0993
vn -0.8578 0.4954 0.1365
vn -0.6730 0.7222 0.1597
vn 0.0814 0.9839 0.1589
vn -0.8713 0.3532 0.3407
vn -0.8838 0.3476 0.3130
vn -0.7816 0.2981 0.5479
vn -0.8436 0.1419 -0.5179
vn -0.2122 0.3069 -0.9278
vn -0.0804 0.1815 -0.9801
vn -0.6099 -0.2304 -0.7583
vn 0.0574 0.0709 -0.9958
vn -0.1227 0.9788 -0.1639
vn -0.1893 0.9699 -0.1529
vn -0.1662 0.9756 -0.1435
vn 0.6621 0.4518 -0.5979
vn 0.6968 0.4064 -0.5910
vn -0.6868 0.4610 -0.5619
vn -0.6492 0.4942 -0.5782
vn 0.2385 0.9434 -0.2306
vn 0.1346 0.4733 -0.8706
vn -0.8611 0.2457 0.4451
vn -0.8636 0.2416 0.4425
vn -0.8640 0.2409 0.4420
vn -0.7786 0.5275 -0.3400
vn -0.4099 0.6930 -0.5931
vn 0.1426 0.4351 0.8890
vn -0.5490 0.1124 0.8282
vn -0.5733 0.1957 0.7956
vn 0.2626 0.1535 0.9526
vn 0.5083 0.2424 0.8264
vn 0.6262 0.2381 0.7424
vn 0.8880 -0.0671 0.4548
vn 0.8138 0.4119 -0.4100
vn 0.8880 0.1910 -0.4183
vn 0.6639 0.6495 -0.3706
vn 0.7192 0.0470 0.6932
vn 0.4946 0.5848 -0.6429
vn 0.6386 0.4984 0.5864
vn 0.3516 0.4330 0.8300
vn 0.9892 0.0466 -0.1387
vn 0.9286 -0.1653 0.3321
vn 0.6982 0.5254 0.4864
vn 0.3231 0.8631 0.3882
vn -0.2756 0.8957 0.3490
vn 0.0408 0.9888 -0.1438
vn 0.3019 0.2546 0.9187
vn 0.3008 0.2543 0.9192
vn 0.3016 0.2545 0.9188
vn -0.2299 0.2552 0.9392
vn 0.3886 0.0216 0.9212
vn 0.3004 0.2541 0.9193
vn -0.0557 -0.0075 0.9984
vn -0.3129 -0.0580 0.9480
vn 0.6014 0.6321 0.4886
vn 0.8001 0.5088 0.3178
vn 0.1792 -0.1060 0.9781
vn 0.8893 0.0574 0.4538
vn 0.5189 -0.3982 0.7564
vn 0.3947 -0.4349 0.8093
vn 0.3879 -0.4405 0.8096
vn 0.3936 -0.4359 0.8094
vn 0.4635 -0.8290 0.3129
vn -0.3257 -0.5590 0.7625
vn -0.2748 -0.6276 0.7284
vn 0.7398 0.6585 -0.1380
vn 0.8427 0.2307 0.4864
vn 0.8808 0.1144 0.4595
vn 0.8300 0.0131 -0.5576
vn 0.9490 0.1174 -0.2925
vn 0.3360 0.4838 0.8081
vn -0.0771 0.0239 0.9967
vn 0.4427 0.0045 0.8967
vn 0.5697 -0.0888 0.8171
vn 0.6010 -0.2887 0.7453
vn 0.9415 -0.2423 -0.2343
vn 0.9743 0.2134 0.0725
vn 0.0131 -0.9269 0.3751
vn 0.2798 -0.8878 -0.3654
vn 0.4722 -0.6213 0.6254
vn 0.2641 -0.9278 0.2637
vn 0.3318 -0.9108 0.2458
vn 0.2734 -0.9195 0.2825
vn 0.6205 -0.7047 -0.3441
vn 0.1596 -0.8161 -0.5555
vn -0.0269 -0.3816 0.9240
vn 0.3348 -0.8957 0.2927
vn 0.5155 -0.6884 0.5103
vn -0.1574 -0.8139 0.5593
vn -0.0548 -0.7685 0.6375
vn -0.3573 -0.9333 0.0354
vn -0.1210 -0.9901 0.0718
vn -0.5686 -0.8039 0.1744
vn -0.6431 -0.5636 0.5184
vn -0.6751 -0.7321 -0.0904
vn -0.7112 -0.7014 0.0475
vn -0.2450 -0.7592 -0.6029
vn -0.4451 -0.8849 -0.1376
vn 0.7610 -0.6479 -0.0342
vn 0.2710 -0.8570 -0.4382
vn -0.1702 -0.9851 -0.0254
vn 0.0889 -0.8016 -0.5912
vn -0.1103 -0.8757 -0.4701
vn -0.2348 -0.5250 -0.8180
vn -0.7597 -0.6441 -0.0893
vn -0.6173 -0.5786 0.5331
vn -0.4651 -0.0339 0.8846
vn -0.8386 0.1249 0.5302
vn -0.7057 0.2578 0.6599
vn -0.9739 -0.0440 -0.2225
vn -0.5960 -0.0993 0.7968
vn -0.2615 0.1722 0.9497
vn 0.0109 0.3117 0.9501
vn -0.3360 0.9324 0.1330
vn -0.7735 -0.6256 0.1017
vn -0.3083 -0.3414 0.8879
vn -0.3570 -0.3144 0.8796
vn -0.8019 -0.2999 0.5167
vn 0.3866 -0.4416 0.8097
vn -0.3620 -0.3667 0.8570
vn -0.4449 0.0133 0.8955
vn -0.5111 0.0803 0.8558
vn -0.9132 0.3720 0.1667
vn -0.3485 0.9373 0.0037
vn -0.0719 0.9291 0.3627
vn -0.9238 0.3287 0.1963
vn -0.6211 0.2564 0.7406
vn -0.0793 0.7335 0.6750
vn -0.3196 0.1696 0.9322
vn -0.2878 0.1762 0.9414
vn -0.7659 -0.0952 0.6358
vn -0.5652 -0.0337 0.8243
vn -0.2642 0.2339 0.9357
vn 0.2789 -0.1224 0.9525
vn 0.5953 0.0032 0.8035
vn 0.6483 -0.1432 0.7478
vn -0.4238 0.2604 0.8675
vn 0.0989 0.9948 0.0238
vn 0.0091 0.9807 -0.1953
vn -0.6798 0.1546 0.7169
vn -0.9128 0.1630 0.3743
vn -0.9678 0.2401 -0.0759
vn -0.8607 0.2463 0.4455
vn -0.8252 0.2425 -0.5101
vn 0.8382 -0.2441 -0.4876
vn 0.4866 -0.2501 -0.8371
vn 0.3455 -0.3984 -0.8496
vn 0.7389 -0.6736 -0.0161
vn 0.9588 -0.1917 0.2095
vn 0.9992 -0.0063 0.0394
vn 0.9853 -0.1132 -0.1280
vn 0.9103 0.2000 -0.3625
vn 0.7419 0.2511 -0.6217
vn 0.4840 0.0716 -0.8721
vn 0.1599 0.8116 -0.5619
vn 0.5585 -0.5229 -0.6440
vn 0.4920 -0.5783 -0.6508
vn 0.2458 0.3416 -0.9071
vn 0.6592 -0.0524 -0.7501
vn -0.2044 -0.4563 -0.8660
vn -0.1980 -0.0856 -0.9765
vn -0.1677 -0.1926 -0.9668
vn 0.8486 -0.1628 -0.5033
vn 0.3725 0.1448 -0.9167
vn 0.4621 0.2618 -0.8473
vn 0.1286 0.5128 -0.8488
vn 0.1291 0.5132 -0.8485
vn 0.1306 0.5146 -0.8474
vn 0.5196 0.4646 -0.7171
vn 0.0300 0.6235 -0.7812
vn 0.3002 0.3514 -0.8868
vn 0.3785 0.0343 -0.9250
vn 0.0586 0.9873 -0.1479
vn 0.1311 0.5150 -0.8471
vn 0.7124 0.5615 -0.4209
vn -0.1543 0.5883 -0.7937
vn 0.0345 0.8996 -0.4354
vn 0.9508 0.2783 -0.1363
vn 0.9273 0.3534 -0.1232
vn 0.9211 0.3089 0.2371
vn 0.6815 0.7298 -0.0530
vn 0.6647 0.5830 0.4673
vn 0.2330 0.9434 -0.2359
vn 0.9941 0.0458 -0.0981
vn -0.3070 0.1124 -0.9450
vn -0.3071 0.1124 -0.9450
vn -0.9843 0.1766 0.0000
vn -0.2981 0.2638 0.9174
vn 0.7820 0.2565 0.5681
vn 0.7819 0.2565 0.5681
vn 0.7981 0.1640 -0.5798
vn 0.0000 -1.0000 0.0000
vn 0.0000 1.0000 0.0000
vn -0.3013 0.2219 -0.9273
vn -0.9999 -0.0133 0.0000
vn -0.3044 -0.1720 0.9369
vn 0.8086 -0.0334 0.5875
vn 0.7909 0.2104 -0.5746
vn -0.3039 -0.1807 -0.9354
vn -0.9999 0.0166 0.0000
vn -0.3034 0.1905 0.9336
vn 0.6076 0.6005 0.5198
vn 0.8023 -0.1291 -0.5829
vn 0.8022 -0.1291 -0.5829
vn -0.3025 0.2045 0.9310
vn -0.9979 -0.0641 0.0000
vn -0.2999 -0.2412 -0.9230
vn 0.8058 -0.0891 -0.5854
vn 0.7943 0.1898 0.5771
vn 0.3140 -0.9216 0.2282
vn 0.4440 -0.8864 0.1307
vn 0.5358 -0.1730 -0.8264
vn 0.5836 -0.0321 -0.8114
vn -0.0804 0.9950 -0.0584
vn -0.2747 0.9615 0.0055
vn -0.3376 0.1888 0.9222
vn -0.3231 0.2192 0.9206
vn 0.7018 -0.6073 0.3725
vn 0.6153 -0.5929 0.5195
vn 0.7387 0.1145 -0.6642
vn 0.7919 -0.0457 -0.6090
vn -0.6118 0.7395 -0.2808
vn -0.5279 0.7238 -0.4444
vn -0.6527 -0.0284 0.7571
vn -0.7136 0.1310 0.6882
usemtl None
s 1
f 1/1/1 2/2/1 3/3/1
f 1/1/2 4/4/2 2/2/2
f 3/3/3 2/2/3 5/5/3
f 3/3/4 5/5/4 6/6/4
f 2/2/5 7/7/5 5/5/5
f 6/6/6 5/5/6 8/8/6
f 9/9/7 3/3/7 6/6/7
f 10/10/8 6/6/8 8/8/8
f 9/9/9 6/6/9 10/10/9
f 4/4/10 7/7/10 2/2/10
f 4/4/11 11/11/11 7/7/11
f 7/7/12 11/11/12 12/12/12
f 11/11/13 13/13/13 12/12/13
f 12/12/14 14/14/14 15/15/14
f 12/12/15 13/13/15 14/14/15
f 14/14/16 16/16/16 17/17/16
f 18/18/17 14/14/17 17/17/17
f 15/15/18 14/14/18 18/18/18
f 7/7/19 15/15/19 5/5/19
f 7/7/20 12/12/20 15/15/20
f 15/15/21 18/18/21 19/19/21
f 5/5/22 15/15/22 19/19/22
f 5/5/23 19/19/23 8/8/23
f 8/8/24 19/19/24 20/20/24
f 19/19/25 18/18/25 20/20/25
f 20/20/26 18/18/26 21/21/26
f 20/20/27 21/21/27 22/22/27
f 18/18/28 17/17/28 23/23/28
f 18/18/29 23/23/29 21/21/29
f 21/21/30 23/23/30 24/24/30
f 25/25/31 21/21/31 24/24/31
f 22/22/32 21/21/32 25/25/32
f 10/10/33 8/8/33 26/26/33
f 8/8/34 20/20/34 26/26/34
f 26/26/35 20/20/35 27/27/35
f 26/26/36 27/27/36 28/28/36
f 27/27/37 20/20/37 22/22/37
f 28/28/38 27/27/38 22/22/38
f 28/28/39 22/22/39 29/29/39
f 29/29/40 30/30/40 31/31/40
f 32/32/41 29/29/41 31/31/41
f 22/22/42 24/24/42 29/29/42
f 29/29/43 24/24/43 30/30/43
f 30/30/44 33/33/44 34/34/44
f 22/22/45 25/25/45 24/24/45
f 35/35/46 36/36/47 33/33/48
f 24/24/49 33/33/49 30/30/49
f 24/24/50 35/35/50 33/33/50
f 34/34/51 33/33/51 37/37/51
f 33/33/52 36/36/52 37/37/52
f 37/37/53 36/36/53 38/38/53
f 37/37/54 38/38/54 39/39/54
f 34/34/55 37/37/55 39/39/55
f 34/34/56 39/39/56 31/31/56
f 31/31/57 39/39/57 40/40/57
f 32/32/58 41/41/58 42/42/58
f 32/32/59 31/31/59 41/41/59
f 30/30/60 34/34/60 31/31/60
f 31/31/61 40/40/61 41/41/61
f 42/42/62 41/41/62 43/43/62
f 43/43/63 41/41/63 44/44/63
f 41/41/64 40/40/64 44/44/64
f 43/43/65 44/44/65 45/45/65
f 45/45/66 44/44/66 46/46/66
f 45/45/67 46/46/67 47/47/67
f 47/47/68 46/46/68 48/48/68
f 47/47/69 48/48/69 49/49/69
f 47/47/70 49/49/70 50/50/70
f 44/44/71 40/40/72 46/46/73
f 40/40/74 51/51/74 52/52/74
f 46/46/75 52/52/75 53/53/75
f 40/40/72 52/52/76 46/46/73
f 46/46/77 53/53/77 48/48/77
f 53/53/78 54/54/78 55/55/78
f 53/53/79 52/52/79 56/56/79
f 52/52/80 57/57/80 56/56/80
f 56/56/81 57/57/81 58/58/81
f 53/53/82 56/56/82 54/54/82
f 54/54/83 56/56/83 59/59/83
f 56/56/84 58/58/85 59/59/86
f 54/54/87 59/59/87 60/60/87
f 54/54/88 60/60/88 55/55/88
f 55/55/89 60/60/89 61/61/89
f 50/50/90 49/49/90 62/62/90
f 49/49/91 63/63/91 62/62/91
f 62/62/92 63/63/92 64/64/92
f 62/62/93 64/64/93 50/50/93
f 50/50/94 64/64/94 65/65/94
f 49/49/95 48/48/95 63/63/95
f 48/48/96 53/53/96 55/55/96
f 63/63/97 48/48/97 55/55/97
f 63/63/98 55/55/98 64/64/98
f 64/64/99 55/55/99 66/66/99
f 65/65/100 64/64/100 66/66/100
f 65/65/101 66/66/101 67/67/101
f 66/66/102 55/55/102 67/67/102
f 67/67/103 68/68/103 69/69/103
f 55/55/104 61/61/104 67/67/104
f 67/67/105 61/61/105 68/68/105
f 68/68/106 61/61/106 70/70/106
f 70/70/107 61/61/107 71/71/107
f 68/68/108 70/70/108 72/72/108
f 69/69/109 68/68/109 72/72/109
f 61/61/110 60/60/110 71/71/110
f 59/59/111 73/73/111 60/60/111
f 60/60/112 73/73/112 71/71/112
f 73/73/113 74/74/113 71/71/113
f 71/71/114 74/74/114 75/75/114
f 71/71/115 75/75/115 76/76/115
f 75/75/116 77/77/116 76/76/116
f 75/75/117 78/78/117 77/77/117
f 75/75/118 79/79/118 78/78/118
f 77/77/119 78/78/119 11/11/119
f 77/77/120 11/11/120 4/4/120
f 1/1/121 76/76/121 4/4/121
f 76/76/122 77/77/122 4/4/122
f 72/72/123 70/70/123 80/80/123
f 80/80/124 70/70/124 81/81/124
f 70/70/125 71/71/125 76/76/125
f 70/70/126 76/76/126 1/1/126
f 81/81/127 70/70/127 1/1/127
f 81/81/128 1/1/128 3/3/128
f 11/11/129 78/78/129 13/13/129
f 78/78/130 79/79/130 13/13/130
f 79/79/131 82/82/131 16/16/131
f 79/79/132 83/83/132 82/82/132
f 82/82/133 84/84/133 85/85/133
f 13/13/134 16/16/134 14/14/134
f 13/13/135 79/79/135 16/16/135
f 16/16/136 82/82/136 86/86/136
f 82/82/137 85/85/137 86/86/137
f 16/16/138 86/86/138 17/17/138
f 79/79/139 75/75/139 74/74/139
f 73/73/140 87/87/140 74/74/140
f 74/74/141 87/87/141 83/83/141
f 79/79/142 74/74/142 83/83/142
f 73/73/143 59/59/86 58/58/85
f 73/73/144 58/58/144 87/87/144
f 58/58/145 57/57/145 87/87/145
f 87/87/146 57/57/146 88/88/146
f 87/87/147 88/88/147 89/89/147
f 88/88/148 57/57/148 52/52/148
f 88/88/149 52/52/149 90/90/149
f 89/89/150 88/88/150 90/90/150
f 83/83/151 87/87/151 82/82/151
f 82/82/152 87/87/152 89/89/152
f 82/82/153 89/89/153 84/84/153
f 89/89/154 90/90/154 84/84/154
f 84/84/155 90/90/155 91/91/155
f 90/90/156 38/38/156 91/91/156
f 90/90/157 52/52/157 51/51/157
f 90/90/158 51/51/158 38/38/158
f 38/38/159 51/51/159 40/40/159
f 38/38/160 40/40/160 39/39/160
f 91/91/161 38/38/161 36/36/161
f 17/17/162 86/86/162 23/23/162
f 86/86/163 85/85/163 23/23/163
f 85/85/164 84/84/164 36/36/164
f 84/84/165 91/91/165 36/36/165
f 23/23/166 85/85/166 35/35/166
f 85/85/167 36/36/47 35/35/46
f 24/24/168 23/23/168 35/35/168
f 67/67/169 69/69/169 65/65/169
f 69/69/170 92/92/170 65/65/170
f 69/69/171 72/72/171 92/92/171
f 72/72/172 80/80/172 93/93/172
f 72/72/173 93/93/173 92/92/173
f 92/92/174 93/93/174 94/94/174
f 92/92/175 94/94/175 95/95/175
f 95/95/176 94/94/176 96/96/176
f 65/65/177 95/95/177 50/50/177
f 65/65/178 92/92/178 95/95/178
f 50/50/179 95/95/179 97/97/179
f 81/81/180 98/98/180 80/80/180
f 80/80/181 98/98/181 93/93/181
f 98/98/182 99/99/182 94/94/182
f 93/93/183 98/98/183 94/94/183
f 81/81/184 3/3/184 98/98/184
f 98/98/185 3/3/185 99/99/185
f 99/99/186 3/3/186 9/9/186
f 99/99/187 9/9/187 100/100/187
f 94/94/188 99/99/188 100/100/188
f 94/94/189 100/100/189 96/96/189
f 100/100/190 101/101/191 96/96/192
f 100/100/193 9/9/193 101/101/193
f 9/9/194 10/10/194 101/101/194
f 101/101/195 10/10/195 26/26/195
f 101/101/196 26/26/196 28/28/196
f 28/28/197 29/29/197 32/32/197
f 96/96/192 101/101/191 102/102/198
f 101/101/199 28/28/199 32/32/199
f 101/101/200 32/32/200 102/102/200
f 50/50/201 97/97/201 47/47/201
f 97/97/202 102/102/202 47/47/202
f 95/95/203 96/96/203 102/102/203
f 97/97/204 95/95/204 102/102/204
f 42/42/205 102/102/205 32/32/205
f 47/47/206 102/102/206 45/45/206
f 102/102/207 42/42/207 43/43/207
f 45/45/208 102/102/208 43/43/208
f 103/103/209 104/104/210 105/105/210
f 105/105/210 104/104/210 106/106/210
f 107/107/211 108/108/211 103/103/211
f 103/103/211 108/108/211 104/104/211
f 109/109/212 110/110/212 107/107/212
f 107/107/212 110/110/212 108/108/212
f 109/109/213 111/111/213 110/110/214
f 110/110/214 111/111/213 112/112/214
f 111/111/215 105/105/215 112/112/215
f 112/112/215 105/105/215 106/106/215
f 103/103/216 105/105/216 113/113/216
f 107/107/216 103/103/216 113/113/216
f 109/109/216 107/107/216 113/113/216
f 111/111/216 109/109/216 113/113/216
f 105/105/216 111/111/216 113/113/216
f 114/114/217 115/115/217 116/116/217
f 115/115/217 117/117/217 116/116/217
f 117/117/217 118/118/217 116/116/217
f 118/118/217 119/119/217 116/116/217
f 119/119/217 114/114/217 116/116/217
f 106/106/218 104/104/218 120/120/218
f 120/120/218 104/104/218 121/121/218
f 104/104/219 108/108/219 121/121/219
f 121/121/219 108/108/219 122/122/219
f 108/108/220 110/110/220 122/122/220
f 122/122/220 110/110/220 123/123/220
f 112/112/221 124/124/221 110/110/221
f 110/110/221 124/124/221 123/123/221
f 106/106/222 120/120/222 112/112/222
f 112/112/222 120/120/222 124/124/222
f 121/121/223 125/125/223 120/120/223
f 120/120/223 125/125/223 126/126/223
f 122/122/224 127/127/224 121/121/224
f 121/121/224 127/127/224 125/125/224
f 123/123/225 128/128/225 122/122/225
f 122/122/225 128/128/225 127/127/225
f 129/129/226 130/130/226 131/131/226
f 131/131/226 130/130/226 132/132/226
f 124/124/227 120/120/228 133/133/228
f 133/133/228 120/120/228 126/126/228
f 128/128/229 118/118/229 127/127/229
f 127/127/229 118/118/229 117/117/229
f 127/127/230 117/117/230 125/125/230
f 125/125/230 117/117/230 115/115/230
f 125/125/231 115/115/231 126/126/231
f 126/126/231 115/115/231 114/114/231
f 133/133/232 126/126/232 119/119/232
f 119/119/232 126/126/232 114/114/232
f 128/128/233 133/133/233 118/118/233
f 118/118/233 133/133/233 119/119/233
f 123/123/234 124/124/234 134/134/234
f 134/134/235 124/124/235 135/135/235
f 124/124/236 133/133/236 135/135/236
f 135/135/237 133/133/237 136/136/237
f 128/128/238 137/137/238 133/133/238
f 133/133/239 137/137/239 136/136/239
f 123/123/240 134/134/240 128/128/240
f 128/128/241 134/134/241 137/137/241
f 135/135/242 130/130/242 134/134/242
f 134/134/243 130/130/243 129/129/243
f 135/135/244 136/136/244 130/130/244
f 130/130/245 136/136/245 132/132/245
f 136/136/246 137/137/246 132/132/246
f 132/132/247 137/137/247 131/131/247
f 134/134/248 129/129/248 137/137/248
f 137/137/249 129/129/249 131/131/249
