# This file uses centimeters as units for non-parametric coordinates.

v 0.000122 0.000000 -0.000122
v 300.000122 0.000000 -0.000122
v 0.000122 0.000000 -300.000122
v 300.000122 0.000000 -300.000122
v 150.773071 0.000000 -300.000122
v 150.773071 0.000000 -0.000122
v 0.000122 0.000000 -150.772949
v 150.773071 0.000000 -150.772949
v 300.000122 0.000000 -150.772949
v 75.386719 0.000000 -300.000122
v 75.386719 0.000000 -150.772949
v 75.386719 0.000000 -0.000122
v 226.159302 0.000000 -300.000122
v 226.159302 0.000000 -150.772949
v 226.159302 0.000000 -0.000122
v 300.000122 0.000000 -75.386597
v 226.159302 0.000000 -75.386597
v 150.773071 0.000000 -75.386597
v 75.386719 0.000000 -75.386597
v 0.000122 0.000000 -75.386597
v 300.000122 0.000000 -226.159424
v 226.159302 0.000000 -226.159424
v 150.773071 0.000000 -226.159424
v 75.386719 0.000000 -226.159424
v 0.000122 0.000000 -226.159424
v 75.386719 0.000000 -167.784790
v 81.982910 0.000000 -150.772949
v 83.909790 0.000000 -177.997314
v 93.628052 0.000000 -167.972656
v 93.460083 0.000000 -157.770996
v 150.773071 0.000000 -137.581665
v 150.773071 0.000000 -103.474976
v 137.769043 0.000000 -108.355469
v 141.198364 0.000000 -128.311157
v 161.959961 0.000000 -136.051758
v 169.109497 0.000000 -118.107544
v 171.184692 0.000000 -102.878906
v 161.746216 0.000000 -98.391113
v 226.159302 0.000000 -217.494507
v 226.159302 0.000000 -186.679688
v 215.068359 0.000000 -197.144897
v 216.756958 0.000000 -210.991455
v 235.685181 0.000000 -219.480591
v 243.833130 0.000000 -213.399902
v 243.795532 0.000000 -199.691040
v 233.422119 0.000000 -188.648804
v 239.048096 0.000000 -105.842285
v 239.048096 0.000000 -99.379028
v 248.577393 0.000000 -109.400391
v 251.931763 0.000000 -105.623657
v 249.358643 0.000000 -96.669189
v 158.985962 0.000000 -53.069092
v 158.985962 0.000000 -47.892456
v 153.599731 0.000000 -43.724243
v 146.196411 0.000000 -50.014404
v 151.025635 0.000000 -56.998657
v 226.159302 0.000000 -164.893311
v 218.156738 0.000000 -150.772949
v 215.361938 0.000000 -170.680420
v 201.537354 0.000000 -167.737671
v 204.739014 0.000000 -156.718018
v 119.383301 0.000000 -86.275757
v 112.101074 0.000000 -86.275757
v 106.776611 0.000000 -91.843872
v 110.562012 0.000000 -97.856934
v 120.152710 0.000000 -99.575562
v 123.788452 0.000000 -92.327026
v 232.096558 0.000000 -65.511108
v 232.096558 0.000000 -51.720337
v 225.675171 0.000000 -49.165649
v 222.896362 0.000000 -60.310669
v 236.379272 0.000000 -59.034302
v 166.882813 0.000000 -263.640869
v 166.882813 0.000000 -246.762817
v 158.426392 0.000000 -250.210571
v 158.225098 0.000000 -260.439209
v 172.346191 0.000000 -254.482056
vt 0.965869 0.451418
vt 0.965869 0.451418
vt 0.965869 0.451418
vt 0.965869 0.451418
vt 0.965869 0.451418
vt 0.965869 0.451418
vt 0.965869 0.451418
vt 0.965869 0.451418
vt 0.965869 0.451418
vt 0.965869 0.451418
vt 0.965869 0.451418
vt 0.965869 0.451418
vt 0.965869 0.451418
vt 0.965869 0.451418
vt 0.965869 0.451418
vt 0.965869 0.451418
vt 0.965869 0.451418
vt 0.965869 0.451418
vt 0.965869 0.451418
vt 0.965869 0.451418
vt 0.965869 0.451418
vt 0.965869 0.451418
vt 0.965869 0.451418
vt 0.965869 0.451418
vt 0.965869 0.451418
vt 0.965869 0.451418
vt 0.965869 0.451418
vt 0.965869 0.451418
vt 0.965869 0.451418
vt 0.965869 0.451418
vt 0.965869 0.451418
vt 0.965869 0.451418
vt 0.965869 0.451418
vt 0.965869 0.451418
vt 0.965869 0.451418
vt 0.965869 0.451418
vt 0.965869 0.451418
vt 0.965869 0.451418
vt 0.965869 0.451418
vt 0.965869 0.451418
vt 0.965869 0.451418
vt 0.965869 0.451418
vt 0.965869 0.451418
vt 0.965869 0.451418
vt 0.965869 0.451418
vt 0.965869 0.451418
vt 0.965869 0.451418
vt 0.965869 0.451418
vt 0.965869 0.451418
vt 0.965869 0.451418
vt 0.965869 0.451418
vt 0.942046 0.456171
vt 0.942046 0.456171
vt 0.942046 0.456171
vt 0.942046 0.456171
vt 0.942046 0.456171
vt 0.942046 0.456171
vt 0.942046 0.456171
vt 0.942046 0.456171
vt 0.942046 0.456171
vt 0.942046 0.456171
vt 0.942046 0.456171
vt 0.942046 0.456171
vt 0.942046 0.456171
vt 0.942046 0.456171
vt 0.942046 0.456171
vt 0.942046 0.456171
vt 0.942046 0.456171
vt 0.942046 0.456171
vt 0.942046 0.456171
vt 0.942046 0.456171
vt 0.942046 0.456171
vt 0.942046 0.456171
vt 0.942046 0.456171
vt 0.942046 0.456171
vt 0.942046 0.456171
vt 0.942046 0.456171
vt 0.942046 0.456171
vt 0.965869 0.451418
vt 0.942046 0.456171
vt 0.942046 0.456171
vt 0.942046 0.456171
vt 0.942046 0.456171
vt 0.965869 0.451418
vt 0.942046 0.456171
vt 0.965869 0.451418
vt 0.965869 0.451418
vt 0.965869 0.451418
vt 0.965869 0.451418
vt 0.965869 0.451418
vt 0.965869 0.451418
vt 0.965869 0.451418
vt 0.965869 0.451418
vt 0.965869 0.451418
vt 0.965869 0.451418
vt 0.965869 0.451418
vt 0.965869 0.451418
vt 0.965869 0.451418
vt 0.965869 0.451418
vt 0.965869 0.451418
vt 0.965869 0.451418
vt 0.965869 0.451418
vt 0.965869 0.451418
vt 0.965869 0.451418
vt 0.967990 0.502381
vt 0.967990 0.502381
vt 0.967990 0.502381
vt 0.967990 0.502381
vt 0.967990 0.502381
vt 0.967990 0.502381
vt 0.967990 0.502381
vt 0.967990 0.502381
vt 0.967990 0.502381
vt 0.967990 0.502381
vt 0.967990 0.502381
vt 0.967990 0.502381
vt 0.967990 0.502381
vt 0.967990 0.502381
vt 0.967990 0.502381
vt 0.967990 0.502381
vt 0.967990 0.502381
vt 0.965869 0.451418
vt 0.965869 0.451418
vt 0.965869 0.451418
vt 0.965869 0.451418
vt 0.965869 0.451418
vt 0.967990 0.502381
vt 0.967990 0.502381
vt 0.967990 0.502381
vt 0.967990 0.502381
vt 0.967990 0.502381
vn -0.000000 1.000000 0.000000
vn -0.000000 1.000000 0.000000
vn -0.000000 1.000000 0.000000
vn 0.000000 1.000000 -0.000000
vn 0.000000 1.000000 -0.000000
vn 0.000000 1.000000 -0.000000
vn 0.000000 1.000000 -0.000000
vn 0.000000 1.000000 -0.000000
vn 0.000000 1.000000 -0.000000
vn 0.000000 1.000000 0.000000
vn 0.000000 1.000000 0.000000
vn 0.000000 1.000000 0.000000
vn 0.000000 1.000000 0.000000
vn 0.000000 1.000000 0.000000
vn 0.000000 1.000000 0.000000
vn 0.000000 1.000000 0.000000
vn 0.000000 1.000000 0.000000
vn 0.000000 1.000000 0.000000
vn 0.000000 1.000000 0.000000
vn 0.000000 1.000000 0.000000
vn 0.000000 1.000000 0.000000
vn 0.000000 1.000000 0.000000
vn 0.000000 1.000000 0.000000
vn 0.000000 1.000000 0.000000
vn -0.000000 1.000000 0.000000
vn -0.000000 1.000000 0.000000
vn -0.000000 1.000000 0.000000
vn 0.000000 1.000000 0.000000
vn 0.000000 1.000000 0.000000
vn 0.000000 1.000000 0.000000
vn -0.000000 1.000000 0.000000
vn -0.000000 1.000000 0.000000
vn -0.000000 1.000000 0.000000
vn 0.000000 1.000000 -0.000000
vn 0.000000 1.000000 -0.000000
vn 0.000000 1.000000 -0.000000
vn 0.000000 1.000000 -0.000000
vn 0.000000 1.000000 -0.000000
vn 0.000000 1.000000 -0.000000
vn 0.000000 1.000000 0.000000
vn 0.000000 1.000000 0.000000
vn 0.000000 1.000000 0.000000
vn 0.000000 1.000000 0.000000
vn 0.000000 1.000000 0.000000
vn 0.000000 1.000000 0.000000
vn 0.000000 1.000000 0.000000
vn 0.000000 1.000000 0.000000
vn 0.000000 1.000000 0.000000
vn 0.000000 1.000000 -0.000000
vn 0.000000 1.000000 -0.000000
vn 0.000000 1.000000 -0.000000
vn 0.000000 1.000000 0.000000
vn 0.000000 1.000000 0.000000
vn 0.000000 1.000000 0.000000
vn -0.000000 1.000000 0.000000
vn -0.000000 1.000000 0.000000
vn -0.000000 1.000000 0.000000
vn -0.000000 1.000000 0.000000
vn -0.000000 1.000000 0.000000
vn -0.000000 1.000000 0.000000
vn -0.000000 1.000000 -0.000000
vn -0.000000 1.000000 -0.000000
vn -0.000000 1.000000 -0.000000
vn 0.000000 1.000000 -0.000000
vn 0.000000 1.000000 -0.000000
vn 0.000000 1.000000 -0.000000
vn -0.000000 1.000000 -0.000000
vn -0.000000 1.000000 -0.000000
vn -0.000000 1.000000 -0.000000
vn 0.000000 1.000000 -0.000000
vn 0.000000 1.000000 -0.000000
vn 0.000000 1.000000 -0.000000
vn 0.000000 1.000000 0.000000
vn 0.000000 1.000000 0.000000
vn 0.000000 1.000000 0.000000
vn -0.000000 1.000000 -0.000000
vn -0.000000 1.000000 -0.000000
vn -0.000000 1.000000 -0.000000
vn 0.000000 1.000000 0.000000
vn 0.000000 1.000000 0.000000
vn 0.000000 1.000000 0.000000
vn -0.000000 1.000000 0.000000
vn -0.000000 1.000000 0.000000
vn -0.000000 1.000000 0.000000
vn 0.000000 1.000000 0.000000
vn 0.000000 1.000000 0.000000
vn 0.000000 1.000000 0.000000
vn 0.000000 1.000000 0.000000
vn 0.000000 1.000000 0.000000
vn 0.000000 1.000000 0.000000
vn 0.000000 1.000000 0.000000
vn 0.000000 1.000000 0.000000
vn 0.000000 1.000000 0.000000
vn 0.000000 1.000000 0.000000
vn 0.000000 1.000000 0.000000
vn 0.000000 1.000000 0.000000
vn 0.000000 1.000000 0.000000
vn 0.000000 1.000000 0.000000
vn 0.000000 1.000000 0.000000
vn 0.000000 1.000000 0.000000
vn 0.000000 1.000000 0.000000
vn 0.000000 1.000000 0.000000
vn 0.000000 1.000000 0.000000
vn 0.000000 1.000000 0.000000
vn 0.000000 1.000000 0.000000
vn 0.000000 1.000000 0.000000
vn 0.000000 1.000000 0.000000
vn 0.000000 1.000000 0.000000
vn 0.000000 1.000000 0.000000
vn 0.000000 1.000000 0.000000
vn 0.000000 1.000000 0.000000
vn 0.000000 1.000000 0.000000
vn 0.000000 1.000000 0.000000
vn 0.000000 1.000000 0.000000
vn 0.000000 1.000000 0.000000
vn 0.000000 1.000000 0.000000
vn 0.000000 1.000000 0.000000
vn 0.000000 1.000000 0.000000
vn 0.000000 1.000000 0.000000
vn 0.000000 1.000000 0.000000
vn 0.000000 1.000000 0.000000
vn 0.000000 1.000000 0.000000
vn 0.000000 1.000000 0.000000
vn -0.000000 1.000000 0.000000
vn -0.000000 1.000000 0.000000
vn -0.000000 1.000000 0.000000
vn -0.000000 1.000000 0.000000
vn -0.000000 1.000000 0.000000
vn -0.000000 1.000000 0.000000
vn -0.000000 1.000000 0.000000
vn -0.000000 1.000000 0.000000
vn -0.000000 1.000000 0.000000
vn 0.000000 1.000000 -0.000000
vn 0.000000 1.000000 -0.000000
vn 0.000000 1.000000 -0.000000
vn -0.000000 1.000000 -0.000000
vn -0.000000 1.000000 -0.000000
vn -0.000000 1.000000 -0.000000
vn 0.000000 1.000000 0.000000
vn 0.000000 1.000000 0.000000
vn 0.000000 1.000000 0.000000
vn -0.000000 1.000000 0.000000
vn -0.000000 1.000000 0.000000
vn -0.000000 1.000000 0.000000
vn 0.000000 1.000000 0.000000
vn 0.000000 1.000000 0.000000
vn 0.000000 1.000000 0.000000
vn 0.000000 1.000000 0.000000
vn 0.000000 1.000000 0.000000
vn 0.000000 1.000000 0.000000
vn 0.000000 1.000000 0.000000
vn 0.000000 1.000000 0.000000
vn 0.000000 1.000000 0.000000
vn -0.000000 1.000000 -0.000000
vn -0.000000 1.000000 -0.000000
vn -0.000000 1.000000 -0.000000
vn 0.000000 1.000000 -0.000000
vn 0.000000 1.000000 -0.000000
vn 0.000000 1.000000 -0.000000
vn -0.000000 1.000000 0.000000
vn -0.000000 1.000000 0.000000
vn -0.000000 1.000000 0.000000
vn 0.000000 1.000000 0.000000
vn 0.000000 1.000000 0.000000
vn 0.000000 1.000000 0.000000
vn 0.000000 1.000000 0.000000
vn 0.000000 1.000000 0.000000
vn 0.000000 1.000000 0.000000
vn 0.000000 1.000000 0.000000
vn 0.000000 1.000000 0.000000
vn 0.000000 1.000000 0.000000
vn -0.000000 1.000000 -0.000000
vn -0.000000 1.000000 -0.000000
vn -0.000000 1.000000 -0.000000
vn 0.000000 1.000000 -0.000000
vn 0.000000 1.000000 -0.000000
vn 0.000000 1.000000 -0.000000
vn 0.000000 1.000000 0.000000
vn 0.000000 1.000000 0.000000
vn 0.000000 1.000000 0.000000
vn 0.000000 1.000000 0.000000
vn 0.000000 1.000000 0.000000
vn 0.000000 1.000000 0.000000
vn 0.000000 1.000000 -0.000000
vn 0.000000 1.000000 -0.000000
vn 0.000000 1.000000 -0.000000
vn 0.000000 1.000000 -0.000000
vn 0.000000 1.000000 -0.000000
vn 0.000000 1.000000 -0.000000
vn 0.000000 1.000000 -0.000000
vn 0.000000 1.000000 -0.000000
vn 0.000000 1.000000 -0.000000
vn 0.000000 1.000000 0.000000
vn 0.000000 1.000000 0.000000
vn 0.000000 1.000000 0.000000
vn -0.000000 1.000000 0.000000
vn -0.000000 1.000000 0.000000
vn -0.000000 1.000000 0.000000
vn 0.000000 1.000000 -0.000000
vn 0.000000 1.000000 -0.000000
vn 0.000000 1.000000 -0.000000
vn -0.000000 1.000000 -0.000000
vn -0.000000 1.000000 -0.000000
vn -0.000000 1.000000 -0.000000
vn 0.000000 1.000000 -0.000000
vn 0.000000 1.000000 -0.000000
vn 0.000000 1.000000 -0.000000
vn -0.000000 1.000000 -0.000000
vn -0.000000 1.000000 -0.000000
vn -0.000000 1.000000 -0.000000
vn 0.000000 1.000000 0.000000
vn 0.000000 1.000000 0.000000
vn 0.000000 1.000000 0.000000
vn 0.000000 1.000000 0.000000
vn 0.000000 1.000000 0.000000
vn 0.000000 1.000000 0.000000
vn 0.000000 1.000000 0.000000
vn 0.000000 1.000000 0.000000
vn 0.000000 1.000000 0.000000
vn 0.000000 1.000000 0.000000
vn 0.000000 1.000000 0.000000
vn 0.000000 1.000000 0.000000
vn 0.000000 1.000000 0.000000
vn 0.000000 1.000000 0.000000
vn 0.000000 1.000000 0.000000
vn -0.000000 1.000000 -0.000000
vn -0.000000 1.000000 -0.000000
vn -0.000000 1.000000 -0.000000
vn 0.000000 1.000000 0.000000
vn 0.000000 1.000000 0.000000
vn 0.000000 1.000000 0.000000
vn 0.000000 1.000000 0.000000
vn 0.000000 1.000000 0.000000
vn 0.000000 1.000000 0.000000
vn 0.000000 1.000000 0.000000
vn 0.000000 1.000000 0.000000
vn 0.000000 1.000000 0.000000
vn 0.000000 1.000000 0.000000
vn 0.000000 1.000000 0.000000
vn 0.000000 1.000000 0.000000
vn 0.000000 1.000000 0.000000
vn 0.000000 1.000000 0.000000
vn 0.000000 1.000000 0.000000
vn 0.000000 1.000000 0.000000
vn 0.000000 1.000000 0.000000
vn 0.000000 1.000000 0.000000
vn 0.000000 1.000000 0.000000
vn 0.000000 1.000000 0.000000
vn 0.000000 1.000000 0.000000
vn 0.000000 1.000000 0.000000
vn 0.000000 1.000000 0.000000
vn 0.000000 1.000000 0.000000
vn 0.000000 1.000000 0.000000
vn 0.000000 1.000000 0.000000
vn 0.000000 1.000000 0.000000
vn -0.000000 1.000000 -0.000000
vn -0.000000 1.000000 -0.000000
vn -0.000000 1.000000 -0.000000
vn 0.000000 1.000000 0.000000
vn 0.000000 1.000000 0.000000
vn 0.000000 1.000000 0.000000
vn 0.000000 1.000000 -0.000000
vn 0.000000 1.000000 -0.000000
vn 0.000000 1.000000 -0.000000
vn 0.000000 1.000000 0.000000
vn 0.000000 1.000000 0.000000
vn 0.000000 1.000000 0.000000
vn -0.000000 1.000000 -0.000000
vn -0.000000 1.000000 -0.000000
vn -0.000000 1.000000 -0.000000
vn -0.000000 1.000000 0.000000
vn -0.000000 1.000000 0.000000
vn -0.000000 1.000000 0.000000
vn 0.000000 1.000000 0.000000
vn 0.000000 1.000000 0.000000
vn 0.000000 1.000000 0.000000
vn 0.000000 1.000000 0.000000
vn 0.000000 1.000000 0.000000
vn 0.000000 1.000000 0.000000
vn 0.000000 1.000000 0.000000
vn 0.000000 1.000000 0.000000
vn 0.000000 1.000000 0.000000
vn -0.000000 1.000000 0.000000
vn -0.000000 1.000000 0.000000
vn -0.000000 1.000000 0.000000
vn -0.000000 1.000000 -0.000000
vn -0.000000 1.000000 -0.000000
vn -0.000000 1.000000 -0.000000
vn -0.000000 1.000000 0.000000
vn -0.000000 1.000000 0.000000
vn -0.000000 1.000000 0.000000
vn 0.000000 1.000000 0.000000
vn 0.000000 1.000000 0.000000
vn 0.000000 1.000000 0.000000
vn 0.000000 1.000000 0.000000
vn 0.000000 1.000000 0.000000
vn 0.000000 1.000000 0.000000
vn 0.000000 1.000000 0.000000
vn 0.000000 1.000000 0.000000
vn 0.000000 1.000000 0.000000
vn -0.000000 1.000000 0.000000
vn -0.000000 1.000000 0.000000
vn -0.000000 1.000000 0.000000
vn -0.000000 1.000000 0.000000
vn -0.000000 1.000000 0.000000
vn -0.000000 1.000000 0.000000
vn -0.000000 1.000000 -0.000000
vn -0.000000 1.000000 -0.000000
vn -0.000000 1.000000 -0.000000
vn 0.000000 1.000000 0.000000
vn 0.000000 1.000000 0.000000
vn 0.000000 1.000000 0.000000
vn 0.000000 1.000000 0.000000
vn 0.000000 1.000000 0.000000
vn 0.000000 1.000000 0.000000
vn 0.000000 1.000000 0.000000
vn 0.000000 1.000000 0.000000
vn 0.000000 1.000000 0.000000
vn -0.000000 1.000000 0.000000
vn -0.000000 1.000000 0.000000
vn -0.000000 1.000000 0.000000
vn -0.000000 1.000000 -0.000000
vn -0.000000 1.000000 -0.000000
vn -0.000000 1.000000 -0.000000
vn -0.000000 1.000000 0.000000
vn -0.000000 1.000000 0.000000
vn -0.000000 1.000000 0.000000
vn 0.000000 1.000000 0.000000
vn 0.000000 1.000000 0.000000
vn 0.000000 1.000000 0.000000
vn -0.000000 1.000000 -0.000000
vn -0.000000 1.000000 -0.000000
vn -0.000000 1.000000 -0.000000
vn -0.000000 1.000000 0.000000
vn -0.000000 1.000000 0.000000
vn -0.000000 1.000000 0.000000
vn -0.000000 1.000000 0.000000
vn -0.000000 1.000000 0.000000
vn -0.000000 1.000000 0.000000
vn 0.000000 1.000000 0.000000
vn 0.000000 1.000000 0.000000
vn 0.000000 1.000000 0.000000
vn 0.000000 1.000000 -0.000000
vn 0.000000 1.000000 -0.000000
vn 0.000000 1.000000 -0.000000
vn 0.000000 1.000000 0.000000
vn 0.000000 1.000000 0.000000
vn 0.000000 1.000000 0.000000
vn 0.000000 1.000000 0.000000
vn 0.000000 1.000000 0.000000
vn 0.000000 1.000000 0.000000
vn 0.000000 1.000000 0.000000
vn 0.000000 1.000000 0.000000
vn 0.000000 1.000000 0.000000
vn -0.000000 1.000000 0.000000
vn -0.000000 1.000000 0.000000
vn -0.000000 1.000000 0.000000
vn -0.000000 1.000000 0.000000
vn -0.000000 1.000000 0.000000
vn -0.000000 1.000000 0.000000
vn 0.000000 1.000000 0.000000
vn 0.000000 1.000000 0.000000
vn 0.000000 1.000000 0.000000
vn 0.000000 1.000000 -0.000000
vn 0.000000 1.000000 -0.000000
vn 0.000000 1.000000 -0.000000
vn -0.000000 1.000000 -0.000000
vn -0.000000 1.000000 -0.000000
vn -0.000000 1.000000 -0.000000
vn 0.000000 1.000000 -0.000000
vn 0.000000 1.000000 -0.000000
vn 0.000000 1.000000 -0.000000
vn 0.000000 1.000000 0.000000
vn 0.000000 1.000000 0.000000
vn 0.000000 1.000000 0.000000
vn -0.000000 1.000000 -0.000000
vn -0.000000 1.000000 -0.000000
vn -0.000000 1.000000 -0.000000
vn 0.000000 1.000000 0.000000
vn 0.000000 1.000000 0.000000
vn 0.000000 1.000000 0.000000
vn 0.000000 1.000000 0.000000
vn 0.000000 1.000000 0.000000
vn 0.000000 1.000000 0.000000
vn -0.000000 1.000000 0.000000
vn -0.000000 1.000000 0.000000
vn -0.000000 1.000000 0.000000
vn 0.000000 1.000000 0.000000
vn 0.000000 1.000000 0.000000
vn 0.000000 1.000000 0.000000
vn 0.000000 1.000000 0.000000
vn 0.000000 1.000000 0.000000
vn 0.000000 1.000000 0.000000
vn 0.000000 1.000000 -0.000000
vn 0.000000 1.000000 -0.000000
vn 0.000000 1.000000 -0.000000
vn -0.000000 1.000000 0.000000
vn -0.000000 1.000000 0.000000
vn -0.000000 1.000000 0.000000
vn 0.000000 1.000000 -0.000000
vn 0.000000 1.000000 -0.000000
vn 0.000000 1.000000 -0.000000
vn 0.000000 1.000000 0.000000
vn 0.000000 1.000000 0.000000
vn 0.000000 1.000000 0.000000
vn -0.000000 1.000000 0.000000
vn -0.000000 1.000000 0.000000
vn -0.000000 1.000000 0.000000
s off
f 39/39/1 43/43/2 22/22/3
f 22/22/4 43/43/5 21/21/6
f 43/43/7 44/44/8 21/21/9
f 21/21/10 44/44/11 9/9/12
f 44/44/13 45/45/14 9/9/15
f 14/14/16 9/9/17 57/89/18
f 45/45/19 46/46/20 9/9/21
f 57/89/22 9/9/23 40/40/24
f 46/46/25 40/40/26 9/9/27
f 27/27/28 8/8/29 30/30/30
f 26/26/31 28/28/32 24/24/33
f 24/24/34 28/28/35 23/23/36
f 28/28/37 29/29/38 23/23/39
f 8/8/40 23/23/41 30/30/42
f 23/23/43 29/29/44 30/30/45
f 53/88/46 54/87/47 6/6/48
f 52/79/49 18/18/50 56/84/51
f 12/12/52 6/6/53 19/19/54
f 6/6/55 54/87/56 19/19/57
f 54/87/58 55/86/59 19/19/60
f 19/19/61 55/86/62 63/95/63
f 63/95/64 55/86/65 62/94/66
f 55/86/67 56/84/68 62/94/69
f 18/18/70 62/94/71 56/84/72
f 17/17/73 68/100/74 16/16/75
f 68/100/76 72/104/77 16/16/78
f 16/16/79 72/104/80 2/2/81
f 72/104/82 69/101/83 2/2/84
f 69/101/85 15/15/86 2/2/87
f 24/24/88 25/25/89 26/26/90
f 7/7/91 11/11/92 25/25/93
f 25/25/94 11/11/95 26/26/96
f 12/12/97 19/19/98 1/1/99
f 1/1/100 19/19/101 20/20/102
f 60/107/103 61/108/104 59/106/105
f 61/108/106 58/109/107 59/106/108
f 59/106/109 58/109/110 57/105/111
f 57/105/112 58/109/113 14/110/114
f 69/101/115 70/102/116 15/15/117
f 18/18/118 52/79/119 17/17/120
f 6/6/121 15/15/122 53/88/123
f 15/15/124 70/102/125 53/88/126
f 70/102/127 71/103/128 53/88/129
f 53/88/130 71/103/131 52/79/132
f 68/100/133 17/17/134 71/103/135
f 71/103/136 17/17/137 52/79/138
f 17/17/139 16/16/140 48/48/141
f 48/48/142 16/16/143 51/51/144
f 16/16/145 9/9/146 51/51/147
f 51/51/148 9/9/149 50/50/150
f 14/14/151 47/47/152 9/9/153
f 47/47/154 49/49/155 9/9/156
f 9/9/157 49/49/158 50/50/159
f 32/32/160 18/18/161 38/38/162
f 18/18/163 17/17/164 38/38/165
f 38/38/166 17/17/167 37/37/168
f 8/8/169 31/31/170 58/90/171
f 31/31/172 35/35/173 58/90/174
f 35/35/175 36/36/176 58/90/177
f 17/17/178 48/48/179 37/37/180
f 48/48/181 47/47/182 37/37/183
f 47/47/184 14/14/185 37/37/186
f 14/14/187 58/90/188 37/37/189
f 58/90/190 36/36/191 37/37/192
f 63/95/193 64/96/194 19/19/195
f 19/19/196 64/96/197 11/11/198
f 11/11/199 64/96/200 27/27/201
f 64/96/202 65/97/203 27/27/204
f 27/27/205 65/97/206 8/8/207
f 65/97/208 66/98/209 8/8/210
f 18/18/211 32/32/212 62/94/213
f 62/94/214 32/32/215 67/99/216
f 32/32/217 33/33/218 67/99/219
f 67/99/220 33/33/221 66/98/222
f 33/33/223 34/34/224 66/98/225
f 66/98/226 34/34/227 8/8/228
f 8/8/229 34/34/230 31/31/231
f 20/20/232 19/19/233 7/7/234
f 7/7/235 19/19/236 11/11/237
f 13/13/238 22/22/239 4/4/240
f 4/4/241 22/22/242 21/21/243
f 23/23/244 22/22/245 74/123/246
f 5/5/247 73/122/248 13/13/249
f 22/22/250 13/13/251 74/123/252
f 74/123/253 13/13/254 77/126/255
f 73/122/256 77/126/257 13/13/258
f 74/123/259 75/124/260 23/23/261
f 73/122/262 5/5/263 76/125/264
f 10/10/265 24/24/266 5/5/267
f 5/5/268 24/24/269 76/125/270
f 76/125/271 24/24/272 75/124/273
f 24/24/274 23/23/275 75/124/276
f 3/3/277 25/25/278 10/10/279
f 10/10/280 25/25/281 24/24/282
f 28/55/283 26/56/284 29/54/285
f 29/54/286 26/56/287 30/53/288
f 30/53/289 26/56/290 27/52/291
f 27/52/292 26/56/293 11/57/294
f 31/58/295 34/59/296 32/61/297
f 32/61/298 34/59/299 33/60/300
f 31/58/301 32/61/302 35/65/303
f 35/65/304 32/61/305 36/64/306
f 32/61/307 38/62/308 36/64/309
f 38/62/310 37/63/311 36/64/312
f 42/67/313 41/68/314 39/66/315
f 39/66/316 41/68/317 40/69/318
f 40/69/319 46/70/320 39/66/321
f 46/70/322 45/71/323 39/66/324
f 39/66/325 45/71/326 43/73/327
f 45/71/328 44/72/329 43/73/330
f 51/75/331 50/76/332 48/74/333
f 48/74/334 50/76/335 47/78/336
f 50/76/337 49/77/338 47/78/339
f 55/82/340 54/81/341 56/83/342
f 54/81/343 53/80/344 56/83/345
f 52/85/346 56/83/347 53/80/348
f 58/90/349 61/93/350 8/8/351
f 57/89/352 40/40/353 59/91/354
f 61/93/355 60/92/356 8/8/357
f 8/8/358 60/92/359 23/23/360
f 22/22/361 23/23/362 39/39/363
f 39/39/364 23/23/365 42/42/366
f 42/42/367 23/23/368 41/41/369
f 40/40/370 41/41/371 59/91/372
f 59/91/373 41/41/374 60/92/375
f 23/23/376 60/92/377 41/41/378
f 64/115/379 63/116/380 65/114/381
f 65/114/382 63/116/383 66/113/384
f 66/113/385 63/116/386 67/112/387
f 62/111/388 67/112/389 63/116/390
f 68/117/391 71/118/392 69/120/393
f 69/120/394 71/118/395 70/119/396
f 69/120/397 72/121/398 68/117/399
f 76/128/400 75/129/401 73/127/402
f 73/127/403 75/129/404 74/130/405
f 74/130/406 77/131/407 73/127/408
