# This file uses centimeters as units for non-parametric coordinates.

v 5.947510 -6.431778 -10.300228
v -5.946289 -6.431778 -10.300228
v -11.893555 -6.431778 0.000427
v -5.946289 -6.431778 10.300964
v 5.947510 -6.431778 10.300964
v 11.894775 -6.431778 0.000427
v 4.622112 28.730167 -8.004484
v -4.620893 28.730167 -8.004484
v -9.242020 28.730167 0.000373
v -4.620893 28.730167 8.004730
v 4.622112 28.730167 8.004730
v 9.243240 28.730167 0.000373
v 0.000244 -6.431778 0.000427
v 15.691364 34.857010 -27.178116
v -15.691231 34.857010 -27.178116
v -31.380486 34.857010 0.000502
v -15.691231 34.857010 27.178856
v 15.691364 34.857010 27.178856
v 31.381935 34.857010 0.000502
v 11.889893 48.007599 -20.593689
v -11.889648 48.007599 -20.593689
v 0.000000 54.099991 0.000488
v -23.778564 48.007599 0.000488
v -11.889648 48.007599 20.594116
v 11.889893 48.007599 20.594116
v 23.779785 48.007599 0.000488
v 8.329102 2.993000 14.425537
v -8.327881 2.993000 14.425537
v -16.656738 2.993000 0.000427
v -8.327881 2.993000 -14.425110
v 8.329102 2.993000 -14.425110
v 16.657959 2.993000 0.000427
v -2.383543 34.857010 27.178856
v 3.993549 37.183880 24.368004
v 11.095032 34.986938 27.223724
v 0.149170 34.857010 -27.178116
v -9.612026 37.015205 -23.345840
vt 0.096680 0.415745
vt 0.096680 0.415745
vt 0.096680 0.415745
vt 0.096680 0.415745
vt 0.096680 0.415745
vt 0.096680 0.415745
vt 0.096680 0.415745
vt 0.096680 0.415745
vt 0.096680 0.415745
vt 0.096680 0.415745
vt 0.096680 0.415745
vt 0.096680 0.415745
vt 0.096680 0.415745
vt 0.096680 0.415745
vt 0.096680 0.415745
vt 0.096680 0.415745
vt 0.096680 0.415745
vt 0.096680 0.415745
vt 0.096680 0.415745
vt 0.147599 0.707699
vt 0.147599 0.707699
vt 0.147599 0.707699
vt 0.147599 0.707699
vt 0.147599 0.707699
vt 0.147599 0.707699
vt 0.147599 0.707699
vt 0.147599 0.707699
vt 0.147599 0.707699
vt 0.147599 0.707699
vt 0.147599 0.707699
vt 0.147599 0.707699
vt 0.147599 0.707699
vt 0.147599 0.707699
vt 0.147599 0.707699
vt 0.147599 0.707699
vt 0.147599 0.707699
vt 0.147599 0.707699
vt 0.147599 0.707699
vt 0.147599 0.707699
vt 0.147599 0.707699
vt 0.147599 0.707699
vt 0.147599 0.707699
vt 0.147599 0.707699
vn 0.000000 -0.400945 -0.916102
vn 0.000000 -0.400945 -0.916102
vn 0.000000 -0.400945 -0.916102
vn 0.000000 -0.400945 -0.916102
vn 0.000000 -0.400945 -0.916102
vn 0.000000 -0.400945 -0.916102
vn -0.793359 -0.400954 -0.458060
vn -0.793359 -0.400954 -0.458060
vn -0.793359 -0.400954 -0.458060
vn -0.793358 -0.400955 -0.458060
vn -0.793358 -0.400955 -0.458060
vn -0.793358 -0.400955 -0.458060
vn -0.793356 -0.400954 0.458064
vn -0.793356 -0.400954 0.458064
vn -0.793356 -0.400954 0.458064
vn -0.793356 -0.400944 0.458073
vn -0.793356 -0.400944 0.458073
vn -0.793356 -0.400944 0.458073
vn 0.000000 -0.400919 0.916113
vn 0.000000 -0.400919 0.916113
vn 0.000000 -0.400919 0.916113
vn 0.000000 -0.400919 0.916113
vn 0.000000 -0.400919 0.916113
vn 0.000000 -0.400919 0.916113
vn 0.793361 -0.400942 0.458066
vn 0.793361 -0.400942 0.458066
vn 0.793361 -0.400942 0.458066
vn 0.793353 -0.400952 0.458071
vn 0.793353 -0.400952 0.458071
vn 0.793353 -0.400952 0.458071
vn 0.793358 -0.400955 -0.458059
vn 0.793358 -0.400955 -0.458059
vn 0.793358 -0.400955 -0.458059
vn 0.793358 -0.400954 -0.458060
vn 0.793358 -0.400954 -0.458060
vn 0.793358 -0.400954 -0.458060
vn 0.000000 -1.000000 0.000000
vn 0.000000 -1.000000 0.000000
vn 0.000000 -1.000000 0.000000
vn 0.000000 -1.000000 0.000000
vn 0.000000 -1.000000 0.000000
vn 0.000000 -1.000000 0.000000
vn 0.000000 -1.000000 0.000000
vn 0.000000 -1.000000 0.000000
vn 0.000000 -1.000000 0.000000
vn 0.000000 -1.000000 -0.000000
vn 0.000000 -1.000000 -0.000000
vn 0.000000 -1.000000 -0.000000
vn 0.000000 -1.000000 0.000000
vn 0.000000 -1.000000 0.000000
vn 0.000000 -1.000000 0.000000
vn 0.000000 -1.000000 0.000000
vn 0.000000 -1.000000 0.000000
vn 0.000000 -1.000000 0.000000
vn 0.000000 0.958920 -0.283678
vn 0.000000 0.958920 -0.283678
vn 0.000000 0.958920 -0.283678
vn -0.245687 0.958916 -0.141834
vn -0.245687 0.958916 -0.141834
vn -0.245687 0.958916 -0.141834
vn -0.245687 0.958916 0.141838
vn -0.245687 0.958916 0.141838
vn -0.245687 0.958916 0.141838
vn 0.000000 0.958918 0.283685
vn 0.000000 0.958918 0.283685
vn 0.000000 0.958918 0.283685
vn 0.245675 0.958918 0.141843
vn 0.245675 0.958918 0.141843
vn 0.245675 0.958918 0.141843
vn 0.245676 0.958919 -0.141839
vn 0.245675 0.958919 -0.141839
vn 0.245675 0.958919 -0.141839
vn 0.559455 -0.639462 -0.527351
vn 0.559455 -0.639462 -0.527351
vn 0.559455 -0.639462 -0.527351
vn 0.000000 -0.952550 -0.304383
vn 0.000000 -0.952550 -0.304383
vn 0.000000 -0.952550 -0.304383
vn 0.000000 -0.952550 -0.304383
vn 0.000000 -0.952550 -0.304383
vn 0.000000 -0.952550 -0.304383
vn -0.334311 -0.870451 -0.361319
vn -0.334311 -0.870451 -0.361319
vn -0.334311 -0.870451 -0.361319
vn -0.263612 -0.952549 -0.152180
vn -0.263612 -0.952549 -0.152180
vn -0.263612 -0.952549 -0.152180
vn -0.263619 -0.952547 -0.152178
vn -0.263619 -0.952547 -0.152178
vn -0.263619 -0.952547 -0.152178
vn -0.263617 -0.952546 0.152193
vn -0.263617 -0.952546 0.152193
vn -0.263617 -0.952546 0.152193
vn -0.263613 -0.952550 0.152176
vn -0.263613 -0.952550 0.152176
vn -0.263613 -0.952550 0.152176
vn 0.000000 -0.952552 0.304376
vn 0.000000 -0.952552 0.304376
vn 0.000000 -0.952552 0.304376
vn -0.023713 -0.948234 0.316685
vn -0.023713 -0.948234 0.316685
vn -0.023713 -0.948234 0.316685
vn -0.414914 -0.814758 0.404988
vn -0.414914 -0.814758 0.404988
vn -0.414914 -0.814758 0.404988
vn 0.421733 -0.876811 0.230963
vn 0.421733 -0.876811 0.230963
vn 0.421733 -0.876811 0.230963
vn 0.000000 -0.888440 0.458992
vn 0.000000 -0.888440 0.458992
vn 0.000000 -0.888440 0.458992
vn 0.263612 -0.952547 0.152190
vn 0.263612 -0.952548 0.152190
vn 0.263612 -0.952548 0.152190
vn 0.263615 -0.952547 0.152190
vn 0.263615 -0.952547 0.152190
vn 0.263615 -0.952547 0.152190
vn 0.263617 -0.952547 -0.152184
vn 0.263617 -0.952547 -0.152184
vn 0.263617 -0.952547 -0.152184
vn 0.263618 -0.952546 -0.152190
vn 0.263618 -0.952546 -0.152190
vn 0.263618 -0.952546 -0.152190
vn 0.000000 0.447710 -0.894179
vn 0.000000 0.447710 -0.894179
vn 0.000000 0.447710 -0.894179
vn 0.000000 0.447710 -0.894179
vn 0.000000 0.447710 -0.894179
vn 0.000000 0.447710 -0.894179
vn -0.774415 0.447700 -0.447042
vn -0.774415 0.447700 -0.447042
vn -0.774415 0.447700 -0.447042
vn -0.774419 0.447666 -0.447068
vn -0.774419 0.447666 -0.447068
vn -0.774419 0.447666 -0.447068
vn -0.774426 0.447670 0.447053
vn -0.774426 0.447670 0.447053
vn -0.774426 0.447670 0.447053
vn -0.774393 0.447716 0.447065
vn -0.774393 0.447716 0.447065
vn -0.774393 0.447716 0.447065
vn 0.000000 0.447727 0.894170
vn 0.000000 0.447727 0.894170
vn 0.000000 0.447727 0.894170
vn 0.000000 0.447728 0.894170
vn 0.000000 0.447728 0.894170
vn 0.000000 0.447728 0.894170
vn 0.774392 0.447711 0.447071
vn 0.774392 0.447711 0.447071
vn 0.774392 0.447712 0.447071
vn 0.774397 0.447668 0.447104
vn 0.774397 0.447668 0.447104
vn 0.774397 0.447668 0.447104
vn 0.774410 0.447674 -0.447077
vn 0.774410 0.447674 -0.447077
vn 0.774410 0.447674 -0.447077
vn 0.774386 0.447707 -0.447086
vn 0.774386 0.447707 -0.447085
vn 0.774386 0.447707 -0.447086
vn 0.000000 0.242057 0.970262
vn 0.000000 0.242057 0.970262
vn 0.000000 0.242057 0.970262
vn 0.000000 0.242057 0.970262
vn 0.000000 0.242057 0.970262
vn 0.000000 0.242057 0.970262
vn -0.840255 0.242073 0.485151
vn -0.840255 0.242073 0.485151
vn -0.840255 0.242073 0.485152
vn -0.840281 0.242053 0.485116
vn -0.840281 0.242053 0.485117
vn -0.840281 0.242053 0.485116
vn -0.840266 0.242054 -0.485143
vn -0.840266 0.242054 -0.485143
vn -0.840266 0.242054 -0.485143
vn -0.840288 0.242081 -0.485090
vn -0.840288 0.242081 -0.485090
vn -0.840288 0.242081 -0.485090
vn 0.000000 0.242051 -0.970264
vn 0.000000 0.242051 -0.970264
vn 0.000000 0.242051 -0.970264
vn 0.000000 0.242051 -0.970264
vn 0.000000 0.242051 -0.970264
vn 0.000000 0.242051 -0.970264
vn 0.840261 0.242073 -0.485141
vn 0.840261 0.242073 -0.485141
vn 0.840261 0.242073 -0.485141
vn 0.840296 0.242046 -0.485095
vn 0.840296 0.242046 -0.485095
vn 0.840296 0.242046 -0.485095
vn 0.840258 0.242059 0.485153
vn 0.840258 0.242059 0.485153
vn 0.840258 0.242059 0.485153
vn 0.840275 0.242079 0.485113
vn 0.840276 0.242079 0.485113
vn 0.840276 0.242079 0.485113
vn 0.392701 0.033949 0.919039
vn 0.392701 0.033949 0.919039
vn 0.392701 0.033949 0.919039
vn -0.208018 0.453862 0.866451
vn -0.208018 0.453862 0.866451
vn -0.208018 0.453862 0.866451
vn 0.021495 0.452585 0.891462
vn 0.021495 0.452585 0.891462
vn 0.021495 0.452585 0.891462
vn -0.328684 0.164730 -0.929963
vn -0.328684 0.164730 -0.929963
vn -0.328684 0.164730 -0.929963
vn 0.429320 0.302055 -0.851145
vn 0.429320 0.302055 -0.851145
vn 0.429320 0.302055 -0.851145
s off
f 1/1/1 2/2/2 31/4/3
f 31/4/4 2/2/5 30/3/6
f 2/2/7 3/5/8 30/3/9
f 30/3/10 3/5/11 29/6/12
f 3/5/13 4/7/14 29/6/15
f 29/6/16 4/7/17 28/8/18
f 4/7/19 5/9/20 28/8/21
f 28/8/22 5/9/23 27/10/24
f 5/9/25 6/11/26 27/10/27
f 27/10/28 6/11/29 32/12/30
f 6/11/31 1/1/32 32/12/33
f 32/12/34 1/1/35 31/4/36
f 2/2/37 1/1/38 13/13/39
f 3/5/40 2/2/41 13/13/42
f 4/7/43 3/5/44 13/13/45
f 5/9/46 4/7/47 13/13/48
f 6/11/49 5/9/50 13/13/51
f 1/1/52 6/11/53 13/13/54
f 20/35/55 21/36/56 22/28/57
f 21/36/58 23/37/59 22/28/60
f 23/37/61 24/38/62 22/28/63
f 24/38/64 25/27/65 22/28/66
f 25/27/67 26/20/68 22/28/69
f 26/20/70 20/35/71 22/28/72
f 15/30/73 37/43/74 8/24/75
f 14/29/76 7/25/77 36/42/78
f 7/25/79 8/24/80 36/42/81
f 8/24/82 37/43/83 36/42/84
f 8/24/85 9/23/86 15/30/87
f 15/30/88 9/23/89 16/31/90
f 9/23/91 10/22/92 16/31/93
f 16/31/94 10/22/95 17/32/96
f 17/32/97 10/22/98 33/39/99
f 18/33/100 35/41/101 11/21/102
f 35/41/103 34/40/104 11/21/105
f 33/39/106 10/22/107 34/40/108
f 10/22/109 11/21/110 34/40/111
f 11/21/112 12/26/113 18/33/114
f 18/33/115 12/26/116 19/34/117
f 12/26/118 7/25/119 19/34/120
f 19/34/121 7/25/122 14/29/123
f 14/29/124 36/42/125 20/35/126
f 20/35/127 36/42/128 21/36/129
f 15/30/130 16/31/131 21/36/132
f 21/36/133 16/31/134 23/37/135
f 16/31/136 17/32/137 23/37/138
f 23/37/139 17/32/140 24/38/141
f 17/32/142 33/39/143 24/38/144
f 24/38/145 33/39/146 25/27/147
f 18/33/148 19/34/149 25/27/150
f 25/27/151 19/34/152 26/20/153
f 19/34/154 14/29/155 26/20/156
f 26/20/157 14/29/158 20/35/159
f 28/8/160 27/10/161 10/15/162
f 10/15/163 27/10/164 11/14/165
f 29/6/166 28/8/167 9/16/168
f 9/16/169 28/8/170 10/15/171
f 30/3/172 29/6/173 8/17/174
f 8/17/175 29/6/176 9/16/177
f 31/4/178 30/3/179 7/18/180
f 7/18/181 30/3/182 8/17/183
f 32/12/184 31/4/185 12/19/186
f 12/19/187 31/4/188 7/18/189
f 27/10/190 32/12/191 11/14/192
f 11/14/193 32/12/194 12/19/195
f 25/27/196 33/39/197 34/40/198
f 25/27/199 34/40/200 35/41/201
f 25/27/202 35/41/203 18/33/204
f 21/36/205 36/42/206 37/43/207
f 21/36/208 37/43/209 15/30/210
