# Blender v2.78 (sub 0) OBJ File: ''
# www.blender.org
mtllib SM_Env_FloorTile_02.mtl
o SM_Env_FloorTile_02
v 248.424316 0.000037 -225.227417
v 240.133179 0.000033 -204.877930
v 257.364624 0.000034 -207.516846
v 252.344971 0.000033 -200.043823
v 244.401245 0.000032 -197.573242
v 150.772827 0.000037 -226.159424
v 110.764648 0.000035 -214.007812
v 150.772827 0.000034 -209.130249
v 75.386475 0.000025 -150.772949
v 150.772827 0.000025 -150.772949
v 75.386475 0.000027 -164.309937
v 96.925415 0.000030 -186.732422
v 150.772827 0.000033 -203.024780
v 150.772827 0.000012 -75.386597
v 135.355835 0.000009 -57.610718
v 153.917480 0.000007 -42.987671
v 75.386475 0.000012 -75.386597
v 75.386475 0.000006 -34.536377
v 113.162964 0.000009 -53.982178
v 93.014038 0.000004 -25.189819
v 141.368042 0.000006 -35.835083
v 75.386475 0.000002 -14.715210
v 75.386475 0.000000 -0.000122
v 88.720581 0.000002 -10.561279
v 150.772827 0.000000 -0.000122
v 153.917847 0.000004 -23.608521
v 279.634521 0.000012 -75.386597
v 252.024536 0.000012 -75.386597
v 265.197998 0.000011 -66.972534
v 287.035889 0.000012 -75.386597
v 290.031372 0.000011 -66.228394
v 299.999878 0.000012 -75.386597
v 299.999878 0.000000 -0.000122
v 283.333740 0.000009 -56.429810
v 226.159424 0.000000 -0.000122
v 267.832520 0.000009 -54.812012
v 228.356323 0.000007 -41.944702
v 242.766479 0.000009 -53.100342
v 75.386475 0.000033 -202.880127
v 47.933838 0.000029 -180.751587
v 75.386475 0.000032 -194.981934
v 53.314331 0.000028 -172.947510
v 23.099487 0.000025 -150.772949
v 36.976196 0.000025 -150.772949
v 38.142456 0.000028 -172.845093
v 25.386108 0.000012 -75.386597
v 42.306641 0.000011 -67.118652
v 51.245850 0.000012 -75.386597
v -0.000122 0.000000 -0.000122
v 66.151001 0.000005 -27.889404
v -0.000122 0.000012 -75.386597
v 17.591553 0.000012 -75.386597
v 26.612549 0.000008 -51.505249
v 49.528931 0.000007 -42.323364
v 63.085449 0.000008 -46.264404
v 49.796265 0.000009 -54.734009
v 164.163940 0.000035 -212.551514
v 175.918091 0.000037 -226.159424
v 189.400146 0.000033 -200.097534
v 190.087769 0.000034 -211.536987
v 216.420532 0.000033 -199.733276
v 211.845947 0.000029 -180.290283
v 226.159424 0.000028 -170.581787
v 216.359863 0.000025 -150.772949
v 226.159424 0.000025 -150.772949
v 231.329468 0.000011 -64.608521
v 180.090210 0.000012 -75.386597
v 198.075562 0.000006 -38.403687
v 232.205688 0.000016 -100.232300
v 239.357910 0.000017 -103.538818
v 226.159424 0.000021 -131.609375
v 246.286499 0.000025 -150.772949
v 245.286255 0.000021 -128.006470
v 251.458130 0.000020 -124.018311
v 299.999878 0.000025 -150.772949
v 257.433472 0.000025 -150.773071
v 208.387329 0.000015 -89.042114
v 214.979614 0.000019 -113.647949
v 94.509277 0.000012 -75.386597
v 86.274780 0.000015 -89.827148
v 96.998169 0.000015 -89.487061
v 107.955811 0.000014 -86.215088
v 125.005005 0.000014 -88.371216
v 132.070312 0.000012 -75.386597
v 55.804199 0.000014 -84.569824
v 28.031128 0.000018 -110.324463
v 44.140747 0.000019 -114.356812
v 226.159424 0.000045 -277.639893
v 239.206665 0.000046 -283.046997
v 226.159424 0.000049 -300.000122
v 299.999878 0.000049 -300.000122
v 259.548828 0.000045 -273.244019
v 299.999878 0.000037 -226.159424
v 256.759399 0.000042 -257.526733
v 278.666260 0.000035 -215.868042
v 265.948608 0.000038 -232.722534
v 244.169312 0.000041 -248.885864
v 245.893188 0.000042 -257.833008
v 226.159424 0.000044 -271.065552
v 226.159424 0.000041 -250.172485
v 237.227417 0.000044 -269.322510
v 150.772827 0.000042 -258.527588
v 170.760620 0.000041 -249.425415
v 181.552612 0.000040 -245.778809
v 186.460083 0.000038 -232.439331
v 75.386475 0.000037 -226.159424
v 88.223145 0.000040 -244.058594
v 75.386475 0.000049 -300.000122
v 125.063843 0.000041 -248.954956
v 119.146118 0.000041 -253.324097
v 109.842163 0.000039 -241.035400
v 150.772827 0.000049 -300.000122
v 131.608521 0.000043 -265.260498
v 150.772827 0.000044 -267.333252
v 150.772827 0.000045 -274.379150
v 45.681519 0.000037 -226.159424
v 36.158447 0.000039 -238.156616
v -0.000122 0.000037 -226.159424
v -0.000122 0.000049 -300.000122
v 44.379517 0.000040 -247.859375
v 63.031860 0.000040 -243.164185
v 64.737183 0.000037 -226.159424
v 75.386475 0.000035 -213.455933
v 89.020996 0.000034 -209.971313
v 102.983154 0.000036 -218.341187
v 63.222778 0.000020 -123.153564
v 114.660522 0.000011 -68.314575
v 193.666382 0.000036 -222.693726
v 208.229004 0.000003 -20.417725
v 187.999390 0.000003 -20.956055
v 167.649536 0.000003 -16.355469
v 195.975464 0.000004 -27.613647
v 242.363647 0.000038 -235.538330
v 276.234131 0.000028 -172.344971
v 280.793335 0.000032 -197.473389
v 269.613159 0.000029 -176.067261
v 266.449707 0.000031 -191.359619
v 204.044800 0.000040 -242.914673
v 199.170166 0.000042 -257.616089
v -0.000122 0.000025 -150.772949
v 44.486694 0.000030 -184.200317
v 46.248901 0.000031 -191.545532
v 48.377686 0.000033 -199.779907
v 43.281250 0.000033 -205.264771
v 36.676758 0.000029 -177.346313
v 25.772339 0.000029 -178.740967
v 27.303955 0.000031 -187.461304
v 175.310669 0.000045 -276.379883
v 180.268433 0.000042 -260.861816
v 234.705688 0.000031 -191.557251
v 239.180542 0.000029 -175.134033
v 251.091919 0.000027 -167.845215
v 251.776245 0.000030 -184.950317
v 231.892456 0.000034 -211.520142
v 220.948120 0.000034 -207.795898
v 256.851685 0.000031 -191.425659
v 140.331421 0.000042 -256.596436
v 210.155762 0.000026 -160.504883
v 200.179810 0.000030 -181.310425
v 167.156372 0.000033 -203.218262
vt 0.9659 0.4514
vt 0.9659 0.4514
vt 0.9659 0.4514
vt 0.9659 0.4514
vt 0.9659 0.4514
vt 0.9420 0.4562
vt 0.9420 0.4562
vt 0.9420 0.4562
vt 0.9420 0.4562
vt 0.9420 0.4562
vt 0.9420 0.4562
vt 0.9420 0.4562
vt 0.9420 0.4562
vt 0.9659 0.4514
vt 0.9659 0.4514
vt 0.9659 0.4514
vt 0.9659 0.4514
vt 0.9659 0.4514
vt 0.9659 0.4514
vt 0.9659 0.4514
vt 0.9659 0.4514
vt 0.9659 0.4514
vt 0.9659 0.4514
vt 0.9659 0.4514
vt 0.9659 0.4514
vt 0.9659 0.4514
vt 0.9659 0.4514
vt 0.9659 0.4514
vt 0.9659 0.4514
vt 0.9659 0.4514
vt 0.9659 0.4514
vt 0.9659 0.4514
vt 0.9659 0.4514
vt 0.9659 0.4514
vt 0.9659 0.4514
vt 0.9659 0.4514
vt 0.9659 0.4514
vt 0.9659 0.4514
vt 0.9420 0.4562
vt 0.9420 0.4562
vt 0.9420 0.4562
vt 0.9420 0.4562
vt 0.9420 0.4562
vt 0.9420 0.4562
vt 0.9420 0.4562
vt 0.9659 0.4514
vt 0.9659 0.4514
vt 0.9659 0.4514
vt 0.9659 0.4514
vt 0.9659 0.4514
vt 0.9659 0.4514
vt 0.9659 0.4514
vt 0.9659 0.4514
vt 0.9659 0.4514
vt 0.9659 0.4514
vt 0.9659 0.4514
vt 0.9420 0.4562
vt 0.9420 0.4562
vt 0.9420 0.4562
vt 0.9420 0.4562
vt 0.9420 0.4562
vt 0.9420 0.4562
vt 0.9420 0.4562
vt 0.9420 0.4562
vt 0.9420 0.4562
vt 0.9659 0.4514
vt 0.9659 0.4514
vt 0.9659 0.4514
vt 0.9659 0.4514
vt 0.9659 0.4514
vt 0.9659 0.4514
vt 0.9659 0.4514
vt 0.9659 0.4514
vt 0.9659 0.4514
vt 0.9659 0.4514
vt 0.9659 0.4514
vt 0.9659 0.4514
vt 0.9420 0.4562
vt 0.9420 0.4562
vt 0.9420 0.4562
vt 0.9420 0.4562
vt 0.9420 0.4562
vt 0.9420 0.4562
vt 0.9420 0.4562
vt 0.9420 0.4562
vt 0.9420 0.4562
vt 0.9420 0.4562
vt 0.9420 0.4562
vt 0.9420 0.4562
vt 0.9420 0.4562
vt 0.9420 0.4562
vt 0.9420 0.4562
vt 0.9420 0.4562
vt 0.9659 0.4514
vt 0.9659 0.4514
vt 0.9659 0.4514
vt 0.9659 0.4514
vt 0.9659 0.4514
vt 0.9659 0.4514
vt 0.9659 0.4514
vt 0.9659 0.4514
vt 0.9659 0.4514
vt 0.9659 0.4514
vt 0.9659 0.4514
vt 0.9659 0.4514
vt 0.9659 0.4514
vt 0.9659 0.4514
vt 0.9680 0.5024
vt 0.9680 0.5024
vt 0.9680 0.5024
vt 0.9680 0.5024
vt 0.9680 0.5024
vt 0.9680 0.5024
vt 0.9659 0.4514
vt 0.9659 0.4514
vt 0.9659 0.4514
vt 0.9659 0.4514
vt 0.9659 0.4514
vt 0.9659 0.4514
vt 0.9659 0.4514
vt 0.9659 0.4514
vt 0.9659 0.4514
vt 0.9659 0.4514
vt 0.9659 0.4514
vt 0.9659 0.4514
vt 0.9659 0.4514
vt 0.9659 0.4514
vt 0.9659 0.4514
vt 0.9659 0.4514
vt 0.9659 0.4514
vt 0.9680 0.5024
vt 0.9680 0.5024
vt 0.9680 0.5024
vt 0.9680 0.5024
vt 0.9680 0.5024
vt 0.9420 0.4562
vt 0.9420 0.4562
vt 0.9420 0.4562
vt 0.9420 0.4562
vt 0.9659 0.4514
vt 0.9659 0.4514
vt 0.9680 0.5024
vt 0.9680 0.5024
vt 0.9659 0.4514
vt 0.9659 0.4514
vt 0.9659 0.4514
vt 0.9420 0.4562
vt 0.9420 0.4562
vt 0.9420 0.4562
vt 0.9420 0.4562
vt 0.9420 0.4562
vt 0.9420 0.4562
vt 0.9420 0.4562
vt 0.9420 0.4562
vt 0.9420 0.4562
vt 0.9420 0.4562
vt 0.9420 0.4562
vt 0.9420 0.4562
vt 0.9420 0.4562
vt 0.9420 0.4562
vt 0.9420 0.4562
vt 0.9420 0.4562
vt 0.9420 0.4562
vt 0.9420 0.4562
vt 0.9420 0.4562
vt 0.9420 0.4562
vt 0.9420 0.4562
vt 0.9420 0.4562
vt 0.9420 0.4562
vt 0.9420 0.4562
vt 0.9659 0.4514
vt 0.9659 0.4514
vt 0.9659 0.4514
vt 0.9659 0.4514
vt 0.9659 0.4514
vt 0.9659 0.4514
vt 0.9659 0.4514
vt 0.9659 0.4514
vt 0.9659 0.4514
vt 0.9659 0.4514
vt 0.9659 0.4514
vt 0.9659 0.4514
vt 0.9659 0.4514
vt 0.9659 0.4514
vt 0.9659 0.4514
vt 0.9659 0.4514
vt 0.9659 0.4514
vt 0.9659 0.4514
vt 0.9659 0.4514
vt 0.9659 0.4514
vt 0.9659 0.4514
vt 0.9659 0.4514
vt 0.9420 0.4562
vt 0.9420 0.4562
vt 0.9420 0.4562
vt 0.9420 0.4562
vt 0.9420 0.4562
vt 0.9420 0.4562
vt 0.9420 0.4562
vt 0.9420 0.4562
vt 0.9420 0.4562
vt 0.9420 0.4562
vt 0.9420 0.4562
vt 0.9420 0.4562
vt 0.9420 0.4562
vt 0.9420 0.4562
vt 0.9420 0.4562
vt 0.9420 0.4562
vt 0.9659 0.4514
vt 0.9659 0.4514
vt 0.9659 0.4514
vt 0.9420 0.4562
vt 0.9420 0.4562
vt 0.9420 0.4562
vt 0.9420 0.4562
vt 0.9420 0.4562
vt 0.9420 0.4562
vt 0.9420 0.4562
vt 0.9420 0.4562
vt 0.9420 0.4562
vt 0.9420 0.4562
vt 0.9420 0.4562
vt 0.9420 0.4562
vt 0.9420 0.4562
vt 0.9420 0.4562
vt 0.9659 0.4514
vt 0.9659 0.4514
vt 0.9659 0.4514
vt 0.9659 0.4514
vt 0.9659 0.4514
vt 0.9659 0.4514
vt 0.9659 0.4514
vt 0.9420 0.4562
vt 0.9420 0.4562
vt 0.9420 0.4562
vt 0.9420 0.4562
vt 0.9420 0.4562
vt 0.9420 0.4562
vt 0.9420 0.4562
vt 0.9659 0.4514
vt 0.9659 0.4514
vt 0.9659 0.4514
vt 0.9659 0.4514
vt 0.9659 0.4514
vt 0.9659 0.4514
vt 0.9659 0.4514
vt 0.9420 0.4562
vt 0.9420 0.4562
vt 0.9420 0.4562
vt 0.9420 0.4562
vt 0.9420 0.4562
vt 0.9420 0.4562
vt 0.9420 0.4562
vt 0.9659 0.4514
vt 0.9659 0.4514
vt 0.9659 0.4514
vt 0.9659 0.4514
vt 0.9659 0.4514
vt 0.9659 0.4514
vt 0.9659 0.4514
vt 0.9659 0.4514
vt 0.9659 0.4514
vt 0.9680 0.5024
vt 0.9680 0.5024
vt 0.9680 0.5024
vt 0.9680 0.5024
vt 0.9659 0.4514
vt 0.9659 0.4514
vt 0.9659 0.4514
vt 0.9659 0.4514
vt 0.9659 0.4514
vt 0.9659 0.4514
vt 0.9659 0.4514
vt 0.9659 0.4514
vt 0.9659 0.4514
vt 0.9659 0.4514
vt 0.9659 0.4514
vt 0.9659 0.4514
vt 0.9659 0.4514
vt 0.9659 0.4514
vt 0.9659 0.4514
vt 0.9659 0.4514
vt 0.9680 0.5024
vt 0.9680 0.5024
vt 0.9680 0.5024
vt 0.9680 0.5024
vt 0.9680 0.5024
vt 0.9680 0.5024
vt 0.9680 0.5024
vt 0.9680 0.5024
vt 0.9680 0.5024
vt 0.9680 0.5024
vt 0.9680 0.5024
vt 0.9680 0.5024
vt 0.9680 0.5024
vt 0.9680 0.5024
vt 0.9680 0.5024
vt 0.9680 0.5024
vt 0.9680 0.5024
vt 0.9680 0.5024
vt 0.9680 0.5024
vt 0.9680 0.5024
vt 0.9680 0.5024
vt 0.9680 0.5024
vt 0.9680 0.5024
vt 0.9680 0.5024
vt 0.9680 0.5024
vt 0.9680 0.5024
vn 0.0000 1.0000 0.0000
usemtl None
s 1
f 1/1/1 2/2/1 3/3/1
f 3/3/1 2/2/1 4/4/1
f 2/2/1 5/5/1 4/4/1
f 6/6/1 7/7/1 8/8/1
f 9/9/1 10/10/1 11/11/1
f 11/11/1 10/10/1 12/12/1
f 10/10/1 13/13/1 12/12/1
f 8/8/1 7/7/1 13/13/1
f 7/7/1 12/12/1 13/13/1
f 14/14/1 15/15/1 16/16/1
f 17/17/1 18/18/1 19/19/1
f 18/18/1 20/20/1 19/19/1
f 16/16/1 15/15/1 21/21/1
f 22/22/1 23/23/1 24/24/1
f 23/23/1 25/25/1 24/24/1
f 24/24/1 25/25/1 20/20/1
f 25/25/1 26/26/1 20/20/1
f 26/26/1 21/21/1 20/20/1
f 20/20/1 21/21/1 19/19/1
f 15/15/1 19/19/1 21/21/1
f 27/27/1 28/28/1 29/29/1
f 30/30/1 31/31/1 32/32/1
f 32/32/1 31/31/1 33/33/1
f 31/31/1 34/34/1 33/33/1
f 33/33/1 34/34/1 35/35/1
f 34/34/1 36/36/1 35/35/1
f 35/35/1 36/36/1 37/37/1
f 37/37/1 36/36/1 38/38/1
f 28/28/1 38/38/1 29/29/1
f 36/36/1 29/29/1 38/38/1
f 39/39/1 40/40/1 41/41/1
f 41/41/1 40/40/1 42/42/1
f 43/43/1 44/44/1 45/45/1
f 44/44/1 42/42/1 45/45/1
f 40/40/1 45/45/1 42/42/1
f 46/46/1 47/47/1 48/48/1
f 23/23/1 22/22/1 49/49/1
f 22/22/1 50/50/1 49/49/1
f 17/17/1 48/48/1 18/18/1
f 48/48/1 47/47/1 18/18/1
f 51/51/1 49/49/1 52/52/1
f 52/52/1 49/49/1 53/53/1
f 53/53/1 49/49/1 54/54/1
f 49/49/1 50/50/1 54/54/1
f 54/54/1 50/50/1 55/55/1
f 50/50/1 18/18/1 55/55/1
f 18/18/1 47/47/1 55/55/1
f 47/47/1 56/56/1 55/55/1
f 8/8/1 57/57/1 6/6/1
f 6/6/1 57/57/1 58/58/1
f 57/57/1 59/59/1 58/58/1
f 58/58/1 59/59/1 60/60/1
f 60/60/1 59/59/1 61/61/1
f 59/59/1 62/62/1 61/61/1
f 61/61/1 62/62/1 63/63/1
f 62/62/1 64/64/1 63/63/1
f 63/63/1 64/64/1 65/65/1
f 66/66/1 67/67/1 68/68/1
f 68/68/1 67/67/1 16/16/1
f 16/16/1 67/67/1 14/14/1
f 69/69/1 70/70/1 71/71/1
f 72/72/1 65/73/1 73/74/1
f 65/73/1 71/71/1 73/74/1
f 71/71/1 70/70/1 73/74/1
f 73/74/1 70/70/1 74/75/1
f 75/76/1 76/77/1 32/32/1
f 76/77/1 74/75/1 32/32/1
f 32/32/1 74/75/1 30/30/1
f 30/30/1 74/75/1 27/27/1
f 27/27/1 74/75/1 28/28/1
f 74/75/1 70/70/1 28/28/1
f 14/78/1 67/79/1 10/10/1
f 10/10/1 67/79/1 64/64/1
f 67/79/1 77/80/1 64/64/1
f 77/80/1 78/81/1 64/64/1
f 78/81/1 71/82/1 64/64/1
f 71/82/1 65/65/1 64/64/1
f 79/83/1 80/84/1 17/85/1
f 17/85/1 80/84/1 9/9/1
f 9/9/1 80/84/1 10/10/1
f 80/84/1 81/86/1 10/10/1
f 81/86/1 82/87/1 10/10/1
f 82/87/1 83/88/1 10/10/1
f 14/78/1 10/10/1 84/89/1
f 10/10/1 83/88/1 84/89/1
f 48/90/1 85/91/1 86/92/1
f 85/91/1 87/93/1 86/92/1
f 43/43/1 86/92/1 44/44/1
f 86/92/1 87/93/1 44/44/1
f 88/94/1 89/95/1 90/96/1
f 90/96/1 89/95/1 91/97/1
f 89/95/1 92/98/1 91/97/1
f 91/97/1 92/98/1 93/99/1
f 92/98/1 94/100/1 93/99/1
f 93/99/1 94/100/1 95/101/1
f 95/101/1 94/100/1 96/102/1
f 96/102/1 94/100/1 97/103/1
f 94/100/1 98/104/1 97/103/1
f 99/105/1 100/106/1 101/107/1
f 101/107/1 100/106/1 98/104/1
f 98/104/1 100/106/1 97/103/1
f 102/108/1 6/109/1 103/110/1
f 6/109/1 58/111/1 103/110/1
f 103/110/1 58/111/1 104/112/1
f 105/113/1 104/112/1 58/111/1
f 106/114/1 107/115/1 108/116/1
f 109/117/1 110/118/1 111/119/1
f 108/116/1 107/115/1 112/120/1
f 107/115/1 111/119/1 112/120/1
f 111/119/1 110/118/1 112/120/1
f 110/118/1 113/121/1 112/120/1
f 114/122/1 115/123/1 113/121/1
f 113/121/1 115/123/1 112/120/1
f 116/124/1 117/125/1 118/126/1
f 118/126/1 117/125/1 119/127/1
f 119/127/1 117/125/1 108/116/1
f 117/125/1 120/128/1 108/116/1
f 120/128/1 121/129/1 108/116/1
f 106/114/1 108/116/1 122/130/1
f 121/129/1 122/130/1 108/116/1
f 123/131/1 124/132/1 106/133/1
f 124/132/1 125/134/1 106/133/1
f 106/133/1 125/134/1 6/109/1
f 6/109/1 125/134/1 7/135/1
f 9/9/1 126/136/1 17/85/1
f 17/85/1 19/137/1 79/83/1
f 79/83/1 19/137/1 127/138/1
f 14/78/1 84/89/1 15/139/1
f 19/137/1 15/139/1 127/138/1
f 84/89/1 127/138/1 15/139/1
f 67/67/1 66/66/1 77/140/1
f 71/71/1 78/141/1 69/69/1
f 66/66/1 69/69/1 77/140/1
f 78/141/1 77/140/1 69/69/1
f 60/142/1 128/143/1 58/111/1
f 58/111/1 128/143/1 105/113/1
f 37/37/1 129/144/1 35/35/1
f 35/35/1 129/144/1 25/25/1
f 129/144/1 130/145/1 25/25/1
f 130/145/1 131/146/1 25/25/1
f 131/146/1 26/26/1 25/25/1
f 70/147/1 69/148/1 28/149/1
f 28/149/1 69/148/1 66/150/1
f 37/151/1 38/152/1 66/150/1
f 66/150/1 38/152/1 28/149/1
f 66/150/1 68/153/1 37/151/1
f 37/151/1 68/153/1 132/154/1
f 26/155/1 132/154/1 16/156/1
f 132/154/1 68/153/1 16/156/1
f 16/156/1 21/157/1 26/155/1
f 133/158/1 1/159/1 95/160/1
f 1/159/1 3/161/1 95/160/1
f 134/162/1 135/163/1 136/164/1
f 136/164/1 135/163/1 137/165/1
f 95/160/1 3/161/1 135/163/1
f 3/161/1 137/165/1 135/163/1
f 133/158/1 138/166/1 1/159/1
f 139/167/1 138/166/1 100/168/1
f 100/168/1 138/166/1 133/158/1
f 95/160/1 96/169/1 133/158/1
f 96/169/1 97/170/1 133/158/1
f 97/170/1 100/168/1 133/158/1
f 106/114/1 122/130/1 123/171/1
f 118/126/1 140/172/1 116/124/1
f 40/173/1 39/174/1 141/175/1
f 141/175/1 39/174/1 142/176/1
f 142/176/1 39/174/1 143/177/1
f 39/174/1 123/171/1 143/177/1
f 123/171/1 122/130/1 143/177/1
f 122/130/1 116/124/1 143/177/1
f 143/177/1 116/124/1 144/178/1
f 145/179/1 146/180/1 45/181/1
f 45/181/1 146/180/1 43/182/1
f 43/182/1 146/180/1 140/172/1
f 146/180/1 147/183/1 140/172/1
f 140/172/1 147/183/1 116/124/1
f 116/124/1 147/183/1 144/178/1
f 48/48/1 86/184/1 46/46/1
f 51/51/1 52/52/1 140/172/1
f 140/172/1 52/52/1 43/182/1
f 43/182/1 52/52/1 86/184/1
f 52/52/1 46/46/1 86/184/1
f 48/48/1 17/17/1 85/185/1
f 17/17/1 126/186/1 85/185/1
f 85/185/1 126/186/1 87/187/1
f 9/188/1 44/189/1 126/186/1
f 44/189/1 87/187/1 126/186/1
f 41/190/1 42/191/1 11/192/1
f 44/189/1 9/188/1 42/191/1
f 42/191/1 9/188/1 11/192/1
f 24/193/1 20/194/1 22/195/1
f 22/195/1 20/194/1 18/196/1
f 18/196/1 50/197/1 22/195/1
f 115/198/1 114/199/1 148/200/1
f 148/200/1 114/199/1 149/201/1
f 149/201/1 114/199/1 103/202/1
f 102/203/1 103/202/1 114/199/1
f 122/204/1 121/205/1 116/206/1
f 121/205/1 120/207/1 116/206/1
f 120/207/1 117/208/1 116/206/1
f 150/209/1 63/210/1 151/211/1
f 72/72/1 151/211/1 65/73/1
f 151/211/1 63/210/1 65/73/1
f 72/212/1 73/213/1 76/214/1
f 76/214/1 73/213/1 74/215/1
f 2/216/1 150/217/1 5/218/1
f 76/214/1 152/219/1 72/212/1
f 72/212/1 152/219/1 151/220/1
f 152/219/1 153/221/1 151/220/1
f 151/220/1 153/221/1 150/217/1
f 153/221/1 5/218/1 150/217/1
f 154/222/1 155/223/1 2/216/1
f 2/216/1 155/223/1 150/217/1
f 4/224/1 156/225/1 3/161/1
f 3/161/1 156/225/1 137/165/1
f 93/99/1 95/101/1 75/76/1
f 95/101/1 135/226/1 75/76/1
f 135/226/1 134/227/1 75/76/1
f 75/76/1 134/227/1 76/77/1
f 76/77/1 134/227/1 152/228/1
f 134/227/1 136/229/1 152/228/1
f 152/228/1 136/229/1 153/230/1
f 153/230/1 136/229/1 156/231/1
f 136/229/1 137/232/1 156/231/1
f 4/224/1 5/218/1 156/225/1
f 156/225/1 5/218/1 153/221/1
f 45/45/1 40/40/1 145/233/1
f 40/40/1 141/234/1 145/233/1
f 144/235/1 147/236/1 143/237/1
f 143/237/1 147/236/1 142/238/1
f 142/238/1 147/236/1 141/234/1
f 141/234/1 147/236/1 145/233/1
f 147/236/1 146/239/1 145/233/1
f 79/240/1 127/241/1 84/242/1
f 80/243/1 79/240/1 81/244/1
f 84/242/1 83/245/1 79/240/1
f 83/245/1 82/246/1 79/240/1
f 82/246/1 81/244/1 79/240/1
f 110/247/1 109/248/1 113/249/1
f 109/248/1 157/250/1 113/249/1
f 113/249/1 157/250/1 114/199/1
f 114/199/1 157/250/1 102/203/1
f 64/64/1 158/251/1 10/10/1
f 158/251/1 159/252/1 10/10/1
f 159/252/1 160/253/1 10/10/1
f 160/253/1 13/13/1 10/10/1
f 64/254/1 62/255/1 158/256/1
f 158/256/1 62/255/1 159/257/1
f 62/255/1 59/258/1 159/257/1
f 159/257/1 59/258/1 160/259/1
f 59/258/1 57/260/1 160/259/1
f 160/259/1 57/260/1 13/261/1
f 57/260/1 8/262/1 13/261/1
f 106/133/1 6/109/1 107/263/1
f 107/263/1 6/109/1 111/264/1
f 111/264/1 6/109/1 109/265/1
f 109/265/1 6/109/1 157/266/1
f 6/109/1 102/108/1 157/266/1
f 11/192/1 12/267/1 41/190/1
f 123/171/1 39/174/1 124/268/1
f 7/269/1 125/270/1 12/267/1
f 125/270/1 124/268/1 12/267/1
f 124/268/1 39/174/1 12/267/1
f 39/174/1 41/190/1 12/267/1
f 63/210/1 150/209/1 61/271/1
f 150/209/1 155/272/1 61/271/1
f 2/2/1 1/1/1 154/273/1
f 1/1/1 138/274/1 154/273/1
f 154/273/1 138/274/1 155/272/1
f 105/275/1 128/276/1 138/274/1
f 138/274/1 128/276/1 155/272/1
f 128/276/1 60/277/1 155/272/1
f 60/277/1 61/271/1 155/272/1
f 103/278/1 104/279/1 149/280/1
f 100/106/1 99/105/1 139/281/1
f 105/275/1 138/274/1 104/279/1
f 138/274/1 139/281/1 104/279/1
f 104/279/1 139/281/1 149/280/1
f 115/123/1 148/282/1 112/120/1
f 112/120/1 148/282/1 90/96/1
f 90/96/1 148/282/1 88/94/1
f 148/282/1 149/280/1 88/94/1
f 149/280/1 139/281/1 88/94/1
f 139/281/1 99/105/1 88/94/1
f 36/283/1 34/284/1 29/285/1
f 29/285/1 34/284/1 27/286/1
f 34/284/1 31/287/1 27/286/1
f 27/286/1 31/287/1 30/288/1
f 37/289/1 132/290/1 129/291/1
f 129/291/1 132/290/1 130/292/1
f 26/293/1 131/294/1 132/290/1
f 131/294/1 130/292/1 132/290/1
f 55/295/1 56/296/1 54/297/1
f 52/298/1 53/299/1 46/300/1
f 46/300/1 53/299/1 47/301/1
f 54/297/1 56/296/1 53/299/1
f 53/299/1 56/296/1 47/301/1
f 99/302/1 101/303/1 88/304/1
f 88/304/1 101/303/1 89/305/1
f 89/305/1 101/303/1 92/306/1
f 101/303/1 98/307/1 92/306/1
f 98/307/1 94/308/1 92/306/1
