# Blender v2.78 (sub 0) OBJ File: ''
# www.blender.org
mtllib SM_Env_Pebble_02.mtl
o SM_Env_Pebble_02
v -3.703369 -1.843563 1.584290
v 0.235840 -1.843563 3.089691
v -3.123291 1.843563 1.336212
v 0.198975 1.843562 2.605743
v -3.398926 -1.843562 -2.839020
v 2.346680 -1.843562 -3.089600
v 3.703369 -1.843563 1.228882
v 3.123291 1.843563 1.036377
v 1.979004 1.843563 -2.605712
v -2.866699 0.163434 -2.394379
v -2.962891 1.843563 -0.148865
v -0.575195 1.843563 -2.464722
vt 0.9431 0.5022
vt 0.9431 0.5022
vt 0.9431 0.5022
vt 0.9431 0.5022
vt 0.9431 0.5022
vt 0.9431 0.5022
vt 0.9431 0.5022
vt 0.9431 0.5022
vt 0.9431 0.5022
vt 0.9431 0.5022
vt 0.9431 0.5022
vt 0.9431 0.5022
vn -0.3545 0.1182 0.9276
vn -0.0000 -1.0000 -0.0000
vn 0.9455 0.1332 -0.2970
vn 0.9455 0.1333 -0.2971
vn -0.5125 0.6769 -0.5284
vn 0.4695 0.1195 0.8748
vn -0.9607 0.2694 -0.0661
vn -0.9814 0.1312 -0.1402
vn -0.9833 0.1476 -0.1062
vn -0.0000 1.0000 0.0000
vn -0.0424 0.2268 -0.9730
vn -0.0971 0.0910 -0.9911
vn -0.0547 0.1246 -0.9907
usemtl None
s 1
f 1/1/1 2/2/1 3/3/1
f 3/3/1 2/2/1 4/4/1
f 5/5/2 6/6/2 1/1/2
f 1/1/2 6/6/2 2/2/2
f 6/6/2 7/7/2 2/2/2
f 7/7/3 6/6/4 8/8/4
f 8/8/4 6/6/4 9/9/4
f 10/10/5 11/11/5 12/12/5
f 4/4/6 2/2/6 8/8/6
f 8/8/6 2/2/6 7/7/6
f 5/5/7 1/1/7 10/10/7
f 10/10/8 1/1/8 11/11/8
f 1/1/9 3/3/9 11/11/9
f 8/8/10 9/9/10 4/4/10
f 9/9/10 12/12/10 4/4/10
f 12/12/10 11/11/10 4/4/10
f 3/3/10 4/4/10 11/11/10
f 5/5/11 10/10/11 6/6/11
f 10/10/12 12/12/12 6/6/12
f 12/12/13 9/9/13 6/6/13
