# Blender v2.78 (sub 0) OBJ File: ''
# www.blender.org
mtllib SM_Env_Pebble_07.mtl
o SM_Env_Pebble_07
v -5.360352 -0.000001 5.360291
v 5.360352 -0.000001 5.360291
v -5.360352 10.514075 5.360293
v 1.270020 10.514075 5.360293
v 5.360352 8.107566 5.360292
v -5.360352 10.514076 -1.152067
v -3.583252 10.514076 -3.014280
v 2.959717 10.514076 -3.922392
v 5.360352 10.514076 -1.291563
v 5.360352 10.514076 3.465914
v -5.360352 0.000001 -5.360352
v 5.360352 0.000001 -5.360352
v 5.360352 2.193595 -5.360352
v -5.360352 5.469642 -5.360351
v 2.604980 8.368478 -5.360351
v -4.125488 7.020703 -5.360351
vt 0.9431 0.5022
vt 0.9431 0.5022
vt 0.9431 0.5022
vt 0.9431 0.5022
vt 0.9431 0.5022
vt 0.9431 0.5022
vt 0.9431 0.5022
vt 0.9431 0.5022
vt 0.9431 0.5022
vt 0.9431 0.5022
vt 0.9431 0.5022
vt 0.9431 0.5022
vt 0.9431 0.5022
vt 0.9431 0.5022
vt 0.9431 0.5022
vt 0.9431 0.5022
vn 0.0000 -0.0000 1.0000
vn 0.0000 1.0000 0.0000
vn 0.0000 -1.0000 -0.0000
vn 1.0000 0.0000 0.0000
vn -1.0000 0.0000 0.0000
vn 0.0000 0.0000 -1.0000
vn -0.6269 0.4991 -0.5983
vn 0.3420 0.5812 0.7384
vn 0.7016 0.3130 -0.6402
vn -0.1133 0.5660 -0.8166
usemtl None
s 1
f 1/1/1 2/2/1 3/3/1
f 3/3/1 2/2/1 4/4/1
f 2/2/1 5/5/1 4/4/1
f 3/3/2 4/4/2 6/6/2
f 6/6/2 4/4/2 7/7/2
f 7/7/2 4/4/2 8/8/2
f 8/8/2 4/4/2 9/9/2
f 4/4/2 10/10/2 9/9/2
f 11/11/3 12/12/3 1/1/3
f 1/1/3 12/12/3 2/2/3
f 2/2/4 12/12/4 5/5/4
f 12/12/4 13/13/4 5/5/4
f 5/5/4 13/13/4 10/10/4
f 13/13/4 9/9/4 10/10/4
f 11/11/5 1/1/5 14/14/5
f 14/14/5 1/1/5 6/6/5
f 1/1/5 3/3/5 6/6/5
f 12/12/6 11/11/6 13/13/6
f 13/13/6 11/11/6 15/15/6
f 15/15/6 11/11/6 16/16/6
f 14/14/6 16/16/6 11/11/6
f 7/7/7 16/16/7 6/6/7
f 6/6/7 16/16/7 14/14/7
f 4/4/8 5/5/8 10/10/8
f 8/8/9 9/9/9 15/15/9
f 15/15/9 9/9/9 13/13/9
f 8/8/10 15/15/10 7/7/10
f 7/7/10 15/15/10 16/16/10
