# Blender v2.78 (sub 0) OBJ File: ''
# www.blender.org
mtllib SM_Env_Mushroom_01.mtl
o SM_Env_Mushroom_01
v 5.946785 -30.265881 -10.323044
v -5.947014 -30.265881 -10.323044
v 8.328377 -20.841103 -14.447924
v -8.328606 -20.841103 -14.447924
v -11.894279 -30.265884 -0.022389
v -16.657463 -20.841106 -0.022386
v -5.947014 -30.265888 10.278149
v -8.328606 -20.841110 14.402723
v 5.946785 -30.265888 10.278149
v 8.328377 -20.841110 14.402723
v 11.894051 -30.265884 -0.022389
v 16.657234 -20.841106 -0.022386
v -0.000481 -30.265884 -0.022389
v 11.889168 24.173500 -20.616488
v -11.890373 24.173500 -20.616488
v -0.000725 30.265884 -0.022308
v -23.779289 24.173492 -0.022310
v -11.890373 24.173485 20.571318
v 11.889168 24.173485 20.571318
v 23.779060 24.173492 -0.022310
v -15.691956 11.022912 -27.200918
v -9.612751 13.181107 -23.368643
v -4.621618 4.896064 -8.027288
v 15.690639 11.022912 -27.200918
v 4.621387 4.896064 -8.027288
v 0.148445 11.022912 -27.200918
v -9.242744 4.896061 -0.022431
v -31.381210 11.022903 -0.022300
v -4.621618 4.896058 7.981926
v -15.691956 11.022895 27.156054
v -2.384268 11.022895 27.156054
v 15.690639 11.022895 27.156054
v 11.094307 11.152823 27.200922
v 4.621387 4.896058 7.981926
v 3.992824 13.349766 24.345201
v 9.242516 4.896061 -0.022431
v 31.381210 11.022903 -0.022300
vt 0.0967 0.4157
vt 0.0967 0.4157
vt 0.0967 0.4157
vt 0.0967 0.4157
vt 0.0967 0.4157
vt 0.0967 0.4157
vt 0.0967 0.4157
vt 0.0967 0.4157
vt 0.0967 0.4157
vt 0.0967 0.4157
vt 0.0967 0.4157
vt 0.0967 0.4157
vt 0.0967 0.4157
vt 0.1476 0.7077
vt 0.1476 0.7077
vt 0.1476 0.7077
vt 0.1476 0.7077
vt 0.1476 0.7077
vt 0.1476 0.7077
vt 0.1476 0.7077
vt 0.1476 0.7077
vt 0.1476 0.7077
vt 0.1476 0.7077
vt 0.1476 0.7077
vt 0.1476 0.7077
vt 0.1476 0.7077
vt 0.1476 0.7077
vt 0.1476 0.7077
vt 0.1476 0.7077
vt 0.1476 0.7077
vt 0.1476 0.7077
vt 0.1476 0.7077
vt 0.1476 0.7077
vt 0.1476 0.7077
vt 0.1476 0.7077
vt 0.1476 0.7077
vt 0.1476 0.7077
vt 0.0967 0.4157
vt 0.0967 0.4157
vt 0.0967 0.4157
vt 0.0967 0.4157
vt 0.0967 0.4157
vt 0.0967 0.4157
vn 0.0000 -0.4009 -0.9161
vn -0.7934 -0.4010 -0.4581
vn -0.7934 -0.4010 0.4581
vn -0.7934 -0.4009 0.4581
vn 0.0000 -0.4009 0.9161
vn 0.7934 -0.4009 0.4581
vn 0.7934 -0.4010 0.4581
vn 0.7934 -0.4010 -0.4581
vn 0.0000 -1.0000 -0.0000
vn 0.0000 0.9589 -0.2837
vn -0.2457 0.9589 -0.1418
vn -0.2457 0.9589 0.1418
vn 0.0000 0.9589 0.2837
vn 0.2457 0.9589 0.1418
vn 0.2457 0.9589 -0.1418
vn 0.5595 -0.6395 -0.5274
vn 0.0000 -0.9525 -0.3044
vn -0.3343 -0.8705 -0.3613
vn -0.2636 -0.9525 -0.1522
vn -0.2636 -0.9525 0.1522
vn 0.0000 -0.9526 0.3044
vn -0.0237 -0.9482 0.3167
vn -0.4149 -0.8148 0.4050
vn 0.4217 -0.8768 0.2310
vn 0.0000 -0.8884 0.4590
vn 0.2636 -0.9525 0.1522
vn 0.2636 -0.9525 -0.1522
vn 0.0000 0.4477 -0.8942
vn -0.7744 0.4477 -0.4470
vn -0.7744 0.4477 -0.4471
vn -0.7744 0.4477 0.4471
vn 0.0000 0.4477 0.8942
vn 0.7744 0.4477 0.4471
vn 0.7744 0.4477 -0.4471
vn 0.0000 0.2421 0.9703
vn -0.8403 0.2421 0.4852
vn -0.8403 0.2421 0.4851
vn -0.8403 0.2421 -0.4851
vn 0.0000 0.2421 -0.9703
vn 0.8403 0.2421 -0.4851
vn 0.8403 0.2420 -0.4851
vn 0.8403 0.2421 0.4852
vn 0.8403 0.2421 0.4851
vn 0.3927 0.0339 0.9190
vn -0.2080 0.4539 0.8665
vn 0.0215 0.4526 0.8915
vn -0.3287 0.1647 -0.9300
vn 0.4293 0.3021 -0.8511
usemtl None
s 1
f 1/1/1 2/2/1 3/3/1
f 3/3/1 2/2/1 4/4/1
f 2/2/2 5/5/2 4/4/2
f 4/4/2 5/5/2 6/6/2
f 5/5/3 7/7/4 6/6/4
f 6/6/4 7/7/4 8/8/4
f 7/7/5 9/9/5 8/8/5
f 8/8/5 9/9/5 10/10/5
f 9/9/6 11/11/6 10/10/6
f 10/10/6 11/11/6 12/12/7
f 11/11/8 1/1/8 12/12/8
f 12/12/8 1/1/8 3/3/8
f 2/2/9 1/1/9 13/13/9
f 5/5/9 2/2/9 13/13/9
f 7/7/9 5/5/9 13/13/9
f 9/9/9 7/7/9 13/13/9
f 11/11/9 9/9/9 13/13/9
f 1/1/9 11/11/9 13/13/9
f 14/14/10 15/15/10 16/16/10
f 15/15/11 17/17/11 16/16/11
f 17/17/12 18/18/12 16/16/12
f 18/18/13 19/19/13 16/16/13
f 19/19/14 20/20/14 16/16/14
f 20/20/15 14/14/15 16/16/15
f 21/21/16 22/22/16 23/23/16
f 24/24/17 25/25/17 26/26/17
f 25/25/17 23/23/17 26/26/17
f 23/23/18 22/22/18 26/26/18
f 23/23/19 27/27/19 21/21/19
f 21/21/19 27/27/19 28/28/19
f 27/27/20 29/29/20 28/28/20
f 28/28/20 29/29/20 30/30/20
f 30/30/21 29/29/21 31/31/21
f 32/32/22 33/33/22 34/34/22
f 33/33/23 35/35/23 34/34/23
f 31/31/24 29/29/24 35/35/24
f 29/29/25 34/34/25 35/35/25
f 34/34/26 36/36/26 32/32/26
f 32/32/26 36/36/26 37/37/26
f 36/36/27 25/25/27 37/37/27
f 37/37/27 25/25/27 24/24/27
f 24/24/28 26/26/28 14/14/28
f 14/14/28 26/26/28 15/15/28
f 21/21/29 28/28/30 15/15/29
f 15/15/29 28/28/30 17/17/30
f 28/28/31 30/30/31 17/17/31
f 17/17/31 30/30/31 18/18/31
f 30/30/32 31/31/32 18/18/32
f 18/18/32 31/31/32 19/19/32
f 32/32/33 37/37/33 19/19/33
f 19/19/33 37/37/33 20/20/33
f 37/37/34 24/24/34 20/20/34
f 20/20/34 24/24/34 14/14/34
f 8/8/35 10/10/35 29/38/35
f 29/38/35 10/10/35 34/39/35
f 6/6/36 8/8/37 27/40/37
f 27/40/37 8/8/37 29/38/37
f 4/4/38 6/6/38 23/41/38
f 23/41/38 6/6/38 27/40/38
f 3/3/39 4/4/39 25/42/39
f 25/42/39 4/4/39 23/41/39
f 12/12/40 3/3/40 36/43/40
f 36/43/40 3/3/40 25/42/41
f 10/10/42 12/12/43 34/39/43
f 34/39/43 12/12/43 36/43/43
f 19/19/44 31/31/44 35/35/44
f 19/19/45 35/35/45 33/33/45
f 19/19/46 33/33/46 32/32/46
f 15/15/47 26/26/47 22/22/47
f 15/15/48 22/22/48 21/21/48
