# This file uses centimeters as units for non-parametric coordinates.

v -7.549805 1.005238 7.948242
v -1.067871 39.005539 -0.969299
v -7.302002 -0.328251 -7.422729
v 1.071045 -8.733794 -1.431519
v -3.862549 18.830246 6.850433
v -10.979004 0.800998 -0.322968
v 6.348389 -6.558686 -5.990692
v 3.594238 28.268646 -2.672363
v 0.520996 25.726683 -5.103973
v 0.547363 17.794243 -7.879669
v -3.087402 28.617556 -3.508453
v -1.330566 36.886795 1.533203
v 1.005859 26.292826 5.194489
v 6.384277 17.603107 -4.749817
v 0.319336 -2.715983 -10.453339
v -0.329834 11.208270 -10.259918
v -5.797363 22.825483 0.039307
v 0.313965 -7.230699 4.811676
v 10.799072 -2.788954 -0.052826
v 7.916748 2.411460 -7.735626
v 1.121094 7.031489 10.895660
v 8.120117 1.733076 7.715729
v -7.543701 4.753638 -8.044525
v 7.858398 10.884868 -6.830017
v -2.530029 -7.916955 -3.005402
v -7.715332 -4.583272 -0.057190
v -6.825439 16.303751 -6.069702
v -5.261963 -4.390096 5.619904
v -6.921387 9.217301 7.525543
v 0.994629 12.614083 10.407043
v 1.050293 20.436403 7.894073
v 4.947754 23.774240 3.805206
v 0.143311 37.694515 -1.986877
v 1.194824 38.397568 1.195251
v 6.879883 -4.521256 -8.127106
v 0.063477 -6.478678 -6.887360
v -4.878662 -7.408290 0.459564
v -9.556641 -1.534355 2.358948
v -1.805908 -8.212281 2.553558
v 0.972656 0.905717 10.682770
v 3.873047 -7.030787 4.481262
v 7.962646 15.359355 6.585236
v 9.956055 14.465865 2.637512
v 0.063721 41.146084 -0.057098
v 4.314941 29.420023 0.381897
v 10.978271 -1.320331 -0.932037
v 0.976074 -1.242031 -10.895782
v 7.751465 -2.494946 6.871277
v 10.978516 -0.711042 0.894440
v -10.309326 9.452085 -0.619690
v -10.453369 8.186255 0.477020
v -1.754395 11.695016 9.988068
vt 0.943115 0.502157
vt 0.943115 0.502156
vt 0.943115 0.502156
vt 0.943115 0.502155
vt 0.943115 0.502157
vt 0.943115 0.502157
vt 0.943115 0.502156
vt 0.943115 0.502156
vt 0.943115 0.502157
vt 0.943115 0.502155
vt 0.943115 0.502155
vt 0.943115 0.502156
vt 0.943115 0.502157
vt 0.943115 0.502156
vt 0.943115 0.502157
vt 0.943115 0.502155
vt 0.943115 0.502155
vt 0.943115 0.502157
vt 0.943115 0.502157
vt 0.943115 0.502156
vt 0.943115 0.502156
vt 0.943115 0.502157
vt 0.943115 0.502157
vt 0.943115 0.502155
vt 0.943115 0.502155
vt 0.943115 0.502157
vt 0.943115 0.502157
vt 0.943115 0.502157
vt 0.943115 0.502155
vt 0.943115 0.502155
vt 0.943115 0.502155
vt 0.943115 0.502159
vt 0.943115 0.502159
vt 0.943115 0.502155
vt 0.943115 0.502159
vt 0.943115 0.502155
vt 0.943115 0.502155
vt 0.943115 0.502159
vt 0.943115 0.502159
vt 0.943115 0.502156
vt 0.943115 0.502157
vt 0.943115 0.502157
vt 0.943115 0.502157
vt 0.943115 0.502157
vt 0.943115 0.502157
vt 0.943115 0.502157
vt 0.943115 0.502157
vt 0.943115 0.502157
vt 0.943115 0.502157
vt 0.943115 0.502157
vt 0.943115 0.502157
vt 0.943115 0.502157
vn 0.093879 -0.688197 -0.719425
vn 0.093879 -0.688197 -0.719425
vn 0.093879 -0.688197 -0.719425
vn 0.903352 0.294702 -0.311618
vn 0.903352 0.294702 -0.311618
vn 0.903352 0.294702 -0.311618
vn 0.423856 -0.903776 0.059446
vn 0.423856 -0.903776 0.059446
vn 0.423856 -0.903776 0.059446
vn -0.290356 0.359222 -0.886935
vn -0.290356 0.359222 -0.886935
vn -0.290356 0.359222 -0.886935
vn -0.635801 -0.698497 -0.328419
vn -0.635801 -0.698497 -0.328419
vn -0.635801 -0.698497 -0.328419
vn -0.927803 0.322285 -0.187920
vn -0.927803 0.322285 -0.187920
vn -0.927803 0.322285 -0.187920
vn -0.855795 0.301820 0.420143
vn -0.855795 0.301820 0.420143
vn -0.855795 0.301820 0.420143
vn -0.503338 0.218867 0.835912
vn -0.503338 0.218868 0.835912
vn -0.503338 0.218868 0.835912
vn 0.083475 -0.940171 0.330319
vn 0.083475 -0.940171 0.330319
vn 0.083475 -0.940171 0.330319
vn 0.107461 -0.587467 0.802081
vn 0.107461 -0.587467 0.802081
vn 0.107461 -0.587467 0.802081
vn 0.167969 -0.568120 0.805621
vn 0.167969 -0.568120 0.805621
vn 0.167970 -0.568120 0.805621
vn 0.373925 0.281260 0.883783
vn 0.373925 0.281260 0.883783
vn 0.373925 0.281260 0.883783
vn 0.924491 0.018553 0.380752
vn 0.924491 0.018553 0.380752
vn 0.924491 0.018553 0.380752
vn 0.903038 0.296729 -0.310604
vn 0.903038 0.296729 -0.310604
vn 0.903038 0.296729 -0.310604
vn 0.459046 0.294785 -0.838080
vn 0.459046 0.294785 -0.838080
vn 0.459046 0.294785 -0.838080
vn 0.441381 0.281426 -0.852046
vn 0.441381 0.281426 -0.852046
vn 0.441381 0.281426 -0.852046
vn -0.200762 0.269263 -0.941909
vn -0.200762 0.269263 -0.941909
vn -0.200762 0.269263 -0.941909
vn -0.151418 0.326024 -0.933156
vn -0.151418 0.326024 -0.933156
vn -0.151418 0.326024 -0.933156
vn -0.922123 0.251197 -0.294261
vn -0.922123 0.251197 -0.294261
vn -0.922123 0.251197 -0.294261
vn -0.928767 0.320626 -0.185986
vn -0.928767 0.320626 -0.185986
vn -0.928767 0.320626 -0.185986
vn -0.887597 0.240202 0.393034
vn -0.887596 0.240202 0.393033
vn -0.887596 0.240202 0.393033
vn -0.312786 0.395663 0.863491
vn -0.312786 0.395663 0.863491
vn -0.312786 0.395663 0.863491
vn -0.133969 0.297177 0.945377
vn -0.133969 0.297177 0.945377
vn -0.133969 0.297177 0.945377
vn -0.061043 0.313982 0.947465
vn -0.061043 0.313982 0.947465
vn -0.061043 0.313982 0.947465
vn 0.458400 0.422544 0.781874
vn 0.458400 0.422544 0.781874
vn 0.458400 0.422544 0.781874
vn 0.469095 0.270440 0.840721
vn 0.469095 0.270440 0.840721
vn 0.469095 0.270440 0.840721
vn 0.507698 0.363835 0.780940
vn 0.507698 0.363835 0.780940
vn 0.507698 0.363835 0.780940
vn 0.801913 0.372909 0.466771
vn 0.801913 0.372909 0.466771
vn 0.801913 0.372909 0.466771
vn 0.907371 0.287581 0.306553
vn 0.907371 0.287581 0.306553
vn 0.907371 0.287581 0.306553
vn 0.846901 0.413770 0.333995
vn 0.846901 0.413770 0.333995
vn 0.846901 0.413771 0.333995
vn 0.892049 0.311136 -0.327784
vn 0.892049 0.311136 -0.327784
vn 0.892049 0.311136 -0.327784
vn -0.489749 0.205245 -0.847361
vn -0.489749 0.205245 -0.847361
vn -0.489749 0.205245 -0.847361
vn -0.102489 0.377216 0.920437
vn -0.102489 0.377216 0.920437
vn -0.102489 0.377216 0.920437
vn -0.010918 -0.897524 -0.440831
vn -0.010918 -0.897524 -0.440831
vn -0.010918 -0.897524 -0.440831
vn 0.451124 0.352813 -0.819762
vn 0.451124 0.352813 -0.819763
vn 0.451124 0.352813 -0.819762
vn 0.034602 -0.944458 -0.326807
vn 0.034602 -0.944458 -0.326807
vn 0.034602 -0.944458 -0.326807
vn -0.401276 -0.130022 -0.906682
vn -0.401276 -0.130022 -0.906682
vn -0.401276 -0.130022 -0.906682
vn -0.450870 -0.597651 -0.662970
vn -0.450870 -0.597651 -0.662970
vn -0.450870 -0.597651 -0.662970
vn -0.646506 -0.644326 -0.408502
vn -0.646506 -0.644326 -0.408502
vn -0.646506 -0.644326 -0.408502
vn -0.499782 -0.648496 -0.574170
vn -0.499782 -0.648496 -0.574170
vn -0.499782 -0.648496 -0.574170
vn -0.890010 -0.096844 -0.445537
vn -0.890010 -0.096844 -0.445537
vn -0.890010 -0.096844 -0.445537
vn -0.430982 0.178052 -0.884620
vn -0.430982 0.178052 -0.884620
vn -0.430982 0.178052 -0.884620
vn -0.680032 -0.661407 0.316383
vn -0.680032 -0.661407 0.316383
vn -0.680032 -0.661407 0.316383
vn -0.696736 -0.640546 0.322892
vn -0.696736 -0.640546 0.322892
vn -0.696736 -0.640546 0.322892
vn -0.219034 -0.975703 -0.005231
vn -0.219034 -0.975703 -0.005231
vn -0.219034 -0.975703 -0.005231
vn -0.883604 0.279606 0.375587
vn -0.883604 0.279606 0.375587
vn -0.883604 0.279606 0.375587
vn -0.708937 -0.510581 0.486535
vn -0.708937 -0.510581 0.486535
vn -0.708937 -0.510581 0.486535
vn -0.292880 -0.745319 0.598933
vn -0.292880 -0.745319 0.598933
vn -0.292880 -0.745319 0.598933
vn -0.484179 -0.770467 0.414669
vn -0.484179 -0.770467 0.414669
vn -0.484179 -0.770467 0.414669
vn -0.315615 -0.009948 0.948835
vn -0.315615 -0.009948 0.948835
vn -0.315615 -0.009948 0.948835
vn -0.273634 -0.476574 0.835465
vn -0.273634 -0.476574 0.835465
vn -0.273634 -0.476574 0.835465
vn -0.172217 -0.567201 0.805372
vn -0.172217 -0.567201 0.805373
vn -0.172217 -0.567201 0.805373
vn 0.387151 -0.041392 0.921087
vn 0.387151 -0.041392 0.921087
vn 0.387151 -0.041392 0.921087
vn -0.289762 0.294607 0.910629
vn -0.289762 0.294607 0.910629
vn -0.289762 0.294607 0.910629
vn 0.127154 -0.967537 0.218414
vn 0.127154 -0.967537 0.218414
vn 0.127154 -0.967537 0.218414
vn 0.880287 -0.257636 0.398394
vn 0.880287 -0.257636 0.398394
vn 0.880287 -0.257636 0.398394
vn 0.635803 -0.706922 0.309862
vn 0.635803 -0.706923 0.309862
vn 0.635803 -0.706923 0.309862
vn 0.895906 0.047003 0.441751
vn 0.895906 0.047003 0.441751
vn 0.895906 0.047003 0.441751
vn 0.565076 -0.819360 0.096633
vn 0.565076 -0.819360 0.096633
vn 0.565076 -0.819360 0.096633
vn 0.900743 0.291169 -0.322308
vn 0.900743 0.291169 -0.322308
vn 0.900743 0.291169 -0.322308
vn 0.475569 0.235745 -0.847501
vn 0.475569 0.235745 -0.847501
vn 0.475569 0.235745 -0.847501
vn 0.773428 0.322834 -0.545516
vn 0.773428 0.322834 -0.545516
vn 0.773428 0.322834 -0.545516
vn -0.206297 0.473881 -0.856083
vn -0.206297 0.473881 -0.856083
vn -0.206297 0.473881 -0.856083
vn 0.935766 0.335153 -0.109612
vn 0.935766 0.335153 -0.109612
vn 0.935766 0.335153 -0.109612
vn -0.897691 0.378247 0.226009
vn -0.897691 0.378247 0.226009
vn -0.897691 0.378247 0.226009
vn 0.811682 -0.510106 -0.284543
vn 0.811682 -0.510106 -0.284543
vn 0.811682 -0.510106 -0.284543
vn 0.042147 -0.728245 -0.684019
vn 0.042147 -0.728245 -0.684019
vn 0.042147 -0.728245 -0.684019
vn 0.419342 -0.011458 -0.907756
vn 0.419341 -0.011458 -0.907756
vn 0.419341 -0.011458 -0.907756
vn 0.877295 -0.320776 -0.357011
vn 0.877295 -0.320776 -0.357011
vn 0.877295 -0.320776 -0.357011
vn 0.883609 -0.106405 -0.455976
vn 0.883609 -0.106405 -0.455976
vn 0.883609 -0.106405 -0.455976
vn 0.218874 -0.368704 -0.903411
vn 0.218874 -0.368704 -0.903411
vn 0.218874 -0.368704 -0.903411
vn -0.381626 -0.105602 -0.918265
vn -0.381626 -0.105602 -0.918265
vn -0.381626 -0.105602 -0.918265
vn -0.903708 -0.346812 -0.251064
vn -0.903708 -0.346812 -0.251064
vn -0.903708 -0.346812 -0.251064
vn -0.679967 -0.692132 -0.242071
vn -0.679967 -0.692132 -0.242071
vn -0.679967 -0.692132 -0.242071
vn -0.879383 0.011029 0.475987
vn -0.879383 0.011029 0.475987
vn -0.879383 0.011029 0.475987
vn -0.938125 -0.019606 0.345742
vn -0.938125 -0.019606 0.345742
vn -0.938125 -0.019606 0.345742
vn -0.305691 -0.025670 0.951785
vn -0.305691 -0.025670 0.951785
vn -0.305691 -0.025670 0.951785
vn 0.395527 -0.212930 0.893431
vn 0.395527 -0.212930 0.893431
vn 0.395527 -0.212930 0.893431
vn 0.887674 -0.163384 0.430513
vn 0.887674 -0.163384 0.430513
vn 0.887673 -0.163384 0.430513
vn 0.994298 -0.101194 0.033624
vn 0.994298 -0.101194 0.033624
vn 0.994298 -0.101194 0.033624
vn -0.281481 0.276566 -0.918847
vn -0.281481 0.276566 -0.918847
vn -0.281481 0.276566 -0.918847
vn -0.228740 -0.972752 -0.037834
vn -0.228740 -0.972752 -0.037834
vn -0.228740 -0.972752 -0.037834
vn -0.947603 0.285875 0.142564
vn -0.947603 0.285875 0.142564
vn -0.947603 0.285875 0.142564
vn 0.461112 0.078657 0.883849
vn 0.461112 0.078657 0.883849
vn 0.461112 0.078657 0.883849
vn 0.452178 0.087929 0.887583
vn 0.452178 0.087929 0.887583
vn 0.452178 0.087929 0.887583
vn 0.997280 0.069879 -0.023444
vn 0.997280 0.069879 -0.023444
vn 0.997280 0.069879 -0.023444
vn 0.958631 0.120399 -0.257937
vn 0.958631 0.120399 -0.257937
vn 0.958631 0.120399 -0.257937
vn 0.920434 0.047802 -0.387963
vn 0.920434 0.047802 -0.387963
vn 0.920434 0.047802 -0.387963
vn 0.283543 0.156292 -0.946137
vn 0.283543 0.156292 -0.946137
vn 0.283543 0.156292 -0.946137
vn 0.367573 0.101334 -0.924457
vn 0.367573 0.101334 -0.924457
vn 0.367573 0.101334 -0.924457
vn -0.306917 0.016408 -0.951595
vn -0.306917 0.016408 -0.951595
vn -0.306917 0.016408 -0.951595
vn 0.788282 0.113568 -0.604742
vn 0.788282 0.113568 -0.604742
vn 0.788282 0.113568 -0.604742
vn -0.922857 0.058381 -0.380692
vn -0.922857 0.058381 -0.380692
vn -0.922857 0.058381 -0.380692
vn -0.900506 0.127101 -0.415853
vn -0.900506 0.127101 -0.415853
vn -0.900506 0.127101 -0.415853
vn -0.996185 0.075620 -0.043558
vn -0.996185 0.075620 -0.043558
vn -0.996185 0.075620 -0.043558
vn -0.895595 0.090950 0.435475
vn -0.895595 0.090950 0.435475
vn -0.895595 0.090950 0.435475
vn -0.838780 0.407905 0.360641
vn -0.838780 0.407905 0.360641
vn -0.838780 0.407905 0.360641
vn -0.460101 0.080721 0.884189
vn -0.460101 0.080721 0.884189
vn -0.460101 0.080721 0.884189
vn -0.176849 0.081841 0.980830
vn -0.176849 0.081841 0.980830
vn -0.176849 0.081841 0.980830
vn -0.248422 0.327475 0.911618
vn -0.248422 0.327475 0.911618
vn -0.248422 0.327475 0.911618
s off
f 15/1/1 7/2/2 36/3/3
f 14/4/4 43/5/5 24/6/6
f 4/7/7 7/2/8 41/8/9
f 16/9/10 27/10/11 10/11/12
f 37/12/13 26/13/14 25/14/15
f 50/15/16 17/16/17 27/10/18
f 5/17/19 17/16/20 29/18/21
f 52/19/22 5/17/23 29/18/24
f 39/20/25 41/8/26 18/21/27
f 18/21/28 41/8/29 40/22/30
f 48/23/31 40/22/32 41/8/33
f 42/24/34 31/25/35 30/26/36
f 49/27/37 43/5/38 22/28/39
f 8/29/40 43/5/41 14/4/42
f 10/11/43 9/30/44 14/4/45
f 9/30/46 8/29/47 14/4/48
f 11/31/49 2/32/50 9/30/51
f 11/31/52 9/30/53 10/11/54
f 17/16/55 2/32/56 11/31/57
f 17/16/58 11/31/59 27/10/60
f 12/33/61 17/16/62 5/17/63
f 31/25/64 13/34/65 5/17/66
f 13/34/67 12/33/68 5/17/69
f 13/34/70 34/35/71 12/33/72
f 42/24/73 32/36/74 31/25/75
f 32/36/76 34/35/77 13/34/78
f 31/25/79 32/36/80 13/34/81
f 43/5/82 45/37/83 32/36/84
f 32/36/85 45/37/86 34/35/87
f 43/5/88 32/36/89 42/24/90
f 8/29/91 44/38/92 45/37/93
f 2/32/94 33/39/95 9/30/96
f 44/38/97 12/33/98 34/35/99
f 7/2/100 4/7/101 25/14/102
f 24/6/103 10/11/104 14/4/105
f 36/3/106 7/2/107 25/14/108
f 23/40/109 15/1/110 3/41/111
f 15/1/112 36/3/113 3/41/114
f 26/13/115 3/41/116 25/14/117
f 3/41/118 36/3/119 25/14/120
f 23/40/121 3/41/122 6/42/123
f 16/9/124 23/40/125 27/10/126
f 38/43/127 26/13/128 28/44/129
f 28/44/130 26/13/131 37/12/132
f 37/12/133 25/14/134 4/7/135
f 50/15/136 29/18/137 17/16/138
f 1/45/139 38/43/140 28/44/141
f 18/21/142 28/44/143 39/20/144
f 28/44/145 37/12/146 39/20/147
f 1/45/148 21/46/149 52/19/150
f 1/45/151 28/44/152 40/22/153
f 40/22/154 28/44/155 18/21/156
f 21/46/157 40/22/158 22/28/159
f 5/17/160 30/26/161 31/25/162
f 41/8/163 39/20/164 4/7/165
f 49/27/166 48/23/167 19/47/168
f 48/23/169 41/8/170 19/47/171
f 22/28/172 43/5/173 42/24/174
f 19/47/175 41/8/176 7/2/177
f 43/5/178 8/29/179 45/37/180
f 33/39/181 8/29/182 9/30/183
f 8/29/184 33/39/185 44/38/186
f 33/39/187 2/32/188 44/38/189
f 44/38/190 34/35/191 45/37/192
f 44/38/193 2/32/194 12/33/195
f 7/2/196 35/48/197 19/47/198
f 7/2/199 15/1/200 35/48/201
f 35/48/202 47/49/203 20/50/204
f 19/47/205 35/48/206 46/51/207
f 46/51/208 35/48/209 20/50/210
f 35/48/211 15/1/212 47/49/213
f 47/49/214 15/1/215 23/40/216
f 3/41/217 26/13/218 38/43/219
f 3/41/220 38/43/221 6/42/222
f 6/42/223 38/43/224 51/52/225
f 38/43/226 1/45/227 51/52/228
f 1/45/229 40/22/230 21/46/231
f 40/22/232 48/23/233 22/28/234
f 48/23/235 49/27/236 22/28/237
f 19/47/238 46/51/239 49/27/240
f 11/31/241 10/11/242 27/10/243
f 39/20/244 37/12/245 4/7/246
f 17/16/247 12/33/248 2/32/249
f 22/28/250 42/24/251 21/46/252
f 42/24/253 30/26/254 21/46/255
f 49/27/256 46/51/257 43/5/258
f 43/5/259 46/51/260 24/6/261
f 24/6/262 46/51/263 20/50/264
f 47/49/265 10/11/266 24/6/267
f 47/49/268 24/6/269 20/50/270
f 47/49/271 23/40/272 16/9/273
f 47/49/274 16/9/275 10/11/276
f 6/42/277 50/15/278 23/40/279
f 50/15/280 27/10/281 23/40/282
f 6/42/283 51/52/284 50/15/285
f 1/45/286 29/18/287 51/52/288
f 51/52/289 29/18/290 50/15/291
f 1/45/292 52/19/293 29/18/294
f 52/19/295 21/46/296 30/26/297
f 52/19/298 30/26/299 5/17/300
