# Blender v2.78 (sub 0) OBJ File: ''
# www.blender.org
mtllib SM_Env_Tree_01.mtl
o SM_Env_Tree_01
v -30.424561 -55.244202 -96.531021
v -84.289795 -43.120068 -122.202896
v -34.854736 -20.354137 -117.652405
v -90.549072 -60.373264 -65.640457
v -93.791260 18.442831 -132.024597
v -53.477783 51.650475 -131.397629
v -103.396729 -11.062793 -76.674316
v -77.104736 72.315903 -102.765900
v 26.552490 46.221214 -141.565430
v -21.440186 87.474106 -110.484833
v -99.652100 -48.171810 -21.755327
v -145.229248 16.508217 -42.484127
v -151.311768 6.315151 24.784243
v -139.055420 62.535225 -39.987713
v -112.080322 29.648479 -69.067856
v -159.094482 130.085114 34.389507
v -140.655518 139.988068 11.555280
v -95.126709 142.284149 -25.981462
v -104.340088 96.279587 -71.927460
v -73.482666 194.748154 -80.389038
v -67.801514 181.562408 3.182185
v -46.507568 207.505035 -24.393976
v -81.021729 133.885590 18.802835
v -35.916748 260.193817 5.885641
v -51.686279 241.752472 -6.577256
v -25.673096 124.136948 -97.388382
v -56.329834 194.596054 -94.138000
v -18.059326 202.503159 -91.368896
v -17.687744 207.198288 -59.873592
v -13.680420 297.443268 12.758761
v 35.881104 263.433319 41.947834
v 23.427002 212.572662 -7.708795
v -23.816162 310.709930 56.553013
v 4.492920 303.325104 55.625584
v -46.965576 274.967804 30.785608
v -40.835693 257.007599 52.556904
v -8.099854 274.132416 71.934418
v -17.908447 158.902664 93.207077
v 15.166260 214.379166 75.150833
v 16.509033 181.131485 67.621704
v 43.481689 217.614044 37.165531
v 45.336670 193.910187 17.030825
v 67.405029 192.349091 32.586910
v 72.137939 159.533524 55.325001
v 71.240479 104.571404 30.482759
v 48.807861 85.223709 83.580780
v 87.917725 105.859650 5.152436
v 80.849365 72.467728 85.273102
v 139.897217 108.646019 39.057468
v 137.863037 103.738068 4.728179
v -3.117920 108.885147 82.448944
v 17.396240 73.420486 97.108429
v 50.957275 52.047684 83.450882
v 57.183838 -23.888288 80.861557
v 77.554443 -26.833418 87.403732
v 26.188232 36.576668 133.952759
v 3.203857 67.966072 141.565445
v -6.716065 13.226327 137.452637
v 30.114990 -34.024887 94.096237
v 39.370361 -41.627728 60.247784
v 72.811279 -67.583565 50.500645
v 152.135986 92.096397 25.700468
v 137.176514 79.860680 57.424397
v 159.094482 5.094019 34.020748
v 137.729248 -6.419763 -39.928043
v 142.595459 -50.911716 25.632246
v 146.428467 -60.400421 2.052957
v 63.465088 -85.049072 -1.592254
v 129.622803 -52.096462 -30.993792
v 31.733643 -102.440186 -23.201025
v -10.238525 -96.714607 36.056301
v 78.380615 -45.985283 -54.696613
v -14.420654 -45.824757 108.927719
v -70.776123 -49.289230 88.026474
v -49.984619 -80.905891 51.698887
v -36.444580 -89.961113 -50.368687
v -63.877197 -83.286591 -4.552886
v -102.072021 -51.043125 19.549116
v -102.947998 -14.328012 58.383656
v 66.133057 -58.631958 -87.604752
v 37.200928 -52.339153 -117.807022
v -86.850830 47.715992 69.223709
v -77.755127 -13.411576 98.016235
v -55.753662 155.909317 60.207691
v -81.621338 138.019257 39.534588
v -133.323486 138.580109 39.946026
v -44.865967 6.821331 118.595703
v -22.197510 58.578503 127.276810
v -38.692139 35.720963 87.917068
v -25.424561 74.979507 84.625397
v -46.496338 175.428360 74.281311
v 88.422119 -9.824757 -67.570068
v 89.269775 -33.130020 -92.775589
v 89.878662 36.244797 -97.088913
v 99.216064 69.978920 -55.024517
v 80.786377 109.876816 -79.293915
v 87.850830 87.228279 -33.346958
v 43.922119 -26.326181 -133.100342
v 23.123291 -5.105081 -130.744263
v 51.851807 71.260239 -107.010162
v 46.734619 138.382858 -67.231644
v 60.767334 175.161377 -42.699169
v -29.271240 -310.709930 -16.876448
v -14.777588 -229.932220 -11.980180
v 17.178955 -310.709930 -31.968428
v 9.397217 -229.932220 -19.835161
v -29.271240 -310.709930 31.962725
v -14.777588 -229.932220 13.438949
v 17.178955 -310.709930 47.054707
v 9.397217 -229.932220 21.293806
v 45.885010 -310.709930 7.543170
v 24.338623 -229.932220 0.729353
v 4.340576 -310.709930 7.543170
v -3.638428 -10.496242 -31.665838
v -22.962158 -10.496243 -25.387518
v -8.979248 -10.496243 -15.229072
v -22.962158 -10.496245 -5.070686
v -3.638428 -10.496246 1.207514
v 8.303467 -10.496243 -15.229072
v 3.487549 -150.625320 1.063913
v -15.834717 -150.625320 7.342233
v -15.834717 -150.625320 27.658884
v 3.487549 -150.625320 33.937145
v 15.429443 -150.625320 17.500498
v -15.451416 -127.504410 2.749956
v 3.870849 -127.504410 -3.528242
v -15.451416 -127.504410 23.066607
v 3.870849 -127.504433 29.344927
v 48.589600 -105.933815 58.439899
v 53.985596 -105.896858 52.090229
v 45.252197 -98.304085 53.527737
v 50.648193 -98.267189 47.178066
v 15.812744 -127.504410 12.908341
v 30.460693 -139.550507 41.545910
v 38.803955 -137.100037 29.823011
v 31.279053 -123.147377 23.859575
v 22.935791 -125.597725 35.582294
vt 0.8691 0.4165
vt 0.8691 0.4165
vt 0.8691 0.4165
vt 0.8691 0.4165
vt 0.8691 0.4165
vt 0.8691 0.4165
vt 0.8691 0.4165
vt 0.8691 0.4165
vt 0.8691 0.4165
vt 0.8691 0.4165
vt 0.8691 0.4165
vt 0.8691 0.4165
vt 0.8691 0.4165
vt 0.8691 0.4165
vt 0.8691 0.4165
vt 0.8691 0.4165
vt 0.8691 0.4165
vt 0.8691 0.4165
vt 0.8691 0.4165
vt 0.8691 0.4165
vt 0.8691 0.4165
vt 0.8691 0.4165
vt 0.8691 0.4165
vt 0.8691 0.4165
vt 0.8691 0.4165
vt 0.8691 0.4165
vt 0.8691 0.4165
vt 0.8691 0.4165
vt 0.8691 0.4165
vt 0.8691 0.4165
vt 0.8691 0.4165
vt 0.8691 0.4165
vt 0.8691 0.4165
vt 0.8691 0.4165
vt 0.8691 0.4165
vt 0.8691 0.4165
vt 0.8691 0.4165
vt 0.8691 0.4165
vt 0.8691 0.4165
vt 0.8691 0.4165
vt 0.8691 0.4165
vt 0.8691 0.4165
vt 0.8691 0.4165
vt 0.8691 0.4165
vt 0.8691 0.4165
vt 0.8691 0.4165
vt 0.8691 0.4165
vt 0.8691 0.4165
vt 0.8691 0.4165
vt 0.8691 0.4165
vt 0.8691 0.4165
vt 0.8691 0.4165
vt 0.8691 0.4165
vt 0.8691 0.4165
vt 0.8691 0.4165
vt 0.8691 0.4165
vt 0.8691 0.4165
vt 0.8691 0.4165
vt 0.8691 0.4165
vt 0.8691 0.4165
vt 0.8691 0.4165
vt 0.8691 0.4165
vt 0.8691 0.4165
vt 0.8691 0.4165
vt 0.8691 0.4165
vt 0.8691 0.4165
vt 0.8691 0.4165
vt 0.8691 0.4165
vt 0.8691 0.4165
vt 0.8691 0.4165
vt 0.8691 0.4165
vt 0.8691 0.4165
vt 0.8691 0.4165
vt 0.8691 0.4165
vt 0.8691 0.4165
vt 0.8691 0.4165
vt 0.8691 0.4165
vt 0.8691 0.4165
vt 0.8691 0.4165
vt 0.8691 0.4165
vt 0.8691 0.4165
vt 0.8691 0.4165
vt 0.8691 0.4165
vt 0.8691 0.4165
vt 0.8691 0.4165
vt 0.8691 0.4165
vt 0.8691 0.4165
vt 0.8691 0.4165
vt 0.8691 0.4165
vt 0.8691 0.4165
vt 0.8691 0.4165
vt 0.8691 0.4165
vt 0.8691 0.4165
vt 0.8691 0.4165
vt 0.8691 0.4165
vt 0.8691 0.4165
vt 0.8691 0.4165
vt 0.8691 0.4165
vt 0.8691 0.4165
vt 0.8691 0.4165
vt 0.8691 0.4165
vt 0.8691 0.4165
vt 0.9890 0.3176
vt 0.9890 0.3176
vt 0.9890 0.3176
vt 0.9890 0.3176
vt 0.9890 0.3176
vt 0.9890 0.3176
vt 0.9890 0.3176
vt 0.9890 0.3176
vt 0.9890 0.3176
vt 0.9890 0.3176
vt 0.9890 0.3176
vt 0.9890 0.3176
vt 0.9890 0.3176
vt 0.9890 0.3176
vt 0.9890 0.3176
vt 0.9890 0.3176
vt 0.9890 0.3176
vt 0.9890 0.3176
vt 0.9890 0.3176
vt 0.9890 0.3176
vt 0.9890 0.3176
vt 0.9890 0.3176
vt 0.9890 0.3176
vt 0.9890 0.3176
vt 0.9890 0.3176
vt 0.9890 0.3176
vt 0.9890 0.3176
vt 0.9890 0.3176
vt 0.9890 0.3176
vt 0.9890 0.3176
vt 0.9890 0.3176
vt 0.9890 0.3176
vt 0.9890 0.3176
vt 0.9890 0.3176
vt 0.9890 0.3176
vn 0.2922 -0.4678 -0.8341
vn -0.0721 -0.9518 -0.2983
vn 0.1514 -0.1329 -0.9795
vn 0.1394 -0.1508 -0.9787
vn -0.9459 -0.1882 -0.2645
vn -0.4253 0.5301 -0.7336
vn -0.1376 -0.2200 -0.9658
vn -0.2761 0.6567 -0.7018
vn -0.0687 0.5481 -0.8336
vn -0.9385 -0.2874 -0.1915
vn -0.9536 -0.2756 -0.1212
vn -0.7017 -0.6116 -0.3654
vn -0.7815 -0.6026 -0.1620
vn -0.6508 0.1279 -0.7484
vn -0.9883 0.1363 -0.0687
vn -0.8001 0.3208 -0.5069
vn -0.5840 0.4413 -0.6813
vn -0.4250 0.3785 -0.8223
vn -0.9555 -0.1572 -0.2496
vn -0.6283 0.0113 -0.7779
vn -0.9897 0.1184 0.0799
vn -0.9509 0.0979 -0.2937
vn -0.3879 0.5298 -0.7542
vn -0.6796 0.1513 -0.7178
vn -0.9519 0.2898 -0.0993
vn -0.8578 0.4954 0.1365
vn -0.6730 0.7222 0.1597
vn 0.0814 0.9839 0.1589
vn -0.8713 0.3532 0.3407
vn -0.8838 0.3476 0.3130
vn -0.7816 0.2981 0.5479
vn -0.8436 0.1419 -0.5179
vn -0.2122 0.3069 -0.9278
vn -0.0804 0.1815 -0.9801
vn -0.6099 -0.2304 -0.7583
vn 0.0574 0.0709 -0.9958
vn -0.1227 0.9788 -0.1639
vn -0.1893 0.9699 -0.1529
vn -0.1662 0.9756 -0.1435
vn 0.6621 0.4518 -0.5979
vn 0.6968 0.4064 -0.5910
vn -0.6868 0.4610 -0.5619
vn -0.6492 0.4942 -0.5782
vn 0.2385 0.9434 -0.2306
vn 0.1346 0.4733 -0.8706
vn -0.8611 0.2457 0.4451
vn -0.8636 0.2416 0.4425
vn -0.8640 0.2409 0.4420
vn -0.7786 0.5275 -0.3400
vn -0.4099 0.6930 -0.5931
vn 0.1426 0.4351 0.8890
vn -0.5490 0.1124 0.8282
vn -0.5733 0.1957 0.7956
vn 0.2626 0.1535 0.9526
vn 0.5083 0.2424 0.8264
vn 0.6262 0.2381 0.7424
vn 0.8880 -0.0671 0.4548
vn 0.8138 0.4119 -0.4100
vn 0.8880 0.1910 -0.4183
vn 0.6639 0.6495 -0.3706
vn 0.7192 0.0470 0.6932
vn 0.4946 0.5848 -0.6429
vn 0.6386 0.4984 0.5864
vn 0.3516 0.4330 0.8300
vn 0.9892 0.0466 -0.1387
vn 0.9286 -0.1653 0.3321
vn 0.6982 0.5254 0.4864
vn 0.3231 0.8631 0.3882
vn -0.2756 0.8957 0.3490
vn 0.0408 0.9888 -0.1438
vn 0.3019 0.2546 0.9187
vn 0.3007 0.2543 0.9192
vn 0.3015 0.2545 0.9189
vn -0.2299 0.2552 0.9392
vn 0.3886 0.0216 0.9212
vn 0.3004 0.2541 0.9193
vn -0.0557 -0.0075 0.9984
vn -0.3128 -0.0580 0.9480
vn 0.6014 0.6321 0.4886
vn 0.8001 0.5088 0.3178
vn 0.1792 -0.1060 0.9781
vn 0.8893 0.0574 0.4538
vn 0.5189 -0.3982 0.7564
vn 0.3947 -0.4349 0.8093
vn 0.3879 -0.4405 0.8096
vn 0.3936 -0.4359 0.8094
vn 0.4635 -0.8290 0.3129
vn -0.3257 -0.5590 0.7625
vn -0.2748 -0.6276 0.7284
vn 0.7398 0.6585 -0.1380
vn 0.8427 0.2307 0.4864
vn 0.8808 0.1144 0.4595
vn 0.8300 0.0131 -0.5576
vn 0.9490 0.1174 -0.2925
vn 0.3360 0.4838 0.8081
vn -0.0771 0.0239 0.9967
vn 0.4427 0.0045 0.8967
vn 0.5697 -0.0888 0.8171
vn 0.6010 -0.2887 0.7453
vn 0.9415 -0.2423 -0.2343
vn 0.9743 0.2134 0.0725
vn 0.0131 -0.9269 0.3751
vn 0.2798 -0.8878 -0.3654
vn 0.4722 -0.6213 0.6254
vn 0.2641 -0.9278 0.2637
vn 0.3318 -0.9108 0.2458
vn 0.2734 -0.9195 0.2825
vn 0.6205 -0.7047 -0.3441
vn 0.1596 -0.8161 -0.5555
vn -0.0269 -0.3816 0.9240
vn 0.3348 -0.8957 0.2927
vn 0.5155 -0.6884 0.5103
vn -0.1574 -0.8139 0.5593
vn -0.0548 -0.7685 0.6375
vn -0.3573 -0.9333 0.0354
vn -0.1210 -0.9901 0.0718
vn -0.5686 -0.8039 0.1744
vn -0.6431 -0.5636 0.5184
vn -0.6751 -0.7321 -0.0904
vn -0.7112 -0.7014 0.0475
vn -0.2450 -0.7592 -0.6029
vn -0.4451 -0.8849 -0.1376
vn 0.7610 -0.6479 -0.0342
vn 0.2710 -0.8570 -0.4382
vn -0.1702 -0.9851 -0.0254
vn 0.0889 -0.8016 -0.5912
vn -0.1103 -0.8757 -0.4701
vn -0.2348 -0.5250 -0.8180
vn -0.7597 -0.6441 -0.0893
vn -0.6173 -0.5786 0.5331
vn -0.4651 -0.0339 0.8846
vn -0.8386 0.1249 0.5302
vn -0.7057 0.2578 0.6599
vn -0.9739 -0.0440 -0.2225
vn -0.5960 -0.0993 0.7968
vn -0.2615 0.1722 0.9497
vn 0.0109 0.3117 0.9501
vn -0.3360 0.9324 0.1330
vn -0.7735 -0.6256 0.1017
vn -0.3083 -0.3414 0.8879
vn -0.3570 -0.3144 0.8796
vn -0.8019 -0.2999 0.5167
vn 0.3866 -0.4416 0.8097
vn -0.3620 -0.3667 0.8570
vn -0.4449 0.0133 0.8955
vn -0.5111 0.0803 0.8558
vn -0.9132 0.3720 0.1667
vn -0.3485 0.9373 0.0037
vn -0.0719 0.9291 0.3627
vn -0.9238 0.3287 0.1963
vn -0.6211 0.2564 0.7406
vn -0.0793 0.7335 0.6750
vn -0.3196 0.1696 0.9322
vn -0.2878 0.1762 0.9414
vn -0.7659 -0.0952 0.6358
vn -0.5652 -0.0337 0.8243
vn -0.2642 0.2339 0.9357
vn 0.2789 -0.1224 0.9525
vn 0.5953 0.0032 0.8035
vn 0.6483 -0.1432 0.7478
vn -0.4238 0.2604 0.8675
vn 0.0989 0.9948 0.0238
vn 0.0091 0.9807 -0.1953
vn -0.6798 0.1546 0.7169
vn -0.9128 0.1630 0.3743
vn -0.9678 0.2401 -0.0759
vn -0.8607 0.2463 0.4455
vn -0.8252 0.2425 -0.5101
vn 0.8382 -0.2441 -0.4876
vn 0.4866 -0.2501 -0.8371
vn 0.3455 -0.3984 -0.8496
vn 0.7389 -0.6736 -0.0161
vn 0.9588 -0.1917 0.2095
vn 0.9992 -0.0063 0.0394
vn 0.9853 -0.1132 -0.1280
vn 0.9103 0.2000 -0.3625
vn 0.7419 0.2511 -0.6217
vn 0.4840 0.0716 -0.8721
vn 0.1599 0.8116 -0.5619
vn 0.5585 -0.5229 -0.6440
vn 0.4920 -0.5783 -0.6508
vn 0.2458 0.3416 -0.9071
vn 0.6592 -0.0524 -0.7501
vn -0.2044 -0.4563 -0.8660
vn -0.1980 -0.0856 -0.9765
vn -0.1677 -0.1926 -0.9668
vn 0.8486 -0.1628 -0.5033
vn 0.3725 0.1448 -0.9167
vn 0.4621 0.2618 -0.8473
vn 0.1286 0.5128 -0.8488
vn 0.1291 0.5132 -0.8485
vn 0.1306 0.5146 -0.8474
vn 0.5196 0.4646 -0.7171
vn 0.0300 0.6235 -0.7812
vn 0.3002 0.3514 -0.8868
vn 0.3785 0.0343 -0.9250
vn 0.0586 0.9873 -0.1479
vn 0.1311 0.5150 -0.8471
vn 0.7124 0.5615 -0.4209
vn -0.1543 0.5883 -0.7937
vn 0.0345 0.8996 -0.4354
vn 0.9508 0.2783 -0.1363
vn 0.9273 0.3534 -0.1232
vn 0.9211 0.3089 0.2371
vn 0.6815 0.7298 -0.0530
vn 0.6647 0.5830 0.4673
vn 0.2330 0.9434 -0.2359
vn 0.9941 0.0458 -0.0981
vn -0.3070 0.1124 -0.9450
vn -0.3071 0.1124 -0.9450
vn -0.9843 0.1766 0.0000
vn -0.2981 0.2638 0.9174
vn 0.7820 0.2565 0.5681
vn 0.7819 0.2565 0.5681
vn 0.7981 0.1640 -0.5798
vn 0.0000 -1.0000 0.0000
vn -0.0000 1.0000 0.0000
vn -0.3013 0.2219 -0.9273
vn -0.9999 -0.0133 0.0000
vn -0.3044 -0.1720 0.9369
vn 0.8086 -0.0334 0.5875
vn 0.7909 0.2104 -0.5746
vn -0.3039 -0.1807 -0.9354
vn -0.9999 0.0166 0.0000
vn -0.3034 0.1905 0.9336
vn 0.6076 0.6005 0.5198
vn 0.8022 -0.1291 -0.5829
vn -0.3025 0.2045 0.9310
vn -0.9979 -0.0641 0.0000
vn -0.2999 -0.2412 -0.9230
vn 0.8058 -0.0891 -0.5854
vn 0.7943 0.1898 0.5771
vn 0.3140 -0.9216 0.2282
vn 0.4440 -0.8864 0.1307
vn 0.5358 -0.1730 -0.8264
vn 0.5836 -0.0321 -0.8114
vn -0.0804 0.9950 -0.0584
vn -0.2747 0.9615 0.0055
vn -0.3376 0.1888 0.9222
vn -0.3231 0.2192 0.9206
vn 0.7018 -0.6073 0.3725
vn 0.6153 -0.5929 0.5195
vn 0.7387 0.1145 -0.6642
vn 0.7919 -0.0457 -0.6090
vn -0.6118 0.7395 -0.2808
vn -0.5279 0.7238 -0.4444
vn -0.6527 -0.0284 0.7571
vn -0.7136 0.1310 0.6882
usemtl None
s 1
f 1/1/1 2/2/1 3/3/1
f 1/1/2 4/4/2 2/2/2
f 3/3/3 2/2/3 5/5/3
f 3/3/4 5/5/4 6/6/4
f 2/2/5 7/7/5 5/5/5
f 6/6/6 5/5/6 8/8/6
f 9/9/7 3/3/7 6/6/7
f 10/10/8 6/6/8 8/8/8
f 9/9/9 6/6/9 10/10/9
f 4/4/10 7/7/10 2/2/10
f 4/4/11 11/11/11 7/7/11
f 7/7/12 11/11/12 12/12/12
f 11/11/13 13/13/13 12/12/13
f 12/12/14 14/14/14 15/15/14
f 12/12/15 13/13/15 14/14/15
f 14/14/16 16/16/16 17/17/16
f 18/18/17 14/14/17 17/17/17
f 15/15/18 14/14/18 18/18/18
f 7/7/19 15/15/19 5/5/19
f 7/7/20 12/12/20 15/15/20
f 15/15/21 18/18/21 19/19/21
f 5/5/22 15/15/22 19/19/22
f 5/5/23 19/19/23 8/8/23
f 8/8/24 19/19/24 20/20/24
f 19/19/25 18/18/25 20/20/25
f 20/20/26 18/18/26 21/21/26
f 20/20/27 21/21/27 22/22/27
f 18/18/28 17/17/28 23/23/28
f 18/18/29 23/23/29 21/21/29
f 21/21/30 23/23/30 24/24/30
f 25/25/31 21/21/31 24/24/31
f 22/22/32 21/21/32 25/25/32
f 10/10/33 8/8/33 26/26/33
f 8/8/34 20/20/34 26/26/34
f 26/26/35 20/20/35 27/27/35
f 26/26/36 27/27/36 28/28/36
f 27/27/37 20/20/37 22/22/37
f 28/28/38 27/27/38 22/22/38
f 28/28/39 22/22/39 29/29/39
f 29/29/40 30/30/40 31/31/40
f 32/32/41 29/29/41 31/31/41
f 22/22/42 24/24/42 29/29/42
f 29/29/43 24/24/43 30/30/43
f 30/30/44 33/33/44 34/34/44
f 22/22/45 25/25/45 24/24/45
f 35/35/46 36/36/47 33/33/48
f 24/24/49 33/33/49 30/30/49
f 24/24/50 35/35/50 33/33/50
f 34/34/51 33/33/51 37/37/51
f 33/33/52 36/36/52 37/37/52
f 37/37/53 36/36/53 38/38/53
f 37/37/54 38/38/54 39/39/54
f 34/34/55 37/37/55 39/39/55
f 34/34/56 39/39/56 31/31/56
f 31/31/57 39/39/57 40/40/57
f 32/32/58 41/41/58 42/42/58
f 32/32/59 31/31/59 41/41/59
f 30/30/60 34/34/60 31/31/60
f 31/31/61 40/40/61 41/41/61
f 42/42/62 41/41/62 43/43/62
f 43/43/63 41/41/63 44/44/63
f 41/41/64 40/40/64 44/44/64
f 43/43/65 44/44/65 45/45/65
f 45/45/66 44/44/66 46/46/66
f 45/45/67 46/46/67 47/47/67
f 47/47/68 46/46/68 48/48/68
f 47/47/69 48/48/69 49/49/69
f 47/47/70 49/49/70 50/50/70
f 44/44/71 40/40/72 46/46/73
f 40/40/74 51/51/74 52/52/74
f 46/46/75 52/52/75 53/53/75
f 40/40/72 52/52/76 46/46/73
f 46/46/77 53/53/77 48/48/77
f 53/53/78 54/54/78 55/55/78
f 53/53/79 52/52/79 56/56/79
f 52/52/80 57/57/80 56/56/80
f 56/56/81 57/57/81 58/58/81
f 53/53/82 56/56/82 54/54/82
f 54/54/83 56/56/83 59/59/83
f 56/56/84 58/58/85 59/59/86
f 54/54/87 59/59/87 60/60/87
f 54/54/88 60/60/88 55/55/88
f 55/55/89 60/60/89 61/61/89
f 50/50/90 49/49/90 62/62/90
f 49/49/91 63/63/91 62/62/91
f 62/62/92 63/63/92 64/64/92
f 62/62/93 64/64/93 50/50/93
f 50/50/94 64/64/94 65/65/94
f 49/49/95 48/48/95 63/63/95
f 48/48/96 53/53/96 55/55/96
f 63/63/97 48/48/97 55/55/97
f 63/63/98 55/55/98 64/64/98
f 64/64/99 55/55/99 66/66/99
f 65/65/100 64/64/100 66/66/100
f 65/65/101 66/66/101 67/67/101
f 66/66/102 55/55/102 67/67/102
f 67/67/103 68/68/103 69/69/103
f 55/55/104 61/61/104 67/67/104
f 67/67/105 61/61/105 68/68/105
f 68/68/106 61/61/106 70/70/106
f 70/70/107 61/61/107 71/71/107
f 68/68/108 70/70/108 72/72/108
f 69/69/109 68/68/109 72/72/109
f 61/61/110 60/60/110 71/71/110
f 59/59/111 73/73/111 60/60/111
f 60/60/112 73/73/112 71/71/112
f 73/73/113 74/74/113 71/71/113
f 71/71/114 74/74/114 75/75/114
f 71/71/115 75/75/115 76/76/115
f 75/75/116 77/77/116 76/76/116
f 75/75/117 78/78/117 77/77/117
f 75/75/118 79/79/118 78/78/118
f 77/77/119 78/78/119 11/11/119
f 77/77/120 11/11/120 4/4/120
f 1/1/121 76/76/121 4/4/121
f 76/76/122 77/77/122 4/4/122
f 72/72/123 70/70/123 80/80/123
f 80/80/124 70/70/124 81/81/124
f 70/70/125 71/71/125 76/76/125
f 70/70/126 76/76/126 1/1/126
f 81/81/127 70/70/127 1/1/127
f 81/81/128 1/1/128 3/3/128
f 11/11/129 78/78/129 13/13/129
f 78/78/130 79/79/130 13/13/130
f 79/79/131 82/82/131 16/16/131
f 79/79/132 83/83/132 82/82/132
f 82/82/133 84/84/133 85/85/133
f 13/13/134 16/16/134 14/14/134
f 13/13/135 79/79/135 16/16/135
f 16/16/136 82/82/136 86/86/136
f 82/82/137 85/85/137 86/86/137
f 16/16/138 86/86/138 17/17/138
f 79/79/139 75/75/139 74/74/139
f 73/73/140 87/87/140 74/74/140
f 74/74/141 87/87/141 83/83/141
f 79/79/142 74/74/142 83/83/142
f 73/73/143 59/59/86 58/58/85
f 73/73/144 58/58/144 87/87/144
f 58/58/145 57/57/145 87/87/145
f 87/87/146 57/57/146 88/88/146
f 87/87/147 88/88/147 89/89/147
f 88/88/148 57/57/148 52/52/148
f 88/88/149 52/52/149 90/90/149
f 89/89/150 88/88/150 90/90/150
f 83/83/151 87/87/151 82/82/151
f 82/82/152 87/87/152 89/89/152
f 82/82/153 89/89/153 84/84/153
f 89/89/154 90/90/154 84/84/154
f 84/84/155 90/90/155 91/91/155
f 90/90/156 38/38/156 91/91/156
f 90/90/157 52/52/157 51/51/157
f 90/90/158 51/51/158 38/38/158
f 38/38/159 51/51/159 40/40/159
f 38/38/160 40/40/160 39/39/160
f 91/91/161 38/38/161 36/36/161
f 17/17/162 86/86/162 23/23/162
f 86/86/163 85/85/163 23/23/163
f 85/85/164 84/84/164 36/36/164
f 84/84/165 91/91/165 36/36/165
f 23/23/166 85/85/166 35/35/166
f 85/85/167 36/36/47 35/35/46
f 24/24/168 23/23/168 35/35/168
f 67/67/169 69/69/169 65/65/169
f 69/69/170 92/92/170 65/65/170
f 69/69/171 72/72/171 92/92/171
f 72/72/172 80/80/172 93/93/172
f 72/72/173 93/93/173 92/92/173
f 92/92/174 93/93/174 94/94/174
f 92/92/175 94/94/175 95/95/175
f 95/95/176 94/94/176 96/96/176
f 65/65/177 95/95/177 50/50/177
f 65/65/178 92/92/178 95/95/178
f 50/50/179 95/95/179 97/97/179
f 81/81/180 98/98/180 80/80/180
f 80/80/181 98/98/181 93/93/181
f 98/98/182 99/99/182 94/94/182
f 93/93/183 98/98/183 94/94/183
f 81/81/184 3/3/184 98/98/184
f 98/98/185 3/3/185 99/99/185
f 99/99/186 3/3/186 9/9/186
f 99/99/187 9/9/187 100/100/187
f 94/94/188 99/99/188 100/100/188
f 94/94/189 100/100/189 96/96/189
f 100/100/190 101/101/191 96/96/192
f 100/100/193 9/9/193 101/101/193
f 9/9/194 10/10/194 101/101/194
f 101/101/195 10/10/195 26/26/195
f 101/101/196 26/26/196 28/28/196
f 28/28/197 29/29/197 32/32/197
f 96/96/192 101/101/191 102/102/198
f 101/101/199 28/28/199 32/32/199
f 101/101/200 32/32/200 102/102/200
f 50/50/201 97/97/201 47/47/201
f 97/97/202 102/102/202 47/47/202
f 95/95/203 96/96/203 102/102/203
f 97/97/204 95/95/204 102/102/204
f 42/42/205 102/102/205 32/32/205
f 47/47/206 102/102/206 45/45/206
f 102/102/207 42/42/207 43/43/207
f 45/45/208 102/102/208 43/43/208
f 103/103/209 104/104/210 105/105/210
f 105/105/210 104/104/210 106/106/210
f 107/107/211 108/108/211 103/103/211
f 103/103/211 108/108/211 104/104/211
f 109/109/212 110/110/212 107/107/212
f 107/107/212 110/110/212 108/108/212
f 109/109/213 111/111/213 110/110/214
f 110/110/214 111/111/213 112/112/214
f 111/111/215 105/105/215 112/112/215
f 112/112/215 105/105/215 106/106/215
f 103/103/216 105/105/216 113/113/216
f 107/107/216 103/103/216 113/113/216
f 109/109/216 107/107/216 113/113/216
f 111/111/216 109/109/216 113/113/216
f 105/105/216 111/111/216 113/113/216
f 114/114/217 115/115/217 116/116/217
f 115/115/217 117/117/217 116/116/217
f 117/117/217 118/118/217 116/116/217
f 118/118/217 119/119/217 116/116/217
f 119/119/217 114/114/217 116/116/217
f 106/106/218 104/104/218 120/120/218
f 120/120/218 104/104/218 121/121/218
f 104/104/219 108/108/219 121/121/219
f 121/121/219 108/108/219 122/122/219
f 108/108/220 110/110/220 122/122/220
f 122/122/220 110/110/220 123/123/220
f 112/112/221 124/124/221 110/110/221
f 110/110/221 124/124/221 123/123/221
f 106/106/222 120/120/222 112/112/222
f 112/112/222 120/120/222 124/124/222
f 121/121/223 125/125/223 120/120/223
f 120/120/223 125/125/223 126/126/223
f 122/122/224 127/127/224 121/121/224
f 121/121/224 127/127/224 125/125/224
f 123/123/225 128/128/225 122/122/225
f 122/122/225 128/128/225 127/127/225
f 129/129/226 130/130/226 131/131/226
f 131/131/226 130/130/226 132/132/226
f 124/124/227 120/120/227 133/133/227
f 133/133/227 120/120/227 126/126/227
f 128/128/228 118/118/228 127/127/228
f 127/127/228 118/118/228 117/117/228
f 127/127/229 117/117/229 125/125/229
f 125/125/229 117/117/229 115/115/229
f 125/125/230 115/115/230 126/126/230
f 126/126/230 115/115/230 114/114/230
f 133/133/231 126/126/231 119/119/231
f 119/119/231 126/126/231 114/114/231
f 128/128/232 133/133/232 118/118/232
f 118/118/232 133/133/232 119/119/232
f 123/123/233 124/124/233 134/134/233
f 134/134/234 124/124/234 135/135/234
f 124/124/235 133/133/235 135/135/235
f 135/135/236 133/133/236 136/136/236
f 128/128/237 137/137/237 133/133/237
f 133/133/238 137/137/238 136/136/238
f 123/123/239 134/134/239 128/128/239
f 128/128/240 134/134/240 137/137/240
f 135/135/241 130/130/241 134/134/241
f 134/134/242 130/130/242 129/129/242
f 135/135/243 136/136/243 130/130/243
f 130/130/244 136/136/244 132/132/244
f 136/136/245 137/137/245 132/132/245
f 132/132/246 137/137/246 131/131/246
f 134/134/247 129/129/247 137/137/247
f 137/137/248 129/129/248 131/131/248
