# This file uses centimeters as units for non-parametric coordinates.

v -59.783691 144.031281 59.784180
v 59.784180 144.031281 59.784180
v 0.000000 493.348328 0.000000
v -59.783691 144.031281 -59.784180
v 59.784180 144.031281 -59.784180
v 18.461426 256.738922 36.303833
v -38.816406 241.283432 36.792358
v -34.355957 258.246277 -25.196655
v 29.809082 240.872437 -31.840271
v 20.127930 0.000000 -13.504822
v -8.893555 0.000000 -4.075195
v -8.893555 0.000000 26.439819
v 20.127930 0.000000 35.869629
v 38.065430 0.000000 11.182373
v 15.455078 52.907593 -0.949280
v 0.350586 52.907593 3.958496
v 0.350586 52.907593 19.840698
v 15.455078 52.907593 24.748596
v 24.791016 52.907593 11.899658
v 12.106934 0.000000 11.182373
v -2.587891 122.780075 4.073792
v -14.660645 122.780075 7.996521
v -14.660645 122.780075 20.690735
v -2.587891 122.780075 24.613342
v 4.874023 122.780075 14.343689
v 7.120117 187.576172 -13.315796
v -4.951172 187.576172 -9.392944
v 3.784180 187.576172 -3.046143
v -4.951172 187.576172 3.300964
v 7.120117 187.576172 7.223816
v 14.582031 187.576172 -3.046143
vt 0.890112 0.566232
vt 0.890112 0.566232
vt 0.890112 0.566232
vt 0.890112 0.566232
vt 0.890112 0.566232
vt 0.890112 0.566232
vt 0.890112 0.566232
vt 0.890112 0.566232
vt 0.890112 0.566232
vt 0.890112 0.566232
vt 0.890112 0.566232
vt 0.890112 0.566232
vt 0.890112 0.566232
vt 0.890112 0.566232
vt 0.890112 0.566232
vt 0.989037 0.317608
vt 0.989037 0.317608
vt 0.989037 0.317608
vt 0.989037 0.317608
vt 0.989037 0.317608
vt 0.989037 0.317608
vt 0.989037 0.317608
vt 0.989037 0.317608
vt 0.989037 0.317608
vt 0.989037 0.317608
vt 0.989037 0.317608
vt 0.989037 0.317608
vt 0.989037 0.317608
vt 0.989037 0.317608
vt 0.989037 0.317608
vt 0.989037 0.317608
vt 0.989037 0.317608
vt 0.989037 0.317608
vt 0.989037 0.317608
vt 0.989037 0.317608
vt 0.989037 0.317608
vt 0.989037 0.317608
vt 0.989037 0.317608
vt 0.989037 0.317608
vt 0.989037 0.317608
vt 0.989037 0.317608
vt 0.989037 0.317608
vt 0.989037 0.317608
vt 0.989037 0.317608
vt 0.989037 0.317608
vt 0.989037 0.317608
vt 0.989037 0.317608
vt 0.989037 0.317608
vt 0.989037 0.317608
vn 0.000000 0.203951 0.978981
vn 0.000000 0.203951 0.978981
vn 0.000000 0.203951 0.978981
vn -0.056846 0.241291 0.968786
vn -0.056846 0.241291 0.968786
vn -0.056846 0.241291 0.968787
vn -0.019418 0.293733 -0.955690
vn -0.019418 0.293733 -0.955690
vn -0.019418 0.293733 -0.955690
vn 0.000000 0.277243 -0.960800
vn 0.000000 0.277243 -0.960800
vn 0.000000 0.277243 -0.960800
vn 0.000000 -1.000000 0.000000
vn 0.000000 -1.000000 0.000000
vn 0.000000 -1.000000 0.000000
vn 0.000000 -1.000000 0.000000
vn 0.000000 -1.000000 0.000000
vn 0.000000 -1.000000 0.000000
vn 0.955285 0.295688 0.000000
vn 0.955285 0.295688 0.000000
vn 0.955285 0.295688 0.000000
vn 0.931494 0.356540 0.072101
vn 0.931494 0.356540 0.072101
vn 0.931494 0.356540 0.072101
vn -0.977539 0.210755 0.000000
vn -0.977539 0.210755 0.000000
vn -0.977539 0.210755 0.000000
vn -0.975412 0.220166 -0.009939
vn -0.975412 0.220166 -0.009939
vn -0.975412 0.220166 -0.009939
vn -0.031818 0.149156 0.988302
vn -0.031818 0.149156 0.988302
vn -0.031818 0.149156 0.988302
vn -0.988548 0.147749 -0.030701
vn -0.988548 0.147749 -0.030701
vn -0.988548 0.147749 -0.030701
vn -0.071013 0.116548 -0.990643
vn -0.071013 0.116548 -0.990643
vn -0.071013 0.116548 -0.990643
vn 0.985081 0.098511 0.141103
vn 0.985082 0.098511 0.141103
vn 0.985082 0.098511 0.141103
vn -0.303108 0.194610 -0.932873
vn -0.303108 0.194610 -0.932873
vn -0.303108 0.194610 -0.932873
vn -0.303110 0.194611 -0.932872
vn -0.303110 0.194611 -0.932872
vn -0.303110 0.194611 -0.932872
vn -0.985077 0.172115 0.000000
vn -0.985077 0.172115 0.000000
vn -0.985077 0.172115 0.000000
vn -0.985077 0.172115 0.000000
vn -0.985077 0.172115 0.000000
vn -0.985077 0.172115 0.000000
vn -0.304518 0.170101 0.937195
vn -0.304518 0.170101 0.937195
vn -0.304518 0.170101 0.937195
vn -0.304522 0.170102 0.937194
vn -0.304522 0.170102 0.937194
vn -0.304522 0.170102 0.937194
vn 0.794042 0.191402 0.576943
vn 0.794042 0.191402 0.576943
vn 0.794042 0.191402 0.576943
vn 0.794041 0.191403 0.576944
vn 0.794041 0.191403 0.576944
vn 0.794041 0.191403 0.576944
vn 0.791578 0.206403 -0.575154
vn 0.791578 0.206403 -0.575154
vn 0.791578 0.206403 -0.575154
vn 0.791578 0.206403 -0.575154
vn 0.791578 0.206403 -0.575154
vn 0.791578 0.206403 -0.575154
vn 0.000000 -1.000000 0.000000
vn 0.000000 -1.000000 0.000000
vn 0.000000 -1.000000 0.000000
vn 0.000000 -1.000000 0.000000
vn 0.000000 -1.000000 0.000000
vn 0.000000 -1.000000 0.000000
vn 0.000000 -1.000000 0.000000
vn 0.000000 -1.000000 0.000000
vn 0.000000 -1.000000 0.000000
vn 0.000000 -1.000000 0.000000
vn 0.000000 -1.000000 0.000000
vn 0.000000 -1.000000 0.000000
vn 0.000000 -1.000000 0.000000
vn 0.000000 -1.000000 0.000000
vn 0.000000 -1.000000 0.000000
vn 0.000000 1.000000 -0.000001
vn 0.000000 1.000000 -0.000001
vn 0.000000 1.000000 -0.000001
vn 0.000000 1.000000 0.000000
vn 0.000000 1.000000 0.000000
vn 0.000000 1.000000 0.000000
vn 0.000000 1.000000 0.000002
vn 0.000000 1.000000 0.000002
vn 0.000000 1.000000 0.000002
vn 0.000000 1.000000 0.000001
vn 0.000000 1.000000 0.000001
vn 0.000000 1.000000 0.000001
vn 0.000000 1.000000 0.000000
vn 0.000000 1.000000 0.000000
vn 0.000000 1.000000 0.000000
vn -0.308999 -0.011426 -0.950994
vn -0.308999 -0.011426 -0.950994
vn -0.308999 -0.011426 -0.950994
vn -0.309001 -0.011426 -0.950993
vn -0.309001 -0.011426 -0.950993
vn -0.309001 -0.011426 -0.950993
vn -0.977692 -0.210045 0.000000
vn -0.977692 -0.210045 0.000000
vn -0.977692 -0.210045 0.000000
vn -0.977692 -0.210045 0.000000
vn -0.977692 -0.210045 0.000000
vn -0.977692 -0.210045 0.000000
vn -0.308091 -0.077722 0.948177
vn -0.308091 -0.077722 0.948177
vn -0.308091 -0.077722 0.948177
vn -0.308078 -0.077722 0.948181
vn -0.308078 -0.077722 0.948181
vn -0.308078 -0.077722 0.948181
vn 0.791722 0.205557 0.575259
vn 0.791722 0.205557 0.575259
vn 0.791722 0.205557 0.575259
vn 0.791719 0.205557 0.575262
vn 0.791719 0.205557 0.575262
vn 0.791720 0.205557 0.575262
vn 0.784628 0.243598 -0.570105
vn 0.784628 0.243598 -0.570105
vn 0.784628 0.243598 -0.570105
vn 0.784632 0.243597 -0.570099
vn 0.784632 0.243597 -0.570099
vn 0.784632 0.243597 -0.570099
vn -0.302489 -0.204515 -0.930953
vn -0.302489 -0.204515 -0.930953
vn -0.302489 -0.204515 -0.930953
vn -0.302531 -0.204514 -0.930940
vn -0.302531 -0.204514 -0.930940
vn -0.302531 -0.204514 -0.930940
vn -0.988959 0.148192 0.000000
vn -0.988959 0.148192 0.000000
vn -0.988959 0.148192 0.000000
vn -0.988959 0.148192 0.000000
vn -0.988959 0.148192 0.000000
vn -0.988959 0.148192 0.000000
vn -0.295854 0.288706 0.910560
vn -0.295854 0.288706 0.910560
vn -0.295854 0.288706 0.910560
vn -0.295903 0.288699 0.910546
vn -0.295903 0.288699 0.910546
vn -0.295903 0.288699 0.910546
vn 0.808456 0.036522 0.587423
vn 0.808456 0.036522 0.587423
vn 0.808456 0.036522 0.587423
vn 0.808464 0.036521 0.587411
vn 0.808464 0.036521 0.587411
vn 0.808464 0.036521 0.587411
vn 0.779249 -0.268702 -0.566189
vn 0.779249 -0.268702 -0.566189
vn 0.779249 -0.268702 -0.566189
vn 0.779244 -0.268702 -0.566197
vn 0.779244 -0.268702 -0.566197
vn 0.779244 -0.268702 -0.566197
s off
f 2/2/1 6/3/2 1/1/3
f 1/1/4 6/3/5 7/4/6
f 8/5/7 9/6/8 4/8/9
f 4/8/10 9/6/11 5/7/12
f 4/8/13 5/7/14 1/10/15
f 1/10/16 5/7/17 2/9/18
f 5/11/19 9/12/20 2/2/21
f 2/2/22 9/12/23 6/3/24
f 1/1/25 7/4/26 4/13/27
f 4/13/28 7/4/29 8/14/30
f 7/4/31 6/3/32 3/15/33
f 8/14/34 7/4/35 3/15/36
f 3/15/37 9/6/38 8/5/39
f 6/3/40 9/12/41 3/15/42
f 10/16/43 11/17/44 15/19/45
f 15/19/46 11/17/47 16/18/48
f 11/17/49 12/20/50 16/18/51
f 16/18/52 12/20/53 17/21/54
f 13/22/55 18/23/56 12/20/57
f 12/20/58 18/23/59 17/21/60
f 14/24/61 19/25/62 13/22/63
f 13/22/64 19/25/65 18/23/66
f 10/26/67 15/27/68 14/24/69
f 14/24/70 15/27/71 19/25/72
f 11/28/73 10/29/74 20/30/75
f 12/31/76 11/28/77 20/30/78
f 13/32/79 12/31/80 20/30/81
f 14/33/82 13/32/83 20/30/84
f 10/29/85 14/33/86 20/30/87
f 26/34/88 27/35/89 28/36/90
f 27/35/91 29/37/92 28/36/93
f 29/37/94 30/38/95 28/36/96
f 30/38/97 31/39/98 28/36/99
f 31/39/100 26/34/101 28/36/102
f 15/40/103 16/41/104 21/43/105
f 21/43/106 16/41/107 22/42/108
f 16/41/109 17/44/110 22/42/111
f 22/42/112 17/44/113 23/45/114
f 18/46/115 24/47/116 17/44/117
f 17/44/118 24/47/119 23/45/120
f 19/48/121 25/49/122 18/46/123
f 18/46/124 25/49/125 24/47/126
f 19/48/127 15/40/128 25/49/129
f 25/49/130 15/40/131 21/43/132
f 22/42/133 27/35/134 21/43/135
f 21/43/136 27/35/137 26/34/138
f 23/45/139 29/37/140 22/42/141
f 22/42/142 29/37/143 27/35/144
f 23/45/145 24/47/146 29/37/147
f 29/37/148 24/47/149 30/38/150
f 24/47/151 25/49/152 30/38/153
f 30/38/154 25/49/155 31/39/156
f 25/49/157 21/43/158 31/39/159
f 31/39/160 21/43/161 26/34/162
