# Blender v2.78 (sub 0) OBJ File: ''
# www.blender.org
mtllib SM_Env_TreeLog_01.mtl
o SM_Env_TreeLog_01
v -127.853516 7.461800 -25.266600
v -116.474609 26.996981 -39.459591
v -59.057617 8.250210 -24.693907
v -50.386719 27.298126 -38.532772
v -127.853516 51.143791 -39.459587
v -61.688477 50.842651 -38.532768
v -127.853516 70.678940 -25.266590
v -59.057617 69.890518 -24.693897
v -127.853516 78.140694 -2.301623
v -57.668945 76.646828 -0.383533
v -115.497070 70.678940 20.663403
v -57.486328 70.625748 20.090466
v -127.853516 51.143776 34.856575
v -59.057617 50.842613 33.929695
v -127.853516 26.996969 34.856571
v -61.688477 27.298115 33.929691
v -127.853516 7.461792 20.663393
v -61.688477 8.250202 20.090456
v -116.474609 0.000000 -2.301636
v -50.386719 0.974552 -2.301636
v -114.293945 16.959190 -18.366146
v -114.293945 27.362175 -15.655270
v -114.293945 30.624672 -28.294794
v -114.293945 39.070354 -2.301630
v -114.293945 45.506527 -26.277763
v -114.293945 59.171955 -16.349295
v -114.293945 50.226936 -15.719414
v -114.293945 66.401260 -2.301625
v -114.293945 56.639668 -2.301627
v -114.293945 58.847168 13.356759
v -114.293945 52.275726 8.153816
v -114.293945 47.516064 23.691658
v -114.293945 41.751610 15.929511
v -114.293945 31.882969 21.925482
v -114.293945 18.217520 11.996829
v -114.293945 24.669668 9.681399
v -114.293945 23.039307 -2.301632
v 115.412109 16.959190 -18.366146
v 115.412109 34.049610 -27.894098
v 115.412109 39.070354 -2.301630
v 115.412109 47.516094 -28.294792
v 115.412109 38.466183 -16.939262
v 115.412109 58.770718 -18.363699
v 115.412109 53.423149 -13.947318
v 115.412109 66.401260 -2.301625
v 115.412109 57.230816 0.533334
v 115.412109 61.181519 13.763071
v 115.412109 46.323948 21.501045
v 115.412109 45.682636 15.039070
v 115.412109 34.309959 12.349431
v 115.412109 25.918018 7.254093
v 115.412109 19.778313 -6.514096
v 115.412109 13.736065 -2.336058
v -115.763672 29.470615 -31.846613
v -128.697266 13.937836 -20.561338
v -128.697266 48.670158 -31.846611
v -128.697266 64.202896 -20.561329
v -128.697266 70.135872 -2.301625
v -114.653320 64.202888 15.958139
v -128.697266 48.670139 27.243477
v -128.697266 29.470604 27.243475
v -128.697266 13.937830 15.958132
v -115.763672 8.004837 -2.301635
v 128.000977 7.461800 -25.266600
v 128.000977 26.996981 -39.459591
v 128.697266 14.461040 -20.181211
v 128.697266 29.670460 -31.231562
v 115.644531 51.143791 -39.459587
v 114.946289 48.470303 -31.231560
v 128.000977 70.678940 -25.266590
v 128.697266 63.679661 -20.181202
v 128.000977 78.140694 -2.301623
v 128.697266 69.489143 -2.301625
v 128.000977 70.678940 20.663403
v 128.697266 63.679657 15.578074
v 128.000977 51.143776 34.856575
v 128.697266 48.470264 26.628426
v 115.644531 26.996969 34.856571
v 114.946289 29.670452 26.628424
v 115.644531 7.461792 20.663393
v 114.946289 14.461035 15.578066
v 128.000977 0.000000 -2.301636
v 128.697266 8.651569 -2.301635
v -114.293945 11.739445 -2.301634
v 115.412109 30.624664 23.691656
v 115.412109 16.959185 13.763063
v -32.518555 76.153587 -0.988452
v -31.074219 70.094772 17.918896
v 37.146484 72.863754 7.320019
v 40.167969 66.409805 27.183361
v 37.146484 66.409805 -12.543141
v 29.481445 49.513119 -24.819450
v 39.928711 28.627611 -24.819452
v 37.146484 11.730923 -12.543150
v 39.928711 5.276947 7.320008
v 29.481445 11.730915 27.183352
v 29.481445 28.627602 39.459476
v 37.146484 49.513096 39.459480
v -46.585938 75.383614 -7.741930
v -45.665039 78.961914 2.010206
v -43.668945 74.810814 15.068553
v -39.607422 78.199883 5.106947
v -39.058594 75.398209 12.777966
v -43.083984 67.591370 21.562145
v -49.845703 75.873123 12.871166
v -50.281250 77.745071 6.655531
v -42.961914 77.936844 25.880201
v -31.577148 79.387451 20.223219
v -32.976562 85.078049 2.497512
v -46.135742 87.477127 -4.434129
v -56.492188 85.542976 3.041701
v -56.459961 79.849136 22.387648
v -35.144531 80.322403 17.569166
v -43.844727 79.213654 21.892958
v -36.299805 84.261307 5.446791
v -45.515625 86.200333 -0.447007
v -52.800781 84.486496 6.136794
v -53.406250 80.369965 20.053785
v 115.412109 49.934326 -11.159050
v 115.412109 31.495071 17.022100
v 115.412109 22.344290 10.248355
v -114.293945 52.727058 -2.301627
v -114.293945 49.168411 5.693550
v -114.293945 19.244019 -2.301633
vt 0.9857 0.3129
vt 0.9857 0.3129
vt 0.9857 0.3129
vt 0.9857 0.3129
vt 0.9857 0.3129
vt 0.9857 0.3129
vt 0.9857 0.3129
vt 0.9857 0.3129
vt 0.9857 0.3129
vt 0.9857 0.3129
vt 0.9857 0.3129
vt 0.9857 0.3129
vt 0.9857 0.3129
vt 0.9857 0.3129
vt 0.9857 0.3129
vt 0.9857 0.3129
vt 0.9857 0.3129
vt 0.9857 0.3129
vt 0.9857 0.3129
vt 0.9857 0.3129
vt 0.0868 0.4158
vt 0.0868 0.4158
vt 0.0868 0.4158
vt 0.0868 0.4158
vt 0.0868 0.4158
vt 0.0868 0.4158
vt 0.0868 0.4158
vt 0.0868 0.4158
vt 0.0868 0.4158
vt 0.0868 0.4158
vt 0.0868 0.4158
vt 0.0868 0.4158
vt 0.0868 0.4158
vt 0.0868 0.4158
vt 0.0868 0.4158
vt 0.0868 0.4158
vt 0.0868 0.4158
vt 0.0868 0.4158
vt 0.0868 0.4158
vt 0.0868 0.4158
vt 0.0868 0.4158
vt 0.0868 0.4158
vt 0.0868 0.4158
vt 0.0868 0.4158
vt 0.0868 0.4158
vt 0.0868 0.4158
vt 0.0868 0.4158
vt 0.0868 0.4158
vt 0.0868 0.4158
vt 0.0868 0.4158
vt 0.0868 0.4158
vt 0.0868 0.4158
vt 0.0868 0.4158
vt 0.9857 0.3129
vt 0.9857 0.3129
vt 0.9857 0.3129
vt 0.9857 0.3129
vt 0.9857 0.3129
vt 0.9857 0.3129
vt 0.9857 0.3129
vt 0.9857 0.3129
vt 0.9857 0.3129
vt 0.9857 0.3129
vt 0.9857 0.3129
vt 0.9857 0.3129
vt 0.9857 0.3129
vt 0.9857 0.3129
vt 0.9857 0.3129
vt 0.9857 0.3129
vt 0.9857 0.3129
vt 0.9857 0.3129
vt 0.9857 0.3129
vt 0.9857 0.3129
vt 0.9857 0.3129
vt 0.9857 0.3129
vt 0.9857 0.3129
vt 0.9857 0.3129
vt 0.9857 0.3129
vt 0.9857 0.3129
vt 0.9857 0.3129
vt 0.9857 0.3129
vt 0.9857 0.3129
vt 0.9857 0.3129
vt 0.9857 0.3129
vt 0.9857 0.3129
vt 0.9857 0.3129
vt 0.9857 0.3129
vt 0.9857 0.3129
vt 0.9857 0.3129
vt 0.9857 0.3129
vt 0.9857 0.3129
vt 0.9857 0.3129
vt 0.9857 0.3129
vt 0.9857 0.3129
vt 0.9857 0.3129
vt 0.9857 0.3129
vt 0.9857 0.3129
vt 0.9857 0.3129
vt 0.9857 0.3129
vt 0.9857 0.3129
vt 0.9857 0.3129
vt 0.9857 0.3129
vt 0.9857 0.3129
vt 0.9857 0.3129
vt 0.9857 0.3129
vt 0.9857 0.3129
vt 0.9857 0.3129
vt 0.9857 0.3129
vt 0.9857 0.3129
vt 0.9857 0.3129
vt 0.9857 0.3129
vt 0.9857 0.3129
vt 0.9857 0.3129
vt 0.9857 0.3129
vt 0.9857 0.3129
vt 0.9857 0.3129
vt 0.2175 0.3264
vt 0.2175 0.3264
vt 0.2175 0.3264
vt 0.2175 0.3264
vt 0.9857 0.3129
vt 0.2175 0.3264
vt 0.2175 0.3264
vt 0.9857 0.3129
vt 0.9857 0.3129
vt 0.9857 0.3129
vt 0.9857 0.3129
vt 0.9857 0.3129
vt 0.9857 0.3129
vt 0.9857 0.3129
vt 0.9857 0.3129
vt 0.9857 0.3129
vt 0.9857 0.3129
vt 0.9857 0.3129
vt 0.9857 0.3129
vt 0.9857 0.3129
vt 0.9857 0.3129
vt 0.9857 0.3129
vt 0.9857 0.3129
vt 0.9857 0.3129
vt 0.9857 0.3129
vt 0.0868 0.4158
vt 0.1016 0.3331
vt 0.1016 0.3331
vt 0.1016 0.3331
vt 0.1016 0.3331
vt 0.0868 0.4158
vt 0.0868 0.4158
vt 0.0868 0.4158
vt 0.0868 0.4158
vt 0.0933 0.3297
vt 0.0933 0.3297
vt 0.0933 0.3297
vt 0.0933 0.3297
vt 0.0933 0.3297
vt 0.0933 0.3297
vt 0.0868 0.4158
vt 0.0868 0.4158
vt 0.0967 0.3297
vt 0.0967 0.3297
vt 0.0967 0.3297
vt 0.0967 0.3298
vt 0.0967 0.3298
vt 0.0967 0.3297
vt 0.0868 0.4158
vt 0.0868 0.4158
vt 0.0967 0.3297
vt 0.0967 0.3297
vt 0.0967 0.3297
vt 0.0967 0.3297
vn 0.0135 -0.5929 -0.8052
vn 0.0139 -0.5920 -0.8058
vn 0.0136 -0.5927 -0.8053
vn 0.0140 -0.5919 -0.8059
vn 0.0140 0.0066 -0.9999
vn 0.0140 0.0067 -0.9999
vn 0.0140 0.5877 -0.8089
vn 0.0136 0.5867 -0.8097
vn 0.0139 0.5875 -0.8091
vn 0.0135 0.5865 -0.8098
vn 0.0135 0.9510 -0.3090
vn 0.0278 0.9627 -0.2691
vn 0.0120 0.9529 0.3031
vn 0.0037 0.9594 0.2821
vn 0.0135 0.5821 0.8130
vn 0.0126 0.5803 0.8143
vn 0.0097 0.5748 0.8182
vn 0.0086 0.5727 0.8197
vn 0.0140 -0.0000 0.9999
vn 0.0139 -0.0004 0.9999
vn 0.0136 -0.0012 0.9999
vn 0.0135 -0.0015 0.9999
vn 0.0140 -0.5877 0.8089
vn 0.0140 -0.9489 0.3153
vn 0.0132 -0.9490 0.3150
vn 0.0114 -0.9491 0.3148
vn 0.0135 -0.9490 -0.3150
vn 0.0136 -0.9491 -0.3147
vn 0.0139 -0.9492 -0.3142
vn 0.0140 -0.9494 -0.3139
vn -1.0000 0.0000 0.0000
vn 1.0000 -0.0000 0.0000
vn -0.8829 0.4645 -0.0685
vn -0.8000 0.2810 -0.5301
vn -0.8829 -0.4161 0.2176
vn -0.8000 -0.5389 -0.2638
vn -0.9939 0.0647 -0.0891
vn -0.9939 0.0648 -0.0891
vn -0.9939 0.1048 -0.0340
vn -0.8643 -0.3645 0.3466
vn -0.7770 0.0819 0.6242
vn -0.8643 0.4986 -0.0662
vn -0.7770 0.3006 -0.5531
vn -0.9939 0.0000 0.1102
vn -0.9939 -0.0647 0.0891
vn -0.8829 0.0784 -0.4629
vn -0.8000 -0.4174 -0.4310
vn -0.8829 0.0784 0.4630
vn -0.8000 -0.4174 0.4310
vn 0.9964 -0.0496 -0.0682
vn 0.8688 0.4446 -0.2180
vn 0.7811 0.5713 0.2519
vn 0.8688 -0.4879 -0.0848
vn 0.7811 -0.3143 -0.5395
vn 0.9964 0.0802 -0.0261
vn 0.9964 0.0802 0.0261
vn 0.9964 0.0496 0.0682
vn 0.8688 -0.4446 0.2180
vn 0.7811 -0.5713 -0.2519
vn 0.9964 0.0497 -0.0684
vn 0.8688 0.3449 0.3554
vn 0.7811 -0.0629 0.6212
vn 0.9964 -0.0802 -0.0261
vn -0.2487 0.6963 0.6733
vn -0.9240 0.2247 0.3093
vn -0.3981 -0.2682 0.8773
vn -0.9164 -0.0538 0.3967
vn -0.4042 -0.5376 0.7400
vn -0.3892 -0.8761 0.2846
vn -0.2247 -0.8664 0.4459
vn -0.2492 -0.9609 -0.1206
vn -0.9982 -0.0543 -0.0262
vn -0.2492 -0.4116 -0.8766
vn -0.9979 -0.0437 -0.0479
vn -0.3464 0.0000 -0.9381
vn -0.2297 0.1093 -0.9671
vn -0.3691 0.5463 -0.7519
vn -0.3712 0.7732 -0.5141
vn -0.9180 0.3613 -0.1637
vn -0.2487 0.8555 0.4541
vn -0.9240 0.3636 0.1182
vn 0.2158 0.5739 0.7899
vn 0.3552 0.4552 0.8165
vn 0.3063 0.2240 0.9252
vn 0.9874 -0.0047 -0.1581
vn 0.3513 -0.7371 0.5773
vn 0.9868 0.1073 -0.1216
vn 0.2158 -0.9286 0.3017
vn 0.3653 -0.8408 0.3994
vn 0.2158 -0.9286 -0.3017
vn 0.2158 -0.5739 -0.7899
vn 0.3848 -0.4263 -0.8186
vn 0.3847 -0.2814 -0.8791
vn 0.9862 0.0229 0.1639
vn 0.9877 -0.0921 0.1267
vn 0.3574 0.9335 -0.0285
vn 0.9865 -0.1606 0.0322
vn 0.3414 0.8939 0.2905
vn 0.2067 0.9592 0.1929
vn 0.0087 0.9525 0.3046
vn 0.0091 0.9517 0.3069
vn 0.0088 0.9522 0.3054
vn 0.0092 0.9514 0.3077
vn 0.0761 0.9397 -0.3335
vn 0.0815 0.9479 -0.3080
vn 0.1303 0.5709 -0.8106
vn 0.1244 0.5457 -0.8287
vn 0.1494 0.0717 -0.9862
vn 0.1492 0.0724 -0.9862
vn 0.1488 0.0737 -0.9861
vn 0.1486 0.0743 -0.9861
vn 0.1204 -0.6188 -0.7763
vn 0.1290 -0.5967 -0.7920
vn 0.0763 -0.9392 -0.3347
vn 0.0789 -0.9448 -0.3180
vn 0.0117 -0.9492 0.3145
vn 0.0117 -0.9492 0.3146
vn -0.0405 -0.5873 0.8084
vn -0.0606 0.0068 0.9981
vn -0.0571 0.0209 0.9981
vn -0.0335 0.6674 0.7439
vn -0.0733 0.5948 0.8006
vn -0.0230 0.9498 0.3121
vn -0.0229 0.9500 0.3113
vn -0.0226 0.9506 0.3097
vn -0.0225 0.9508 0.3089
vn -0.0876 0.9474 -0.3078
vn -0.1424 0.6233 -0.7689
vn -0.1362 0.6372 -0.7585
vn -0.1654 -0.0827 -0.9827
vn -0.1653 -0.0833 -0.9827
vn -0.1651 -0.0839 -0.9827
vn -0.1649 -0.0844 -0.9827
vn -0.1403 -0.5667 -0.8119
vn -0.1439 -0.5817 -0.8006
vn -0.0894 -0.9509 -0.2964
vn -0.0880 -0.9482 -0.3052
vn -0.0889 -0.9500 -0.2993
vn -0.0876 -0.9474 -0.3078
vn -0.0248 -0.9545 0.2971
vn -0.0248 -0.9546 0.2969
vn -0.0248 -0.9546 0.2968
vn 0.0321 -0.5875 0.8086
vn 0.0530 -0.0194 0.9984
vn 0.0525 -0.0211 0.9984
vn 0.0515 -0.0246 0.9984
vn 0.0510 -0.0261 0.9984
vn 0.0306 0.5839 0.8112
vn 0.0308 0.5848 0.8106
vn 0.0313 0.5866 0.8093
vn 0.0315 0.5875 0.8086
vn 0.1413 0.9066 -0.3977
vn -0.0379 0.9506 0.3080
vn 0.0490 0.9393 0.3396
vn 0.1606 0.4826 0.8610
vn -0.0654 0.9624 -0.2637
vn 0.0636 0.9568 0.2837
vn 0.0465 0.9540 0.2962
vn 0.0365 0.5709 0.8202
vn 0.3392 -0.3658 0.8667
vn 0.4562 -0.1908 0.8692
vn 0.9962 0.0674 -0.0545
vn 0.9962 0.0683 -0.0546
vn 0.9959 0.0718 -0.0551
vn 0.9958 0.0727 -0.0553
vn 0.4115 0.2262 -0.8829
vn 0.4861 0.3395 -0.8053
vn -0.9925 0.1149 0.0426
vn -0.9942 0.1027 0.0319
vn -0.1725 -0.3777 0.9097
vn -0.2722 -0.2039 0.9404
vn -0.5170 0.2437 -0.8206
vn -0.5896 0.3569 -0.7245
vn 0.0238 0.9525 0.3036
vn 0.0325 0.9527 0.3023
vn 0.0272 0.9537 0.2994
vn 0.0263 0.9522 0.3042
vn 0.0374 0.9514 0.3056
vn 0.0141 0.9529 0.3029
vn 0.0185 0.9580 0.2862
vn 0.0378 0.9586 0.2821
vn 0.0549 0.9568 0.2854
vn 0.0553 0.9567 0.2858
vn 0.0591 0.9546 0.2921
vn 0.0597 0.9546 0.2917
vn 0.0592 0.9544 0.2925
vn 0.0381 0.9534 0.2994
vn 0.0372 0.9542 0.2969
vn 0.0347 0.9566 0.2893
vn 0.0337 0.9575 0.2866
vn -0.3547 0.7815 -0.5133
vn -0.3547 0.7815 -0.5134
vn -0.3546 0.7814 -0.5134
vn -0.8585 0.4580 0.2306
vn -0.8593 0.4572 0.2294
vn -0.8597 0.4567 0.2286
vn -0.8600 0.4565 0.2282
vn -0.4708 0.2923 0.8324
vn -0.4289 0.1845 0.8843
vn 0.8852 0.4342 0.1670
vn 0.9349 0.3525 0.0407
vn 0.1921 0.8718 -0.4506
vn 0.3184 0.8003 -0.5081
vn 0.6189 0.2410 0.7476
vn 0.6386 0.2934 0.7114
usemtl None
s 1
f 1/1/1 2/2/2 3/3/3
f 3/3/3 2/2/2 4/4/4
f 5/5/5 6/6/6 2/2/5
f 2/2/5 6/6/6 4/4/6
f 5/5/7 7/7/8 6/6/9
f 6/6/9 7/7/8 8/8/10
f 7/7/11 9/9/11 8/8/11
f 8/8/12 9/9/12 10/10/12
f 9/9/13 11/11/13 10/10/13
f 10/10/14 11/11/14 12/12/14
f 13/13/15 14/14/16 11/11/17
f 11/11/17 14/14/16 12/12/18
f 15/15/19 16/16/20 13/13/21
f 13/13/21 16/16/20 14/14/22
f 15/15/23 17/17/23 16/16/23
f 16/16/23 17/17/23 18/18/23
f 17/17/24 19/19/24 18/18/25
f 18/18/25 19/19/24 20/20/26
f 1/1/27 3/3/28 19/19/29
f 19/19/29 3/3/28 20/20/30
f 21/21/31 22/22/31 23/23/31
f 23/23/31 22/22/31 24/24/31
f 25/25/31 23/23/31 24/24/31
f 26/26/31 25/25/31 27/27/31
f 27/27/31 25/25/31 24/24/31
f 28/28/31 26/26/31 29/29/31
f 29/29/31 26/26/31 27/27/31
f 28/28/31 29/29/31 30/30/31
f 30/30/31 29/29/31 31/31/31
f 30/30/31 31/31/31 32/32/31
f 32/32/31 31/31/31 33/33/31
f 32/32/31 33/33/31 34/34/31
f 34/34/31 33/33/31 24/24/31
f 35/35/31 34/34/31 36/36/31
f 36/36/31 34/34/31 24/24/31
f 37/37/31 36/36/31 24/24/31
f 22/22/31 37/37/31 24/24/31
f 38/38/32 39/39/32 40/40/32
f 41/41/32 42/42/32 39/39/32
f 39/39/32 42/42/32 40/40/32
f 43/43/32 44/44/32 41/41/32
f 41/41/32 44/44/32 42/42/32
f 43/43/32 45/45/32 44/44/32
f 44/44/32 45/45/32 46/46/32
f 45/45/32 47/47/32 46/46/32
f 46/46/32 47/47/32 40/40/32
f 48/48/32 49/49/32 47/47/32
f 47/47/32 49/49/32 40/40/32
f 49/49/32 50/50/32 40/40/32
f 50/50/32 51/51/32 40/40/32
f 51/51/32 52/52/32 40/40/32
f 53/53/32 38/38/32 52/52/32
f 52/52/32 38/38/32 40/40/32
f 2/2/33 1/1/33 54/54/33
f 54/54/34 1/1/34 55/55/34
f 2/2/35 54/54/35 5/5/35
f 5/5/36 54/54/36 56/56/36
f 7/7/37 5/5/37 57/57/37
f 57/57/37 5/5/37 56/56/38
f 9/9/39 7/7/39 58/58/39
f 58/58/39 7/7/39 57/57/39
f 11/11/40 9/9/40 59/59/40
f 59/59/41 9/9/41 58/58/41
f 13/13/42 11/11/42 60/60/42
f 60/60/43 11/11/43 59/59/43
f 15/15/44 13/13/44 61/61/44
f 61/61/44 13/13/44 60/60/44
f 17/17/45 15/15/45 62/62/45
f 62/62/45 15/15/45 61/61/45
f 19/19/46 17/17/46 63/63/46
f 63/63/47 17/17/47 62/62/47
f 19/19/48 63/63/48 1/1/48
f 1/1/49 63/63/49 55/55/49
f 64/64/50 65/65/50 66/66/50
f 66/66/50 65/65/50 67/67/50
f 65/65/51 68/68/51 67/67/51
f 67/67/52 68/68/52 69/69/52
f 68/68/53 70/70/53 69/69/53
f 69/69/54 70/70/54 71/71/54
f 70/70/55 72/72/55 71/71/55
f 71/71/55 72/72/55 73/73/55
f 72/72/56 74/74/56 73/73/56
f 73/73/56 74/74/56 75/75/56
f 74/74/57 76/76/57 75/75/57
f 75/75/57 76/76/57 77/77/57
f 76/76/58 78/78/58 77/77/58
f 77/77/59 78/78/59 79/79/59
f 78/78/60 80/80/60 79/79/60
f 79/79/60 80/80/60 81/81/60
f 80/80/61 82/82/61 81/81/61
f 81/81/62 82/82/62 83/83/62
f 82/82/63 64/64/63 83/83/63
f 83/83/63 64/64/63 66/66/63
f 55/55/64 21/84/64 54/54/64
f 54/54/65 21/84/65 23/85/65
f 56/56/66 54/54/66 25/86/66
f 25/86/67 54/54/67 23/85/67
f 57/57/68 56/56/68 26/87/68
f 26/87/68 56/56/68 25/86/68
f 57/57/69 26/87/69 58/58/69
f 58/58/70 26/87/70 28/88/70
f 58/58/71 28/88/71 59/59/71
f 59/59/72 28/88/72 30/89/72
f 60/60/73 59/59/73 32/90/73
f 32/90/74 59/59/74 30/89/74
f 61/61/75 60/60/75 34/91/75
f 34/91/76 60/60/76 32/90/76
f 61/61/77 34/91/77 62/62/77
f 62/62/77 34/91/77 35/92/77
f 62/62/78 35/92/78 63/63/78
f 63/63/79 35/92/79 84/93/79
f 55/55/80 63/63/80 21/84/80
f 21/84/81 63/63/81 84/93/81
f 66/66/82 67/67/82 38/94/82
f 38/94/83 67/67/83 39/95/83
f 67/67/84 69/69/84 39/95/84
f 39/95/85 69/69/85 41/96/85
f 71/71/86 43/97/86 69/69/86
f 69/69/87 43/97/87 41/96/87
f 73/73/88 45/98/88 71/71/88
f 71/71/89 45/98/89 43/97/89
f 73/73/90 75/75/90 45/98/90
f 45/98/90 75/75/90 47/99/90
f 75/75/91 77/77/91 47/99/91
f 47/99/92 77/77/92 48/100/92
f 77/77/93 79/79/93 48/100/93
f 48/100/94 79/79/94 85/101/94
f 79/79/95 81/81/95 85/101/95
f 85/101/95 81/81/95 86/102/95
f 83/83/96 53/103/96 81/81/96
f 81/81/97 53/103/97 86/102/97
f 83/83/98 66/66/98 53/103/98
f 53/103/99 66/66/99 38/94/99
f 87/104/100 88/105/101 89/106/102
f 89/106/102 88/105/101 90/107/103
f 8/8/104 87/104/104 91/108/104
f 91/108/105 87/104/105 89/106/105
f 6/6/106 8/8/106 92/109/106
f 92/109/107 8/8/107 91/108/107
f 6/6/108 92/109/109 4/4/110
f 4/4/110 92/109/109 93/110/111
f 3/3/112 4/4/112 94/111/112
f 94/111/113 4/4/113 93/110/113
f 3/3/114 94/111/114 20/20/114
f 20/20/115 94/111/115 95/112/115
f 18/18/25 20/20/26 96/113/116
f 96/113/116 20/20/26 95/112/117
f 18/18/118 96/113/118 16/16/118
f 16/16/118 96/113/118 97/114/118
f 16/16/119 97/114/119 14/14/119
f 14/14/120 97/114/120 98/115/120
f 14/14/121 98/115/121 88/105/121
f 88/105/122 98/115/122 90/107/122
f 90/107/123 74/74/124 89/106/125
f 89/106/125 74/74/124 72/72/126
f 89/106/127 72/72/127 91/108/127
f 91/108/127 72/72/127 70/70/127
f 92/109/128 91/108/128 68/68/128
f 68/68/129 91/108/129 70/70/129
f 92/109/130 68/68/131 93/110/132
f 93/110/132 68/68/131 65/65/133
f 94/111/134 93/110/134 64/64/134
f 64/64/135 93/110/135 65/65/135
f 95/112/136 94/111/137 82/82/138
f 82/82/138 94/111/137 64/64/139
f 96/113/140 95/112/140 80/80/141
f 80/80/141 95/112/140 82/82/142
f 97/114/143 96/113/143 78/78/143
f 78/78/143 96/113/143 80/80/143
f 97/114/144 78/78/145 98/115/146
f 98/115/146 78/78/145 76/76/147
f 98/115/148 76/76/149 90/107/150
f 90/107/150 76/76/149 74/74/151
f 8/8/152 99/116/152 87/104/152
f 100/117/153 101/118/153 102/119/153
f 102/119/154 101/118/154 103/120/154
f 104/121/155 14/14/155 88/105/155
f 8/8/156 10/10/156 99/116/156
f 105/122/157 101/118/157 106/123/157
f 106/123/158 101/118/158 100/117/158
f 12/12/159 14/14/159 104/121/159
f 104/121/160 88/105/160 107/124/160
f 107/124/161 88/105/161 108/125/161
f 88/105/162 87/104/163 108/125/164
f 108/125/164 87/104/163 109/126/165
f 99/116/166 110/127/166 87/104/166
f 87/104/167 110/127/167 109/126/167
f 10/10/168 12/12/168 111/128/168
f 111/128/169 12/12/169 112/129/169
f 104/121/170 107/124/170 12/12/170
f 12/12/171 107/124/171 112/129/171
f 99/116/172 10/10/172 110/127/172
f 110/127/173 10/10/173 111/128/173
f 108/125/174 113/130/175 107/124/176
f 107/124/176 113/130/175 114/131/176
f 108/125/174 109/126/177 113/130/175
f 113/130/175 109/126/177 115/132/178
f 110/127/179 116/133/179 109/126/179
f 109/126/180 116/133/180 115/132/180
f 111/128/181 112/129/181 117/134/181
f 117/134/182 112/129/183 118/135/184
f 112/129/183 107/124/185 118/135/184
f 118/135/184 107/124/185 114/131/186
f 110/127/187 111/128/188 116/133/189
f 116/133/189 111/128/188 117/134/190
f 114/131/191 113/130/192 101/136/192
f 101/136/192 113/130/192 103/137/193
f 113/130/194 115/132/195 103/137/196
f 103/137/196 115/132/195 102/138/197
f 116/133/198 100/139/198 115/132/198
f 115/132/199 100/139/199 102/138/199
f 118/135/200 105/140/200 117/134/200
f 117/134/201 105/140/201 106/141/201
f 118/135/202 114/131/202 105/140/202
f 105/140/203 114/131/203 101/136/203
f 116/133/204 117/134/204 100/139/204
f 100/139/205 117/134/205 106/141/205
f 119/142/32 46/46/32 40/40/32
f 42/42/32 119/142/32 40/40/32
f 42/143/32 44/144/32 119/145/32
f 44/144/32 46/146/32 119/145/32
f 85/147/32 120/148/32 48/48/32
f 48/48/32 120/148/32 49/49/32
f 85/147/32 86/149/32 120/148/32
f 120/148/32 86/149/32 121/150/32
f 86/149/32 53/53/32 121/150/32
f 121/150/32 53/53/32 52/52/32
f 121/151/32 52/152/32 51/153/32
f 121/151/32 51/153/32 120/154/32
f 120/154/32 51/153/32 50/155/32
f 49/156/32 120/154/32 50/155/32
f 122/157/31 27/27/31 24/24/31
f 123/158/31 122/157/31 24/24/31
f 33/33/31 123/158/31 24/24/31
f 33/159/31 31/160/31 123/161/31
f 29/162/31 122/163/31 31/160/31
f 31/160/31 122/163/31 123/161/31
f 29/162/31 27/164/31 122/163/31
f 84/165/31 124/166/31 21/21/31
f 21/21/31 124/166/31 22/22/31
f 84/165/31 35/35/31 124/166/31
f 124/166/31 35/35/31 36/36/31
f 124/167/31 36/168/31 37/169/31
f 22/170/31 124/167/31 37/169/31
