# Blender v2.78 (sub 0) OBJ File: ''
# www.blender.org
mtllib SM_Env_Road_Straight_02.mtl
o SM_Env_Road_Straight_02
v 19.274673 3.891868 99.999992
v 13.764633 5.902262 65.102753
v 0.000000 10.779997 100.000000
v 0.000000 12.790390 66.666656
v -23.424393 -0.000026 100.000000
v -34.046387 -0.000030 66.666656
v 300.000000 17.426819 66.666656
v 300.000000 10.779997 100.000000
v 323.424408 -0.000030 66.666656
v 323.424408 -0.000026 100.000000
v 280.725311 3.891868 99.999992
v 268.163818 10.538692 64.029373
v 34.938217 -0.000035 99.999992
v 29.428192 0.579274 65.102753
v 265.061737 -0.000035 99.999992
v 252.500244 0.668396 64.029373
v 82.396362 -0.000035 99.999992
v 75.856331 -0.000030 69.351364
v 217.603592 -0.000035 99.999992
v 222.030396 -0.000030 69.029503
v 130.910797 -0.000035 99.999992
v 129.213577 -0.000030 67.691841
v 169.089142 -0.000035 99.999992
v 163.217804 -0.000030 66.940819
v 300.000000 10.780012 -0.000019
v 300.000000 17.426825 33.333328
v 323.424408 -0.000009 -0.000019
v 331.919586 -0.000024 30.414726
v 284.926727 10.538697 30.692539
v 280.725311 3.891884 -0.000019
v 269.263184 0.668401 30.692537
v 265.061737 -0.000018 -0.000019
v 218.444031 -0.000024 31.751841
v 217.603592 -0.000018 -0.000019
v 159.631439 -0.000024 29.663151
v 169.089142 -0.000018 -0.000019
v 133.157471 -0.000024 30.187660
v 130.910797 -0.000018 -0.000019
v 66.162758 -0.000023 29.237047
v 82.396362 -0.000018 -0.000019
v 45.116867 0.579280 30.576395
v 34.938217 -0.000018 -0.000019
v 29.453308 5.902267 30.576397
v 19.274673 3.891884 -0.000019
v 0.000000 12.790396 33.333328
v 0.000000 10.780012 -0.000019
v -34.046387 -0.000024 33.333328
v -23.424393 -0.000009 -0.000019
vt 0.9624 0.4121
vt 0.9624 0.4121
vt 0.9624 0.4121
vt 0.9624 0.4121
vt 0.9624 0.4121
vt 0.9624 0.4121
vt 0.9624 0.4121
vt 0.9624 0.4121
vt 0.9624 0.4121
vt 0.9624 0.4121
vt 0.9624 0.4121
vt 0.9624 0.4121
vt 0.9636 0.4562
vt 0.9636 0.4562
vt 0.9636 0.4562
vt 0.9636 0.4562
vt 0.9636 0.4562
vt 0.9636 0.4562
vt 0.9636 0.4562
vt 0.9636 0.4562
vt 0.9517 0.3609
vt 0.9517 0.3609
vt 0.9517 0.3609
vt 0.9517 0.3609
vt 0.9517 0.3609
vt 0.9517 0.3609
vt 0.9517 0.3609
vt 0.9517 0.3609
vt 0.9434 0.3073
vt 0.9434 0.3073
vt 0.9434 0.3073
vt 0.9434 0.3073
vt 0.9434 0.3073
vt 0.9434 0.3073
vt 0.9434 0.3073
vt 0.9434 0.3073
vt 0.9517 0.3609
vt 0.9517 0.3609
vt 0.9517 0.3609
vt 0.9517 0.3609
vt 0.9624 0.4121
vt 0.9624 0.4121
vt 0.9624 0.4121
vt 0.9624 0.4121
vt 0.9624 0.4121
vt 0.9624 0.4121
vt 0.9636 0.4562
vt 0.9636 0.4562
vt 0.9636 0.4562
vt 0.9636 0.4562
vt 0.9517 0.3609
vt 0.9517 0.3609
vt 0.9517 0.3609
vt 0.9517 0.3609
vt 0.9434 0.3073
vt 0.9434 0.3073
vt 0.9434 0.3073
vt 0.9434 0.3073
vt 0.9517 0.3609
vt 0.9517 0.3609
vt 0.9517 0.3609
vt 0.9517 0.3609
vt 0.9434 0.3073
vt 0.9434 0.3073
vt 0.9434 0.3073
vt 0.9434 0.3073
vt 0.9517 0.3609
vt 0.9517 0.3609
vt 0.9517 0.3609
vt 0.9517 0.3609
vt 0.9636 0.4562
vt 0.9636 0.4562
vt 0.9636 0.4562
vt 0.9636 0.4562
vt 0.9624 0.4121
vt 0.9624 0.4121
vt 0.9624 0.4121
vt 0.9624 0.4121
vt 0.9624 0.4121
vt 0.9624 0.4121
vn 0.3365 0.9417 0.0011
vn 0.4517 0.8905 0.0537
vn -0.4174 0.9071 0.0547
vn -0.3495 0.9303 0.1114
vn 0.5894 0.7922 0.1580
vn 0.4181 0.9084 -0.0000
vn -0.3307 0.9255 0.1845
vn -0.2245 0.9412 0.2523
vn 0.2411 0.9703 -0.0220
vn 0.3218 0.9468 0.0037
vn -0.2332 0.9384 0.2548
vn -0.5226 0.8293 0.1979
vn 0.0000 1.0000 0.0000
vn 0.0111 0.9998 0.0148
vn 0.0111 0.9998 0.0146
vn 0.0120 0.9999 0.0056
vn 0.0000 0.9998 0.0186
vn -0.0225 0.9997 -0.0032
vn -0.0232 0.9997 -0.0009
vn -0.0216 0.9998 0.0018
vn 0.4114 0.8939 -0.1782
vn 0.4659 0.8752 -0.1301
vn -0.3824 0.9061 -0.1807
vn -0.3324 0.9302 -0.1559
vn -0.5299 0.8409 -0.1096
vn -0.2411 0.9704 0.0119
vn -0.0133 0.9999 -0.0076
vn -0.0136 0.9997 -0.0199
vn -0.0152 0.9997 -0.0172
vn 0.0258 0.9993 -0.0275
vn 0.3193 0.9395 -0.1241
vn 0.2387 0.9606 -0.1426
vn 0.2137 0.9676 -0.1347
vn 0.3360 0.9402 -0.0567
vn -0.3495 0.9303 -0.1114
vn -0.4174 0.9071 -0.0547
vn 0.5969 0.8023 0.0000
vn 0.4841 0.8676 0.1134
vn -0.2023 0.9740 -0.1017
vn -0.4156 0.9095 0.0000
vn -0.5149 0.8172 -0.2589
vn 0.0120 0.9999 0.0054
vn 0.0271 0.9996 -0.0065
vn 0.3184 0.9369 0.1447
vn 0.4475 0.8943 0.0000
vn 0.2359 0.9658 0.1072
vn -0.3517 0.9361 0.0000
usemtl None
s 1
f 1/1/1 2/2/1 3/3/1
f 3/3/2 2/2/2 4/4/2
f 3/3/3 4/4/3 5/5/3
f 5/5/4 4/4/4 6/6/4
f 7/7/5 8/8/5 9/9/5
f 9/9/6 8/8/6 10/10/6
f 8/8/7 7/7/7 11/11/7
f 11/11/8 7/7/8 12/12/8
f 13/13/9 14/14/9 1/15/9
f 1/15/10 14/14/10 2/16/10
f 11/17/11 12/18/11 15/19/11
f 15/19/12 12/18/12 16/20/12
f 17/21/13 18/22/13 13/23/13
f 13/23/14 18/22/15 14/24/16
f 15/25/17 16/26/17 19/27/17
f 19/27/18 16/26/19 20/28/20
f 21/29/13 22/30/13 17/31/13
f 17/31/13 22/30/13 18/32/13
f 19/33/13 20/34/13 23/35/13
f 23/35/13 20/34/13 24/36/13
f 23/37/13 24/38/13 21/39/13
f 21/39/13 24/38/13 22/40/13
f 25/41/21 26/42/21 27/43/21
f 27/43/22 26/42/22 28/44/22
f 26/42/23 25/41/23 29/45/23
f 29/45/24 25/41/24 30/46/24
f 29/47/25 30/48/25 31/49/25
f 31/49/26 30/48/26 32/50/26
f 31/51/27 32/52/28 33/53/29
f 33/53/13 32/52/13 34/54/13
f 35/55/13 33/56/13 36/57/13
f 36/57/13 33/56/13 34/58/13
f 37/59/13 35/60/13 38/61/13
f 38/61/13 35/60/13 36/62/13
f 39/63/13 37/64/13 40/65/13
f 40/65/13 37/64/13 38/66/13
f 41/67/30 39/68/30 42/69/30
f 42/69/13 39/68/13 40/70/13
f 41/71/31 42/72/31 43/73/31
f 43/73/32 42/72/32 44/74/32
f 43/75/33 44/76/33 45/77/33
f 45/77/34 44/76/34 46/78/34
f 47/79/35 45/77/35 48/80/35
f 48/80/36 45/77/36 46/78/36
f 7/7/37 9/9/37 26/42/37
f 26/42/38 9/9/38 28/44/38
f 12/12/39 7/7/39 29/45/39
f 29/45/40 7/7/40 26/42/40
f 16/20/41 12/18/41 31/49/41
f 31/49/41 12/18/41 29/47/41
f 20/28/20 16/26/19 33/53/29
f 33/53/29 16/26/19 31/51/27
f 20/34/13 33/56/13 24/36/13
f 24/36/13 33/56/13 35/55/13
f 22/40/13 24/38/13 37/59/13
f 37/59/13 24/38/13 35/60/13
f 22/30/13 37/64/13 18/32/13
f 18/32/13 37/64/13 39/63/13
f 14/24/16 18/22/15 41/67/42
f 41/67/43 18/22/43 39/68/43
f 2/16/44 14/14/44 43/73/44
f 43/73/44 14/14/44 41/71/44
f 4/4/45 2/2/45 45/77/45
f 45/77/46 2/2/46 43/75/46
f 6/6/47 4/4/47 47/79/47
f 47/79/47 4/4/47 45/77/47
