# This file uses centimeters as units for non-parametric coordinates.

v -29.148438 18.429337 42.563446
v 49.401367 100.034088 22.129089
v -39.787109 2.046524 -15.160217
v -45.812500 80.129410 11.341583
v -44.230469 5.578804 26.973114
v 10.221680 106.863243 -32.213379
v -19.439453 2.668465 -41.062439
v 53.553711 18.603716 -7.447418
v -3.681641 129.458603 10.502106
v -45.953125 47.962082 -28.939178
v -33.919922 107.334404 17.854797
v 51.965820 35.571907 -29.703827
v 24.145508 3.884544 12.206665
v -25.340820 0.000000 13.976501
v -18.436523 74.481972 -51.114990
v -15.660156 121.623764 1.071289
v -9.342773 75.110588 -57.005585
v 9.254883 69.176842 53.866272
v 20.171875 70.004807 52.717682
v 14.978516 10.059784 52.149384
v 4.637695 87.490158 59.869934
v 16.979492 116.748230 39.985138
v 22.398438 123.902336 18.974091
v -9.797852 121.724838 29.202454
v -40.177734 69.904282 -24.777252
v -44.437500 27.094975 -28.398102
v -58.414063 37.863430 7.281342
v -54.351563 58.302082 -5.042328
v -27.387695 41.809177 45.191254
v -29.365234 82.227020 30.608643
v 58.413086 63.397091 -24.171570
v 1.627930 85.036102 -50.863403
v 19.358398 11.834877 -42.336853
v 1.777344 29.821697 -54.134460
v 20.098633 63.617065 -50.811523
v 35.693359 78.549469 35.584351
v 29.598633 48.777905 55.751923
v -18.432617 98.298744 45.689148
v -57.235352 58.845280 14.109619
v -20.117188 41.038734 -59.869873
v -4.405273 12.498775 51.636444
v 27.627930 4.161587 -26.635803
v 7.605469 45.786495 57.623474
v 46.412109 14.590298 20.662323
v 56.993164 76.698494 -3.845367
v 29.490234 95.103653 48.782166
v 20.614258 124.308746 4.569397
v -50.240234 7.106865 16.680542
v -26.494141 15.318130 -46.484467
v 25.048828 21.504335 56.897125
v 46.587891 9.352478 -17.840942
v 53.509766 95.646744 9.685822
vt 0.873613 0.411801
vt 0.873613 0.411801
vt 0.873613 0.411798
vt 0.873613 0.411798
vt 0.873613 0.411801
vt 0.873613 0.411801
vt 0.873613 0.411801
vt 0.873613 0.411798
vt 0.873613 0.411799
vt 0.873613 0.411799
vt 0.873613 0.411799
vt 0.873613 0.411799
vt 0.873613 0.411798
vt 0.873613 0.411799
vt 0.873613 0.411801
vt 0.873613 0.411801
vt 0.873613 0.411798
vt 0.873613 0.411798
vt 0.873613 0.411801
vt 0.873613 0.411799
vt 0.873613 0.411799
vt 0.873613 0.411799
vt 0.873613 0.411799
vt 0.873613 0.411798
vt 0.873613 0.411799
vt 0.873613 0.411799
vt 0.873613 0.411799
vt 0.873613 0.411798
vt 0.873613 0.411798
vt 0.873613 0.411801
vt 0.873613 0.411801
vt 0.873613 0.411801
vt 0.873613 0.411801
vt 0.873613 0.411801
vt 0.873613 0.411799
vt 0.873613 0.411799
vt 0.873613 0.411799
vt 0.873613 0.411799
vt 0.873613 0.411798
vt 0.873613 0.411801
vt 0.873613 0.411799
vt 0.873613 0.411801
vt 0.873613 0.411798
vt 0.873613 0.411799
vt 0.873613 0.411801
vt 0.873613 0.411801
vt 0.873613 0.411798
vt 0.873613 0.411801
vt 0.873613 0.411801
vt 0.873613 0.411799
vt 0.873613 0.411798
vt 0.873613 0.411798
vn -0.195106 0.611550 0.766773
vn -0.195106 0.611550 0.766773
vn -0.195106 0.611550 0.766773
vn 0.582938 0.711388 0.392568
vn 0.582938 0.711388 0.392568
vn 0.582938 0.711388 0.392568
vn 0.041617 0.942487 0.331643
vn 0.041617 0.942487 0.331643
vn 0.041617 0.942487 0.331643
vn 0.065057 0.914441 0.399457
vn 0.065057 0.914441 0.399456
vn 0.065057 0.914441 0.399457
vn 0.207791 0.978171 0.001861
vn 0.207791 0.978171 0.001861
vn 0.207791 0.978171 0.001861
vn -0.558710 0.814888 0.154274
vn -0.558710 0.814888 0.154274
vn -0.558710 0.814888 0.154274
vn -0.604276 0.595383 0.529500
vn -0.604276 0.595383 0.529500
vn -0.604276 0.595383 0.529500
vn -0.727354 0.207773 -0.654054
vn -0.727354 0.207773 -0.654054
vn -0.727354 0.207773 -0.654054
vn -0.759203 0.308529 -0.573080
vn -0.759203 0.308529 -0.573080
vn -0.759203 0.308529 -0.573080
vn -0.773389 -0.072503 -0.629771
vn -0.773389 -0.072503 -0.629772
vn -0.773389 -0.072503 -0.629772
vn -0.950578 -0.076843 -0.300827
vn -0.950578 -0.076843 -0.300827
vn -0.950578 -0.076843 -0.300827
vn -0.849372 0.305234 -0.430580
vn -0.849372 0.305234 -0.430580
vn -0.849372 0.305234 -0.430580
vn -0.918338 -0.304271 -0.253128
vn -0.918338 -0.304271 -0.253128
vn -0.918338 -0.304271 -0.253128
vn -0.910636 -0.321381 -0.259723
vn -0.910636 -0.321381 -0.259723
vn -0.910636 -0.321381 -0.259723
vn -0.933701 -0.029567 -0.356831
vn -0.933701 -0.029567 -0.356831
vn -0.933701 -0.029567 -0.356831
vn -0.820316 0.484057 -0.304582
vn -0.820316 0.484057 -0.304582
vn -0.820316 0.484057 -0.304582
vn -0.359547 -0.077441 0.929908
vn -0.359547 -0.077441 0.929908
vn -0.359547 -0.077441 0.929908
vn -0.329211 -0.050800 0.942889
vn -0.329211 -0.050800 0.942889
vn -0.329211 -0.050800 0.942889
vn -0.347110 0.172549 0.921814
vn -0.347110 0.172549 0.921814
vn -0.347110 0.172549 0.921815
vn -0.420011 0.289743 0.860023
vn -0.420011 0.289743 0.860023
vn -0.420011 0.289743 0.860023
vn 0.513195 0.431747 -0.741772
vn 0.513195 0.431747 -0.741772
vn 0.513195 0.431747 -0.741772
vn 0.513947 0.441421 -0.735531
vn 0.513947 0.441421 -0.735531
vn 0.513947 0.441421 -0.735531
vn 0.428910 0.079527 -0.899840
vn 0.428910 0.079527 -0.899840
vn 0.428910 0.079527 -0.899840
vn 0.446379 -0.143072 -0.883333
vn 0.446379 -0.143072 -0.883333
vn 0.446379 -0.143072 -0.883333
vn 0.555698 -0.222493 -0.801060
vn 0.555698 -0.222493 -0.801060
vn 0.555698 -0.222493 -0.801060
vn 0.017848 -0.996726 -0.078858
vn 0.017848 -0.996726 -0.078858
vn 0.017848 -0.996726 -0.078858
vn 0.078253 -0.996934 -0.000095
vn 0.078253 -0.996934 -0.000095
vn 0.078253 -0.996934 -0.000095
vn 0.906349 0.012248 0.422351
vn 0.906350 0.012248 0.422351
vn 0.906349 0.012248 0.422351
vn 0.874253 0.136601 0.465856
vn 0.874253 0.136601 0.465856
vn 0.874253 0.136602 0.465856
vn -0.816664 0.230314 0.529164
vn -0.816664 0.230314 0.529165
vn -0.816664 0.230314 0.529164
vn -0.751218 -0.101038 0.652276
vn -0.751218 -0.101038 0.652276
vn -0.751218 -0.101038 0.652276
vn -0.596769 -0.294453 0.746435
vn -0.596769 -0.294453 0.746434
vn -0.596769 -0.294453 0.746435
vn -0.568072 -0.382167 0.728864
vn -0.568072 -0.382167 0.728864
vn -0.568072 -0.382167 0.728864
vn -0.191092 0.605610 0.772477
vn -0.191092 0.605610 0.772477
vn -0.191092 0.605610 0.772477
vn -0.765082 0.497559 -0.408760
vn -0.765082 0.497559 -0.408760
vn -0.765082 0.497559 -0.408760
vn -0.659886 0.609994 -0.438700
vn -0.659886 0.609994 -0.438700
vn -0.659886 0.609994 -0.438700
vn -0.579648 0.812567 0.061181
vn -0.579648 0.812567 0.061181
vn -0.579648 0.812567 0.061181
vn -0.703124 0.449057 0.551330
vn -0.703124 0.449057 0.551330
vn -0.703124 0.449057 0.551330
vn -0.879525 0.453132 -0.145286
vn -0.879525 0.453132 -0.145286
vn -0.879525 0.453132 -0.145286
vn -0.983014 0.104357 -0.150976
vn -0.983014 0.104357 -0.150976
vn -0.983014 0.104357 -0.150976
vn -0.879045 -0.102162 0.465664
vn -0.879045 -0.102162 0.465664
vn -0.879045 -0.102162 0.465664
vn -0.865931 -0.079208 0.493852
vn -0.865931 -0.079208 0.493852
vn -0.865931 -0.079208 0.493852
vn -0.633534 0.234972 0.737172
vn -0.633534 0.234972 0.737172
vn -0.633534 0.234972 0.737172
vn -0.724033 -0.010216 0.689689
vn -0.724034 -0.010216 0.689689
vn -0.724034 -0.010216 0.689689
vn -0.707660 -0.026066 0.706073
vn -0.707660 -0.026066 0.706073
vn -0.707660 -0.026066 0.706073
vn 0.661068 0.747860 -0.060780
vn 0.661068 0.747860 -0.060780
vn 0.661068 0.747860 -0.060780
vn 0.633018 0.614796 -0.470441
vn 0.633018 0.614796 -0.470441
vn 0.633018 0.614796 -0.470441
vn -0.419273 0.704974 -0.572032
vn -0.419273 0.704974 -0.572032
vn -0.419273 0.704974 -0.572032
vn -0.229614 0.682926 -0.693462
vn -0.229614 0.682926 -0.693462
vn -0.229614 0.682926 -0.693462
vn 0.291582 0.249209 -0.923512
vn 0.291582 0.249209 -0.923512
vn 0.291582 0.249209 -0.923512
vn 0.211554 0.015254 -0.977247
vn 0.211554 0.015254 -0.977247
vn 0.211554 0.015254 -0.977247
vn 0.237318 -0.033195 -0.970865
vn 0.237318 -0.033195 -0.970865
vn 0.237318 -0.033195 -0.970865
vn -0.003672 -0.460923 -0.887432
vn -0.003672 -0.460923 -0.887432
vn -0.003672 -0.460923 -0.887432
vn -0.539539 0.238498 -0.807475
vn -0.539539 0.238498 -0.807475
vn -0.539539 0.238498 -0.807475
vn -0.749008 -0.150135 -0.645326
vn -0.749008 -0.150135 -0.645326
vn -0.749008 -0.150135 -0.645326
vn -0.062522 -0.946843 0.315561
vn -0.062522 -0.946843 0.315561
vn -0.062522 -0.946843 0.315561
vn -0.123289 -0.885700 0.447588
vn -0.123289 -0.885700 0.447588
vn -0.123289 -0.885700 0.447588
vn -0.401103 -0.477586 0.781683
vn -0.401103 -0.477586 0.781683
vn -0.401103 -0.477586 0.781683
vn -0.066643 -0.331737 0.941015
vn -0.066643 -0.331737 0.941015
vn -0.066643 -0.331737 0.941015
vn -0.136499 -0.127442 0.982409
vn -0.136499 -0.127442 0.982409
vn -0.136499 -0.127442 0.982409
vn -0.267345 -0.961404 0.065025
vn -0.267345 -0.961404 0.065025
vn -0.267345 -0.961404 0.065025
vn -0.767167 -0.405219 -0.497245
vn -0.767167 -0.405218 -0.497245
vn -0.767167 -0.405218 -0.497245
vn -0.636497 -0.575209 -0.513815
vn -0.636497 -0.575209 -0.513815
vn -0.636497 -0.575209 -0.513815
vn 0.031483 -0.999504 0.000732
vn 0.031483 -0.999504 0.000732
vn 0.031483 -0.999504 0.000732
vn 0.182286 -0.842114 -0.507559
vn 0.182286 -0.842114 -0.507559
vn 0.182286 -0.842114 -0.507559
vn 0.581321 -0.431383 -0.689909
vn 0.581321 -0.431383 -0.689909
vn 0.581321 -0.431383 -0.689909
vn 0.452719 -0.683575 -0.572512
vn 0.452719 -0.683575 -0.572512
vn 0.452719 -0.683575 -0.572512
vn 0.080930 0.028334 0.996317
vn 0.080930 0.028334 0.996317
vn 0.080930 0.028334 0.996317
vn 0.089437 0.179751 0.979638
vn 0.089437 0.179751 0.979638
vn 0.089437 0.179751 0.979638
vn 0.062971 0.153952 0.986070
vn 0.062971 0.153952 0.986070
vn 0.062971 0.153952 0.986070
vn 0.591819 0.365519 0.718433
vn 0.591819 0.365519 0.718433
vn 0.591819 0.365519 0.718433
vn 0.561840 -0.686104 0.462166
vn 0.561840 -0.686104 0.462166
vn 0.561840 -0.686104 0.462166
vn 0.352937 -0.909041 0.221540
vn 0.352937 -0.909041 0.221540
vn 0.352937 -0.909041 0.221540
vn 0.083178 -0.981776 0.170874
vn 0.083178 -0.981776 0.170874
vn 0.083178 -0.981776 0.170874
vn 0.390654 -0.911897 0.125834
vn 0.390654 -0.911897 0.125834
vn 0.390654 -0.911897 0.125834
vn 0.257052 -0.966263 0.016154
vn 0.257052 -0.966263 0.016154
vn 0.257052 -0.966263 0.016154
vn 0.741920 -0.663909 0.093702
vn 0.741920 -0.663909 0.093702
vn 0.741920 -0.663909 0.093702
vn 0.991510 -0.065660 0.112232
vn 0.991510 -0.065660 0.112232
vn 0.991510 -0.065660 0.112232
vn 0.969099 -0.072003 0.235930
vn 0.969099 -0.072003 0.235930
vn 0.969099 -0.072003 0.235930
vn 0.961336 -0.181586 -0.207027
vn 0.961336 -0.181586 -0.207027
vn 0.961336 -0.181586 -0.207027
vn 0.965743 0.242850 -0.091457
vn 0.965743 0.242850 -0.091457
vn 0.965743 0.242850 -0.091457
vn 0.847718 -0.246827 0.469522
vn 0.847718 -0.246827 0.469522
vn 0.847718 -0.246827 0.469522
vn 0.231502 0.478147 0.847220
vn 0.231502 0.478147 0.847220
vn 0.231502 0.478147 0.847220
vn 0.409739 -0.009095 0.912158
vn 0.409739 -0.009095 0.912158
vn 0.409739 -0.009095 0.912158
vn 0.773079 -0.192235 0.604479
vn 0.773079 -0.192235 0.604479
vn 0.773079 -0.192235 0.604479
vn 0.804987 -0.154944 0.572702
vn 0.804987 -0.154944 0.572702
vn 0.804987 -0.154944 0.572702
vn 0.601771 0.573672 0.555673
vn 0.601771 0.573672 0.555673
vn 0.601771 0.573672 0.555673
vn -0.905935 0.415517 -0.081407
vn -0.905935 0.415517 -0.081407
vn -0.905935 0.415517 -0.081407
vn -0.026343 0.906076 -0.422295
vn -0.026343 0.906076 -0.422295
vn -0.026343 0.906076 -0.422295
vn 0.005321 0.765847 -0.643001
vn 0.005321 0.765847 -0.643001
vn 0.005321 0.765847 -0.643001
vn -0.384727 0.695034 -0.607382
vn -0.384727 0.695034 -0.607382
vn -0.384727 0.695034 -0.607382
vn -0.272772 -0.961938 0.016458
vn -0.272772 -0.961938 0.016458
vn -0.272772 -0.961938 0.016458
vn 0.086275 -0.486076 -0.869648
vn 0.086275 -0.486076 -0.869648
vn 0.086275 -0.486076 -0.869648
vn -0.035917 -0.410566 -0.911123
vn -0.035917 -0.410566 -0.911123
vn -0.035917 -0.410566 -0.911123
vn 0.845185 -0.119117 0.521032
vn 0.845185 -0.119117 0.521032
vn 0.845185 -0.119117 0.521032
vn 0.893646 -0.323857 -0.310665
vn 0.893647 -0.323857 -0.310665
vn 0.893647 -0.323857 -0.310665
vn 0.121490 -0.281419 0.951863
vn 0.121490 -0.281419 0.951863
vn 0.121490 -0.281419 0.951863
vn 0.612789 0.614635 -0.496703
vn 0.612789 0.614635 -0.496702
vn 0.612789 0.614635 -0.496703
vn 0.664505 0.746009 -0.043635
vn 0.664505 0.746009 -0.043635
vn 0.664505 0.746009 -0.043635
vn 0.940474 -0.065288 0.333537
vn 0.940474 -0.065288 0.333537
vn 0.940474 -0.065288 0.333537
s off
f 22/1/1 24/2/2 38/3/3
f 22/1/4 2/4/5 23/5/6
f 24/2/7 22/1/8 23/5/9
f 24/2/10 23/5/11 9/6/12
f 23/5/13 47/7/14 9/6/15
f 24/2/16 9/6/17 11/8/18
f 38/3/19 24/2/20 11/8/21
f 40/10/22 10/11/23 15/9/24
f 15/9/25 10/11/26 25/12/27
f 40/10/28 26/13/29 10/11/30
f 10/11/31 26/13/32 28/14/33
f 25/12/34 10/11/35 28/14/36
f 26/13/37 3/15/38 48/16/39
f 26/13/40 48/16/41 27/17/42
f 28/14/43 26/13/44 27/17/45
f 25/12/46 28/14/47 11/8/48
f 1/18/49 41/19/50 29/20/51
f 41/19/52 43/21/53 29/20/54
f 29/20/55 43/21/56 18/22/57
f 29/20/58 18/22/59 30/23/60
f 6/24/61 31/25/62 32/26/63
f 31/25/64 35/27/65 32/26/66
f 31/25/67 12/28/68 34/29/69
f 12/28/70 33/30/71 34/29/72
f 31/25/73 34/29/74 35/27/75
f 3/15/76 42/31/77 14/33/78
f 14/33/79 42/31/80 13/32/81
f 44/34/82 45/35/83 37/36/84
f 45/35/85 36/37/86 37/36/87
f 11/8/88 4/38/89 38/3/90
f 38/3/91 4/38/92 30/23/93
f 38/3/94 30/23/95 21/39/96
f 30/23/97 18/22/98 21/39/99
f 38/3/100 21/39/101 22/1/102
f 11/8/103 16/40/104 15/9/105
f 25/12/106 11/8/107 15/9/108
f 11/8/109 9/6/110 16/40/111
f 4/38/112 39/41/113 30/23/114
f 4/38/115 28/14/116 39/41/117
f 39/41/118 28/14/119 27/17/120
f 39/41/121 27/17/122 5/42/123
f 5/42/124 27/17/125 48/16/126
f 30/23/127 39/41/128 29/20/129
f 39/41/130 5/42/131 29/20/132
f 29/20/133 5/42/134 1/18/135
f 47/7/136 23/5/137 52/43/138
f 31/25/139 6/24/140 47/7/141
f 6/24/142 17/44/143 15/9/144
f 6/24/145 32/26/146 17/44/147
f 32/26/148 35/27/149 17/44/150
f 17/44/151 35/27/152 40/10/153
f 40/10/154 35/27/155 34/29/156
f 40/10/157 34/29/158 49/45/159
f 15/9/160 17/44/161 40/10/162
f 40/10/163 49/45/164 26/13/165
f 5/42/166 14/33/167 20/46/168
f 5/42/169 20/46/170 41/19/171
f 1/18/172 5/42/173 41/19/174
f 41/19/175 20/46/176 50/47/177
f 41/19/178 50/47/179 43/21/180
f 14/33/181 48/16/182 3/15/183
f 3/15/184 26/13/185 49/45/186
f 3/15/187 49/45/188 7/48/189
f 3/15/190 7/48/191 42/31/192
f 7/48/193 33/30/194 42/31/195
f 51/49/196 33/30/197 12/28/198
f 42/31/199 33/30/200 51/49/201
f 43/21/202 50/47/203 37/36/204
f 37/36/205 19/50/206 18/22/207
f 43/21/208 37/36/209 18/22/210
f 37/36/211 36/37/212 19/50/213
f 50/47/214 20/46/215 44/34/216
f 20/46/217 13/32/218 44/34/219
f 20/46/220 14/33/221 13/32/222
f 44/34/223 13/32/224 51/49/225
f 13/32/226 42/31/227 51/49/228
f 44/34/229 51/49/230 8/51/231
f 8/51/232 31/25/233 45/35/234
f 44/34/235 8/51/236 45/35/237
f 8/51/238 12/28/239 31/25/240
f 45/35/241 31/25/242 52/43/243
f 36/37/244 45/35/245 2/4/246
f 21/39/247 46/52/248 22/1/249
f 21/39/250 19/50/251 46/52/252
f 46/52/253 19/50/254 36/37/255
f 46/52/256 36/37/257 2/4/258
f 22/1/259 46/52/260 2/4/261
f 28/14/262 4/38/263 11/8/264
f 47/7/265 6/24/266 16/40/267
f 9/6/268 47/7/269 16/40/270
f 15/9/271 16/40/272 6/24/273
f 14/33/274 5/42/275 48/16/276
f 34/29/277 33/30/278 7/48/279
f 34/29/280 7/48/281 49/45/282
f 37/36/283 50/47/284 44/34/285
f 8/51/286 51/49/287 12/28/288
f 18/22/289 19/50/290 21/39/291
f 31/25/292 47/7/293 52/43/294
f 23/5/295 2/4/296 52/43/297
f 45/35/298 52/43/299 2/4/300
