# Blender v2.78 (sub 0) OBJ File: ''
# www.blender.org
mtllib SM_Env_Pebble_04.mtl
o SM_Env_Pebble_04
v 0.489746 -0.919329 5.416443
v 0.460693 0.919327 3.771332
v -4.506104 -0.919328 2.368256
v -3.057617 0.919328 1.246399
v 0.460693 0.919329 -3.771301
v -2.926270 0.919328 -2.571838
v 0.489746 -0.919327 -5.416412
v -4.374756 -0.919327 -3.693695
v 2.297363 0.919328 0.835022
v 3.701904 -0.919328 0.597046
v 2.777344 0.919328 -1.262756
v 4.225830 -0.919328 -2.384613
v 4.506348 -0.919329 3.198792
v 3.057861 0.919328 2.076965
vt 0.9431 0.5022
vt 0.9431 0.5022
vt 0.9431 0.5022
vt 0.9431 0.5022
vt 0.9431 0.5022
vt 0.9431 0.5022
vt 0.9431 0.5022
vt 0.9431 0.5022
vt 0.9431 0.5022
vt 0.9431 0.5022
vt 0.9431 0.5022
vt 0.9431 0.5022
vt 0.9431 0.5022
vt 0.9431 0.5022
vn -0.4156 0.6028 0.6811
vn -0.4216 0.6907 0.5875
vn 0.0000 1.0000 0.0000
vn -0.2558 0.6424 -0.7224
vn 0.0000 -1.0000 -0.0000
vn 0.7927 0.5820 0.1814
vn 0.8181 0.5568 0.1438
vn -0.7905 0.6123 -0.0171
vn -0.7772 0.6286 -0.0267
vn 0.5214 0.7045 -0.4815
vn 0.5151 0.5760 -0.6347
vn 0.3791 0.6203 0.6866
vn 0.3978 0.6855 0.6098
vn 0.8291 0.4968 -0.2564
vn 0.6924 0.5838 -0.4240
usemtl None
s 1
f 1/1/1 2/2/1 3/3/1
f 3/3/2 2/2/2 4/4/2
f 2/2/3 5/5/3 4/4/3
f 4/4/3 5/5/3 6/6/3
f 5/5/4 7/7/4 6/6/4
f 6/6/4 7/7/4 8/8/4
f 8/8/5 7/7/5 3/3/5
f 3/3/5 7/7/5 1/1/5
f 9/9/6 10/10/6 11/11/6
f 11/11/7 10/10/7 12/12/7
f 3/3/8 4/4/8 8/8/8
f 8/8/9 4/4/9 6/6/9
f 11/11/10 12/12/10 5/5/10
f 5/5/11 12/12/11 7/7/11
f 7/7/5 12/12/5 1/1/5
f 12/12/5 10/10/5 1/1/5
f 1/1/5 10/10/5 13/13/5
f 1/1/12 13/13/12 2/2/12
f 2/2/13 13/13/13 14/14/13
f 5/5/3 2/2/3 11/11/3
f 11/11/3 2/2/3 9/9/3
f 2/2/3 14/14/3 9/9/3
f 13/13/14 10/10/14 14/14/14
f 14/14/15 10/10/15 9/9/15
