# Blender v2.78 (sub 0) OBJ File: ''
# www.blender.org
mtllib SM_Env_FloorTile_05.mtl
o SM_Env_FloorTile_05
v 237.017578 0.000037 -226.159302
v 249.694702 0.000036 -218.127563
v 299.999878 0.000037 -226.159302
v 226.159546 0.000035 -212.905884
v 226.159546 0.000030 -181.853882
v 233.462280 0.000033 -202.548706
v 299.999878 0.000025 -150.772827
v 259.537964 0.000025 -150.772827
v 245.636108 0.000033 -205.275757
v 242.977783 0.000026 -160.469116
v 75.386475 0.000037 -226.159302
v 75.386475 0.000025 -150.772827
v 104.658936 0.000037 -226.159302
v 107.019287 0.000034 -206.871704
v 150.772827 0.000025 -150.772827
v 121.567261 0.000032 -197.035767
v 150.772827 0.000034 -207.210815
v 133.897339 0.000034 -207.340942
v 75.386475 0.000012 -75.386597
v 100.094116 0.000011 -65.890991
v 150.772827 0.000012 -75.386597
v 150.772827 0.000005 -29.812866
v 101.097046 0.000008 -48.504517
v 75.386475 0.000000 -0.000122
v 150.772827 0.000000 -0.000122
v 75.386475 0.000006 -39.556030
v 87.797241 0.000008 -47.386108
v 150.772827 0.000004 -22.039429
v 226.159546 0.000008 -50.206421
v 238.094116 0.000009 -57.430542
v 226.159546 0.000012 -75.386597
v 299.999878 0.000012 -75.386597
v 249.203979 0.000007 -45.793091
v 299.999878 0.000000 -0.000122
v 243.995361 0.000005 -32.250122
v 226.159546 0.000006 -36.256470
v 226.159546 0.000000 -0.000122
v 67.096680 0.000027 -168.583618
v 49.919800 0.000025 -150.772827
v 42.762085 0.000026 -162.081421
v -0.000122 0.000025 -150.772827
v -0.000122 0.000037 -226.159302
v 28.572510 0.000037 -226.159302
v 52.929932 0.000028 -172.825562
v 36.585327 0.000037 -226.159302
v 65.717651 0.000012 -75.386597
v -0.000122 0.000012 -75.386597
v 56.446167 0.000011 -64.680054
v -0.000122 0.000000 -0.000122
v 56.339722 0.000008 -51.719116
v 169.446655 0.000029 -176.629517
v 213.075562 0.000031 -189.145630
v 226.159546 0.000037 -226.159302
v 162.935913 0.000037 -226.159302
v 188.848999 0.000029 -178.432007
v 159.171265 0.000002 -15.164185
v 160.945557 0.000006 -36.912964
v 167.166382 0.000003 -19.748657
v 170.958374 0.000005 -30.688354
v 263.218628 0.000021 -128.944946
v 249.100952 0.000018 -110.950562
v 226.159546 0.000018 -112.496704
v 160.161499 0.000021 -126.237915
v 214.935059 0.000016 -98.443726
v 187.216064 0.000016 -97.530884
v 181.854004 0.000020 -121.428833
v 75.386475 0.000018 -112.427124
v 81.985718 0.000017 -102.311401
v 91.939331 0.000018 -108.240845
v 91.205566 0.000020 -121.766968
v 75.386475 0.000021 -126.278198
v 65.938232 0.000023 -141.649780
v 226.159546 0.000049 -300.000122
v 226.159546 0.000044 -269.300415
v 299.999878 0.000049 -300.000122
v 235.309937 0.000043 -263.459595
v 226.159546 0.000041 -250.212524
v 150.772827 0.000049 -300.000122
v 150.772827 0.000040 -246.604858
v 214.272827 0.000041 -252.921265
v 211.098633 0.000043 -266.873169
v 143.014038 0.000041 -251.098022
v 75.386475 0.000049 -300.000122
v 132.784912 0.000040 -243.970337
v 114.782104 0.000040 -244.151245
v 19.231934 0.000038 -234.417847
v 44.457886 0.000038 -234.024780
v -0.000122 0.000049 -300.000122
v 25.315796 0.000040 -244.148804
v 37.837280 0.000040 -243.107788
v 170.739990 0.000025 -150.773071
v 180.750732 0.000022 -137.889526
v 226.159546 0.000025 -150.772827
v 201.946777 0.000022 -134.474243
v 205.288940 0.000019 -113.902466
v 150.772827 0.000037 -226.159302
vt 0.9659 0.4514
vt 0.9659 0.4514
vt 0.9659 0.4514
vt 0.9659 0.4514
vt 0.9659 0.4514
vt 0.9659 0.4514
vt 0.9659 0.4514
vt 0.9659 0.4514
vt 0.9659 0.4514
vt 0.9659 0.4514
vt 0.9659 0.4514
vt 0.9659 0.4514
vt 0.9659 0.4514
vt 0.9659 0.4514
vt 0.9659 0.4514
vt 0.9659 0.4514
vt 0.9659 0.4514
vt 0.9659 0.4514
vt 0.9659 0.4514
vt 0.9659 0.4514
vt 0.9659 0.4514
vt 0.9659 0.4514
vt 0.9659 0.4514
vt 0.9659 0.4514
vt 0.9659 0.4514
vt 0.9659 0.4514
vt 0.9659 0.4514
vt 0.9659 0.4514
vt 0.9659 0.4514
vt 0.9659 0.4514
vt 0.9659 0.4514
vt 0.9659 0.4514
vt 0.9659 0.4514
vt 0.9659 0.4514
vt 0.9659 0.4514
vt 0.9659 0.4514
vt 0.9659 0.4514
vt 0.9659 0.4514
vt 0.9659 0.4514
vt 0.9659 0.4514
vt 0.9659 0.4514
vt 0.9659 0.4514
vt 0.9659 0.4514
vt 0.9659 0.4514
vt 0.9659 0.4514
vt 0.9659 0.4514
vt 0.9659 0.4514
vt 0.9659 0.4514
vt 0.9659 0.4514
vt 0.9659 0.4514
vt 0.9659 0.4514
vt 0.9659 0.4514
vt 0.9659 0.4514
vt 0.9659 0.4514
vt 0.9659 0.4514
vt 0.9659 0.4514
vt 0.9659 0.4514
vt 0.9659 0.4514
vt 0.9659 0.4514
vt 0.9659 0.4514
vt 0.9659 0.4514
vt 0.9659 0.4514
vt 0.9659 0.4514
vt 0.9659 0.4514
vt 0.9659 0.4514
vt 0.9659 0.4514
vt 0.9659 0.4514
vt 0.9659 0.4514
vt 0.9659 0.4514
vt 0.9659 0.4514
vt 0.9659 0.4514
vt 0.9659 0.4514
vt 0.9659 0.4514
vt 0.9659 0.4514
vt 0.9659 0.4514
vt 0.9659 0.4514
vt 0.9659 0.4514
vt 0.9659 0.4514
vt 0.9659 0.4514
vt 0.9659 0.4514
vt 0.9659 0.4514
vt 0.9659 0.4514
vt 0.9659 0.4514
vt 0.9659 0.4514
vt 0.9659 0.4514
vt 0.9659 0.4514
vt 0.9659 0.4514
vt 0.9659 0.4514
vt 0.9659 0.4514
vt 0.9659 0.4514
vt 0.9420 0.4562
vt 0.9420 0.4562
vt 0.9420 0.4562
vt 0.9420 0.4562
vt 0.9420 0.4562
vt 0.9420 0.4562
vt 0.9420 0.4562
vt 0.9420 0.4562
vt 0.9420 0.4562
vt 0.9420 0.4562
vt 0.9420 0.4562
vt 0.9420 0.4562
vt 0.9420 0.4562
vt 0.9420 0.4562
vt 0.9420 0.4562
vt 0.9420 0.4562
vt 0.9420 0.4562
vt 0.9420 0.4562
vt 0.9420 0.4562
vt 0.9420 0.4562
vt 0.9420 0.4562
vt 0.9420 0.4562
vt 0.9420 0.4562
vt 0.9420 0.4562
vt 0.9420 0.4562
vt 0.9420 0.4562
vt 0.9420 0.4562
vt 0.9420 0.4562
vt 0.9420 0.4562
vt 0.9420 0.4562
vt 0.9420 0.4562
vt 0.9420 0.4562
vt 0.9420 0.4562
vt 0.9420 0.4562
vt 0.9420 0.4562
vt 0.9420 0.4562
vt 0.9420 0.4562
vt 0.9420 0.4562
vt 0.9420 0.4562
vt 0.9420 0.4562
vt 0.9420 0.4562
vt 0.9420 0.4562
vt 0.9420 0.4562
vt 0.9420 0.4562
vt 0.9420 0.4562
vt 0.9420 0.4562
vt 0.9420 0.4562
vt 0.9420 0.4562
vt 0.9420 0.4562
vt 0.9680 0.5024
vt 0.9680 0.5024
vt 0.9680 0.5024
vt 0.9680 0.5024
vt 0.9680 0.5024
vt 0.9680 0.5024
vt 0.9680 0.5024
vt 0.9680 0.5024
vt 0.9680 0.5024
vt 0.9680 0.5024
vt 0.9680 0.5024
vt 0.9680 0.5024
vt 0.9680 0.5024
vt 0.9680 0.5024
vt 0.9680 0.5024
vt 0.9680 0.5024
vt 0.9680 0.5024
vt 0.9680 0.5024
vt 0.9680 0.5024
vt 0.9680 0.5024
vt 0.9680 0.5024
vt 0.9680 0.5024
vt 0.9680 0.5024
vt 0.9680 0.5024
vt 0.9680 0.5024
vt 0.9680 0.5024
vt 0.9680 0.5024
vt 0.9680 0.5024
vt 0.9680 0.5024
vt 0.9680 0.5024
vt 0.9680 0.5024
vt 0.9680 0.5024
vt 0.9680 0.5024
vt 0.9680 0.5024
vn -0.0000 1.0000 0.0000
usemtl None
s 1
f 1/1/1 2/2/1 3/3/1
f 4/4/1 5/5/1 6/6/1
f 3/3/1 2/2/1 7/7/1
f 7/7/1 2/2/1 8/8/1
f 2/2/1 9/9/1 8/8/1
f 8/8/1 9/9/1 10/10/1
f 9/9/1 6/6/1 10/10/1
f 6/6/1 5/5/1 10/10/1
f 11/11/1 12/12/1 13/13/1
f 13/13/1 12/12/1 14/14/1
f 12/12/1 15/15/1 14/14/1
f 14/14/1 15/15/1 16/16/1
f 17/17/1 18/18/1 15/15/1
f 18/18/1 16/16/1 15/15/1
f 19/19/1 20/20/1 21/21/1
f 21/21/1 20/20/1 22/22/1
f 20/20/1 23/23/1 22/22/1
f 24/24/1 25/25/1 26/26/1
f 26/26/1 25/25/1 27/27/1
f 27/27/1 25/25/1 23/23/1
f 25/25/1 28/28/1 23/23/1
f 23/23/1 28/28/1 22/22/1
f 29/29/1 30/30/1 31/31/1
f 31/31/1 30/30/1 32/32/1
f 30/30/1 33/33/1 32/32/1
f 32/32/1 33/33/1 34/34/1
f 33/33/1 35/35/1 34/34/1
f 36/36/1 37/37/1 35/35/1
f 35/35/1 37/37/1 34/34/1
f 12/12/1 11/11/1 38/38/1
f 39/39/1 40/40/1 41/41/1
f 41/41/1 40/40/1 42/42/1
f 42/42/1 40/40/1 43/43/1
f 40/40/1 44/44/1 43/43/1
f 43/43/1 44/44/1 45/45/1
f 45/45/1 44/44/1 11/11/1
f 11/11/1 44/44/1 38/38/1
f 46/46/1 47/47/1 48/48/1
f 47/47/1 49/49/1 48/48/1
f 48/48/1 49/49/1 50/50/1
f 24/24/1 26/26/1 49/49/1
f 26/26/1 50/50/1 49/49/1
f 15/15/1 51/51/1 17/17/1
f 5/5/1 4/4/1 52/52/1
f 53/53/1 54/54/1 4/4/1
f 4/4/1 54/54/1 52/52/1
f 52/52/1 54/54/1 55/55/1
f 54/54/1 17/17/1 55/55/1
f 17/17/1 51/51/1 55/55/1
f 28/28/1 25/25/1 56/56/1
f 22/22/1 57/57/1 21/21/1
f 25/25/1 37/37/1 56/56/1
f 56/56/1 37/37/1 58/58/1
f 37/37/1 36/36/1 58/58/1
f 58/58/1 36/36/1 59/59/1
f 21/21/1 57/57/1 31/31/1
f 31/31/1 57/57/1 29/29/1
f 57/57/1 59/59/1 29/29/1
f 36/36/1 29/29/1 59/59/1
f 8/8/1 60/60/1 7/7/1
f 7/7/1 60/60/1 32/32/1
f 60/60/1 61/61/1 32/32/1
f 62/62/1 31/31/1 61/61/1
f 61/61/1 31/31/1 32/32/1
f 15/15/1 21/21/1 63/63/1
f 62/62/1 64/64/1 31/31/1
f 31/31/1 64/64/1 21/21/1
f 64/64/1 65/65/1 21/21/1
f 63/63/1 21/21/1 66/66/1
f 21/21/1 65/65/1 66/66/1
f 67/67/1 19/19/1 68/68/1
f 19/19/1 21/21/1 68/68/1
f 68/68/1 21/21/1 69/69/1
f 21/21/1 15/15/1 69/69/1
f 69/69/1 15/15/1 70/70/1
f 12/12/1 71/71/1 15/15/1
f 15/15/1 71/71/1 70/70/1
f 12/12/1 72/72/1 71/71/1
f 47/47/1 46/46/1 41/41/1
f 41/41/1 46/46/1 39/39/1
f 39/39/1 46/46/1 72/72/1
f 72/72/1 46/46/1 71/71/1
f 71/71/1 46/46/1 67/67/1
f 46/46/1 19/19/1 67/67/1
f 73/73/1 74/74/1 75/75/1
f 74/74/1 76/76/1 75/75/1
f 75/75/1 76/76/1 3/3/1
f 53/53/1 1/1/1 77/77/1
f 76/76/1 77/77/1 3/3/1
f 77/77/1 1/1/1 3/3/1
f 78/78/1 79/79/1 73/73/1
f 53/53/1 77/77/1 54/54/1
f 77/77/1 80/80/1 54/54/1
f 54/54/1 80/80/1 79/79/1
f 80/80/1 81/81/1 79/79/1
f 74/74/1 73/73/1 81/81/1
f 79/79/1 81/81/1 73/73/1
f 79/79/1 78/78/1 82/82/1
f 78/78/1 83/83/1 82/82/1
f 82/82/1 83/83/1 84/84/1
f 84/84/1 83/83/1 85/85/1
f 11/11/1 13/13/1 83/83/1
f 83/83/1 13/13/1 85/85/1
f 43/43/1 86/86/1 42/42/1
f 45/45/1 11/11/1 87/87/1
f 42/42/1 86/86/1 88/88/1
f 86/86/1 89/89/1 88/88/1
f 88/88/1 89/89/1 83/83/1
f 89/89/1 90/90/1 83/83/1
f 11/11/1 83/83/1 87/87/1
f 90/90/1 87/87/1 83/83/1
f 26/91/1 19/92/1 50/93/1
f 50/93/1 19/92/1 48/94/1
f 46/95/1 48/94/1 19/92/1
f 26/91/1 27/96/1 19/92/1
f 19/92/1 27/96/1 20/97/1
f 27/96/1 23/98/1 20/97/1
f 91/99/1 92/100/1 93/101/1
f 92/100/1 94/102/1 93/101/1
f 93/101/1 94/102/1 62/103/1
f 94/102/1 95/104/1 62/103/1
f 93/101/1 5/105/1 91/99/1
f 5/105/1 52/106/1 91/99/1
f 52/106/1 55/107/1 91/99/1
f 55/107/1 51/108/1 91/99/1
f 8/109/1 10/110/1 93/101/1
f 93/101/1 10/110/1 5/105/1
f 93/101/1 62/103/1 8/109/1
f 8/109/1 62/103/1 60/111/1
f 62/103/1 61/112/1 60/111/1
f 13/113/1 96/114/1 85/115/1
f 85/115/1 96/114/1 84/116/1
f 84/116/1 96/114/1 82/117/1
f 79/118/1 82/117/1 96/114/1
f 54/119/1 79/118/1 96/114/1
f 17/120/1 54/119/1 96/114/1
f 13/113/1 14/121/1 96/114/1
f 14/121/1 16/122/1 96/114/1
f 16/122/1 18/123/1 96/114/1
f 96/114/1 18/123/1 17/120/1
f 35/124/1 33/125/1 36/126/1
f 36/126/1 33/125/1 29/127/1
f 33/125/1 30/128/1 29/127/1
f 81/129/1 80/130/1 74/131/1
f 74/131/1 80/130/1 77/132/1
f 77/132/1 76/133/1 74/131/1
f 87/134/1 90/135/1 45/136/1
f 90/135/1 89/137/1 45/136/1
f 45/136/1 89/137/1 43/138/1
f 89/137/1 86/139/1 43/138/1
f 62/140/1 95/141/1 64/142/1
f 64/142/1 95/141/1 65/143/1
f 65/143/1 95/141/1 66/144/1
f 95/141/1 94/145/1 66/144/1
f 94/145/1 92/146/1 66/144/1
f 15/147/1 63/148/1 91/149/1
f 91/149/1 63/148/1 92/146/1
f 63/148/1 66/144/1 92/146/1
f 51/150/1 15/147/1 91/149/1
f 12/151/1 38/152/1 39/153/1
f 38/152/1 44/154/1 39/153/1
f 44/154/1 40/155/1 39/153/1
f 39/153/1 72/156/1 12/151/1
f 53/157/1 4/158/1 1/159/1
f 1/159/1 4/158/1 2/160/1
f 2/160/1 4/158/1 9/161/1
f 4/158/1 6/162/1 9/161/1
f 59/163/1 57/164/1 58/165/1
f 57/164/1 22/166/1 58/165/1
f 22/166/1 28/167/1 58/165/1
f 28/167/1 56/168/1 58/165/1
f 71/169/1 67/170/1 70/171/1
f 70/171/1 67/170/1 69/172/1
f 67/170/1 68/173/1 69/172/1
