# This file uses centimeters as units for non-parametric coordinates.

v -6.977051 6.935012 4.232422
v 4.428711 7.579005 7.492188
v -4.885742 7.009883 -5.655273
v 4.355469 7.525386 -4.541748
v 6.639648 -0.000007 10.382324
v -2.195313 8.295474 6.605225
v -7.848633 7.956737 0.248047
v 7.271484 8.798133 1.579834
v -0.035645 8.355689 -7.756348
v -6.463867 0.000008 -7.605957
v 7.089355 -0.000005 -5.969971
v -9.077637 -0.000005 6.599854
v -2.154785 -0.000007 9.855469
v -1.121094 9.726676 0.566162
v 0.676758 -0.000001 -10.058350
v 10.419922 0.000005 2.389893
v -10.243652 -0.000003 0.386230
vt 0.549264 0.370645
vt 0.549264 0.370645
vt 0.549264 0.370645
vt 0.549264 0.370645
vt 0.549264 0.370645
vt 0.549264 0.370645
vt 0.549264 0.370645
vt 0.549264 0.370645
vt 0.549264 0.370645
vt 0.549264 0.370645
vt 0.549264 0.370645
vt 0.549264 0.370645
vt 0.549264 0.370645
vt 0.549264 0.370645
vt 0.549264 0.370645
vt 0.549264 0.370645
vt 0.549264 0.370645
vt 0.549264 0.370645
vt 0.549264 0.370645
vt 0.549264 0.370645
vt 0.549264 0.370645
vt 0.549264 0.370645
vt 0.549264 0.370645
vn -0.056208 0.341386 0.938241
vn -0.056208 0.341386 0.938241
vn -0.056208 0.341386 0.938241
vn -0.084964 0.363128 0.927857
vn -0.084964 0.363128 0.927857
vn -0.084964 0.363128 0.927857
vn -0.389836 0.401065 0.828960
vn -0.389836 0.401065 0.828960
vn -0.389836 0.401065 0.828960
vn -0.492308 0.315449 0.811249
vn -0.492308 0.315449 0.811249
vn -0.492308 0.315449 0.811249
vn -0.342207 0.926140 0.158615
vn -0.342207 0.926140 0.158615
vn -0.342207 0.926140 0.158615
vn -0.256221 0.921359 0.292315
vn -0.256221 0.921359 0.292315
vn -0.256221 0.921359 0.292315
vn 0.072228 0.967547 0.242148
vn 0.072228 0.967547 0.242148
vn 0.072228 0.967547 0.242148
vn 0.078455 0.968245 0.237375
vn 0.078455 0.968245 0.237375
vn 0.078455 0.968245 0.237375
vn 0.137509 0.954673 -0.263990
vn 0.137509 0.954673 -0.263990
vn 0.137509 0.954673 -0.263990
vn 0.269995 0.955086 -0.122120
vn 0.269995 0.955086 -0.122120
vn 0.269995 0.955086 -0.122120
vn -0.233356 0.934991 -0.267089
vn -0.233356 0.934991 -0.267089
vn -0.233356 0.934991 -0.267089
vn -0.340071 0.919775 -0.195870
vn -0.340071 0.919775 -0.195870
vn -0.340071 0.919775 -0.195870
vn -0.436294 0.204229 -0.876321
vn -0.436294 0.204229 -0.876321
vn -0.436294 0.204229 -0.876321
vn -0.307874 0.318769 -0.896437
vn -0.307874 0.318769 -0.896437
vn -0.307874 0.318769 -0.896437
vn 0.601936 0.259391 -0.755241
vn 0.601936 0.259391 -0.755241
vn 0.601937 0.259391 -0.755241
vn 0.506561 0.334821 -0.794538
vn 0.506561 0.334821 -0.794538
vn 0.506561 0.334821 -0.794538
vn 0.860231 0.377555 -0.342716
vn 0.860231 0.377555 -0.342716
vn 0.860231 0.377555 -0.342716
vn 0.849117 0.261610 -0.458869
vn 0.849117 0.261610 -0.458869
vn 0.849117 0.261610 -0.458869
vn 0.831437 0.392507 0.393255
vn 0.831438 0.392507 0.393255
vn 0.831438 0.392507 0.393255
vn 0.819883 0.336074 0.463514
vn 0.819883 0.336074 0.463514
vn 0.819883 0.336074 0.463514
vn -0.924551 0.339270 0.173497
vn -0.924551 0.339270 0.173497
vn -0.924551 0.339270 0.173497
vn -0.919755 0.281599 0.273408
vn -0.919755 0.281599 0.273408
vn -0.919755 0.281599 0.273408
vn -0.860368 0.306924 -0.406898
vn -0.860368 0.306924 -0.406898
vn -0.860368 0.306924 -0.406898
vn -0.849418 0.247586 -0.466036
vn -0.849418 0.247586 -0.466036
vn -0.849418 0.247586 -0.466036
s off
f 5/16/1 2/4/2 13/1/3
f 13/1/4 2/4/5 6/2/6
f 12/18/7 13/1/8 1/19/9
f 1/19/10 13/1/11 6/2/12
f 6/2/13 14/6/14 1/19/15
f 1/19/16 14/6/17 7/3/18
f 6/2/19 2/4/20 14/6/21
f 14/6/22 2/4/23 8/5/24
f 8/5/25 4/10/26 14/6/27
f 14/6/28 4/10/29 9/8/30
f 7/3/31 14/6/32 3/7/33
f 3/7/34 14/6/35 9/8/36
f 9/8/37 15/12/38 3/7/39
f 3/7/40 15/12/41 10/9/42
f 9/8/43 4/10/44 15/12/45
f 15/12/46 4/10/47 11/11/48
f 11/13/49 4/14/50 16/17/51
f 16/17/52 4/14/53 8/15/54
f 5/16/55 16/17/56 2/4/57
f 2/4/58 16/17/59 8/15/60
f 12/18/61 1/19/62 17/22/63
f 17/22/64 1/19/65 7/20/66
f 10/21/67 17/22/68 3/23/69
f 3/23/70 17/22/71 7/20/72
