# Blender v2.78 (sub 0) OBJ File: ''
# www.blender.org
mtllib SM_Env_SnowPile_03.mtl
o SM_Env_SnowPile_03
v -424.023926 -41.726936 124.575554
v -343.060852 12.051549 111.239265
v -348.853699 23.136717 77.581245
v -332.965576 -44.078518 177.168884
v -267.033386 -44.875294 190.510986
v -270.895874 -4.920263 150.822388
v -232.336624 28.231447 107.328941
v -149.910400 -42.682930 153.505005
v -114.679626 17.956228 82.030037
v -26.921661 -7.605065 121.276558
v -4.311371 -41.254471 153.919312
v 69.352722 -41.310852 131.002075
v 69.206696 6.864084 105.988899
v 178.925842 -41.163788 163.824280
v 174.359375 -5.417429 131.099182
v 112.302887 38.287468 73.944420
v 283.283203 -42.176731 138.894531
v 233.146225 3.223579 118.661018
v 384.951477 -43.780331 135.031799
v 338.141968 4.470629 104.570869
v 402.954346 -43.263401 113.942558
v 335.063538 19.109837 74.385445
v -469.614197 -41.009010 17.850639
v -301.424072 49.392918 -4.257973
v -195.683197 62.499359 27.808069
v -101.559448 44.324978 -5.319132
v -48.854034 26.215960 53.690140
v 100.511902 48.091534 51.162498
v 67.082184 56.386242 2.663661
v 280.819153 31.542318 81.497032
v 239.450027 50.664688 24.339928
v 293.039795 38.361263 40.506676
v 459.378967 -41.298939 28.533012
v -235.901718 65.921463 -5.086336
v -320.671692 32.566757 -70.438148
v -174.784821 62.856255 -13.556003
v -17.467102 41.576496 -5.337016
v 56.088654 50.874805 -46.775978
v 242.802628 45.551693 -47.809059
v 469.614197 -41.023140 -11.391608
v -460.076599 -41.008980 -70.929634
v -226.054062 53.001053 -63.410500
v -286.694214 20.798346 -107.444939
v -112.345245 34.902222 -63.147324
v -196.034531 -1.705822 -142.739929
v -95.792297 13.030720 -94.571831
v -39.811523 25.020905 -73.441872
v 53.173035 19.689375 -105.698174
v 192.806915 29.920216 -87.972145
v 323.705872 12.002509 -89.290642
v 286.383911 1.776522 -132.141479
v 445.186279 -41.031609 -65.959846
v 405.699219 -41.314964 -106.246956
v -413.522766 -41.008949 -130.697876
v -348.802063 -40.331921 -158.494934
v -246.205307 -40.006531 -190.510986
v -137.727936 -39.577133 -142.305176
v 2.515289 -39.527729 -160.503113
v -97.556824 -39.535694 -140.018982
v 150.795227 12.360499 -109.383965
v 151.542938 -39.998718 -153.535889
v 241.723236 -40.233685 -188.082642
v 304.464478 -40.079956 -185.465027
v 395.817383 -41.953396 -138.462646
v -322.562988 -65.184502 163.874908
v -258.690735 -65.921494 176.215912
v -145.226898 -63.893639 141.986725
v -4.176636 -62.572369 142.369904
v 173.335876 -62.488495 151.531708
v 67.186005 -62.624519 121.172295
v 274.432861 -63.425426 128.472565
v 146.808472 -61.410854 -142.015350
v 2.436677 -60.975201 -148.459686
v 234.171280 -61.628178 -173.969879
v -454.942444 -62.345329 16.511156
v -410.776550 -63.009388 115.228081
v -445.702820 -62.345299 -65.607368
v -400.603394 -62.345276 -120.890938
v 372.924805 -64.908714 124.899590
v 454.942444 -62.358398 -10.536819
v 445.026978 -62.613510 26.392015
v -337.904663 -61.719048 -146.602325
v -94.508942 -60.982563 -129.512589
v 383.451233 -63.218853 -128.073013
v 393.024292 -62.628330 -98.274727
v 390.365234 -64.430557 105.392876
v 431.277710 -62.366234 -61.010513
v -238.513306 -61.418060 -176.215973
v -133.424988 -61.020893 -131.627335
v 294.952332 -61.485992 -171.548737
v 31.434662 -62.666183 -11.165236
vt 0.5635 0.7910
vt 0.5635 0.7910
vt 0.5635 0.7910
vt 0.5635 0.7910
vt 0.5635 0.7910
vt 0.5635 0.7910
vt 0.5635 0.7910
vt 0.5635 0.7910
vt 0.5635 0.7910
vt 0.5635 0.7910
vt 0.5635 0.7910
vt 0.5635 0.7910
vt 0.5635 0.7910
vt 0.5635 0.7910
vt 0.5635 0.7910
vt 0.5635 0.7910
vt 0.5635 0.7910
vt 0.5635 0.7910
vt 0.5635 0.7910
vt 0.5635 0.7910
vt 0.5635 0.7910
vt 0.5635 0.7910
vt 0.5635 0.7910
vt 0.5635 0.7910
vt 0.5635 0.7910
vt 0.5635 0.7910
vt 0.5635 0.7910
vt 0.5635 0.7910
vt 0.5635 0.7910
vt 0.5635 0.7910
vt 0.5635 0.7910
vt 0.5635 0.7910
vt 0.5635 0.7910
vt 0.5635 0.7910
vt 0.5635 0.7910
vt 0.5635 0.7910
vt 0.5635 0.7910
vt 0.5635 0.7910
vt 0.5635 0.7910
vt 0.5635 0.7910
vt 0.5635 0.7910
vt 0.5635 0.7910
vt 0.5635 0.7910
vt 0.5635 0.7910
vt 0.5635 0.7910
vt 0.5635 0.7910
vt 0.5635 0.7910
vt 0.5635 0.7910
vt 0.5635 0.7910
vt 0.5635 0.7910
vt 0.5635 0.7910
vt 0.5635 0.7910
vt 0.5635 0.7910
vt 0.5635 0.7910
vt 0.5635 0.7910
vt 0.5635 0.7910
vt 0.5635 0.7910
vt 0.5635 0.7910
vt 0.5635 0.7910
vt 0.5635 0.7910
vt 0.5635 0.7910
vt 0.5635 0.7910
vt 0.5635 0.7910
vt 0.5635 0.7910
vt 0.5635 0.7910
vt 0.5635 0.7910
vt 0.5635 0.7910
vt 0.5635 0.7910
vt 0.5635 0.7910
vt 0.5635 0.7910
vt 0.5635 0.7910
vt 0.5635 0.7910
vt 0.5635 0.7910
vt 0.5635 0.7910
vt 0.5635 0.7910
vt 0.5635 0.7910
vt 0.5635 0.7910
vt 0.5635 0.7910
vt 0.5635 0.7910
vt 0.5635 0.7910
vt 0.5635 0.7910
vt 0.5635 0.7910
vt 0.5635 0.7910
vt 0.5635 0.7910
vt 0.5635 0.7910
vt 0.5635 0.7910
vt 0.5635 0.7910
vt 0.5635 0.7910
vt 0.5635 0.7910
vt 0.5635 0.7910
vt 0.5635 0.7910
vn -0.4783 0.8064 0.3479
vn -0.3506 0.6859 0.6377
vn -0.1352 0.6917 0.7095
vn -0.1857 0.7340 0.6533
vn -0.1025 0.8328 0.5439
vn 0.1745 0.7024 0.6901
vn 0.2053 0.6938 0.6903
vn 0.2050 0.6942 0.6900
vn 0.2072 0.6918 0.6917
vn 0.2093 0.6896 0.6933
vn -0.0560 0.7748 0.6297
vn -0.0089 0.6932 0.7207
vn 0.2664 0.4448 0.8551
vn 0.0085 0.6992 0.7149
vn -0.2205 0.6432 0.7333
vn -0.1563 0.4548 0.8768
vn -0.0672 0.7560 0.6511
vn 0.0049 0.7107 0.7035
vn 0.1959 0.5715 0.7969
vn 0.0554 0.6781 0.7329
vn 0.0096 0.7993 0.6008
vn 0.0087 0.7981 0.6024
vn 0.0045 0.7928 0.6094
vn 0.0410 0.4442 0.8950
vn 0.0996 0.5985 0.7949
vn 0.4913 0.7530 0.4378
vn 0.5297 0.7831 0.3258
vn -0.5449 0.8040 0.2382
vn 0.0108 0.9503 0.3111
vn -0.1239 0.9308 0.3440
vn -0.1905 0.9521 0.2391
vn -0.4725 0.8813 0.0089
vn 0.1743 0.8726 0.4564
vn 0.2859 0.9046 0.3160
vn 0.0711 0.9011 0.4278
vn 0.0046 0.9571 0.2896
vn -0.1196 0.8718 0.4751
vn -0.1358 0.9568 0.2572
vn -0.1375 0.8820 0.4507
vn 0.0044 0.7927 0.6097
vn 0.0196 0.9220 0.3867
vn 0.0386 0.9557 0.2918
vn 0.0808 0.7401 0.6676
vn 0.2543 0.8801 0.4009
vn 0.2460 0.9416 0.2300
vn 0.1589 0.9652 0.2079
vn 0.5114 0.7822 0.3558
vn -0.2232 0.9031 0.3668
vn -0.2430 0.9546 -0.1720
vn 0.0551 0.9978 0.0364
vn 0.2302 0.9651 0.1246
vn 0.0315 0.9621 0.2709
vn 0.0315 0.9631 0.2674
vn 0.0315 0.9629 0.2681
vn 0.0315 0.9619 0.2717
vn -0.1846 0.9706 0.1544
vn -0.1654 0.9835 -0.0729
vn 0.0482 0.9915 -0.1212
vn 0.0126 0.9870 0.1601
vn 0.0280 0.9972 -0.0694
vn 0.2398 0.9691 -0.0575
vn 0.4710 0.8730 0.1268
vn 0.4118 0.9113 0.0071
vn -0.4780 0.8768 -0.0514
vn -0.4647 0.8810 -0.0889
vn -0.1876 0.9518 -0.2425
vn -0.1600 0.8887 -0.4296
vn 0.0195 0.9768 -0.2131
vn 0.1488 0.9298 -0.3368
vn 0.1347 0.8388 -0.5275
vn 0.1342 0.8392 -0.5270
vn 0.1279 0.8431 -0.5223
vn -0.0195 0.8196 -0.5726
vn 0.2616 0.9437 -0.2026
vn 0.1263 0.8442 -0.5210
vn 0.1077 0.9779 -0.1794
vn -0.1391 0.9125 -0.3846
vn 0.0335 0.8285 -0.5590
vn -0.1093 0.8808 -0.4608
vn -0.0679 0.9342 -0.3502
vn 0.0241 0.9211 -0.3885
vn -0.0054 0.8839 -0.4676
vn 0.3311 0.9369 -0.1120
vn 0.1835 0.9081 -0.3765
vn 0.0663 0.8992 -0.4325
vn 0.3847 0.9181 -0.0956
vn 0.4232 0.8860 -0.1896
vn 0.4294 0.7960 -0.4265
vn 0.3877 0.7615 -0.5194
vn -0.4378 0.8319 -0.3410
vn -0.2522 0.7834 -0.5680
vn -0.3203 0.7774 -0.5413
vn -0.0362 0.7979 -0.6017
vn -0.2023 0.7406 -0.6407
vn 0.3203 0.4837 -0.8145
vn 0.3447 0.5218 -0.7803
vn -0.1526 0.6493 -0.7451
vn 0.0424 0.6526 -0.7565
vn -0.0838 0.7145 -0.6946
vn 0.0222 0.6688 -0.7431
vn 0.0305 0.7427 -0.6689
vn 0.0377 0.6445 -0.7637
vn -0.0327 0.8109 -0.5843
vn -0.0381 0.8095 -0.5859
vn -0.0394 0.8092 -0.5863
vn -0.2803 0.6165 -0.7358
vn -0.0316 0.8112 -0.5839
vn 0.0236 0.7903 -0.6123
vn 0.3615 0.9234 -0.1292
vn 0.2884 0.7982 -0.5288
vn -0.1679 -0.5833 0.7947
vn -0.1588 -0.5970 0.7863
vn 0.0022 -0.4768 0.8790
vn 0.0021 -0.4764 0.8792
vn 0.0021 -0.4763 0.8793
vn -0.2584 -0.4307 0.8647
vn -0.2535 -0.3838 0.8880
vn 0.1971 -0.4967 0.8453
vn 0.1844 -0.5267 0.8298
vn 0.0394 -0.4802 -0.8763
vn 0.0379 -0.4870 -0.8726
vn 0.0389 -0.4826 -0.8750
vn 0.0374 -0.4894 -0.8713
vn -0.3224 -0.4393 -0.8385
vn -0.3166 -0.3942 -0.8628
vn -0.7696 -0.5496 0.3251
vn -0.7328 -0.5984 0.3238
vn 0.2749 -0.4633 0.8425
vn 0.2698 -0.4128 0.8699
vn -0.6509 -0.5650 -0.5070
vn -0.6170 -0.6050 -0.5033
vn 0.0270 -0.4447 0.8953
vn 0.0267 -0.4457 0.8948
vn 0.0260 -0.4478 0.8938
vn 0.0256 -0.4488 0.8933
vn 0.8104 -0.5492 0.2040
vn 0.8008 -0.5604 0.2112
vn -0.3247 -0.5502 -0.7693
vn -0.3050 -0.5768 -0.7578
vn -0.1757 -0.4815 -0.8586
vn -0.1710 -0.4529 -0.8750
vn 0.7881 -0.5708 -0.2304
vn 0.7911 -0.5614 -0.2430
vn -0.4214 -0.5716 0.7041
vn -0.3903 -0.6207 0.6800
vn 0.2637 -0.4582 0.8488
vn 0.2573 -0.4261 0.8673
vn 0.6255 -0.5819 0.5197
vn 0.6053 -0.5970 0.5265
vn 0.7145 -0.5273 0.4599
vn 0.6739 -0.5837 0.4529
vn -0.8159 -0.5715 -0.0877
vn -0.8232 -0.5602 -0.0926
vn 0.7674 -0.5415 -0.3434
vn 0.7457 -0.5672 -0.3495
vn 0.6064 -0.5324 -0.5906
vn 0.5781 -0.5643 -0.5894
vn -0.2445 -0.5634 -0.7892
vn -0.2276 -0.5959 -0.7701
vn 0.3699 -0.4203 -0.8286
vn 0.3663 -0.3548 -0.8602
vn 0.0516 -0.4368 -0.8981
vn 0.0513 -0.4364 -0.8983
vn 0.0496 -0.4342 -0.8995
vn 0.0493 -0.4337 -0.8997
vn 0.0360 -0.5559 -0.8305
vn 0.0347 -0.5581 -0.8290
vn 0.0357 -0.5565 -0.8301
vn 0.0343 -0.5587 -0.8286
vn 0.3661 -0.5716 -0.7343
vn 0.3383 -0.6140 -0.7132
vn -0.0063 -0.9996 -0.0271
vn -0.0066 -0.9996 -0.0277
vn -0.0065 -0.9996 -0.0274
vn 0.0006 -1.0000 0.0007
vn 0.0094 -1.0000 0.0028
vn -0.0004 -1.0000 -0.0001
vn 0.0013 -1.0000 -0.0000
vn -0.0004 -1.0000 0.0004
vn -0.0089 -0.9999 0.0101
vn -0.0075 -0.9999 0.0077
vn -0.0132 -0.9998 0.0176
vn -0.0024 -0.9999 -0.0118
vn -0.0037 -0.9999 -0.0128
vn -0.0033 -0.9998 -0.0175
vn -0.0088 -0.9998 -0.0174
vn -0.0010 -1.0000 -0.0063
vn -0.0010 -1.0000 -0.0060
vn -0.0006 -1.0000 0.0001
vn 0.0237 -0.9995 0.0193
vn -0.0006 -1.0000 -0.0002
vn -0.0006 -1.0000 -0.0005
vn -0.0143 -0.9997 0.0195
vn 0.0007 -1.0000 -0.0004
vn 0.0007 -1.0000 -0.0067
vn 0.0009 -1.0000 -0.0050
vn 0.0034 -0.9999 -0.0162
vn 0.0011 -0.9999 -0.0101
vn 0.0030 -0.9999 -0.0151
vn -0.0015 -0.9999 -0.0126
vn 0.0045 -0.9998 0.0184
vn -0.0079 -0.9995 -0.0304
vn 0.0022 -0.9998 -0.0219
vn 0.0024 -0.9997 -0.0224
vn 0.0023 -0.9998 -0.0222
vn 0.0021 -0.9998 -0.0216
vn 0.0013 -1.0000 0.0047
vn 0.0014 -1.0000 0.0056
vn 0.0005 -1.0000 -0.0084
vn 0.0228 -0.9987 -0.0449
vn 0.0019 -0.9999 -0.0162
vn 0.0025 -1.0000 -0.0033
vn -0.0088 -0.9997 -0.0219
usemtl None
s 1
f 1/1/1 2/2/1 3/3/1
f 1/1/2 4/4/2 2/2/2
f 4/4/3 5/5/3 6/6/3
f 4/4/4 6/6/4 2/2/4
f 2/2/5 6/6/5 7/7/5
f 5/5/6 7/7/6 6/6/6
f 5/5/7 8/8/8 9/9/9
f 5/5/7 9/9/9 7/7/10
f 8/8/11 10/10/11 9/9/11
f 8/8/12 11/11/12 10/10/12
f 11/11/13 12/12/13 13/13/13
f 11/11/14 13/13/14 10/10/14
f 12/12/15 14/14/15 15/15/15
f 12/12/16 15/15/16 13/13/16
f 15/15/17 16/16/17 13/13/17
f 13/13/18 16/16/18 10/10/18
f 14/14/19 17/17/19 18/18/19
f 15/15/20 14/14/20 18/18/20
f 15/15/21 18/18/22 16/16/23
f 17/17/24 19/19/24 18/18/24
f 18/18/25 19/19/25 20/20/25
f 19/19/26 21/21/26 20/20/26
f 20/20/27 21/21/27 22/22/27
f 1/1/28 3/3/28 23/23/28
f 3/3/29 2/2/29 24/24/29
f 2/2/30 7/7/30 25/25/30
f 2/2/31 25/25/31 24/24/31
f 3/3/32 24/24/32 23/23/32
f 7/7/33 9/9/33 25/25/33
f 9/9/34 26/26/34 25/25/34
f 9/9/35 10/10/35 27/27/35
f 9/9/36 27/27/36 26/26/36
f 10/10/37 28/28/37 27/27/37
f 27/27/38 28/28/38 29/29/38
f 10/10/39 16/16/39 28/28/39
f 18/18/22 30/30/40 16/16/23
f 16/16/41 30/30/41 28/28/41
f 30/30/42 31/31/42 28/28/42
f 18/18/43 20/20/43 30/30/43
f 20/20/44 22/22/44 30/30/44
f 30/30/45 22/22/45 32/32/45
f 31/31/46 30/30/46 32/32/46
f 22/22/47 21/21/47 33/33/47
f 24/24/48 25/25/48 34/34/48
f 24/24/49 34/34/49 35/35/49
f 25/25/50 36/36/50 34/34/50
f 25/25/51 26/26/51 36/36/51
f 26/26/52 27/27/53 37/37/54
f 26/26/52 37/37/54 38/38/55
f 27/27/56 29/29/56 37/37/56
f 37/37/57 29/29/57 38/38/57
f 29/29/58 31/31/58 38/38/58
f 28/28/59 31/31/59 29/29/59
f 31/31/60 39/39/60 38/38/60
f 31/31/61 32/32/61 39/39/61
f 22/22/62 33/33/62 40/40/62
f 32/32/63 22/22/63 40/40/63
f 23/23/64 24/24/64 41/41/64
f 41/41/65 24/24/65 35/35/65
f 34/34/66 42/42/66 35/35/66
f 35/35/67 42/42/67 43/43/67
f 34/34/68 36/36/68 42/42/68
f 42/42/69 36/36/69 44/44/69
f 42/42/70 44/44/71 45/45/72
f 42/42/73 45/45/73 43/43/73
f 36/36/74 26/26/74 44/44/74
f 44/44/71 46/46/75 45/45/72
f 44/44/76 26/26/76 47/47/76
f 26/26/77 38/38/77 47/47/77
f 44/44/78 47/47/78 46/46/78
f 47/47/79 38/38/79 48/48/79
f 47/47/80 48/48/80 46/46/80
f 38/38/81 39/39/81 49/49/81
f 38/38/82 49/49/82 48/48/82
f 39/39/83 32/32/83 50/50/83
f 39/39/84 50/50/84 51/51/84
f 39/39/85 51/51/85 49/49/85
f 32/32/86 40/40/86 50/50/86
f 40/40/87 52/52/87 50/50/87
f 50/50/88 52/52/88 53/53/88
f 50/50/89 53/53/89 51/51/89
f 41/41/90 35/35/90 54/54/90
f 35/35/91 55/55/91 54/54/91
f 35/35/92 43/43/92 55/55/92
f 43/43/93 45/45/93 56/56/93
f 43/43/94 56/56/94 55/55/94
f 45/45/95 46/46/95 57/57/95
f 45/45/96 57/57/96 56/56/96
f 46/46/97 58/58/97 59/59/97
f 57/57/98 46/46/98 59/59/98
f 48/48/99 58/58/99 46/46/99
f 48/48/100 60/60/100 58/58/100
f 48/48/101 49/49/101 60/60/101
f 58/58/102 60/60/102 61/61/102
f 49/49/103 62/62/104 60/60/105
f 60/60/106 62/62/106 61/61/106
f 49/49/103 51/51/107 62/62/104
f 62/62/108 51/51/108 63/63/108
f 51/51/109 53/53/109 64/64/109
f 51/51/110 64/64/110 63/63/110
f 4/4/111 65/65/111 5/5/111
f 5/5/112 65/65/112 66/66/112
f 8/8/113 67/67/113 11/11/114
f 11/11/114 67/67/113 68/68/115
f 14/14/116 12/12/116 69/69/116
f 69/69/117 12/12/117 70/70/117
f 17/17/118 14/14/118 71/71/118
f 71/71/119 14/14/119 69/69/119
f 61/61/120 72/72/121 58/58/122
f 58/58/122 72/72/121 73/73/123
f 62/62/124 74/74/124 61/61/124
f 61/61/125 74/74/125 72/72/125
f 23/23/126 75/75/126 1/1/126
f 1/1/127 75/75/127 76/76/127
f 5/5/128 66/66/128 8/8/128
f 8/8/129 66/66/129 67/67/129
f 41/41/130 54/54/130 77/77/130
f 77/77/131 54/54/131 78/78/131
f 19/19/132 17/17/133 79/79/134
f 79/79/134 17/17/133 71/71/135
f 40/40/136 33/33/136 80/80/136
f 80/80/137 33/33/137 81/81/137
f 54/54/138 55/55/138 78/78/138
f 78/78/139 55/55/139 82/82/139
f 58/58/140 73/73/140 59/59/140
f 59/59/141 73/73/141 83/83/141
f 64/64/142 53/53/142 84/84/142
f 84/84/143 53/53/143 85/85/143
f 1/1/144 76/76/144 4/4/144
f 4/4/145 76/76/145 65/65/145
f 11/11/146 68/68/146 12/12/146
f 12/12/147 68/68/147 70/70/147
f 21/21/148 19/19/148 86/86/148
f 86/86/149 19/19/149 79/79/149
f 33/33/150 21/21/150 81/81/150
f 81/81/151 21/21/151 86/86/151
f 41/41/152 77/77/152 23/23/152
f 23/23/153 77/77/153 75/75/153
f 40/40/154 80/80/154 52/52/154
f 52/52/155 80/80/155 87/87/155
f 52/52/156 87/87/156 53/53/156
f 53/53/157 87/87/157 85/85/157
f 55/55/158 56/56/158 82/82/158
f 82/82/159 56/56/159 88/88/159
f 56/56/160 57/57/160 88/88/160
f 88/88/161 57/57/161 89/89/161
f 57/57/162 59/59/163 89/89/164
f 89/89/164 59/59/163 83/83/165
f 63/63/166 90/90/167 62/62/168
f 62/62/168 90/90/167 74/74/169
f 64/64/170 84/84/170 63/63/170
f 63/63/171 84/84/171 90/90/171
f 66/66/172 65/65/173 91/91/174
f 68/68/175 67/67/176 91/91/177
f 69/69/178 70/70/179 91/91/177
f 71/71/180 69/69/181 91/91/182
f 73/73/183 72/72/184 91/91/185
f 72/72/184 74/74/186 91/91/185
f 76/76/187 75/75/188 91/91/189
f 67/67/190 66/66/190 91/91/190
f 77/77/191 78/78/192 91/91/189
f 79/79/193 71/71/180 91/91/182
f 80/80/194 81/81/195 91/91/196
f 78/78/197 82/82/198 91/91/199
f 83/83/200 73/73/183 91/91/185
f 84/84/201 85/85/201 91/91/201
f 65/65/173 76/76/202 91/91/174
f 70/70/179 68/68/175 91/91/177
f 86/86/203 79/79/204 91/91/205
f 81/81/206 86/86/203 91/91/205
f 75/75/188 77/77/191 91/91/189
f 87/87/207 80/80/194 91/91/196
f 85/85/208 87/87/207 91/91/196
f 82/82/198 88/88/209 91/91/199
f 88/88/210 89/89/210 91/91/210
f 89/89/211 83/83/200 91/91/185
f 74/74/212 90/90/212 91/91/212
f 90/90/213 84/84/213 91/91/213
