# Blender v2.78 (sub 0) OBJ File: ''
# www.blender.org
mtllib SM_Env_Rock_010.mtl
o SM_Env_Rock_010
v -2.284851 12.985401 28.473848
v -12.013184 13.923283 28.473848
v -4.438416 -1.099590 29.865173
v -20.096741 -1.099590 29.865173
v 1.154419 -1.099583 -33.340427
v -31.133118 -1.099583 -33.340427
v -4.824585 13.923290 -31.820097
v -30.742798 13.923290 -31.820097
v -36.753906 19.575016 16.129185
v -38.404358 19.575024 -19.991055
v -37.282532 -1.099590 17.007904
v -38.932983 -1.099583 -21.018707
v 38.932983 -1.099583 -20.370422
v 38.695801 9.484455 -19.482817
v 38.932983 -1.099590 19.988342
v 38.695801 9.484444 19.114962
v 23.001953 -1.099590 19.988342
v 22.838013 11.452660 19.079744
v 23.001953 -1.099590 33.340511
v 22.789124 13.923283 31.820192
v 20.472839 78.414223 16.673903
v 20.472839 78.414223 -17.041765
v 20.023132 90.417099 21.243576
v 20.043823 90.417099 -21.638992
v 22.789124 13.923290 -25.287413
v 22.838013 11.452667 -19.447630
v 23.001953 -1.099583 -26.555939
v 23.001953 -1.099583 -20.370422
v 30.659851 68.852158 -17.447926
v 30.659851 68.852158 9.707378
v 27.087280 72.205559 16.937603
v -30.998047 -1.099583 -21.215546
v -30.458191 19.575024 -20.114956
v -25.635071 90.417099 -21.586166
v -26.160095 80.810684 -17.621630
v -25.666382 90.417099 21.240952
v -26.286804 80.810677 17.327223
v -30.458191 19.575016 19.747044
v -30.998047 -1.099590 20.833466
v -30.742798 13.923283 24.919527
v -31.133118 -1.099590 26.173859
v -34.108154 74.456184 -12.441333
v -30.614624 77.370468 -17.739977
v -34.796326 69.181938 -18.060963
v 33.700684 26.947985 -19.413998
v 33.700684 26.947973 19.046146
v 22.700500 18.724430 -19.307766
v 22.586060 22.230217 -25.017544
v -12.595459 45.155609 -31.547661
v -30.364319 22.230217 -31.545834
v -30.106079 26.224981 -19.910671
v -34.296204 39.637630 -19.858454
v -32.645752 39.637619 15.996559
v -30.106079 26.224966 19.542759
v -30.364319 22.230209 24.645267
v 6.329895 40.755253 28.201485
v 5.648743 28.118731 28.202213
v 22.700500 18.724422 18.939915
v 22.586060 22.230209 31.550327
v 31.048645 62.101074 17.330881
v -27.020996 70.434128 -29.123158
v -26.113953 83.511887 -21.933214
v -34.796387 69.181961 -18.060932
v -32.737793 74.456184 13.978346
v 20.623413 74.446976 25.595654
v 21.927124 39.760994 27.328283
v 20.177246 86.317337 21.448378
v 22.306152 29.676945 31.178350
v 17.824524 120.343399 19.178303
v -24.433960 103.717911 19.809771
v -15.674194 116.820206 18.614429
v -23.437317 123.869072 -19.526682
v -23.349976 119.081367 3.656484
v 18.454590 115.729996 -19.793346
v 9.495605 127.340958 -19.011728
v 17.720032 125.711037 -6.816264
v -21.025513 13.923283 24.919527
v -29.565796 -1.099590 26.173859
v -2.431885 40.755253 24.646431
v 10.248352 22.230209 31.549290
v 6.038269 12.985401 31.820192
v 5.851746 -1.099590 33.340511
v -2.642334 45.155609 -25.015800
v 5.659180 13.923290 -25.287413
v 12.597412 -1.099583 -26.555939
v 18.494385 -11.201340 25.811979
v 4.705017 -11.201340 25.811979
v 18.494385 -11.201332 -20.559389
v 10.128723 -11.201332 -20.559389
v 18.494385 -11.201332 -15.770601
v 18.494385 -11.201332 15.474821
v 31.303467 -11.201332 -15.770601
v 31.303467 -11.201332 15.474821
v -25.032104 -11.201324 -25.811892
v -24.923523 -11.201332 -16.424898
v -25.032104 -11.201332 20.263609
v -24.923523 -11.201332 16.129118
v -31.303467 -11.201332 -16.272524
v -29.976440 -11.201332 13.167387
v -23.771912 -11.201332 20.263609
v -16.158447 -11.201332 23.121397
v -3.568665 -11.201332 23.121397
v 0.928223 -11.201324 -25.811892
v -2.907898 -11.201332 2.314360
v 31.048706 62.101067 17.330942
v -34.796326 69.181938 -18.060963
v -34.796387 69.181961 -18.060932
v -34.108154 74.456184 -12.441333
vt 0.9467 0.4995
vt 0.9467 0.4995
vt 0.9467 0.4995
vt 0.9467 0.4995
vt 0.9467 0.4995
vt 0.9467 0.4995
vt 0.9467 0.4995
vt 0.9467 0.4995
vt 0.9467 0.4995
vt 0.9467 0.4995
vt 0.9467 0.4995
vt 0.9467 0.4995
vt 0.9467 0.4995
vt 0.9467 0.4995
vt 0.9467 0.4995
vt 0.9467 0.4995
vt 0.9467 0.4995
vt 0.9467 0.4995
vt 0.9467 0.4995
vt 0.9467 0.4995
vt 0.9467 0.4995
vt 0.9467 0.4995
vt 0.9467 0.4995
vt 0.9467 0.4995
vt 0.9467 0.4995
vt 0.9467 0.4995
vt 0.9467 0.4995
vt 0.9467 0.4995
vt 0.9467 0.4995
vt 0.9467 0.4995
vt 0.9467 0.4995
vt 0.9467 0.4995
vt 0.9467 0.4995
vt 0.9467 0.4995
vt 0.9467 0.4995
vt 0.9467 0.4995
vt 0.9467 0.4995
vt 0.9467 0.4995
vt 0.9467 0.4995
vt 0.9467 0.4995
vt 0.9467 0.4995
vt 0.9467 0.4995
vt 0.9467 0.4995
vt 0.9467 0.4995
vt 0.9467 0.4995
vt 0.9467 0.4995
vt 0.9467 0.4995
vt 0.9467 0.4995
vt 0.9467 0.4995
vt 0.9467 0.4995
vt 0.9467 0.4995
vt 0.9467 0.4995
vt 0.9467 0.4995
vt 0.9467 0.4995
vt 0.9467 0.4995
vt 0.9467 0.4995
vt 0.9467 0.4995
vt 0.9467 0.4995
vt 0.9467 0.4995
vt 0.9467 0.4995
vt 0.9467 0.4995
vt 0.9467 0.4995
vt 0.9467 0.4995
vt 0.9467 0.4995
vt 0.9467 0.4995
vt 0.9467 0.4995
vt 0.9467 0.4995
vt 0.9467 0.4995
vt 0.9467 0.4995
vt 0.9467 0.4995
vt 0.9467 0.4995
vt 0.9467 0.4995
vt 0.9467 0.4995
vt 0.9467 0.4995
vt 0.9467 0.4995
vt 0.9467 0.4995
vt 0.9467 0.4995
vt 0.9467 0.4995
vt 0.9467 0.4995
vt 0.9467 0.4995
vt 0.9467 0.4995
vt 0.9467 0.4995
vt 0.9467 0.4995
vt 0.9467 0.4995
vt 0.9467 0.4995
vt 0.9467 0.4995
vt 0.9467 0.4995
vt 0.9467 0.4995
vt 0.9467 0.4995
vt 0.9467 0.4995
vt 0.9467 0.4995
vt 0.9467 0.4995
vt 0.9467 0.4995
vt 0.9467 0.4995
vt 0.9467 0.4995
vt 0.9467 0.4995
vt 0.9467 0.4995
vt 0.9467 0.4995
vt 0.9467 0.4995
vt 0.9467 0.4995
vt 0.9467 0.4995
vt 0.9467 0.4995
vt 0.9467 0.4995
vt 0.9467 0.4995
vt 0.9467 0.4995
vt 0.9467 0.4995
vt 0.9467 0.4995
vt 0.9467 0.4995
vn 0.0093 0.0969 0.9953
vn 0.0001 0.0923 0.9957
vn 0.0082 0.0963 0.9953
vn 0.0000 0.0922 0.9957
vn 0.0000 0.1007 -0.9949
vn -0.9986 0.0275 0.0456
vn -0.9986 0.0268 0.0453
vn -0.9988 0.0240 0.0437
vn -0.9988 0.0234 0.0433
vn 0.9997 0.0224 0.0000
vn 0.9999 0.0131 0.0000
vn 0.9999 0.0135 0.0005
vn 0.9999 0.0137 0.0005
vn 0.9997 0.0227 -0.0005
vn 0.9993 0.0374 -0.0001
vn 0.9993 0.0373 0.0007
vn 0.9993 0.0363 0.0002
vn 0.9993 0.0369 0.0030
vn 0.9997 0.0231 -0.0036
vn 0.9999 0.0136 0.0004
vn 0.9999 0.0141 -0.0019
vn 0.0000 0.0822 0.9966
vn 0.0062 0.0731 0.9973
vn 0.0007 0.0812 0.9967
vn 0.0068 0.0723 0.9974
vn 0.6844 0.7291 0.0000
vn 0.0069 0.0734 -0.9973
vn 0.0064 0.0742 -0.9972
vn 0.0008 0.0824 -0.9966
vn 0.0000 0.0836 -0.9965
vn -0.9996 0.0248 0.0111
vn -0.9996 0.0251 0.0115
vn -0.9996 0.0250 0.0113
vn -0.9996 0.0255 0.0120
vn -0.9985 0.0543 -0.0007
vn -0.9977 0.0679 -0.0085
vn -0.9978 0.0659 -0.0036
vn -0.9976 0.0686 0.0002
vn -0.9993 0.0246 -0.0281
vn -0.9993 0.0244 -0.0274
vn -0.9994 0.0241 -0.0260
vn -0.9994 0.0239 -0.0253
vn -0.0248 0.0503 -0.9984
vn -0.0229 0.0509 -0.9984
vn -0.0174 0.0529 -0.9984
vn -0.0156 0.0536 -0.9984
vn -0.8412 0.4418 -0.3116
vn -0.4976 0.0525 0.8658
vn -0.4976 0.0495 0.8660
vn -0.4976 0.0498 0.8660
vn -0.5191 0.0584 0.8527
vn 0.9614 0.2750 0.0000
vn -0.0104 0.0010 -0.9999
vn 0.0002 0.0192 -0.9998
vn 0.9997 0.0246 -0.0049
vn 0.9998 0.0194 -0.0007
vn -0.0086 0.0066 -0.9999
vn 0.0000 0.0330 -0.9995
vn -0.9986 0.0528 0.0041
vn -0.9987 0.0515 0.0038
vn -0.9989 0.0465 0.0026
vn -0.9990 0.0454 0.0024
vn 0.0053 0.0055 -1.0000
vn -0.0156 0.0315 -0.9994
vn -0.9786 0.2007 0.0450
vn -0.9787 0.2003 0.0448
vn -0.9787 0.2005 0.0449
vn -0.9788 0.2001 0.0447
vn -0.5436 0.1168 0.8312
vn -0.4975 0.0529 0.8658
vn -0.9986 0.0526 -0.0094
vn -0.9986 0.0523 -0.0092
vn -0.9988 0.0490 -0.0074
vn -0.9990 0.0453 -0.0054
vn 0.0160 -0.0008 0.9999
vn 0.0016 0.0171 0.9999
vn 0.9993 0.0366 -0.0007
vn 0.9997 0.0254 0.0020
vn -0.0104 0.0010 0.9999
vn 0.0002 0.0192 0.9998
vn 0.9974 0.0724 0.0000
vn 0.9972 0.0753 0.0033
vn 0.9972 0.0752 0.0033
vn 0.9971 0.0754 0.0035
vn 0.9983 0.0575 0.0000
vn -0.0044 0.0378 -0.9993
vn -0.0424 0.0438 -0.9981
vn 0.9993 0.0371 0.0035
vn 0.9993 0.0372 0.0028
vn -0.0710 0.0550 -0.9960
vn -0.9972 0.0676 0.0317
vn -0.9981 0.0567 0.0248
vn -0.9974 0.0659 0.0306
vn -0.9976 0.0693 -0.0016
vn -0.9974 0.0711 0.0071
vn -0.9976 0.0699 0.0014
vn -0.9981 0.0559 0.0243
vn -0.9974 0.0717 0.0100
vn -0.5128 0.5402 -0.6672
vn 0.3347 -0.2014 0.9205
vn 0.3348 -0.2014 0.9205
vn -0.0561 0.7158 -0.6960
vn -0.8808 0.4718 -0.0391
vn -0.4977 0.0489 0.8660
vn -0.6515 0.0762 0.7548
vn -0.9976 0.0687 -0.0058
vn -0.9975 0.0700 0.0043
vn 0.0591 0.0520 0.9969
vn 0.0557 -0.0029 0.9984
vn 0.9993 0.0375 -0.0003
vn 0.9993 0.0375 -0.0012
vn 0.9993 0.0372 -0.0012
vn 0.9993 0.0373 -0.0011
vn -0.0044 0.0378 0.9993
vn -0.0038 0.0377 0.9993
vn -0.0036 0.0377 0.9993
vn -0.0031 0.0377 0.9993
vn -0.0436 0.0454 0.9980
vn -0.0001 0.0688 0.9976
vn -0.0282 0.1095 0.9936
vn -0.9978 0.0645 0.0171
vn -0.9957 0.0922 -0.0007
vn -0.9971 0.0753 0.0047
vn -0.0012 0.0613 -0.9981
vn -0.0012 0.0615 -0.9981
vn -0.0012 0.0528 -0.9986
vn 0.0079 0.0732 -0.9973
vn 0.9980 0.0626 0.0005
vn 0.9977 0.0683 0.0040
vn 0.9973 0.0731 0.0101
vn 0.9976 0.0689 0.0048
vn 0.9972 0.0740 0.0113
vn 0.0000 0.0832 0.9965
vn -0.0126 0.0189 0.9997
vn 0.0000 0.0330 0.9995
vn -0.0347 0.0522 0.9980
vn -0.0001 0.0499 0.9988
vn 0.0017 0.0692 0.9976
vn -0.4449 0.2804 0.8506
vn -0.3663 0.2252 0.9028
vn -0.3633 0.2575 0.8954
vn -0.3569 0.2556 0.8985
vn -0.3612 0.2569 0.8964
vn -0.3548 0.2550 0.8995
vn -0.3530 0.2728 0.8950
vn -0.3499 0.2733 0.8960
vn -0.3524 0.2729 0.8952
vn -0.3494 0.2734 0.8962
vn -0.0001 0.0325 0.9995
vn -0.0003 0.0321 0.9995
vn -0.0015 0.0303 0.9995
vn -0.0017 0.0301 0.9995
vn -0.0056 0.1006 0.9949
vn -0.0054 0.1009 0.9949
vn -0.0003 0.1070 0.9943
vn 0.0000 0.1073 0.9942
vn -0.1962 0.3433 0.9185
vn -0.1967 0.3639 0.9104
vn -0.3912 0.2045 0.8973
vn -0.3649 0.2076 0.9076
vn -0.3710 0.1045 0.9227
vn -0.3168 0.1411 0.9379
vn -0.1058 0.9738 0.2015
vn -0.7228 0.5243 0.4502
vn 0.7114 0.5760 -0.4027
vn 0.0464 0.0512 -0.9976
vn -0.0012 0.0503 -0.9987
vn -0.0052 0.0770 -0.9970
vn 0.0000 0.0325 -0.9995
vn 0.0103 0.0114 -0.9999
vn 0.0000 0.0841 -0.9965
vn 0.5243 0.3820 -0.7610
vn 0.5106 0.3660 -0.7780
vn 0.5232 0.1464 -0.8396
vn 0.5431 0.1423 -0.8275
vn 0.4874 0.2945 -0.8220
vn 0.5071 0.2842 -0.8137
vn 0.0000 -0.5976 0.8018
vn 0.0000 -0.5105 -0.8599
vn 0.9132 -0.4075 0.0000
vn 0.0000 -0.4144 -0.9101
vn 0.0000 -0.4079 0.9130
vn 0.7980 -0.6027 -0.0000
vn -0.8591 -0.5117 0.0096
vn -0.8591 -0.5118 0.0098
vn -0.8591 -0.5118 0.0097
vn -0.8590 -0.5118 0.0099
vn -0.8614 -0.5075 -0.0218
vn -0.8614 -0.5074 -0.0226
vn -0.8614 -0.5075 -0.0221
vn -0.0223 -0.4389 -0.8983
vn -0.0221 -0.4389 -0.8983
vn -0.0217 -0.4389 -0.8983
vn -0.0215 -0.4389 -0.8983
vn -0.4258 -0.5739 0.6995
vn -0.4238 -0.5744 0.7004
vn -0.4155 -0.5762 0.7039
vn -0.4131 -0.5767 0.7048
vn -0.8053 -0.5918 0.0350
vn -0.8037 -0.5940 0.0359
vn -0.8049 -0.5923 0.0352
vn -0.8032 -0.5947 0.0362
vn -0.2901 -0.6018 0.7441
vn -0.2892 -0.6021 0.7442
vn -0.2808 -0.6056 0.7446
vn -0.2795 -0.6061 0.7447
vn 0.0000 -0.5050 0.8631
vn -0.2659 -0.5565 0.7872
vn -0.2587 -0.5522 0.7926
vn -0.2654 -0.5562 0.7875
vn -0.2579 -0.5517 0.7932
vn 0.0000 -0.5552 0.8317
vn 0.4271 -0.5465 -0.7204
vn 0.4182 -0.5371 -0.7326
vn 0.0000 -0.5976 -0.8018
vn 0.0000 -1.0000 -0.0000
vn 0.8918 0.3603 0.2736
vn 0.5105 -0.6387 -0.5758
vn 0.9078 0.4157 0.0553
vn 0.5105 -0.6386 -0.5758
vn -0.7185 -0.2560 0.6467
vn 0.0984 0.0346 -0.9946
vn -0.0181 0.0578 -0.9982
vn -0.0409 0.0600 -0.9974
vn -0.9989 0.0000 0.0460
vn -0.9975 -0.0210 0.0675
vn -0.9959 0.0749 0.0517
vn -0.7011 0.7131 -0.0025
vn -0.6115 0.7906 0.0317
vn 0.0000 0.0000 1.0000
usemtl None
s 1
f 1/1/1 2/2/2 3/3/3
f 3/3/3 2/2/2 4/4/4
f 5/5/5 6/6/5 7/7/5
f 7/7/5 6/6/5 8/8/5
f 9/9/6 10/10/7 11/11/8
f 11/11/8 10/10/7 12/12/9
f 13/13/10 14/14/10 15/15/10
f 15/15/10 14/14/10 16/16/10
f 17/17/11 18/18/12 19/19/13
f 19/19/13 18/18/12 20/20/14
f 21/21/15 22/22/16 23/23/17
f 23/23/17 22/22/16 24/24/18
f 25/25/19 26/26/20 27/27/21
f 27/27/21 26/26/20 28/28/11
f 15/15/22 16/16/23 17/17/24
f 17/17/24 16/16/23 18/18/25
f 29/29/26 22/22/26 30/30/26
f 21/21/26 31/31/26 22/22/26
f 31/31/26 30/30/26 22/22/26
f 26/26/27 14/14/28 28/28/29
f 28/28/29 14/14/28 13/13/30
f 6/6/31 32/32/32 8/8/33
f 8/8/33 32/32/32 33/33/34
f 34/34/35 35/35/35 36/36/35
f 36/36/36 35/35/37 37/37/38
f 38/38/39 39/39/40 40/40/41
f 40/40/41 39/39/40 41/41/42
f 12/12/43 10/10/44 32/32/45
f 32/32/45 10/10/44 33/33/46
f 42/42/47 43/43/47 44/44/47
f 9/9/48 11/11/49 38/38/50
f 38/38/51 11/11/51 39/39/51
f 14/14/52 45/45/52 16/16/52
f 16/16/52 45/45/52 46/46/52
f 45/45/53 14/14/53 47/47/53
f 47/47/54 14/14/54 26/26/54
f 48/48/55 47/47/56 25/25/19
f 25/25/19 47/47/56 26/26/20
f 49/49/57 7/7/57 50/50/57
f 50/50/58 7/7/58 8/8/58
f 51/51/59 50/50/60 33/33/61
f 33/33/61 50/50/60 8/8/62
f 52/52/63 51/51/63 10/10/63
f 10/10/64 51/51/64 33/33/64
f 53/53/65 52/52/66 9/9/67
f 9/9/67 52/52/66 10/10/68
f 53/53/69 9/9/69 54/54/69
f 54/54/70 9/9/48 38/38/50
f 54/54/71 38/38/72 55/55/73
f 55/55/73 38/38/72 40/40/74
f 56/56/75 2/2/75 57/57/75
f 57/57/76 2/2/76 1/1/76
f 18/18/12 58/58/77 20/20/14
f 20/20/14 58/58/77 59/59/78
f 46/46/79 58/58/79 16/16/79
f 16/16/80 58/58/80 18/18/80
f 45/45/81 29/29/82 46/46/83
f 46/46/83 29/29/82 60/60/84
f 29/29/85 30/30/85 60/60/85
f 22/22/86 29/29/86 47/47/86
f 47/47/87 29/29/87 45/45/87
f 24/24/18 22/22/16 48/48/88
f 48/48/88 22/22/16 47/47/89
f 61/61/90 49/49/90 50/50/90
f 34/34/91 62/62/92 35/35/93
f 50/50/94 51/51/95 61/61/96
f 62/62/92 61/61/97 35/35/93
f 51/51/95 35/35/98 61/61/96
f 43/43/99 63/63/100 44/44/101
f 63/63/102 42/42/103 44/44/102
f 64/64/104 53/53/104 37/37/104
f 37/37/105 53/53/105 54/54/105
f 36/36/36 37/37/38 55/55/106
f 55/55/106 37/37/38 54/54/107
f 65/65/108 56/56/108 66/66/108
f 66/66/109 56/56/109 57/57/109
f 23/23/17 67/67/110 21/21/15
f 67/67/110 65/65/111 21/21/15
f 21/21/15 65/65/111 58/58/77
f 65/65/111 66/66/112 58/58/77
f 66/66/112 68/68/113 58/58/77
f 58/58/77 68/68/113 59/59/78
f 21/21/114 58/58/115 31/31/116
f 31/31/116 58/58/115 60/60/117
f 46/46/118 60/60/118 58/58/118
f 23/23/119 69/69/119 36/36/119
f 36/36/120 69/69/120 70/70/120
f 69/69/120 71/71/120 70/70/120
f 72/72/121 34/34/121 73/73/121
f 36/36/122 70/70/122 34/34/122
f 70/70/123 73/73/123 34/34/123
f 34/34/124 72/72/125 24/24/126
f 24/24/127 72/72/127 74/74/127
f 72/72/127 75/75/127 74/74/127
f 24/24/128 74/74/128 23/23/128
f 74/74/129 76/76/130 23/23/131
f 76/76/130 69/69/132 23/23/131
f 77/77/133 40/40/133 78/78/133
f 78/78/133 40/40/133 41/41/133
f 79/79/134 55/55/134 77/77/134
f 77/77/135 55/55/135 40/40/135
f 55/55/136 79/79/136 36/36/136
f 23/23/137 36/36/137 67/67/137
f 67/67/138 36/36/138 79/79/138
f 67/67/139 79/79/139 65/65/139
f 65/65/140 79/79/140 56/56/140
f 56/56/141 79/79/142 2/2/143
f 2/2/143 79/79/142 77/77/144
f 2/2/145 77/77/146 4/4/147
f 4/4/147 77/77/146 78/78/148
f 59/59/137 68/68/137 80/80/137
f 59/59/149 80/80/150 20/20/151
f 20/20/151 80/80/150 81/81/152
f 20/20/153 81/81/154 19/19/155
f 19/19/155 81/81/154 82/82/156
f 66/66/157 57/57/157 68/68/157
f 68/68/158 57/57/158 80/80/158
f 80/80/159 57/57/159 81/81/159
f 81/81/160 57/57/160 1/1/160
f 81/81/161 1/1/161 82/82/161
f 82/82/162 1/1/162 3/3/162
f 69/69/163 76/76/163 71/71/163
f 71/71/163 76/76/163 73/73/163
f 76/76/163 75/75/163 73/73/163
f 73/73/163 75/75/163 72/72/163
f 70/70/164 71/71/164 73/73/164
f 74/74/165 75/75/165 76/76/165
f 48/48/166 83/83/166 24/24/166
f 34/34/124 24/24/126 62/62/167
f 24/24/168 83/83/168 62/62/168
f 25/25/169 84/84/169 48/48/169
f 48/48/170 84/84/170 83/83/170
f 27/27/171 85/85/171 25/25/171
f 25/25/171 85/85/171 84/84/171
f 62/62/172 83/83/172 61/61/172
f 61/61/173 83/83/173 49/49/173
f 84/84/174 7/7/174 83/83/174
f 83/83/175 7/7/175 49/49/175
f 85/85/176 5/5/176 84/84/176
f 84/84/177 5/5/177 7/7/177
f 19/19/178 82/82/178 86/86/178
f 86/86/178 82/82/178 87/87/178
f 27/27/179 88/88/179 85/85/179
f 85/85/179 88/88/179 89/89/179
f 27/27/180 28/28/180 88/88/180
f 88/88/180 28/28/180 90/90/180
f 19/19/180 86/86/180 17/17/180
f 17/17/180 86/86/180 91/91/180
f 13/13/181 92/92/181 28/28/181
f 28/28/181 92/92/181 90/90/181
f 15/15/182 17/17/182 93/93/182
f 93/93/182 17/17/182 91/91/182
f 13/13/183 15/15/183 92/92/183
f 92/92/183 15/15/183 93/93/183
f 6/6/184 94/94/185 32/32/186
f 32/32/186 94/94/185 95/95/187
f 41/41/188 39/39/189 96/96/190
f 96/96/190 39/39/189 97/97/189
f 12/12/191 32/32/192 98/98/193
f 98/98/193 32/32/192 95/95/194
f 11/11/195 99/99/196 39/39/197
f 39/39/197 99/99/196 97/97/198
f 12/12/199 98/98/200 11/11/201
f 11/11/201 98/98/200 99/99/202
f 78/78/203 100/100/204 4/4/205
f 4/4/205 100/100/204 101/101/206
f 41/41/207 96/96/207 78/78/207
f 78/78/207 96/96/207 100/100/207
f 82/82/208 3/3/209 87/87/210
f 87/87/210 3/3/209 102/102/211
f 4/4/212 101/101/212 3/3/212
f 3/3/212 101/101/212 102/102/212
f 5/5/213 85/85/213 103/103/213
f 103/103/214 85/85/214 89/89/214
f 6/6/215 5/5/215 94/94/215
f 94/94/215 5/5/215 103/103/215
f 86/86/216 87/87/216 104/104/216
f 89/89/216 88/88/216 104/104/216
f 88/88/216 90/90/216 104/104/216
f 91/91/216 86/86/216 104/104/216
f 90/90/216 92/92/216 104/104/216
f 93/93/216 91/91/216 104/104/216
f 92/92/216 93/93/216 104/104/216
f 95/95/216 94/94/216 104/104/216
f 96/96/216 97/97/216 104/104/216
f 98/98/216 95/95/216 104/104/216
f 97/97/216 99/99/216 104/104/216
f 99/99/216 98/98/216 104/104/216
f 101/101/216 100/100/216 104/104/216
f 100/100/216 96/96/216 104/104/216
f 87/87/216 102/102/216 104/104/216
f 102/102/216 101/101/216 104/104/216
f 103/103/216 89/89/216 104/104/216
f 94/94/216 103/103/216 104/104/216
f 30/30/217 31/31/217 105/105/217
f 60/60/218 30/30/219 105/105/220
f 31/31/221 60/60/221 105/105/221
f 51/51/222 52/52/222 35/35/222
f 35/35/223 52/52/223 43/43/223
f 52/52/224 63/63/224 43/43/224
f 53/53/225 64/64/225 52/52/225
f 52/52/226 64/64/226 63/63/226
f 64/64/227 42/42/227 63/63/227
f 37/37/228 35/35/228 64/64/228
f 35/35/229 43/43/229 64/64/229
f 43/43/229 42/42/229 64/64/229
f 106/106/230 44/44/230 107/107/230
f 44/44/230 63/63/230 107/107/230
f 108/108/230 42/42/230 106/106/230
f 42/42/230 44/44/230 106/106/230
