# This file uses centimeters as units for non-parametric coordinates.

v -5.360352 0.000000 5.360291
v 5.360352 0.000000 5.360291
v -5.360352 10.514076 5.360291
v -5.360352 0.000000 -5.360352
v 5.360352 0.000000 -5.360352
v -5.360352 10.514076 -1.152069
v -5.360352 5.469641 -5.360352
v 1.270020 10.514076 5.360291
v 5.360352 8.107567 5.360291
v 5.360352 10.514076 3.465912
v 5.360352 2.193594 -5.360352
v 5.360352 10.514076 -1.291565
v -3.583252 10.514076 -3.014282
v -4.125488 7.020702 -5.360352
v 2.959717 10.514076 -3.922394
v 2.604980 8.368477 -5.360352
vt 0.943115 0.502155
vt 0.943115 0.502155
vt 0.943115 0.502159
vt 0.943115 0.502159
vt 0.943115 0.502159
vt 0.943115 0.502159
vt 0.943115 0.502159
vt 0.943115 0.502159
vt 0.943115 0.502159
vt 0.943115 0.502159
vt 0.943115 0.502155
vt 0.943115 0.502155
vt 0.943115 0.502155
vt 0.943115 0.502155
vt 0.943115 0.502159
vt 0.943115 0.502159
vn 0.000000 0.000000 1.000000
vn 0.000000 0.000000 1.000000
vn 0.000000 0.000000 1.000000
vn 0.000000 0.000000 1.000000
vn 0.000000 0.000000 1.000000
vn 0.000000 0.000000 1.000000
vn 0.000000 0.000000 1.000000
vn 0.000000 0.000000 1.000000
vn 0.000000 0.000000 1.000000
vn 0.000000 1.000000 0.000000
vn 0.000000 1.000000 0.000000
vn 0.000000 1.000000 0.000000
vn 0.000000 1.000000 0.000000
vn 0.000000 1.000000 0.000000
vn 0.000000 1.000000 0.000000
vn 0.000000 1.000000 0.000000
vn 0.000000 1.000000 0.000000
vn 0.000000 1.000000 0.000000
vn 0.000000 1.000000 0.000000
vn 0.000000 1.000000 0.000000
vn 0.000000 1.000000 0.000000
vn 0.000000 1.000000 0.000000
vn 0.000000 1.000000 0.000000
vn 0.000000 1.000000 0.000000
vn 0.000000 -1.000000 0.000000
vn 0.000000 -1.000000 0.000000
vn 0.000000 -1.000000 0.000000
vn 0.000000 -1.000000 0.000000
vn 0.000000 -1.000000 0.000000
vn 0.000000 -1.000000 0.000000
vn 1.000000 0.000000 0.000000
vn 1.000000 0.000000 0.000000
vn 1.000000 0.000000 0.000000
vn 1.000000 0.000000 0.000000
vn 1.000000 0.000000 0.000000
vn 1.000000 0.000000 0.000000
vn 1.000000 0.000000 0.000000
vn 1.000000 0.000000 0.000000
vn 1.000000 0.000000 0.000000
vn 1.000000 0.000000 0.000000
vn 1.000000 0.000000 0.000000
vn 1.000000 0.000000 0.000000
vn -1.000000 0.000000 0.000000
vn -1.000000 0.000000 0.000000
vn -1.000000 0.000000 0.000000
vn -1.000000 0.000000 0.000000
vn -1.000000 0.000000 0.000000
vn -1.000000 0.000000 0.000000
vn -1.000000 0.000000 0.000000
vn -1.000000 0.000000 0.000000
vn -1.000000 0.000000 0.000000
vn 0.000000 0.000000 -1.000000
vn 0.000000 0.000000 -1.000000
vn 0.000000 0.000000 -1.000000
vn 0.000000 0.000000 -1.000000
vn 0.000000 0.000000 -1.000000
vn 0.000000 0.000000 -1.000000
vn 0.000000 0.000000 -1.000000
vn 0.000000 0.000000 -1.000000
vn 0.000000 0.000000 -1.000000
vn -0.000001 0.000000 -1.000000
vn -0.000001 0.000000 -1.000000
vn -0.000001 0.000000 -1.000000
vn -0.626906 0.499081 -0.598253
vn -0.626906 0.499081 -0.598253
vn -0.626906 0.499081 -0.598253
vn -0.626891 0.499093 -0.598259
vn -0.626891 0.499093 -0.598259
vn -0.626891 0.499093 -0.598259
vn 0.341971 0.581247 0.738382
vn 0.341971 0.581247 0.738382
vn 0.341971 0.581247 0.738382
vn 0.701557 0.313046 -0.640172
vn 0.701557 0.313046 -0.640172
vn 0.701557 0.313046 -0.640172
vn 0.701555 0.313050 -0.640172
vn 0.701555 0.313050 -0.640172
vn 0.701555 0.313050 -0.640172
vn -0.113334 0.566000 -0.816578
vn -0.113334 0.565999 -0.816578
vn -0.113334 0.565999 -0.816578
vn -0.113339 0.565991 -0.816583
vn -0.113339 0.565991 -0.816583
vn -0.113339 0.565991 -0.816583
s off
f 1/1/1 2/2/2 3/5/3
f 3/5/4 2/2/5 8/4/6
f 2/2/7 9/3/8 8/4/9
f 3/5/10 8/4/11 6/10/12
f 6/10/13 8/4/14 13/9/15
f 13/9/16 8/4/17 15/8/18
f 15/8/19 8/4/20 12/7/21
f 8/4/22 10/6/23 12/7/24
f 4/11/25 5/12/26 1/1/27
f 1/1/28 5/12/29 2/2/30
f 2/2/31 5/12/32 9/3/33
f 5/12/34 11/13/35 9/3/36
f 9/3/37 11/13/38 10/6/39
f 11/13/40 12/7/41 10/6/42
f 4/11/43 1/1/44 7/14/45
f 7/14/46 1/1/47 6/10/48
f 1/1/49 3/5/50 6/10/51
f 5/12/52 4/11/53 11/13/54
f 11/13/55 4/11/56 16/16/57
f 16/16/58 4/11/59 14/15/60
f 7/14/61 14/15/62 4/11/63
f 13/9/64 14/15/65 6/10/66
f 6/10/67 14/15/68 7/14/69
f 8/4/70 9/3/71 10/6/72
f 15/8/73 12/7/74 16/16/75
f 16/16/76 12/7/77 11/13/78
f 15/8/79 16/16/80 13/9/81
f 13/9/82 16/16/83 14/15/84
