# This file uses centimeters as units for non-parametric coordinates.

v 51.900391 111.641647 29.111450
v 5.097656 2.149651 -18.202637
v 44.762695 85.772820 -42.784302
v 41.160156 44.996071 20.732086
v -34.414063 89.155556 -49.595032
v -26.311523 20.457550 23.465881
v 41.789063 19.199837 0.217743
v -30.115234 146.528992 41.690247
v 49.517578 137.563751 4.630188
v -48.864258 138.194916 -31.912720
v 35.121094 142.001694 -38.198059
v 17.635742 0.312176 -9.800049
v -24.163086 54.734642 38.119385
v 48.243164 135.084488 -12.845978
v 53.092773 95.280930 -5.392426
v -12.625977 151.612961 26.685760
v -19.775391 9.140072 -7.695129
v 30.598633 62.430717 40.241821
v -22.133789 22.478065 -32.707581
v -42.136719 152.399780 -21.401733
v 6.557617 0.000000 20.445923
v 34.812500 8.953285 4.497650
v 9.368164 107.507202 53.513702
v -0.416992 85.159096 51.469330
v -24.524414 109.220291 53.924744
v -30.981445 24.725021 -8.184998
v 16.109375 110.405914 -53.924805
v -0.262695 88.715477 -53.826843
v -5.618164 122.604721 -52.754028
v 4.821289 7.390873 30.156036
v -40.475586 86.596619 43.474030
v -36.947266 119.269958 48.099670
v 46.204102 55.252335 -17.433105
v 43.311523 81.657684 40.376495
v -53.092773 124.711586 -6.106567
v 11.170898 146.798523 40.342499
v 5.697266 132.433350 51.681213
v 33.106445 147.157059 2.923828
v -52.573242 113.251778 -34.091980
v -51.962891 89.166611 -12.053223
v -40.434570 143.499741 -37.809753
v -4.640625 150.088547 -41.438538
v 31.405273 86.625999 -50.265869
v 0.375000 33.295944 -44.139648
v -42.588867 75.602806 32.103088
v 35.782227 27.015396 29.832886
v -21.549805 145.530350 47.591339
v 41.365234 138.020264 34.294098
v 34.287109 135.199982 -45.052368
v 1.446289 15.668362 -37.504578
v -47.292969 89.203949 -41.114624
v 37.526367 27.861687 -32.400391
vt 0.873613 0.411801
vt 0.873613 0.411801
vt 0.873613 0.411801
vt 0.873613 0.411801
vt 0.873613 0.411801
vt 0.873613 0.411799
vt 0.873613 0.411799
vt 0.873613 0.411798
vt 0.873613 0.411798
vt 0.873613 0.411801
vt 0.873613 0.411801
vt 0.873613 0.411798
vt 0.873613 0.411798
vt 0.873613 0.411798
vt 0.873613 0.411799
vt 0.873613 0.411800
vt 0.873613 0.411799
vt 0.873613 0.411801
vt 0.873613 0.411798
vt 0.873613 0.411801
vt 0.873613 0.411798
vt 0.873613 0.411799
vt 0.873613 0.411799
vt 0.873613 0.411801
vt 0.873613 0.411798
vt 0.873613 0.411798
vt 0.873613 0.411801
vt 0.873613 0.411801
vt 0.873613 0.411801
vt 0.873613 0.411798
vt 0.873613 0.411799
vt 0.873613 0.411798
vt 0.873613 0.411799
vt 0.873613 0.411799
vt 0.873613 0.411801
vt 0.873613 0.411801
vt 0.873613 0.411801
vt 0.873613 0.411801
vt 0.873613 0.411801
vt 0.873613 0.411801
vt 0.873613 0.411801
vt 0.873613 0.411799
vt 0.873613 0.411801
vt 0.873613 0.411801
vt 0.873613 0.411801
vt 0.873613 0.411801
vt 0.873613 0.411801
vt 0.873613 0.411800
vt 0.873613 0.411801
vt 0.873613 0.411801
vt 0.873613 0.411801
vt 0.873613 0.411801
vn 0.362275 -0.923900 0.123154
vn 0.362275 -0.923900 0.123154
vn 0.362275 -0.923900 0.123154
vn -0.286876 -0.957029 -0.042394
vn -0.286876 -0.957029 -0.042394
vn -0.286876 -0.957029 -0.042394
vn -0.111272 -0.992481 -0.050999
vn -0.111272 -0.992481 -0.050999
vn -0.111272 -0.992481 -0.050999
vn 0.023380 -0.416946 0.908631
vn 0.023380 -0.416946 0.908631
vn 0.023380 -0.416946 0.908631
vn 0.015915 0.075641 0.997008
vn 0.015915 0.075641 0.997008
vn 0.015915 0.075641 0.997008
vn -0.062623 0.176471 0.982312
vn -0.062623 0.176471 0.982312
vn -0.062623 0.176471 0.982312
vn 0.007309 -0.094269 0.995520
vn 0.007309 -0.094269 0.995520
vn 0.007309 -0.094269 0.995520
vn -0.954830 0.061966 0.290620
vn -0.954830 0.061966 0.290620
vn -0.954830 0.061966 0.290620
vn -0.980014 -0.062735 0.188778
vn -0.980014 -0.062735 0.188778
vn -0.980014 -0.062735 0.188778
vn -0.975076 -0.038557 0.218495
vn -0.975076 -0.038557 0.218495
vn -0.975076 -0.038557 0.218495
vn -0.984806 0.153528 -0.081151
vn -0.984806 0.153528 -0.081151
vn -0.984806 0.153528 -0.081151
vn -0.999509 -0.030776 -0.005953
vn -0.999509 -0.030776 -0.005953
vn -0.999509 -0.030776 -0.005953
vn -0.947168 -0.301884 0.108344
vn -0.947168 -0.301884 0.108344
vn -0.947168 -0.301884 0.108344
vn 0.975657 -0.111015 -0.189125
vn 0.975657 -0.111015 -0.189125
vn 0.975657 -0.111015 -0.189125
vn 0.969221 0.074126 -0.234770
vn 0.969221 0.074126 -0.234770
vn 0.969221 0.074126 -0.234770
vn 0.992905 0.117010 -0.021170
vn 0.992905 0.117010 -0.021170
vn 0.992905 0.117010 -0.021170
vn 0.978356 -0.191762 0.077768
vn 0.978356 -0.191761 0.077768
vn 0.978356 -0.191762 0.077768
vn 0.145047 0.984905 0.094466
vn 0.145047 0.984905 0.094466
vn 0.145047 0.984905 0.094466
vn -0.039583 0.025366 -0.998894
vn -0.039583 0.025366 -0.998894
vn -0.039583 0.025366 -0.998894
vn 0.105846 -0.084368 -0.990797
vn 0.105846 -0.084368 -0.990797
vn 0.105846 -0.084368 -0.990797
vn -0.122812 0.012007 -0.992357
vn -0.122812 0.012007 -0.992357
vn -0.122812 0.012007 -0.992357
vn -0.300654 0.170202 -0.938424
vn -0.300654 0.170202 -0.938423
vn -0.300654 0.170202 -0.938423
vn -0.504546 -0.840072 0.199278
vn -0.504546 -0.840072 0.199278
vn -0.504546 -0.840072 0.199278
vn -0.811831 -0.582434 0.041252
vn -0.811831 -0.582434 0.041252
vn -0.811830 -0.582434 0.041252
vn -0.949890 -0.296080 0.100231
vn -0.949890 -0.296080 0.100231
vn -0.949890 -0.296080 0.100231
vn -0.786438 -0.572742 -0.231265
vn -0.786438 -0.572741 -0.231265
vn -0.786438 -0.572742 -0.231265
vn -0.400979 -0.823500 -0.401327
vn -0.400979 -0.823500 -0.401327
vn -0.400979 -0.823500 -0.401327
vn -0.424350 -0.755490 0.499162
vn -0.424350 -0.755490 0.499162
vn -0.424350 -0.755490 0.499162
vn 0.523374 -0.630338 0.573371
vn 0.523374 -0.630338 0.573371
vn 0.523374 -0.630338 0.573371
vn -0.013707 -0.174012 0.984648
vn -0.013707 -0.174012 0.984648
vn -0.013707 -0.174012 0.984648
vn -0.693120 -0.449553 0.563459
vn -0.693120 -0.449553 0.563459
vn -0.693120 -0.449553 0.563459
vn -0.197959 -0.260173 0.945051
vn -0.197959 -0.260173 0.945051
vn -0.197959 -0.260173 0.945051
vn -0.471519 -0.073494 0.878788
vn -0.471519 -0.073494 0.878788
vn -0.471519 -0.073494 0.878788
vn -0.197238 -0.293086 0.935520
vn -0.197238 -0.293085 0.935520
vn -0.197238 -0.293085 0.935520
vn -0.288643 0.187417 0.938914
vn -0.288643 0.187417 0.938914
vn -0.288643 0.187417 0.938914
vn 0.660902 -0.624085 -0.416806
vn 0.660902 -0.624085 -0.416806
vn 0.660902 -0.624085 -0.416806
vn 0.660264 -0.699983 -0.272169
vn 0.660264 -0.699983 -0.272169
vn 0.660264 -0.699983 -0.272169
vn 0.991371 -0.065933 0.113302
vn 0.991371 -0.065933 0.113302
vn 0.991371 -0.065933 0.113302
vn 0.326400 -0.222251 0.918732
vn 0.326400 -0.222251 0.918732
vn 0.326400 -0.222251 0.918732
vn 0.230745 -0.159292 0.959887
vn 0.230745 -0.159292 0.959887
vn 0.230745 -0.159292 0.959887
vn 0.959379 -0.174908 0.221356
vn 0.959379 -0.174908 0.221356
vn 0.959379 -0.174908 0.221356
vn 0.953671 -0.183649 0.238296
vn 0.953671 -0.183649 0.238296
vn 0.953671 -0.183649 0.238296
vn 0.978279 -0.172169 0.115445
vn 0.978279 -0.172169 0.115445
vn 0.978279 -0.172169 0.115445
vn 0.227453 -0.187013 0.955663
vn 0.227453 -0.187013 0.955663
vn 0.227453 -0.187013 0.955663
vn 0.637111 0.104412 0.763667
vn 0.637111 0.104412 0.763667
vn 0.637111 0.104412 0.763667
vn 0.442672 0.130413 0.887149
vn 0.442672 0.130413 0.887149
vn 0.442672 0.130413 0.887149
vn 0.421252 0.111675 0.900042
vn 0.421252 0.111675 0.900042
vn 0.421252 0.111675 0.900042
vn -0.906360 0.297667 0.299844
vn -0.906360 0.297667 0.299844
vn -0.906360 0.297667 0.299844
vn -0.176940 0.976308 0.124560
vn -0.176940 0.976308 0.124560
vn -0.176940 0.976308 0.124560
vn -0.865054 0.456830 0.207335
vn -0.865054 0.456830 0.207335
vn -0.865054 0.456830 0.207335
vn -0.917596 0.393646 0.055320
vn -0.917596 0.393646 0.055320
vn -0.917596 0.393646 0.055320
vn 0.027154 0.956660 0.289938
vn 0.027154 0.956660 0.289938
vn 0.027154 0.956660 0.289938
vn 0.155696 0.574781 0.803359
vn 0.155696 0.574781 0.803359
vn 0.155696 0.574781 0.803359
vn 0.309619 0.513636 0.800197
vn 0.309619 0.513636 0.800197
vn 0.309619 0.513636 0.800196
vn 0.308994 0.931878 0.190067
vn 0.308994 0.931878 0.190067
vn 0.308994 0.931878 0.190067
vn 0.996934 0.020267 -0.075575
vn 0.996934 0.020267 -0.075575
vn 0.996934 0.020267 -0.075575
vn 0.674147 0.722849 -0.151707
vn 0.674147 0.722849 -0.151707
vn 0.674147 0.722849 -0.151707
vn 0.509319 0.856620 -0.082441
vn 0.509319 0.856620 -0.082441
vn 0.509318 0.856620 -0.082441
vn -0.973272 -0.167970 -0.156612
vn -0.973272 -0.167970 -0.156612
vn -0.973272 -0.167970 -0.156612
vn -0.631514 0.160186 -0.758637
vn -0.631514 0.160186 -0.758637
vn -0.631514 0.160186 -0.758637
vn -0.548971 0.118611 -0.827383
vn -0.548971 0.118611 -0.827383
vn -0.548971 0.118611 -0.827383
vn -0.545500 0.122352 -0.829132
vn -0.545501 0.122352 -0.829132
vn -0.545500 0.122352 -0.829132
vn -0.507219 -0.390904 -0.768065
vn -0.507219 -0.390904 -0.768065
vn -0.507219 -0.390904 -0.768065
vn -0.123321 -0.172249 -0.977304
vn -0.123321 -0.172249 -0.977304
vn -0.123321 -0.172249 -0.977304
vn -0.902549 -0.311692 -0.297076
vn -0.902549 -0.311692 -0.297076
vn -0.902549 -0.311692 -0.297076
vn -0.919064 -0.365202 -0.148155
vn -0.919064 -0.365202 -0.148155
vn -0.919064 -0.365202 -0.148155
vn -0.162352 0.380591 -0.910380
vn -0.162352 0.380591 -0.910380
vn -0.162352 0.380591 -0.910380
vn -0.205639 0.851129 -0.483003
vn -0.205639 0.851129 -0.483003
vn -0.205639 0.851129 -0.483003
vn 0.066497 0.997743 0.009351
vn 0.066497 0.997743 0.009351
vn 0.066497 0.997743 0.009351
vn 0.080023 0.996253 -0.032808
vn 0.080023 0.996253 -0.032808
vn 0.080023 0.996253 -0.032808
vn 0.206790 0.971985 -0.111724
vn 0.206790 0.971985 -0.111724
vn 0.206790 0.971985 -0.111724
vn 0.058908 0.378257 -0.923825
vn 0.058908 0.378257 -0.923825
vn 0.058908 0.378257 -0.923825
vn 0.196365 0.683955 -0.702599
vn 0.196365 0.683955 -0.702600
vn 0.196365 0.683955 -0.702600
vn 0.099758 0.269604 -0.957790
vn 0.099758 0.269604 -0.957790
vn 0.099758 0.269604 -0.957790
vn 0.347370 0.079674 -0.934337
vn 0.347370 0.079674 -0.934337
vn 0.347370 0.079674 -0.934337
vn 0.490783 0.064144 -0.868917
vn 0.490783 0.064144 -0.868917
vn 0.490783 0.064144 -0.868917
vn 0.903848 0.173618 -0.391044
vn 0.903848 0.173618 -0.391044
vn 0.903848 0.173618 -0.391044
vn 0.953639 -0.164367 -0.252104
vn 0.953639 -0.164367 -0.252104
vn 0.953639 -0.164367 -0.252104
vn 0.467181 -0.212277 -0.858301
vn 0.467181 -0.212277 -0.858301
vn 0.467181 -0.212277 -0.858301
vn 0.088888 -0.281235 -0.955513
vn 0.088888 -0.281235 -0.955513
vn 0.088888 -0.281235 -0.955513
vn -0.332591 -0.800865 -0.497994
vn -0.332591 -0.800865 -0.497994
vn -0.332591 -0.800865 -0.497994
vn 0.240409 -0.329111 -0.913176
vn 0.240409 -0.329111 -0.913175
vn 0.240409 -0.329111 -0.913176
vn 0.275617 -0.162439 -0.947443
vn 0.275617 -0.162439 -0.947443
vn 0.275617 -0.162439 -0.947443
vn 0.281063 -0.760274 -0.585651
vn 0.281063 -0.760274 -0.585651
vn 0.281063 -0.760274 -0.585651
vn 0.331241 -0.729786 -0.598073
vn 0.331241 -0.729786 -0.598073
vn 0.331241 -0.729786 -0.598073
vn -0.577603 -0.290009 0.763066
vn -0.577603 -0.290009 0.763066
vn -0.577603 -0.290009 0.763066
vn -0.335638 -0.352421 0.873583
vn -0.335638 -0.352420 0.873583
vn -0.335638 -0.352420 0.873583
vn 0.843040 -0.452678 0.290457
vn 0.843040 -0.452678 0.290457
vn 0.843040 -0.452678 0.290457
vn 0.466925 -0.728395 0.501419
vn 0.466925 -0.728395 0.501419
vn 0.466925 -0.728395 0.501419
vn 0.957032 -0.165841 0.237881
vn 0.957032 -0.165841 0.237881
vn 0.957032 -0.165841 0.237881
vn 0.171341 -0.254646 0.951734
vn 0.171341 -0.254646 0.951734
vn 0.171341 -0.254646 0.951734
vn -0.062546 0.965148 0.254120
vn -0.062546 0.965148 0.254120
vn -0.062546 0.965148 0.254120
vn -0.512949 0.316209 0.798057
vn -0.512949 0.316210 0.798057
vn -0.512949 0.316210 0.798057
vn 0.915682 0.317224 0.246769
vn 0.915682 0.317224 0.246769
vn 0.915682 0.317224 0.246769
vn 0.491437 0.862356 0.121788
vn 0.491437 0.862356 0.121788
vn 0.491437 0.862356 0.121788
vn -0.672950 0.618696 -0.405405
vn -0.672950 0.618696 -0.405405
vn -0.672950 0.618696 -0.405405
vn 0.882253 0.276090 -0.381318
vn 0.882253 0.276090 -0.381318
vn 0.882253 0.276090 -0.381318
vn -0.253827 -0.214538 -0.943157
vn -0.253827 -0.214538 -0.943157
vn -0.253827 -0.214538 -0.943157
vn -0.449457 -0.338484 -0.826690
vn -0.449457 -0.338484 -0.826690
vn -0.449457 -0.338484 -0.826690
vn 0.961753 -0.206109 -0.180419
vn 0.961753 -0.206109 -0.180419
vn 0.961753 -0.206109 -0.180419
s off
f 12/1/1 22/2/2 21/3/3
f 17/4/4 2/5/5 21/3/6
f 2/5/7 12/1/8 21/3/9
f 18/6/10 24/7/11 13/8/12
f 23/9/13 37/10/14 25/12/15
f 25/12/16 37/10/17 47/11/18
f 24/7/19 23/9/20 25/12/21
f 32/13/22 35/14/23 31/15/24
f 35/14/25 40/16/26 45/17/27
f 31/15/28 35/14/29 45/17/30
f 35/14/31 10/18/32 39/19/33
f 35/14/34 39/19/35 40/16/36
f 40/16/37 26/20/38 45/17/39
f 33/21/40 3/22/41 15/23/42
f 3/22/43 14/24/44 15/23/45
f 15/23/46 14/24/47 1/25/48
f 33/21/49 15/23/50 4/26/51
f 36/27/52 38/28/53 16/29/54
f 27/30/55 28/31/56 29/32/57
f 27/30/58 43/33/59 28/31/60
f 29/32/61 28/31/62 5/34/63
f 41/35/64 29/32/65 5/34/66
f 21/3/67 6/36/68 17/4/69
f 6/36/70 26/20/71 17/4/72
f 6/36/73 45/17/74 26/20/75
f 17/4/76 26/20/77 19/37/78
f 2/5/79 17/4/80 19/37/81
f 6/36/82 21/3/83 30/38/84
f 30/38/85 21/3/86 22/2/87
f 13/8/88 30/38/89 18/6/90
f 45/17/91 13/8/92 31/15/93
f 13/8/94 24/7/95 31/15/96
f 31/15/97 25/12/98 32/13/99
f 31/15/100 24/7/101 25/12/102
f 32/13/103 25/12/104 47/11/105
f 22/2/106 12/1/107 7/39/108
f 7/39/109 12/1/110 52/40/111
f 4/26/112 7/39/113 33/21/114
f 18/6/115 46/41/116 34/42/117
f 18/6/118 34/42/119 24/7/120
f 46/41/121 4/26/122 34/42/123
f 34/42/124 4/26/125 1/25/126
f 4/26/127 15/23/128 1/25/129
f 24/7/130 34/42/131 23/9/132
f 34/42/133 1/25/134 48/43/135
f 23/9/136 34/42/137 37/10/138
f 37/10/139 34/42/140 48/43/141
f 32/13/142 8/44/143 35/14/144
f 8/44/145 16/29/146 20/45/147
f 35/14/148 8/44/149 20/45/150
f 35/14/151 20/45/152 10/18/153
f 16/29/154 47/11/155 36/27/156
f 47/11/157 37/10/158 36/27/159
f 36/27/160 37/10/161 48/43/162
f 36/27/163 48/43/164 38/28/165
f 9/46/166 1/25/167 14/24/168
f 9/46/169 14/24/170 11/47/171
f 38/28/172 9/46/173 11/47/174
f 40/16/175 39/19/176 51/48/177
f 10/18/178 41/35/179 39/19/180
f 39/19/181 41/35/182 5/34/183
f 39/19/184 5/34/185 51/48/186
f 5/34/187 44/49/188 51/48/189
f 5/34/190 28/31/191 44/49/192
f 40/16/193 19/37/194 26/20/195
f 40/16/196 51/48/197 19/37/198
f 41/35/199 42/50/200 29/32/201
f 41/35/202 20/45/203 42/50/204
f 20/45/205 38/28/206 42/50/207
f 20/45/208 16/29/209 38/28/210
f 42/50/211 38/28/212 11/47/213
f 29/32/214 42/50/215 49/51/216
f 49/51/217 42/50/218 11/47/219
f 29/32/220 49/51/221 27/30/222
f 27/30/223 49/51/224 43/33/225
f 49/51/226 3/22/227 43/33/228
f 49/51/229 14/24/230 3/22/231
f 52/40/232 3/22/233 33/21/234
f 43/33/235 3/22/236 52/40/237
f 43/33/238 52/40/239 28/31/240
f 19/37/241 50/52/242 2/5/243
f 50/52/244 44/49/245 52/40/246
f 44/49/247 28/31/248 52/40/249
f 2/5/250 50/52/251 12/1/252
f 12/1/253 50/52/254 52/40/255
f 13/8/256 45/17/257 6/36/258
f 30/38/259 13/8/260 6/36/261
f 22/2/262 7/39/263 46/41/264
f 30/38/265 22/2/266 46/41/267
f 4/26/268 46/41/269 7/39/270
f 18/6/271 30/38/272 46/41/273
f 16/29/274 8/44/275 47/11/276
f 32/13/277 47/11/278 8/44/279
f 1/25/280 9/46/281 48/43/282
f 38/28/283 48/43/284 9/46/285
f 10/18/286 20/45/287 41/35/288
f 14/24/289 49/51/290 11/47/291
f 19/37/292 51/48/293 50/52/294
f 44/49/295 50/52/296 51/48/297
f 33/21/298 7/39/299 52/40/300
