# Blender v2.78 (sub 0) OBJ File: ''
# www.blender.org
mtllib SM_Env_Rock_08.mtl
o SM_Env_Rock_08
v -25.590454 0.477915 26.378021
v 11.248474 -3.142160 31.148527
v -22.664673 14.492975 23.452211
v 10.161438 22.332096 28.222721
v -14.718201 37.165321 16.714178
v -7.684937 42.771942 14.592079
v -13.804565 42.771942 11.831245
v 8.141113 37.143284 -23.764429
v 8.655823 31.806267 -25.149776
v -18.206360 29.158672 -19.956905
v -19.591675 16.250759 -21.342253
v -29.092957 -11.201328 8.775694
v 10.151306 -11.201328 8.775694
v -22.637329 -11.201330 23.424894
v 10.151306 -11.201330 28.195433
v 29.120300 36.167175 8.786261
v 25.202820 33.213181 19.685764
v 32.046021 5.299929 9.919190
v 25.682373 26.400209 23.931858
v 28.128540 5.299926 26.378021
v -32.046021 0.477918 9.919189
v -29.120300 10.826229 8.786318
v -17.950317 16.421259 20.825563
v 9.019714 22.701956 25.149784
v -16.565002 29.246185 19.440159
v 8.505005 32.470058 18.993870
v 9.797607 31.411289 -28.222775
v 10.884583 1.719988 -31.148529
v -22.664673 14.297359 -24.415251
v -25.590454 -3.142151 -27.341005
v 22.129822 31.848156 20.379276
v 26.047302 35.830635 7.596381
v 20.744446 37.164780 18.993872
v 24.661926 39.208984 7.059881
v -22.653625 14.613466 8.805850
v -21.031494 27.368004 8.269383
v 23.713806 32.025600 21.963261
v 6.869507 42.771942 14.592079
v 16.342651 42.771942 14.592079
v 6.869507 42.771942 5.355415
v 20.260132 42.771942 5.355415
v 20.744446 37.077267 -19.956903
v 22.129822 31.677658 -21.342251
v 25.202820 31.996773 -24.415249
v 28.128540 -3.142151 -27.341005
v 25.175415 -11.201330 23.424894
v 29.092957 -11.201328 8.775694
v 23.064941 30.790913 23.452213
v 16.342651 42.771942 -15.555107
v 6.505676 42.771946 -19.362635
v -5.241333 42.771942 -15.555107
v -13.804565 42.771942 -8.779502
v -13.804565 42.771942 5.355415
v 9.787415 -11.201323 -28.195406
v -22.637329 -11.201323 -24.387911
v 25.175415 -11.201323 -24.387911
v -15.871216 36.380589 -17.621729
vt 0.9467 0.4995
vt 0.9467 0.4995
vt 0.9467 0.4995
vt 0.9467 0.4995
vt 0.9467 0.4995
vt 0.9467 0.4995
vt 0.9467 0.4995
vt 0.9467 0.4995
vt 0.9467 0.4995
vt 0.9467 0.4995
vt 0.9467 0.4995
vt 0.9467 0.4995
vt 0.9467 0.4995
vt 0.9467 0.4995
vt 0.9467 0.4995
vt 0.9467 0.4995
vt 0.9467 0.4995
vt 0.9467 0.4995
vt 0.9467 0.4995
vt 0.9467 0.4995
vt 0.9467 0.4995
vt 0.9467 0.4995
vt 0.9467 0.4995
vt 0.9467 0.4995
vt 0.9467 0.4995
vt 0.9467 0.4995
vt 0.9467 0.4995
vt 0.9467 0.4995
vt 0.9467 0.4995
vt 0.9467 0.4995
vt 0.9467 0.4995
vt 0.9467 0.4995
vt 0.9467 0.4995
vt 0.9467 0.4995
vt 0.9467 0.4995
vt 0.9467 0.4995
vt 0.9467 0.4995
vt 0.9467 0.4995
vt 0.9467 0.4995
vt 0.9467 0.4995
vt 0.9467 0.4995
vt 0.9467 0.4995
vt 0.9467 0.4995
vt 0.9467 0.4995
vt 0.9467 0.4995
vt 0.9467 0.4995
vt 0.9467 0.4995
vt 0.9467 0.4995
vt 0.9467 0.4995
vt 0.9467 0.4995
vt 0.9467 0.4995
vt 0.9467 0.4995
vt 0.9467 0.4995
vt 0.9467 0.4995
vt 0.9467 0.4995
vt 0.9467 0.4995
vt 0.9467 0.4995
vn -0.1035 0.2239 0.9691
vn -0.1676 0.1054 0.9802
vn -0.3117 0.6524 0.6908
vn -0.2064 0.2271 -0.9517
vn -0.2002 0.1258 -0.9716
vn 0.0000 -1.0000 -0.0000
vn 0.9272 0.1011 0.3607
vn 0.9688 0.1766 0.1740
vn 0.9635 0.1383 0.2293
vn -0.8909 0.2901 0.3494
vn -0.9062 0.2589 0.3342
vn -0.1854 0.1253 0.9746
vn -0.0531 0.5304 0.8461
vn -0.0614 0.5298 0.8459
vn -0.0574 0.5301 0.8460
vn -0.1631 0.0908 -0.9824
vn -0.1264 0.1847 -0.9746
vn 0.8720 0.3231 0.3679
vn 0.8471 0.4025 0.3470
vn -0.9296 0.1327 0.3438
vn -0.9286 0.1351 0.3457
vn -0.9285 0.1352 0.3457
vn -0.9274 0.1377 0.3477
vn -0.4725 0.8772 -0.0852
vn -0.4914 0.8218 -0.2882
vn -0.2573 0.9391 0.2276
vn -0.2533 0.9448 0.2078
vn 0.6266 0.4435 0.6409
vn 0.6265 0.4435 0.6409
vn -0.5054 0.8629 0.0064
vn -0.5054 0.8629 0.0067
vn -0.5054 0.8629 0.0065
vn -0.3751 0.9270 0.0073
vn 0.0000 1.0000 0.0000
vn 0.2800 0.2664 -0.9223
vn 0.2619 0.3023 -0.9165
vn -0.0509 0.9973 0.0526
vn 0.0412 0.9928 -0.1123
vn 0.2349 0.1038 -0.9665
vn 0.2405 0.1009 -0.9654
vn 0.2361 0.1032 -0.9662
vn 0.2414 0.1005 -0.9652
vn 0.2137 0.1205 0.9694
vn 0.2042 0.2258 0.9525
vn 0.2300 0.1383 0.9633
vn -0.4555 0.8479 0.2713
vn -0.4991 0.7613 0.4138
vn -0.4185 0.8120 0.4067
vn -0.0618 0.5298 0.8459
vn -0.0881 0.2296 0.9693
vn -0.9881 0.1217 -0.0937
vn -0.9888 0.1171 -0.0920
vn -0.9883 0.1207 -0.0934
vn -0.9890 0.1160 -0.0916
vn -0.5267 0.8499 -0.0136
vn -0.5053 0.8629 -0.0045
vn -0.9635 0.1928 -0.1857
vn -0.9544 0.2524 -0.1592
vn 0.9878 0.0889 -0.1277
vn 0.9878 0.0908 -0.1263
vn 0.9878 0.0891 -0.1276
vn 0.9878 0.0926 -0.1249
vn -0.0563 0.9893 -0.1344
vn -0.2001 0.9748 -0.0988
vn 0.9218 0.3524 -0.1615
vn 0.9435 0.2853 -0.1687
vn -0.9053 0.4247 0.0000
vn -0.8976 0.3635 0.2494
vn -0.8984 0.3149 0.3062
vn -0.9081 0.4138 -0.0646
vn -0.9515 0.3077 0.0000
vn 0.2113 0.6948 -0.6875
vn 0.2772 0.6406 -0.7161
vn 0.6526 0.7478 -0.1223
vn 0.7186 0.6773 -0.1576
vn 0.6044 0.7282 0.3231
vn 0.5548 0.7980 0.2353
vn 0.0000 0.3929 0.9196
vn -0.1944 0.5068 0.8399
vn -0.0257 0.3307 0.9434
vn -0.0160 0.3715 0.9283
vn -0.3468 0.9053 0.2453
vn -0.3672 0.9141 0.1723
vn -0.1814 0.9637 0.1960
vn 0.6266 0.4435 0.6408
vn -0.3810 0.7893 -0.4815
vn -0.2414 0.3683 -0.8978
vn -0.2152 0.6056 -0.7661
vn -0.2580 0.5475 -0.7960
vn -0.1502 -0.2779 0.9488
vn -0.1362 -0.3245 0.9360
vn -0.8847 -0.3114 0.3470
vn -0.8833 -0.2614 0.3892
vn 0.9510 -0.2107 0.2264
vn 0.9489 -0.1874 0.2538
vn 0.3684 -0.2273 0.9015
vn 0.2819 -0.3637 0.8878
vn -0.0728 -0.2163 -0.9736
vn -0.1080 -0.3767 -0.9200
vn -0.9626 -0.2292 -0.1445
vn -0.9018 -0.3948 -0.1756
vn 0.1468 -0.2322 -0.9615
vn 0.2195 -0.4056 -0.8873
vn 0.9831 -0.1715 -0.0645
vn 0.9199 -0.3769 -0.1087
usemtl None
s 1
f 1/1/1 2/2/1 3/3/1
f 3/3/2 2/2/2 4/4/2
f 5/5/3 6/6/3 7/7/3
f 8/8/4 9/9/4 10/10/4
f 10/10/5 9/9/5 11/11/5
f 12/12/6 13/13/6 14/14/6
f 14/14/6 13/13/6 15/15/6
f 16/16/7 17/17/7 18/18/7
f 17/17/8 19/19/8 18/18/8
f 20/20/9 18/18/9 19/19/9
f 21/21/10 1/1/10 22/22/10
f 22/22/11 1/1/11 3/3/11
f 23/23/12 24/24/12 25/25/12
f 25/25/13 24/24/14 26/26/15
f 27/27/16 28/28/16 29/29/16
f 29/29/17 28/28/17 30/30/17
f 31/31/18 32/32/18 33/33/18
f 33/33/19 32/32/19 34/34/19
f 35/35/20 23/23/21 36/36/22
f 36/36/22 23/23/21 25/25/23
f 29/29/24 11/11/24 27/27/24
f 27/27/25 11/11/25 9/9/25
f 3/3/26 4/4/26 23/23/26
f 23/23/27 4/4/27 24/24/27
f 19/19/28 17/17/29 37/37/29
f 22/22/30 3/3/31 35/35/32
f 35/35/33 3/3/33 23/23/33
f 38/38/34 39/39/34 40/40/34
f 40/40/34 39/39/34 41/41/34
f 8/8/35 42/42/35 9/9/35
f 9/9/36 42/42/36 43/43/36
f 44/44/37 27/27/37 43/43/37
f 43/43/38 27/27/38 9/9/38
f 27/27/39 44/44/40 28/28/41
f 28/28/41 44/44/40 45/45/42
f 15/15/6 13/13/6 46/46/6
f 46/46/6 13/13/6 47/47/6
f 2/2/43 20/20/43 4/4/43
f 48/48/44 4/4/44 19/19/44
f 4/4/45 20/20/45 19/19/45
f 4/4/46 48/48/46 24/24/46
f 37/37/47 31/31/47 48/48/47
f 24/24/48 48/48/48 31/31/48
f 24/24/14 31/31/49 26/26/15
f 26/26/50 31/31/50 33/33/50
f 41/41/34 49/49/34 40/40/34
f 40/40/34 49/49/34 50/50/34
f 50/50/34 51/51/34 40/40/34
f 51/51/34 52/52/34 40/40/34
f 53/53/34 40/40/34 52/52/34
f 35/35/51 36/36/52 11/11/53
f 11/11/53 36/36/52 10/10/54
f 29/29/55 22/22/55 11/11/55
f 11/11/56 22/22/30 35/35/32
f 30/30/57 21/21/57 29/29/57
f 29/29/58 21/21/58 22/22/58
f 54/54/6 13/13/6 55/55/6
f 55/55/6 13/13/6 12/12/6
f 47/47/6 13/13/6 56/56/6
f 56/56/6 13/13/6 54/54/6
f 16/16/59 18/18/60 44/44/61
f 44/44/61 18/18/60 45/45/62
f 32/32/63 16/16/63 43/43/63
f 43/43/64 16/16/64 44/44/64
f 34/34/65 32/32/65 42/42/65
f 42/42/66 32/32/66 43/43/66
f 53/53/67 36/36/67 7/7/67
f 7/7/68 36/36/68 5/5/68
f 36/36/69 25/25/69 5/5/69
f 36/36/70 53/53/70 10/10/70
f 10/10/71 53/53/71 57/57/71
f 53/53/71 52/52/71 57/57/71
f 42/42/72 8/8/72 49/49/72
f 49/49/73 8/8/73 50/50/73
f 41/41/74 34/34/74 49/49/74
f 49/49/75 34/34/75 42/42/75
f 33/33/76 34/34/76 39/39/76
f 39/39/77 34/34/77 41/41/77
f 38/38/78 26/26/78 39/39/78
f 39/39/79 26/26/79 33/33/79
f 25/25/80 26/26/80 5/5/80
f 5/5/81 26/26/81 6/6/81
f 26/26/78 38/38/78 6/6/78
f 38/38/34 40/40/34 6/6/34
f 53/53/34 7/7/34 40/40/34
f 7/7/34 6/6/34 40/40/34
f 37/37/82 17/17/82 31/31/82
f 31/31/83 17/17/83 32/32/83
f 17/17/84 16/16/84 32/32/84
f 37/37/29 48/48/85 19/19/28
f 52/52/86 51/51/86 57/57/86
f 10/10/87 57/57/87 8/8/87
f 57/57/88 51/51/88 8/8/88
f 51/51/89 50/50/89 8/8/89
f 1/1/90 14/14/90 2/2/90
f 2/2/91 14/14/91 15/15/91
f 1/1/92 21/21/92 14/14/92
f 14/14/93 21/21/93 12/12/93
f 20/20/94 46/46/94 18/18/94
f 18/18/95 46/46/95 47/47/95
f 20/20/96 2/2/96 46/46/96
f 46/46/97 2/2/97 15/15/97
f 28/28/98 54/54/98 30/30/98
f 30/30/99 54/54/99 55/55/99
f 21/21/100 30/30/100 12/12/100
f 12/12/101 30/30/101 55/55/101
f 28/28/102 45/45/102 54/54/102
f 54/54/103 45/45/103 56/56/103
f 18/18/104 47/47/104 45/45/104
f 45/45/105 47/47/105 56/56/105
