# Blender v2.78 (sub 0) OBJ File: ''
# www.blender.org
mtllib SM_Env_Plant_03.mtl
o SM_Env_Plant_03
v 27.124611 28.402092 -4.233701
v 25.291494 26.100632 -3.072874
v 33.280540 23.035244 -15.067148
v 34.129120 24.993214 -15.631086
v 20.147051 30.294846 -14.783212
v 18.313927 27.993385 -13.622381
v 24.612225 30.027729 -10.110473
v 19.540550 25.292336 -1.788168
v 8.804388 20.610962 -8.021159
v 12.833972 18.203949 -0.865816
v 15.085255 28.755192 -11.539277
v 7.851695 22.154678 -6.965311
v 11.881218 19.747667 0.189999
v 20.738895 28.037560 -2.308740
v 2.883765 8.365284 1.397541
v 2.701365 4.305192 -0.000002
v 2.261687 7.064891 -2.386104
v -18.165968 14.240685 29.542862
v -17.788841 11.469121 29.005341
v -5.108225 21.340300 22.210796
v -1.174955 20.589052 14.769532
v -9.992133 19.055626 17.892715
v -11.015465 22.250328 19.351303
v -15.714332 21.340302 14.769460
v -17.991459 13.673795 20.511620
v -10.055402 20.589052 8.538982
v 0.028371 19.836767 8.509335
v -1.913740 23.343838 15.822507
v -10.794127 23.343838 9.591896
v -5.188074 16.432255 2.364170
v -5.816607 14.334453 3.453145
v 0.547399 16.432255 5.674980
v -0.366816 10.428932 3.219007
v -2.875606 9.895979 1.646973
v -0.021510 8.632071 3.143443
v -3.036225 8.498281 1.817380
v 4.518061 25.432140 -29.666397
v 5.419217 26.591248 -21.344669
v 4.106198 16.380062 -33.516514
v -2.295850 13.884033 -39.407204
v -1.388748 11.441705 -38.256046
v -7.645083 22.501305 -26.300011
v -4.764837 24.137295 -18.525957
v -0.777827 22.000942 -26.855938
v -2.029684 24.557869 -29.152882
v 6.813993 24.003405 -11.962737
v -1.332471 22.253103 -10.013020
v -5.793949 26.405161 -20.269869
v -1.571350 24.199297 -9.264210
v 4.390105 28.859112 -23.088490
v 6.575113 25.949600 -11.213867
v 4.781748 14.334454 -6.251798
v -1.705989 16.432255 -4.422274
v 4.891279 16.432255 -4.999202
v -0.394109 8.219936 -3.072080
v -0.793451 9.983648 -2.602900
v -22.962122 30.182732 -13.536147
v -21.462523 27.429140 -13.119764
v -36.074974 27.568333 -11.238117
v -36.584946 29.712955 -11.349093
v -25.802664 31.887852 -1.183617
v -24.303057 29.134254 -0.767206
v -25.294006 31.969238 -7.631715
v -17.023336 25.306366 -9.778405
v -11.726067 20.610960 2.086976
v -11.316813 18.203949 -6.114796
v -20.534304 28.955139 0.285650
v -10.356990 22.154676 1.702273
v -9.947676 19.747669 -6.499468
v -17.545692 28.281794 -10.120962
v -3.957226 8.906086 -2.337181
v -3.208148 6.569750 -1.729929
v -3.564252 9.780312 0.876318
v -3.378157 7.348846 0.589815
v 22.270485 25.432133 20.113079
v 14.828821 26.591240 16.280956
v 25.710619 16.380053 21.890259
v 32.693207 11.441690 19.915123
v 28.988808 14.957792 12.412704
v 34.153587 13.884018 19.792141
v 26.161205 22.501297 8.107414
v 18.086458 24.137291 6.228781
v 22.842236 22.000937 14.144990
v 25.448841 24.557863 14.365548
v 6.230324 24.003401 12.276807
v 9.090797 22.253101 4.403871
v 20.108734 26.405155 6.330482
v 8.597431 24.199295 3.791881
v 16.851099 28.859104 16.382721
v 5.736959 25.949596 11.664907
v 2.583570 14.334452 7.434735
v 4.630540 16.432255 1.012242
v 1.477866 16.432255 6.836120
v 1.035553 6.911124 2.958577
v 2.639775 9.983647 0.774181
v 0.000000 4.305192 2.701391
v 1.837970 4.305192 1.837945
v 0.000000 9.983647 -0.000001
v 2.484476 9.983648 -3.035887
v 0.000000 4.305193 -2.701396
v 1.837970 4.305192 -1.837913
v 2.218349 -6.739455 -0.000004
v 0.000000 -6.739455 -0.000004
v 1.509309 -6.739455 -1.509279
v 0.000000 -6.739455 -2.218346
v -2.701425 4.305192 -0.000002
v 0.000000 1.935506 3.632958
v 2.471789 1.935506 2.471755
v 3.632957 1.935506 -0.000003
v 2.471789 1.935507 -2.471726
v 0.000000 1.935507 -3.632988
v -3.632957 1.935506 -0.000003
v -2.471727 1.935507 -2.471726
v -1.837969 4.305192 -1.837913
v 1.271062 10.487204 3.792647
v -1.837969 4.305192 1.837945
v -2.471727 1.935506 2.471755
v -1.509309 -6.739455 -1.509279
v -2.218349 -6.739455 -0.000004
v 0.000000 -6.739457 2.218315
v 1.509309 -6.739457 1.509283
v -1.509309 -6.739457 1.509283
vt 0.0902 0.9393
vt 0.0902 0.9393
vt 0.0902 0.9393
vt 0.0902 0.9393
vt 0.0902 0.9393
vt 0.0902 0.9393
vt 0.0902 0.9393
vt 0.0902 0.9393
vt 0.0902 0.9393
vt 0.0902 0.9393
vt 0.0902 0.9393
vt 0.0902 0.9393
vt 0.0902 0.9393
vt 0.0902 0.9393
vt 0.0902 0.9393
vt 0.0902 0.9393
vt 0.0902 0.9393
vt 0.0902 0.9393
vt 0.0902 0.9393
vt 0.0902 0.9393
vt 0.0902 0.9393
vt 0.0902 0.9393
vt 0.0902 0.9393
vt 0.0902 0.9393
vt 0.0902 0.9393
vt 0.0902 0.9393
vt 0.0902 0.9393
vt 0.0902 0.9393
vt 0.0902 0.9393
vt 0.0902 0.9393
vt 0.0902 0.9393
vt 0.0902 0.9393
vt 0.0902 0.9393
vt 0.0902 0.9393
vt 0.0902 0.9393
vt 0.0902 0.9393
vt 0.0902 0.9393
vt 0.0902 0.9393
vt 0.0902 0.9393
vt 0.0902 0.9393
vt 0.0902 0.9393
vt 0.0902 0.9393
vt 0.0902 0.9393
vt 0.0902 0.9393
vt 0.0902 0.9393
vt 0.0902 0.9393
vt 0.0902 0.9393
vt 0.0902 0.9393
vt 0.0902 0.9393
vt 0.0902 0.9393
vt 0.0902 0.9393
vt 0.0902 0.9393
vt 0.0902 0.9393
vt 0.0902 0.9393
vt 0.0902 0.9393
vt 0.0902 0.9393
vt 0.0902 0.9393
vt 0.0902 0.9393
vt 0.0902 0.9393
vt 0.0902 0.9393
vt 0.0902 0.9393
vt 0.0902 0.9393
vt 0.0902 0.9393
vt 0.0902 0.9393
vt 0.0902 0.9393
vt 0.0902 0.9393
vt 0.0902 0.9393
vt 0.0902 0.9393
vt 0.0902 0.9393
vt 0.0902 0.9393
vt 0.0902 0.9393
vt 0.0902 0.9393
vt 0.0902 0.9393
vt 0.0902 0.9393
vt 0.0902 0.9393
vt 0.0902 0.9393
vt 0.0902 0.9393
vt 0.0902 0.9393
vt 0.0902 0.9393
vt 0.0902 0.9393
vt 0.0902 0.9393
vt 0.0902 0.9393
vt 0.0902 0.9393
vt 0.0902 0.9393
vt 0.0902 0.9393
vt 0.0902 0.9393
vt 0.0902 0.9393
vt 0.0902 0.9393
vt 0.0902 0.9393
vt 0.0902 0.9393
vt 0.0902 0.9393
vt 0.0902 0.9393
vt 0.0902 0.9393
vt 0.0902 0.9393
vt 0.0902 0.9393
vt 0.0902 0.9393
vt 0.0902 0.9393
vt 0.0902 0.9393
vt 0.0902 0.9393
vt 0.0902 0.9393
vt 0.0902 0.9393
vt 0.0902 0.9393
vt 0.0902 0.9393
vt 0.0902 0.9393
vt 0.0902 0.9393
vt 0.0902 0.9393
vt 0.0902 0.9393
vt 0.0902 0.9393
vt 0.0902 0.9393
vt 0.0902 0.9393
vt 0.0902 0.9393
vt 0.0902 0.9393
vt 0.0902 0.9393
vt 0.0902 0.9393
vt 0.0902 0.9393
vt 0.0902 0.9393
vt 0.0902 0.9393
vt 0.0902 0.9393
vt 0.0902 0.9393
vt 0.0902 0.9393
vt 0.0902 0.9393
vt 0.0902 0.9393
vn 0.7538 -0.3075 0.5807
vn -0.1409 -0.2171 -0.9659
vn -0.1938 -0.3143 -0.9293
vn -0.3112 -0.9497 0.0354
vn 0.3283 0.9076 -0.2618
vn 0.4833 0.8748 0.0354
vn 0.8097 -0.1911 0.5548
vn 0.5023 -0.8303 -0.2416
vn 0.5787 -0.6169 -0.5334
vn -0.5337 0.0469 -0.8444
vn -0.6199 0.1449 -0.7712
vn -0.4006 0.7763 0.4867
vn -0.5631 0.7225 0.4011
vn 0.4397 -0.3061 0.8444
vn 0.1731 0.1100 0.9787
vn 0.4695 -0.2824 0.8366
vn 0.4867 -0.3038 0.8190
vn 0.2042 0.0956 0.9742
vn 0.2654 0.2573 0.9292
vn 0.0225 0.9660 0.2576
vn -0.1556 0.9729 0.1709
vn -0.1601 0.9649 0.2081
vn -0.5410 0.0067 -0.8410
vn 0.0849 -0.9695 -0.2301
vn -0.7161 0.4317 0.5485
vn -0.7861 0.6127 -0.0814
vn 0.5253 -0.0926 0.8459
vn 0.6868 -0.5913 0.4227
vn -0.0722 -0.7994 -0.5964
vn -0.1392 0.8237 0.5497
vn -0.4695 0.8237 0.3179
vn -0.9649 0.2604 -0.0350
vn -0.9911 -0.1328 -0.0108
vn 0.4903 -0.8407 -0.2299
vn -0.0737 -0.9917 0.1050
vn 0.9668 0.1973 0.1621
vn 0.2543 0.8966 -0.3625
vn 0.1930 0.7796 -0.5958
vn -0.7735 0.0345 -0.6329
vn -0.0462 -0.6489 0.7595
vn 0.3909 0.6234 -0.6772
vn -0.8046 -0.0653 -0.5902
vn 0.5203 -0.8422 -0.1416
vn -0.7352 0.0609 -0.6751
vn -0.7306 -0.2568 -0.6326
vn -0.2827 0.9539 0.1005
vn -0.0767 0.9910 0.1093
vn 0.0017 0.9539 0.3000
vn 0.8850 0.0609 0.4616
vn 0.1133 -0.9804 -0.1615
vn 0.4816 0.2680 -0.8344
vn 0.4726 0.2596 -0.8422
vn -0.3515 -0.4031 0.8450
vn -0.3527 -0.4043 0.8439
vn -0.3523 -0.4039 0.8442
vn -0.3531 -0.4046 0.8436
vn 0.8966 -0.1945 0.3978
vn 0.7190 0.1665 -0.6748
vn 0.9942 0.0006 -0.1077
vn -0.9125 -0.3927 -0.1142
vn -0.5806 -0.7263 0.3680
vn 0.6905 -0.5487 0.4712
vn -0.5264 0.5958 -0.6066
vn -0.1475 0.6871 -0.7114
vn 0.5818 0.2958 -0.7576
vn 0.6918 -0.0812 -0.7175
vn -0.0045 -0.7659 0.6430
vn 0.0768 -0.7335 0.6753
vn 0.1498 -0.9472 -0.2835
vn 0.1407 -0.9532 -0.2677
vn -0.9305 -0.1746 0.3220
vn -0.9184 -0.2352 0.3182
vn -0.1600 0.9542 0.2526
vn -0.1429 0.9549 0.2603
vn 0.9819 0.1597 -0.1019
vn 0.9300 0.3579 -0.0834
vn -0.1019 -0.4899 -0.8658
vn -0.9882 -0.0685 -0.1373
vn 0.0741 0.5266 0.8469
vn 0.0866 0.5339 0.8411
vn 0.9829 -0.1294 0.1307
vn 0.9607 0.0112 0.2774
vn 0.9382 0.3140 -0.1453
vn -0.1529 0.8752 -0.4589
vn -0.3040 0.8988 -0.3157
vn -0.4790 0.7966 -0.3687
vn -0.9198 -0.1337 0.3689
vn 0.3138 -0.8727 0.3740
vn -0.0249 -0.4445 -0.8954
vn 0.0207 -0.4750 -0.8798
vn -0.9443 -0.1945 -0.2656
vn -0.9721 -0.1800 -0.1506
vn -0.1267 -0.2154 -0.9683
vn -0.6680 -0.1208 0.7343
vn -0.6294 -0.2306 0.7421
vn 0.0084 -0.9903 0.1386
vn -0.1950 0.9808 -0.0030
vn -0.0837 0.9441 -0.3187
vn -0.1550 -0.0878 -0.9840
vn -0.5454 -0.8337 -0.0864
vn -0.8046 -0.5794 0.1299
vn -0.2717 -0.0798 0.9591
vn 0.0167 0.2278 0.9736
vn 0.5633 0.8000 -0.2067
vn 0.7035 0.6931 0.1572
vn 0.1454 -0.3588 -0.9220
vn 0.3968 -0.0359 -0.9172
vn 0.0885 -0.3140 -0.9453
vn 0.2934 -0.1513 -0.9439
vn 0.6058 0.0148 -0.7955
vn 0.5705 0.1898 -0.7991
vn 0.3951 0.9108 -0.1196
vn 0.4471 0.8917 0.0707
vn 0.4754 0.8784 0.0486
vn -0.2691 -0.0009 0.9631
vn -0.4444 -0.8956 0.0214
vn 0.8695 0.4839 -0.0986
vn 0.8872 0.4061 -0.2190
vn 0.2146 0.0527 0.9753
vn -0.0089 -0.1177 0.9930
vn -0.4577 0.0006 0.8891
vn 0.7010 -0.4471 -0.5557
vn 0.8176 -0.0219 -0.5754
vn 0.1115 -0.4607 -0.8805
vn -0.7453 -0.6643 0.0566
vn -0.7013 -0.6711 0.2402
vn 0.7962 0.5958 -0.1052
vn 0.6750 0.6871 0.2688
vn 0.3118 0.2958 0.9029
vn 0.2177 -0.0812 0.9726
vn -0.5341 -0.7659 -0.3580
vn -0.6059 -0.7335 -0.3080
vn 0.1541 -0.9472 0.2812
vn 0.1459 -0.9532 0.2649
vn 0.2438 -0.1747 -0.9540
vn 0.2403 -0.2352 -0.9418
vn -0.1227 0.9542 -0.2727
vn -0.1385 0.9549 -0.2626
vn -0.4558 0.1597 0.8756
vn -0.4427 0.3579 0.8222
vn 0.7787 -0.4899 0.3919
vn 0.6590 -0.0685 -0.7490
vn -0.7476 0.5266 -0.4047
vn -0.7497 0.5339 -0.3911
vn -0.6506 -0.1294 0.7483
vn -0.7607 0.0112 0.6490
vn -0.3956 0.3140 0.8631
vn 0.4672 0.8752 0.1252
vn 0.4310 0.8988 -0.0798
vn 0.5716 0.7966 -0.1967
vn 0.1988 -0.1337 -0.9709
vn -0.4850 -0.8727 0.0559
vn 0.7602 -0.4427 0.4755
vn 0.7569 -0.4455 0.4781
vn 0.7595 -0.4433 0.4760
vn 0.7558 -0.4464 0.4790
vn 0.7398 -0.1910 -0.6451
vn 0.6656 -0.1787 -0.7246
vn 0.0086 -0.1016 0.9948
vn 0.4117 -0.2501 0.8763
vn 0.0000 1.0000 0.0000
vn 0.2209 -0.0699 -0.9728
vn 0.4130 -0.2380 -0.8791
vn 0.0000 -1.0000 -0.0000
vn -0.9761 -0.2173 0.0014
vn 0.4006 0.3352 0.8527
vn 0.8527 0.3352 -0.4006
vn 0.4006 0.3352 -0.8527
vn -0.8527 0.3352 -0.4006
vn 0.9794 0.0756 -0.1870
vn 0.9956 -0.0850 -0.0406
vn -0.3256 -0.1021 0.9400
vn -0.1778 -0.2124 0.9609
vn -0.0530 0.9985 0.0162
vn -0.3310 0.9200 -0.2098
vn -0.4233 -0.0942 0.9011
vn -0.3962 -0.1087 0.9117
vn -0.4006 0.3352 0.8527
vn -0.4006 0.3352 -0.8527
vn -0.3669 -0.1242 -0.9219
vn -0.4158 -0.2094 -0.8850
vn -0.1561 0.2208 -0.9628
vn -0.2499 -0.3178 -0.9146
vn -0.8527 0.3352 0.4006
vn -0.8707 -0.2729 0.4091
vn -0.8526 -0.2414 0.4635
vn -0.9245 -0.1136 0.3639
vn -0.7477 0.1644 0.6434
vn -0.1153 0.9821 -0.1490
vn -0.0765 0.9938 -0.0808
vn 0.0389 0.9904 -0.1326
vn 0.0195 0.9876 -0.1559
vn 0.8897 -0.1838 0.4179
vn 0.6863 -0.0986 0.7207
vn 0.8527 0.3352 0.4006
vn 0.4207 -0.1460 -0.8954
vn 0.8954 -0.1460 -0.4206
vn -0.4207 -0.1460 -0.8954
vn -0.8954 -0.1460 -0.4207
vn -0.8954 -0.1460 -0.4206
vn 0.8954 -0.1460 0.4206
vn 0.4206 -0.1460 0.8954
vn -0.4207 -0.1460 0.8954
vn -0.4206 -0.1460 0.8954
vn -0.8954 -0.1460 0.4207
vn -0.8954 -0.1460 0.4206
vn -0.8006 -0.4665 -0.3761
vn -0.8558 0.2802 -0.4348
vn -0.8481 0.2645 -0.4591
vn -0.9327 -0.0225 0.3599
vn -0.7899 -0.2575 0.5566
vn -0.5620 -0.0362 -0.8263
vn -0.6840 -0.1640 -0.7108
vn -0.8351 -0.5371 0.1192
vn -0.8347 -0.5382 0.1169
vn -0.8349 -0.5375 0.1184
vn -0.8346 -0.5385 0.1164
vn 0.1255 0.2858 0.9500
vn 0.0841 0.2614 0.9616
vn 0.7498 0.0887 0.6557
vn 0.9140 -0.2421 0.3255
vn 0.7462 -0.5659 -0.3506
vn 0.6748 -0.4956 -0.5468
vn -0.7063 0.0473 -0.7064
vn -0.5489 -0.0810 -0.8320
usemtl None
s 1
f 1/1/1 2/2/1 3/3/1
f 4/4/2 3/3/2 5/5/2
f 5/5/3 3/3/3 6/6/3
f 3/3/4 2/2/4 6/6/4
f 5/5/5 7/7/5 4/4/5
f 4/4/6 7/7/6 1/1/6
f 1/1/7 3/3/7 4/4/7
f 6/6/8 8/8/8 9/9/8
f 9/9/9 8/8/9 10/10/9
f 6/6/10 9/9/10 11/11/10
f 11/11/11 9/9/11 12/12/11
f 12/12/12 13/13/12 11/11/12
f 14/14/13 11/11/13 13/13/13
f 10/10/14 8/8/14 13/13/14
f 13/13/15 8/8/15 14/14/15
f 13/13/16 15/15/16 10/10/16
f 10/10/17 15/15/17 16/16/17
f 8/8/18 2/2/18 14/14/18
f 14/14/19 2/2/19 1/1/19
f 1/1/20 7/7/20 14/14/20
f 14/14/21 7/7/21 11/11/21
f 11/11/22 7/7/22 5/5/22
f 5/5/23 6/6/23 11/11/23
f 6/6/24 2/2/24 8/8/24
f 12/12/25 17/17/25 13/13/25
f 13/13/26 17/17/26 15/15/26
f 18/18/27 19/19/27 20/20/27
f 20/20/28 19/19/28 21/21/28
f 19/19/29 22/22/29 21/21/29
f 20/20/30 23/23/30 18/18/30
f 18/18/31 23/23/31 24/24/31
f 24/24/32 25/25/32 18/18/32
f 18/18/33 25/25/33 19/19/33
f 25/25/34 22/22/34 19/19/34
f 21/21/35 26/26/35 27/27/35
f 28/28/36 21/21/36 27/27/36
f 27/27/37 29/29/37 28/28/37
f 29/29/38 27/27/38 30/30/38
f 30/30/39 26/26/39 29/29/39
f 27/27/40 26/26/40 31/31/40
f 30/30/41 27/27/41 32/32/41
f 30/30/42 31/31/42 26/26/42
f 26/26/43 22/22/43 25/25/43
f 29/29/44 26/26/44 24/24/44
f 24/24/45 26/26/45 25/25/45
f 24/24/46 23/23/46 29/29/46
f 29/29/47 23/23/47 28/28/47
f 28/28/48 23/23/48 20/20/48
f 20/20/49 21/21/49 28/28/49
f 21/21/50 22/22/50 26/26/50
f 32/32/51 33/33/51 30/30/51
f 30/30/52 33/33/52 34/34/52
f 27/27/53 31/31/54 35/35/55
f 35/35/55 31/31/54 36/36/56
f 27/27/57 35/35/57 32/32/57
f 32/32/58 35/35/58 33/33/58
f 37/37/59 38/38/59 39/39/59
f 40/40/60 41/41/60 42/42/60
f 42/42/61 41/41/61 43/43/61
f 41/41/62 44/44/62 43/43/62
f 42/42/63 45/45/63 40/40/63
f 40/40/64 45/45/64 37/37/64
f 37/37/65 39/39/65 40/40/65
f 40/40/66 39/39/66 41/41/66
f 38/38/67 44/44/67 39/39/67
f 39/39/68 44/44/68 41/41/68
f 38/38/69 46/46/69 43/43/69
f 43/43/70 46/46/70 47/47/70
f 48/48/71 43/43/71 49/49/71
f 49/49/72 43/43/72 47/47/72
f 49/49/73 50/50/73 48/48/73
f 50/50/74 49/49/74 51/51/74
f 46/46/75 38/38/75 51/51/75
f 51/51/76 38/38/76 50/50/76
f 47/47/77 46/46/77 52/52/77
f 49/49/78 47/47/78 53/53/78
f 53/53/79 54/54/79 49/49/79
f 51/51/80 49/49/80 54/54/80
f 52/52/81 46/46/81 54/54/81
f 54/54/82 46/46/82 51/51/82
f 50/50/83 38/38/83 37/37/83
f 37/37/84 45/45/84 50/50/84
f 50/50/85 45/45/85 48/48/85
f 48/48/86 45/45/86 42/42/86
f 42/42/87 43/43/87 48/48/87
f 43/43/88 44/44/88 38/38/88
f 47/47/89 52/52/89 55/55/89
f 55/55/90 52/52/90 17/17/90
f 47/47/91 55/55/91 53/53/91
f 53/53/92 55/55/92 56/56/92
f 57/57/93 58/58/93 59/59/93
f 60/60/94 59/59/94 61/61/94
f 61/61/95 59/59/95 62/62/95
f 59/59/96 58/58/96 62/62/96
f 61/61/97 63/63/97 60/60/97
f 60/60/98 63/63/98 57/57/98
f 57/57/99 59/59/99 60/60/99
f 62/62/100 64/64/100 65/65/100
f 65/65/101 64/64/101 66/66/101
f 62/62/102 65/65/102 67/67/102
f 67/67/103 65/65/103 68/68/103
f 68/68/104 69/69/104 67/67/104
f 70/70/105 67/67/105 69/69/105
f 66/66/106 64/64/106 69/69/106
f 69/69/107 64/64/107 70/70/107
f 69/69/108 71/71/108 66/66/108
f 66/66/109 71/71/109 72/72/109
f 64/64/110 58/58/110 70/70/110
f 70/70/111 58/58/111 57/57/111
f 57/57/112 63/63/112 70/70/112
f 70/70/113 63/63/113 67/67/113
f 67/67/114 63/63/114 61/61/114
f 61/61/115 62/62/115 67/67/115
f 62/62/116 58/58/116 64/64/116
f 68/68/117 73/73/117 69/69/117
f 69/69/118 73/73/118 71/71/118
f 68/68/119 65/65/119 73/73/119
f 73/73/120 65/65/120 74/74/120
f 75/75/121 76/76/121 77/77/121
f 78/78/122 79/79/122 80/80/122
f 80/80/123 79/79/123 81/81/123
f 81/81/124 79/79/124 82/82/124
f 78/78/125 83/83/125 79/79/125
f 79/79/126 83/83/126 82/82/126
f 81/81/127 84/84/127 80/80/127
f 80/80/128 84/84/128 75/75/128
f 75/75/129 77/77/129 80/80/129
f 80/80/130 77/77/130 78/78/130
f 76/76/131 83/83/131 77/77/131
f 77/77/132 83/83/132 78/78/132
f 76/76/133 85/85/133 82/82/133
f 82/82/134 85/85/134 86/86/134
f 87/87/135 82/82/135 88/88/135
f 88/88/136 82/82/136 86/86/136
f 88/88/137 89/89/137 87/87/137
f 89/89/138 88/88/138 90/90/138
f 85/85/139 76/76/139 90/90/139
f 90/90/140 76/76/140 89/89/140
f 86/86/141 85/85/141 91/91/141
f 88/88/142 86/86/142 92/92/142
f 92/92/143 93/93/143 88/88/143
f 90/90/144 88/88/144 93/93/144
f 91/91/145 85/85/145 93/93/145
f 93/93/146 85/85/146 90/90/146
f 89/89/147 76/76/147 75/75/147
f 75/75/148 84/84/148 89/89/148
f 89/89/149 84/84/149 87/87/149
f 87/87/150 84/84/150 81/81/150
f 81/81/151 82/82/151 87/87/151
f 82/82/152 83/83/152 76/76/152
f 86/86/153 91/91/154 15/15/155
f 15/15/155 91/91/154 94/94/156
f 86/86/157 15/15/157 92/92/157
f 92/92/158 15/15/158 95/95/158
f 35/35/159 96/96/159 94/94/159
f 94/94/160 96/96/160 97/97/160
f 56/56/161 98/98/161 99/99/161
f 99/99/161 98/98/161 95/95/161
f 55/55/162 17/17/162 100/100/162
f 100/100/163 17/17/163 101/101/163
f 102/102/164 103/103/164 104/104/164
f 104/104/164 103/103/164 105/105/164
f 72/72/165 106/106/165 74/74/165
f 107/107/166 108/108/166 96/96/166
f 96/96/166 108/108/166 97/97/166
f 109/109/167 110/110/167 16/16/167
f 16/16/167 110/110/167 101/101/167
f 111/111/168 100/100/168 110/110/168
f 110/110/168 100/100/168 101/101/168
f 112/112/169 106/106/169 113/113/169
f 113/113/169 106/106/169 114/114/169
f 15/15/170 17/17/170 95/95/170
f 95/95/171 17/17/171 99/99/171
f 33/33/172 35/35/172 115/115/172
f 115/115/173 35/35/173 94/94/173
f 98/98/174 56/56/174 73/73/174
f 73/73/175 56/56/175 71/71/175
f 96/96/176 35/35/176 116/116/176
f 116/116/177 35/35/177 36/36/177
f 107/107/178 96/96/178 117/117/178
f 117/117/178 96/96/178 116/116/178
f 105/105/164 103/103/164 118/118/164
f 118/118/164 103/103/164 119/119/164
f 114/114/179 100/100/179 113/113/179
f 113/113/179 100/100/179 111/111/179
f 55/55/180 100/100/180 72/72/180
f 72/72/181 100/100/181 114/114/181
f 56/56/182 55/55/182 71/71/182
f 71/71/183 55/55/183 72/72/183
f 120/120/164 103/103/164 121/121/164
f 121/121/164 103/103/164 102/102/164
f 119/119/164 103/103/164 122/122/164
f 122/122/164 103/103/164 120/120/164
f 112/112/184 117/117/184 106/106/184
f 106/106/184 117/117/184 116/116/184
f 106/106/185 116/116/185 74/74/185
f 74/74/186 116/116/186 36/36/186
f 74/74/187 36/36/187 73/73/187
f 73/73/188 36/36/188 34/34/188
f 33/33/189 98/98/189 34/34/189
f 34/34/190 98/98/190 73/73/190
f 98/98/191 33/33/191 95/95/191
f 95/95/192 33/33/192 115/115/192
f 16/16/193 15/15/193 97/97/193
f 97/97/194 15/15/194 94/94/194
f 109/109/195 16/16/195 108/108/195
f 108/108/195 16/16/195 97/97/195
f 111/111/196 110/110/196 105/105/196
f 105/105/196 110/110/196 104/104/196
f 109/109/197 102/102/197 110/110/197
f 110/110/197 102/102/197 104/104/197
f 111/111/198 105/105/198 113/113/198
f 113/113/198 105/105/198 118/118/198
f 112/112/199 113/113/199 119/119/199
f 119/119/199 113/113/199 118/118/200
f 109/109/201 108/108/201 102/102/201
f 102/102/201 108/108/201 121/121/201
f 107/107/202 120/120/202 108/108/202
f 108/108/202 120/120/202 121/121/202
f 107/107/203 117/117/204 120/120/204
f 120/120/204 117/117/204 122/122/204
f 112/112/205 119/119/206 117/117/205
f 117/117/205 119/119/206 122/122/206
f 114/114/207 106/106/207 72/72/207
f 95/95/208 115/115/208 92/92/208
f 92/92/209 115/115/209 93/93/209
f 94/94/210 91/91/210 115/115/210
f 115/115/211 91/91/211 93/93/211
f 36/36/212 31/31/212 34/34/212
f 34/34/213 31/31/213 30/30/213
f 72/72/214 74/74/215 66/66/216
f 66/66/216 74/74/215 65/65/217
f 56/56/218 99/99/218 53/53/218
f 53/53/219 99/99/219 54/54/219
f 17/17/220 52/52/220 99/99/220
f 99/99/221 52/52/221 54/54/221
f 16/16/222 101/101/222 10/10/222
f 10/10/223 101/101/223 9/9/223
f 12/12/224 9/9/224 17/17/224
f 17/17/225 9/9/225 101/101/225
