# Blender v2.78 (sub 0) OBJ File: ''
# www.blender.org
mtllib SM_Env_Cloud_02.mtl
o SM_Env_Cloud_02
v -392.920380 -8.216493 66.489014
v -359.705505 -31.933268 63.627193
v -355.102509 7.010756 81.774658
v -302.141418 -54.484802 22.146231
v -304.312622 51.318432 74.107674
v -399.016937 37.098389 28.366461
v -298.339081 62.012863 11.597911
v -372.734222 26.303701 -43.239498
v -416.261108 -5.749833 -48.587402
v -306.510376 11.669693 -77.964844
v -264.931396 -1.679643 -82.400391
v -354.026367 -51.532166 -17.069832
v -283.519531 -54.573185 -20.149179
v -354.784912 -61.416355 12.698477
v -418.094391 -32.256542 29.237543
v 406.775757 3.425479 37.625000
v 399.612000 -21.828995 7.206052
v 435.836975 28.541527 6.789556
v 388.896942 3.256145 -52.684570
v 405.738708 32.591110 -64.806389
v 416.069366 54.764145 -36.074944
v 370.148193 84.067894 -31.588610
v 385.317657 75.780167 26.599133
v -435.836975 -1.833329 16.058594
v 327.195801 73.975044 -66.886459
v 333.226593 29.618589 -75.221916
v 278.643982 22.506828 -79.016357
v 315.416748 -26.863297 -15.469243
v 287.796753 -27.963257 -77.939949
v 305.064911 -11.148742 66.965576
v 301.047485 -34.031101 18.455072
v 338.036682 -31.437124 38.939693
v 295.476471 47.922981 73.824715
v 353.009949 54.859497 60.807137
v 276.472443 40.814758 -55.892082
v 349.194275 82.419930 26.725599
v 244.065430 54.488560 -19.904776
v 204.770035 37.308186 -88.605705
v 265.917969 -11.953031 7.091307
v 261.774353 -22.117657 -96.217529
v 281.719666 -16.205166 99.686768
v 137.448517 31.403078 -116.398674
v 212.672607 23.819185 -110.725822
v 262.838287 -26.258921 98.438225
v 220.645676 -74.565308 -20.245129
v 209.382263 19.365183 134.424805
v 117.444847 70.022606 80.886238
v 206.089005 -47.169231 121.869377
v 192.284210 -73.634766 90.352036
v 159.697021 50.605461 -1.456535
v 81.311096 76.925934 -118.859116
v 130.292435 -31.722670 -134.424805
v 140.650085 -71.751305 -117.863297
v 170.785309 -109.385849 -42.754902
v 128.136780 -104.680756 -83.402603
v 46.910370 -63.949692 -72.887459
v 146.156494 -124.345131 44.004131
v 178.379410 -101.571808 3.976058
v 176.103333 -99.866722 47.874496
v 137.358551 -109.115845 77.759018
v 62.791870 -48.411522 99.482658
v 131.846863 -0.493850 110.220215
v 84.773499 109.774857 -59.737530
v 96.764160 94.196236 23.481216
v -0.038025 89.464729 2.248306
v 44.490311 88.233620 -103.047104
v 32.015320 30.678053 -133.032471
v -19.647736 26.461018 -121.087151
v 38.811356 -61.553223 -120.031013
v -58.216492 -20.450096 -105.720703
v 6.293671 -95.386711 26.646469
v 4.028793 -94.847382 -31.468277
v 67.084625 -86.186905 35.109848
v -24.114792 -53.527813 67.285393
v 62.957886 -69.339378 67.939445
v -69.058258 95.973671 3.545426
v -61.790649 39.914318 72.221931
v 60.538055 70.717461 51.869396
v -6.995071 -19.891232 84.329590
v -26.326492 94.499146 -60.817123
v -85.408226 100.876816 -97.071030
v -123.403358 78.894012 -116.641830
v -133.318115 39.407753 -126.738518
v -164.301743 -40.181149 -104.733650
v -176.019348 -55.890556 -91.944832
v -109.089912 -74.756737 38.754139
v -97.072304 -92.735435 -35.016861
v -149.431503 101.829414 64.606705
v -182.168716 90.726257 64.468033
v -189.453552 -11.564784 67.016602
v -137.226807 114.383400 -64.424789
v -124.609604 124.345131 -24.474344
v -244.669464 29.340141 -80.827141
v -228.884674 15.861529 -109.099854
v -169.334198 -77.479042 -34.251476
v -164.703278 -66.649452 24.465076
v -254.881699 -14.269827 79.631348
v -232.785553 36.622242 71.139412
v -197.765808 73.103539 -36.472645
v -255.142914 58.290184 -8.064688
v -260.582886 -77.524475 22.094469
v -250.879028 60.947750 33.818371
vt 0.4394 0.5267
vt 0.4394 0.5267
vt 0.4394 0.5267
vt 0.4394 0.5267
vt 0.4394 0.5267
vt 0.4394 0.5267
vt 0.4394 0.5267
vt 0.4394 0.5267
vt 0.4394 0.5267
vt 0.4394 0.5267
vt 0.4394 0.5267
vt 0.4394 0.5267
vt 0.4394 0.5267
vt 0.4394 0.5267
vt 0.4394 0.5267
vt 0.4394 0.5267
vt 0.4394 0.5267
vt 0.4394 0.5267
vt 0.4394 0.5267
vt 0.4394 0.5267
vt 0.4394 0.5267
vt 0.4394 0.5267
vt 0.4394 0.5267
vt 0.4394 0.5267
vt 0.4394 0.5267
vt 0.4394 0.5267
vt 0.4394 0.5267
vt 0.4394 0.5267
vt 0.4394 0.5267
vt 0.4394 0.5267
vt 0.4394 0.5267
vt 0.4394 0.5267
vt 0.4394 0.5267
vt 0.4394 0.5267
vt 0.4394 0.5267
vt 0.4394 0.5267
vt 0.4394 0.5267
vt 0.4394 0.5267
vt 0.4394 0.5267
vt 0.4394 0.5267
vt 0.4394 0.5267
vt 0.4394 0.5267
vt 0.4394 0.5267
vt 0.4394 0.5267
vt 0.4394 0.5267
vt 0.4394 0.5267
vt 0.4394 0.5267
vt 0.4394 0.5267
vt 0.4394 0.5267
vt 0.4394 0.5267
vt 0.4394 0.5267
vt 0.4394 0.5267
vt 0.4394 0.5267
vt 0.4394 0.5267
vt 0.4394 0.5267
vt 0.4394 0.5267
vt 0.4394 0.5267
vt 0.4394 0.5267
vt 0.4394 0.5267
vt 0.4394 0.5267
vt 0.4394 0.5267
vt 0.4394 0.5267
vt 0.4394 0.5267
vt 0.4394 0.5267
vt 0.4394 0.5267
vt 0.4394 0.5267
vt 0.4394 0.5267
vt 0.4394 0.5267
vt 0.4394 0.5267
vt 0.4394 0.5267
vt 0.4394 0.5267
vt 0.4394 0.5267
vt 0.4394 0.5267
vt 0.4394 0.5267
vt 0.4394 0.5267
vt 0.4394 0.5267
vt 0.4394 0.5267
vt 0.4394 0.5267
vt 0.4394 0.5267
vt 0.4394 0.5267
vt 0.4394 0.5267
vt 0.4394 0.5267
vt 0.4394 0.5267
vt 0.4394 0.5267
vt 0.4394 0.5267
vt 0.4394 0.5267
vt 0.4394 0.5267
vt 0.4394 0.5267
vt 0.4394 0.5267
vt 0.4394 0.5267
vt 0.4394 0.5267
vt 0.4394 0.5267
vt 0.4394 0.5267
vt 0.4394 0.5267
vt 0.4394 0.5267
vt 0.4394 0.5267
vt 0.4394 0.5267
vt 0.4394 0.5267
vt 0.4394 0.5267
vt 0.4394 0.5267
vt 0.4394 0.5267
vt 0.4394 0.5267
vn -0.2038 -0.3936 0.8964
vn 0.4141 -0.4242 0.8053
vn -0.4194 0.5989 0.6822
vn -0.2149 0.9659 0.1447
vn -0.2707 0.9323 -0.2399
vn -0.2967 0.5348 -0.7912
vn -0.1992 -0.3118 -0.9290
vn -0.1414 -0.6845 -0.7152
vn -0.0611 -0.7516 -0.6568
vn 0.0378 -0.9915 -0.1246
vn 0.0236 -0.8642 0.5026
vn -0.2681 -0.8448 0.4631
vn 0.7804 -0.5589 0.2802
vn 0.7451 -0.5705 -0.3455
vn 0.7548 -0.5459 -0.3637
vn 0.9211 0.0676 -0.3834
vn 0.3640 0.6695 -0.6475
vn 0.3701 0.6707 -0.6428
vn 0.3652 0.6697 -0.6466
vn 0.5698 0.2864 0.7703
vn 0.7012 0.7047 0.1077
vn -0.4679 -0.8351 -0.2892
vn -0.4676 -0.8352 -0.2895
vn -0.4668 -0.8353 -0.2904
vn -0.4623 -0.8360 -0.2956
vn -0.3917 -0.6296 0.6710
vn -0.7608 -0.1727 0.6256
vn -0.4904 0.7089 0.5070
vn -0.6129 0.3568 0.7050
vn -0.8026 -0.5587 -0.2092
vn -0.6649 0.7060 -0.2441
vn -0.5373 0.7823 -0.3152
vn 0.0434 0.1902 -0.9808
vn 0.3704 0.6708 -0.6426
vn 0.1312 0.2003 -0.9709
vn 0.1451 -0.4479 -0.8823
vn -0.0581 -0.7168 -0.6949
vn 0.0704 -0.0085 -0.9975
vn -0.1771 -0.8844 0.4318
vn 0.2545 -0.9624 -0.0956
vn 0.7507 -0.5771 -0.3217
vn 0.3594 -0.9321 -0.0447
vn 0.0682 -0.9158 -0.3958
vn 0.1135 -0.9903 -0.0796
vn 0.3023 -0.5671 0.7662
vn 0.3912 -0.7513 0.5316
vn 0.2690 -0.1060 0.9573
vn 0.2690 -0.1061 0.9573
vn 0.6000 0.2915 0.7450
vn -0.5388 0.8409 0.0507
vn 0.0474 0.7793 0.6249
vn 0.1450 0.7772 0.6123
vn -0.1953 0.9798 -0.0425
vn 0.1803 0.9793 0.0925
vn 0.5365 0.8437 -0.0197
vn 0.0842 0.9543 -0.2868
vn 0.2316 0.7732 -0.5904
vn -0.5363 0.6365 -0.5543
vn -0.9605 -0.1787 -0.2135
vn 0.9357 -0.3527 -0.0028
vn -0.4797 -0.8765 0.0416
vn -0.6008 -0.7987 0.0323
vn 0.5888 -0.7487 0.3044
vn 0.8078 0.0631 0.5861
vn 0.2952 0.9507 -0.0953
vn -0.5216 0.8527 0.0297
vn 0.1238 0.8663 -0.4840
vn 0.2311 0.8652 -0.4450
vn 0.4291 0.1790 -0.8853
vn 0.7742 -0.6327 -0.0177
vn 0.9605 -0.2781 -0.0112
vn 0.4728 -0.8729 -0.1208
vn 0.5096 0.2255 0.8303
vn 0.1238 0.8182 0.5615
vn 0.4649 -0.7677 0.4410
vn 0.4344 -0.8521 0.2917
vn 0.3473 -0.1905 0.9182
vn 0.1233 0.9924 0.0019
vn -0.1049 0.9546 -0.2789
vn -0.0875 0.9770 -0.1943
vn 0.2373 0.2418 -0.9409
vn 0.0989 0.2629 -0.9598
vn 0.2794 -0.0047 -0.9602
vn 0.2863 -0.3021 -0.9093
vn 0.4006 -0.7447 -0.5339
vn 0.4313 -0.7254 -0.5365
vn -0.3882 -0.5918 -0.7065
vn 0.6268 -0.7767 0.0627
vn 0.6254 -0.7778 0.0626
vn 0.6266 -0.7768 0.0627
vn 0.5256 -0.7157 0.4599
vn 0.6052 -0.7954 0.0347
vn 0.0419 -0.9865 -0.1582
vn 0.5572 -0.8290 0.0481
vn 0.6186 -0.7621 -0.1913
vn 0.4557 -0.8245 0.3356
vn 0.6243 -0.7787 0.0626
vn 0.5825 -0.8039 0.1201
vn 0.5065 -0.8064 0.3051
vn -0.1544 0.0011 0.9880
vn 0.3940 -0.7815 0.4837
vn -0.2545 -0.1671 0.9525
vn -0.3530 0.2970 0.8872
vn 0.8254 0.5644 -0.0133
vn 0.5825 0.6956 -0.4206
vn -0.1371 0.8943 0.4260
vn 0.4888 0.8401 -0.2350
vn 0.5968 0.7935 0.1191
vn -0.0201 0.9868 -0.1610
vn -0.2342 0.4886 -0.8405
vn -0.2139 0.4874 -0.8466
vn 0.1051 0.1873 -0.9767
vn -0.2842 -0.4284 -0.8577
vn 0.0072 -0.1391 -0.9903
vn -0.0989 -0.9945 -0.0336
vn -0.2078 -0.1496 -0.9667
vn -0.2080 -0.1497 -0.9666
vn -0.2079 -0.1497 -0.9666
vn -0.3875 -0.9216 0.0197
vn 0.1517 -0.9883 -0.0151
vn 0.3908 -0.8844 -0.2551
vn -0.1393 -0.7400 0.6580
vn 0.0694 -0.8840 0.4624
vn -0.1017 -0.7441 -0.6603
vn -0.4546 -0.8877 -0.0727
vn -0.4224 -0.9001 -0.1064
vn -0.4819 -0.8389 0.2529
vn -0.4375 -0.8212 0.3664
vn -0.0874 0.7672 0.6355
vn -0.2100 0.0055 0.9777
vn -0.2464 -0.6007 0.7606
vn -0.2464 -0.6007 0.7605
vn -0.4606 -0.7408 0.4890
vn -0.1319 -0.4737 0.8708
vn -0.0251 0.6185 0.7854
vn -0.1835 0.0443 0.9820
vn -0.4349 0.2687 0.8594
vn -0.3723 0.5947 -0.7126
vn 0.0956 0.9641 0.2476
vn -0.1363 0.9814 0.1351
vn -0.3258 0.6816 0.6552
vn -0.0907 0.9764 0.1959
vn -0.1245 0.9297 -0.3466
vn 0.0582 0.8712 -0.4875
vn 0.1897 0.4494 -0.8730
vn 0.0744 0.2295 -0.9705
vn 0.0108 -0.3192 -0.9476
vn 0.0435 -0.2819 -0.9584
vn 0.1195 -0.6789 -0.7244
vn -0.1506 -0.9659 0.2109
vn 0.1414 -0.7300 -0.6686
vn 0.0103 -0.7020 -0.7121
vn -0.0206 -0.9998 -0.0085
vn -0.0549 -0.7158 0.6962
vn -0.0309 0.0788 0.9964
vn 0.4568 0.7122 0.5330
vn 0.0334 0.2276 0.9732
vn -0.1047 -0.4066 0.9076
vn -0.1601 0.7962 -0.5835
vn 0.0830 0.9605 -0.2657
vn 0.2201 0.9567 -0.1904
vn 0.3026 0.9006 0.3120
vn 0.3558 0.9094 0.2154
vn 0.0946 0.9947 0.0400
vn 0.4600 0.6136 -0.6417
vn -0.4490 0.6792 -0.5805
vn -0.3858 0.3183 -0.8659
vn -0.2940 0.7886 -0.5401
vn -0.1246 -0.2190 -0.9677
vn -0.3606 -0.4780 -0.8009
vn -0.3474 -0.4224 -0.8372
vn -0.1988 -0.9252 -0.3232
vn -0.1898 -0.9628 0.1925
vn -0.1907 -0.9624 0.1933
vn -0.1905 -0.9625 0.1931
vn -0.2003 -0.9589 0.2011
vn 0.1800 -0.5494 0.8159
vn -0.1851 -0.5876 0.7877
vn 0.1131 0.0167 0.9934
vn -0.0930 0.0314 0.9952
vn -0.6012 0.7867 -0.1404
vn -0.5666 0.8221 -0.0560
vn -0.3182 0.9364 0.1480
vn -0.5709 0.8207 -0.0244
vn -0.0795 0.8553 -0.5120
vn -0.2697 0.8808 -0.3893
vn -0.6620 0.4623 -0.5900
vn -0.0742 0.0988 -0.9923
vn -0.4745 -0.8555 -0.2071
vn -0.2241 -0.9210 -0.3187
vn -0.2263 -0.9022 -0.3673
vn -0.4440 -0.6131 -0.6535
vn 0.1068 -0.9793 0.1722
vn 0.0583 -0.6746 0.7359
vn 0.0464 0.1185 0.9919
vn 0.1965 0.8623 0.4667
vn -0.2117 -0.7105 0.6711
vn 0.1854 0.0829 0.9792
vn 0.0688 0.1351 0.9884
vn -0.1166 0.8972 -0.4260
vn -0.0544 0.9851 0.1633
vn 0.0545 0.9961 -0.0688
vn -0.5279 0.5714 0.6284
vn -0.3906 0.9204 -0.0186
vn -0.3027 0.9457 -0.1183
vn -0.4057 0.8277 -0.3877
usemtl None
s 1
f 1/1/1 2/2/1 3/3/1
f 4/4/2 3/3/2 2/2/2
f 3/3/3 5/5/3 6/6/3
f 6/6/4 5/5/4 7/7/4
f 6/6/5 7/7/5 8/8/5
f 9/9/6 8/8/6 10/10/6
f 10/10/7 11/11/7 9/9/7
f 9/9/8 11/11/8 12/12/8
f 12/12/9 11/11/9 13/13/9
f 13/13/10 4/4/10 12/12/10
f 12/12/10 4/4/10 14/14/10
f 14/14/11 4/4/11 2/2/11
f 14/14/12 2/2/12 15/15/12
f 16/16/13 17/17/13 18/18/13
f 19/19/14 20/20/14 18/18/14
f 17/17/15 19/19/15 18/18/15
f 18/18/16 20/20/16 21/21/16
f 21/21/17 20/20/18 22/22/19
f 16/16/20 18/18/20 23/23/20
f 18/18/21 21/21/21 23/23/21
f 12/12/22 14/14/23 9/9/24
f 9/9/24 14/14/23 15/15/25
f 15/15/26 2/2/26 1/1/26
f 15/15/27 1/1/27 24/24/27
f 1/1/28 3/3/28 24/24/28
f 24/24/29 3/3/29 6/6/29
f 9/9/30 15/15/30 24/24/30
f 9/9/31 24/24/31 6/6/31
f 9/9/32 6/6/32 8/8/32
f 25/25/33 26/26/33 27/27/33
f 25/25/34 22/22/19 20/20/18
f 25/25/35 20/20/35 26/26/35
f 20/20/36 19/19/36 26/26/36
f 26/26/37 19/19/37 28/28/37
f 27/27/38 26/26/38 29/29/38
f 30/30/39 31/31/39 32/32/39
f 31/31/40 29/29/40 28/28/40
f 29/29/41 26/26/41 28/28/41
f 28/28/42 19/19/42 31/31/42
f 31/31/43 19/19/43 17/17/43
f 32/32/44 31/31/44 17/17/44
f 30/30/45 32/32/45 16/16/45
f 16/16/46 32/32/46 17/17/46
f 33/33/47 30/30/48 34/34/47
f 34/34/47 30/30/48 16/16/47
f 34/34/49 16/16/49 23/23/49
f 35/35/50 36/36/50 25/25/50
f 36/36/51 33/33/51 34/34/51
f 36/36/52 34/34/52 23/23/52
f 25/25/53 36/36/53 22/22/53
f 22/22/54 36/36/54 23/23/54
f 22/22/55 23/23/55 21/21/55
f 37/37/56 35/35/56 38/38/56
f 35/35/57 27/27/57 38/38/57
f 35/35/58 25/25/58 27/27/58
f 27/27/59 29/29/59 39/39/59
f 27/27/60 39/39/60 40/40/60
f 39/39/61 29/29/61 41/41/61
f 41/41/62 29/29/62 31/31/62
f 30/30/63 41/41/63 31/31/63
f 33/33/64 41/41/64 30/30/64
f 37/37/65 33/33/65 35/35/65
f 35/35/66 33/33/66 36/36/66
f 42/42/67 38/38/67 43/43/67
f 43/43/68 38/38/68 27/27/68
f 43/43/69 27/27/69 40/40/69
f 44/44/70 45/45/70 40/40/70
f 44/44/71 40/40/71 39/39/71
f 44/44/72 39/39/72 41/41/72
f 46/46/73 41/41/73 33/33/73
f 47/47/74 46/46/74 33/33/74
f 48/48/75 49/49/75 44/44/75
f 48/48/76 44/44/76 41/41/76
f 46/46/77 48/48/77 41/41/77
f 47/47/78 33/33/78 37/37/78
f 50/50/79 47/47/79 37/37/79
f 38/38/80 50/50/80 37/37/80
f 51/51/81 42/42/81 52/52/81
f 42/42/82 43/43/82 52/52/82
f 52/52/83 43/43/83 40/40/83
f 52/52/84 40/40/84 53/53/84
f 53/53/85 40/40/85 54/54/85
f 53/53/86 54/54/86 55/55/86
f 56/56/87 53/53/87 55/55/87
f 57/57/88 58/58/89 59/59/90
f 60/60/91 57/57/91 59/59/91
f 57/57/92 54/54/92 58/58/92
f 57/57/93 55/55/93 54/54/93
f 58/58/94 54/54/94 45/45/94
f 54/54/95 40/40/95 45/45/95
f 60/60/96 59/59/96 49/49/96
f 59/59/90 58/58/89 44/44/97
f 58/58/98 45/45/98 44/44/98
f 49/49/99 59/59/99 44/44/99
f 61/61/100 48/48/100 62/62/100
f 48/48/101 60/60/101 49/49/101
f 62/62/102 48/48/102 46/46/102
f 47/47/103 62/62/103 46/46/103
f 63/63/104 64/64/104 42/42/104
f 63/63/105 42/42/105 51/51/105
f 65/65/106 47/47/106 64/64/106
f 42/42/107 64/64/107 50/50/107
f 50/50/108 64/64/108 47/47/108
f 42/42/109 50/50/109 38/38/109
f 66/66/110 67/67/110 68/68/110
f 66/66/111 51/51/111 67/67/111
f 51/51/112 52/52/112 67/67/112
f 67/67/113 52/52/113 53/53/113
f 67/67/114 53/53/114 69/69/114
f 69/69/115 53/53/115 56/56/115
f 67/67/116 69/69/117 68/68/118
f 68/68/118 69/69/117 70/70/116
f 69/69/119 56/56/119 70/70/119
f 71/71/120 72/72/120 73/73/120
f 73/73/121 72/72/121 56/56/121
f 74/74/122 71/71/122 75/75/122
f 71/71/123 73/73/123 75/75/123
f 72/72/124 70/70/124 56/56/124
f 57/57/125 56/56/125 55/55/125
f 73/73/126 56/56/126 57/57/126
f 75/75/127 57/57/127 60/60/127
f 75/75/128 73/73/128 57/57/128
f 76/76/129 77/77/129 78/78/129
f 77/77/130 79/79/130 61/61/130
f 74/74/131 75/75/131 79/79/131
f 79/79/131 75/75/131 61/61/132
f 61/61/133 75/75/133 60/60/133
f 61/61/134 60/60/134 48/48/134
f 78/78/135 77/77/135 62/62/135
f 62/62/136 77/77/136 61/61/136
f 78/78/137 62/62/137 47/47/137
f 68/68/138 80/80/138 66/66/138
f 65/65/139 76/76/139 78/78/139
f 80/80/140 65/65/140 63/63/140
f 65/65/141 78/78/141 47/47/141
f 63/63/142 65/65/142 64/64/142
f 66/66/143 80/80/143 63/63/143
f 51/51/144 66/66/144 63/63/144
f 81/81/145 68/68/145 82/82/145
f 82/82/146 68/68/146 83/83/146
f 83/83/147 68/68/147 70/70/147
f 83/83/148 70/70/148 84/84/148
f 84/84/149 70/70/149 85/85/149
f 86/86/150 87/87/150 71/71/150
f 87/87/151 85/85/151 70/70/151
f 87/87/152 70/70/152 72/72/152
f 87/87/153 72/72/153 71/71/153
f 86/86/154 71/71/154 74/74/154
f 88/88/155 89/89/155 77/77/155
f 76/76/156 88/88/156 77/77/156
f 89/89/157 79/79/157 77/77/157
f 90/90/158 74/74/158 79/79/158
f 82/82/159 91/91/159 81/81/159
f 91/91/160 92/92/160 81/81/160
f 81/81/161 92/92/161 80/80/161
f 92/92/162 88/88/162 76/76/162
f 92/92/163 76/76/163 80/80/163
f 80/80/164 76/76/164 65/65/164
f 81/81/165 80/80/165 68/68/165
f 91/91/166 82/82/166 93/93/166
f 93/93/167 82/82/167 83/83/167
f 93/93/168 83/83/168 94/94/168
f 94/94/169 83/83/169 84/84/169
f 11/11/170 94/94/170 84/84/170
f 11/11/171 84/84/171 85/85/171
f 95/95/172 85/85/172 87/87/172
f 96/96/173 95/95/174 86/86/175
f 86/86/175 95/95/174 87/87/176
f 97/97/177 96/96/177 90/90/177
f 96/96/178 86/86/178 90/90/178
f 90/90/178 86/86/178 74/74/178
f 98/98/179 90/90/179 89/89/179
f 89/89/180 90/90/180 79/79/180
f 93/93/181 99/99/181 91/91/181
f 99/99/182 89/89/182 92/92/182
f 92/92/183 89/89/183 88/88/183
f 91/91/184 99/99/184 92/92/184
f 8/8/185 100/100/185 10/10/185
f 100/100/186 93/93/186 10/10/186
f 93/93/187 94/94/187 11/11/187
f 93/93/188 11/11/188 10/10/188
f 4/4/189 13/13/189 101/101/189
f 13/13/190 85/85/190 95/95/190
f 101/101/191 13/13/191 95/95/191
f 85/85/192 13/13/192 11/11/192
f 101/101/193 95/95/193 96/96/193
f 97/97/194 101/101/194 96/96/194
f 5/5/195 3/3/195 97/97/195
f 5/5/196 98/98/196 102/102/196
f 3/3/197 4/4/197 97/97/197
f 97/97/197 4/4/197 101/101/197
f 97/97/198 90/90/198 98/98/198
f 5/5/199 97/97/199 98/98/199
f 8/8/200 7/7/200 100/100/200
f 7/7/201 5/5/201 102/102/201
f 7/7/202 102/102/202 100/100/202
f 102/102/203 98/98/203 89/89/203
f 100/100/204 102/102/204 89/89/204
f 100/100/205 89/89/205 99/99/205
f 93/93/206 100/100/206 99/99/206
