# This file uses centimeters as units for non-parametric coordinates.

v -12.641357 38.612270 -0.375122
v -8.767090 38.595753 8.664124
v 3.718262 -12.818128 -6.063812
v -2.592285 -9.707599 -9.232147
v 9.808105 24.210321 -8.381134
v 5.746582 52.937740 -4.475037
v -10.083496 57.474148 0.572357
v 12.945557 -1.711934 -0.529114
v -1.346680 -16.562634 -1.056427
v -0.102783 76.088882 -4.105438
v -0.001465 83.372429 -0.217926
v 0.333252 -0.997307 -13.936737
v -9.927490 -0.418283 -9.677979
v 7.638184 33.332726 -7.214233
v -9.098145 37.788372 -8.528473
v -13.347900 -0.665055 -1.335480
v 10.793213 34.201000 2.566681
v 3.745117 71.672928 -3.277191
v -3.506348 76.917526 -0.446625
v 9.690918 10.989033 -9.086853
v 0.677246 -15.744573 -4.321930
v -8.547363 17.608780 9.805267
v 0.521240 76.504906 3.406708
v 6.427246 -4.036236 -10.953705
v -2.956055 -14.026633 -5.336548
v -8.304688 -9.159299 -3.302124
v -5.118896 -11.659242 2.735382
v 2.590088 -8.317630 7.074738
v -0.151367 35.065132 13.590332
v 8.699951 27.623959 11.197021
v 6.045166 66.531006 0.775696
v 1.296875 44.045925 -10.248322
v -7.994873 57.872646 6.115204
v 6.242920 50.286556 9.285278
v 13.349121 8.872795 0.400269
v -9.031250 -2.981004 -9.700256
v -0.478271 35.021732 -11.485382
v -0.331543 -14.539582 2.743927
v 8.573975 0.368620 9.947144
v 6.507324 -10.367215 2.478180
v -6.864746 61.463688 -5.205109
v -2.202393 57.867619 9.308014
v 7.972168 38.214539 10.737457
v 4.410889 67.102638 4.621216
v 11.724365 -3.047416 -4.065918
v -10.176514 0.315746 8.396454
v 0.325439 0.200506 13.053070
v 9.697266 9.240418 9.316528
v -0.185059 16.346760 -13.132782
v -13.332031 23.461838 -0.237946
v -8.589111 0.459319 9.968781
v 0.057373 25.335987 13.936798
vt 0.943115 0.502155
vt 0.943115 0.502155
vt 0.943115 0.502155
vt 0.943115 0.502157
vt 0.943115 0.502157
vt 0.943115 0.502155
vt 0.943115 0.502156
vt 0.943115 0.502155
vt 0.943115 0.502155
vt 0.943115 0.502157
vt 0.943115 0.502157
vt 0.943115 0.502157
vt 0.943115 0.502155
vt 0.943115 0.502157
vt 0.943115 0.502155
vt 0.943115 0.502155
vt 0.943115 0.502157
vt 0.943115 0.502155
vt 0.943115 0.502155
vt 0.943115 0.502157
vt 0.943115 0.502156
vt 0.943115 0.502155
vt 0.943115 0.502155
vt 0.943115 0.502159
vt 0.943115 0.502155
vt 0.943115 0.502155
vt 0.943115 0.502155
vt 0.943115 0.502157
vt 0.943115 0.502157
vt 0.943115 0.502157
vt 0.943115 0.502159
vt 0.943115 0.502159
vt 0.943115 0.502159
vt 0.943115 0.502159
vt 0.943115 0.502159
vt 0.943115 0.502159
vt 0.943115 0.502159
vt 0.943115 0.502159
vt 0.943115 0.502159
vt 0.943115 0.502159
vt 0.943115 0.502159
vt 0.943115 0.502159
vt 0.943115 0.502157
vt 0.943115 0.502157
vt 0.943115 0.502157
vt 0.943115 0.502155
vt 0.943115 0.502155
vt 0.943115 0.502157
vt 0.943115 0.502155
vt 0.943115 0.502157
vt 0.943115 0.502155
vt 0.943115 0.502159
vn 0.110323 -0.590499 -0.799462
vn 0.110323 -0.590499 -0.799462
vn 0.110323 -0.590499 -0.799462
vn 0.165758 -0.518292 -0.838986
vn 0.165758 -0.518292 -0.838986
vn 0.165758 -0.518292 -0.838986
vn 0.295596 0.190069 -0.936214
vn 0.295596 0.190069 -0.936214
vn 0.295596 0.190069 -0.936214
vn 0.912657 0.257675 -0.317270
vn 0.912657 0.257675 -0.317270
vn 0.912657 0.257675 -0.317270
vn 0.786082 -0.612813 -0.080834
vn 0.786082 -0.612813 -0.080834
vn 0.786082 -0.612813 -0.080834
vn 0.776160 -0.629813 -0.030179
vn 0.776160 -0.629813 -0.030179
vn 0.776160 -0.629813 -0.030179
vn -0.522987 -0.546162 -0.654364
vn -0.522987 -0.546162 -0.654364
vn -0.522987 -0.546162 -0.654364
vn -0.915063 0.038080 -0.401508
vn -0.915063 0.038080 -0.401508
vn -0.915063 0.038080 -0.401508
vn -0.899422 0.014336 0.436847
vn -0.899422 0.014336 0.436847
vn -0.899422 0.014336 0.436847
vn -0.918155 0.045420 0.393609
vn -0.918155 0.045420 0.393609
vn -0.918155 0.045420 0.393609
vn -0.289164 -0.539957 0.790462
vn -0.289164 -0.539957 0.790462
vn -0.289163 -0.539957 0.790462
vn -0.333337 -0.551765 0.764488
vn -0.333337 -0.551765 0.764488
vn -0.333337 -0.551765 0.764488
vn -0.453388 0.124955 0.882511
vn -0.453388 0.124955 0.882511
vn -0.453388 0.124955 0.882511
vn -0.489905 0.020525 0.871534
vn -0.489905 0.020525 0.871534
vn -0.489905 0.020525 0.871534
vn 0.309072 0.062419 0.948988
vn 0.309072 0.062419 0.948988
vn 0.309072 0.062419 0.948988
vn 0.426290 -0.069135 0.901941
vn 0.426290 -0.069135 0.901941
vn 0.426290 -0.069135 0.901941
vn 0.792258 -0.443829 0.418740
vn 0.792258 -0.443829 0.418740
vn 0.792258 -0.443829 0.418740
vn 0.955373 0.071901 0.286518
vn 0.955373 0.071901 0.286518
vn 0.955373 0.071901 0.286518
vn 0.953574 0.078150 0.290843
vn 0.953574 0.078150 0.290843
vn 0.953574 0.078150 0.290843
vn 0.921679 0.122008 -0.368269
vn 0.921679 0.122008 -0.368269
vn 0.921679 0.122008 -0.368269
vn 0.409066 0.189009 -0.892716
vn 0.409066 0.189009 -0.892716
vn 0.409066 0.189009 -0.892716
vn -0.220951 0.174308 -0.959582
vn -0.220951 0.174308 -0.959582
vn -0.220951 0.174308 -0.959582
vn -0.252946 0.157849 -0.954517
vn -0.252946 0.157849 -0.954517
vn -0.252946 0.157849 -0.954517
vn -0.903269 0.142817 -0.404610
vn -0.903269 0.142817 -0.404610
vn -0.903269 0.142817 -0.404610
vn -0.894234 0.318952 0.314029
vn -0.894234 0.318952 0.314029
vn -0.894235 0.318952 0.314029
vn -0.914055 0.104266 0.391959
vn -0.914055 0.104266 0.391959
vn -0.914055 0.104266 0.391959
vn 0.949514 0.154571 0.273004
vn 0.949514 0.154571 0.273004
vn 0.949514 0.154571 0.273004
vn 0.954413 0.166514 0.247728
vn 0.954413 0.166514 0.247728
vn 0.954413 0.166514 0.247728
vn 0.912268 0.198725 0.358157
vn 0.912268 0.198725 0.358157
vn 0.912268 0.198725 0.358157
vn 0.585462 0.375379 -0.718558
vn 0.585462 0.375379 -0.718558
vn 0.585462 0.375379 -0.718558
vn 0.722485 -0.492856 -0.484879
vn 0.722485 -0.492856 -0.484879
vn 0.722485 -0.492856 -0.484879
vn 0.933542 0.007039 -0.358400
vn 0.933541 0.007039 -0.358400
vn 0.933542 0.007039 -0.358400
vn -0.105173 -0.661155 -0.742841
vn -0.105173 -0.661155 -0.742841
vn -0.105173 -0.661155 -0.742841
vn -0.386346 -0.127172 -0.913545
vn -0.386346 -0.127172 -0.913545
vn -0.386346 -0.127172 -0.913545
vn -0.318276 -0.365537 -0.874690
vn -0.318276 -0.365537 -0.874690
vn -0.318276 -0.365537 -0.874690
vn 0.477754 0.084636 -0.874407
vn 0.477754 0.084636 -0.874407
vn 0.477754 0.084636 -0.874407
vn -0.686355 -0.560554 -0.463353
vn -0.686355 -0.560554 -0.463353
vn -0.686355 -0.560554 -0.463353
vn -0.878288 -0.303948 -0.369087
vn -0.878288 -0.303948 -0.369087
vn -0.878288 -0.303948 -0.369087
vn -0.845770 -0.428572 -0.317802
vn -0.845770 -0.428572 -0.317802
vn -0.845770 -0.428572 -0.317802
vn -0.314097 0.035362 -0.948732
vn -0.314097 0.035362 -0.948732
vn -0.314097 0.035362 -0.948732
vn -0.818439 -0.534656 0.210479
vn -0.818439 -0.534656 0.210479
vn -0.818439 -0.534656 0.210479
vn -0.741169 -0.660974 0.117401
vn -0.741169 -0.660974 0.117401
vn -0.741169 -0.660974 0.117402
vn -0.696376 -0.701061 -0.153538
vn -0.696376 -0.701061 -0.153538
vn -0.696376 -0.701061 -0.153538
vn -0.812181 -0.491563 0.314209
vn -0.812181 -0.491563 0.314209
vn -0.812181 -0.491563 0.314210
vn -0.443947 -0.736360 0.510573
vn -0.443947 -0.736360 0.510574
vn -0.443947 -0.736360 0.510574
vn -0.463738 0.043261 0.884916
vn -0.463738 0.043261 0.884916
vn -0.463738 0.043261 0.884916
vn 0.006442 -0.573311 0.819313
vn 0.006442 -0.573311 0.819313
vn 0.006442 -0.573311 0.819313
vn 0.351912 0.021959 0.935775
vn 0.351912 0.021959 0.935775
vn 0.351912 0.021959 0.935776
vn 0.316426 -0.487152 0.813977
vn 0.316426 -0.487152 0.813976
vn 0.316426 -0.487152 0.813976
vn 0.292234 0.040296 0.955498
vn 0.292234 0.040296 0.955498
vn 0.292234 0.040296 0.955498
vn 0.491134 -0.559200 0.667894
vn 0.491134 -0.559200 0.667894
vn 0.491134 -0.559200 0.667895
vn 0.417231 -0.642971 0.642267
vn 0.417231 -0.642971 0.642267
vn 0.417231 -0.642971 0.642267
vn 0.913072 -0.087292 0.398347
vn 0.913072 -0.087292 0.398347
vn 0.913072 -0.087292 0.398347
vn 0.922218 -0.068575 0.380542
vn 0.922218 -0.068575 0.380542
vn 0.922217 -0.068575 0.380542
vn 0.521489 -0.850075 0.073636
vn 0.521489 -0.850075 0.073636
vn 0.521489 -0.850075 0.073636
vn 0.974565 0.114807 -0.192463
vn 0.974565 0.114807 -0.192463
vn 0.974565 0.114807 -0.192463
vn 0.689041 0.119313 -0.714834
vn 0.689041 0.119313 -0.714834
vn 0.689041 0.119313 -0.714834
vn 0.939489 0.134659 -0.315005
vn 0.939489 0.134659 -0.315005
vn 0.939489 0.134659 -0.315005
vn 0.640195 0.166551 -0.749940
vn 0.640195 0.166551 -0.749940
vn 0.640195 0.166551 -0.749940
vn -0.902487 0.142206 -0.406565
vn -0.902487 0.142206 -0.406565
vn -0.902487 0.142206 -0.406565
vn -0.907025 0.290865 -0.304472
vn -0.907025 0.290865 -0.304472
vn -0.907025 0.290865 -0.304472
vn -0.934484 0.083204 0.346145
vn -0.934484 0.083204 0.346145
vn -0.934484 0.083204 0.346145
vn -0.478287 0.133924 0.867932
vn -0.478287 0.133924 0.867932
vn -0.478287 0.133924 0.867932
vn -0.721955 0.371321 0.583868
vn -0.721955 0.371321 0.583868
vn -0.721955 0.371321 0.583868
vn 0.257608 0.284206 0.923507
vn 0.257608 0.284206 0.923507
vn 0.257608 0.284206 0.923507
vn 0.307773 0.246045 0.919096
vn 0.307773 0.246045 0.919096
vn 0.307773 0.246045 0.919096
vn -0.455709 0.328546 0.827277
vn -0.455709 0.328546 0.827277
vn -0.455709 0.328546 0.827277
vn 0.273935 0.153449 0.949428
vn 0.273935 0.153449 0.949428
vn 0.273935 0.153449 0.949428
vn 0.927713 0.116601 -0.354616
vn 0.927713 0.116601 -0.354616
vn 0.927713 0.116601 -0.354616
vn -0.544008 0.358899 0.758450
vn -0.544008 0.358899 0.758450
vn -0.544008 0.358899 0.758450
vn 0.795618 -0.098552 -0.597729
vn 0.795618 -0.098552 -0.597729
vn 0.795618 -0.098552 -0.597729
vn 0.159391 -0.510064 -0.845239
vn 0.159391 -0.510064 -0.845239
vn 0.159391 -0.510064 -0.845239
vn -0.950300 -0.013524 0.311041
vn -0.950300 -0.013524 0.311041
vn -0.950300 -0.013524 0.311041
vn -0.569435 -0.535388 0.623782
vn -0.569435 -0.535388 0.623782
vn -0.569435 -0.535388 0.623782
vn 0.946100 -0.007642 -0.323785
vn 0.946100 -0.007642 -0.323785
vn 0.946100 -0.007642 -0.323785
vn 0.470130 0.028447 -0.882138
vn 0.470130 0.028447 -0.882138
vn 0.470131 0.028447 -0.882138
vn -0.266241 0.182127 -0.946544
vn -0.266241 0.182127 -0.946544
vn -0.266241 0.182127 -0.946544
vn 0.179571 0.197152 0.963787
vn 0.179571 0.197152 0.963787
vn 0.179571 0.197152 0.963787
vn 0.738262 -0.639512 0.214462
vn 0.738262 -0.639512 0.214462
vn 0.738262 -0.639512 0.214462
vn 0.645983 -0.731848 0.217034
vn 0.645983 -0.731848 0.217034
vn 0.645983 -0.731848 0.217034
vn -0.297497 -0.866244 -0.401393
vn -0.297497 -0.866244 -0.401393
vn -0.297497 -0.866244 -0.401393
vn -0.637012 0.369848 -0.676335
vn -0.637012 0.369848 -0.676335
vn -0.637012 0.369848 -0.676335
vn -0.645256 0.349417 -0.679376
vn -0.645256 0.349417 -0.679376
vn -0.645256 0.349417 -0.679376
vn 0.883646 0.336463 0.325519
vn 0.883646 0.336463 0.325519
vn 0.883646 0.336463 0.325519
vn 0.708739 0.370730 0.600207
vn 0.708739 0.370730 0.600207
vn 0.708739 0.370730 0.600207
vn 0.937209 0.329795 -0.113462
vn 0.937209 0.329795 -0.113462
vn 0.937209 0.329795 -0.113462
vn 0.925496 0.011482 0.378584
vn 0.925496 0.011482 0.378584
vn 0.925496 0.011482 0.378584
vn 0.933791 0.010814 -0.357655
vn 0.933791 0.010814 -0.357655
vn 0.933791 0.010814 -0.357655
vn 0.460919 0.054831 -0.885747
vn 0.460919 0.054831 -0.885747
vn 0.460919 0.054831 -0.885746
vn 0.399663 0.045327 -0.915541
vn 0.399663 0.045327 -0.915541
vn 0.399663 0.045327 -0.915541
vn 0.392367 0.029000 -0.919352
vn 0.392367 0.029000 -0.919352
vn 0.392367 0.029000 -0.919352
vn -0.441104 0.071988 -0.894565
vn -0.441103 0.071988 -0.894565
vn -0.441103 0.071988 -0.894564
vn -0.381644 0.031415 -0.923775
vn -0.381644 0.031415 -0.923775
vn -0.381644 0.031415 -0.923775
vn -0.911521 0.032122 -0.409996
vn -0.911521 0.032122 -0.409996
vn -0.911521 0.032122 -0.409996
vn -0.925290 0.017842 -0.378840
vn -0.925290 0.017842 -0.378840
vn -0.925290 0.017842 -0.378840
vn -0.704087 0.008484 0.710063
vn -0.704087 0.008484 0.710063
vn -0.704087 0.008484 0.710063
vn -0.890843 0.047113 0.451862
vn -0.890843 0.047113 0.451862
vn -0.890843 0.047113 0.451862
vn -0.326697 0.009806 0.945078
vn -0.326697 0.009806 0.945078
vn -0.326697 0.009806 0.945078
vn -0.405772 -0.036436 0.913248
vn -0.405772 -0.036436 0.913248
vn -0.405772 -0.036436 0.913248
vn 0.309288 -0.030119 0.950491
vn 0.309288 -0.030119 0.950491
vn 0.309288 -0.030119 0.950491
s off
f 21/1/1 4/2/2 3/3/3
f 24/4/4 3/3/5 4/2/6
f 49/5/7 14/6/8 5/7/9
f 14/6/10 17/8/11 5/7/12
f 40/9/13 3/3/14 8/10/15
f 8/10/16 3/3/17 45/11/18
f 36/12/19 4/2/20 25/13/21
f 50/14/22 1/15/23 15/16/24
f 22/17/25 2/18/26 50/14/27
f 50/14/28 2/18/29 1/15/30
f 38/19/31 47/20/32 51/21/33
f 38/19/34 51/21/35 27/22/36
f 29/23/37 42/24/38 2/18/39
f 52/25/40 29/23/41 2/18/42
f 30/26/43 43/27/44 29/23/45
f 47/20/46 48/28/47 30/26/48
f 39/29/49 40/9/50 8/10/51
f 35/30/52 17/8/53 30/26/54
f 17/8/55 43/27/56 30/26/57
f 18/31/58 31/32/59 6/33/60
f 32/34/61 10/35/62 18/31/63
f 41/36/64 10/35/65 32/34/66
f 15/16/67 41/36/68 32/34/69
f 1/15/70 7/37/71 41/36/72
f 33/38/73 19/39/74 7/37/75
f 1/15/76 2/18/77 7/37/78
f 17/8/79 31/32/80 34/40/81
f 43/27/82 17/8/83 34/40/84
f 34/40/85 31/32/86 44/41/87
f 11/42/88 18/31/89 10/35/90
f 24/4/91 45/11/92 3/3/93
f 45/11/94 20/43/95 35/30/96
f 4/2/97 21/1/98 25/13/99
f 12/44/100 36/12/101 13/45/102
f 12/44/103 4/2/104 36/12/105
f 49/5/106 37/46/107 14/6/108
f 36/12/109 25/13/110 26/47/111
f 13/45/112 36/12/113 16/48/114
f 36/12/115 26/47/116 16/48/117
f 37/46/118 13/45/119 15/16/120
f 16/48/121 26/47/122 27/22/123
f 27/22/124 26/47/125 9/49/126
f 9/49/127 26/47/128 25/13/129
f 46/50/130 16/48/131 27/22/132
f 38/19/133 27/22/134 9/49/135
f 22/17/136 52/25/137 2/18/138
f 47/20/139 38/19/140 28/51/141
f 47/20/142 39/29/143 48/28/144
f 39/29/145 47/20/146 28/51/147
f 52/25/148 30/26/149 29/23/150
f 39/29/151 28/51/152 40/9/153
f 40/9/154 28/51/155 38/19/156
f 48/28/157 39/29/158 8/10/159
f 48/28/160 8/10/161 35/30/162
f 40/9/163 38/19/164 3/3/165
f 35/30/166 5/7/167 17/8/168
f 6/33/169 32/34/170 18/31/171
f 14/6/172 6/33/173 17/8/174
f 6/33/175 14/6/176 32/34/177
f 15/16/178 1/15/179 41/36/180
f 41/36/181 7/37/182 19/39/183
f 2/18/184 33/38/185 7/37/186
f 2/18/187 42/24/188 33/38/189
f 33/38/190 11/42/191 19/39/192
f 42/24/193 34/40/194 44/41/195
f 42/24/196 44/41/197 23/52/198
f 33/38/199 42/24/200 23/52/201
f 34/40/202 29/23/203 43/27/204
f 31/32/205 17/8/206 6/33/207
f 11/42/208 33/38/209 23/52/210
f 45/11/211 24/4/212 20/43/213
f 24/4/214 4/2/215 12/44/216
f 16/48/217 46/50/218 50/14/219
f 27/22/220 51/21/221 46/50/222
f 8/10/223 45/11/224 35/30/225
f 32/34/226 14/6/227 37/46/228
f 15/16/229 32/34/230 37/46/231
f 34/40/232 42/24/233 29/23/234
f 3/3/235 38/19/236 21/1/237
f 21/1/238 38/19/239 9/49/240
f 25/13/241 21/1/242 9/49/243
f 19/39/244 11/42/245 10/35/246
f 19/39/247 10/35/248 41/36/249
f 31/32/250 11/42/251 44/41/252
f 44/41/253 11/42/254 23/52/255
f 31/32/256 18/31/257 11/42/258
f 48/28/259 35/30/260 30/26/261
f 5/7/262 35/30/263 20/43/264
f 12/44/265 49/5/266 24/4/267
f 49/5/268 5/7/269 20/43/270
f 24/4/271 49/5/272 20/43/273
f 13/45/274 37/46/275 49/5/276
f 13/45/277 49/5/278 12/44/279
f 13/45/280 50/14/281 15/16/282
f 16/48/283 50/14/284 13/45/285
f 46/50/286 51/21/287 22/17/288
f 46/50/289 22/17/290 50/14/291
f 47/20/292 22/17/293 51/21/294
f 47/20/295 52/25/296 22/17/297
f 52/25/298 47/20/299 30/26/300
