# Blender v2.78 (sub 0) OBJ File: ''
# www.blender.org
mtllib SM_Env_Bush_04.mtl
o SM_Env_Bush_04
v 16.979492 116.748222 39.985157
v -9.797852 121.724838 29.202475
v -18.432617 98.298737 45.689163
v 49.401367 100.034088 22.129107
v 22.398438 123.902328 18.974112
v -3.681641 129.458603 10.502127
v 20.614258 124.308746 4.569417
v -33.919922 107.334396 17.854816
v -20.117188 41.038742 -59.869865
v -45.953125 47.962086 -28.939169
v -18.436523 74.481979 -51.114979
v -40.177734 69.904282 -24.777241
v -44.437500 27.094978 -28.398096
v -54.351562 58.302082 -5.042318
v -39.787109 2.046528 -15.160217
v -50.240234 7.106861 16.680544
v -58.414062 37.863426 7.281348
v -29.148438 18.429329 42.563450
v -4.405273 12.498768 51.636448
v -27.387695 41.809170 45.191261
v 7.605469 45.786484 57.623482
v 9.254883 69.176834 53.866283
v -29.365234 82.227013 30.608656
v 10.221680 106.863251 -32.213360
v 58.413086 63.397095 -24.171558
v 1.627930 85.036110 -50.863388
v 20.098633 63.617073 -50.811512
v 51.965820 35.571915 -29.703819
v 1.777344 29.821705 -54.134453
v 19.358398 11.834885 -42.336849
v 27.627930 4.161591 -26.635801
v -25.340820 0.000000 13.976501
v 24.145508 3.884541 12.206666
v 46.412109 14.590294 20.662327
v 56.993164 76.698494 -3.845355
v 29.598633 48.777893 55.751930
v 35.693359 78.549461 35.584366
v -45.812500 80.129410 11.341597
v 4.637695 87.490150 59.869949
v -15.660156 121.623764 1.071309
v -57.235352 58.845276 14.109629
v -44.230469 5.578800 26.973116
v 53.509766 95.646744 9.685837
v -9.342773 75.110596 -57.005573
v -26.494141 15.318138 -46.484463
v 14.978516 10.059776 52.149387
v 25.048828 21.504326 56.897129
v -19.439453 2.668472 -41.062439
v 46.587891 9.352482 -17.840940
v 20.171875 70.004799 52.717693
v 53.553711 18.603714 -7.447415
v 29.490234 95.103645 48.782181
vt 0.8736 0.4118
vt 0.8736 0.4118
vt 0.8736 0.4118
vt 0.8736 0.4118
vt 0.8736 0.4118
vt 0.8736 0.4118
vt 0.8736 0.4118
vt 0.8736 0.4118
vt 0.8736 0.4118
vt 0.8736 0.4118
vt 0.8736 0.4118
vt 0.8736 0.4118
vt 0.8736 0.4118
vt 0.8736 0.4118
vt 0.8736 0.4118
vt 0.8736 0.4118
vt 0.8736 0.4118
vt 0.8736 0.4118
vt 0.8736 0.4118
vt 0.8736 0.4118
vt 0.8736 0.4118
vt 0.8736 0.4118
vt 0.8736 0.4118
vt 0.8736 0.4118
vt 0.8736 0.4118
vt 0.8736 0.4118
vt 0.8736 0.4118
vt 0.8736 0.4118
vt 0.8736 0.4118
vt 0.8736 0.4118
vt 0.8736 0.4118
vt 0.8736 0.4118
vt 0.8736 0.4118
vt 0.8736 0.4118
vt 0.8736 0.4118
vt 0.8736 0.4118
vt 0.8736 0.4118
vt 0.8736 0.4118
vt 0.8736 0.4118
vt 0.8736 0.4118
vt 0.8736 0.4118
vt 0.8736 0.4118
vt 0.8736 0.4118
vt 0.8736 0.4118
vt 0.8736 0.4118
vt 0.8736 0.4118
vt 0.8736 0.4118
vt 0.8736 0.4118
vt 0.8736 0.4118
vt 0.8736 0.4118
vt 0.8736 0.4118
vt 0.8736 0.4118
vn -0.1912 0.6057 0.7724
vn -0.1951 0.6116 0.7668
vn -0.1948 0.6111 0.7672
vn 0.5829 0.7114 0.3926
vn 0.0416 0.9425 0.3316
vn 0.0651 0.9144 0.3995
vn 0.2078 0.9782 0.0019
vn -0.5587 0.8149 0.1543
vn -0.6043 0.5954 0.5295
vn -0.7274 0.2078 -0.6541
vn -0.7592 0.3085 -0.5731
vn -0.7734 -0.0725 -0.6298
vn -0.9506 -0.0768 -0.3008
vn -0.8494 0.3052 -0.4306
vn -0.9183 -0.3043 -0.2531
vn -0.9106 -0.3214 -0.2597
vn -0.9337 -0.0296 -0.3568
vn -0.8203 0.4841 -0.3046
vn -0.3595 -0.0774 0.9299
vn -0.3292 -0.0508 0.9429
vn -0.3471 0.1725 0.9218
vn -0.4200 0.2897 0.8600
vn 0.5132 0.4317 -0.7418
vn 0.5139 0.4409 -0.7359
vn 0.5138 0.4400 -0.7365
vn 0.5139 0.4414 -0.7355
vn 0.4289 0.0795 -0.8998
vn 0.4464 -0.1431 -0.8833
vn 0.5557 -0.2225 -0.8011
vn 0.0178 -0.9967 -0.0789
vn 0.0783 -0.9969 -0.0001
vn 0.9063 0.0122 0.4224
vn 0.8743 0.1366 0.4659
vn -0.8167 0.2303 0.5292
vn -0.7512 -0.1010 0.6523
vn -0.5968 -0.2945 0.7464
vn -0.5681 -0.3822 0.7289
vn -0.1911 0.6056 0.7725
vn -0.7651 0.4976 -0.4088
vn -0.6599 0.6100 -0.4387
vn -0.5796 0.8126 0.0612
vn -0.7031 0.4491 0.5513
vn -0.8795 0.4531 -0.1453
vn -0.9830 0.1044 -0.1510
vn -0.8790 -0.1022 0.4657
vn -0.8659 -0.0792 0.4939
vn -0.6335 0.2350 0.7372
vn -0.7240 -0.0102 0.6897
vn -0.7077 -0.0261 0.7061
vn 0.6611 0.7479 -0.0608
vn 0.6330 0.6148 -0.4704
vn -0.4193 0.7050 -0.5720
vn -0.2296 0.6829 -0.6935
vn 0.2916 0.2492 -0.9235
vn 0.2116 0.0153 -0.9772
vn 0.2373 -0.0332 -0.9709
vn -0.0037 -0.4609 -0.8874
vn -0.5395 0.2385 -0.8075
vn -0.7490 -0.1501 -0.6453
vn -0.0625 -0.9468 0.3156
vn -0.1233 -0.8857 0.4476
vn -0.4011 -0.4776 0.7817
vn -0.0666 -0.3317 0.9410
vn -0.1365 -0.1274 0.9824
vn -0.2673 -0.9614 0.0650
vn -0.7672 -0.4052 -0.4972
vn -0.6365 -0.5752 -0.5138
vn 0.0315 -0.9995 0.0007
vn 0.1823 -0.8421 -0.5076
vn 0.5813 -0.4314 -0.6899
vn 0.4527 -0.6836 -0.5725
vn 0.0809 0.0283 0.9963
vn 0.0894 0.1798 0.9796
vn 0.0630 0.1540 0.9861
vn 0.5918 0.3655 0.7184
vn 0.5618 -0.6861 0.4622
vn 0.3529 -0.9090 0.2215
vn 0.0832 -0.9818 0.1709
vn 0.3907 -0.9119 0.1258
vn 0.2571 -0.9663 0.0162
vn 0.7419 -0.6639 0.0937
vn 0.9915 -0.0657 0.1122
vn 0.9691 -0.0720 0.2359
vn 0.9613 -0.1816 -0.2070
vn 0.9657 0.2429 -0.0915
vn 0.8477 -0.2468 0.4695
vn 0.2315 0.4781 0.8472
vn 0.4097 -0.0091 0.9122
vn 0.7731 -0.1922 0.6045
vn 0.8050 -0.1549 0.5727
vn 0.6018 0.5737 0.5557
vn -0.9059 0.4155 -0.0814
vn -0.0263 0.9061 -0.4223
vn 0.0053 0.7658 -0.6430
vn -0.3847 0.6950 -0.6074
vn -0.2728 -0.9619 0.0165
vn 0.0863 -0.4861 -0.8696
vn -0.0359 -0.4106 -0.9111
vn 0.8452 -0.1191 0.5210
vn 0.8936 -0.3239 -0.3107
vn 0.1215 -0.2814 0.9519
vn 0.6128 0.6146 -0.4967
vn 0.6645 0.7460 -0.0436
vn 0.9405 -0.0653 0.3335
usemtl None
s 1
f 1/1/1 2/2/2 3/3/3
f 1/1/4 4/4/4 5/5/4
f 2/2/5 1/1/5 5/5/5
f 2/2/6 5/5/6 6/6/6
f 5/5/7 7/7/7 6/6/7
f 2/2/8 6/6/8 8/8/8
f 3/3/9 2/2/9 8/8/9
f 9/9/10 10/10/10 11/11/10
f 11/11/11 10/10/11 12/12/11
f 9/9/12 13/13/12 10/10/12
f 10/10/13 13/13/13 14/14/13
f 12/12/14 10/10/14 14/14/14
f 13/13/15 15/15/15 16/16/15
f 13/13/16 16/16/16 17/17/16
f 14/14/17 13/13/17 17/17/17
f 12/12/18 14/14/18 8/8/18
f 18/18/19 19/19/19 20/20/19
f 19/19/20 21/21/20 20/20/20
f 20/20/21 21/21/21 22/22/21
f 20/20/22 22/22/22 23/23/22
f 24/24/23 25/25/24 26/26/25
f 25/25/24 27/27/26 26/26/25
f 25/25/27 28/28/27 29/29/27
f 28/28/28 30/30/28 29/29/28
f 25/25/29 29/29/29 27/27/29
f 15/15/30 31/31/30 32/32/30
f 32/32/31 31/31/31 33/33/31
f 34/34/32 35/35/32 36/36/32
f 35/35/33 37/37/33 36/36/33
f 8/8/34 38/38/34 3/3/34
f 3/3/35 38/38/35 23/23/35
f 3/3/36 23/23/36 39/39/36
f 23/23/37 22/22/37 39/39/37
f 3/3/3 39/39/38 1/1/1
f 8/8/39 40/40/39 11/11/39
f 12/12/40 8/8/40 11/11/40
f 8/8/41 6/6/41 40/40/41
f 38/38/42 41/41/42 23/23/42
f 38/38/43 14/14/43 41/41/43
f 41/41/44 14/14/44 17/17/44
f 41/41/45 17/17/45 42/42/45
f 42/42/46 17/17/46 16/16/46
f 23/23/47 41/41/47 20/20/47
f 41/41/48 42/42/48 20/20/48
f 20/20/49 42/42/49 18/18/49
f 7/7/50 5/5/50 43/43/50
f 25/25/51 24/24/51 7/7/51
f 24/24/52 44/44/52 11/11/52
f 24/24/53 26/26/53 44/44/53
f 26/26/54 27/27/54 44/44/54
f 44/44/55 27/27/55 9/9/55
f 9/9/56 27/27/56 29/29/56
f 9/9/57 29/29/57 45/45/57
f 11/11/58 44/44/58 9/9/58
f 9/9/59 45/45/59 13/13/59
f 42/42/60 32/32/60 46/46/60
f 42/42/61 46/46/61 19/19/61
f 18/18/62 42/42/62 19/19/62
f 19/19/63 46/46/63 47/47/63
f 19/19/64 47/47/64 21/21/64
f 32/32/65 16/16/65 15/15/65
f 15/15/66 13/13/66 45/45/66
f 15/15/67 45/45/67 48/48/67
f 15/15/68 48/48/68 31/31/68
f 48/48/69 30/30/69 31/31/69
f 49/49/70 30/30/70 28/28/70
f 31/31/71 30/30/71 49/49/71
f 21/21/72 47/47/72 36/36/72
f 36/36/73 50/50/73 22/22/73
f 21/21/74 36/36/74 22/22/74
f 36/36/75 37/37/75 50/50/75
f 47/47/76 46/46/76 34/34/76
f 46/46/77 33/33/77 34/34/77
f 46/46/78 32/32/78 33/33/78
f 34/34/79 33/33/79 49/49/79
f 33/33/80 31/31/80 49/49/80
f 34/34/81 49/49/81 51/51/81
f 51/51/82 25/25/82 35/35/82
f 34/34/83 51/51/83 35/35/83
f 51/51/84 28/28/84 25/25/84
f 35/35/85 25/25/85 43/43/85
f 37/37/86 35/35/86 4/4/86
f 39/39/87 52/52/87 1/1/87
f 39/39/88 50/50/88 52/52/88
f 52/52/89 50/50/89 37/37/89
f 52/52/90 37/37/90 4/4/90
f 1/1/91 52/52/91 4/4/91
f 14/14/92 38/38/92 8/8/92
f 7/7/93 24/24/93 40/40/93
f 6/6/94 7/7/94 40/40/94
f 11/11/95 40/40/95 24/24/95
f 32/32/96 42/42/96 16/16/96
f 29/29/97 30/30/97 48/48/97
f 29/29/98 48/48/98 45/45/98
f 36/36/99 47/47/99 34/34/99
f 51/51/100 49/49/100 28/28/100
f 22/22/101 50/50/101 39/39/101
f 25/25/102 7/7/102 43/43/102
f 5/5/103 4/4/103 43/43/103
f 35/35/104 43/43/104 4/4/104
