# This file uses centimeters as units for non-parametric coordinates.

v -25.590454 0.477920 26.378021
v 28.128540 5.299931 26.378021
v -25.590454 -3.142155 -27.341003
v 28.128540 -3.142155 -27.341003
v -22.664673 14.492979 23.452209
v 25.682373 26.400213 23.931854
v -22.664673 14.297355 -24.415253
v 25.202820 31.996769 -24.415253
v -14.718201 37.165325 16.714172
v 16.342651 42.771942 14.592072
v 16.342651 42.771942 -15.555115
v -15.871216 36.380585 -17.621735
v 22.129822 31.677654 -21.342255
v -19.591675 16.250755 -21.342255
v 22.129822 31.848160 20.379272
v -17.950317 16.421263 20.825562
v 6.869507 42.771942 14.592072
v 6.505676 42.771942 -19.362640
v 8.655823 31.806263 -25.149780
v 9.797607 31.411285 -28.222778
v 10.884583 1.719983 -31.148529
v 11.248474 -3.142155 31.148529
v 10.161438 22.332102 28.222717
v 9.019714 22.701960 25.149780
v 20.260132 42.771942 5.355408
v 6.869507 42.771942 5.355408
v -13.804565 42.771942 5.355408
v -22.653625 14.613467 8.805847
v -29.120300 10.826231 8.786316
v -32.046021 0.477920 9.919189
v 32.046021 5.299931 9.919189
v 29.120300 36.167175 8.786255
v 26.047302 35.830635 7.596375
v -16.565002 29.246187 19.440155
v -21.031494 27.368004 8.269379
v -18.206360 29.158669 -19.956909
v 8.141113 37.143280 -23.764435
v 20.744446 37.077263 -19.956909
v 24.661926 39.208984 7.059875
v 20.744446 37.164783 18.993866
v 8.505005 32.470062 18.993866
v -7.684937 42.771942 14.592072
v -13.804565 42.771942 11.831238
v 23.064941 30.790916 23.452209
v 23.713806 32.025604 21.963257
v 25.202820 33.213184 19.685760
v -5.241333 42.771942 -15.555115
v -13.804565 42.771942 -8.779510
v -29.092957 -11.201327 8.775696
v 10.151306 -11.201327 8.775696
v 10.151306 -11.201327 28.195435
v -22.637329 -11.201327 23.424896
v 29.092957 -11.201327 8.775696
v 25.175415 -11.201327 23.424896
v -22.637329 -11.201327 -24.387909
v 9.787415 -11.201327 -28.195404
v 25.175415 -11.201327 -24.387909
vt 0.946700 0.499520
vt 0.946700 0.499520
vt 0.946700 0.499520
vt 0.946700 0.499520
vt 0.946700 0.499520
vt 0.946700 0.499520
vt 0.946700 0.499520
vt 0.946700 0.499520
vt 0.946700 0.499520
vt 0.946700 0.499520
vt 0.946700 0.499520
vt 0.946700 0.499520
vt 0.946700 0.499520
vt 0.946700 0.499520
vt 0.946700 0.499520
vt 0.946700 0.499520
vt 0.946700 0.499520
vt 0.946700 0.499520
vt 0.946700 0.499520
vt 0.946700 0.499520
vt 0.946700 0.499520
vt 0.946700 0.499520
vt 0.946700 0.499520
vt 0.946700 0.499520
vt 0.946700 0.499520
vt 0.946700 0.499520
vt 0.946700 0.499520
vt 0.946700 0.499520
vt 0.946700 0.499520
vt 0.946700 0.499520
vt 0.946700 0.499520
vt 0.946700 0.499520
vt 0.946700 0.499520
vt 0.946700 0.499520
vt 0.946700 0.499520
vt 0.946700 0.499520
vt 0.946700 0.499520
vt 0.946700 0.499520
vt 0.946700 0.499520
vt 0.946700 0.499520
vt 0.946700 0.499520
vt 0.946700 0.499520
vt 0.946700 0.499520
vt 0.946700 0.499520
vt 0.946700 0.499520
vt 0.946700 0.499520
vt 0.946700 0.499520
vt 0.946700 0.499520
vt 0.946700 0.499520
vt 0.946700 0.499520
vt 0.946700 0.499520
vt 0.946700 0.499520
vt 0.946700 0.499520
vt 0.946700 0.499520
vt 0.946700 0.499520
vt 0.946700 0.499520
vt 0.946700 0.499520
vt 0.946700 0.499520
vt 0.946700 0.499520
vt 0.946700 0.499520
vt 0.946700 0.499520
vt 0.946700 0.499520
vt 0.946700 0.499520
vt 0.946700 0.499520
vt 0.946700 0.499520
vt 0.946700 0.499520
vt 0.946700 0.499520
vt 0.946700 0.499520
vt 0.946700 0.499520
vt 0.946700 0.499520
vt 0.946700 0.499520
vt 0.946700 0.499520
vt 0.946700 0.499520
vt 0.946700 0.499520
vt 0.946700 0.499520
vt 0.946700 0.499520
vn -0.103491 0.223916 0.969098
vn -0.103491 0.223916 0.969098
vn -0.103491 0.223916 0.969098
vn -0.167625 0.105426 0.980197
vn -0.167625 0.105426 0.980197
vn -0.167625 0.105426 0.980197
vn -0.311653 0.652426 0.690806
vn -0.311653 0.652426 0.690806
vn -0.311653 0.652426 0.690806
vn -0.206374 0.227144 -0.951743
vn -0.206374 0.227144 -0.951743
vn -0.206374 0.227144 -0.951743
vn -0.200230 0.125771 -0.971643
vn -0.200230 0.125771 -0.971643
vn -0.200230 0.125771 -0.971643
vn 0.000000 -1.000000 -0.000000
vn 0.000000 -1.000000 -0.000000
vn 0.000000 -1.000000 -0.000000
vn 0.000000 -1.000000 0.000000
vn 0.000000 -1.000000 0.000000
vn 0.000000 -1.000000 0.000000
vn 0.927200 0.101121 0.360658
vn 0.927200 0.101121 0.360658
vn 0.927200 0.101121 0.360658
vn 0.968778 0.176628 0.173990
vn 0.968778 0.176628 0.173990
vn 0.968778 0.176628 0.173990
vn 0.963477 0.138282 0.229324
vn 0.963477 0.138282 0.229324
vn 0.963477 0.138282 0.229324
vn -0.890907 0.290136 0.349436
vn -0.890907 0.290136 0.349436
vn -0.890907 0.290136 0.349436
vn -0.906244 0.258949 0.334168
vn -0.906244 0.258949 0.334168
vn -0.906244 0.258949 0.334168
vn -0.185450 0.125316 0.974630
vn -0.185450 0.125316 0.974630
vn -0.185450 0.125316 0.974630
vn -0.053146 0.530403 0.846078
vn -0.053146 0.530403 0.846078
vn -0.053146 0.530403 0.846078
vn -0.163116 0.090835 -0.982417
vn -0.163116 0.090835 -0.982417
vn -0.163116 0.090835 -0.982417
vn -0.126361 0.184710 -0.974636
vn -0.126361 0.184710 -0.974636
vn -0.126361 0.184710 -0.974636
vn 0.871951 0.323068 0.367871
vn 0.871950 0.323068 0.367871
vn 0.871950 0.323068 0.367871
vn 0.847106 0.402484 0.347014
vn 0.847106 0.402484 0.347014
vn 0.847106 0.402484 0.347014
vn -0.929620 0.132690 0.343803
vn -0.929620 0.132690 0.343803
vn -0.929620 0.132690 0.343803
vn -0.927445 0.137737 0.347669
vn -0.927445 0.137737 0.347669
vn -0.927445 0.137737 0.347669
vn -0.472459 0.877229 -0.085165
vn -0.472459 0.877229 -0.085165
vn -0.472459 0.877229 -0.085165
vn -0.491428 0.821843 -0.288224
vn -0.491428 0.821843 -0.288224
vn -0.491428 0.821843 -0.288224
vn -0.257345 0.939144 0.227559
vn -0.257345 0.939144 0.227559
vn -0.257345 0.939144 0.227559
vn -0.253343 0.944785 0.207843
vn -0.253343 0.944785 0.207843
vn -0.253343 0.944785 0.207843
vn 0.626528 0.443529 0.640894
vn 0.626528 0.443529 0.640894
vn 0.626528 0.443529 0.640894
vn -0.505368 0.862878 0.006717
vn -0.505368 0.862878 0.006717
vn -0.505368 0.862878 0.006717
vn -0.375062 0.926971 0.007343
vn -0.375062 0.926971 0.007343
vn -0.375062 0.926971 0.007343
vn 0.000000 1.000000 0.000000
vn 0.000000 1.000000 0.000000
vn 0.000000 1.000000 0.000000
vn 0.000000 1.000000 0.000000
vn 0.000000 1.000000 0.000000
vn 0.000000 1.000000 0.000000
vn 0.280023 0.266407 -0.922288
vn 0.280023 0.266407 -0.922288
vn 0.280023 0.266407 -0.922288
vn 0.261879 0.302337 -0.916522
vn 0.261879 0.302337 -0.916522
vn 0.261879 0.302337 -0.916522
vn -0.050916 0.997314 0.052651
vn -0.050916 0.997314 0.052651
vn -0.050916 0.997314 0.052651
vn 0.041210 0.992820 -0.112298
vn 0.041210 0.992820 -0.112298
vn 0.041210 0.992820 -0.112298
vn 0.234921 0.103833 -0.966453
vn 0.234921 0.103833 -0.966453
vn 0.234921 0.103833 -0.966453
vn 0.241447 0.100468 -0.965199
vn 0.241447 0.100468 -0.965199
vn 0.241447 0.100468 -0.965199
vn 0.000000 -1.000000 0.000000
vn 0.000000 -1.000000 0.000000
vn 0.000000 -1.000000 0.000000
vn 0.000000 -1.000000 0.000000
vn 0.000000 -1.000000 0.000000
vn 0.000000 -1.000000 0.000000
vn 0.213728 0.120464 0.969437
vn 0.213728 0.120464 0.969437
vn 0.213728 0.120464 0.969437
vn 0.204164 0.225766 0.952548
vn 0.204164 0.225766 0.952548
vn 0.204164 0.225766 0.952548
vn 0.230048 0.138345 0.963296
vn 0.230048 0.138345 0.963296
vn 0.230048 0.138345 0.963296
vn -0.455522 0.847879 0.271296
vn -0.455522 0.847879 0.271296
vn -0.455522 0.847879 0.271296
vn -0.499111 0.761341 0.413822
vn -0.499111 0.761341 0.413822
vn -0.499111 0.761341 0.413822
vn -0.418513 0.812041 0.406739
vn -0.418513 0.812041 0.406739
vn -0.418513 0.812041 0.406739
vn -0.061826 0.529809 0.845861
vn -0.061826 0.529809 0.845861
vn -0.061826 0.529809 0.845861
vn -0.088078 0.229626 0.969286
vn -0.088078 0.229626 0.969286
vn -0.088078 0.229626 0.969286
vn 0.000000 1.000000 0.000000
vn 0.000000 1.000000 0.000000
vn 0.000000 1.000000 0.000000
vn 0.000000 1.000000 -0.000000
vn 0.000000 1.000000 -0.000000
vn 0.000000 1.000000 -0.000000
vn 0.000000 1.000000 0.000000
vn 0.000000 1.000000 0.000000
vn 0.000000 1.000000 0.000000
vn 0.000000 1.000000 0.000000
vn 0.000000 1.000000 0.000000
vn 0.000000 1.000000 0.000000
vn 0.000000 1.000000 0.000000
vn 0.000000 1.000000 0.000000
vn 0.000000 1.000000 0.000000
vn -0.988126 0.121728 -0.093747
vn -0.988127 0.121728 -0.093747
vn -0.988126 0.121728 -0.093747
vn -0.989016 0.115978 -0.091632
vn -0.989016 0.115978 -0.091632
vn -0.989016 0.115978 -0.091632
vn -0.526718 0.849932 -0.013556
vn -0.526718 0.849932 -0.013556
vn -0.526718 0.849932 -0.013556
vn -0.505349 0.862903 -0.004462
vn -0.505349 0.862903 -0.004462
vn -0.505350 0.862903 -0.004462
vn -0.963514 0.192794 -0.185666
vn -0.963514 0.192794 -0.185666
vn -0.963514 0.192794 -0.185666
vn -0.954435 0.252415 -0.159189
vn -0.954435 0.252415 -0.159189
vn -0.954435 0.252415 -0.159189
vn 0.000000 -1.000000 0.000000
vn 0.000000 -1.000000 0.000000
vn 0.000000 -1.000000 0.000000
vn 0.000000 -1.000000 0.000000
vn 0.000000 -1.000000 0.000000
vn 0.000000 -1.000000 0.000000
vn 0.000000 -1.000000 -0.000000
vn 0.000000 -1.000000 -0.000000
vn 0.000000 -1.000000 -0.000000
vn 0.000000 -1.000000 0.000000
vn 0.000000 -1.000000 0.000000
vn 0.000000 -1.000000 0.000000
vn 0.987814 0.088941 -0.127725
vn 0.987814 0.088941 -0.127725
vn 0.987814 0.088941 -0.127725
vn 0.987841 0.092644 -0.124851
vn 0.987841 0.092644 -0.124851
vn 0.987841 0.092644 -0.124851
vn -0.056324 0.989331 -0.134354
vn -0.056324 0.989331 -0.134354
vn -0.056324 0.989331 -0.134354
vn -0.200062 0.974785 -0.098837
vn -0.200063 0.974785 -0.098837
vn -0.200063 0.974785 -0.098837
vn 0.921824 0.352376 -0.161469
vn 0.921824 0.352376 -0.161470
vn 0.921824 0.352376 -0.161469
vn 0.943468 0.285339 -0.168668
vn 0.943468 0.285339 -0.168668
vn 0.943468 0.285339 -0.168668
vn -0.905316 0.424739 0.000000
vn -0.905316 0.424739 0.000000
vn -0.905316 0.424739 0.000000
vn -0.897612 0.363461 0.249378
vn -0.897612 0.363461 0.249378
vn -0.897612 0.363461 0.249378
vn -0.898353 0.314921 0.306246
vn -0.898353 0.314921 0.306246
vn -0.898353 0.314921 0.306246
vn -0.908069 0.413803 -0.064636
vn -0.908069 0.413803 -0.064636
vn -0.908069 0.413803 -0.064636
vn -0.951497 0.307658 0.000003
vn -0.951497 0.307658 0.000003
vn -0.951497 0.307658 0.000003
vn -0.951494 0.307666 0.000000
vn -0.951494 0.307666 0.000000
vn -0.951494 0.307666 0.000000
vn 0.211334 0.694762 -0.687491
vn 0.211334 0.694762 -0.687491
vn 0.211334 0.694762 -0.687491
vn 0.277186 0.640571 -0.716126
vn 0.277186 0.640571 -0.716126
vn 0.277186 0.640571 -0.716126
vn 0.652609 0.747766 -0.122263
vn 0.652609 0.747766 -0.122263
vn 0.652609 0.747766 -0.122263
vn 0.718608 0.677312 -0.157642
vn 0.718608 0.677312 -0.157642
vn 0.718608 0.677312 -0.157642
vn 0.604432 0.728176 0.323144
vn 0.604432 0.728176 0.323144
vn 0.604432 0.728176 0.323144
vn 0.554814 0.798004 0.235310
vn 0.554814 0.798004 0.235309
vn 0.554814 0.798004 0.235310
vn 0.000000 0.392916 0.919574
vn 0.000000 0.392916 0.919574
vn 0.000000 0.392916 0.919574
vn -0.194376 0.506751 0.839894
vn -0.194376 0.506751 0.839894
vn -0.194376 0.506751 0.839894
vn -0.025738 0.330736 0.943372
vn -0.025738 0.330736 0.943372
vn -0.025737 0.330736 0.943372
vn -0.016024 0.371466 0.928308
vn -0.016024 0.371466 0.928308
vn -0.016024 0.371466 0.928308
vn 0.000000 0.392917 0.919574
vn 0.000000 0.392917 0.919574
vn 0.000000 0.392917 0.919574
vn 0.000000 1.000000 0.000000
vn 0.000000 1.000000 0.000000
vn 0.000000 1.000000 0.000000
vn 0.000000 1.000000 0.000000
vn 0.000000 1.000000 0.000000
vn 0.000000 1.000000 0.000000
vn 0.000000 1.000000 0.000000
vn 0.000000 1.000000 0.000000
vn 0.000000 1.000000 0.000000
vn -0.346762 0.905296 0.245346
vn -0.346762 0.905296 0.245346
vn -0.346762 0.905296 0.245346
vn -0.367155 0.914070 0.172258
vn -0.367155 0.914070 0.172258
vn -0.367155 0.914070 0.172258
vn -0.181420 0.963681 0.195972
vn -0.181420 0.963681 0.195972
vn -0.181420 0.963681 0.195972
vn 0.626579 0.443529 0.640843
vn 0.626579 0.443529 0.640843
vn 0.626579 0.443529 0.640843
vn -0.380978 0.789317 -0.481492
vn -0.380978 0.789317 -0.481492
vn -0.380978 0.789317 -0.481492
vn -0.241372 0.368348 -0.897808
vn -0.241372 0.368348 -0.897808
vn -0.241372 0.368348 -0.897808
vn -0.215212 0.605642 -0.766082
vn -0.215212 0.605642 -0.766082
vn -0.215212 0.605642 -0.766082
vn -0.258008 0.547539 -0.796010
vn -0.258008 0.547539 -0.796010
vn -0.258008 0.547540 -0.796010
vn -0.150173 -0.277879 0.948805
vn -0.150173 -0.277879 0.948805
vn -0.150173 -0.277879 0.948805
vn -0.136189 -0.324452 0.936047
vn -0.136189 -0.324452 0.936047
vn -0.136189 -0.324452 0.936047
vn -0.884657 -0.311423 0.346984
vn -0.884657 -0.311423 0.346984
vn -0.884657 -0.311423 0.346984
vn -0.883258 -0.261439 0.389235
vn -0.883258 -0.261439 0.389235
vn -0.883259 -0.261439 0.389235
vn 0.950984 -0.210700 0.226350
vn 0.950984 -0.210700 0.226350
vn 0.950984 -0.210700 0.226350
vn 0.948937 -0.187407 0.253768
vn 0.948937 -0.187407 0.253768
vn 0.948937 -0.187407 0.253768
vn 0.368419 -0.227261 0.901454
vn 0.368419 -0.227261 0.901454
vn 0.368419 -0.227261 0.901454
vn 0.281909 -0.363704 0.887832
vn 0.281910 -0.363704 0.887832
vn 0.281909 -0.363704 0.887832
vn -0.072794 -0.216333 -0.973602
vn -0.072794 -0.216333 -0.973602
vn -0.072794 -0.216333 -0.973602
vn -0.108033 -0.376704 -0.920013
vn -0.108033 -0.376704 -0.920013
vn -0.108033 -0.376704 -0.920013
vn -0.962584 -0.229239 -0.144502
vn -0.962584 -0.229239 -0.144502
vn -0.962584 -0.229239 -0.144502
vn -0.901844 -0.394790 -0.175553
vn -0.901844 -0.394790 -0.175553
vn -0.901844 -0.394790 -0.175553
vn 0.146830 -0.232219 -0.961517
vn 0.146830 -0.232219 -0.961517
vn 0.146830 -0.232219 -0.961517
vn 0.219548 -0.405580 -0.887302
vn 0.219548 -0.405580 -0.887302
vn 0.219548 -0.405580 -0.887302
vn 0.983077 -0.171461 -0.064511
vn 0.983077 -0.171461 -0.064511
vn 0.983077 -0.171461 -0.064511
vn 0.919865 -0.376883 -0.108662
vn 0.919865 -0.376883 -0.108662
vn 0.919865 -0.376883 -0.108662
s off
f 1/1/1 22/2/2 5/4/3
f 5/4/4 22/2/5 23/3/6
f 9/5/7 42/6/8 43/7/9
f 37/9/10 19/10/11 36/8/12
f 36/8/13 19/10/14 14/11/15
f 49/12/16 50/13/17 52/15/18
f 52/15/19 50/13/20 51/14/21
f 32/18/22 46/19/23 31/17/24
f 46/19/25 6/20/26 31/17/27
f 2/16/28 31/17/29 6/20/30
f 30/21/31 1/1/32 29/22/33
f 29/22/34 1/1/35 5/4/36
f 16/23/37 24/24/38 34/26/39
f 34/26/40 24/24/41 41/25/42
f 20/28/43 21/29/44 7/27/45
f 7/27/46 21/29/47 3/30/48
f 15/31/49 33/32/50 40/34/51
f 40/34/52 33/32/53 39/33/54
f 28/35/55 16/23/56 35/36/57
f 35/36/58 16/23/59 34/26/60
f 7/27/61 14/11/62 20/28/63
f 20/28/64 14/11/65 19/10/66
f 5/4/67 23/3/68 16/23/69
f 16/23/70 23/3/71 24/24/72
f 6/20/73 46/19/74 45/37/75
f 29/22/76 5/4/77 28/35/78
f 28/35/79 5/4/80 16/23/81
f 17/38/82 10/39/83 26/41/84
f 26/41/85 10/39/86 25/40/87
f 37/9/88 38/42/89 19/10/90
f 19/10/91 38/42/92 13/43/93
f 8/44/94 20/28/95 13/43/96
f 13/43/97 20/28/98 19/10/99
f 20/28/100 8/44/101 21/29/102
f 21/29/103 8/44/104 4/45/105
f 51/14/106 50/13/107 54/47/108
f 54/47/109 50/13/110 53/46/111
f 22/2/112 2/16/113 23/3/114
f 44/48/115 23/3/116 6/20/117
f 23/3/118 2/16/119 6/20/120
f 23/3/121 44/48/122 24/24/123
f 45/37/124 15/31/125 44/48/126
f 24/24/127 44/48/128 15/31/129
f 24/24/130 15/31/131 41/25/132
f 41/25/133 15/31/134 40/34/135
f 25/40/136 11/49/137 26/41/138
f 26/41/139 11/49/140 18/50/141
f 18/50/142 47/52/143 26/41/144
f 47/52/145 48/53/146 26/41/147
f 27/51/148 26/41/149 48/53/150
f 28/35/151 35/36/152 14/54/153
f 14/54/154 35/36/155 36/55/156
f 7/56/157 29/22/158 14/54/159
f 14/54/160 29/22/161 28/35/162
f 3/57/163 30/21/164 7/56/165
f 7/56/166 30/21/167 29/22/168
f 56/59/169 50/13/170 55/58/171
f 55/58/172 50/13/173 49/12/174
f 53/46/175 50/13/176 57/60/177
f 57/60/178 50/13/179 56/59/180
f 32/18/181 31/17/182 8/62/183
f 8/62/184 31/17/185 4/61/186
f 33/32/187 32/18/188 13/63/189
f 13/63/190 32/18/191 8/62/192
f 39/33/193 33/32/194 38/64/195
f 38/64/196 33/32/197 13/63/198
f 27/66/199 35/36/200 43/65/201
f 43/65/202 35/36/203 9/5/204
f 35/36/205 34/26/206 9/5/207
f 35/36/208 27/66/209 36/55/210
f 36/55/211 27/66/212 12/68/213
f 27/66/214 48/67/215 12/68/216
f 38/42/217 37/9/218 11/49/219
f 11/49/220 37/9/221 18/50/222
f 25/69/223 39/33/224 11/70/225
f 11/70/226 39/33/227 38/64/228
f 40/34/229 39/33/230 10/39/231
f 10/39/232 39/33/233 25/69/234
f 17/38/235 41/25/236 10/39/237
f 10/39/238 41/25/239 40/34/240
f 34/26/241 41/25/242 9/5/243
f 9/5/244 41/25/245 42/6/246
f 41/25/247 17/38/248 42/6/249
f 17/38/250 26/41/251 42/6/252
f 27/51/253 43/7/254 26/41/255
f 43/7/256 42/6/257 26/41/258
f 45/37/259 46/19/260 15/31/261
f 15/31/262 46/19/263 33/32/264
f 46/19/265 32/18/266 33/32/267
f 45/37/268 44/48/269 6/20/270
f 48/53/271 47/52/272 12/71/273
f 36/8/274 12/71/275 37/9/276
f 12/71/277 47/52/278 37/9/279
f 47/52/280 18/50/281 37/9/282
f 1/73/283 52/15/284 22/72/285
f 22/72/286 52/15/287 51/14/288
f 1/73/289 30/74/290 52/15/291
f 52/15/292 30/74/293 49/12/294
f 2/76/295 54/47/296 31/75/297
f 31/75/298 54/47/299 53/46/300
f 2/76/301 22/72/302 54/47/303
f 54/47/304 22/72/305 51/14/306
f 21/29/307 56/59/308 3/30/309
f 3/30/310 56/59/311 55/58/312
f 30/74/313 3/30/314 49/12/315
f 49/12/316 3/30/317 55/58/318
f 21/29/319 4/45/320 56/59/321
f 56/59/322 4/45/323 57/60/324
f 31/75/325 53/46/326 4/45/327
f 4/45/328 53/46/329 57/60/330
