# This file uses centimeters as units for non-parametric coordinates.

v -16.941162 -4.080685 13.415894
v -12.174316 31.429104 -7.771637
v 10.632813 16.287350 -13.938324
v -3.586182 16.074520 25.150879
v 21.354248 14.575710 4.273193
v 22.895020 -1.570004 6.694336
v -22.894531 16.891811 4.228149
v -14.457275 29.949520 2.900024
v 13.043701 -1.360126 -14.762482
v -3.551514 17.883980 -22.414978
v -2.578613 0.399212 -28.543793
v -17.929688 -1.031384 -16.455322
v -17.422363 19.102112 -15.684174
v 6.656738 -1.610065 25.725830
v 13.468262 23.737480 12.067993
v 13.849365 23.804073 5.472290
v -2.090332 -6.811138 -0.727600
v -1.447266 -2.402126 -23.154785
v -22.477783 -2.269634 3.200806
v -15.136230 -1.874672 22.492310
v 19.772705 -0.284019 17.701538
v 20.026367 14.171608 15.652100
v 5.514160 27.596729 -6.382660
v 4.232910 23.813965 10.287842
v -0.597412 24.896507 17.299072
v -6.858154 -2.156708 28.543945
v 1.952881 -6.760719 9.600342
vt 0.943115 0.502159
vt 0.943115 0.502159
vt 0.943115 0.502159
vt 0.943115 0.502159
vt 0.943115 0.502159
vt 0.943115 0.502159
vt 0.943115 0.502159
vt 0.943115 0.502159
vt 0.943115 0.502159
vt 0.943115 0.502159
vt 0.943115 0.502159
vt 0.943115 0.502159
vt 0.943115 0.502159
vt 0.943115 0.502159
vt 0.943115 0.502159
vt 0.943115 0.502159
vt 0.943115 0.502159
vt 0.943115 0.502159
vt 0.943115 0.502159
vt 0.943115 0.502159
vt 0.943115 0.502159
vt 0.943115 0.502159
vt 0.943115 0.502159
vt 0.943115 0.502159
vt 0.943115 0.502155
vt 0.943115 0.502155
vt 0.943115 0.502159
vn 0.513252 0.309190 -0.800608
vn 0.513252 0.309190 -0.800608
vn 0.513252 0.309190 -0.800608
vn 0.664226 0.125160 -0.736980
vn 0.664226 0.125160 -0.736980
vn 0.664226 0.125160 -0.736980
vn 0.858934 0.140342 -0.492479
vn 0.858934 0.140342 -0.492479
vn 0.858934 0.140342 -0.492479
vn -0.620649 0.045620 -0.782760
vn -0.620649 0.045620 -0.782760
vn -0.620649 0.045620 -0.782760
vn -0.398369 0.283589 -0.872284
vn -0.398369 0.283589 -0.872284
vn -0.398369 0.283589 -0.872284
vn -0.964039 -0.006723 -0.265677
vn -0.964039 -0.006723 -0.265677
vn -0.964039 -0.006723 -0.265677
vn -0.974182 0.033101 -0.223324
vn -0.974182 0.033101 -0.223324
vn -0.974182 0.033101 -0.223324
vn -0.683227 0.344266 0.643958
vn -0.683227 0.344266 0.643958
vn -0.683227 0.344266 0.643958
vn -0.566217 0.247921 0.786087
vn -0.566217 0.247921 0.786087
vn -0.566217 0.247921 0.786087
vn 0.196331 0.145242 0.969721
vn 0.196331 0.145242 0.969721
vn 0.196331 0.145242 0.969721
vn 0.962478 0.021462 0.270510
vn 0.962478 0.021462 0.270510
vn 0.962478 0.021462 0.270510
vn 0.188649 0.954470 0.231081
vn 0.188649 0.954470 0.231081
vn 0.188649 0.954470 0.231081
vn 0.115284 0.966758 0.228231
vn 0.115284 0.966758 0.228231
vn 0.115284 0.966758 0.228231
vn 0.747632 0.568136 -0.343900
vn 0.747632 0.568136 -0.343900
vn 0.747632 0.568136 -0.343900
vn -0.857158 0.481797 -0.182078
vn -0.857158 0.481797 -0.182078
vn -0.857158 0.481797 -0.182078
vn 0.240343 0.953172 0.183570
vn 0.240343 0.953172 0.183570
vn 0.240343 0.953172 0.183570
vn -0.637830 0.473887 0.607127
vn -0.637830 0.473887 0.607127
vn -0.637830 0.473887 0.607127
vn 0.348668 0.554438 0.755665
vn 0.348668 0.554438 0.755665
vn 0.348668 0.554438 0.755665
vn 0.334617 0.523091 0.783841
vn 0.334617 0.523091 0.783841
vn 0.334617 0.523091 0.783841
vn 0.033279 0.990945 -0.130076
vn 0.033279 0.990945 -0.130076
vn 0.033279 0.990945 -0.130076
vn 0.778006 0.618058 0.112740
vn 0.778007 0.618058 0.112740
vn 0.778006 0.618058 0.112740
vn 0.814277 0.578062 0.052886
vn 0.814277 0.578062 0.052886
vn 0.814277 0.578062 0.052886
vn 0.176648 -0.966734 -0.184987
vn 0.176648 -0.966734 -0.184987
vn 0.176648 -0.966734 -0.184987
vn 0.257282 -0.961553 -0.096027
vn 0.257282 -0.961553 -0.096027
vn 0.257282 -0.961553 -0.096027
vn 0.340910 -0.802935 -0.488955
vn 0.340910 -0.802935 -0.488954
vn 0.340910 -0.802935 -0.488954
vn 0.224324 -0.968004 -0.112461
vn 0.224324 -0.968004 -0.112461
vn 0.224324 -0.968004 -0.112461
vn -0.239067 -0.881185 -0.407873
vn -0.239067 -0.881185 -0.407873
vn -0.239067 -0.881185 -0.407873
vn -0.159673 -0.967753 -0.194831
vn -0.159673 -0.967753 -0.194831
vn -0.159673 -0.967753 -0.194831
vn -0.145527 -0.984714 -0.095705
vn -0.145527 -0.984714 -0.095705
vn -0.145527 -0.984714 -0.095705
vn -0.261851 -0.960956 -0.089430
vn -0.261851 -0.960956 -0.089430
vn -0.261851 -0.960956 -0.089430
vn -0.740385 -0.604413 0.294134
vn -0.740385 -0.604413 0.294134
vn -0.740385 -0.604413 0.294134
vn -0.231364 -0.933788 0.272965
vn -0.231364 -0.933788 0.272965
vn -0.231364 -0.933788 0.272965
vn -0.099978 -0.976519 0.190829
vn -0.099978 -0.976519 0.190829
vn -0.099978 -0.976519 0.190829
vn 0.096468 -0.955956 0.277203
vn 0.096468 -0.955956 0.277203
vn 0.096468 -0.955956 0.277203
vn 0.237346 -0.943299 0.232065
vn 0.237346 -0.943299 0.232065
vn 0.237346 -0.943299 0.232065
vn 0.260504 -0.947659 0.184611
vn 0.260504 -0.947659 0.184611
vn 0.260504 -0.947659 0.184611
vn 0.510337 0.111930 0.852659
vn 0.510337 0.111930 0.852659
vn 0.510337 0.111930 0.852659
vn 0.908617 0.024187 -0.416930
vn 0.908617 0.024187 -0.416930
vn 0.908617 0.024187 -0.416930
vn 0.986544 0.112005 0.119104
vn 0.986544 0.112005 0.119104
vn 0.986544 0.112005 0.119104
vn 0.214783 0.776765 -0.592034
vn 0.214783 0.776765 -0.592034
vn 0.214783 0.776765 -0.592034
vn -0.304789 0.602982 -0.737236
vn -0.304789 0.602982 -0.737236
vn -0.304789 0.602982 -0.737236
vn -0.840068 0.532035 -0.105949
vn -0.840068 0.532035 -0.105949
vn -0.840068 0.532035 -0.105949
vn 0.006265 0.999926 0.010458
vn 0.006265 0.999926 0.010458
vn 0.006265 0.999926 0.010458
vn 0.702073 0.617123 -0.355321
vn 0.702073 0.617123 -0.355321
vn 0.702073 0.617123 -0.355321
vn 0.378679 0.248318 0.891594
vn 0.378679 0.248318 0.891594
vn 0.378679 0.248318 0.891594
vn -0.933616 -0.039398 0.356102
vn -0.933616 -0.039398 0.356102
vn -0.933616 -0.039398 0.356102
vn -0.392370 0.682123 0.617053
vn -0.392370 0.682123 0.617053
vn -0.392370 0.682123 0.617053
vn 0.292167 0.954850 0.053856
vn 0.292167 0.954850 0.053856
vn 0.292167 0.954850 0.053856
vn 0.450114 0.627908 -0.634924
vn 0.450114 0.627908 -0.634924
vn 0.450114 0.627908 -0.634924
vn -0.129242 -0.990063 0.055429
vn -0.129242 -0.990063 0.055429
vn -0.129242 -0.990063 0.055429
s off
f 11/1/1 10/2/2 3/3/3
f 11/1/4 3/3/5 9/4/6
f 3/3/7 5/5/8 9/4/9
f 12/6/10 13/7/11 11/1/12
f 11/1/13 13/7/14 10/2/15
f 19/8/16 7/9/17 13/7/18
f 19/8/19 13/7/20 12/6/21
f 20/10/22 4/11/23 7/9/24
f 26/12/25 4/11/26 20/10/27
f 14/13/28 4/11/29 26/12/30
f 6/14/31 22/15/32 21/16/33
f 24/17/34 23/18/35 2/19/36
f 16/20/37 23/18/38 24/17/39
f 16/20/40 3/3/41 23/18/42
f 13/7/43 7/9/44 2/19/45
f 8/21/46 24/17/47 2/19/48
f 7/9/49 4/11/50 8/21/51
f 4/11/52 22/15/53 25/22/54
f 25/22/55 22/15/56 15/23/57
f 25/22/58 15/23/59 24/17/60
f 5/5/61 16/20/62 22/15/63
f 22/15/64 16/20/65 15/23/66
f 18/24/67 9/4/68 17/25/69
f 9/4/70 27/26/71 17/25/72
f 9/4/73 18/24/74 11/1/75
f 9/4/76 6/14/77 27/26/78
f 11/1/79 18/24/80 12/6/81
f 12/6/82 18/24/83 17/25/84
f 12/6/85 1/27/86 19/8/87
f 1/27/88 12/6/89 17/25/90
f 20/10/91 19/8/92 1/27/93
f 1/27/94 26/12/95 20/10/96
f 26/12/97 1/27/98 27/26/99
f 26/12/100 27/26/101 14/13/102
f 14/13/103 27/26/104 21/16/105
f 6/14/106 21/16/107 27/26/108
f 14/13/109 21/16/110 22/15/111
f 6/14/112 9/4/113 5/5/114
f 22/15/115 6/14/116 5/5/117
f 23/18/118 10/2/119 2/19/120
f 2/19/121 10/2/122 13/7/123
f 2/19/124 7/9/125 8/21/126
f 24/17/127 15/23/128 16/20/129
f 3/3/130 16/20/131 5/5/132
f 4/11/133 14/13/134 22/15/135
f 19/8/136 20/10/137 7/9/138
f 4/11/139 25/22/140 8/21/141
f 8/21/142 25/22/143 24/17/144
f 23/18/145 3/3/146 10/2/147
f 1/27/148 17/25/149 27/26/150
