# Blender v2.78 (sub 0) OBJ File: ''
# www.blender.org
mtllib SM_Env_Rock_03_Snow.mtl
o SM_Env_Rock_03_Snow
v 54.805908 135.826721 24.076086
v 55.812054 132.812439 37.234001
v 59.006981 135.724701 29.325994
v 41.269272 172.162750 -13.169833
v 23.062696 174.474213 -38.160938
v 9.485871 166.472900 -2.832569
v 30.630020 130.465912 -61.786068
v 31.025942 134.014954 -58.328117
v 57.052795 118.101479 -41.711605
v 59.059002 121.815865 -39.969234
v 9.214814 -26.901245 -8.921620
v 12.758851 -27.636589 -31.620415
v 26.293625 -21.189911 -17.203083
v 17.780716 -26.821007 -35.727253
v -55.940899 130.184967 -39.972927
v -64.244720 138.356720 -10.391427
v -52.673557 132.999084 -37.987724
v -63.133713 140.746155 -9.461128
v -20.304379 157.877106 -24.119955
v -17.827572 156.066406 35.202831
v -21.620512 126.297318 54.130924
v -22.976803 129.811157 36.427418
v -30.756985 125.790375 57.981449
v -0.495298 -28.736137 -28.312492
v -8.661466 -26.023163 -8.921605
v -7.690367 -25.393486 -35.591236
v -22.939615 133.830963 -55.300346
v -21.247141 137.344391 -53.555077
v -39.684872 148.383636 -2.376166
v -33.961483 152.928986 -26.957756
v -50.251331 138.854126 34.939369
v -50.519825 134.128845 35.054832
v -37.684994 -21.494476 -15.982777
v -22.503048 -26.023163 11.301387
v -50.393513 102.651398 27.356539
v -25.102139 118.629326 51.891071
v -49.019001 137.397430 26.489386
v 29.915346 118.629326 51.891041
v 30.556549 102.651390 53.097748
v 58.630829 124.169250 26.489262
v 60.005333 102.651398 27.356417
v 64.420380 121.520966 -2.410167
v 60.005333 102.651398 -8.733230
v 64.739975 113.274078 -34.177578
v 60.005333 102.651405 -37.132690
v 29.915346 126.463089 -54.723782
v 30.556549 102.651405 -55.930481
v -25.102139 135.685547 -49.690083
v -25.865902 102.651405 -50.768280
v -52.073402 127.148689 -36.584957
v -60.826004 102.651405 -37.132538
v -60.826004 102.651398 -1.633269
v -59.451523 137.397430 -1.778558
v -53.506256 144.304565 14.153374
v -54.648968 141.760040 14.756828
v -54.922161 141.582367 28.864372
v -55.491383 139.193970 28.667259
v -38.254482 152.280426 21.060482
v 37.494263 138.027496 -2.183038
v 11.652192 160.624756 -1.258137
v 47.343369 170.036346 4.688276
v 54.805908 135.826721 5.694694
v 60.005333 102.651398 7.063645
v 50.075928 116.218658 -4.106381
v 44.541779 77.019714 -6.860462
v 29.339460 -26.901215 2.331798
v 29.339460 -26.901215 -4.650471
v -11.661770 -34.305664 22.679132
v 13.277162 -26.901245 22.679102
v 39.315567 166.591492 -8.799854
v 19.290115 170.526642 26.966610
v 36.722633 173.580170 25.668501
v 33.906204 180.560959 16.353390
v 48.314995 177.099304 24.961973
v 63.081081 134.968292 28.447836
v 60.636768 135.177429 10.158332
v 26.293625 -26.901245 11.301341
v -20.304379 153.004822 32.248589
v 16.550621 155.136078 32.625408
v 28.131012 129.811157 36.427357
v -45.194080 141.449127 24.076149
v -39.684872 148.383636 21.172310
v -45.194080 141.449142 -2.182930
v -45.194080 133.482330 -34.338463
v -39.684872 148.383636 -28.073845
v -29.458035 150.822174 -31.632803
v -22.976803 137.636871 -46.689720
v 28.131012 128.414398 -51.365692
v 24.277786 163.635223 -40.357624
v -18.259365 153.492493 -37.252251
v 54.224480 123.045074 -37.310116
v 39.315567 166.591492 -31.868824
v 39.315567 166.591492 -24.873310
v 46.867355 172.032837 21.172207
v 28.605858 164.018158 32.037289
v 22.630491 61.147636 -41.977425
v 37.451004 -8.426903 -23.799059
v 22.364731 7.170357 -41.675125
v 37.451004 -14.138275 -6.001697
v -12.994106 7.170357 -38.440048
v -45.362415 61.147629 -1.577764
v -51.402489 11.903976 -10.352064
v -31.733791 -14.138275 16.615051
v 44.541779 61.147625 19.991951
v 37.450943 -3.078369 3.897857
v -19.350460 34.020882 39.144764
v -16.362820 -14.138283 32.746639
v 18.996017 -14.138283 32.746593
v -37.600155 61.147625 19.992044
v 34.365097 6.877312 34.835144
v 8.982484 -14.138275 -0.689730
v 29.685989 -19.146393 -5.061267
v 18.065750 -10.296043 -45.449757
v 23.084152 -19.888420 -28.221365
v -6.873167 -10.296043 -43.168079
v 27.503555 -20.271790 2.501691
v -7.690367 -17.482719 -35.089497
v 12.758851 -19.725822 -31.118732
v -0.495298 -20.825401 -27.810810
v 17.780716 -18.910271 -35.225574
v 56.489040 132.147644 37.836330
v 59.361378 133.867050 29.496679
v 43.114861 168.014343 -25.238972
v 41.245087 168.323242 -37.364277
v 25.823072 166.543091 -45.343739
v -16.714077 156.400330 -42.238300
v -28.818661 154.109039 -34.305443
v 16.514832 164.255219 35.202847
v 49.493652 176.910950 5.504179
v 23.805679 170.985596 35.815807
v 36.737782 173.431702 32.521496
v -13.375881 121.529007 61.786137
v -16.917080 127.568909 53.974369
v 29.242188 123.568665 59.186832
v 29.168396 128.775513 52.436695
v -50.553886 140.474487 29.304085
v -50.954712 135.208481 29.297674
v 39.323502 169.166748 -32.110126
v 41.263718 174.586456 26.440702
v -59.059711 141.013397 -5.166542
v -55.792377 143.385315 -3.995216
v -62.307510 143.265366 0.282219
v -64.739944 140.697876 -0.769646
vt 0.5496 0.7882
vt 0.5496 0.7882
vt 0.5496 0.7882
vt 0.5496 0.7882
vt 0.5496 0.7882
vt 0.5496 0.7882
vt 0.5496 0.7882
vt 0.5496 0.7882
vt 0.5496 0.7882
vt 0.5496 0.7882
vt 0.9479 0.4471
vt 0.9479 0.4471
vt 0.9479 0.4471
vt 0.9479 0.4471
vt 0.5496 0.7882
vt 0.5496 0.7882
vt 0.5496 0.7882
vt 0.5496 0.7882
vt 0.5496 0.7882
vt 0.5496 0.7882
vt 0.5496 0.7882
vt 0.5496 0.7882
vt 0.5496 0.7882
vt 0.9479 0.4471
vt 0.9479 0.4471
vt 0.9479 0.4471
vt 0.5496 0.7882
vt 0.5496 0.7882
vt 0.5496 0.7882
vt 0.5496 0.7882
vt 0.5496 0.7882
vt 0.5496 0.7882
vt 0.9479 0.4471
vt 0.9479 0.4471
vt 0.9479 0.4471
vt 0.9479 0.4471
vt 0.9479 0.4471
vt 0.9479 0.4471
vt 0.9479 0.4471
vt 0.9479 0.4471
vt 0.9479 0.4471
vt 0.9479 0.4471
vt 0.9479 0.4471
vt 0.9479 0.4471
vt 0.9479 0.4471
vt 0.9479 0.4471
vt 0.9479 0.4471
vt 0.9479 0.4471
vt 0.9479 0.4471
vt 0.9479 0.4471
vt 0.9479 0.4471
vt 0.9479 0.4471
vt 0.9479 0.4471
vt 0.5496 0.7882
vt 0.5496 0.7882
vt 0.5496 0.7882
vt 0.5496 0.7882
vt 0.5496 0.7882
vt 0.9479 0.4471
vt 0.9479 0.4471
vt 0.9479 0.4471
vt 0.9479 0.4471
vt 0.9479 0.4471
vt 0.9479 0.4471
vt 0.9479 0.4471
vt 0.9479 0.4471
vt 0.9479 0.4471
vt 0.9479 0.4471
vt 0.9479 0.4471
vt 0.9479 0.4471
vt 0.5496 0.7882
vt 0.5496 0.7882
vt 0.5496 0.7882
vt 0.5496 0.7882
vt 0.5496 0.7882
vt 0.5496 0.7882
vt 0.9479 0.4471
vt 0.9479 0.4471
vt 0.9479 0.4471
vt 0.9479 0.4471
vt 0.9479 0.4471
vt 0.9479 0.4471
vt 0.9479 0.4471
vt 0.5496 0.7882
vt 0.5496 0.7882
vt 0.5496 0.7882
vt 0.5496 0.7882
vt 0.5496 0.7882
vt 0.9479 0.4471
vt 0.9479 0.4471
vt 0.9479 0.4471
vt 0.9479 0.4471
vt 0.9479 0.4471
vt 0.9479 0.4471
vt 0.9479 0.4471
vt 0.9479 0.4471
vt 0.9479 0.4471
vt 0.9479 0.4471
vt 0.9479 0.4471
vt 0.9479 0.4471
vt 0.9479 0.4471
vt 0.9479 0.4471
vt 0.9479 0.4471
vt 0.9479 0.4471
vt 0.9479 0.4471
vt 0.9479 0.4471
vt 0.9479 0.4471
vt 0.9479 0.4471
vt 0.9479 0.4471
vt 0.9479 0.4471
vt 0.9479 0.4471
vt 0.9479 0.4471
vt 0.9479 0.4471
vt 0.9479 0.4471
vt 0.9479 0.4471
vt 0.9479 0.4471
vt 0.9479 0.4471
vt 0.9479 0.4471
vt 0.9479 0.4471
vt 0.9479 0.4471
vt 0.9479 0.4471
vt 0.9479 0.4471
vt 0.9479 0.4471
vt 0.9479 0.4471
vt 0.9479 0.4471
vt 0.9479 0.4471
vt 0.9479 0.4471
vt 0.9479 0.4471
vt 0.5496 0.7882
vt 0.5496 0.7882
vt 0.5496 0.7882
vt 0.5496 0.7882
vt 0.5496 0.7882
vt 0.5496 0.7882
vt 0.5496 0.7882
vt 0.5496 0.7882
vt 0.5496 0.7882
vt 0.5496 0.7882
vt 0.5496 0.7882
vt 0.5496 0.7882
vt 0.5496 0.7882
vt 0.5496 0.7882
vt 0.5496 0.7882
vt 0.5496 0.7882
vt 0.5496 0.7882
vt 0.5496 0.7882
vt 0.5496 0.7882
vt 0.5496 0.7882
vt 0.5496 0.7882
vt 0.5496 0.7882
vt 0.5496 0.7882
vt 0.5496 0.7882
vt 0.5496 0.7882
vt 0.5496 0.7882
vt 0.5496 0.7882
vt 0.5496 0.7882
vt 0.5496 0.7882
vt 0.5496 0.7882
vt 0.5496 0.7882
vt 0.5496 0.7882
vt 0.5496 0.7882
vt 0.5496 0.7882
vt 0.5496 0.7882
vt 0.5496 0.7882
vt 0.5496 0.7882
vt 0.5496 0.7882
vt 0.5496 0.7882
vt 0.5496 0.7882
vt 0.5496 0.7882
vt 0.5496 0.7882
vt 0.5496 0.7882
vt 0.5496 0.7882
vt 0.5496 0.7882
vt 0.5496 0.7882
vt 0.5496 0.7882
vt 0.5496 0.7882
vt 0.5496 0.7882
vn -0.2705 0.9337 0.2346
vn -0.1177 0.9773 0.1761
vn 0.6616 0.4841 -0.5726
vn 0.5693 0.0765 -0.8185
vn 0.3529 -0.9317 0.0853
vn 0.2827 -0.9462 0.1577
vn -0.4763 0.8041 -0.3558
vn -0.7526 0.5114 -0.4148
vn -0.3320 0.9394 0.0852
vn -0.3044 0.9516 0.0418
vn 0.0268 0.9809 0.1926
vn -0.3909 -0.9197 -0.0359
vn -0.0766 0.4729 -0.8778
vn -0.0208 0.6989 -0.7149
vn -0.3987 0.9160 0.0446
vn -0.3556 0.9304 0.0892
vn -0.7455 0.0586 0.6639
vn -0.1473 -0.9887 -0.0287
vn -0.1320 -0.9871 -0.0904
vn -0.4288 0.5591 -0.7096
vn -0.3362 0.7714 -0.5403
vn -0.7103 0.0456 0.7025
vn 0.0000 0.0753 0.9972
vn 0.6530 0.0721 0.7539
vn 0.6535 0.0738 0.7534
vn 0.6553 0.0809 0.7510
vn 0.6559 0.0830 0.7503
vn 0.9651 -0.2509 0.0748
vn 0.9134 -0.4071 0.0000
vn 0.5233 0.0572 -0.8502
vn 0.5380 -0.0053 -0.8429
vn -0.0853 0.0345 -0.9958
vn -0.0910 0.0480 -0.9947
vn -0.4468 0.0395 -0.8938
vn -0.3593 0.1490 -0.9212
vn -0.9417 0.3365 0.0000
vn -0.9753 0.0377 -0.2178
vn -0.9133 0.4072 -0.0126
vn -0.9723 0.2330 -0.0159
vn -0.0722 0.9846 -0.1593
vn 0.1171 0.1739 -0.9778
vn 0.8015 0.1013 -0.5894
vn 0.7143 -0.0518 -0.6979
vn 0.0000 -1.0000 -0.0000
vn 0.2777 -0.9354 -0.2188
vn -0.0491 -0.9988 0.0063
vn -0.3914 -0.8804 -0.2679
vn -0.9375 0.0385 0.3460
vn -0.9376 0.0388 0.3456
vn -0.9399 0.0454 0.3385
vn -0.9399 0.0456 0.3383
vn 0.2154 0.2073 0.9543
vn 0.2945 -0.1083 0.9495
vn 0.0058 -0.3189 0.9478
vn -0.0914 0.7834 0.6147
vn -0.1916 0.7567 0.6250
vn 0.1045 0.9945 -0.0026
vn 0.1058 0.9944 -0.0021
vn 0.1093 0.9940 -0.0006
vn 0.9980 0.0637 0.0000
vn 0.9839 0.1502 -0.0968
vn -0.0204 0.1796 0.9835
vn 0.0000 0.1485 0.9889
vn -0.3905 0.2066 0.8971
vn -0.4910 0.6383 0.5928
vn -0.7830 0.6220 0.0000
vn -0.9203 0.3798 -0.0941
vn -0.3881 0.4754 -0.7895
vn -0.4829 0.5452 -0.6853
vn -0.0342 0.2947 -0.9550
vn -0.1892 0.5432 -0.8180
vn 0.4992 0.2736 -0.8222
vn 0.8961 0.4318 -0.1031
vn 0.8736 0.4866 0.0000
vn -0.0698 -0.1275 0.9894
vn 0.1399 0.2150 0.9665
vn 0.4201 0.0650 -0.9051
vn 0.4258 0.3203 -0.8462
vn 0.9770 0.2131 0.0000
vn 0.9770 0.2134 0.0004
vn 0.9768 0.2141 0.0018
vn 0.9768 0.2143 0.0022
vn 0.3968 0.1114 0.9111
vn 0.4483 0.1687 0.8778
vn -0.4075 0.1218 0.9050
vn 0.3112 0.2787 0.9086
vn -0.3643 0.9313 -0.0068
vn -0.8644 0.4209 -0.2751
vn -0.0287 0.7459 -0.6655
vn 0.7610 -0.0074 -0.6487
vn 0.9715 0.2259 0.0725
vn 0.0792 -0.1171 -0.9900
vn -0.0911 -0.0051 -0.9958
vn -0.5598 0.2114 -0.8012
vn -0.8102 -0.0050 0.5861
vn 0.9959 -0.0779 -0.0460
vn 0.9746 -0.1494 0.1670
vn 0.0000 -0.1317 0.9913
vn -0.7808 -0.0886 0.6185
vn -0.7173 -0.1353 0.6835
vn -0.9373 -0.0882 0.3373
vn 0.9790 -0.1442 0.1441
vn 0.1906 0.2256 0.9554
vn 0.0218 -0.1146 0.9932
vn -0.8881 -0.3305 0.3196
vn -0.9371 -0.3491 0.0000
vn -0.2656 -0.6824 -0.6810
vn -0.0868 -0.3025 -0.9492
vn 0.5019 -0.3602 -0.7863
vn 0.8562 -0.5166 0.0000
vn 0.7421 -0.6484 -0.1700
vn 0.8834 -0.4034 -0.2385
vn 0.9371 -0.3491 0.0000
vn 0.6154 -0.3542 0.7041
vn 0.4305 -0.4697 0.7707
vn -0.0653 -0.1530 0.9861
vn -0.5549 -0.3082 0.7727
vn -0.8088 -0.1410 0.5710
vn -0.2072 0.0610 0.9764
vn 0.6268 -0.5888 -0.5104
vn 0.6499 -0.7093 -0.2731
vn 0.9640 -0.0568 -0.2598
vn -0.0886 0.2312 -0.9689
vn -0.5893 0.0122 -0.8078
vn -0.8796 -0.4037 0.2517
vn -0.6951 -0.6636 0.2766
vn -0.1825 0.0993 -0.9782
vn -0.0465 0.5408 -0.8398
vn 0.9615 -0.0285 0.2732
vn 0.9637 0.2669 0.0000
vn 0.0000 -0.6193 0.7851
vn 0.1246 -0.4197 0.8990
vn -0.5460 -0.6567 0.5203
vn -0.7905 -0.4110 0.4541
vn 0.9178 0.2462 0.3116
vn 0.6536 -0.5315 0.5388
vn 0.4919 -0.6643 0.5628
vn 0.7461 -0.0400 -0.6646
vn -0.6292 -0.1292 -0.7664
vn -0.8540 -0.1782 -0.4889
vn 0.0914 -0.8979 -0.4307
vn 0.6725 -0.7047 -0.2262
vn 0.5412 -0.8409 -0.0097
vn 0.7235 -0.4604 0.5143
vn 0.5445 -0.8381 0.0324
vn 0.9091 -0.3615 0.2070
vn 0.8488 -0.4717 -0.2387
vn -0.3200 -0.6916 -0.6476
vn -0.0514 -0.8254 -0.5622
vn 0.0463 -0.7487 -0.6613
vn -0.0233 -0.9170 -0.3981
vn -0.6370 0.0488 -0.7693
vn 0.8862 -0.3533 -0.2999
vn 0.7205 0.0439 -0.6921
vn -0.2465 0.0613 -0.9672
vn -0.5416 0.0532 -0.8390
vn 0.5697 -0.6363 -0.5202
vn -0.3786 -0.7026 -0.6025
vn 0.7992 0.0380 -0.5998
vn -0.0487 -0.9918 0.1182
vn 0.0942 -0.9944 0.0469
vn 0.8604 -0.0717 -0.5045
vn 0.9429 -0.1614 0.2915
vn 0.1847 0.3187 0.9297
vn 0.1584 0.5744 0.8031
vn 0.9437 -0.3309 0.0000
vn 0.3578 -0.8649 0.3520
vn 0.2927 -0.9366 -0.1924
vn 0.3092 -0.8601 -0.4058
vn -0.0015 -0.8427 -0.5384
vn -0.0301 -0.8683 -0.4952
vn -0.4610 -0.8730 0.1593
vn -0.6357 -0.7712 0.0346
vn -0.9653 0.1623 -0.2045
vn 0.1750 -0.8731 -0.4550
vn 0.3732 -0.4122 0.8312
vn -0.1360 -0.9551 0.2633
vn -0.1143 -0.8593 -0.4986
vn 0.7461 -0.5014 -0.4382
vn -0.1263 -0.6109 -0.7815
vn -0.2812 -0.8791 -0.3848
vn -0.6268 -0.7290 0.2752
vn -0.0594 -0.7761 -0.6278
vn 0.2810 -0.8737 0.3971
vn -0.9035 -0.2692 0.3334
vn -0.3216 -0.9275 -0.1906
vn -0.3380 -0.4975 0.7989
vn 0.0337 -0.7080 0.7054
vn 0.0647 -0.2712 0.9604
vn 0.9605 -0.0722 0.2687
vn 0.2080 -0.1817 -0.9611
vn 0.1894 0.0571 -0.9802
vn -0.6590 -0.6548 0.3702
vn 0.5924 -0.5424 0.5956
vn 0.2880 -0.2956 0.9109
vn 0.9502 -0.3049 0.0644
vn 0.9476 -0.3134 0.0613
vn 0.9495 -0.3073 0.0635
vn 0.9469 -0.3158 0.0604
vn 0.9249 -0.3580 -0.1277
vn -0.6541 0.0772 0.7525
vn -0.1778 0.7379 0.6511
vn 0.0000 -0.9596 0.2812
vn 0.0738 -0.8226 0.5637
vn 0.0000 0.9919 0.1268
vn -0.0239 0.9975 0.0661
vn -0.0003 0.7910 0.6118
vn -0.0005 0.7916 0.6111
vn -0.0004 0.7913 0.6114
vn -0.0006 0.7918 0.6108
vn 0.8782 0.2072 0.4311
vn 0.4914 0.8039 0.3350
vn -0.2489 0.9462 0.2069
vn 0.2786 0.8967 0.3439
vn 0.2890 0.9169 0.2753
vn 0.3249 0.9458 0.0000
vn 0.1073 0.9757 0.1909
vn 0.0558 0.9685 -0.2426
vn 0.0566 0.9686 -0.2420
vn 0.0588 0.9689 -0.2405
vn 0.0594 0.9689 -0.2401
vn -0.2367 0.9663 -0.1008
vn -0.1004 0.9922 0.0743
vn 0.1073 0.7524 0.6499
vn 0.1778 0.9841 0.0029
vn 0.6891 -0.0326 -0.7240
vn 0.4313 0.8715 -0.2336
vn -0.3959 0.9056 -0.1523
vn -0.2027 0.6176 -0.7599
vn -0.5657 0.7788 -0.2709
vn -0.3256 0.9424 -0.0765
vn -0.6219 0.7831 0.0000
vn -0.9388 0.3446 0.0000
vn -0.5823 0.2361 0.7779
vn -0.1934 0.8109 0.5523
vn -0.1805 0.9833 0.0217
vn -0.1699 0.9848 0.0356
vn 0.2648 0.6963 -0.6671
vn 0.2310 0.9729 0.0046
vn -0.1277 0.8700 -0.4762
vn -0.5344 0.8430 0.0611
vn -0.1115 0.9668 0.2300
vn -0.1096 0.9914 0.0712
vn 0.2243 0.7698 0.5975
vn 0.2237 0.7708 0.5965
vn 0.2226 0.7724 0.5949
vn 0.2220 0.7732 0.5940
vn 0.5904 -0.6036 0.5358
vn 0.5870 -0.6442 0.4903
vn 0.3404 -0.3018 0.8905
vn 0.2323 0.1329 0.9635
vn 0.1589 0.9814 -0.1081
vn 0.1936 0.9094 0.3680
vn -0.1301 0.0087 0.9915
vn -0.1137 -0.0548 0.9920
vn -0.3997 -0.5687 -0.7188
vn 0.6008 -0.7763 -0.1910
vn -0.9943 0.0756 0.0751
vn -0.9946 0.0586 0.0861
vn 0.0898 0.9584 0.2708
vn 0.9403 0.0289 0.3392
vn 0.3216 0.9463 -0.0343
vn 0.3152 0.9489 -0.0148
vn 0.3053 -0.8972 -0.3190
vn 1.0000 -0.0031 0.0000
vn 0.3668 -0.6222 0.6917
vn -0.2568 0.9108 0.3232
vn -0.2198 0.9753 0.0216
vn 0.7217 0.3416 0.6020
vn -0.7260 0.5105 0.4609
vn -0.7259 0.0711 0.6842
vn -0.6117 0.5737 0.5446
vn 0.2427 0.7050 -0.6664
vn 0.1359 0.9627 0.2339
vn -0.4729 0.6784 -0.5623
vn -0.3638 0.7642 -0.5327
vn -0.4827 -0.5704 -0.6646
vn 0.0863 0.9879 -0.1288
vn -0.7680 0.4524 0.4534
vn -0.7345 0.5147 0.4422
vn -0.4479 -0.8238 0.3474
vn 0.2988 -0.8079 -0.5079
vn 0.1107 0.9939 0.0000
vn 0.4762 0.6880 0.5476
vn 0.3160 0.9382 0.1409
vn -0.1487 0.7998 0.5815
vn 0.4197 0.3123 -0.8522
usemtl None
s 1
f 1/1/1 2/2/1 3/3/1
f 4/4/2 5/5/2 6/6/2
f 7/7/3 8/8/3 9/9/3
f 9/9/4 8/8/4 10/10/4
f 11/11/5 12/12/5 13/13/5
f 13/13/6 12/12/6 14/14/6
f 15/15/7 16/16/7 17/17/7
f 17/17/8 16/16/8 18/18/8
f 5/5/9 19/19/9 6/6/9
f 6/6/10 19/19/10 20/20/10
f 21/21/11 22/22/11 23/23/11
f 24/24/12 25/25/12 26/26/12
f 27/27/13 28/28/13 7/7/13
f 7/7/14 28/28/14 8/8/14
f 20/20/15 19/19/15 29/29/15
f 29/29/16 19/19/16 30/30/16
f 31/31/17 32/32/17 23/23/17
f 26/26/18 25/25/18 33/33/18
f 33/33/19 25/25/19 34/34/19
f 28/28/20 27/27/20 17/17/20
f 17/17/21 27/27/21 15/15/21
f 35/35/22 36/36/22 37/37/22
f 38/38/23 36/36/23 39/39/23
f 40/40/24 38/38/25 41/41/26
f 41/41/26 38/38/25 39/39/27
f 42/42/28 43/43/28 44/44/28
f 44/44/29 43/43/29 45/45/29
f 46/46/30 44/44/30 47/47/30
f 47/47/31 44/44/31 45/45/31
f 48/48/32 46/46/32 49/49/32
f 49/49/33 46/46/33 47/47/33
f 48/48/34 49/49/34 50/50/34
f 50/50/35 49/49/35 51/51/35
f 51/51/36 52/52/36 50/50/36
f 50/50/37 52/52/37 53/53/37
f 54/54/38 55/55/38 56/56/38
f 56/56/39 55/55/39 57/57/39
f 58/58/40 20/20/40 29/29/40
f 59/59/41 60/60/41 61/61/41
f 62/62/42 63/63/42 64/64/42
f 64/64/43 63/63/43 65/65/43
f 66/66/44 11/11/44 67/67/44
f 68/68/45 25/25/45 69/69/45
f 69/69/46 25/25/46 11/11/46
f 34/34/47 25/25/47 68/68/47
f 53/53/48 52/52/49 37/37/50
f 37/37/50 52/52/49 35/35/51
f 70/70/52 60/60/52 59/59/52
f 65/65/53 43/43/53 64/64/53
f 64/64/54 43/43/54 42/42/54
f 71/71/55 72/72/55 73/73/55
f 73/73/56 72/72/56 74/74/56
f 75/75/57 76/76/58 1/1/59
f 41/41/60 63/63/60 40/40/60
f 40/40/61 63/63/61 62/62/61
f 69/69/44 11/11/44 77/77/44
f 11/11/44 66/66/44 77/77/44
f 78/78/62 22/79/62 79/80/62
f 79/80/63 22/79/63 80/81/63
f 22/79/64 78/78/64 81/82/64
f 81/82/65 78/78/65 82/83/65
f 29/29/66 83/84/66 82/85/66
f 82/85/66 83/84/66 81/86/66
f 84/87/67 83/84/67 85/88/67
f 85/88/66 83/84/66 29/29/66
f 85/89/68 86/90/68 84/91/68
f 84/91/69 86/90/69 87/92/69
f 88/93/70 87/92/70 89/94/70
f 89/94/71 87/92/71 90/95/71
f 44/44/72 91/96/72 92/97/72
f 44/44/73 92/97/73 42/42/73
f 92/97/74 93/98/74 42/42/74
f 70/70/74 42/42/74 93/98/74
f 64/64/75 42/42/75 59/59/75
f 59/59/76 42/42/76 70/70/76
f 61/61/77 62/62/77 59/59/77
f 59/59/78 62/62/78 64/64/78
f 62/62/79 61/61/80 1/99/81
f 1/99/81 61/61/80 94/100/82
f 80/81/83 1/99/83 95/101/83
f 95/101/84 1/99/84 94/100/84
f 71/102/85 80/81/85 95/101/85
f 79/80/86 80/81/86 71/102/86
f 6/6/87 20/20/87 71/71/87
f 87/92/88 19/103/88 90/95/88
f 87/92/89 86/90/89 19/103/89
f 96/104/90 97/105/90 98/106/90
f 96/104/91 99/107/91 97/105/91
f 49/49/92 96/104/92 100/108/92
f 100/108/93 96/104/93 98/106/93
f 101/109/94 100/108/94 102/110/94
f 101/109/95 102/110/95 103/111/95
f 65/65/96 104/112/96 99/107/96
f 99/107/97 104/112/97 105/113/97
f 106/114/98 107/115/98 108/116/98
f 109/117/99 103/111/99 106/114/99
f 106/114/100 103/111/100 107/115/100
f 109/117/101 101/109/101 103/111/101
f 104/112/102 110/118/102 105/113/102
f 104/112/103 106/114/103 110/118/103
f 110/118/104 106/114/104 108/116/104
f 52/52/105 101/109/105 35/35/105
f 35/35/105 101/109/105 109/117/105
f 52/52/106 51/51/106 101/109/106
f 51/51/107 49/49/107 101/109/107
f 49/49/108 47/47/108 96/104/108
f 47/47/109 45/45/109 96/104/109
f 43/43/110 65/65/110 45/45/110
f 45/45/111 65/65/111 96/104/111
f 65/65/112 63/63/112 104/112/112
f 63/63/113 41/41/113 104/112/113
f 41/41/114 39/39/114 104/112/114
f 104/112/115 39/39/115 106/114/115
f 39/39/116 36/36/116 106/114/116
f 35/35/117 109/117/117 36/36/117
f 36/36/118 109/117/118 106/114/118
f 11/11/119 67/67/119 112/119/119
f 113/120/120 97/105/120 114/121/120
f 114/121/121 97/105/121 13/13/121
f 13/13/122 112/119/122 67/67/122
f 100/108/123 98/106/123 115/122/123
f 115/122/123 98/106/123 113/120/123
f 102/110/124 100/108/124 115/122/124
f 102/110/125 33/33/125 103/111/125
f 103/111/126 33/33/126 34/34/126
f 99/107/127 112/119/127 111/123/127
f 111/123/128 112/119/128 11/11/128
f 112/119/129 116/124/129 67/67/129
f 67/67/130 116/124/130 66/66/130
f 108/116/131 107/115/131 69/69/131
f 69/69/132 107/115/132 68/68/132
f 103/111/133 34/34/133 107/115/133
f 107/115/134 34/34/134 68/68/134
f 116/124/135 77/77/135 66/66/135
f 110/118/136 108/116/136 77/77/136
f 77/77/137 108/116/137 69/69/137
f 98/106/138 97/105/138 113/120/138
f 102/110/139 115/122/139 33/33/139
f 101/109/140 49/49/140 100/108/140
f 67/67/141 11/11/141 13/13/141
f 97/105/142 99/107/142 13/13/142
f 13/13/143 99/107/143 112/119/143
f 105/113/144 116/124/144 99/107/144
f 99/107/145 116/124/145 112/119/145
f 110/118/146 77/77/146 105/113/146
f 105/113/147 77/77/147 116/124/147
f 33/33/148 115/122/148 117/125/148
f 113/120/149 118/126/149 115/122/149
f 115/122/150 118/126/150 117/125/150
f 118/126/151 119/127/151 117/125/151
f 120/128/152 14/14/152 118/126/152
f 118/126/152 14/14/152 12/12/152
f 13/13/153 14/14/153 114/121/153
f 117/125/154 119/127/154 26/26/154
f 26/26/154 119/127/154 24/24/154
f 118/126/155 12/12/155 119/127/155
f 119/127/155 12/12/155 24/24/155
f 33/33/156 117/125/156 26/26/156
f 114/121/157 120/128/157 113/120/157
f 120/128/158 118/126/158 113/120/158
f 114/121/159 14/14/159 120/128/159
f 25/25/160 24/24/160 11/11/160
f 11/11/161 24/24/161 12/12/161
f 96/104/162 65/65/162 99/107/162
f 121/129/163 40/130/163 122/131/163
f 60/132/164 70/133/164 6/6/164
f 6/6/165 70/133/165 4/4/165
f 70/133/166 93/134/166 4/4/166
f 4/4/167 93/134/167 123/135/167
f 92/136/168 89/137/168 124/138/168
f 124/138/169 89/137/169 125/139/169
f 44/140/170 46/141/170 9/9/170
f 9/9/171 46/141/171 7/7/171
f 53/142/172 16/16/172 50/143/172
f 50/143/173 16/16/173 15/15/173
f 90/144/174 19/19/174 126/145/174
f 90/144/175 126/145/175 89/137/175
f 89/137/175 126/145/175 125/139/175
f 36/146/176 21/21/176 23/23/176
f 48/147/177 27/27/177 46/141/177
f 46/141/178 27/27/178 7/7/178
f 19/19/179 86/148/179 127/149/179
f 86/148/180 85/88/180 127/149/180
f 37/150/181 36/146/181 32/32/181
f 32/32/182 36/146/182 23/23/182
f 50/143/183 15/15/183 48/147/183
f 48/147/184 15/15/184 27/27/184
f 53/142/185 37/150/185 55/55/185
f 55/55/186 37/150/186 57/57/186
f 82/85/187 78/151/187 20/20/187
f 78/151/188 79/152/188 20/20/188
f 20/20/189 79/152/189 128/153/189
f 79/152/190 71/71/190 128/153/190
f 60/132/191 6/6/191 61/154/191
f 61/154/192 6/6/192 129/155/192
f 71/71/193 95/156/193 130/157/193
f 94/158/194 131/159/194 95/156/194
f 95/156/195 131/159/195 130/157/195
f 61/154/196 129/155/197 94/158/198
f 94/158/198 129/155/197 74/74/199
f 40/130/200 76/76/200 75/75/200
f 36/146/201 132/160/201 21/21/201
f 132/160/202 133/161/202 21/21/202
f 36/146/203 38/162/203 132/160/203
f 132/160/204 38/162/204 134/163/204
f 22/22/205 133/161/205 80/164/205
f 80/164/206 133/161/206 135/165/206
f 133/161/207 132/160/208 135/165/209
f 135/165/209 132/160/208 134/163/210
f 3/3/211 2/2/211 122/131/211
f 122/131/212 2/2/212 121/129/212
f 21/21/213 133/161/213 22/22/213
f 81/86/214 31/31/214 22/22/214
f 22/22/215 31/31/215 23/23/215
f 83/84/216 54/54/216 81/86/216
f 81/86/217 54/54/217 56/56/217
f 17/17/218 18/18/219 84/87/220
f 84/87/220 18/18/219 83/84/221
f 87/166/222 28/28/222 84/87/222
f 84/87/223 28/28/223 17/17/223
f 8/8/224 28/28/224 88/167/224
f 88/167/225 28/28/225 87/166/225
f 9/9/226 10/10/226 44/140/226
f 123/135/227 5/5/227 4/4/227
f 19/19/228 5/5/228 126/145/228
f 126/145/229 5/5/229 125/139/229
f 85/88/230 30/30/230 127/149/230
f 127/149/231 30/30/231 19/19/231
f 29/29/232 30/30/232 85/88/232
f 82/85/233 58/58/233 29/29/233
f 82/85/234 20/20/234 58/58/234
f 71/71/235 20/20/235 128/153/235
f 131/159/236 72/72/236 130/157/236
f 130/157/237 72/72/237 71/71/237
f 125/139/238 5/5/238 124/138/238
f 129/155/239 73/73/239 74/74/239
f 129/155/240 6/6/240 73/73/240
f 73/73/241 6/6/241 71/71/241
f 1/1/242 80/164/242 2/2/242
f 2/2/243 80/164/243 135/165/243
f 2/2/244 135/165/245 121/129/246
f 121/129/246 135/165/245 134/163/247
f 40/130/248 121/129/248 38/162/248
f 38/162/249 121/129/249 134/163/249
f 122/131/250 40/130/250 75/75/250
f 75/75/251 3/3/251 122/131/251
f 1/1/252 3/3/252 75/75/252
f 56/56/253 136/168/253 81/86/253
f 137/169/254 136/168/254 57/57/254
f 57/57/255 136/168/255 56/56/255
f 37/150/256 137/169/256 57/57/256
f 37/150/257 32/32/257 137/169/257
f 136/168/258 137/169/258 31/31/258
f 31/31/259 137/169/259 32/32/259
f 81/86/260 136/168/260 31/31/260
f 138/170/261 92/136/261 124/138/261
f 124/138/262 5/5/262 138/170/262
f 138/170/263 5/5/263 123/135/263
f 123/135/264 93/134/264 138/170/264
f 138/170/265 93/134/265 92/136/265
f 139/171/266 94/158/266 74/74/266
f 74/74/267 72/72/267 139/171/267
f 139/171/268 72/72/268 131/159/268
f 131/159/269 94/158/269 139/171/269
f 16/16/270 53/142/270 140/172/270
f 16/16/271 140/172/271 18/18/271
f 18/18/272 140/172/272 141/173/272
f 83/84/273 18/18/273 141/173/273
f 142/174/274 83/84/274 141/173/274
f 143/175/275 142/174/275 140/172/275
f 140/172/276 142/174/276 141/173/276
f 53/142/277 143/175/277 140/172/277
f 54/54/278 83/84/278 142/174/278
f 54/54/279 142/174/279 55/55/279
f 55/55/280 142/174/280 143/175/280
f 53/142/281 55/55/281 143/175/281
f 40/130/282 62/176/282 76/76/282
f 1/1/59 76/76/58 62/176/283
f 44/140/284 10/10/284 91/177/284
f 10/10/285 8/8/285 91/177/285
f 91/177/286 8/8/286 88/167/286
f 91/96/72 88/93/72 92/97/72
f 92/97/287 88/93/287 89/94/287
