# Blender v2.78 (sub 0) OBJ File: ''
# www.blender.org
mtllib SM_Env_Stalagmite_02.mtl
o SM_Env_Stalagmite_02
v 7.243164 -0.925898 -8.604462
v 3.805664 -8.490299 -5.043580
v -0.260010 -10.266010 -5.116212
v 7.886475 30.233730 -5.485591
v 10.565918 29.345940 1.031713
v 8.377441 13.276734 -7.137846
v 11.161133 -0.337881 -0.309692
v 8.339111 0.080746 -7.970856
v -2.374756 -10.443569 -4.160340
v -7.849609 -0.617098 -8.281769
v -0.270752 -0.249157 -11.542023
v -5.438721 -8.512947 -1.252931
v -9.150391 -2.101025 -4.668701
v -6.660156 0.360258 8.559631
v -11.502197 1.056959 0.229431
v -1.240723 -12.147038 0.243864
v 0.282227 1.195311 11.344360
v 0.672119 23.300138 11.542118
v -6.674316 21.133398 7.385441
v -7.138428 15.277505 8.321628
v 0.840088 35.740036 11.083227
v -5.900391 32.192570 7.957616
v 7.701904 0.459486 8.043152
v 1.948486 -9.989468 2.675505
v 11.501465 1.652300 0.579010
v 8.108398 31.039499 9.183233
v 2.181152 62.599171 -1.831075
v 6.849121 45.496197 1.216163
v 5.466797 40.156727 -4.423608
v 7.508789 39.405060 1.597204
v 1.356689 42.665001 -7.609765
v -6.627441 45.592205 0.054542
v -4.872314 38.577145 -7.287957
v -6.463135 36.875179 -6.494775
v -4.541504 43.782631 6.022834
v -2.946045 62.399189 0.123606
v 6.457275 41.114056 6.956794
v 2.969482 62.277222 -0.200918
v 0.000977 67.882317 -0.044087
v -2.037842 62.393837 -2.232137
v 7.309082 23.702457 -6.772182
v -7.611328 14.988092 -8.060269
v -0.155273 14.254992 -10.878445
v 0.893066 33.719933 -9.530024
v -3.520264 22.591970 -8.375179
v -10.227783 28.647852 -0.280909
v -8.677246 3.452814 7.337983
v -8.997559 37.647003 -0.296442
v 0.793945 48.933128 7.066811
v 2.530762 39.705292 9.910651
v 1.793457 62.612881 2.155802
v 7.676758 8.285639 -8.296812
vt 0.9431 0.5022
vt 0.9431 0.5022
vt 0.9431 0.5022
vt 0.9431 0.5022
vt 0.9431 0.5022
vt 0.9431 0.5022
vt 0.9431 0.5022
vt 0.9431 0.5022
vt 0.9431 0.5022
vt 0.9431 0.5022
vt 0.9431 0.5022
vt 0.9431 0.5022
vt 0.9431 0.5022
vt 0.9431 0.5022
vt 0.9431 0.5022
vt 0.9431 0.5022
vt 0.9431 0.5022
vt 0.9431 0.5022
vt 0.9431 0.5022
vt 0.9431 0.5022
vt 0.9431 0.5022
vt 0.9431 0.5022
vt 0.9431 0.5022
vt 0.9431 0.5022
vt 0.9431 0.5022
vt 0.9431 0.5022
vt 0.9431 0.5022
vt 0.9431 0.5022
vt 0.9431 0.5022
vt 0.9431 0.5022
vt 0.9431 0.5022
vt 0.9431 0.5022
vt 0.9431 0.5022
vt 0.9431 0.5022
vt 0.9431 0.5022
vt 0.9431 0.5022
vt 0.9431 0.5022
vt 0.9431 0.5022
vt 0.9431 0.5022
vt 0.9431 0.5022
vt 0.9431 0.5022
vt 0.9431 0.5022
vt 0.9431 0.5022
vt 0.9431 0.5022
vt 0.9431 0.5022
vt 0.9431 0.5022
vt 0.9431 0.5022
vt 0.9431 0.5022
vt 0.9431 0.5022
vt 0.9431 0.5022
vt 0.9431 0.5022
vt 0.9431 0.5022
vn 0.2328 -0.4988 -0.8349
vn 0.9260 0.0631 -0.3721
vn 0.7884 -0.5260 -0.3191
vn -0.3179 -0.5121 -0.7979
vn -0.3183 -0.5120 -0.7978
vn -0.3178 -0.5122 -0.7979
vn -0.3177 -0.5122 -0.7979
vn -0.7154 -0.6026 -0.3538
vn -0.7490 -0.5351 0.3906
vn -0.2322 -0.6063 0.7606
vn -0.5234 0.1748 0.8340
vn -0.4372 0.0390 0.8985
vn -0.4900 -0.0108 0.8717
vn 0.2902 -0.5589 0.7768
vn 0.7283 -0.5846 0.3574
vn 0.9586 0.0278 0.2832
vn 0.9029 0.1766 -0.3918
vn 0.9008 0.1750 -0.3975
vn 0.9038 0.1773 -0.3894
vn 0.9469 0.0831 -0.3108
vn 0.6692 0.1812 -0.7206
vn -0.7183 0.4092 -0.5627
vn -0.9054 0.1968 0.3761
vn 0.9810 0.1160 0.1555
vn 0.9396 0.2380 0.2458
vn -0.8375 0.4402 -0.3239
vn 0.7334 -0.5323 -0.4228
vn 0.2701 -0.5197 -0.8106
vn 0.6441 0.0926 -0.7593
vn -0.3959 0.0191 -0.9181
vn 0.4442 0.0381 -0.8951
vn -0.4491 0.0858 -0.8894
vn -0.9174 0.0197 -0.3976
vn -0.9212 -0.1048 -0.3747
vn -0.2258 0.0813 -0.9708
vn -0.8952 0.0783 -0.4387
vn -0.3635 0.0476 -0.9304
vn -0.4001 -0.0525 -0.9150
vn -0.6192 -0.7727 -0.1394
vn -0.8199 -0.3583 0.4466
vn -0.6708 -0.5897 0.4497
vn -0.8914 0.0390 0.4515
vn 0.4029 -0.0394 0.9144
vn 0.3156 -0.0141 0.9488
vn 0.2720 0.0318 0.9618
vn 0.8637 -0.3211 0.3884
vn 0.6634 -0.7081 -0.2419
vn 0.6843 -0.7111 0.1613
vn 0.6821 0.2402 -0.6907
vn 0.5103 0.1226 -0.8512
vn 0.5717 0.1438 -0.8078
vn -0.1909 0.2155 -0.9577
vn -0.1971 0.2252 -0.9542
vn -0.1918 0.2170 -0.9571
vn -0.1976 0.2260 -0.9539
vn -0.8763 0.2788 -0.3930
vn -0.9129 0.1241 -0.3887
vn -0.8994 0.1237 0.4192
vn -0.8771 0.1773 0.4463
vn -0.8886 0.2480 0.3858
vn -0.4231 0.2625 0.8672
vn -0.0194 0.2911 0.9565
vn 0.3313 0.1349 0.9338
vn 0.5062 0.2911 0.8118
vn 0.9475 0.2088 0.2423
vn 0.8995 0.1741 -0.4006
vn 0.8351 0.4511 -0.3148
vn 0.8308 0.4301 0.3533
vn -0.8976 0.1911 -0.3972
vn -0.9137 0.2016 -0.3527
vn -0.5108 0.2992 0.8060
vn 0.8747 0.2784 0.3968
vn 0.4966 0.0056 -0.8679
vn 0.3652 0.0139 -0.9308
vn -0.6684 -0.5719 -0.4755
vn -0.8475 -0.5265 -0.0675
vn 0.8927 -0.0286 0.4498
vn 0.9382 -0.0060 -0.3459
vn 0.9248 0.2557 -0.2817
vn -0.4966 0.1993 0.8448
vn 0.5173 0.2646 0.8139
vn 0.8980 0.2915 -0.3295
vn 0.9538 0.2845 0.0964
vn -0.1660 -0.6194 0.7673
vn -0.0762 -0.9364 -0.3426
vn 0.3922 -0.8881 -0.2399
vn 0.0721 0.3461 -0.9354
vn 0.0777 0.2746 -0.9584
vn -0.4513 0.2969 0.8415
vn 0.1808 0.3206 0.9298
vn -0.1316 0.3435 0.9299
vn 0.9350 0.0374 -0.3527
vn 0.9579 0.0153 -0.2867
vn 0.7753 0.0375 -0.6304
vn 0.6276 0.0914 -0.7732
vn 0.3794 0.1000 -0.9198
vn 0.3404 0.0403 -0.9394
vn -0.3376 0.1431 -0.9304
vn -0.3493 0.0456 -0.9359
vn -0.9265 0.0359 -0.3746
vn -0.9338 0.0497 0.3543
vn -0.8319 0.1513 0.5339
vn -0.8926 0.0793 0.4437
vn -0.5215 -0.0031 0.8532
vn -0.3732 -0.0014 0.9278
vn -0.3833 0.0024 0.9236
vn -0.3812 0.0016 0.9245
vn -0.3721 -0.0017 0.9282
usemtl None
s 1
f 1/1/1 2/2/1 3/3/1
f 4/4/2 5/5/2 6/6/2
f 7/7/3 2/2/3 8/8/3
f 9/9/4 10/10/5 11/11/6
f 3/3/7 9/9/4 11/11/6
f 9/9/8 12/12/8 13/13/8
f 14/14/9 15/15/9 12/12/9
f 16/16/10 17/17/10 14/14/10
f 18/18/11 19/19/11 20/20/11
f 18/18/12 21/21/12 22/22/12
f 18/18/13 22/22/13 19/19/13
f 23/23/14 17/17/14 24/24/14
f 23/23/15 24/24/15 7/7/15
f 25/25/16 5/5/16 26/26/16
f 27/27/17 28/28/18 29/29/19
f 29/29/20 28/28/20 30/30/20
f 31/31/21 27/27/21 29/29/21
f 32/32/22 33/33/22 34/34/22
f 35/35/23 36/36/23 32/32/23
f 30/30/24 28/28/24 37/37/24
f 28/28/25 38/38/25 37/37/25
f 39/39/26 40/40/26 36/36/26
f 1/1/27 8/8/27 2/2/27
f 1/1/28 3/3/28 11/11/28
f 4/4/29 6/6/29 41/41/29
f 11/11/30 10/10/30 42/42/30
f 41/41/31 43/43/31 44/44/31
f 43/43/32 45/45/32 44/44/32
f 42/42/33 10/10/33 15/15/33
f 10/10/34 13/13/34 15/15/34
f 45/45/35 42/42/35 34/34/35
f 42/42/36 46/46/36 34/34/36
f 45/45/37 34/34/37 44/44/37
f 44/44/38 34/34/38 33/33/38
f 16/16/39 12/12/39 9/9/39
f 15/15/40 14/14/40 47/47/40
f 14/14/41 12/12/41 16/16/41
f 19/19/42 22/22/42 46/46/42
f 17/17/43 23/23/43 26/26/43
f 18/18/44 17/17/44 26/26/44
f 18/18/45 26/26/45 21/21/45
f 23/23/46 7/7/46 25/25/46
f 7/7/47 24/24/47 16/16/47
f 7/7/48 16/16/48 2/2/48
f 4/4/49 31/31/49 29/29/49
f 4/4/50 41/41/50 31/31/50
f 31/31/51 41/41/51 44/44/51
f 44/44/52 33/33/53 31/31/54
f 31/31/54 33/33/53 40/40/55
f 34/34/56 48/48/56 32/32/56
f 48/48/57 34/34/57 46/46/57
f 48/48/58 46/46/58 22/22/58
f 48/48/59 22/22/59 35/35/59
f 32/32/60 48/48/60 35/35/60
f 35/35/61 21/21/61 49/49/61
f 21/21/62 50/50/62 49/49/62
f 50/50/63 21/21/63 26/26/63
f 50/50/64 37/37/64 51/51/64
f 37/37/65 26/26/65 5/5/65
f 28/28/18 27/27/17 38/38/66
f 38/38/67 27/27/67 39/39/67
f 38/38/68 39/39/68 51/51/68
f 40/40/69 33/33/69 32/32/69
f 40/40/70 32/32/70 36/36/70
f 36/36/71 35/35/71 39/39/71
f 51/51/72 37/37/72 38/38/72
f 8/8/73 1/1/73 52/52/73
f 1/1/74 11/11/74 52/52/74
f 9/9/75 13/13/75 10/10/75
f 12/12/76 15/15/76 13/13/76
f 23/23/77 25/25/77 26/26/77
f 7/7/78 8/8/78 25/25/78
f 29/29/79 30/30/79 4/4/79
f 21/21/80 35/35/80 22/22/80
f 37/37/81 50/50/81 26/26/81
f 4/4/82 30/30/82 5/5/82
f 30/30/83 37/37/83 5/5/83
f 17/17/84 16/16/84 24/24/84
f 3/3/85 16/16/85 9/9/85
f 2/2/86 16/16/86 3/3/86
f 40/40/87 39/39/87 27/27/87
f 40/40/88 27/27/88 31/31/88
f 49/49/89 39/39/89 35/35/89
f 50/50/90 51/51/90 49/49/90
f 51/51/91 39/39/91 49/49/91
f 25/25/92 8/8/92 5/5/92
f 5/5/93 8/8/93 6/6/93
f 8/8/94 52/52/94 6/6/94
f 52/52/95 41/41/95 6/6/95
f 52/52/96 43/43/96 41/41/96
f 52/52/97 11/11/97 43/43/97
f 42/42/98 45/45/98 43/43/98
f 42/42/99 43/43/99 11/11/99
f 15/15/100 46/46/100 42/42/100
f 15/15/101 47/47/101 46/46/101
f 20/20/102 19/19/102 46/46/102
f 47/47/103 20/20/103 46/46/103
f 47/47/104 14/14/104 20/20/104
f 18/18/105 20/20/106 14/14/107
f 14/14/107 17/17/108 18/18/105
