# This file uses centimeters as units for non-parametric coordinates.

v -7.463208 0.000000 29.725588
v 13.456339 0.000000 29.725588
v -7.463208 2.268871 29.725588
v 13.456339 2.268871 29.725588
v -7.463208 2.268871 8.806042
v 13.456339 2.268871 8.806042
v -7.463208 0.000000 8.806042
v 13.456339 0.000000 8.806042
v 0.593799 2.268871 33.655910
v 0.593799 0.000000 33.655910
v 2.996566 0.000000 4.063050
v 2.996566 2.268871 4.063050
v -11.275304 2.268871 19.265816
v 3.955936 2.268871 24.043242
v 17.268435 2.268871 19.265816
v 17.268435 0.000000 19.265816
v 3.955936 0.000000 24.043242
v -11.275304 0.000000 19.265816
v 5.033741 2.268871 32.794010
v 5.083205 0.000000 32.794010
v 40.547272 0.000000 11.527521
v 38.672733 0.000000 -6.018958
v 40.547272 1.913867 11.527521
v 38.672733 1.913867 -6.018958
v 23.000792 1.913867 13.402062
v 21.126251 1.913867 -4.144419
v 23.000792 0.000000 13.402062
v 21.126251 0.000000 -4.144419
v 43.121902 1.913867 4.417440
v 43.121902 0.000000 4.417440
v 18.085289 0.000000 5.053827
v 18.085289 1.913867 5.053827
v 32.115623 1.913867 15.662226
v 34.757912 1.913867 2.458778
v 29.557901 1.913867 -8.279124
v 29.557901 0.000000 -8.279124
v 34.757912 0.000000 2.458778
v 32.115623 0.000000 15.662226
v 42.001125 1.913867 0.770628
v 41.996693 0.000000 0.729139
v -26.868809 0.000000 -33.249153
v -43.121902 0.000000 -26.376772
v -26.868809 1.913867 -33.249153
v -43.121902 1.913867 -26.376772
v -19.996426 1.913867 -16.996059
v -36.249523 1.913867 -10.123674
v -19.996426 0.000000 -16.996059
v -36.249523 0.000000 -10.123674
v -34.419739 1.913867 -33.655910
v -34.419739 0.000000 -33.655910
v -26.564829 0.000000 -9.874876
v -26.564829 1.913867 -9.874876
v -20.470871 1.913867 -26.374939
v -33.873989 1.913867 -25.082991
v -42.647457 1.913867 -16.997894
v -42.647457 0.000000 -16.997894
v -33.873989 0.000000 -25.082991
v -20.470871 0.000000 -26.374939
v -37.586132 1.913867 -31.527681
v -37.624561 0.000000 -31.511433
vt 0.968996 0.551980
vt 0.968996 0.551980
vt 0.968996 0.551980
vt 0.968996 0.551980
vt 0.968996 0.551980
vt 0.968996 0.551980
vt 0.968996 0.551980
vt 0.968996 0.551980
vt 0.968996 0.551980
vt 0.968996 0.551980
vt 0.968996 0.551980
vt 0.968996 0.551980
vt 0.968996 0.551980
vt 0.968996 0.551980
vt 0.968996 0.551980
vt 0.968996 0.551980
vt 0.968996 0.551980
vt 0.968996 0.551980
vt 0.968996 0.551980
vt 0.968996 0.551980
vt 0.968996 0.551980
vt 0.968996 0.551980
vt 0.968996 0.551980
vt 0.968996 0.551980
vt 0.968996 0.551980
vt 0.968996 0.551980
vt 0.968996 0.551980
vt 0.968996 0.551980
vt 0.968996 0.551980
vt 0.968996 0.551980
vt 0.968996 0.551980
vt 0.968996 0.551980
vt 0.968996 0.551980
vt 0.968996 0.551980
vt 0.968996 0.551980
vt 0.968996 0.551980
vt 0.968996 0.551980
vt 0.968996 0.551980
vt 0.968996 0.551980
vt 0.968996 0.551980
vt 0.968996 0.551980
vt 0.968996 0.551980
vt 0.968996 0.551980
vt 0.968996 0.551980
vt 0.968996 0.551980
vt 0.968996 0.551980
vt 0.968996 0.551980
vt 0.968996 0.551980
vt 0.968996 0.551980
vt 0.968996 0.551980
vt 0.968996 0.551980
vt 0.968996 0.551980
vt 0.968996 0.551980
vt 0.968996 0.551980
vt 0.968996 0.551980
vt 0.968996 0.551980
vt 0.968996 0.551980
vt 0.968996 0.551980
vt 0.968996 0.551980
vt 0.968996 0.551980
vt 0.968996 0.551980
vt 0.968996 0.551980
vt 0.968996 0.551980
vt 0.968996 0.551980
vt 0.968996 0.551980
vt 0.968996 0.551980
vt 0.968996 0.551980
vt 0.968996 0.551980
vt 0.968996 0.551980
vt 0.968996 0.551980
vt 0.968996 0.551980
vt 0.968996 0.551980
vt 0.968996 0.551980
vt 0.968996 0.551980
vt 0.968996 0.551980
vt 0.968996 0.551980
vt 0.968996 0.551980
vt 0.968996 0.551980
vt 0.968996 0.551980
vt 0.968996 0.551980
vt 0.968996 0.551980
vt 0.968996 0.551980
vt 0.968996 0.551980
vt 0.968996 0.551980
vt 0.968996 0.551980
vt 0.968996 0.551980
vt 0.968996 0.551980
vt 0.968996 0.551980
vt 0.968996 0.551980
vt 0.968996 0.551980
vt 0.968996 0.551980
vt 0.968996 0.551980
vt 0.968996 0.551980
vt 0.968996 0.551980
vt 0.968996 0.551980
vt 0.968996 0.551980
vn 0.343188 0.003741 0.939259
vn 0.343188 0.003741 0.939259
vn 0.343188 0.003741 0.939259
vn 0.343188 0.003741 0.939259
vn 0.343188 0.003741 0.939259
vn 0.343188 0.003741 0.939259
vn 0.000000 1.000000 -0.000000
vn 0.000000 1.000000 -0.000000
vn 0.000000 1.000000 -0.000000
vn 0.000000 1.000000 -0.000000
vn 0.000000 1.000000 -0.000000
vn 0.000000 1.000000 -0.000000
vn 0.000000 0.000000 -1.000000
vn 0.000000 0.000000 -1.000000
vn 0.412976 0.000000 -0.910742
vn 0.412976 0.000000 -0.910742
vn 0.000000 0.000000 -1.000000
vn 0.412976 0.000000 -0.910742
vn 0.000000 -1.000000 0.000000
vn 0.000000 -1.000000 0.000000
vn 0.000000 -1.000000 0.000000
vn 0.000000 -1.000000 0.000000
vn 0.000000 -1.000000 0.000000
vn 0.000000 -1.000000 0.000000
vn 1.000000 0.000000 0.000000
vn 1.000000 0.000000 0.000000
vn 0.939547 0.000000 -0.342421
vn 0.939547 0.000000 -0.342421
vn 1.000000 0.000000 0.000000
vn 0.939547 0.000000 -0.342421
vn -0.939547 0.000000 -0.342421
vn -1.000000 0.000000 0.000000
vn -0.939547 0.000000 -0.342421
vn -0.939547 0.000000 -0.342421
vn -1.000000 0.000000 0.000000
vn -1.000000 0.000000 0.000000
vn -0.438431 0.000000 0.898765
vn -0.438431 0.000000 0.898765
vn -0.438431 0.000000 0.898765
vn -0.438431 0.000000 0.898765
vn -0.438431 0.000000 0.898765
vn -0.438431 0.000000 0.898765
vn 0.000000 -1.000000 0.000000
vn 0.000000 -1.000000 0.000000
vn 0.000000 -1.000000 0.000000
vn 0.000000 -1.000000 0.000000
vn 0.000000 -1.000000 0.000000
vn 0.000000 -1.000000 0.000000
vn -0.412976 0.000000 -0.910742
vn 0.000000 0.000000 -1.000000
vn -0.412976 0.000000 -0.910742
vn -0.412976 0.000000 -0.910742
vn 0.000000 0.000000 -1.000000
vn 0.000000 0.000000 -1.000000
vn 0.000000 1.000000 -0.000000
vn 0.000000 1.000000 -0.000000
vn 0.000000 1.000000 -0.000000
vn 0.000000 1.000000 -0.000000
vn 0.000000 1.000000 -0.000000
vn 0.000000 1.000000 -0.000000
vn 0.000000 1.000000 0.000000
vn 0.000000 1.000000 -0.000000
vn 0.000000 1.000000 0.000000
vn 0.000000 1.000000 0.000000
vn 0.000000 1.000000 -0.000000
vn 0.000000 1.000000 -0.000000
vn 0.000000 1.000000 -0.000000
vn 0.000000 1.000000 -0.000000
vn 0.000000 1.000000 -0.000000
vn 0.000000 1.000000 -0.000000
vn 0.000000 1.000000 -0.000000
vn 0.000000 1.000000 -0.000000
vn 0.939547 0.000000 0.342421
vn 1.000000 0.000000 0.000000
vn 0.939547 0.000000 0.342421
vn 0.939547 0.000000 0.342421
vn 1.000000 0.000000 0.000000
vn 1.000000 0.000000 0.000000
vn 0.000000 -1.000000 0.000000
vn 0.000000 -1.000000 0.000000
vn 0.000000 -1.000000 0.000000
vn 0.000000 -1.000000 0.000000
vn 0.000000 -1.000000 0.000000
vn 0.000000 -1.000000 0.000000
vn 0.000000 -1.000000 0.000000
vn 0.000000 -1.000000 0.000000
vn 0.000000 -1.000000 0.000000
vn 0.000000 -1.000000 0.000000
vn 0.000000 -1.000000 0.000000
vn 0.000000 -1.000000 0.000000
vn -1.000000 0.000000 0.000000
vn -1.000000 0.000000 0.000000
vn -0.939547 0.000000 0.342421
vn -0.939547 0.000000 0.342421
vn -1.000000 0.000000 0.000000
vn -0.939547 0.000000 0.342421
vn 0.943929 0.000000 0.330149
vn 0.189508 -0.020973 0.981655
vn 0.943929 0.000000 0.330149
vn 0.943929 0.000000 0.330149
vn 0.189508 -0.020973 0.981655
vn 0.189508 -0.020973 0.981655
vn 0.189508 -0.020973 0.981655
vn 0.189508 -0.020973 0.981655
vn -0.992098 -0.010814 0.124998
vn -0.992098 -0.010814 0.124998
vn 0.189508 -0.020973 0.981655
vn -0.992098 -0.010814 0.124998
vn 0.897489 0.003742 -0.441022
vn 0.897489 0.003742 -0.441022
vn 0.897489 0.003742 -0.441022
vn 0.897489 0.003742 -0.441022
vn 0.897489 0.003742 -0.441022
vn 0.897489 0.003742 -0.441022
vn 0.000000 1.000000 0.000000
vn 0.000000 1.000000 -0.000000
vn 0.000000 1.000000 0.000000
vn 0.000000 1.000000 0.000000
vn 0.000000 1.000000 -0.000000
vn 0.000000 1.000000 0.000000
vn -0.994342 0.000000 0.106228
vn -0.994342 0.000000 0.106228
vn -0.949458 0.000000 -0.313893
vn -0.949458 0.000000 -0.313893
vn -0.994342 0.000000 0.106228
vn -0.949458 0.000000 -0.313893
vn 0.000000 -1.000000 0.000000
vn 0.000000 -1.000000 0.000000
vn 0.000000 -1.000000 0.000000
vn 0.000000 -1.000000 0.000000
vn 0.000000 -1.000000 0.000000
vn 0.000000 -1.000000 0.000000
vn -0.106228 0.000000 -0.994342
vn -0.106228 0.000000 -0.994342
vn -0.440290 0.000000 -0.897856
vn -0.440290 0.000000 -0.897856
vn -0.106228 0.000000 -0.994342
vn -0.440290 0.000000 -0.897856
vn -0.240677 0.000000 0.970605
vn 0.106228 0.000000 0.994342
vn -0.240677 0.000000 0.970605
vn -0.240677 0.000000 0.970605
vn 0.106228 0.000000 0.994342
vn 0.106228 0.000000 0.994342
vn 0.940254 0.000000 0.340475
vn 0.940254 0.000000 0.340475
vn 0.940254 0.000000 0.340475
vn 0.940254 0.000000 0.340475
vn 0.940254 0.000000 0.340475
vn 0.940254 0.000000 0.340475
vn 0.000000 -1.000000 0.000000
vn 0.000000 -1.000000 0.000000
vn 0.000000 -1.000000 0.000000
vn 0.000000 -1.000000 0.000000
vn 0.000000 -1.000000 0.000000
vn 0.000000 -1.000000 0.000000
vn -0.861719 0.000000 0.507386
vn -0.994342 0.000000 0.106228
vn -0.861719 0.000000 0.507386
vn -0.861719 0.000000 0.507386
vn -0.994342 0.000000 0.106228
vn -0.994342 0.000000 0.106228
vn 0.000000 1.000000 0.000000
vn 0.000000 1.000000 -0.000000
vn 0.000000 1.000000 0.000000
vn 0.000000 1.000000 0.000000
vn 0.000000 1.000000 -0.000000
vn 0.000000 1.000000 0.000000
vn 0.000000 1.000000 0.000000
vn 0.000000 1.000000 -0.000000
vn 0.000000 1.000000 0.000000
vn 0.000000 1.000000 0.000000
vn 0.000000 1.000000 -0.000000
vn 0.000000 1.000000 0.000000
vn 0.000000 1.000000 0.000000
vn 0.000000 1.000000 -0.000000
vn 0.000000 1.000000 -0.000000
vn 0.000000 1.000000 -0.000000
vn 0.000000 1.000000 -0.000000
vn 0.000000 1.000000 -0.000000
vn 0.240677 0.000000 -0.970605
vn -0.106228 0.000000 -0.994342
vn 0.240677 0.000000 -0.970605
vn 0.240677 0.000000 -0.970605
vn -0.106228 0.000000 -0.994342
vn -0.106228 0.000000 -0.994342
vn 0.000000 -1.000000 0.000000
vn 0.000000 -1.000000 0.000000
vn 0.000000 -1.000000 0.000000
vn 0.000000 -1.000000 0.000000
vn 0.000000 -1.000000 0.000000
vn 0.000000 -1.000000 0.000000
vn 0.000000 -1.000000 0.000000
vn 0.000000 -1.000000 0.000000
vn 0.000000 -1.000000 0.000000
vn 0.000000 -1.000000 0.000000
vn 0.000000 -1.000000 0.000000
vn 0.000000 -1.000000 0.000000
vn 0.106228 0.000000 0.994342
vn 0.106228 0.000000 0.994342
vn 0.440290 0.000000 0.897856
vn 0.440290 0.000000 0.897856
vn 0.106228 0.000000 0.994342
vn 0.440290 0.000000 0.897856
vn 0.228009 0.000000 -0.973659
vn 0.955970 -0.020973 -0.292714
vn 0.228009 0.000000 -0.973659
vn 0.228009 0.000000 -0.973659
vn 0.955970 -0.020973 -0.292714
vn 0.955970 -0.020973 -0.292714
vn 0.955970 -0.020973 -0.292714
vn 0.955970 -0.020973 -0.292714
vn 0.229679 -0.010814 0.973206
vn 0.229679 -0.010814 0.973206
vn 0.955970 -0.020973 -0.292714
vn 0.229679 -0.010814 0.973206
vn -0.681888 0.003740 -0.731447
vn -0.681888 0.003740 -0.731447
vn -0.681888 0.003740 -0.731447
vn -0.681888 0.003740 -0.731447
vn -0.681888 0.003740 -0.731447
vn -0.681888 0.003740 -0.731447
vn 0.000000 1.000000 0.000000
vn 0.000000 1.000000 0.000000
vn 0.000000 1.000000 0.000000
vn 0.000000 1.000000 0.000000
vn 0.000000 1.000000 0.000000
vn 0.000000 1.000000 0.000000
vn 0.389451 0.000000 0.921047
vn 0.389451 0.000000 0.921047
vn -0.025681 0.000000 0.999670
vn -0.025681 0.000000 0.999670
vn 0.389451 0.000000 0.921047
vn -0.025681 0.000000 0.999670
vn 0.000000 -1.000000 0.000000
vn 0.000000 -1.000000 0.000000
vn 0.000000 -1.000000 0.000000
vn 0.000000 -1.000000 0.000000
vn 0.000000 -1.000000 0.000000
vn 0.000000 -1.000000 0.000000
vn -0.921047 0.000000 0.389451
vn -0.921047 0.000000 0.389451
vn -0.732011 0.000000 0.681293
vn -0.732011 0.000000 0.681293
vn -0.921047 0.000000 0.389451
vn -0.732011 0.000000 0.681293
vn 0.998723 0.000000 -0.050522
vn 0.921047 0.000000 -0.389451
vn 0.998723 0.000000 -0.050522
vn 0.998723 0.000000 -0.050522
vn 0.921047 0.000000 -0.389451
vn 0.921047 0.000000 -0.389451
vn 0.053791 0.000000 -0.998552
vn 0.053791 0.000000 -0.998552
vn 0.053791 0.000000 -0.998552
vn 0.053791 0.000000 -0.998552
vn 0.053791 0.000000 -0.998552
vn 0.053791 0.000000 -0.998552
vn 0.000000 -1.000000 0.000000
vn 0.000000 -1.000000 0.000000
vn 0.000000 -1.000000 0.000000
vn 0.000000 -1.000000 0.000000
vn 0.000000 -1.000000 0.000000
vn 0.000000 -1.000000 0.000000
vn 0.735060 0.000000 0.678002
vn 0.389451 0.000000 0.921047
vn 0.735060 0.000000 0.678002
vn 0.735060 0.000000 0.678002
vn 0.389451 0.000000 0.921047
vn 0.389451 0.000000 0.921047
vn 0.000000 1.000000 0.000000
vn 0.000000 1.000000 0.000000
vn 0.000000 1.000000 0.000000
vn 0.000000 1.000000 0.000000
vn 0.000000 1.000000 0.000000
vn 0.000000 1.000000 0.000000
vn 0.000000 1.000000 0.000000
vn 0.000000 1.000000 0.000000
vn 0.000000 1.000000 0.000000
vn 0.000000 1.000000 0.000000
vn 0.000000 1.000000 0.000000
vn 0.000000 1.000000 0.000000
vn 0.000000 1.000000 0.000000
vn 0.000000 1.000000 0.000000
vn 0.000000 1.000000 0.000000
vn 0.000000 1.000000 0.000000
vn 0.000000 1.000000 0.000000
vn 0.000000 1.000000 0.000000
vn -0.998723 0.000000 0.050522
vn -0.921047 0.000000 0.389451
vn -0.998723 0.000000 0.050522
vn -0.998723 0.000000 0.050522
vn -0.921047 0.000000 0.389451
vn -0.921047 0.000000 0.389451
vn 0.000000 -1.000000 0.000000
vn 0.000000 -1.000000 0.000000
vn 0.000000 -1.000000 0.000000
vn 0.000000 -1.000000 0.000000
vn 0.000000 -1.000000 0.000000
vn 0.000000 -1.000000 0.000000
vn 0.000000 -1.000000 0.000000
vn 0.000000 -1.000000 0.000000
vn 0.000000 -1.000000 0.000000
vn 0.000000 -1.000000 0.000000
vn 0.000000 -1.000000 0.000000
vn 0.000000 -1.000000 0.000000
vn 0.921047 0.000000 -0.389451
vn 0.921047 0.000000 -0.389451
vn 0.732010 0.000000 -0.681293
vn 0.732010 0.000000 -0.681293
vn 0.921047 0.000000 -0.389451
vn 0.732010 0.000000 -0.681293
vn -0.997980 0.000000 0.063531
vn -0.556853 -0.020973 -0.830347
vn -0.997980 0.000000 0.063531
vn -0.997980 0.000000 0.063531
vn -0.556853 -0.020973 -0.830347
vn -0.556853 -0.020973 -0.830347
vn -0.556853 -0.020973 -0.830347
vn -0.556853 -0.020973 -0.830347
vn 0.865089 -0.010814 -0.501503
vn 0.865089 -0.010814 -0.501503
vn -0.556853 -0.020973 -0.830347
vn 0.865089 -0.010814 -0.501503
s off
f 19/30/1 20/31/2 4/4/3
f 4/4/4 20/31/5 2/2/6
f 12/19/7 14/22/8 6/6/9
f 6/6/10 14/22/11 15/23/12
f 11/18/13 12/19/14 8/8/15
f 8/8/16 12/19/17 6/6/18
f 16/25/19 17/27/20 8/8/21
f 8/8/22 17/27/23 11/18/24
f 15/24/25 16/26/26 6/12/27
f 6/12/28 16/26/29 8/11/30
f 7/13/31 18/28/32 5/14/33
f 5/14/34 18/28/35 13/20/36
f 1/1/37 10/16/38 3/3/39
f 3/3/40 10/16/41 9/15/42
f 11/18/43 17/27/44 7/7/45
f 7/7/46 17/27/47 18/29/48
f 5/5/49 12/19/50 7/7/51
f 7/7/52 12/19/53 11/18/54
f 13/21/55 14/22/56 5/5/57
f 5/5/58 14/22/59 12/19/60
f 9/15/61 14/22/62 3/3/63
f 3/3/64 14/22/65 13/21/66
f 15/23/67 14/22/68 4/4/69
f 4/4/70 14/22/71 19/30/72
f 2/2/73 16/26/74 4/4/75
f 4/4/76 16/26/77 15/24/78
f 20/32/79 17/27/80 2/10/81
f 2/10/82 17/27/83 16/25/84
f 18/29/85 17/27/86 1/9/87
f 1/9/88 17/27/89 10/17/90
f 13/20/91 18/28/92 3/3/93
f 3/3/94 18/28/95 1/1/96
f 10/17/97 17/27/98 9/15/99
f 9/15/100 17/27/101 14/22/102
f 14/22/103 17/27/104 19/30/105
f 19/30/106 17/27/107 20/31/108
f 39/33/109 40/34/110 24/36/111
f 24/36/112 40/34/113 22/35/114
f 32/37/115 34/38/116 26/40/117
f 26/40/118 34/38/119 35/39/120
f 31/41/121 32/37/122 28/42/123
f 28/42/124 32/37/125 26/40/126
f 36/43/127 37/44/128 28/42/129
f 28/42/130 37/44/131 31/41/132
f 35/45/133 36/46/134 26/48/135
f 26/48/136 36/46/137 28/47/138
f 27/49/139 38/50/140 25/52/141
f 25/52/142 38/50/143 33/51/144
f 21/53/145 30/54/146 23/56/147
f 23/56/148 30/54/149 29/55/150
f 31/41/151 37/44/152 27/57/153
f 27/57/154 37/44/155 38/58/156
f 25/59/157 32/37/158 27/57/159
f 27/57/160 32/37/161 31/41/162
f 33/60/163 34/38/164 25/59/165
f 25/59/166 34/38/167 32/37/168
f 29/55/169 34/38/170 23/56/171
f 23/56/172 34/38/173 33/60/174
f 35/39/175 34/38/176 24/36/177
f 24/36/178 34/38/179 39/33/180
f 22/35/181 36/46/182 24/36/183
f 24/36/184 36/46/185 35/45/186
f 40/61/187 37/44/188 22/62/189
f 22/62/190 37/44/191 36/43/192
f 38/58/193 37/44/194 21/64/195
f 21/64/196 37/44/197 30/63/198
f 33/51/199 38/50/200 23/56/201
f 23/56/202 38/50/203 21/53/204
f 30/63/205 37/44/206 29/55/207
f 29/55/208 37/44/209 34/38/210
f 34/38/211 37/44/212 39/33/213
f 39/33/214 37/44/215 40/34/216
f 59/65/217 60/66/218 44/68/219
f 44/68/220 60/66/221 42/67/222
f 52/69/223 54/70/224 46/72/225
f 46/72/226 54/70/227 55/71/228
f 51/73/229 52/69/230 48/74/231
f 48/74/232 52/69/233 46/72/234
f 56/75/235 57/76/236 48/74/237
f 48/74/238 57/76/239 51/73/240
f 55/77/241 56/78/242 46/80/243
f 46/80/244 56/78/245 48/79/246
f 47/81/247 58/82/248 45/84/249
f 45/84/250 58/82/251 53/83/252
f 41/85/253 50/86/254 43/88/255
f 43/88/256 50/86/257 49/87/258
f 51/73/259 57/76/260 47/89/261
f 47/89/262 57/76/263 58/90/264
f 45/91/265 52/69/266 47/89/267
f 47/89/268 52/69/269 51/73/270
f 53/92/271 54/70/272 45/91/273
f 45/91/274 54/70/275 52/69/276
f 49/87/277 54/70/278 43/88/279
f 43/88/280 54/70/281 53/92/282
f 55/71/283 54/70/284 44/68/285
f 44/68/286 54/70/287 59/65/288
f 42/67/289 56/78/290 44/68/291
f 44/68/292 56/78/293 55/77/294
f 60/93/295 57/76/296 42/94/297
f 42/94/298 57/76/299 56/75/300
f 58/90/301 57/76/302 41/96/303
f 41/96/304 57/76/305 50/95/306
f 53/83/307 58/82/308 43/88/309
f 43/88/310 58/82/311 41/85/312
f 50/95/313 57/76/314 49/87/315
f 49/87/316 57/76/317 54/70/318
f 54/70/319 57/76/320 59/65/321
f 59/65/322 57/76/323 60/66/324
