# Blender v2.78 (sub 0) OBJ File: ''
# www.blender.org
mtllib SM_Env_Stalagmite_01.mtl
o SM_Env_Stalagmite_01
v 0.319580 -18.922125 -10.453280
v 6.348633 -22.764828 -5.990636
v 0.063721 -22.684820 -6.887304
v 6.384521 1.396962 -4.749753
v 9.956299 -1.740283 2.637574
v 7.858642 -5.321277 -6.829956
v 1.071289 -24.939939 -1.431463
v 3.873291 -23.236933 4.481318
v -0.329590 -4.997872 -10.259856
v -6.825195 0.097608 -6.069638
v 0.547607 1.588100 -7.879605
v -4.878418 -23.614435 0.459620
v -7.715088 -20.789419 -0.057134
v -2.529785 -24.123102 -3.005346
v -10.309082 -6.754062 -0.619628
v -5.797119 6.619337 0.039373
v -3.862305 2.624097 6.850497
v -6.921143 -6.988847 7.525605
v -1.754151 -4.511133 9.988130
v -1.805664 -24.418428 2.553613
v 0.314209 -23.436846 4.811732
v 0.972900 -15.300433 10.682828
v 7.751709 -18.701096 6.871335
v 7.962890 -0.846793 6.585299
v 1.050537 4.230254 7.894137
v 0.994873 -3.592067 10.407105
v 10.978760 -16.917189 0.894498
v 8.120361 -14.473072 7.715788
v 3.594482 12.062500 -2.672297
v 0.521240 9.520539 -5.103907
v -3.087158 12.411412 -3.508385
v -1.067627 22.799393 -0.969229
v -1.330322 20.680649 1.533273
v 1.006103 10.086677 5.194555
v 1.195068 22.191422 1.195321
v 4.947998 7.568094 3.805272
v 4.315185 13.213877 0.381965
v 0.063965 24.939938 -0.057026
v 0.143555 21.488369 -1.986807
v -7.543457 -11.452508 -8.044466
v -7.301758 -16.534393 -7.422671
v -10.978760 -15.405149 -0.322910
v -9.556396 -17.740501 2.359006
v -5.261719 -20.596243 5.619961
v -7.549561 -15.200911 7.948301
v 1.121338 -9.174662 10.895720
v 10.799316 -18.995100 -0.052769
v 6.880127 -20.727398 -8.127050
v 0.976318 -17.448174 -10.895724
v 7.916992 -13.794684 -7.735568
v 10.978515 -17.526478 -0.931979
v -10.453125 -8.019891 0.477080
vt 0.9431 0.5022
vt 0.9431 0.5022
vt 0.9431 0.5022
vt 0.9431 0.5022
vt 0.9431 0.5022
vt 0.9431 0.5022
vt 0.9431 0.5022
vt 0.9431 0.5022
vt 0.9431 0.5022
vt 0.9431 0.5022
vt 0.9431 0.5022
vt 0.9431 0.5022
vt 0.9431 0.5022
vt 0.9431 0.5022
vt 0.9431 0.5022
vt 0.9431 0.5022
vt 0.9431 0.5022
vt 0.9431 0.5022
vt 0.9431 0.5022
vt 0.9431 0.5022
vt 0.9431 0.5022
vt 0.9431 0.5022
vt 0.9431 0.5022
vt 0.9431 0.5022
vt 0.9431 0.5022
vt 0.9431 0.5022
vt 0.9431 0.5022
vt 0.9431 0.5022
vt 0.9431 0.5022
vt 0.9431 0.5022
vt 0.9431 0.5022
vt 0.9431 0.5022
vt 0.9431 0.5022
vt 0.9431 0.5022
vt 0.9431 0.5022
vt 0.9431 0.5022
vt 0.9431 0.5022
vt 0.9431 0.5022
vt 0.9431 0.5022
vt 0.9431 0.5022
vt 0.9431 0.5022
vt 0.9431 0.5022
vt 0.9431 0.5022
vt 0.9431 0.5022
vt 0.9431 0.5022
vt 0.9431 0.5022
vt 0.9431 0.5022
vt 0.9431 0.5022
vt 0.9431 0.5022
vt 0.9431 0.5022
vt 0.9431 0.5022
vt 0.9431 0.5022
vn 0.0939 -0.6882 -0.7194
vn 0.9033 0.2950 -0.3115
vn 0.9016 0.2928 -0.3183
vn 0.9034 0.2947 -0.3116
vn 0.4239 -0.9038 0.0594
vn -0.2904 0.3592 -0.8869
vn -0.6358 -0.6985 -0.3284
vn -0.9278 0.3223 -0.1879
vn -0.9280 0.3220 -0.1875
vn -0.9286 0.3210 -0.1864
vn -0.8558 0.3018 0.4201
vn -0.5033 0.2189 0.8359
vn 0.0835 -0.9402 0.3303
vn 0.1075 -0.5875 0.8021
vn 0.1680 -0.5681 0.8056
vn 0.3739 0.2813 0.8838
vn 0.9245 0.0186 0.3808
vn 0.9026 0.2957 -0.3127
vn 0.4590 0.2948 -0.8381
vn 0.4414 0.2814 -0.8520
vn -0.2008 0.2693 -0.9419
vn -0.1514 0.3260 -0.9332
vn -0.9221 0.2512 -0.2943
vn -0.9288 0.3206 -0.1860
vn -0.8876 0.2402 0.3930
vn -0.3128 0.3957 0.8635
vn -0.1340 0.2972 0.9454
vn -0.0610 0.3140 0.9475
vn 0.4584 0.4225 0.7819
vn 0.4691 0.2704 0.8407
vn 0.5077 0.3638 0.7809
vn 0.8019 0.3729 0.4668
vn 0.9074 0.2876 0.3066
vn 0.8469 0.4138 0.3340
vn 0.8920 0.3111 -0.3278
vn -0.4897 0.2052 -0.8474
vn -0.1025 0.3772 0.9204
vn -0.0109 -0.8975 -0.4408
vn 0.4511 0.3528 -0.8198
vn 0.0346 -0.9445 -0.3268
vn -0.4013 -0.1300 -0.9067
vn -0.4509 -0.5977 -0.6630
vn -0.6465 -0.6443 -0.4085
vn -0.4998 -0.6485 -0.5742
vn -0.8900 -0.0968 -0.4455
vn -0.4310 0.1781 -0.8846
vn -0.6800 -0.6614 0.3164
vn -0.6967 -0.6405 0.3229
vn -0.2190 -0.9757 -0.0052
vn -0.8836 0.2796 0.3756
vn -0.7089 -0.5106 0.4865
vn -0.2929 -0.7453 0.5989
vn -0.4842 -0.7705 0.4147
vn -0.3156 -0.0099 0.9488
vn -0.2736 -0.4766 0.8355
vn -0.1722 -0.5672 0.8054
vn 0.3872 -0.0414 0.9211
vn -0.2898 0.2946 0.9106
vn 0.1272 -0.9675 0.2184
vn 0.8803 -0.2576 0.3984
vn 0.6358 -0.7069 0.3099
vn 0.8959 0.0470 0.4418
vn 0.5651 -0.8194 0.0966
vn 0.9007 0.2912 -0.3223
vn 0.4756 0.2357 -0.8475
vn 0.7734 0.3228 -0.5455
vn -0.2063 0.4739 -0.8561
vn 0.9358 0.3352 -0.1096
vn -0.8977 0.3782 0.2260
vn 0.8117 -0.5101 -0.2845
vn 0.0421 -0.7282 -0.6840
vn 0.4193 -0.0115 -0.9078
vn 0.8773 -0.3208 -0.3570
vn 0.8836 -0.1064 -0.4560
vn 0.2189 -0.3687 -0.9034
vn -0.3816 -0.1056 -0.9183
vn -0.9037 -0.3468 -0.2511
vn -0.6800 -0.6921 -0.2421
vn -0.8794 0.0110 0.4760
vn -0.9381 -0.0196 0.3457
vn -0.3057 -0.0257 0.9518
vn 0.3955 -0.2129 0.8934
vn 0.8877 -0.1634 0.4305
vn 0.9943 -0.1012 0.0336
vn -0.2815 0.2766 -0.9188
vn -0.2287 -0.9728 -0.0378
vn -0.9476 0.2859 0.1426
vn 0.4611 0.0787 0.8838
vn 0.4531 0.0870 0.8872
vn 0.4533 0.0867 0.8871
vn 0.4522 0.0879 0.8876
vn 0.9973 0.0699 -0.0234
vn 0.9586 0.1204 -0.2579
vn 0.9204 0.0478 -0.3880
vn 0.2835 0.1563 -0.9461
vn 0.3676 0.1013 -0.9245
vn -0.3069 0.0164 -0.9516
vn 0.7883 0.1136 -0.6047
vn -0.9229 0.0584 -0.3807
vn -0.9005 0.1271 -0.4159
vn -0.9962 0.0756 -0.0436
vn -0.8956 0.0909 0.4355
vn -0.8388 0.4079 0.3606
vn -0.4601 0.0807 0.8842
vn -0.1768 0.0818 0.9808
vn -0.2484 0.3275 0.9116
usemtl None
s 1
f 1/1/1 2/2/1 3/3/1
f 4/4/2 5/5/3 6/6/4
f 7/7/5 2/2/5 8/8/5
f 9/9/6 10/10/6 11/11/6
f 12/12/7 13/13/7 14/14/7
f 15/15/8 16/16/9 10/10/10
f 17/17/11 16/16/11 18/18/11
f 19/19/12 17/17/12 18/18/12
f 20/20/13 8/8/13 21/21/13
f 21/21/14 8/8/14 22/22/14
f 23/23/15 22/22/15 8/8/15
f 24/24/16 25/25/16 26/26/16
f 27/27/17 5/5/17 28/28/17
f 29/29/18 5/5/3 4/4/2
f 11/11/19 30/30/19 4/4/19
f 30/30/20 29/29/20 4/4/20
f 31/31/21 32/32/21 30/30/21
f 31/31/22 30/30/22 11/11/22
f 16/16/23 32/32/23 31/31/23
f 16/16/9 31/31/24 10/10/10
f 33/33/25 16/16/25 17/17/25
f 25/25/26 34/34/26 17/17/26
f 34/34/27 33/33/27 17/17/27
f 34/34/28 35/35/28 33/33/28
f 24/24/29 36/36/29 25/25/29
f 36/36/30 35/35/30 34/34/30
f 25/25/31 36/36/31 34/34/31
f 5/5/32 37/37/32 36/36/32
f 36/36/33 37/37/33 35/35/33
f 5/5/34 36/36/34 24/24/34
f 29/29/35 38/38/35 37/37/35
f 32/32/36 39/39/36 30/30/36
f 38/38/37 33/33/37 35/35/37
f 2/2/38 7/7/38 14/14/38
f 6/6/39 11/11/39 4/4/39
f 3/3/40 2/2/40 14/14/40
f 40/40/41 1/1/41 41/41/41
f 1/1/42 3/3/42 41/41/42
f 13/13/43 41/41/43 14/14/43
f 41/41/44 3/3/44 14/14/44
f 40/40/45 41/41/45 42/42/45
f 9/9/46 40/40/46 10/10/46
f 43/43/47 13/13/47 44/44/47
f 44/44/48 13/13/48 12/12/48
f 12/12/49 14/14/49 7/7/49
f 15/15/50 18/18/50 16/16/50
f 45/45/51 43/43/51 44/44/51
f 21/21/52 44/44/52 20/20/52
f 44/44/53 12/12/53 20/20/53
f 45/45/54 46/46/54 19/19/54
f 45/45/55 44/44/55 22/22/55
f 22/22/56 44/44/56 21/21/56
f 46/46/57 22/22/57 28/28/57
f 17/17/58 26/26/58 25/25/58
f 8/8/59 20/20/59 7/7/59
f 27/27/60 23/23/60 47/47/60
f 23/23/61 8/8/61 47/47/61
f 28/28/62 5/5/62 24/24/62
f 47/47/63 8/8/63 2/2/63
f 5/5/3 29/29/18 37/37/64
f 39/39/65 29/29/65 30/30/65
f 29/29/66 39/39/66 38/38/66
f 39/39/67 32/32/67 38/38/67
f 38/38/68 35/35/68 37/37/68
f 38/38/69 32/32/69 33/33/69
f 2/2/70 48/48/70 47/47/70
f 2/2/71 1/1/71 48/48/71
f 48/48/72 49/49/72 50/50/72
f 47/47/73 48/48/73 51/51/73
f 51/51/74 48/48/74 50/50/74
f 48/48/75 1/1/75 49/49/75
f 49/49/76 1/1/76 40/40/76
f 41/41/77 13/13/77 43/43/77
f 41/41/78 43/43/78 42/42/78
f 42/42/79 43/43/79 52/52/79
f 43/43/80 45/45/80 52/52/80
f 45/45/81 22/22/81 46/46/81
f 22/22/82 23/23/82 28/28/82
f 23/23/83 27/27/83 28/28/83
f 47/47/84 51/51/84 27/27/84
f 31/31/85 11/11/85 10/10/85
f 20/20/86 12/12/86 7/7/86
f 16/16/87 33/33/87 32/32/87
f 28/28/88 24/24/89 46/46/90
f 24/24/89 26/26/91 46/46/90
f 27/27/92 51/51/92 5/5/92
f 5/5/93 51/51/93 6/6/93
f 6/6/94 51/51/94 50/50/94
f 49/49/95 11/11/95 6/6/95
f 49/49/96 6/6/96 50/50/96
f 49/49/97 40/40/97 9/9/97
f 49/49/98 9/9/98 11/11/98
f 42/42/99 15/15/99 40/40/99
f 15/15/100 10/10/100 40/40/100
f 42/42/101 52/52/101 15/15/101
f 45/45/102 18/18/102 52/52/102
f 52/52/103 18/18/103 15/15/103
f 45/45/104 19/19/104 18/18/104
f 19/19/105 46/46/105 26/26/105
f 19/19/106 26/26/106 17/17/106
