# Blender v2.78 (sub 0) OBJ File: ''
# www.blender.org
mtllib SM_Env_Flower_01.mtl
o SM_Env_Flower_01
v -2.139824 31.024891 10.879892
v -0.185616 24.966854 8.292893
v 6.518143 29.815895 8.009717
v 5.379417 24.507278 5.634415
v -1.581692 24.361031 -7.621565
v 1.651367 30.423685 -10.879834
v 4.379982 24.065575 -5.921196
v 6.698524 28.162395 -6.764849
v 11.717094 28.763123 3.471505
v 7.058617 24.137943 -0.330494
v -7.150482 24.832329 -4.958023
v -8.825863 25.189943 1.001854
v -7.480560 28.579868 -5.770458
v -11.717041 31.422508 -1.431685
v -6.134537 25.264767 6.586216
v -7.061497 29.241562 7.019609
v 5.919067 27.448959 -0.422672
v 4.129265 27.592804 -5.256325
v -1.356834 28.267891 -6.614528
v -5.898010 28.416542 -4.575675
v -7.007542 28.252777 0.575677
v -4.541901 28.085316 4.774251
v 0.059410 28.070309 6.539139
v 4.554138 27.925220 4.934780
v 4.189064 29.446255 -4.866095
v 4.677124 31.079739 -0.646151
v -0.913651 32.087856 -5.454707
v -5.139442 30.359287 -4.374076
v -4.973705 31.627550 -0.002211
v -3.562893 29.569962 3.794057
v 0.332695 31.492397 4.505567
v 4.166939 29.793758 4.705850
v -0.626396 27.361198 0.156536
v -1.384048 21.869217 -2.266620
v 1.500130 21.732674 0.296627
v -4.184883 22.325012 0.760956
v -0.878647 22.152027 3.418213
v 0.607410 5.074982 1.330419
v -1.146492 0.000000 1.807255
v -2.864182 5.196473 -1.748626
v -3.340694 0.052696 -0.135139
v -6.240402 5.650761 1.897637
v -5.477474 0.286831 2.170475
v -2.260635 5.494369 5.088941
v -2.961895 0.217099 4.183578
v 0.302250 15.197621 0.068823
v -0.573040 15.410071 2.144267
v -2.783089 15.545547 1.139948
v -1.660557 15.310205 -0.943604
vt 0.6101 0.7066
vt 0.6101 0.7066
vt 0.6101 0.7066
vt 0.6101 0.7066
vt 0.6101 0.7066
vt 0.6101 0.7066
vt 0.6101 0.7066
vt 0.6101 0.7066
vt 0.6101 0.7066
vt 0.6101 0.7066
vt 0.6101 0.7066
vt 0.6101 0.7066
vt 0.6101 0.7066
vt 0.6101 0.7066
vt 0.6101 0.7066
vt 0.6101 0.7066
vt 0.6101 0.7066
vt 0.6101 0.7066
vt 0.6101 0.7066
vt 0.6101 0.7066
vt 0.6101 0.7066
vt 0.6101 0.7066
vt 0.6101 0.7066
vt 0.6101 0.7066
vt 0.6101 0.7066
vt 0.6101 0.7066
vt 0.6101 0.7066
vt 0.6101 0.7066
vt 0.6101 0.7066
vt 0.6101 0.7066
vt 0.6101 0.7066
vt 0.6101 0.7066
vt 0.6101 0.7066
vt 0.6101 0.7066
vt 0.6101 0.7066
vt 0.6101 0.7066
vt 0.6101 0.7066
vt 0.9656 0.4562
vt 0.9656 0.4562
vt 0.9656 0.4562
vt 0.9656 0.4562
vt 0.9656 0.4562
vt 0.9656 0.4562
vt 0.9656 0.4562
vt 0.9656 0.4562
vt 0.9656 0.4562
vt 0.9656 0.4562
vt 0.9656 0.4562
vt 0.9656 0.4562
vt 0.9656 0.4562
vt 0.9656 0.4562
vt 0.9656 0.4562
vt 0.9656 0.4562
vn 0.2606 -0.3068 0.9154
vn 0.3561 -0.4442 0.8221
vn 0.2047 -0.5458 -0.8125
vn 0.4537 -0.4188 -0.7866
vn 0.7885 -0.5006 -0.3572
vn 0.7760 -0.5143 -0.3651
vn -0.9553 -0.1405 -0.2601
vn -0.7582 -0.5102 -0.4060
vn -0.2796 -0.1682 0.9453
vn -0.4338 -0.4686 0.7696
vn -0.4387 -0.2325 -0.8680
vn -0.4363 -0.2282 -0.8704
vn -0.4386 -0.2323 -0.8682
vn -0.4358 -0.2272 -0.8709
vn -0.8749 -0.2421 0.4195
vn -0.8718 -0.2479 0.4225
vn -0.8747 -0.2424 0.4197
vn -0.8711 -0.2492 0.4232
vn 0.5940 -0.7752 0.2152
vn 0.5394 -0.4376 0.7194
vn -0.2681 0.9605 0.0751
vn -0.1648 0.9822 0.0902
vn 0.0529 0.9011 0.4303
vn -0.0016 0.8929 0.4502
vn 0.1138 0.8521 0.5109
vn 0.0588 0.9966 0.0583
vn 0.5580 0.8298 0.0012
vn 0.0679 0.9966 0.0463
vn 0.0198 0.8978 -0.4400
vn 0.1889 0.8537 -0.4853
vn 0.5885 0.7998 -0.1178
vn 0.3056 0.9415 -0.1419
vn -0.0831 0.8037 -0.5892
vn -0.1342 0.8801 -0.4555
vn -0.1901 0.8858 -0.4233
vn -0.1401 0.9825 -0.1230
vn 0.9373 0.0426 -0.3458
vn 0.9262 0.3030 -0.2244
vn 0.2580 0.1911 -0.9471
vn 0.2407 0.2563 -0.9362
vn -0.3905 0.2446 -0.8875
vn -0.3523 0.3091 -0.8834
vn -0.8567 0.4873 -0.1690
vn -0.9265 0.3692 -0.0720
vn -0.2708 0.6484 0.7115
vn -0.3860 0.4938 0.7792
vn -0.6258 0.6730 0.3943
vn -0.6849 0.5030 0.5272
vn 0.3357 0.1828 0.9241
vn 0.1738 0.4928 0.8526
vn 0.9490 0.2238 0.2219
vn 0.9296 0.3283 0.1675
vn -0.5816 0.7790 -0.2343
vn 0.3108 0.7347 0.6030
vn -0.1440 0.7532 0.6418
vn 0.6864 0.6910 -0.2265
vn -0.2432 0.7295 -0.6393
vn 0.6923 0.7102 0.1276
vn 0.3236 0.6494 -0.6882
vn -0.5533 0.8204 0.1444
vn 0.0759 -0.9030 -0.4230
vn 0.3754 -0.9115 -0.1681
vn 0.1915 -0.9448 -0.2658
vn -0.2650 -0.8779 -0.3987
vn -0.3697 -0.9061 -0.2056
vn -0.5264 -0.8446 -0.0973
vn -0.1886 -0.8386 0.5111
vn -0.4989 -0.8293 0.2516
vn -0.3193 -0.8847 0.3396
vn 0.4075 -0.8972 0.1703
vn 0.1565 -0.8648 0.4771
vn 0.2386 -0.9217 0.3057
vn 0.6303 -0.2857 -0.7219
vn 0.6310 -0.2851 -0.7215
vn 0.6314 -0.2848 -0.7213
vn 0.6316 -0.2847 -0.7212
vn -0.7352 -0.1400 -0.6633
vn -0.7342 -0.1390 -0.6645
vn -0.7336 -0.1384 -0.6653
vn -0.7334 -0.1382 -0.6656
vn -0.6260 -0.0503 0.7782
vn -0.6250 -0.0494 0.7790
vn -0.6254 -0.0498 0.7787
vn -0.6249 -0.0492 0.7792
vn 0.7663 -0.2077 0.6079
vn 0.7681 -0.2063 0.6062
vn 0.7664 -0.2076 0.6078
vn 0.7684 -0.2061 0.6059
vn -0.0624 -0.9971 0.0434
vn 0.9215 0.0753 0.3809
vn 0.7966 0.0435 0.6030
vn -0.3753 0.3220 0.8692
vn -0.5966 0.2664 0.7570
vn -0.8648 0.1413 -0.4819
vn -0.7074 0.1952 -0.6793
vn 0.4591 0.0161 -0.8882
vn 0.6603 -0.0732 -0.7474
vn 0.7877 -0.0797 0.6109
vn 0.8999 -0.1788 0.3978
vn -0.6269 -0.0863 0.7743
vn -0.4159 -0.1870 0.8900
vn -0.7349 -0.1884 -0.6515
vn -0.8816 -0.0573 -0.4685
vn 0.6492 -0.1766 -0.7399
vn 0.4554 -0.0525 -0.8887
usemtl None
s 1
f 1/1/1 2/2/1 3/3/1
f 3/3/2 2/2/2 4/4/2
f 5/5/3 6/6/3 7/7/3
f 7/7/4 6/6/4 8/8/4
f 9/9/5 10/10/5 8/8/5
f 8/8/6 10/10/6 7/7/6
f 11/11/7 12/12/7 13/13/7
f 13/13/8 12/12/8 14/14/8
f 15/15/9 2/2/9 16/16/9
f 16/16/10 2/2/10 1/1/10
f 6/6/11 5/5/12 13/13/13
f 13/13/13 5/5/12 11/11/14
f 14/14/15 12/12/16 16/16/17
f 16/16/17 12/12/16 15/15/18
f 10/10/19 9/9/19 4/4/19
f 4/4/20 9/9/20 3/3/20
f 9/9/21 8/8/21 17/17/21
f 17/17/22 8/8/22 18/18/22
f 8/8/23 6/6/23 18/18/23
f 18/18/24 6/6/24 19/19/24
f 6/6/25 13/13/25 19/19/25
f 19/19/26 13/13/26 20/20/26
f 14/14/27 21/21/27 13/13/27
f 13/13/28 21/21/28 20/20/28
f 16/16/29 1/1/29 22/22/29
f 22/22/30 1/1/30 23/23/30
f 14/14/31 16/16/31 21/21/31
f 21/21/32 16/16/32 22/22/32
f 1/1/33 3/3/33 23/23/33
f 23/23/34 3/3/34 24/24/34
f 3/3/35 9/9/35 24/24/35
f 24/24/36 9/9/36 17/17/36
f 18/18/37 25/25/37 17/17/37
f 17/17/38 25/25/38 26/26/38
f 18/18/39 19/19/39 25/25/39
f 25/25/40 19/19/40 27/27/40
f 20/20/41 28/28/41 19/19/41
f 19/19/42 28/28/42 27/27/42
f 21/21/43 29/29/43 20/20/43
f 20/20/44 29/29/44 28/28/44
f 22/22/45 23/23/45 30/30/45
f 30/30/46 23/23/46 31/31/46
f 22/22/47 30/30/47 21/21/47
f 21/21/48 30/30/48 29/29/48
f 24/24/49 32/32/49 23/23/49
f 23/23/50 32/32/50 31/31/50
f 24/24/51 17/17/51 32/32/51
f 32/32/52 17/17/52 26/26/52
f 26/26/53 25/25/53 33/33/53
f 25/25/54 27/27/54 33/33/54
f 27/27/55 28/28/55 33/33/55
f 28/28/56 29/29/56 33/33/56
f 30/30/57 31/31/57 33/33/57
f 29/29/58 30/30/58 33/33/58
f 31/31/59 32/32/59 33/33/59
f 32/32/60 26/26/60 33/33/60
f 5/5/61 7/7/61 34/34/61
f 10/10/62 35/35/62 7/7/62
f 7/7/63 35/35/63 34/34/63
f 5/5/64 34/34/64 11/11/64
f 11/11/65 34/34/65 36/36/65
f 12/12/66 11/11/66 36/36/66
f 2/2/67 15/15/67 37/37/67
f 12/12/68 36/36/68 15/15/68
f 15/15/69 36/36/69 37/37/69
f 10/10/70 4/4/70 35/35/70
f 2/2/71 37/37/71 4/4/71
f 4/4/72 37/37/72 35/35/72
f 38/38/73 39/39/74 40/40/75
f 40/40/75 39/39/74 41/41/76
f 40/40/77 41/41/78 42/42/79
f 42/42/79 41/41/78 43/43/80
f 44/44/81 42/42/82 45/45/83
f 45/45/83 42/42/82 43/43/84
f 38/38/85 44/44/86 39/39/87
f 39/39/87 44/44/86 45/45/88
f 39/39/89 45/45/89 41/41/89
f 41/41/89 45/45/89 43/43/89
f 46/46/90 47/47/90 38/38/90
f 38/38/91 47/47/91 44/44/91
f 47/47/92 48/48/92 44/44/92
f 44/44/93 48/48/93 42/42/93
f 49/49/94 40/40/94 48/48/94
f 48/48/95 40/40/95 42/42/95
f 49/49/96 46/46/96 40/40/96
f 40/40/97 46/46/97 38/38/97
f 37/50/98 47/47/98 35/51/98
f 35/51/99 47/47/99 46/46/99
f 36/52/100 48/48/100 37/50/100
f 37/50/101 48/48/101 47/47/101
f 36/52/102 34/53/102 48/48/102
f 48/48/103 34/53/103 49/49/103
f 34/53/104 35/51/104 49/49/104
f 49/49/105 35/51/105 46/46/105
