# Blender v2.78 (sub 0) OBJ File: ''
# www.blender.org
mtllib SM_Env_Road_Straight_02_Snow.mtl
o SM_Env_Road_Straight_02_Snow
v 19.274673 12.299765 100.000000
v 13.764633 14.310158 65.102753
v 0.000000 19.187891 100.000000
v 0.000000 21.198284 66.666664
v -23.424393 8.407871 100.000000
v -34.046387 8.407866 66.666656
v 300.000000 25.834715 66.666664
v 300.000000 19.187891 100.000000
v 323.424408 8.407866 66.666656
v 323.424408 8.407871 100.000000
v 280.725311 12.299765 100.000000
v 268.163818 18.946587 64.029381
v 34.938217 8.407862 100.000000
v 29.428192 8.987171 65.102753
v 265.061737 8.407862 100.000000
v 252.500244 9.076292 64.029373
v 82.396362 -0.000035 99.999992
v 75.856331 -0.000030 69.351364
v 34.938217 -0.000035 99.999992
v 29.428192 0.579274 65.102753
v 265.061737 -0.000035 99.999992
v 252.500244 0.668395 64.029373
v 217.603592 -0.000035 99.999992
v 222.030396 -0.000030 69.029503
v 130.910797 -0.000035 99.999992
v 129.213577 -0.000030 67.691841
v 169.089142 -0.000035 99.999992
v 163.217804 -0.000030 66.940819
v 300.000000 19.187908 -0.000015
v 300.000000 25.834721 33.333336
v 323.424408 8.407887 -0.000015
v 331.919586 8.407873 30.414732
v 284.926727 18.946592 30.692545
v 280.725311 12.299782 -0.000015
v 269.263184 9.076297 30.692543
v 265.061737 8.407877 -0.000015
v 269.263184 0.668400 30.692541
v 265.061737 -0.000018 -0.000019
v 218.444031 -0.000024 31.751844
v 217.603592 -0.000018 -0.000019
v 159.631439 -0.000024 29.663155
v 169.089142 -0.000018 -0.000019
v 133.157471 -0.000024 30.187664
v 130.910797 -0.000018 -0.000019
v 66.162758 -0.000023 29.237051
v 82.396362 -0.000018 -0.000019
v 45.116867 0.579280 30.576399
v 34.938217 -0.000018 -0.000019
v 45.116867 8.987176 30.576401
v 34.938217 8.407877 -0.000015
v 29.453308 14.310163 30.576401
v 19.274673 12.299782 -0.000015
v 0.000000 21.198290 33.333336
v 0.000000 19.187908 -0.000015
v -34.046387 8.407872 33.333332
v -23.424393 8.407887 -0.000015
v 19.274673 3.891868 100.000000
v 0.000000 10.779997 100.000000
v -34.046387 -0.000030 66.666656
v -23.424393 -0.000026 100.000000
v 19.274673 3.891885 -0.000015
v 0.000000 10.780012 -0.000015
v -23.424393 -0.000009 -0.000019
v -34.046387 -0.000024 33.333328
v 323.424408 -0.000026 100.000000
v 300.000000 10.779997 100.000000
v 323.424408 -0.000030 66.666656
v 280.725311 3.891868 100.000000
v 331.919586 -0.000024 30.414730
v 323.424408 -0.000009 -0.000019
v 300.000000 10.780012 -0.000015
v 280.725311 3.891885 -0.000015
vt 0.5612 0.7545
vt 0.5612 0.7545
vt 0.5612 0.7545
vt 0.5612 0.7545
vt 0.5612 0.7545
vt 0.5612 0.7545
vt 0.5612 0.7545
vt 0.5612 0.7545
vt 0.5612 0.7545
vt 0.5612 0.7545
vt 0.5612 0.7545
vt 0.5612 0.7545
vt 0.5612 0.7545
vt 0.5612 0.7545
vt 0.5612 0.7545
vt 0.5612 0.7545
vt 0.9517 0.3609
vt 0.9517 0.3609
vt 0.9517 0.3609
vt 0.9517 0.3609
vt 0.9517 0.3609
vt 0.9517 0.3609
vt 0.9517 0.3609
vt 0.9517 0.3609
vt 0.9434 0.3073
vt 0.9434 0.3073
vt 0.9434 0.3073
vt 0.9434 0.3073
vt 0.9434 0.3073
vt 0.9434 0.3073
vt 0.9434 0.3073
vt 0.9434 0.3073
vt 0.9517 0.3609
vt 0.9517 0.3609
vt 0.9517 0.3609
vt 0.9517 0.3609
vt 0.5612 0.7545
vt 0.5612 0.7545
vt 0.5612 0.7545
vt 0.5612 0.7545
vt 0.5612 0.7545
vt 0.5612 0.7545
vt 0.5612 0.7545
vt 0.5612 0.7545
vt 0.9517 0.3609
vt 0.9517 0.3609
vt 0.9517 0.3609
vt 0.9517 0.3609
vt 0.9434 0.3073
vt 0.9434 0.3073
vt 0.9434 0.3073
vt 0.9434 0.3073
vt 0.9517 0.3609
vt 0.9517 0.3609
vt 0.9517 0.3609
vt 0.9517 0.3609
vt 0.9434 0.3073
vt 0.9434 0.3073
vt 0.9434 0.3073
vt 0.9434 0.3073
vt 0.9517 0.3609
vt 0.9517 0.3609
vt 0.9517 0.3609
vt 0.9517 0.3609
vt 0.5612 0.7545
vt 0.5612 0.7545
vt 0.5612 0.7545
vt 0.5612 0.7545
vt 0.5612 0.7545
vt 0.5612 0.7545
vt 0.5612 0.7545
vt 0.5612 0.7545
vt 0.5612 0.7545
vt 0.5612 0.7545
vt 0.5612 0.7545
vt 0.5612 0.7545
vt 0.5612 0.7545
vt 0.5612 0.7545
vt 0.5612 0.7545
vt 0.5612 0.7545
vt 0.5612 0.7545
vt 0.5612 0.7545
vt 0.5612 0.7545
vt 0.5612 0.7545
vt 0.5612 0.7545
vt 0.5612 0.7545
vt 0.5612 0.7545
vt 0.5612 0.7545
vt 0.5612 0.7545
vt 0.5612 0.7545
vt 0.5612 0.7545
vt 0.5612 0.7545
vt 0.5612 0.7545
vt 0.5612 0.7545
vt 0.5612 0.7545
vt 0.5612 0.7545
vn 0.3365 0.9417 0.0011
vn 0.4517 0.8905 0.0537
vn -0.4174 0.9071 0.0547
vn -0.3495 0.9303 0.1114
vn 0.5894 0.7922 0.1580
vn 0.4181 0.9084 -0.0000
vn -0.3307 0.9255 0.1845
vn -0.2254 0.9410 0.2526
vn -0.2245 0.9412 0.2523
vn -0.2316 0.9390 0.2544
vn 0.2411 0.9703 -0.0220
vn 0.3218 0.9468 0.0037
vn -0.2332 0.9384 0.2548
vn -0.5226 0.8293 0.1979
vn 0.0000 1.0000 0.0000
vn 0.0111 0.9998 0.0148
vn 0.0111 0.9998 0.0146
vn 0.0120 0.9999 0.0056
vn 0.0000 0.9998 0.0186
vn -0.0225 0.9997 -0.0032
vn -0.0232 0.9997 -0.0009
vn -0.0216 0.9998 0.0018
vn 0.4114 0.8939 -0.1782
vn 0.4659 0.8752 -0.1301
vn -0.3824 0.9061 -0.1807
vn -0.3324 0.9302 -0.1559
vn -0.5299 0.8409 -0.1096
vn -0.2411 0.9704 0.0119
vn -0.0133 0.9999 -0.0076
vn -0.0136 0.9997 -0.0199
vn -0.0152 0.9997 -0.0172
vn 0.0258 0.9993 -0.0275
vn 0.3193 0.9395 -0.1241
vn 0.2387 0.9606 -0.1426
vn 0.2137 0.9676 -0.1347
vn 0.3360 0.9402 -0.0567
vn -0.3495 0.9303 -0.1114
vn -0.4174 0.9071 -0.0547
vn 0.5969 0.8023 0.0000
vn 0.4841 0.8676 0.1134
vn -0.2023 0.9740 -0.1017
vn -0.4156 0.9095 0.0000
vn -0.5149 0.8172 -0.2589
vn 0.0120 0.9999 0.0054
vn 0.0271 0.9996 -0.0065
vn 0.3184 0.9369 0.1447
vn 0.4475 0.8943 0.0000
vn 0.2359 0.9658 0.1072
vn -0.3517 0.9361 0.0000
vn 0.0000 -0.0000 1.0000
vn -0.9528 0.0000 0.3036
vn 0.9878 0.0000 -0.1560
vn 0.9488 0.0000 -0.3159
vn -0.0000 0.0000 -1.0000
vn -0.9528 0.0000 -0.3036
vn 0.9104 0.0000 0.4137
vn -1.0000 0.0000 0.0000
vn 1.0000 0.0000 0.0000
vn -0.9441 0.0000 0.3297
vn 0.9631 0.0000 -0.2690
vn -0.9908 0.0000 0.1356
vn 0.9736 0.0000 0.2282
vn -0.8934 0.0000 -0.4492
usemtl None
s 1
f 1/1/1 2/2/1 3/3/1
f 3/3/2 2/2/2 4/4/2
f 3/3/3 4/4/3 5/5/3
f 5/5/4 4/4/4 6/6/4
f 7/7/5 8/8/5 9/9/5
f 9/9/6 8/8/6 10/10/6
f 8/8/7 7/7/7 11/11/7
f 11/11/8 7/7/9 12/12/10
f 13/13/11 14/14/11 1/1/11
f 1/1/12 14/14/12 2/2/12
f 11/11/8 12/12/10 15/15/13
f 15/15/14 12/12/14 16/16/14
f 17/17/15 18/18/15 19/19/15
f 19/19/16 18/18/17 20/20/18
f 21/21/19 22/22/19 23/23/19
f 23/23/20 22/22/21 24/24/22
f 25/25/15 26/26/15 17/27/15
f 17/27/15 26/26/15 18/28/15
f 23/29/15 24/30/15 27/31/15
f 27/31/15 24/30/15 28/32/15
f 27/33/15 28/34/15 25/35/15
f 25/35/15 28/34/15 26/36/15
f 29/37/23 30/38/23 31/39/23
f 31/39/24 30/38/24 32/40/24
f 30/38/25 29/37/25 33/41/25
f 33/41/26 29/37/26 34/42/26
f 33/41/27 34/42/27 35/43/27
f 35/43/28 34/42/28 36/44/28
f 37/45/29 38/46/30 39/47/31
f 39/47/15 38/46/15 40/48/15
f 41/49/15 39/50/15 42/51/15
f 42/51/15 39/50/15 40/52/15
f 43/53/15 41/54/15 44/55/15
f 44/55/15 41/54/15 42/56/15
f 45/57/15 43/58/15 46/59/15
f 46/59/15 43/58/15 44/60/15
f 47/61/32 45/62/32 48/63/32
f 48/63/15 45/62/15 46/64/15
f 49/65/33 50/66/33 51/67/33
f 51/67/34 50/66/34 52/68/34
f 51/67/35 52/68/35 53/69/35
f 53/69/36 52/68/36 54/70/36
f 55/71/37 53/69/37 56/72/37
f 56/72/38 53/69/38 54/70/38
f 7/7/39 9/9/39 30/38/39
f 30/38/40 9/9/40 32/40/40
f 12/12/41 7/7/41 33/41/41
f 33/41/42 7/7/42 30/38/42
f 16/16/43 12/12/43 35/43/43
f 35/43/43 12/12/43 33/41/43
f 24/24/22 22/22/21 39/47/31
f 39/47/31 22/22/21 37/45/29
f 24/30/15 39/50/15 28/32/15
f 28/32/15 39/50/15 41/49/15
f 26/36/15 28/34/15 43/53/15
f 43/53/15 28/34/15 41/54/15
f 26/26/15 43/58/15 18/28/15
f 18/28/15 43/58/15 45/57/15
f 20/20/18 18/18/17 47/61/44
f 47/61/45 18/18/45 45/62/45
f 2/2/46 14/14/46 51/67/46
f 51/67/46 14/14/46 49/65/46
f 4/4/47 2/2/47 53/69/47
f 53/69/48 2/2/48 51/67/48
f 6/6/49 4/4/49 55/71/49
f 55/71/49 4/4/49 53/69/49
f 57/73/50 1/1/50 58/74/50
f 58/74/50 1/1/50 3/3/50
f 59/75/51 60/76/51 6/6/51
f 6/6/51 60/76/51 5/5/51
f 60/76/50 58/74/50 5/5/50
f 5/5/50 58/74/50 3/3/50
f 19/77/50 13/13/50 57/73/50
f 57/73/50 13/13/50 1/1/50
f 19/77/52 20/78/52 13/13/52
f 13/13/52 20/78/52 14/14/52
f 48/79/53 50/66/53 47/80/53
f 47/80/53 50/66/53 49/65/53
f 48/79/54 61/81/54 50/66/54
f 50/66/54 61/81/54 52/68/54
f 61/81/54 62/82/54 52/68/54
f 52/68/54 62/82/54 54/70/54
f 63/83/54 56/72/54 62/82/54
f 62/82/54 56/72/54 54/70/54
f 63/83/55 64/84/55 56/72/55
f 56/72/55 64/84/55 55/71/55
f 20/78/56 47/80/56 14/14/56
f 14/14/56 47/80/56 49/65/56
f 64/84/57 59/75/57 55/71/57
f 55/71/57 59/75/57 6/6/57
f 65/85/50 10/10/50 66/86/50
f 66/86/50 10/10/50 8/8/50
f 65/85/58 67/87/58 10/10/58
f 10/10/58 67/87/58 9/9/58
f 68/88/50 66/86/50 11/11/50
f 11/11/50 66/86/50 8/8/50
f 21/89/50 68/88/50 15/15/50
f 15/15/50 68/88/50 11/11/50
f 21/89/59 15/15/59 22/90/59
f 22/90/59 15/15/59 16/16/59
f 69/91/60 70/92/60 32/40/60
f 32/40/60 70/92/60 31/39/60
f 70/92/54 71/93/54 31/39/54
f 31/39/54 71/93/54 29/37/54
f 72/94/54 34/42/54 71/93/54
f 71/93/54 34/42/54 29/37/54
f 38/95/54 36/44/54 72/94/54
f 72/94/54 36/44/54 34/42/54
f 38/95/61 37/96/61 36/44/61
f 36/44/61 37/96/61 35/43/61
f 67/87/62 69/91/62 9/9/62
f 9/9/62 69/91/62 32/40/62
f 37/96/63 22/90/63 35/43/63
f 35/43/63 22/90/63 16/16/63
