# Blender v2.78 (sub 0) OBJ File: ''
# www.blender.org
mtllib SM_Env_SnowPile_02.mtl
o SM_Env_SnowPile_02
v -59.687500 15.902617 57.759663
v -38.495392 -1.983685 96.292084
v -43.782578 13.567209 77.672333
v -59.746002 -1.983685 86.994965
v 7.990517 -1.983685 104.261078
v -21.229179 11.027431 94.963867
v -7.925350 18.276415 88.277351
v 23.444855 14.088118 84.511360
v 45.175934 -1.983685 93.631012
v 40.780228 2.947067 83.701111
v -77.011200 -1.983681 60.427734
v -2.517761 14.761715 71.336281
v 16.932831 21.294453 72.949623
v 43.548843 17.381763 69.393440
v 53.295059 15.212614 54.287693
v 51.809433 10.037977 79.013458
v 81.039032 -1.983681 61.758606
v 75.715118 13.433073 55.105106
v -91.789459 9.594143 43.278782
v -103.618347 -1.983673 32.556335
v -73.079132 13.724606 44.907459
v -56.144150 23.007898 38.704472
v -83.805573 10.294222 38.867954
v -22.490105 25.630112 49.570774
v -26.449623 38.276867 29.830679
v -4.904917 25.532913 54.918827
v -8.360718 48.668983 33.654320
v 15.319328 27.066261 49.910652
v 57.399719 14.256891 35.912876
v 90.095428 0.123745 31.610657
v 75.248596 16.345783 25.751451
v 99.633728 -1.983677 56.446777
v -92.632782 -1.983673 15.753333
v -72.270081 27.658016 25.322666
v -54.689499 44.010876 27.300385
v -77.520111 27.939137 17.796627
v -40.572556 66.786346 6.546955
v -22.130798 48.316437 15.855881
v -15.347893 52.451641 23.181740
v 14.570972 44.679928 29.624779
v 25.686737 42.099789 25.911306
v 19.265541 64.413666 15.561526
v 38.361282 39.660564 14.161905
v 50.240158 34.631084 13.869085
v 59.777557 21.770132 15.276599
v 99.637878 -1.983673 28.539871
v -99.810303 -1.983665 -11.289285
v -92.282440 15.473215 -7.272996
v -61.294556 43.185898 13.727397
v -61.221985 53.345413 2.899054
v -30.136307 65.971832 0.431703
v -20.887268 70.830078 0.096287
v -10.230762 72.922516 8.872440
v -1.027186 83.210632 4.576324
v -6.630503 85.835327 -2.069980
v 6.665787 88.582703 -9.592839
v 43.399841 52.968491 2.238574
v 63.222687 27.954443 11.569118
v 56.814621 43.674896 7.030866
v 85.707703 16.891502 1.189085
v 96.504761 -1.983669 5.862486
v -82.157623 26.699978 -19.512127
v -83.199249 14.956068 -29.476728
v -43.110657 67.379364 2.206515
v -24.901505 66.932739 -8.145455
v -48.438278 59.107239 -11.361841
v -59.982971 20.093842 -42.270519
v -70.314606 28.762486 -29.642300
v -18.308968 80.284180 -16.050776
v -24.266640 53.062889 -34.693348
v 2.231027 86.973694 -22.565928
v -9.558475 83.205139 -24.979784
v 11.149776 87.278595 -15.320993
v 47.324677 46.955399 -10.627888
v 31.738190 57.113686 -39.025517
v 7.906368 85.763062 -23.642023
v 67.209808 29.819521 -11.835227
v 48.114853 46.920860 -40.811241
v 76.468994 16.235867 -18.196165
v 94.210236 -1.983662 -33.852310
v -82.744232 3.305927 -41.852642
v -94.257172 -1.983662 -45.810349
v -48.375702 21.674454 -47.335934
v -33.708084 34.029335 -45.054222
v -14.096687 60.550514 -40.035862
v 3.612431 80.166908 -34.202881
v 62.275116 29.324255 -36.709755
v 70.883820 16.969482 -48.084148
v 81.039673 -1.983658 -75.041382
v -71.791412 13.461952 -50.905178
v -69.020691 6.627897 -64.391876
v -24.262192 25.908703 -69.368370
v 30.069901 42.540428 -51.788628
v -11.233742 45.017204 -53.641548
v 20.148453 36.907360 -61.103905
v 0.767381 30.630474 -61.745323
v 36.618118 50.168816 -46.738117
v 53.816711 28.410172 -48.671425
v 29.394394 20.397800 -69.727470
v 62.548859 16.934965 -76.362083
v -69.043243 -1.983658 -77.697845
v -53.105148 -1.983654 -89.651337
v -36.598145 12.198141 -78.169312
v -35.839020 -1.983654 -94.963959
v -10.512501 20.356001 -83.921898
v 9.056759 18.511923 -77.606926
v 5.469168 12.680904 -87.998230
v 41.322678 20.066717 -81.441826
v 51.820282 11.523605 -93.635925
v 69.086182 -1.983654 -98.948456
v 23.928497 -1.983654 -101.604736
v 6.546534 -13.824284 89.368774
v -33.213821 -13.824280 82.552704
v 84.930847 -13.824276 48.472336
v 84.934326 -13.824272 24.602873
v -45.709854 -13.824257 -76.488403
v -30.941788 -13.824253 -81.032501
v 58.802826 -13.824253 -84.440521
v 69.026917 -13.824257 -63.992340
v 20.178604 -13.824253 -86.712494
v -51.389908 -13.824280 74.600708
v -66.157227 -13.824276 51.877274
v 69.026398 -13.824276 53.015594
v 82.254547 -13.824268 5.206453
v 38.351974 -13.824280 80.276642
v -88.914795 -13.824272 28.038237
v -79.518616 -13.824272 13.666265
v -85.657745 -13.824268 -9.463794
v 80.292023 -13.824265 -28.762484
v -80.908020 -13.824261 -38.990387
v -59.342010 -13.824257 -66.264435
v -1.370437 -13.824265 0.776524
vt 0.5635 0.7910
vt 0.5635 0.7910
vt 0.5635 0.7910
vt 0.5635 0.7910
vt 0.5635 0.7910
vt 0.5635 0.7910
vt 0.5635 0.7910
vt 0.5635 0.7910
vt 0.5635 0.7910
vt 0.5635 0.7910
vt 0.5635 0.7910
vt 0.5635 0.7910
vt 0.5635 0.7910
vt 0.5635 0.7910
vt 0.5635 0.7910
vt 0.5635 0.7910
vt 0.5635 0.7910
vt 0.5635 0.7910
vt 0.5635 0.7910
vt 0.5635 0.7910
vt 0.5635 0.7910
vt 0.5635 0.7910
vt 0.5635 0.7910
vt 0.5635 0.7910
vt 0.5635 0.7910
vt 0.5635 0.7910
vt 0.5635 0.7910
vt 0.5635 0.7910
vt 0.5635 0.7910
vt 0.5635 0.7910
vt 0.5635 0.7910
vt 0.5635 0.7910
vt 0.5635 0.7910
vt 0.5635 0.7910
vt 0.5635 0.7910
vt 0.5635 0.7910
vt 0.5635 0.7910
vt 0.5635 0.7910
vt 0.5635 0.7910
vt 0.5635 0.7910
vt 0.5635 0.7910
vt 0.5635 0.7910
vt 0.5635 0.7910
vt 0.5635 0.7910
vt 0.5635 0.7910
vt 0.5635 0.7910
vt 0.5635 0.7910
vt 0.5635 0.7910
vt 0.5635 0.7910
vt 0.5635 0.7910
vt 0.5635 0.7910
vt 0.5635 0.7910
vt 0.5635 0.7910
vt 0.5635 0.7910
vt 0.5635 0.7910
vt 0.5635 0.7910
vt 0.5635 0.7910
vt 0.5635 0.7910
vt 0.5635 0.7910
vt 0.5635 0.7910
vt 0.5635 0.7910
vt 0.5635 0.7910
vt 0.5635 0.7910
vt 0.5635 0.7910
vt 0.5635 0.7910
vt 0.5635 0.7910
vt 0.5635 0.7910
vt 0.5635 0.7910
vt 0.5635 0.7910
vt 0.5635 0.7910
vt 0.5635 0.7910
vt 0.5635 0.7910
vt 0.5635 0.7910
vt 0.5635 0.7910
vt 0.5635 0.7910
vt 0.5635 0.7910
vt 0.5635 0.7910
vt 0.5635 0.7910
vt 0.5635 0.7910
vt 0.5635 0.7910
vt 0.5635 0.7910
vt 0.5635 0.7910
vt 0.5635 0.7910
vt 0.5635 0.7910
vt 0.5635 0.7910
vt 0.5635 0.7910
vt 0.5635 0.7910
vt 0.5635 0.7910
vt 0.5635 0.7910
vt 0.5635 0.7910
vt 0.5635 0.7910
vt 0.5635 0.7910
vt 0.5635 0.7910
vt 0.5635 0.7910
vt 0.5635 0.7910
vt 0.5635 0.7910
vt 0.5635 0.7910
vt 0.5635 0.7910
vt 0.5635 0.7910
vt 0.5635 0.7910
vt 0.5635 0.7910
vt 0.5635 0.7910
vt 0.5635 0.7910
vt 0.5635 0.7910
vt 0.5635 0.7910
vt 0.5635 0.7910
vt 0.5635 0.7910
vt 0.5635 0.7910
vt 0.5635 0.7910
vt 0.5635 0.7910
vt 0.5635 0.7910
vt 0.5635 0.7910
vt 0.5635 0.7910
vt 0.5635 0.7910
vt 0.5635 0.7910
vt 0.5635 0.7910
vt 0.5635 0.7910
vt 0.5635 0.7910
vt 0.5635 0.7910
vt 0.5635 0.7910
vt 0.5635 0.7910
vt 0.5635 0.7910
vt 0.5635 0.7910
vt 0.5635 0.7910
vt 0.5635 0.7910
vt 0.5635 0.7910
vt 0.5635 0.7910
vt 0.5635 0.7910
vt 0.5635 0.7910
vt 0.5635 0.7910
vt 0.5635 0.7910
vt 0.5635 0.7910
vn -0.6603 0.4735 0.5829
vn -0.2225 0.8318 0.5085
vn -0.1607 0.3089 0.9374
vn -0.4259 0.6313 0.6482
vn 0.0392 0.6377 0.7693
vn 0.1764 0.6914 0.7007
vn 0.5383 0.8251 0.1714
vn 0.2026 0.6759 0.7086
vn -0.6253 0.6662 0.4064
vn -0.2450 0.8609 0.4459
vn -0.0622 0.9731 -0.2217
vn 0.1106 0.9796 -0.1679
vn -0.2956 0.7271 0.6197
vn 0.1879 0.8776 0.4411
vn 0.4166 0.5984 0.6844
vn 0.1383 0.9890 -0.0528
vn -0.2906 0.7995 0.5257
vn -0.1657 0.7101 0.6843
vn 0.5839 0.4767 0.6571
vn 0.5839 0.4780 0.6562
vn 0.5839 0.4818 0.6534
vn 0.0698 0.9756 0.2084
vn 0.5054 0.8380 0.2057
vn 0.5839 0.4832 0.6524
vn -0.7198 0.0990 0.6871
vn -0.5837 0.6399 0.4998
vn -0.3904 0.8840 0.2570
vn -0.5168 0.6637 0.5408
vn -0.0097 0.9922 0.1241
vn -0.0617 0.9389 0.3386
vn -0.2552 0.7509 0.6091
vn -0.2418 0.7943 0.5574
vn -0.1651 0.8135 0.5577
vn -0.2198 0.6422 0.7344
vn -0.3268 0.9111 0.2511
vn 0.0701 0.8387 0.5401
vn 0.1268 0.6814 0.7208
vn 0.3468 0.9153 0.2050
vn 0.1568 0.9875 -0.0163
vn 0.0803 0.9962 -0.0339
vn 0.8601 0.4212 0.2878
vn 0.7263 0.6851 0.0564
vn 0.0218 0.9969 0.0762
vn 0.1698 0.8784 0.4467
vn -0.2795 0.8881 -0.3650
vn -0.2327 0.7970 0.5574
vn -0.5027 0.7141 0.4872
vn -0.4944 0.4410 0.7491
vn -0.6309 0.6223 0.4634
vn -0.8267 0.5624 0.0170
vn -0.7627 0.3480 0.5451
vn 0.0179 0.4761 0.8792
vn 0.0642 0.6501 0.7571
vn -0.7409 0.5608 0.3695
vn -0.1257 0.8237 0.5529
vn 0.2032 0.9564 0.2098
vn -0.4740 0.6785 0.5613
vn 0.2393 0.7375 0.6315
vn 0.3659 0.7094 0.6024
vn 0.3761 0.4767 0.7945
vn -0.0228 0.5833 0.8120
vn -0.0231 0.5838 0.8115
vn -0.0194 0.5766 0.8168
vn 0.6397 0.4961 0.5871
vn 0.4049 0.7333 0.5462
vn 0.3475 0.7915 0.5028
vn 0.7500 0.5891 0.3009
vn -0.0596 0.9933 0.0995
vn 0.0901 0.9325 0.3499
vn 0.2157 0.9765 0.0000
vn -0.4954 0.8061 -0.3239
vn -0.9100 0.3369 0.2415
vn -0.6258 0.7354 0.2599
vn -0.4584 0.6497 0.6065
vn 0.3817 0.6907 0.6142
vn 0.4014 0.6990 0.5918
vn -0.6748 0.6799 0.2871
vn -0.5123 0.6280 0.5858
vn -0.2671 0.5625 0.7825
vn -0.7749 0.3907 0.4969
vn -0.5906 0.5563 0.5846
vn -0.0192 0.5760 0.8172
vn -0.0756 0.4410 0.8943
vn 0.0106 0.9331 0.3595
vn -0.4352 0.6496 0.6234
vn -0.5684 0.6184 0.5427
vn 0.5650 0.7179 0.4068
vn 0.4182 0.7505 0.5116
vn 0.2666 0.5852 0.7658
vn 0.6481 0.4659 0.6024
vn 0.5820 0.4092 0.7027
vn 0.3317 0.3422 0.8791
vn 0.0914 0.5575 0.8252
vn 0.3509 0.3890 0.8518
vn -0.2895 0.6056 0.7412
vn 0.6504 0.7010 0.2925
vn 0.5149 0.8237 0.2376
vn 0.8377 0.5203 0.1659
vn 0.2068 0.9780 -0.0286
vn -0.8727 0.4532 -0.1819
vn -0.7619 0.5217 0.3839
vn -0.7663 0.6408 -0.0461
vn -0.8532 0.3793 -0.3579
vn -0.5462 0.7256 0.4185
vn -0.5857 0.7394 -0.3320
vn 0.1167 0.9909 0.0672
vn 0.1315 0.9731 0.1892
vn -0.2287 0.8685 -0.4397
vn -0.1074 0.6367 -0.7636
vn -0.6567 0.7305 -0.1875
vn -0.5391 0.6844 -0.4909
vn -0.3116 0.6450 -0.6977
vn -0.4622 0.8672 -0.1850
vn -0.8414 0.5141 0.1667
vn -0.9204 0.3371 -0.1981
vn -0.6722 0.6807 0.2912
vn -0.2257 0.9732 -0.0435
vn -0.2902 0.9542 -0.0725
vn -0.3699 0.9272 -0.0592
vn 0.7428 0.6458 -0.1767
vn 0.0907 0.9840 -0.1530
vn 0.1595 0.9584 -0.2367
vn 0.7466 0.6604 -0.0809
vn 0.6084 0.7306 0.3100
vn 0.6027 0.7775 -0.1795
vn 0.8903 0.4163 0.1848
vn 0.6325 0.7481 -0.2009
vn 0.6533 0.7569 0.0162
vn 0.4920 0.8572 0.1521
vn 0.6896 0.6340 -0.3501
vn 0.8722 0.4865 -0.0504
vn 0.5501 0.7837 -0.2887
vn -0.8286 0.4376 -0.3492
vn -0.8313 0.3891 -0.3969
vn -0.3984 0.9150 -0.0641
vn -0.5963 0.5495 -0.5852
vn -0.5043 0.4619 -0.7296
vn -0.4768 0.6312 -0.6117
vn -0.3605 0.7104 -0.6044
vn -0.6652 0.6552 -0.3582
vn -0.3761 0.5799 -0.7227
vn -0.6935 0.5042 -0.5146
vn -0.6708 0.5828 -0.4586
vn -0.6704 0.5827 -0.4595
vn -0.6713 0.5830 -0.4577
vn -0.5870 0.6665 -0.4596
vn -0.0068 0.5544 -0.8322
vn -0.6620 0.5023 -0.5563
vn 0.0905 0.8643 -0.4948
vn 0.6095 0.7034 -0.3657
vn 0.4684 0.6876 -0.5548
vn 0.5294 0.8483 0.0129
vn 0.7868 0.5940 -0.1679
vn 0.7768 0.6074 -0.1662
vn 0.7561 0.6424 -0.1255
vn 0.7837 0.6070 -0.1316
vn 0.6130 0.7654 -0.1960
vn -0.4848 0.8122 0.3247
vn -0.5810 0.7924 0.1860
vn -0.5713 0.6788 -0.4613
vn -0.1446 0.8703 -0.4707
vn -0.2950 0.8650 -0.4060
vn -0.6722 0.5833 -0.4560
vn -0.0981 0.3639 -0.9262
vn 0.0732 0.6647 -0.7435
vn 0.0746 0.8161 -0.5730
vn -0.1060 0.4194 -0.9016
vn 0.1386 0.5713 -0.8090
vn -0.0461 0.6534 -0.7556
vn 0.3605 0.5908 -0.7218
vn -0.2080 0.6578 -0.7239
vn 0.4433 0.7873 -0.4285
vn 0.3106 0.3249 -0.8933
vn 0.5059 0.4645 -0.7268
vn 0.7133 0.4484 -0.5386
vn 0.4271 0.5613 -0.7089
vn 0.5150 0.7466 -0.4212
vn 0.5532 0.8168 -0.1640
vn 0.7066 0.6760 -0.2091
vn -0.5657 0.6927 -0.4473
vn -0.3771 0.7778 -0.5028
vn -0.3132 0.8676 -0.3863
vn -0.1962 0.7448 -0.6378
vn -0.3459 0.7998 -0.4906
vn -0.5058 0.7398 -0.4436
vn -0.5419 0.7226 -0.4291
vn -0.3560 0.7102 -0.6073
vn -0.3558 0.7062 -0.6121
vn -0.3560 0.7096 -0.6080
vn 0.1930 0.8257 -0.5300
vn 0.2621 0.8179 -0.5122
vn -0.0515 0.9159 -0.3981
vn -0.2114 0.7202 -0.6607
vn 0.5039 0.3883 -0.7715
vn 0.2375 0.6071 -0.7583
vn 0.1219 0.8470 -0.5174
vn 0.1225 0.9877 0.0969
vn 0.0213 0.9260 -0.3770
vn 0.5403 0.7969 -0.2702
vn -0.3558 0.7060 -0.6123
vn -0.0102 0.4524 -0.8918
vn -0.0869 0.6166 -0.7825
vn 0.1935 0.7870 -0.5858
vn -0.4361 0.7700 -0.4658
vn -0.1674 0.7339 -0.6583
vn 0.2297 0.8789 -0.4180
vn 0.6133 0.5606 -0.5565
vn 0.0532 0.4236 -0.9043
vn -0.1072 -0.7731 0.6251
vn 0.6272 -0.7789 0.0001
vn -0.1841 -0.7799 -0.5982
vn 0.5389 -0.7981 -0.2694
vn -0.0702 -0.7721 -0.6316
vn -0.5469 -0.7580 0.3554
vn 0.1953 -0.7031 0.6838
vn 0.6390 -0.7641 -0.0883
vn -0.2514 -0.7789 0.5746
vn 0.1723 -0.7791 0.6027
vn 0.4199 -0.7749 0.4725
vn -0.4719 -0.7579 0.4505
vn -0.6439 -0.6389 -0.4210
vn -0.6451 -0.7447 0.1712
vn 0.6397 -0.7678 -0.0370
vn -0.6306 -0.7694 -0.1014
vn 0.5949 -0.7810 -0.1902
vn -0.4920 -0.7788 -0.3891
vn -0.3723 -0.7843 -0.4963
vn 0.0363 -0.7867 -0.6163
vn 0.0000 -1.0000 -0.0000
usemtl None
s 1
f 1/1/1 2/2/1 3/3/1
f 4/4/2 2/2/2 1/1/2
f 5/5/3 6/6/3 2/2/3
f 2/2/4 6/6/4 3/3/4
f 6/6/5 5/5/5 7/7/5
f 5/5/6 8/8/6 7/7/6
f 9/9/7 10/10/7 8/8/7
f 5/5/8 9/9/8 8/8/8
f 4/4/9 1/1/9 11/11/9
f 3/3/10 6/6/10 7/7/10
f 3/3/11 7/7/11 12/12/11
f 7/7/12 8/8/12 12/12/12
f 12/12/13 8/8/13 13/13/13
f 8/8/14 14/14/14 13/13/14
f 8/8/15 10/10/15 14/14/15
f 14/14/16 15/15/16 13/13/16
f 10/10/17 9/9/17 16/16/17
f 10/10/18 16/16/18 14/14/18
f 9/9/19 17/17/20 16/16/21
f 15/15/22 16/16/22 18/18/22
f 14/14/23 16/16/23 15/15/23
f 16/16/21 17/17/20 18/18/24
f 11/11/25 19/19/25 20/20/25
f 11/11/26 1/1/26 21/21/26
f 21/21/27 1/1/27 22/22/27
f 11/11/28 21/21/28 23/23/28
f 3/3/29 12/12/29 1/1/29
f 1/1/30 12/12/30 22/22/30
f 12/12/31 24/24/31 22/22/31
f 24/24/32 25/25/32 22/22/32
f 12/12/33 26/26/33 24/24/33
f 24/24/34 26/26/34 27/27/34
f 12/12/35 13/13/35 28/28/35
f 12/12/36 28/28/36 26/26/36
f 26/26/37 28/28/37 27/27/37
f 28/28/38 13/13/38 29/29/38
f 13/13/39 15/15/39 29/29/39
f 15/15/40 18/18/40 29/29/40
f 18/18/41 17/17/41 30/30/41
f 31/31/42 18/18/42 30/30/42
f 17/17/43 32/32/43 30/30/43
f 11/11/44 23/23/44 19/19/44
f 19/19/45 23/23/45 33/33/45
f 21/21/46 22/22/46 34/34/46
f 23/23/47 21/21/47 34/34/47
f 34/34/48 22/22/48 35/35/48
f 34/34/49 35/35/49 36/36/49
f 23/23/50 34/34/50 33/33/50
f 33/33/51 34/34/51 36/36/51
f 22/22/52 25/25/52 35/35/52
f 25/25/53 37/37/53 35/35/53
f 38/38/54 24/24/54 39/39/54
f 25/25/55 24/24/55 38/38/55
f 27/27/56 40/40/56 39/39/56
f 24/24/57 27/27/57 39/39/57
f 27/27/58 28/28/58 40/40/58
f 40/40/59 28/28/59 41/41/59
f 40/40/60 41/41/60 42/42/60
f 39/39/61 40/40/62 42/42/63
f 41/41/64 28/28/64 43/43/64
f 29/29/65 44/44/65 28/28/65
f 28/28/66 44/44/66 43/43/66
f 29/29/67 45/45/67 44/44/67
f 18/18/68 31/31/68 29/29/68
f 29/29/69 31/31/69 45/45/69
f 30/30/70 32/32/70 46/46/70
f 20/20/71 19/19/71 33/33/71
f 47/47/72 33/33/72 48/48/72
f 35/35/73 49/49/73 36/36/73
f 36/36/74 49/49/74 50/50/74
f 37/37/75 25/25/75 38/38/75
f 37/37/76 38/38/76 51/51/76
f 35/35/77 37/37/77 49/49/77
f 49/49/78 37/37/78 50/50/78
f 51/51/79 38/38/79 52/52/79
f 38/38/80 39/39/80 52/52/80
f 39/39/81 53/53/81 52/52/81
f 53/53/82 39/39/61 42/42/63
f 53/53/83 42/42/83 54/54/83
f 55/55/84 54/54/84 56/56/84
f 53/53/85 54/54/85 55/55/85
f 53/53/86 55/55/86 52/52/86
f 42/42/87 57/57/87 56/56/87
f 54/54/88 42/42/88 56/56/88
f 43/43/89 44/44/89 57/57/89
f 41/41/90 43/43/90 42/42/90
f 43/43/91 57/57/91 42/42/91
f 44/44/92 45/45/92 58/58/92
f 44/44/93 59/59/93 57/57/93
f 44/44/94 58/58/94 59/59/94
f 58/58/95 45/45/95 31/31/95
f 31/31/96 30/30/96 60/60/96
f 31/31/97 60/60/97 58/58/97
f 30/30/98 61/61/98 60/60/98
f 30/30/99 46/46/99 61/61/99
f 33/33/100 36/36/100 50/50/100
f 33/33/101 50/50/101 48/48/101
f 48/48/102 50/50/102 62/62/102
f 48/48/103 62/62/103 63/63/103
f 50/50/104 37/37/104 64/64/104
f 50/50/105 64/64/105 62/62/105
f 37/37/106 51/51/106 64/64/106
f 64/64/107 51/51/107 65/65/107
f 64/64/108 65/65/108 66/66/108
f 67/67/109 66/66/109 65/65/109
f 62/62/110 64/64/110 66/66/110
f 62/62/111 66/66/111 68/68/111
f 66/66/112 67/67/112 68/68/112
f 51/51/113 52/52/113 65/65/113
f 52/52/114 69/69/114 65/65/114
f 65/65/115 69/69/115 70/70/115
f 52/52/116 55/55/116 69/69/116
f 56/56/117 71/71/117 55/55/117
f 72/72/118 55/55/118 71/71/118
f 69/69/119 55/55/119 72/72/119
f 73/73/120 74/74/120 75/75/120
f 56/56/121 73/73/121 71/71/121
f 71/71/122 73/73/122 76/76/122
f 57/57/123 74/74/123 73/73/123
f 56/56/124 57/57/124 73/73/124
f 57/57/125 59/59/125 74/74/125
f 59/59/126 58/58/126 77/77/126
f 74/74/127 59/59/127 77/77/127
f 74/74/128 77/77/128 78/78/128
f 58/58/129 60/60/129 77/77/129
f 77/77/130 60/60/130 79/79/130
f 60/60/131 61/61/131 80/80/131
f 79/79/132 60/60/132 80/80/132
f 47/47/133 48/48/133 63/63/133
f 47/47/134 63/63/134 81/81/134
f 47/47/135 81/81/135 82/82/135
f 62/62/136 68/68/136 63/63/136
f 63/63/137 68/68/137 67/67/137
f 63/63/138 67/67/138 81/81/138
f 65/65/139 83/83/139 67/67/139
f 65/65/140 70/70/140 83/83/140
f 83/83/141 70/70/141 84/84/141
f 70/70/142 69/69/142 72/72/142
f 84/84/143 70/70/144 85/85/145
f 71/71/146 86/86/146 85/85/146
f 72/72/147 71/71/147 85/85/147
f 72/72/148 85/85/148 70/70/148
f 71/71/149 76/76/149 86/86/149
f 76/76/150 73/73/150 75/75/150
f 76/76/151 75/75/151 86/86/151
f 74/74/152 78/78/152 75/75/152
f 77/77/153 87/87/153 78/78/153
f 77/77/154 79/79/154 87/87/154
f 87/87/155 79/79/155 88/88/155
f 79/79/156 89/89/156 88/88/156
f 79/79/157 80/80/157 89/89/157
f 81/81/158 90/90/158 82/82/158
f 81/81/159 67/67/159 90/90/159
f 82/82/160 90/90/160 91/91/160
f 90/90/161 67/67/161 91/91/161
f 67/67/162 83/83/162 91/91/162
f 84/84/143 85/85/145 92/92/163
f 86/86/164 93/93/164 85/85/164
f 85/85/165 93/93/165 94/94/165
f 94/94/166 93/93/166 95/95/166
f 94/94/167 95/95/167 96/96/167
f 94/94/168 96/96/168 92/92/168
f 85/85/169 94/94/169 92/92/169
f 86/86/170 75/75/170 93/93/170
f 75/75/171 97/97/171 93/93/171
f 75/75/172 78/78/172 97/97/172
f 97/97/173 98/98/173 93/93/173
f 78/78/174 98/98/174 97/97/174
f 78/78/175 87/87/175 98/98/175
f 93/93/176 98/98/176 99/99/176
f 98/98/177 87/87/177 88/88/177
f 98/98/178 88/88/178 100/100/178
f 100/100/179 88/88/179 89/89/179
f 82/82/180 91/91/180 101/101/180
f 101/101/181 91/91/181 102/102/181
f 91/91/182 83/83/182 103/103/182
f 103/103/183 104/104/183 102/102/183
f 91/91/184 103/103/184 102/102/184
f 84/84/185 92/92/185 103/103/185
f 83/83/186 84/84/186 103/103/186
f 92/92/187 105/105/188 103/103/189
f 96/96/190 106/106/190 107/107/190
f 96/96/191 107/107/191 105/105/191
f 92/92/192 96/96/192 105/105/192
f 96/96/193 95/95/193 106/106/193
f 95/95/194 93/93/194 106/106/194
f 93/93/195 99/99/195 106/106/195
f 106/106/196 99/99/196 107/107/196
f 99/99/197 100/100/197 108/108/197
f 99/99/198 98/98/198 100/100/198
f 109/109/199 89/89/199 110/110/199
f 103/103/189 105/105/188 104/104/200
f 104/104/201 105/105/201 107/107/201
f 104/104/202 107/107/202 111/111/202
f 107/107/203 99/99/203 111/111/203
f 99/99/204 108/108/204 111/111/204
f 108/108/205 109/109/205 111/111/205
f 108/108/206 100/100/206 109/109/206
f 100/100/207 89/89/207 109/109/207
f 109/109/208 110/110/208 111/111/208
f 5/5/209 2/2/209 112/112/209
f 112/112/209 2/2/209 113/113/209
f 32/32/210 114/114/210 46/46/210
f 46/46/210 114/114/210 115/115/210
f 102/102/211 104/104/211 116/116/211
f 116/116/211 104/104/211 117/117/211
f 110/110/212 89/89/212 118/118/212
f 118/118/212 89/89/212 119/119/212
f 111/111/213 120/120/213 104/104/213
f 104/104/213 120/120/213 117/117/213
f 4/4/214 11/11/214 121/121/214
f 121/121/214 11/11/214 122/122/214
f 32/32/215 17/17/215 114/114/215
f 114/114/215 17/17/215 123/123/215
f 46/46/216 115/115/216 61/61/216
f 61/61/216 115/115/216 124/124/216
f 4/4/217 121/121/217 2/2/217
f 2/2/217 121/121/217 113/113/217
f 9/9/218 5/5/218 125/125/218
f 125/125/218 5/5/218 112/112/218
f 9/9/219 125/125/219 17/17/219
f 17/17/219 125/125/219 123/123/219
f 20/20/220 126/126/220 11/11/220
f 11/11/220 126/126/220 122/122/220
f 20/20/221 33/33/221 126/126/221
f 126/126/221 33/33/221 127/127/221
f 47/47/222 128/128/222 33/33/222
f 33/33/222 128/128/222 127/127/222
f 80/80/223 61/61/223 129/129/223
f 129/129/223 61/61/223 124/124/223
f 82/82/224 130/130/224 47/47/224
f 47/47/224 130/130/224 128/128/224
f 89/89/225 80/80/225 119/119/225
f 119/119/225 80/80/225 129/129/225
f 82/82/226 101/101/226 130/130/226
f 130/130/226 101/101/226 131/131/226
f 102/102/227 116/116/227 101/101/227
f 101/101/227 116/116/227 131/131/227
f 110/110/228 118/118/228 111/111/228
f 111/111/228 118/118/228 120/120/228
f 112/112/229 113/113/229 132/132/229
f 115/115/229 114/114/229 132/132/229
f 116/116/229 117/117/229 132/132/229
f 118/118/229 119/119/229 132/132/229
f 117/117/229 120/120/229 132/132/229
f 121/121/229 122/122/229 132/132/229
f 114/114/229 123/123/229 132/132/229
f 124/124/229 115/115/229 132/132/229
f 113/113/229 121/121/229 132/132/229
f 125/125/229 112/112/229 132/132/229
f 123/123/229 125/125/229 132/132/229
f 122/122/229 126/126/229 132/132/229
f 126/126/229 127/127/229 132/132/229
f 127/127/229 128/128/229 132/132/229
f 129/129/229 124/124/229 132/132/229
f 128/128/229 130/130/229 132/132/229
f 119/119/229 129/129/229 132/132/229
f 130/130/229 131/131/229 132/132/229
f 131/131/229 116/116/229 132/132/229
f 120/120/229 118/118/229 132/132/229
