# This file uses centimeters as units for non-parametric coordinates.

v -30.872040 -8.884720 85.923828
v 22.951965 -8.884720 83.398560
v 80.742371 -8.884720 44.572998
v -77.823517 -8.884720 49.499634
v 9.501862 -8.884720 -0.167114
v -95.258545 -8.884720 -19.429077
v 95.258545 -8.884720 -28.752686
v -65.591492 -8.884720 -65.087646
v -19.083679 -8.884720 -85.923828
v 38.087402 -8.884720 -85.923828
v -30.872040 8.884720 85.923828
v 22.951965 8.884720 83.398560
v 9.501862 8.884720 -0.167114
v -77.823517 8.884720 49.499634
v 80.742371 8.884720 44.572998
v -95.258545 8.884720 -19.429077
v 95.258545 8.884720 -28.752686
v -19.083679 8.884720 -85.923828
v -65.591492 8.884720 -65.087646
v 38.087402 8.884720 -85.923828
vt 0.560784 0.793684
vt 0.560784 0.793684
vt 0.560784 0.793684
vt 0.560784 0.793684
vt 0.560784 0.793684
vt 0.560784 0.793684
vt 0.560784 0.793684
vt 0.560784 0.793684
vt 0.560784 0.793684
vt 0.560784 0.793684
vt 0.560784 0.793684
vt 0.560784 0.793684
vt 0.560784 0.793684
vt 0.560784 0.793684
vt 0.560784 0.793684
vt 0.560784 0.793684
vt 0.560784 0.793684
vt 0.560784 0.793684
vt 0.560784 0.793684
vt 0.560784 0.793684
vt 0.560784 0.793684
vt 0.560784 0.793684
vt 0.560784 0.793684
vt 0.560784 0.793684
vt 0.560784 0.793684
vt 0.560784 0.793684
vt 0.560784 0.793684
vt 0.560784 0.793684
vt 0.560784 0.793684
vn 0.000000 1.000000 0.000000
vn 0.000000 1.000000 0.000000
vn 0.000000 1.000000 0.000000
vn 0.000000 1.000000 -0.000000
vn 0.000000 1.000000 -0.000000
vn 0.000000 1.000000 -0.000000
vn 0.000000 1.000000 0.000000
vn 0.000000 1.000000 0.000000
vn 0.000000 1.000000 0.000000
vn 0.000000 1.000000 0.000000
vn 0.000000 1.000000 0.000000
vn 0.000000 1.000000 0.000000
vn 0.000000 1.000000 0.000000
vn 0.000000 1.000000 0.000000
vn 0.000000 1.000000 0.000000
vn 0.000000 1.000000 0.000000
vn 0.000000 1.000000 0.000000
vn 0.000000 1.000000 0.000000
vn 0.000000 1.000000 0.000000
vn 0.000000 1.000000 0.000000
vn 0.000000 1.000000 0.000000
vn 0.000000 1.000000 0.000000
vn 0.000000 1.000000 0.000000
vn 0.000000 1.000000 0.000000
vn 0.000000 1.000000 -0.000000
vn 0.000000 1.000000 -0.000000
vn 0.000000 1.000000 -0.000000
vn 0.000000 -1.000000 -0.000000
vn 0.000000 -1.000000 -0.000000
vn 0.000000 -1.000000 -0.000000
vn 0.000000 -1.000000 0.000000
vn 0.000000 -1.000000 0.000000
vn 0.000000 -1.000000 0.000000
vn 0.000000 -1.000000 0.000000
vn 0.000000 -1.000000 0.000000
vn 0.000000 -1.000000 0.000000
vn 0.000000 -1.000000 0.000000
vn 0.000000 -1.000000 0.000000
vn 0.000000 -1.000000 0.000000
vn 0.000000 -1.000000 0.000000
vn 0.000000 -1.000000 0.000000
vn 0.000000 -1.000000 0.000000
vn 0.000000 -1.000000 0.000000
vn 0.000000 -1.000000 0.000000
vn 0.000000 -1.000000 0.000000
vn 0.000000 -1.000000 0.000000
vn 0.000000 -1.000000 0.000000
vn 0.000000 -1.000000 0.000000
vn 0.000000 -1.000000 0.000000
vn 0.000000 -1.000000 0.000000
vn 0.000000 -1.000000 0.000000
vn 0.000000 -1.000000 -0.000000
vn 0.000000 -1.000000 -0.000000
vn 0.000000 -1.000000 -0.000000
vn 0.046866 0.000000 0.998901
vn 0.046866 0.000000 0.998901
vn 0.046866 0.000000 0.998901
vn 0.046866 0.000000 0.998901
vn 0.046866 0.000000 0.998901
vn 0.046866 0.000000 0.998901
vn -0.612958 0.000000 0.790115
vn -0.612958 0.000000 0.790115
vn -0.612958 0.000000 0.790115
vn -0.612959 0.000000 0.790115
vn -0.612959 0.000000 0.790115
vn -0.612959 0.000000 0.790115
vn 0.557666 0.000000 0.830065
vn 0.557666 0.000000 0.830065
vn 0.557666 0.000000 0.830065
vn 0.557666 0.000000 0.830065
vn 0.557666 0.000000 0.830065
vn 0.557666 0.000000 0.830065
vn -0.969468 0.000000 0.245220
vn -0.969468 0.000000 0.245220
vn -0.969468 0.000000 0.245220
vn -0.969468 0.000000 0.245220
vn -0.969468 0.000000 0.245220
vn -0.969468 0.000000 0.245220
vn 0.980962 0.000000 0.194200
vn 0.980962 0.000000 0.194200
vn 0.980962 0.000000 0.194200
vn 0.980962 0.000000 0.194200
vn 0.980962 0.000000 0.194200
vn 0.980962 0.000000 0.194200
vn -0.408857 0.000000 -0.912598
vn -0.408857 0.000000 -0.912598
vn -0.408857 0.000000 -0.912598
vn -0.408857 0.000000 -0.912598
vn -0.408857 0.000000 -0.912598
vn -0.408857 0.000000 -0.912598
vn -0.838536 0.000000 -0.544846
vn -0.838536 0.000000 -0.544846
vn -0.838536 0.000000 -0.544846
vn -0.838536 0.000000 -0.544846
vn -0.838536 0.000000 -0.544846
vn -0.838536 0.000000 -0.544846
vn 0.000000 0.000000 -1.000000
vn 0.000000 0.000000 -1.000000
vn 0.000000 0.000000 -1.000000
vn 0.000000 0.000000 -1.000000
vn 0.000000 0.000000 -1.000000
vn 0.000000 0.000000 -1.000000
vn 0.707107 0.000000 -0.707107
vn 0.707107 0.000000 -0.707107
vn 0.707107 0.000000 -0.707107
vn 0.707107 0.000000 -0.707107
vn 0.707107 0.000000 -0.707107
vn 0.707107 0.000000 -0.707107
s off
f 12/2/1 13/3/2 11/1/3
f 11/1/4 13/3/5 14/4/6
f 12/2/7 15/5/8 13/3/9
f 14/4/10 13/3/11 16/6/12
f 13/3/13 15/5/14 17/7/15
f 16/6/16 13/3/17 19/9/18
f 19/9/19 13/3/20 18/8/21
f 13/3/22 20/10/23 18/8/24
f 13/3/25 17/7/26 20/10/27
f 4/12/28 5/13/29 1/11/30
f 1/11/31 5/13/32 2/14/33
f 2/14/34 5/13/35 3/15/36
f 4/12/37 6/16/38 5/13/39
f 5/13/40 7/17/41 3/15/42
f 6/16/43 8/18/44 5/13/45
f 5/13/46 8/18/47 9/19/48
f 5/13/49 9/19/50 10/20/51
f 5/13/52 10/20/53 7/17/54
f 1/21/55 2/22/56 11/1/57
f 11/1/58 2/22/59 12/2/60
f 4/23/61 1/21/62 14/4/63
f 14/4/64 1/21/65 11/1/66
f 2/22/67 3/24/68 12/2/69
f 12/2/70 3/24/71 15/5/72
f 6/25/73 4/23/74 16/6/75
f 16/6/76 4/23/77 14/4/78
f 3/24/79 7/26/80 15/5/81
f 15/5/82 7/26/83 17/7/84
f 9/27/85 8/28/86 18/8/87
f 18/8/88 8/28/89 19/9/90
f 8/28/91 6/25/92 19/9/93
f 19/9/94 6/25/95 16/6/96
f 10/29/97 9/27/98 20/10/99
f 20/10/100 9/27/101 18/8/102
f 7/26/103 10/29/104 17/7/105
f 17/7/106 10/29/107 20/10/108
