# Blender v2.78 (sub 0) OBJ File: ''
# www.blender.org
mtllib SM_Env_Stalagmite_03.mtl
o SM_Env_Stalagmite_03
v 0.677246 -15.744572 -4.321933
v -2.592285 -9.707600 -9.232148
v 3.718262 -12.818127 -6.063814
v 6.427246 -4.036236 -10.953705
v -0.185059 16.346762 -13.132779
v 7.638184 33.332726 -7.214228
v 9.808105 24.210323 -8.381130
v 10.793213 34.201000 2.566687
v 6.507324 -10.367214 2.478178
v 12.945557 -1.711933 -0.529114
v 11.724365 -3.047417 -4.065918
v -9.031250 -2.981003 -9.700256
v -2.956055 -14.026634 -5.336550
v -13.332031 23.461838 -0.237942
v -12.641357 38.612270 -0.375116
v -9.098145 37.788372 -8.528466
v -8.547363 17.608778 9.805270
v -8.767090 38.595753 8.664130
v -0.331543 -14.539581 2.743925
v 0.325439 0.200500 13.053070
v -8.589111 0.459320 9.968781
v -5.118896 -11.659241 2.735380
v -0.151367 35.065128 13.590338
v -2.202393 57.867615 9.308023
v 0.057373 25.335985 13.936803
v 8.699951 27.623957 11.197025
v 7.972168 38.214539 10.737464
v 9.697266 9.240416 9.316530
v 8.573975 0.368622 9.947144
v 13.349121 8.872795 0.400270
v 3.745117 71.672928 -3.277179
v 6.045166 66.531006 0.775707
v 5.746582 52.937740 -4.475029
v 1.296875 44.045929 -10.248314
v -0.102783 76.088882 -4.105426
v -6.864746 61.463688 -5.205099
v -10.083496 57.474148 0.572366
v -7.994873 57.872643 6.115213
v -3.506348 76.917526 -0.446612
v 6.242920 50.286552 9.285287
v 4.410889 67.102638 4.621227
v -0.001465 83.372429 -0.217912
v 9.690918 10.989035 -9.086851
v 0.333252 -0.997303 -13.936737
v -9.927490 -0.418282 -9.677979
v -0.478271 35.021736 -11.485376
v -8.304688 -9.159298 -3.302125
v -13.347900 -0.665054 -1.335480
v -1.346680 -16.562634 -1.056430
v -10.176514 0.315746 8.396454
v 2.590088 -8.317631 7.074737
v 0.521240 76.504906 3.406720
vt 0.9431 0.5022
vt 0.9431 0.5022
vt 0.9431 0.5022
vt 0.9431 0.5022
vt 0.9431 0.5022
vt 0.9431 0.5022
vt 0.9431 0.5022
vt 0.9431 0.5022
vt 0.9431 0.5022
vt 0.9431 0.5022
vt 0.9431 0.5022
vt 0.9431 0.5022
vt 0.9431 0.5022
vt 0.9431 0.5022
vt 0.9431 0.5022
vt 0.9431 0.5022
vt 0.9431 0.5022
vt 0.9431 0.5022
vt 0.9431 0.5022
vt 0.9431 0.5022
vt 0.9431 0.5022
vt 0.9431 0.5022
vt 0.9431 0.5022
vt 0.9431 0.5022
vt 0.9431 0.5022
vt 0.9431 0.5022
vt 0.9431 0.5022
vt 0.9431 0.5022
vt 0.9431 0.5022
vt 0.9431 0.5022
vt 0.9431 0.5022
vt 0.9431 0.5022
vt 0.9431 0.5022
vt 0.9431 0.5022
vt 0.9431 0.5022
vt 0.9431 0.5022
vt 0.9431 0.5022
vt 0.9431 0.5022
vt 0.9431 0.5022
vt 0.9431 0.5022
vt 0.9431 0.5022
vt 0.9431 0.5022
vt 0.9431 0.5022
vt 0.9431 0.5022
vt 0.9431 0.5022
vt 0.9431 0.5022
vt 0.9431 0.5022
vt 0.9431 0.5022
vt 0.9431 0.5022
vt 0.9431 0.5022
vt 0.9431 0.5022
vt 0.9431 0.5022
vn 0.1103 -0.5905 -0.7995
vn 0.1651 -0.5175 -0.8396
vn 0.1658 -0.5183 -0.8390
vn 0.1600 -0.5109 -0.8446
vn 0.2956 0.1901 -0.9362
vn 0.9127 0.2577 -0.3173
vn 0.7861 -0.6128 -0.0808
vn 0.7762 -0.6298 -0.0302
vn -0.5230 -0.5462 -0.6544
vn -0.9143 0.0368 -0.4033
vn -0.9151 0.0381 -0.4015
vn -0.9120 0.0329 -0.4089
vn -0.8994 0.0143 0.4368
vn -0.9182 0.0454 0.3936
vn -0.2892 -0.5400 0.7905
vn -0.3333 -0.5518 0.7645
vn -0.4534 0.1250 0.8825
vn -0.4899 0.0205 0.8715
vn 0.3091 0.0624 0.9490
vn 0.4263 -0.0691 0.9019
vn 0.7923 -0.4438 0.4187
vn 0.9554 0.0719 0.2865
vn 0.9545 0.0751 0.2887
vn 0.9538 0.0774 0.2903
vn 0.9536 0.0782 0.2908
vn 0.9217 0.1220 -0.3683
vn 0.4091 0.1890 -0.8927
vn -0.2210 0.1743 -0.9596
vn -0.2529 0.1578 -0.9545
vn -0.9031 0.1427 -0.4051
vn -0.9033 0.1428 -0.4046
vn -0.9026 0.1423 -0.4063
vn -0.8942 0.3190 0.3140
vn -0.9141 0.1043 0.3920
vn 0.9495 0.1546 0.2730
vn 0.9544 0.1665 0.2477
vn 0.9123 0.1987 0.3582
vn 0.5855 0.3754 -0.7186
vn 0.7225 -0.4929 -0.4849
vn 0.9335 0.0070 -0.3584
vn 0.9336 0.0075 -0.3583
vn 0.9338 0.0104 -0.3577
vn -0.1052 -0.6612 -0.7428
vn -0.3863 -0.1272 -0.9135
vn -0.3183 -0.3655 -0.8747
vn 0.4778 0.0846 -0.8744
vn -0.6864 -0.5606 -0.4634
vn -0.8783 -0.3039 -0.3691
vn -0.8458 -0.4286 -0.3178
vn -0.3141 0.0354 -0.9487
vn -0.8184 -0.5347 0.2105
vn -0.7412 -0.6610 0.1174
vn -0.6964 -0.7011 -0.1535
vn -0.8122 -0.4916 0.3142
vn -0.4439 -0.7364 0.5106
vn -0.4637 0.0433 0.8849
vn 0.0064 -0.5733 0.8193
vn 0.3519 0.0220 0.9358
vn 0.3164 -0.4872 0.8140
vn 0.2922 0.0403 0.9555
vn 0.4911 -0.5592 0.6679
vn 0.4172 -0.6430 0.6423
vn 0.9131 -0.0873 0.3983
vn 0.9222 -0.0686 0.3805
vn 0.5215 -0.8501 0.0736
vn 0.9746 0.1148 -0.1925
vn 0.6890 0.1193 -0.7148
vn 0.9395 0.1347 -0.3150
vn 0.6402 0.1666 -0.7499
vn -0.9025 0.1422 -0.4066
vn -0.9070 0.2909 -0.3045
vn -0.9345 0.0832 0.3461
vn -0.4783 0.1339 0.8679
vn -0.7220 0.3713 0.5839
vn 0.2576 0.2842 0.9235
vn 0.3078 0.2460 0.9191
vn -0.4557 0.3285 0.8273
vn 0.2739 0.1534 0.9494
vn 0.9277 0.1166 -0.3546
vn -0.5440 0.3589 0.7585
vn 0.7956 -0.0986 -0.5977
vn 0.1594 -0.5101 -0.8452
vn -0.9503 -0.0135 0.3110
vn -0.5694 -0.5354 0.6238
vn 0.9461 -0.0076 -0.3238
vn 0.4701 0.0284 -0.8821
vn -0.2662 0.1821 -0.9465
vn 0.1796 0.1972 0.9638
vn 0.7383 -0.6395 0.2145
vn 0.6460 -0.7318 0.2170
vn -0.2975 -0.8662 -0.4014
vn -0.6370 0.3698 -0.6763
vn -0.6453 0.3494 -0.6794
vn 0.8836 0.3365 0.3255
vn 0.7087 0.3707 0.6002
vn 0.9372 0.3298 -0.1135
vn 0.9255 0.0115 0.3786
vn 0.9338 0.0108 -0.3577
vn 0.4609 0.0548 -0.8857
vn 0.3997 0.0453 -0.9155
vn 0.3924 0.0290 -0.9194
vn -0.4411 0.0720 -0.8946
vn -0.3816 0.0314 -0.9238
vn -0.9115 0.0321 -0.4100
vn -0.9253 0.0178 -0.3788
vn -0.7041 0.0085 0.7101
vn -0.8908 0.0471 0.4519
vn -0.3267 0.0098 0.9451
vn -0.4058 -0.0364 0.9132
vn 0.3093 -0.0301 0.9505
usemtl None
s 1
f 1/1/1 2/2/1 3/3/1
f 4/4/2 3/3/3 2/2/4
f 5/5/5 6/6/5 7/7/5
f 6/6/6 8/8/6 7/7/6
f 9/9/7 3/3/7 10/10/7
f 10/10/8 3/3/8 11/11/8
f 12/12/9 2/2/9 13/13/9
f 14/14/10 15/15/11 16/16/12
f 17/17/13 18/18/13 14/14/13
f 14/14/14 18/18/14 15/15/14
f 19/19/15 20/20/15 21/21/15
f 19/19/16 21/21/16 22/22/16
f 23/23/17 24/24/17 18/18/17
f 25/25/18 23/23/18 18/18/18
f 26/26/19 27/27/19 23/23/19
f 20/20/20 28/28/20 26/26/20
f 29/29/21 9/9/21 10/10/21
f 30/30/22 8/8/23 26/26/24
f 8/8/23 27/27/25 26/26/24
f 31/31/26 32/32/26 33/33/26
f 34/34/27 35/35/27 31/31/27
f 36/36/28 35/35/28 34/34/28
f 16/16/29 36/36/29 34/34/29
f 15/15/30 37/37/31 36/36/32
f 38/38/33 39/39/33 37/37/33
f 15/15/34 18/18/34 37/37/34
f 8/8/35 32/32/35 40/40/35
f 27/27/36 8/8/36 40/40/36
f 40/40/37 32/32/37 41/41/37
f 42/42/38 31/31/38 35/35/38
f 4/4/39 11/11/39 3/3/39
f 11/11/40 43/43/41 30/30/42
f 2/2/43 1/1/43 13/13/43
f 44/44/44 12/12/44 45/45/44
f 44/44/45 2/2/45 12/12/45
f 5/5/46 46/46/46 6/6/46
f 12/12/47 13/13/47 47/47/47
f 45/45/48 12/12/48 48/48/48
f 12/12/49 47/47/49 48/48/49
f 46/46/50 45/45/50 16/16/50
f 48/48/51 47/47/51 22/22/51
f 22/22/52 47/47/52 49/49/52
f 49/49/53 47/47/53 13/13/53
f 50/50/54 48/48/54 22/22/54
f 19/19/55 22/22/55 49/49/55
f 17/17/56 25/25/56 18/18/56
f 20/20/57 19/19/57 51/51/57
f 20/20/58 29/29/58 28/28/58
f 29/29/59 20/20/59 51/51/59
f 25/25/60 26/26/60 23/23/60
f 29/29/61 51/51/61 9/9/61
f 9/9/62 51/51/62 19/19/62
f 28/28/63 29/29/63 10/10/63
f 28/28/64 10/10/64 30/30/64
f 9/9/65 19/19/65 3/3/65
f 30/30/66 7/7/66 8/8/66
f 33/33/67 34/34/67 31/31/67
f 6/6/68 33/33/68 8/8/68
f 33/33/69 6/6/69 34/34/69
f 16/16/70 15/15/30 36/36/32
f 36/36/71 37/37/71 39/39/71
f 18/18/72 38/38/72 37/37/72
f 18/18/73 24/24/73 38/38/73
f 38/38/74 42/42/74 39/39/74
f 24/24/75 40/40/75 41/41/75
f 24/24/76 41/41/76 52/52/76
f 38/38/77 24/24/77 52/52/77
f 40/40/78 23/23/78 27/27/78
f 32/32/79 8/8/79 33/33/79
f 42/42/80 38/38/80 52/52/80
f 11/11/81 4/4/81 43/43/81
f 4/4/2 2/2/4 44/44/82
f 48/48/83 50/50/83 14/14/83
f 22/22/84 21/21/84 50/50/84
f 10/10/85 11/11/85 30/30/85
f 34/34/86 6/6/86 46/46/86
f 16/16/87 34/34/87 46/46/87
f 40/40/88 24/24/88 23/23/88
f 3/3/89 19/19/89 1/1/89
f 1/1/90 19/19/90 49/49/90
f 13/13/91 1/1/91 49/49/91
f 39/39/92 42/42/92 35/35/92
f 39/39/93 35/35/93 36/36/93
f 32/32/94 42/42/94 41/41/94
f 41/41/95 42/42/95 52/52/95
f 32/32/96 31/31/96 42/42/96
f 28/28/97 30/30/97 26/26/97
f 7/7/98 30/30/42 43/43/41
f 44/44/99 5/5/99 4/4/99
f 5/5/100 7/7/100 43/43/100
f 4/4/101 5/5/101 43/43/101
f 45/45/102 46/46/102 5/5/102
f 45/45/103 5/5/103 44/44/103
f 45/45/104 14/14/10 16/16/12
f 48/48/105 14/14/105 45/45/105
f 50/50/106 21/21/106 17/17/106
f 50/50/107 17/17/107 14/14/107
f 20/20/108 17/17/108 21/21/108
f 20/20/109 25/25/109 17/17/109
f 25/25/110 20/20/110 26/26/110
