# Blender v2.78 (sub 0) OBJ File: ''
# www.blender.org
mtllib SM_Env_Rock_09.mtl
o SM_Env_Rock_09
v -2.284790 0.788939 28.473846
v -12.013184 1.253881 28.473846
v -4.438293 -6.193521 29.865171
v -20.096680 -6.193521 29.865171
v 1.154541 -6.193510 -33.340424
v -31.133057 -6.193510 -33.340424
v -4.824524 1.253893 -31.820099
v -30.742737 1.253891 -31.820099
v -36.753845 4.055662 16.129181
v -38.404297 4.055668 -19.991058
v -37.282471 -6.193518 17.007902
v -38.932922 -6.193512 -21.018709
v 38.933105 -6.193512 -20.370424
v 38.695923 -0.946608 -19.482819
v 38.933105 -6.193520 19.988340
v 38.695923 -0.946617 19.114960
v 23.002075 -6.193521 33.340515
v 23.002075 -6.193520 19.988340
v 22.789185 1.253880 31.820190
v 22.838135 0.029100 19.079742
v 20.472900 33.224457 16.673895
v 20.472900 33.224464 -17.041773
v 20.023132 39.174736 21.243567
v 20.043823 39.174744 -21.639002
v 22.838135 0.029110 -19.447632
v 23.002075 -6.193512 -20.370424
v 22.789185 1.253889 -25.287415
v 23.002075 -6.193512 -26.555941
v 30.659973 28.484188 -17.447933
v 30.659973 28.484184 9.707372
v 27.087280 30.146591 16.937597
v -30.997925 -6.193512 -21.215548
v -30.458191 4.055668 -20.114960
v -25.635071 39.174744 -21.586176
v -26.160034 34.412479 -17.621637
v -25.666321 39.174736 21.240942
v -26.286682 34.412472 17.327215
v -30.458191 4.055660 19.747040
v -30.997925 -6.193520 20.833464
v -30.742737 1.253881 24.919525
v -31.133057 -6.193520 26.173857
v -34.108093 31.262318 -12.441340
v -30.614563 32.707035 -17.739985
v -34.796265 28.647675 -18.060970
v 33.700745 7.710719 -19.414000
v 33.700745 7.710711 19.046144
v 22.700562 3.633995 -19.307770
v 22.586121 5.371944 -25.017548
v -12.595398 16.736921 -31.547667
v -30.364258 5.371946 -31.545837
v -30.105957 7.352297 -19.910673
v -34.296143 14.001451 -19.858458
v -32.645691 14.001443 15.996554
v -30.105957 7.352289 19.542757
v -30.364258 5.371937 24.645264
v 5.648804 8.291099 28.202211
v 6.329895 14.555493 28.201479
v 22.700562 3.633987 18.939911
v 22.586121 5.371935 31.550323
v 31.048706 25.137421 17.330875
v -27.020935 29.268433 -29.123163
v -26.113892 35.751568 -21.933222
v -34.796326 28.647682 -18.060940
v -32.737732 31.262314 13.978338
v 20.623474 31.257746 25.595648
v 21.927185 14.062602 27.328279
v 20.177246 37.142334 21.448370
v 22.306274 9.063563 31.178347
v -24.433899 45.768440 19.809761
v -15.674133 52.263748 18.614418
v 17.824524 54.010334 19.178293
v -23.349976 53.384689 3.656473
v -23.437195 55.758137 -19.526693
v 18.454651 51.723286 -19.793358
v 9.495605 57.479279 -19.011740
v 17.720093 56.671265 -6.816275
v -21.025452 1.253881 24.919525
v -29.565735 -6.193520 26.173857
v -2.431763 14.555494 24.646425
v 10.248352 5.371935 31.549286
v 6.038391 0.788937 31.820190
v 5.851807 -6.193521 33.340515
v -2.642273 16.736919 -25.015806
v 5.659180 1.253891 -25.287415
v 12.597473 -6.193512 -26.555941
v 18.494385 -11.201332 25.811979
v 4.705017 -11.201332 25.811979
v 18.494385 -11.201324 -20.559389
v 10.128784 -11.201324 -20.559389
v 18.494385 -11.201324 -15.770601
v 18.494385 -11.201332 15.474821
v 31.303467 -11.201324 -15.770601
v 31.303467 -11.201332 15.474821
v -25.032043 -11.201324 -25.811892
v -24.923401 -11.201324 -16.424898
v -25.032043 -11.201332 20.263609
v -24.923401 -11.201332 16.129118
v -31.303406 -11.201324 -16.272524
v -29.976379 -11.201332 13.167387
v -23.771851 -11.201332 20.263609
v -16.158386 -11.201332 23.121397
v -3.568542 -11.201332 23.121397
v 0.928284 -11.201324 -25.811892
v -2.907837 -11.201328 2.314360
v 31.048767 25.137417 17.330936
v -34.796265 28.647675 -18.060970
v -34.796326 28.647682 -18.060940
v -34.108093 31.262318 -12.441340
vt 0.9467 0.4995
vt 0.9467 0.4995
vt 0.9467 0.4995
vt 0.9467 0.4995
vt 0.9467 0.4995
vt 0.9467 0.4995
vt 0.9467 0.4995
vt 0.9467 0.4995
vt 0.9467 0.4995
vt 0.9467 0.4995
vt 0.9467 0.4995
vt 0.9467 0.4995
vt 0.9467 0.4995
vt 0.9467 0.4995
vt 0.9467 0.4995
vt 0.9467 0.4995
vt 0.9467 0.4995
vt 0.9467 0.4995
vt 0.9467 0.4995
vt 0.9467 0.4995
vt 0.9467 0.4995
vt 0.9467 0.4995
vt 0.9467 0.4995
vt 0.9467 0.4995
vt 0.9467 0.4995
vt 0.9467 0.4995
vt 0.9467 0.4995
vt 0.9467 0.4995
vt 0.9467 0.4995
vt 0.9467 0.4995
vt 0.9467 0.4995
vt 0.9467 0.4995
vt 0.9467 0.4995
vt 0.9467 0.4995
vt 0.9467 0.4995
vt 0.9467 0.4995
vt 0.9467 0.4995
vt 0.9467 0.4995
vt 0.9467 0.4995
vt 0.9467 0.4995
vt 0.9467 0.4995
vt 0.9467 0.4995
vt 0.9467 0.4995
vt 0.9467 0.4995
vt 0.9467 0.4995
vt 0.9467 0.4995
vt 0.9467 0.4995
vt 0.9467 0.4995
vt 0.9467 0.4995
vt 0.9467 0.4995
vt 0.9467 0.4995
vt 0.9467 0.4995
vt 0.9467 0.4995
vt 0.9467 0.4995
vt 0.9467 0.4995
vt 0.9467 0.4995
vt 0.9467 0.4995
vt 0.9467 0.4995
vt 0.9467 0.4995
vt 0.9467 0.4995
vt 0.9467 0.4995
vt 0.9467 0.4995
vt 0.9467 0.4995
vt 0.9467 0.4995
vt 0.9467 0.4995
vt 0.9467 0.4995
vt 0.9467 0.4995
vt 0.9467 0.4995
vt 0.9467 0.4995
vt 0.9467 0.4995
vt 0.9467 0.4995
vt 0.9467 0.4995
vt 0.9467 0.4995
vt 0.9467 0.4995
vt 0.9467 0.4995
vt 0.9467 0.4995
vt 0.9467 0.4995
vt 0.9467 0.4995
vt 0.9467 0.4995
vt 0.9467 0.4995
vt 0.9467 0.4995
vt 0.9467 0.4995
vt 0.9467 0.4995
vt 0.9467 0.4995
vt 0.9467 0.4995
vt 0.9467 0.4995
vt 0.9467 0.4995
vt 0.9467 0.4995
vt 0.9467 0.4995
vt 0.9467 0.4995
vt 0.9467 0.4995
vt 0.9467 0.4995
vt 0.9467 0.4995
vt 0.9467 0.4995
vt 0.9467 0.4995
vt 0.9467 0.4995
vt 0.9467 0.4995
vt 0.9467 0.4995
vt 0.9467 0.4995
vt 0.9467 0.4995
vt 0.9467 0.4995
vt 0.9467 0.4995
vt 0.9467 0.4995
vt 0.9467 0.4995
vt 0.9467 0.4995
vt 0.9467 0.4995
vt 0.9467 0.4995
vt 0.9467 0.4995
vn 0.0092 0.1927 0.9812
vn 0.0078 0.1913 0.9815
vn 0.0007 0.1843 0.9829
vn 0.0000 0.1836 0.9830
vn 0.0000 0.2000 -0.9798
vn -0.9974 0.0554 0.0456
vn -0.9976 0.0534 0.0450
vn -0.9978 0.0490 0.0438
vn -0.9979 0.0471 0.0433
vn 0.9990 0.0452 0.0000
vn 0.9996 0.0286 0.0000
vn 0.9996 0.0283 0.0002
vn 0.9996 0.0269 0.0011
vn 0.9996 0.0265 0.0013
vn 0.9972 0.0753 -0.0001
vn 0.9971 0.0755 0.0011
vn 0.9973 0.0735 0.0002
vn 0.9972 0.0746 0.0034
vn 0.9993 0.0378 -0.0005
vn 0.9996 0.0269 -0.0026
vn 0.9996 0.0282 0.0003
vn 0.0000 0.1642 0.9864
vn 0.0067 0.1447 0.9895
vn 0.4219 0.9066 0.0000
vn 0.4219 0.9067 0.0000
vn 0.0068 0.1469 -0.9891
vn 0.0000 0.1668 -0.9860
vn -0.9987 0.0501 0.0111
vn -0.9987 0.0502 0.0112
vn -0.9987 0.0506 0.0115
vn -0.9986 0.0513 0.0120
vn -0.9940 0.1090 -0.0007
vn -0.9909 0.1344 -0.0065
vn -0.9912 0.1321 -0.0036
vn -0.9904 0.1381 0.0004
vn -0.9984 0.0496 -0.0281
vn -0.9984 0.0493 -0.0276
vn -0.9985 0.0483 -0.0257
vn -0.9985 0.0481 -0.0253
vn -0.0247 0.1010 -0.9946
vn -0.0240 0.1015 -0.9945
vn -0.0162 0.1071 -0.9941
vn -0.0155 0.1076 -0.9941
vn -0.6652 0.7048 -0.2464
vn -0.4955 0.1049 0.8623
vn -0.4958 0.0995 0.8627
vn -0.4957 0.1003 0.8627
vn -0.5164 0.1171 0.8483
vn 0.8662 0.4998 0.0000
vn -0.0237 0.0379 -0.9990
vn -0.0018 0.0069 -1.0000
vn 0.9988 0.0496 -0.0049
vn 0.9988 0.0483 -0.0044
vn 0.0000 0.0176 -0.9998
vn -0.0452 0.0705 -0.9965
vn -0.9944 0.1060 0.0040
vn -0.9958 0.0914 0.0023
vn 0.0053 0.0112 -0.9999
vn -0.0156 0.0635 -0.9979
vn -0.9232 0.3819 0.0425
vn -0.9233 0.3817 0.0424
vn -0.9236 0.3811 0.0423
vn -0.9236 0.3809 0.0422
vn -0.5326 0.2308 0.8143
vn -0.4954 0.1064 0.8621
vn -0.9944 0.1057 -0.0093
vn -0.9958 0.0912 -0.0054
vn 0.0380 -0.0040 0.9993
vn 0.0009 0.0192 0.9998
vn 0.9993 0.0381 0.0002
vn 0.9989 0.0469 0.0018
vn 0.9992 0.0407 0.0007
vn 0.9988 0.0494 0.0023
vn -0.0018 0.0069 1.0000
vn -0.0237 0.0378 0.9990
vn 0.9886 0.1505 0.0000
vn 0.9910 0.1336 0.0081
vn 0.9907 0.1362 0.0063
vn 0.9898 0.1426 0.0016
vn 0.9895 0.1448 0.0000
vn -0.0044 0.0760 -0.9971
vn -0.0422 0.0880 -0.9952
vn 0.9972 0.0748 0.0029
vn 0.9972 0.0749 0.0028
vn -0.0707 0.1104 -0.9914
vn -0.9903 0.1353 0.0314
vn -0.9895 0.1409 0.0332
vn -0.9901 0.1366 0.0318
vn -0.9903 0.1387 -0.0016
vn -0.9903 0.1390 -0.0009
vn -0.9903 0.1388 -0.0014
vn -0.9894 0.1415 0.0333
vn -0.9903 0.1392 -0.0006
vn -0.3415 0.6755 -0.6535
vn 0.3658 -0.4345 0.8230
vn 0.3657 -0.4345 0.8231
vn -0.0712 0.9159 -0.3951
vn -0.8186 0.5739 0.0236
vn -0.0712 0.9158 -0.3952
vn -0.4959 0.0982 0.8628
vn -0.6457 0.1524 0.7482
vn -0.9905 0.1376 -0.0060
vn -0.9901 0.1401 0.0043
vn 0.0589 0.1045 0.9928
vn 0.0557 -0.0059 0.9984
vn 0.9971 0.0755 -0.0002
vn 0.9971 0.0754 -0.0012
vn 0.9972 0.0752 -0.0012
vn 0.9972 0.0749 -0.0012
vn 0.9972 0.0751 -0.0012
vn 0.9971 0.0755 -0.0013
vn -0.0044 0.0760 0.9971
vn -0.0038 0.0759 0.9971
vn -0.0034 0.0759 0.9971
vn -0.0031 0.0758 0.9971
vn -0.0434 0.0913 0.9949
vn -0.0001 0.2121 0.9772
vn -0.0041 0.1863 0.9825
vn -0.0237 0.1344 0.9906
vn -0.9830 0.1836 -0.0007
vn -0.9886 0.1506 0.0047
vn -0.9915 0.1293 0.0170
vn -0.0011 0.1234 -0.9924
vn 0.0078 0.1465 -0.9892
vn 0.9921 0.1256 0.0005
vn 0.9906 0.1367 0.0039
vn 0.9893 0.1455 0.0095
vn 0.9903 0.1390 0.0054
vn 0.9889 0.1481 0.0112
vn 0.0000 0.1661 0.9861
vn -0.0126 0.0381 0.9992
vn 0.0000 0.0665 0.9978
vn -0.0345 0.1049 0.9939
vn -0.0001 0.1003 0.9950
vn 0.0017 0.1386 0.9904
vn -0.4412 0.4944 0.7490
vn -0.3353 0.4526 0.8263
vn -0.3312 0.4734 0.8162
vn -0.3256 0.4705 0.8201
vn -0.3295 0.4725 0.8174
vn -0.3239 0.4696 0.8213
vn -0.3185 0.4965 0.8075
vn -0.3153 0.4974 0.8082
vn -0.3182 0.4966 0.8075
vn -0.3151 0.4974 0.8083
vn -0.0001 0.1002 0.9950
vn -0.0001 0.0654 0.9979
vn -0.0005 0.0642 0.9979
vn -0.0014 0.0615 0.9981
vn -0.0017 0.0605 0.9982
vn -0.0055 0.1999 0.9798
vn 0.0000 0.2128 0.9771
vn -0.1579 0.5950 0.7881
vn -0.1749 0.6103 0.7726
vn -0.3683 0.3883 0.8448
vn -0.3429 0.3935 0.8530
vn -0.3649 0.2074 0.9076
vn -0.3075 0.2763 0.9105
vn -0.0535 0.9934 0.1019
vn -0.5323 0.7789 0.3315
vn 0.5007 0.8179 -0.2835
vn 0.0462 0.1028 -0.9936
vn -0.0012 0.1010 -0.9949
vn -0.0051 0.1539 -0.9881
vn 0.0000 0.0654 -0.9979
vn 0.0103 0.0231 -0.9997
vn 0.0000 0.1679 -0.9858
vn 0.4258 0.6307 -0.6488
vn 0.4465 0.6358 -0.6296
vn 0.5068 0.2860 -0.8133
vn 0.5269 0.2786 -0.8029
vn 0.4331 0.5280 -0.7305
vn 0.4539 0.5131 -0.7285
vn 0.0000 -0.8326 0.5538
vn 0.0000 -0.7675 -0.6410
vn 0.7432 -0.6690 0.0000
vn 0.0000 -0.6765 -0.7365
vn 0.0000 -0.6695 0.7428
vn 0.5487 -0.8360 -0.0000
vn -0.6397 -0.7686 0.0071
vn -0.6396 -0.7687 0.0073
vn -0.6396 -0.7687 0.0074
vn -0.6438 -0.7651 -0.0163
vn -0.6438 -0.7650 -0.0169
vn -0.6438 -0.7650 -0.0168
vn -0.0177 -0.7018 -0.7121
vn -0.0170 -0.7019 -0.7121
vn -0.0172 -0.7019 -0.7121
vn -0.3003 -0.8164 0.4933
vn -0.2994 -0.8166 0.4935
vn -0.2919 -0.8181 0.4955
vn -0.2906 -0.8183 0.4958
vn -0.5591 -0.8288 0.0243
vn -0.5570 -0.8302 0.0249
vn -0.5585 -0.8292 0.0244
vn -0.5562 -0.8307 0.0251
vn -0.1996 -0.8354 0.5121
vn -0.1918 -0.8382 0.5106
vn -0.1920 -0.8381 0.5106
vn -0.1916 -0.8382 0.5105
vn 0.0000 -0.7630 0.6465
vn -0.1904 -0.8038 0.5637
vn -0.1879 -0.8020 0.5670
vn -0.1858 -0.8004 0.5699
vn -0.1855 -0.8002 0.5703
vn 0.0000 -0.8028 0.5962
vn 0.3085 -0.7963 -0.5204
vn 0.3046 -0.7890 -0.5335
vn 0.0000 -0.8326 -0.5538
vn -0.0000 -1.0000 -0.0000
vn 0.7542 0.6146 0.2313
vn 0.3425 -0.8573 -0.3844
vn 0.7971 0.6025 0.0407
vn 0.3880 0.6287 0.6739
vn -0.6250 -0.4684 0.6245
vn -0.6249 -0.4685 0.6246
vn 0.0982 0.0697 -0.9927
vn -0.0180 0.1160 -0.9931
vn -0.0407 0.1203 -0.9919
vn -0.9989 0.0000 0.0460
vn -0.9987 -0.0094 0.0508
vn -0.9989 -0.0010 0.0465
vn -0.9986 -0.0114 0.0518
vn -0.9881 -0.0515 0.1450
vn -0.4381 0.8989 -0.0016
vn -0.3579 0.9336 0.0186
vn 0.0000 0.0000 1.0000
usemtl None
s 1
f 1/1/1 2/2/2 3/3/3
f 3/3/3 2/2/2 4/4/4
f 5/5/5 6/6/5 7/7/5
f 7/7/5 6/6/5 8/8/5
f 9/9/6 10/10/7 11/11/8
f 11/11/8 10/10/7 12/12/9
f 13/13/10 14/14/10 15/15/10
f 15/15/10 14/14/10 16/16/10
f 17/17/11 18/18/12 19/19/13
f 19/19/13 18/18/12 20/20/14
f 21/21/15 22/22/16 23/23/17
f 23/23/17 22/22/16 24/24/18
f 25/25/19 26/26/20 27/27/21
f 27/27/21 26/26/20 28/28/11
f 15/15/22 16/16/22 18/18/22
f 18/18/23 16/16/23 20/20/23
f 29/29/24 22/22/24 30/30/25
f 21/21/24 31/31/24 22/22/24
f 31/31/24 30/30/25 22/22/24
f 25/25/26 14/14/26 26/26/26
f 26/26/27 14/14/27 13/13/27
f 6/6/28 32/32/29 8/8/30
f 8/8/30 32/32/29 33/33/31
f 34/34/32 35/35/32 36/36/32
f 36/36/33 35/35/34 37/37/35
f 38/38/36 39/39/37 40/40/38
f 40/40/38 39/39/37 41/41/39
f 12/12/40 10/10/41 32/32/42
f 32/32/42 10/10/41 33/33/43
f 42/42/44 43/43/44 44/44/44
f 9/9/45 11/11/46 38/38/47
f 38/38/48 11/11/48 39/39/48
f 14/14/49 45/45/49 16/16/49
f 16/16/49 45/45/49 46/46/49
f 47/47/50 45/45/50 25/25/50
f 25/25/51 45/45/51 14/14/51
f 48/48/52 47/47/53 27/27/21
f 27/27/21 47/47/53 25/25/19
f 7/7/54 8/8/54 49/49/54
f 49/49/55 8/8/55 50/50/55
f 51/51/56 50/50/56 33/33/56
f 33/33/57 50/50/57 8/8/57
f 52/52/58 51/51/58 10/10/58
f 10/10/59 51/51/59 33/33/59
f 53/53/60 52/52/61 9/9/62
f 9/9/62 52/52/61 10/10/63
f 53/53/64 9/9/64 54/54/64
f 54/54/65 9/9/45 38/38/47
f 54/54/66 38/38/66 55/55/66
f 55/55/67 38/38/67 40/40/67
f 56/56/68 57/57/68 1/1/68
f 1/1/69 57/57/69 2/2/69
f 20/20/70 58/58/71 19/19/72
f 19/19/72 58/58/71 59/59/73
f 16/16/74 46/46/74 20/20/74
f 20/20/75 46/46/75 58/58/75
f 46/46/76 45/45/76 60/60/76
f 60/60/77 45/45/78 30/30/79
f 45/45/78 29/29/80 30/30/79
f 22/22/81 29/29/81 47/47/81
f 47/47/82 29/29/82 45/45/82
f 24/24/18 22/22/16 48/48/83
f 48/48/83 22/22/16 47/47/84
f 61/61/85 49/49/85 50/50/85
f 34/34/86 62/62/87 35/35/88
f 50/50/89 51/51/90 61/61/91
f 35/35/88 62/62/87 51/51/92
f 51/51/90 62/62/93 61/61/91
f 43/43/94 63/63/95 44/44/96
f 63/63/97 42/42/98 44/44/99
f 64/64/100 53/53/100 37/37/100
f 37/37/101 53/53/101 54/54/101
f 36/36/33 37/37/35 55/55/102
f 55/55/102 37/37/35 54/54/103
f 65/65/104 57/57/104 66/66/104
f 66/66/105 57/57/105 56/56/105
f 23/23/17 67/67/106 21/21/15
f 67/67/106 65/65/107 21/21/15
f 21/21/15 65/65/107 58/58/108
f 65/65/107 66/66/109 58/58/108
f 66/66/109 68/68/110 58/58/108
f 58/58/108 68/68/110 59/59/111
f 21/21/112 58/58/113 31/31/114
f 31/31/114 58/58/113 60/60/115
f 46/46/116 60/60/116 58/58/116
f 36/36/117 23/23/117 69/69/117
f 69/69/118 23/23/118 70/70/118
f 23/23/119 71/71/119 70/70/119
f 36/36/120 69/69/120 34/34/120
f 69/69/121 72/72/121 34/34/121
f 72/72/122 73/73/122 34/34/122
f 34/34/123 73/73/123 24/24/123
f 24/24/124 73/73/124 74/74/124
f 73/73/124 75/75/124 74/74/124
f 24/24/125 74/74/125 23/23/125
f 74/74/126 76/76/127 23/23/128
f 76/76/127 71/71/129 23/23/128
f 77/77/130 40/40/130 78/78/130
f 78/78/130 40/40/130 41/41/130
f 79/79/131 55/55/131 77/77/131
f 77/77/132 55/55/132 40/40/132
f 55/55/133 79/79/133 36/36/133
f 23/23/134 36/36/134 67/67/134
f 67/67/135 36/36/135 79/79/135
f 65/65/136 67/67/136 57/57/136
f 57/57/137 67/67/137 79/79/137
f 57/57/138 79/79/139 2/2/140
f 2/2/140 79/79/139 77/77/141
f 2/2/142 77/77/143 4/4/144
f 4/4/144 77/77/143 78/78/145
f 59/59/146 68/68/146 80/80/146
f 59/59/147 80/80/148 19/19/149
f 19/19/149 80/80/148 81/81/150
f 19/19/151 81/81/151 17/17/151
f 17/17/152 81/81/152 82/82/152
f 68/68/153 66/66/153 80/80/153
f 80/80/154 66/66/154 56/56/154
f 80/80/155 56/56/155 81/81/155
f 81/81/156 56/56/156 1/1/156
f 81/81/157 1/1/157 82/82/157
f 82/82/158 1/1/158 3/3/158
f 71/71/159 76/76/159 70/70/159
f 70/70/159 76/76/159 72/72/159
f 76/76/159 75/75/159 72/72/159
f 72/72/159 75/75/159 73/73/159
f 69/69/160 70/70/160 72/72/160
f 74/74/161 75/75/161 76/76/161
f 48/48/162 83/83/162 24/24/162
f 34/34/163 24/24/163 62/62/163
f 24/24/164 83/83/164 62/62/164
f 27/27/165 84/84/165 48/48/165
f 48/48/166 84/84/166 83/83/166
f 28/28/167 85/85/167 27/27/167
f 27/27/167 85/85/167 84/84/167
f 83/83/168 49/49/168 62/62/168
f 62/62/169 49/49/169 61/61/169
f 84/84/170 7/7/170 83/83/170
f 83/83/171 7/7/171 49/49/171
f 85/85/172 5/5/172 84/84/172
f 84/84/173 5/5/173 7/7/173
f 17/17/174 82/82/174 86/86/174
f 86/86/174 82/82/174 87/87/174
f 28/28/175 88/88/175 85/85/175
f 85/85/175 88/88/175 89/89/175
f 28/28/176 26/26/176 88/88/176
f 88/88/176 26/26/176 90/90/176
f 17/17/176 86/86/176 18/18/176
f 18/18/176 86/86/176 91/91/176
f 13/13/177 92/92/177 26/26/177
f 26/26/177 92/92/177 90/90/177
f 15/15/178 18/18/178 93/93/178
f 93/93/178 18/18/178 91/91/178
f 13/13/179 15/15/179 92/92/179
f 92/92/179 15/15/179 93/93/179
f 6/6/180 94/94/181 32/32/181
f 32/32/181 94/94/181 95/95/182
f 41/41/183 39/39/184 96/96/185
f 96/96/185 39/39/184 97/97/184
f 12/12/186 32/32/187 98/98/188
f 98/98/188 32/32/187 95/95/187
f 11/11/189 99/99/190 39/39/191
f 39/39/191 99/99/190 97/97/192
f 12/12/193 98/98/194 11/11/195
f 11/11/195 98/98/194 99/99/196
f 78/78/197 100/100/198 4/4/199
f 4/4/199 100/100/198 101/101/200
f 41/41/201 96/96/201 78/78/201
f 78/78/201 96/96/201 100/100/201
f 82/82/202 3/3/203 87/87/204
f 87/87/204 3/3/203 102/102/205
f 4/4/206 101/101/206 3/3/206
f 3/3/206 101/101/206 102/102/206
f 5/5/207 85/85/207 103/103/207
f 103/103/208 85/85/208 89/89/208
f 6/6/209 5/5/209 94/94/209
f 94/94/209 5/5/209 103/103/209
f 86/86/210 87/87/210 104/104/210
f 89/89/210 88/88/210 104/104/210
f 88/88/210 90/90/210 104/104/210
f 91/91/210 86/86/210 104/104/210
f 90/90/210 92/92/210 104/104/210
f 93/93/210 91/91/210 104/104/210
f 92/92/210 93/93/210 104/104/210
f 95/95/210 94/94/210 104/104/210
f 96/96/210 97/97/210 104/104/210
f 98/98/210 95/95/210 104/104/210
f 97/97/210 99/99/210 104/104/210
f 99/99/210 98/98/210 104/104/210
f 101/101/210 100/100/210 104/104/210
f 100/100/210 96/96/210 104/104/210
f 87/87/210 102/102/210 104/104/210
f 102/102/210 101/101/210 104/104/210
f 103/103/210 89/89/210 104/104/210
f 94/94/210 103/103/210 104/104/210
f 30/30/211 31/31/211 105/105/211
f 60/60/212 30/30/213 105/105/212
f 31/31/214 60/60/215 105/105/216
f 51/51/217 52/52/217 35/35/217
f 35/35/218 52/52/218 43/43/218
f 52/52/219 63/63/219 43/43/219
f 53/53/220 64/64/221 52/52/222
f 64/64/221 42/42/223 52/52/222
f 42/42/224 63/63/224 52/52/224
f 37/37/225 35/35/225 64/64/225
f 35/35/226 43/43/226 64/64/226
f 43/43/226 42/42/226 64/64/226
f 106/106/227 44/44/227 107/107/227
f 44/44/227 63/63/227 107/107/227
f 108/108/227 42/42/227 106/106/227
f 42/42/227 44/44/227 106/106/227
