# Blender v2.78 (sub 0) OBJ File: ''
# www.blender.org
mtllib SM_Env_Bush_02.mtl
o SM_Env_Bush_02
v 57.519531 12.732040 36.433319
v 69.085938 28.156685 31.630133
v 63.535156 29.476196 46.132236
v 62.290039 19.620834 -1.877713
v 71.046875 59.871700 32.281624
v 62.546875 70.029205 42.824169
v 71.933594 42.698143 0.407386
v 68.085938 80.596512 22.411909
v 33.267578 63.125774 70.733406
v 45.951172 85.904617 43.088573
v 53.161133 28.619049 -24.171350
v 80.748047 59.026310 -27.102316
v 62.917969 58.849102 -59.588676
v 77.607422 81.081696 -25.211718
v 73.928711 62.850735 -4.668904
v 64.655273 118.832123 -63.242535
v 63.336914 121.652046 -47.065746
v 54.138672 119.303841 -16.180218
v 71.896484 94.362228 0.627273
v 61.375977 140.261963 16.284203
v 33.213867 139.532715 -20.054420
v 32.191406 149.642914 -0.469214
v 34.016602 118.059296 -32.315594
v 18.641602 176.687378 -9.616060
v 29.425781 167.331085 -9.248661
v 44.217773 104.407982 36.788528
v 57.782227 138.917694 27.717430
v 39.645508 142.136963 38.325890
v 29.922852 146.517548 24.330500
v 6.799805 194.529175 -5.023680
v -24.893555 179.283539 -3.941804
v -4.578125 151.831207 13.433527
v -1.824219 204.050720 -27.564419
v -14.455078 199.902161 -18.699980
v 16.203125 185.661865 -23.864563
v 6.624023 178.436005 -32.272678
v -13.977539 187.300903 -30.624542
v -17.063477 133.846802 -46.067059
v -26.060547 158.494751 -26.462254
v -24.679688 142.059692 -23.473305
v -27.303711 156.902100 -0.597203
v -22.227539 144.162384 8.476494
v -36.996094 144.042145 8.138176
v -46.370117 129.806824 -1.499765
v -38.898438 101.855522 8.089616
v -45.076172 96.657333 -23.206068
v -38.733398 100.421165 24.644030
v -60.247070 90.045883 -14.519943
v -72.625000 103.042137 25.241716
v -61.287109 98.399529 40.004990
v -20.954102 108.910583 -37.935654
v -35.053711 92.549782 -39.180099
v -46.315430 80.744263 -23.311510
v -49.044922 44.139507 -22.119926
v -60.309570 42.777462 -18.938744
v -50.605469 77.268784 -54.051380
v -42.209961 93.244972 -63.719284
v -36.957031 66.987198 -66.236504
v -40.890625 40.723763 -36.596859
v -34.843750 34.604225 -18.676416
v -47.285156 20.875870 -4.723752
v -74.258789 93.980812 34.595322
v -77.250977 90.582321 15.406325
v -80.748047 52.812954 30.810160
v -48.627930 42.694809 57.412663
v -71.218750 25.787849 28.187382
v -65.860352 19.571602 39.770569
v -27.332031 9.163788 15.523561
v -48.089844 21.622536 49.779087
v -6.509766 0.000000 15.183441
v -5.468750 7.591797 -24.230162
v -17.561523 23.935417 45.018528
v -25.309570 36.963608 -57.159420
v 6.596680 34.988960 -64.980156
v 7.943359 16.993263 -43.017670
v 32.817383 5.453545 6.983003
v 31.366211 12.299591 -21.904722
v 41.646484 30.104080 -43.634274
v 30.547852 50.317944 -60.533867
v -2.092773 15.889534 55.836334
v 20.295898 17.409950 60.814819
v 20.507812 80.404732 -58.991932
v 7.048828 52.959309 -70.733330
v 10.136719 130.911621 -42.771099
v 28.008789 121.458061 -41.759655
v 51.345703 122.767021 -57.688213
v -13.958984 63.389103 -69.504692
v -26.416016 88.281929 -65.238876
v -7.149414 74.998215 -53.053669
v -11.805664 93.284691 -46.554214
v 1.826172 141.020325 -45.823952
v -17.863281 40.151886 54.785709
v -10.780273 27.277489 65.852081
v -9.109375 60.141624 69.699348
v -25.853516 78.949898 54.379925
v -9.731445 96.735558 60.709579
v -27.143555 88.894821 41.551708
v 22.143555 28.675064 70.412170
v 31.057617 39.389057 63.533878
v 11.489258 76.953117 63.455486
v 2.303711 111.852737 45.587936
v -11.201172 130.831726 39.692982
vt 0.8736 0.4118
vt 0.8736 0.4118
vt 0.8736 0.4118
vt 0.8736 0.4118
vt 0.8736 0.4118
vt 0.8736 0.4118
vt 0.8736 0.4118
vt 0.8736 0.4118
vt 0.8736 0.4118
vt 0.8736 0.4118
vt 0.8736 0.4118
vt 0.8736 0.4118
vt 0.8736 0.4118
vt 0.8736 0.4118
vt 0.8736 0.4118
vt 0.8736 0.4118
vt 0.8736 0.4118
vt 0.8736 0.4118
vt 0.8736 0.4118
vt 0.8736 0.4118
vt 0.8736 0.4118
vt 0.8736 0.4118
vt 0.8736 0.4118
vt 0.8736 0.4118
vt 0.8736 0.4118
vt 0.8736 0.4118
vt 0.8736 0.4118
vt 0.8736 0.4118
vt 0.8736 0.4118
vt 0.8736 0.4118
vt 0.8736 0.4118
vt 0.8736 0.4118
vt 0.8736 0.4118
vt 0.8736 0.4118
vt 0.8736 0.4118
vt 0.8736 0.4118
vt 0.8736 0.4118
vt 0.8736 0.4118
vt 0.8736 0.4118
vt 0.8736 0.4118
vt 0.8736 0.4118
vt 0.8736 0.4118
vt 0.8736 0.4118
vt 0.8736 0.4118
vt 0.8736 0.4118
vt 0.8736 0.4118
vt 0.8736 0.4118
vt 0.8736 0.4118
vt 0.8736 0.4118
vt 0.8736 0.4118
vt 0.8736 0.4118
vt 0.8736 0.4118
vt 0.8736 0.4118
vt 0.8736 0.4118
vt 0.8736 0.4118
vt 0.8736 0.4118
vt 0.8736 0.4118
vt 0.8736 0.4118
vt 0.8736 0.4118
vt 0.8736 0.4118
vt 0.8736 0.4118
vt 0.8736 0.4118
vt 0.8736 0.4118
vt 0.8736 0.4118
vt 0.8736 0.4118
vt 0.8736 0.4118
vt 0.8736 0.4118
vt 0.8736 0.4118
vt 0.8736 0.4118
vt 0.8736 0.4118
vt 0.8736 0.4118
vt 0.8736 0.4118
vt 0.8736 0.4118
vt 0.8736 0.4118
vt 0.8736 0.4118
vt 0.8736 0.4118
vt 0.8736 0.4118
vt 0.8736 0.4118
vt 0.8736 0.4118
vt 0.8736 0.4118
vt 0.8736 0.4118
vt 0.8736 0.4118
vt 0.8736 0.4118
vt 0.8736 0.4118
vt 0.8736 0.4118
vt 0.8736 0.4118
vt 0.8736 0.4118
vt 0.8736 0.4118
vt 0.8736 0.4118
vt 0.8736 0.4118
vt 0.8736 0.4118
vt 0.8736 0.4118
vt 0.8736 0.4118
vt 0.8736 0.4118
vt 0.8736 0.4118
vt 0.8736 0.4118
vt 0.8736 0.4118
vt 0.8736 0.4118
vt 0.8736 0.4118
vt 0.8736 0.4118
vt 0.8736 0.4118
vt 0.8736 0.4118
vn 0.7985 -0.4897 0.3502
vn 0.7987 -0.6016 -0.0087
vn 0.9300 -0.0649 0.3619
vn 0.8075 0.0675 0.5860
vn 0.9961 -0.0629 0.0616
vn 0.8637 0.3119 0.3959
vn 0.6785 0.0761 0.7306
vn 0.6070 0.6264 0.4890
vn 0.5168 0.5291 0.6731
vn 0.9220 -0.3763 -0.0911
vn 0.8331 -0.3023 -0.4632
vn 0.7221 -0.6713 -0.1670
vn 0.6717 -0.6446 -0.3651
vn 0.9558 0.1129 0.2713
vn 0.8644 0.1638 -0.4753
vn 0.9402 0.3401 0.0173
vn 0.8452 0.4514 0.2860
vn 0.7952 0.3758 0.4759
vn 0.9942 -0.0805 0.0710
vn 0.9556 -0.0206 0.2940
vn 0.7835 0.1518 -0.6025
vn 0.9954 0.0505 0.0817
vn 0.8949 0.2895 0.3395
vn 0.9584 0.1337 0.2521
vn 0.8514 0.3333 -0.4050
vn 0.6445 0.5688 -0.5109
vn 0.4749 0.7918 -0.3840
vn -0.0986 0.9941 0.0462
vn 0.5485 0.4300 -0.7171
vn 0.5737 0.4222 -0.7018
vn 0.3589 0.3803 -0.8524
vn 0.9894 0.1436 -0.0225
vn 0.6895 0.2905 0.6635
vn 0.6148 0.1487 0.7745
vn 0.9209 -0.2950 0.2548
vn 0.5082 0.0265 0.8608
vn 0.2069 0.9620 0.1782
vn 0.2504 0.9584 0.1373
vn 0.2290 0.9630 0.1423
vn -0.1848 0.4463 0.8756
vn -0.2192 0.4008 0.8896
vn 0.8655 0.4809 0.1398
vn 0.8404 0.5125 0.1762
vn -0.0231 0.9177 0.3965
vn 0.3705 0.4588 0.8076
vn 0.4800 0.3159 -0.8184
vn 0.4838 0.3107 -0.8182
vn 0.4842 0.3101 -0.8182
vn 0.8217 0.5649 -0.0758
vn 0.6409 0.6942 0.3276
vn -0.5950 0.5404 -0.5949
vn -0.0010 0.1805 -0.9836
vn 0.0415 0.2751 -0.9605
vn -0.7483 0.2236 -0.6246
vn -0.8755 0.3142 -0.3671
vn -0.9246 0.3025 -0.2313
vn -0.9919 -0.0634 0.1099
vn -0.4088 0.4157 0.8124
vn -0.4873 0.1802 0.8544
vn -0.2884 0.6496 0.7035
vn -0.9829 0.0811 -0.1654
vn -0.0234 0.5738 0.8187
vn -0.8156 0.5758 -0.0572
vn -0.7325 0.5297 -0.4277
vn -0.7401 0.0326 0.6717
vn -0.9587 -0.1810 0.2193
vn -0.8018 0.5946 0.0595
vn -0.4080 0.9128 -0.0177
vn 0.0687 0.9544 -0.2906
vn 0.0791 0.9667 0.2433
vn -0.7572 0.3369 -0.5596
vn -0.7565 0.3365 -0.5608
vn -0.7571 0.3368 -0.5598
vn -0.3252 0.3472 -0.8796
vn -0.8370 0.0688 -0.5428
vn -0.7563 0.3365 -0.5610
vn -0.5112 0.0455 -0.8582
vn -0.2705 -0.0112 -0.9627
vn -0.7102 0.7037 0.0195
vn -0.7888 0.5633 0.2460
vn -0.6931 -0.0699 -0.7174
vn -0.9886 0.0779 0.1292
vn -0.8352 -0.4015 -0.3757
vn -0.7595 -0.4335 -0.4849
vn -0.7536 -0.4392 -0.4891
vn -0.7586 -0.4344 -0.4856
vn -0.5367 -0.8372 -0.1048
vn -0.1663 -0.5446 -0.8221
vn -0.1882 -0.6110 -0.7690
vn -0.4680 0.6742 0.5714
vn -0.9560 0.2758 0.1002
vn -0.9815 0.1430 0.1277
vn -0.3773 -0.0256 0.9257
vn -0.6146 0.1047 0.7819
vn -0.7016 0.5834 -0.4091
vn -0.4923 0.0817 -0.8666
vn -0.8681 0.0473 -0.4941
vn -0.9276 -0.0642 -0.3681
vn -0.9047 -0.2886 -0.3135
vn -0.6627 -0.3003 0.6860
vn -0.8299 0.2310 0.5079
vn -0.2279 -0.8980 -0.3765
vn -0.0633 -0.9496 0.3070
vn -0.7115 -0.6279 -0.3154
vn -0.3588 -0.9166 -0.1766
vn -0.4012 -0.9068 -0.1292
vn -0.3748 -0.9085 -0.1849
vn -0.3398 -0.7910 0.5087
vn 0.1321 -0.9031 0.4085
vn -0.4864 -0.3657 -0.7935
vn -0.4263 -0.8903 -0.1602
vn -0.6829 -0.6990 -0.2121
vn -0.1924 -0.7871 -0.5861
vn -0.3067 -0.7454 -0.5919
vn 0.2061 -0.9260 -0.3163
vn 0.0135 -0.9728 -0.2312
vn 0.3027 -0.8024 -0.5143
vn 0.2031 -0.5600 -0.8032
vn 0.5312 -0.7611 -0.3723
vn 0.4888 -0.7210 -0.4912
vn 0.4026 -0.9083 -0.1132
vn 0.3639 -0.9021 -0.2321
vn -0.6115 -0.7121 0.3448
vn -0.0181 -0.9306 0.3657
vn 0.0969 -0.9778 -0.1858
vn 0.1589 -0.9812 0.1093
vn 0.0849 -0.9465 0.3112
vn 0.4023 -0.5628 0.7221
vn 0.6083 -0.6786 -0.4117
vn 0.1745 -0.5734 -0.8005
vn -0.1085 0.0147 -0.9940
vn 0.4086 0.1822 -0.8943
vn 0.2316 0.3402 -0.9114
vn 0.9296 -0.0492 -0.3654
vn 0.0455 -0.0621 -0.9970
vn -0.3081 0.2525 -0.9172
vn -0.5300 0.4087 -0.7430
vn 0.2223 0.9634 -0.1498
vn 0.5176 -0.6460 -0.5611
vn -0.2441 -0.3224 -0.9146
vn -0.2007 -0.2941 -0.9345
vn 0.3527 -0.2933 -0.8886
vn -0.7526 -0.4401 -0.4898
vn -0.1852 -0.3495 -0.9184
vn -0.1298 0.0689 -0.9891
vn -0.0497 0.1445 -0.9883
vn 0.6767 0.4398 -0.5905
vn 0.2941 0.9540 -0.0587
vn -0.0913 0.9775 -0.1903
vn 0.6698 0.3942 -0.6293
vn 0.1154 0.3423 -0.9325
vn -0.2664 0.8360 -0.4797
vn -0.2496 0.2493 -0.9357
vn -0.2813 0.2570 -0.9246
vn 0.2748 -0.0638 -0.9594
vn 0.0079 0.0130 -0.9999
vn -0.2954 0.3230 -0.8991
vn -0.7607 -0.0909 -0.6427
vn -0.9425 0.0388 -0.3318
vn -0.9529 -0.1299 -0.2740
vn -0.1216 0.3518 -0.9282
vn -0.0439 0.9872 0.1532
vn 0.1264 0.9563 0.2637
vn 0.1731 0.2246 -0.9589
vn 0.5591 0.2180 -0.7999
vn 0.8525 0.2798 -0.4416
vn 0.4797 0.3163 -0.8184
vn 0.9668 0.2553 -0.0046
vn -0.4376 -0.3161 0.8418
vn 0.0522 -0.3390 0.9394
vn 0.1702 -0.5061 0.8455
vn -0.6015 -0.7347 0.3136
vn -0.9172 -0.2179 0.3335
vn -0.8515 -0.0181 0.5240
vn -0.7531 -0.1484 0.6410
vn -0.5356 0.1929 0.8222
vn -0.2511 0.2363 0.9387
vn 0.0874 0.0284 0.9958
vn 0.1918 0.7849 0.5892
vn -0.1273 -0.6311 0.7652
vn -0.0707 -0.6886 0.7216
vn 0.3042 0.3224 0.8964
vn -0.1319 -0.1086 0.9853
vn 0.4015 -0.6312 0.6636
vn 0.4995 0.1339 0.8559
vn 0.3775 -0.3008 0.8758
vn -0.4340 -0.2243 0.8726
vn 0.2057 0.1092 0.9725
vn 0.0978 0.2390 0.9661
vn 0.3629 0.4986 0.7872
vn 0.3625 0.4989 0.7872
vn 0.3607 0.5003 0.7872
vn -0.0098 0.4537 0.8911
vn 0.4008 0.6083 0.6851
vn 0.2500 0.3330 0.9092
vn 0.2028 -0.0153 0.9791
vn 0.0682 0.9646 0.2546
vn 0.3601 0.5007 0.7872
vn -0.3079 0.5635 0.7666
vn 0.5506 0.5787 0.6016
vn 0.2222 0.8698 0.4406
vn -0.6855 0.2902 0.6677
vn -0.6643 0.3713 0.6488
vn -0.8684 0.3459 0.3554
vn -0.4595 0.7466 0.4811
vn -0.7554 0.6522 0.0640
vn -0.0166 0.9174 0.3976
vn -0.7668 0.0338 0.6410
usemtl None
s 1
f 1/1/1 2/2/1 3/3/1
f 1/1/2 4/4/2 2/2/2
f 3/3/3 2/2/3 5/5/3
f 3/3/4 5/5/4 6/6/4
f 2/2/5 7/7/5 5/5/5
f 6/6/6 5/5/6 8/8/6
f 9/9/7 3/3/7 6/6/7
f 10/10/8 6/6/8 8/8/8
f 9/9/9 6/6/9 10/10/9
f 4/4/10 7/7/10 2/2/10
f 4/4/11 11/11/11 7/7/11
f 7/7/12 11/11/12 12/12/12
f 11/11/13 13/13/13 12/12/13
f 12/12/14 14/14/14 15/15/14
f 12/12/15 13/13/15 14/14/15
f 14/14/16 16/16/16 17/17/16
f 18/18/17 14/14/17 17/17/17
f 15/15/18 14/14/18 18/18/18
f 7/7/19 15/15/19 5/5/19
f 7/7/20 12/12/20 15/15/20
f 15/15/21 18/18/21 19/19/21
f 5/5/22 15/15/22 19/19/22
f 5/5/23 19/19/23 8/8/23
f 8/8/24 19/19/24 20/20/24
f 19/19/25 18/18/25 20/20/25
f 20/20/26 18/18/26 21/21/26
f 20/20/27 21/21/27 22/22/27
f 18/18/28 17/17/28 23/23/28
f 18/18/29 23/23/29 21/21/29
f 21/21/30 23/23/30 24/24/30
f 25/25/31 21/21/31 24/24/31
f 22/22/32 21/21/32 25/25/32
f 10/10/33 8/8/33 26/26/33
f 8/8/34 20/20/34 26/26/34
f 26/26/35 20/20/35 27/27/35
f 26/26/36 27/27/36 28/28/36
f 27/27/37 20/20/37 22/22/37
f 28/28/38 27/27/38 22/22/38
f 28/28/39 22/22/39 29/29/39
f 29/29/40 30/30/40 31/31/40
f 32/32/41 29/29/41 31/31/41
f 22/22/42 24/24/42 29/29/42
f 29/29/43 24/24/43 30/30/43
f 30/30/44 33/33/44 34/34/44
f 22/22/45 25/25/45 24/24/45
f 35/35/46 36/36/47 33/33/48
f 24/24/49 33/33/49 30/30/49
f 24/24/50 35/35/50 33/33/50
f 34/34/51 33/33/51 37/37/51
f 33/33/52 36/36/52 37/37/52
f 37/37/53 36/36/53 38/38/53
f 37/37/54 38/38/54 39/39/54
f 34/34/55 37/37/55 39/39/55
f 34/34/56 39/39/56 31/31/56
f 31/31/57 39/39/57 40/40/57
f 32/32/58 41/41/58 42/42/58
f 32/32/59 31/31/59 41/41/59
f 30/30/60 34/34/60 31/31/60
f 31/31/61 40/40/61 41/41/61
f 42/42/62 41/41/62 43/43/62
f 43/43/63 41/41/63 44/44/63
f 41/41/64 40/40/64 44/44/64
f 43/43/65 44/44/65 45/45/65
f 45/45/66 44/44/66 46/46/66
f 45/45/67 46/46/67 47/47/67
f 47/47/68 46/46/68 48/48/68
f 47/47/69 48/48/69 49/49/69
f 47/47/70 49/49/70 50/50/70
f 44/44/71 40/40/72 46/46/73
f 40/40/74 51/51/74 52/52/74
f 46/46/75 52/52/75 53/53/75
f 40/40/72 52/52/76 46/46/73
f 46/46/77 53/53/77 48/48/77
f 53/53/78 54/54/78 55/55/78
f 53/53/79 52/52/79 56/56/79
f 52/52/80 57/57/80 56/56/80
f 56/56/81 57/57/81 58/58/81
f 53/53/82 56/56/82 54/54/82
f 54/54/83 56/56/83 59/59/83
f 56/56/84 58/58/85 59/59/86
f 54/54/87 59/59/87 60/60/87
f 54/54/88 60/60/88 55/55/88
f 55/55/89 60/60/89 61/61/89
f 50/50/90 49/49/90 62/62/90
f 49/49/91 63/63/91 62/62/91
f 62/62/92 63/63/92 64/64/92
f 62/62/93 64/64/93 50/50/93
f 50/50/94 64/64/94 65/65/94
f 49/49/95 48/48/95 63/63/95
f 48/48/96 53/53/96 55/55/96
f 63/63/97 48/48/97 55/55/97
f 63/63/98 55/55/98 64/64/98
f 64/64/99 55/55/99 66/66/99
f 65/65/100 64/64/100 66/66/100
f 65/65/101 66/66/101 67/67/101
f 66/66/102 55/55/102 67/67/102
f 67/67/103 68/68/103 69/69/103
f 55/55/104 61/61/104 67/67/104
f 67/67/105 61/61/105 68/68/105
f 68/68/106 61/61/106 70/70/106
f 70/70/107 61/61/107 71/71/107
f 68/68/108 70/70/108 72/72/108
f 69/69/109 68/68/109 72/72/109
f 61/61/110 60/60/110 71/71/110
f 59/59/111 73/73/111 60/60/111
f 60/60/112 73/73/112 71/71/112
f 73/73/113 74/74/113 71/71/113
f 71/71/114 74/74/114 75/75/114
f 71/71/115 75/75/115 76/76/115
f 75/75/116 77/77/116 76/76/116
f 75/75/117 78/78/117 77/77/117
f 75/75/118 79/79/118 78/78/118
f 77/77/119 78/78/119 11/11/119
f 77/77/120 11/11/120 4/4/120
f 1/1/121 76/76/121 4/4/121
f 76/76/122 77/77/122 4/4/122
f 72/72/123 70/70/123 80/80/123
f 80/80/124 70/70/124 81/81/124
f 70/70/125 71/71/125 76/76/125
f 70/70/126 76/76/126 1/1/126
f 81/81/127 70/70/127 1/1/127
f 81/81/128 1/1/128 3/3/128
f 11/11/129 78/78/129 13/13/129
f 78/78/130 79/79/130 13/13/130
f 79/79/131 82/82/131 16/16/131
f 79/79/132 83/83/132 82/82/132
f 82/82/133 84/84/133 85/85/133
f 13/13/134 16/16/134 14/14/134
f 13/13/135 79/79/135 16/16/135
f 16/16/136 82/82/136 86/86/136
f 82/82/137 85/85/137 86/86/137
f 16/16/138 86/86/138 17/17/138
f 79/79/139 75/75/139 74/74/139
f 73/73/140 87/87/140 74/74/140
f 74/74/141 87/87/141 83/83/141
f 79/79/142 74/74/142 83/83/142
f 73/73/143 59/59/86 58/58/85
f 73/73/144 58/58/144 87/87/144
f 58/58/145 57/57/145 87/87/145
f 87/87/146 57/57/146 88/88/146
f 87/87/147 88/88/147 89/89/147
f 88/88/148 57/57/148 52/52/148
f 88/88/149 52/52/149 90/90/149
f 89/89/150 88/88/150 90/90/150
f 83/83/151 87/87/151 82/82/151
f 82/82/152 87/87/152 89/89/152
f 82/82/153 89/89/153 84/84/153
f 89/89/154 90/90/154 84/84/154
f 84/84/155 90/90/155 91/91/155
f 90/90/156 38/38/156 91/91/156
f 90/90/157 52/52/157 51/51/157
f 90/90/158 51/51/158 38/38/158
f 38/38/159 51/51/159 40/40/159
f 38/38/160 40/40/160 39/39/160
f 91/91/161 38/38/161 36/36/161
f 17/17/162 86/86/162 23/23/162
f 86/86/163 85/85/163 23/23/163
f 85/85/164 84/84/164 36/36/164
f 84/84/165 91/91/165 36/36/165
f 23/23/166 85/85/166 35/35/166
f 85/85/167 36/36/47 35/35/46
f 24/24/168 23/23/168 35/35/168
f 67/67/169 69/69/169 65/65/169
f 69/69/170 92/92/170 65/65/170
f 69/69/171 72/72/171 92/92/171
f 72/72/172 80/80/172 93/93/172
f 72/72/173 93/93/173 92/92/173
f 92/92/174 93/93/174 94/94/174
f 92/92/175 94/94/175 95/95/175
f 95/95/176 94/94/176 96/96/176
f 65/65/177 95/95/177 50/50/177
f 65/65/178 92/92/178 95/95/178
f 50/50/179 95/95/179 97/97/179
f 81/81/180 98/98/180 80/80/180
f 80/80/181 98/98/181 93/93/181
f 98/98/182 99/99/182 94/94/182
f 93/93/183 98/98/183 94/94/183
f 81/81/184 3/3/184 98/98/184
f 98/98/185 3/3/185 99/99/185
f 99/99/186 3/3/186 9/9/186
f 99/99/187 9/9/187 100/100/187
f 94/94/188 99/99/188 100/100/188
f 94/94/189 100/100/189 96/96/189
f 100/100/190 101/101/191 96/96/192
f 100/100/193 9/9/193 101/101/193
f 9/9/194 10/10/194 101/101/194
f 101/101/195 10/10/195 26/26/195
f 101/101/196 26/26/196 28/28/196
f 28/28/197 29/29/197 32/32/197
f 96/96/192 101/101/191 102/102/198
f 101/101/199 28/28/199 32/32/199
f 101/101/200 32/32/200 102/102/200
f 50/50/201 97/97/201 47/47/201
f 97/97/202 102/102/202 47/47/202
f 95/95/203 96/96/203 102/102/203
f 97/97/204 95/95/204 102/102/204
f 42/42/205 102/102/205 32/32/205
f 47/47/206 102/102/206 45/45/206
f 102/102/207 42/42/207 43/43/207
f 45/45/208 102/102/208 43/43/208
