# Blender v2.78 (sub 0) OBJ File: ''
# www.blender.org
mtllib SM_Env_Rock_07.mtl
o SM_Env_Rock_07
v -25.590332 0.477915 26.634277
v 11.248535 -3.142159 27.084593
v -22.664673 14.492975 23.708467
v 10.161499 22.332098 24.564579
v -14.718201 37.165321 16.970465
v -7.684937 42.771942 14.848335
v -13.804443 42.771942 12.087502
v 8.141235 37.143284 -20.212091
v 8.655884 31.806267 -21.405300
v -18.206360 29.158672 -19.700649
v -19.591614 16.250759 -21.085997
v -26.196472 -11.201328 9.031919
v 9.140686 -11.201328 7.814787
v -22.637268 -11.201330 23.681181
v 10.151245 -11.201330 24.541044
v 26.221191 36.167175 9.042578
v 25.202820 33.213181 19.942020
v 28.855713 5.299929 10.175477
v 25.682434 26.400209 24.188114
v 28.128601 5.299926 26.634277
v -28.855652 0.477918 10.175476
v -26.221130 10.826229 9.042574
v -17.950256 16.421259 21.081789
v 9.019714 22.701956 21.917850
v -16.564941 29.246185 19.696445
v 8.505066 32.470062 16.615726
v 9.797668 31.411289 -24.052090
v 10.884644 1.719988 -26.572021
v -22.664673 14.297359 -24.158995
v -25.590332 -3.142151 -27.084780
v 22.129822 31.848156 20.635532
v 23.454163 35.830635 7.852637
v 20.744507 37.164780 19.250128
v 22.206726 39.208984 7.316168
v -20.398254 14.613466 9.062106
v -18.937622 27.368004 8.525640
v 23.713867 32.025600 22.219547
v 16.342712 42.771942 14.848335
v 18.243164 42.771942 5.611670
v 6.869568 42.771942 12.824471
v 6.185669 42.771942 4.868903
v 20.744507 37.077267 -19.700647
v 22.129822 31.677658 -21.085995
v 25.202820 31.996773 -24.158993
v 28.128601 -3.142151 -27.084780
v 26.196594 -11.201328 9.031919
v 25.175476 -11.201330 23.681181
v 23.064941 30.790913 23.708469
v 16.342712 42.771942 -15.298882
v 6.505676 42.771942 -16.420832
v -5.241211 42.771942 -15.298882
v -12.430237 42.771942 5.611670
v -13.804443 42.771942 -8.523247
v 9.787415 -11.201323 -24.028536
v -22.637268 -11.201323 -24.131624
v 25.175476 -11.201323 -24.131624
v -15.871155 36.380585 -17.365473
vt 0.9467 0.4995
vt 0.9467 0.4995
vt 0.9467 0.4995
vt 0.9467 0.4995
vt 0.9467 0.4995
vt 0.9467 0.4995
vt 0.9467 0.4995
vt 0.9467 0.4995
vt 0.9467 0.4995
vt 0.9467 0.4995
vt 0.9467 0.4995
vt 0.9467 0.4995
vt 0.9467 0.4995
vt 0.9467 0.4995
vt 0.9467 0.4995
vt 0.9467 0.4995
vt 0.9467 0.4995
vt 0.9467 0.4995
vt 0.9467 0.4995
vt 0.9467 0.4995
vt 0.9467 0.4995
vt 0.9467 0.4995
vt 0.9467 0.4995
vt 0.9467 0.4995
vt 0.9467 0.4995
vt 0.9467 0.4995
vt 0.9467 0.4995
vt 0.9467 0.4995
vt 0.9467 0.4995
vt 0.9467 0.4995
vt 0.9467 0.4995
vt 0.9467 0.4995
vt 0.9467 0.4995
vt 0.9467 0.4995
vt 0.9467 0.4995
vt 0.9467 0.4995
vt 0.9467 0.4995
vt 0.9467 0.4995
vt 0.9467 0.4995
vt 0.9467 0.4995
vt 0.9467 0.4995
vt 0.9467 0.4995
vt 0.9467 0.4995
vt 0.9467 0.4995
vt 0.9467 0.4995
vt 0.9467 0.4995
vt 0.9467 0.4995
vt 0.9467 0.4995
vt 0.9467 0.4995
vt 0.9467 0.4995
vt 0.9467 0.4995
vt 0.9467 0.4995
vt 0.9467 0.4995
vt 0.9467 0.4995
vt 0.9467 0.4995
vt 0.9467 0.4995
vt 0.9467 0.4995
vn 0.0080 0.2028 0.9792
vn -0.0489 0.0963 0.9942
vn -0.3117 0.6524 0.6908
vn -0.0825 0.2099 -0.9742
vn -0.0741 0.1143 -0.9907
vn -0.0000 -1.0000 -0.0000
vn 0.9892 0.0887 0.1165
vn 0.9922 0.1083 0.0617
vn 0.9918 0.1201 0.0438
vn -0.9467 0.2616 0.1878
vn -0.9563 0.2357 0.1730
vn -0.0571 0.1133 0.9919
vn 0.0462 0.4784 0.8769
vn -0.0405 0.0830 -0.9957
vn -0.0084 0.1668 -0.9860
vn 0.9372 0.2933 0.1885
vn 0.9143 0.3653 0.1746
vn -0.9762 0.1194 0.1809
vn -0.9746 0.1252 0.1857
vn -0.9762 0.1195 0.1809
vn -0.9745 0.1253 0.1859
vn -0.4640 0.8807 -0.0958
vn -0.4595 0.8278 -0.3218
vn -0.2302 0.9342 0.2726
vn -0.2275 0.9461 0.2303
vn 0.6265 0.4435 0.6409
vn -0.5434 0.8359 -0.0772
vn -0.4041 0.9131 -0.0550
vn 0.0000 1.0000 0.0000
vn 0.0407 0.2217 -0.9743
vn 0.0253 0.2545 -0.9667
vn -0.0374 0.9971 0.0661
vn 0.0128 0.9898 -0.1422
vn -0.0101 0.0842 -0.9964
vn -0.0069 0.0827 -0.9966
vn -0.0094 0.0838 -0.9964
vn -0.0064 0.0824 -0.9966
vn -0.0222 0.0975 0.9950
vn -0.0038 0.1064 0.9943
vn -0.0042 0.1080 0.9941
vn -0.0038 0.1066 0.9943
vn -0.0059 0.1145 0.9934
vn -0.5173 0.7882 0.3333
vn -0.4991 0.7613 0.4138
vn -0.4801 0.7742 0.4125
vn -0.2329 0.4544 0.8598
vn -0.2712 0.1759 0.9463
vn -0.9934 0.1129 -0.0204
vn -0.9938 0.1095 -0.0192
vn -0.9935 0.1121 -0.0201
vn -0.9939 0.1087 -0.0189
vn -0.5556 0.8310 0.0274
vn -0.5528 0.8328 0.0283
vn -0.5478 0.8361 0.0300
vn -0.5450 0.8378 0.0309
vn -0.9780 0.1814 -0.1033
vn -0.9681 0.2378 -0.0788
vn 0.9957 0.0835 -0.0410
vn 0.9956 0.0848 -0.0400
vn 0.9957 0.0836 -0.0409
vn 0.9955 0.0861 -0.0389
vn -0.0604 0.9884 -0.1391
vn -0.2159 0.9696 -0.1152
vn 0.9392 0.3345 -0.0772
vn 0.9601 0.2674 -0.0823
vn -0.9162 0.3503 -0.1944
vn -0.9481 0.2821 0.1465
vn -0.9482 0.2814 0.1473
vn -0.9488 0.2756 0.1543
vn -0.9489 0.2748 0.1553
vn -0.9510 0.3091 -0.0050
vn -0.9509 0.3094 -0.0049
vn -0.9501 0.3121 -0.0039
vn -0.9499 0.3124 -0.0038
vn -0.9114 0.4018 0.0886
vn 0.0348 0.6279 -0.7775
vn 0.0927 0.5746 -0.8131
vn 0.6818 0.7289 -0.0620
vn 0.7521 0.6526 -0.0922
vn 0.6860 0.6985 0.2037
vn 0.6314 0.7645 0.1299
vn -0.1986 0.3106 0.9296
vn -0.3376 0.4028 0.8507
vn 0.0768 0.3085 0.9481
vn 0.0702 0.2749 0.9589
vn 0.1285 0.3604 0.9239
vn -0.2290 0.9359 0.2678
vn -0.3468 0.9053 0.2454
vn -0.3560 0.9098 0.2133
vn 0.6266 0.4435 0.6409
vn -0.3810 0.7893 -0.4815
vn -0.1213 0.3407 -0.9323
vn -0.1184 0.4782 -0.8702
vn -0.0800 0.5408 -0.8374
vn -0.0367 -0.2537 0.9666
vn -0.0250 -0.2978 0.9543
vn -0.9402 -0.2849 0.1865
vn -0.9440 -0.2374 0.2293
vn 0.9821 -0.1835 0.0434
vn 0.9842 -0.1634 0.0686
vn 0.1241 -0.1963 0.9727
vn 0.0544 -0.3073 0.9501
vn 0.0566 -0.3252 -0.9440
vn 0.0031 -0.1934 -0.9811
vn -0.0061 -0.1926 -0.9813
vn -0.0063 -0.1926 -0.9813
vn -0.9323 -0.3588 -0.0468
vn -0.9719 -0.2111 -0.1043
vn -0.1140 -0.3047 -0.9456
vn -0.0066 -0.1926 -0.9813
vn 0.9869 -0.1602 0.0170
vn 0.9351 -0.3532 -0.0288
usemtl None
s 1
f 1/1/1 2/2/1 3/3/1
f 3/3/2 2/2/2 4/4/2
f 5/5/3 6/6/3 7/7/3
f 8/8/4 9/9/4 10/10/4
f 10/10/5 9/9/5 11/11/5
f 12/12/6 13/13/6 14/14/6
f 14/14/6 13/13/6 15/15/6
f 16/16/7 17/17/7 18/18/7
f 17/17/8 19/19/8 18/18/8
f 20/20/9 18/18/9 19/19/9
f 21/21/10 1/1/10 22/22/10
f 22/22/11 1/1/11 3/3/11
f 23/23/12 24/24/12 25/25/12
f 25/25/13 24/24/13 26/26/13
f 27/27/14 28/28/14 29/29/14
f 29/29/15 28/28/15 30/30/15
f 31/31/16 32/32/16 33/33/16
f 33/33/17 32/32/17 34/34/17
f 35/35/18 23/23/19 36/36/20
f 36/36/20 23/23/19 25/25/21
f 29/29/22 11/11/22 27/27/22
f 27/27/23 11/11/23 9/9/23
f 3/3/24 4/4/24 23/23/24
f 23/23/25 4/4/25 24/24/25
f 19/19/26 17/17/26 37/37/26
f 22/22/27 3/3/27 35/35/27
f 35/35/28 3/3/28 23/23/28
f 38/38/29 39/39/29 40/40/29
f 40/40/29 39/39/29 41/41/29
f 8/8/30 42/42/30 9/9/30
f 9/9/31 42/42/31 43/43/31
f 44/44/32 27/27/32 43/43/32
f 43/43/33 27/27/33 9/9/33
f 27/27/34 44/44/35 28/28/36
f 28/28/36 44/44/35 45/45/37
f 13/13/6 46/46/6 15/15/6
f 15/15/6 46/46/6 47/47/6
f 2/2/38 20/20/38 4/4/38
f 48/48/39 4/4/40 19/19/41
f 4/4/40 20/20/42 19/19/41
f 24/24/43 4/4/43 31/31/43
f 37/37/44 31/31/44 48/48/44
f 4/4/45 48/48/45 31/31/45
f 24/24/46 31/31/46 26/26/46
f 26/26/47 31/31/47 33/33/47
f 39/39/29 49/49/29 41/41/29
f 41/41/29 49/49/29 50/50/29
f 50/50/29 51/51/29 41/41/29
f 41/41/29 51/51/29 52/52/29
f 52/52/29 51/51/29 53/53/29
f 35/35/48 36/36/49 11/11/50
f 11/11/50 36/36/49 10/10/51
f 29/29/52 22/22/53 11/11/54
f 11/11/54 22/22/53 35/35/55
f 30/30/56 21/21/56 29/29/56
f 29/29/57 21/21/57 22/22/57
f 54/54/6 13/13/6 55/55/6
f 55/55/6 13/13/6 12/12/6
f 46/46/6 13/13/6 56/56/6
f 56/56/6 13/13/6 54/54/6
f 16/16/58 18/18/59 44/44/60
f 44/44/60 18/18/59 45/45/61
f 32/32/62 16/16/62 43/43/62
f 43/43/63 16/16/63 44/44/63
f 34/34/64 32/32/64 42/42/64
f 42/42/65 32/32/65 43/43/65
f 52/52/66 36/36/66 7/7/66
f 7/7/67 36/36/68 5/5/69
f 36/36/68 25/25/70 5/5/69
f 10/10/71 36/36/72 57/57/73
f 57/57/73 36/36/72 53/53/74
f 36/36/75 52/52/75 53/53/75
f 42/42/76 8/8/76 49/49/76
f 49/49/77 8/8/77 50/50/77
f 39/39/78 34/34/78 49/49/78
f 49/49/79 34/34/79 42/42/79
f 33/33/80 34/34/80 38/38/80
f 38/38/81 34/34/81 39/39/81
f 40/40/82 26/26/82 38/38/82
f 38/38/83 26/26/83 33/33/83
f 25/25/84 26/26/84 5/5/84
f 5/5/85 26/26/85 6/6/85
f 26/26/86 40/40/86 6/6/86
f 40/40/29 41/41/29 6/6/29
f 7/7/29 6/6/29 52/52/29
f 6/6/29 41/41/29 52/52/29
f 32/32/87 31/31/87 16/16/87
f 37/37/88 17/17/88 31/31/88
f 17/17/89 16/16/89 31/31/89
f 37/37/26 48/48/90 19/19/26
f 53/53/91 51/51/91 57/57/91
f 10/10/92 57/57/92 8/8/92
f 57/57/93 51/51/93 8/8/93
f 51/51/94 50/50/94 8/8/94
f 1/1/95 14/14/95 2/2/95
f 2/2/96 14/14/96 15/15/96
f 1/1/97 21/21/97 14/14/97
f 14/14/98 21/21/98 12/12/98
f 20/20/99 47/47/99 18/18/99
f 18/18/100 47/47/100 46/46/100
f 20/20/101 2/2/101 47/47/101
f 47/47/102 2/2/102 15/15/102
f 30/30/103 28/28/103 55/55/103
f 55/55/104 28/28/105 54/54/106
f 30/30/107 55/55/107 21/21/107
f 21/21/108 55/55/108 12/12/108
f 45/45/109 56/56/109 28/28/109
f 28/28/105 56/56/110 54/54/106
f 18/18/111 46/46/111 45/45/111
f 45/45/112 46/46/112 56/56/112
