# Blender v2.78 (sub 0) OBJ File: ''
# www.blender.org
mtllib SM_Env_Tree_05.mtl
o SM_Env_Tree_05
v -76.910156 0.000000 34.706726
v -64.331055 80.777710 26.001661
v -61.292969 0.000000 -11.568115
v -56.203125 80.777710 1.917371
v -37.725586 0.000000 63.859314
v -43.937500 80.777710 41.174633
v 2.108398 0.000000 35.601624
v -23.205078 80.777710 26.467848
v -12.457031 0.000000 -11.014771
v -30.786133 80.777710 2.205091
v -37.255859 0.000000 22.316956
v -73.475586 300.213684 5.314441
v -79.972656 300.213684 24.564625
v -63.477539 300.213684 19.410328
v -63.672852 300.213684 36.691940
v -47.102539 300.213684 24.936939
v -53.160156 300.213684 5.544788
v -43.200195 165.647339 22.353481
v -49.697266 165.647339 41.603420
v -33.395508 165.647308 53.730740
v -16.825195 165.647308 41.975857
v -22.884766 165.647339 22.583584
v -53.152344 188.768250 38.555023
v -46.655273 188.768250 19.304901
v -36.852539 188.768250 50.682220
v -20.280273 188.768250 38.927277
v 102.110352 205.065552 2.838534
v 101.641602 205.509201 0.094271
v 101.714844 208.312759 2.869236
v 101.246094 208.756378 0.125095
v -26.339844 188.768265 19.535004
v 6.294922 171.962006 32.831509
v 4.122070 175.045288 18.731352
v 1.580078 191.753494 19.846466
v 3.753906 188.670258 33.946320
v 32.457031 190.955368 6.373139
v 30.531250 194.664291 -5.377226
v 29.570312 208.948364 -3.274929
v 31.496094 205.239502 8.475070
v 67.141602 200.017792 9.368013
v 66.056641 201.664276 2.854037
v 66.754883 193.831573 2.134737
v 67.840820 192.185043 8.648896
v -116.401367 283.956543 64.252792
v -91.093750 273.792267 116.571152
v -115.502930 330.139313 122.062614
v -64.485352 303.497162 141.746750
v -64.204102 263.505859 104.980446
v -11.119141 272.081177 113.182785
v -110.246094 363.516602 123.068726
v -24.854492 370.481506 112.830750
v -152.669922 350.620361 99.989616
v -157.264648 383.471680 104.684570
v -117.246094 435.956421 116.171333
v 34.554688 299.561859 115.830002
v -9.905273 317.558441 125.929680
v 145.724609 384.188477 91.356262
v 20.030273 322.443695 132.051315
v 100.153320 403.833984 110.058838
v 43.983398 420.213562 123.022285
v -26.462891 454.352905 94.920113
v 45.426758 491.193726 116.366043
v 75.156250 521.686340 104.857872
v 126.671875 416.558044 84.128059
v 127.523438 495.751831 73.132767
v 155.183594 413.294891 22.204046
v 82.792969 535.686035 89.993919
v 143.250977 521.775574 21.200403
v 61.641602 536.361938 98.545006
v -52.449219 500.367126 71.368057
v 93.803711 543.626587 37.725246
v 26.381836 528.677490 57.437645
v -94.947266 480.674072 109.973526
v -49.955078 471.921265 86.656937
v -38.990234 500.501160 45.823566
v -65.918945 503.293579 35.007771
v -124.831055 487.575745 95.121780
v 2.855469 549.287231 39.519070
v -11.798828 555.809937 17.820524
v 91.138672 578.566040 9.980197
v 69.034180 585.080872 -6.408169
v -33.032227 539.213867 -25.322849
v 114.984375 574.090210 -13.797026
v 87.180664 581.298645 -33.321564
v 112.235352 547.072327 -63.031651
v 183.234375 493.761169 -66.133163
v 106.711914 544.982178 -116.962379
v 68.401367 534.216187 -122.447243
v 23.503906 546.622925 -98.353859
v -63.273438 493.416809 -66.767075
v -114.519531 491.766113 -23.688641
v -25.135742 524.374390 -100.581459
v -9.102539 512.341248 -123.475441
v -83.801758 433.687256 -90.760796
v -34.909180 470.734863 -126.841904
v 21.603516 485.418091 -133.880905
v -15.375977 435.354614 -135.212875
v -36.574219 408.766541 -141.746643
v -123.286133 422.941711 -95.025444
v -142.301758 469.202698 -37.100693
v -138.321289 428.682129 -62.324211
v 76.927734 519.966125 -138.590683
v 110.814453 528.336182 -134.369537
v 169.407227 463.927795 -82.799606
v 61.849609 442.059814 -134.082565
v 129.792969 387.359802 -58.246216
v 72.811523 385.880371 -112.469360
v 21.183594 362.559143 -107.638924
v -19.309570 341.369690 -86.777473
v -21.458984 302.082733 -76.039566
v -51.550781 339.552551 -99.891121
v 96.871094 368.081482 -91.601135
v 36.899414 325.591370 -97.641304
v 51.248047 286.657410 -50.954727
v -35.328125 298.480225 -90.240433
v 7.231445 258.215912 -27.395771
v -119.762695 391.935303 -117.035400
v -76.637695 298.449341 -90.964554
v -114.292969 304.470825 -106.184464
v -122.578125 275.654785 -84.700882
v -87.282227 259.551270 -61.317219
v -104.284180 266.303009 -45.318928
v -42.618164 248.059097 17.211588
v -131.820312 321.260590 -2.372934
v -112.321289 284.081512 17.117966
v 45.031250 267.717651 -4.596697
v 9.260742 259.677094 65.101540
v 57.276367 289.295380 49.132492
v 107.634766 330.720886 86.159050
v 145.931641 362.054260 63.630856
v 125.744141 348.393372 18.586666
v 157.687500 387.663513 75.346130
v 167.664062 424.076782 -64.133049
v 111.730469 330.013977 -26.991402
v 178.165039 428.227478 -18.663931
v 188.959961 497.237915 -9.860942
v 151.413086 518.499512 -92.995949
v 152.830078 486.270630 34.777664
v -141.709961 333.192719 -27.142830
v -188.958984 388.320312 20.285524
v -154.466797 317.798035 46.295094
v -184.506836 417.478577 58.083073
v -163.083008 464.285767 80.877579
v -169.263672 470.540833 18.420120
v -162.812500 469.232605 -9.962569
vt 0.9890 0.3176
vt 0.9890 0.3176
vt 0.9890 0.3176
vt 0.9890 0.3176
vt 0.9890 0.3176
vt 0.9890 0.3176
vt 0.9890 0.3176
vt 0.9890 0.3176
vt 0.9890 0.3176
vt 0.9890 0.3176
vt 0.9890 0.3176
vt 0.9890 0.3176
vt 0.9890 0.3176
vt 0.9890 0.3176
vt 0.9890 0.3176
vt 0.9890 0.3176
vt 0.9890 0.3176
vt 0.9890 0.3176
vt 0.9890 0.3176
vt 0.9890 0.3176
vt 0.9890 0.3176
vt 0.9890 0.3176
vt 0.9890 0.3176
vt 0.9890 0.3176
vt 0.9890 0.3176
vt 0.9890 0.3176
vt 0.9890 0.3176
vt 0.9890 0.3176
vt 0.9890 0.3176
vt 0.9890 0.3176
vt 0.9890 0.3176
vt 0.9890 0.3176
vt 0.9890 0.3176
vt 0.9890 0.3176
vt 0.9890 0.3176
vt 0.9890 0.3176
vt 0.9890 0.3176
vt 0.9890 0.3176
vt 0.9890 0.3176
vt 0.9890 0.3176
vt 0.9890 0.3176
vt 0.9890 0.3176
vt 0.9890 0.3176
vt 0.8691 0.4165
vt 0.8691 0.4165
vt 0.8691 0.4165
vt 0.8691 0.4165
vt 0.8691 0.4165
vt 0.8691 0.4165
vt 0.8691 0.4165
vt 0.8691 0.4165
vt 0.8691 0.4165
vt 0.8691 0.4165
vt 0.8691 0.4165
vt 0.8691 0.4165
vt 0.8691 0.4165
vt 0.8691 0.4165
vt 0.8691 0.4165
vt 0.8691 0.4165
vt 0.8691 0.4165
vt 0.8691 0.4165
vt 0.8691 0.4165
vt 0.8691 0.4165
vt 0.8691 0.4165
vt 0.8691 0.4165
vt 0.8691 0.4165
vt 0.8691 0.4165
vt 0.8691 0.4165
vt 0.8691 0.4165
vt 0.8691 0.4165
vt 0.8691 0.4165
vt 0.8691 0.4165
vt 0.8691 0.4165
vt 0.8691 0.4165
vt 0.8691 0.4165
vt 0.8691 0.4165
vt 0.8691 0.4165
vt 0.8691 0.4165
vt 0.8691 0.4165
vt 0.8691 0.4165
vt 0.8691 0.4165
vt 0.8691 0.4165
vt 0.8691 0.4165
vt 0.8691 0.4165
vt 0.8691 0.4165
vt 0.8691 0.4165
vt 0.8691 0.4165
vt 0.8691 0.4165
vt 0.8691 0.4165
vt 0.8691 0.4165
vt 0.8691 0.4165
vt 0.8691 0.4165
vt 0.8691 0.4165
vt 0.8691 0.4165
vt 0.8691 0.4165
vt 0.8691 0.4165
vt 0.8691 0.4165
vt 0.8691 0.4165
vt 0.8691 0.4165
vt 0.8691 0.4165
vt 0.8691 0.4165
vt 0.8691 0.4165
vt 0.8691 0.4165
vt 0.8691 0.4165
vt 0.8691 0.4165
vt 0.8691 0.4165
vt 0.8691 0.4165
vt 0.8691 0.4165
vt 0.8691 0.4165
vt 0.8691 0.4165
vt 0.8691 0.4165
vt 0.8691 0.4165
vt 0.8691 0.4165
vt 0.8691 0.4165
vt 0.8691 0.4165
vt 0.8691 0.4165
vt 0.8691 0.4165
vt 0.8691 0.4165
vt 0.8691 0.4165
vt 0.8691 0.4165
vt 0.8691 0.4165
vt 0.8691 0.4165
vt 0.8691 0.4165
vt 0.8691 0.4165
vt 0.8691 0.4165
vt 0.8691 0.4165
vt 0.8691 0.4165
vt 0.8691 0.4165
vt 0.8691 0.4165
vt 0.8691 0.4165
vt 0.8691 0.4165
vt 0.8691 0.4165
vt 0.8691 0.4165
vt 0.8691 0.4165
vt 0.8691 0.4165
vt 0.8691 0.4165
vt 0.8691 0.4165
vt 0.8691 0.4165
vt 0.8691 0.4165
vt 0.8691 0.4165
vt 0.8691 0.4165
vt 0.8691 0.4165
vt 0.8691 0.4165
vt 0.8691 0.4165
vt 0.8691 0.4165
vn -0.9415 0.1124 -0.3177
vn -0.5875 0.1766 0.7897
vn 0.5581 0.2638 0.7867
vn 0.5581 0.2639 0.7867
vn 0.9226 0.2565 -0.2883
vn 0.0112 0.1640 -0.9864
vn 0.0000 -1.0000 0.0000
vn 0.0000 1.0000 0.0000
vn -0.9249 0.2169 -0.3121
vn -0.9249 0.2169 -0.3122
vn -0.5963 -0.0445 0.8015
vn 0.5681 -0.1891 0.8009
vn 0.5682 -0.1891 0.8009
vn 0.9543 -0.0172 -0.2982
vn 0.9543 -0.0173 -0.2982
vn 0.0110 0.2325 -0.9725
vn -0.9319 -0.1807 -0.3145
vn -0.5968 0.0165 0.8022
vn -0.5968 0.0166 0.8022
vn 0.5680 0.1905 0.8007
vn 0.9815 0.1209 -0.1481
vn 0.9815 0.1210 -0.1481
vn 0.0112 -0.1291 -0.9916
vn 0.0112 -0.1294 -0.9915
vn 0.0113 -0.1216 -0.9925
vn 0.5624 0.2349 0.7928
vn -0.5964 -0.0429 0.8016
vn -0.9152 -0.2590 -0.3089
vn 0.0113 -0.1219 -0.9925
vn 0.9373 0.1888 -0.2929
vn 0.9373 0.1888 -0.2928
vn 0.2356 -0.9691 -0.0736
vn 0.2869 -0.9257 -0.2466
vn -0.0906 -0.1435 -0.9855
vn 0.0039 0.0672 -0.9977
vn -0.1066 0.9937 0.0333
vn 0.0468 0.9773 0.2065
vn 0.2010 0.1575 0.9668
vn 0.3692 -0.0059 0.9293
vn 0.3872 -0.8865 -0.2535
vn 0.3468 -0.8766 -0.3335
vn -0.6533 -0.0490 -0.7555
vn -0.6592 0.0659 -0.7490
vn -0.3178 0.9149 0.2490
vn -0.2806 0.9011 0.3304
vn 0.6893 0.0566 0.7223
vn 0.6940 -0.0589 0.7176
vn -0.1767 0.9469 0.2688
vn -0.1801 0.9657 0.1869
vn -0.0860 0.0835 -0.9928
vn -0.0773 0.0000 -0.9970
vn 0.2958 -0.9133 -0.2801
vn 0.3002 -0.9322 -0.2020
vn 0.1932 -0.0726 0.9785
vn 0.1817 0.0128 0.9833
vn 0.1433 0.9503 0.2765
vn 0.1359 0.9657 0.2214
vn 0.1938 0.1556 -0.9686
vn 0.2042 0.1076 -0.9730
vn 0.0418 -0.9508 -0.3070
vn 0.0498 -0.9663 -0.2525
vn -0.0465 -0.1485 0.9878
vn -0.0605 -0.0966 0.9935
vn -0.8525 -0.4019 0.3343
vn -0.4711 -0.2854 0.8346
vn 0.0132 -0.7325 0.6806
vn 0.0179 -0.6558 0.7548
vn -0.3529 0.0274 0.9353
vn -0.3478 0.0265 0.9372
vn -0.3487 0.0267 0.9369
vn 0.0829 0.3532 0.9319
vn -0.5778 -0.1941 0.7928
vn -0.3538 0.0275 0.9349
vn -0.3428 0.0562 0.9377
vn 0.1076 -0.2710 0.9566
vn 0.3304 -0.2629 0.9065
vn 0.4315 -0.3232 0.8422
vn -0.0639 -0.6038 0.7945
vn 0.3456 -0.0878 0.9343
vn 0.2337 0.0325 0.9718
vn -0.2207 0.1432 0.9648
vn 0.1975 0.2877 0.9371
vn -0.2585 0.1627 0.9522
vn -0.2803 0.1953 0.9398
vn 0.2477 0.0855 0.9651
vn 0.2690 0.0993 0.9580
vn -0.3289 0.0948 0.9396
vn 0.4993 0.4581 0.7354
vn 0.6724 0.0947 0.7341
vn 0.9083 0.0479 0.4157
vn 0.5672 0.1560 0.8087
vn 0.6111 0.3949 0.6860
vn 0.6774 0.5547 0.4831
vn -0.3074 0.2902 0.9062
vn -0.4631 0.4642 0.7550
vn -0.0258 0.3749 0.9267
vn 0.3150 0.6048 0.7315
vn 0.1001 0.9803 0.1700
vn -0.3208 0.9420 0.0991
vn -0.2158 0.9764 0.0025
vn 0.0723 0.1015 0.9922
vn 0.0929 0.2702 0.9583
vn -0.1873 0.2017 0.9614
vn 0.4656 0.0380 0.8842
vn 0.4785 0.4479 0.7553
vn 0.0472 0.4761 0.8781
vn -0.3610 0.9140 -0.1854
vn 0.0835 0.9953 0.0492
vn -0.3666 0.3046 0.8791
vn -0.2758 0.9445 0.1782
vn 0.0644 0.9482 0.3110
vn -0.3202 0.3864 0.8649
vn 0.0572 0.6915 0.7201
vn -0.2661 0.5363 0.8010
vn -0.5863 0.5764 0.5692
vn -0.1175 0.8582 0.4996
vn -0.2018 0.8920 0.4044
vn -0.3789 0.9108 -0.1639
vn 0.4561 0.8606 0.2268
vn 0.4756 0.5690 0.6708
vn 0.0542 0.6235 0.7800
vn 0.5978 0.6431 0.4785
vn 0.2568 0.9657 0.0375
vn 0.2237 0.9738 0.0410
vn 0.5009 0.7466 -0.4377
vn 0.5298 0.7307 -0.4305
vn -0.2692 0.9630 -0.0098
vn -0.3727 0.8506 -0.3708
vn 0.0375 0.9152 -0.4014
vn 0.4440 0.7503 -0.4899
vn -0.1150 0.9884 -0.0989
vn -0.6856 0.7256 0.0583
vn -0.8593 0.4772 -0.1843
vn -0.6740 0.7334 -0.0887
vn -0.3716 0.9076 -0.1956
vn -0.3978 0.8913 -0.2175
vn -0.1853 0.6894 -0.7003
vn -0.3089 0.7356 -0.6029
vn -0.5776 0.4674 -0.6693
vn -0.7686 0.4477 -0.4570
vn -0.7215 0.4060 -0.5608
vn -0.6144 0.4344 -0.6586
vn -0.1681 0.1827 -0.9687
vn -0.5403 -0.1006 -0.8354
vn -0.4666 0.5435 -0.6978
vn -0.1632 0.8183 -0.5511
vn -0.1350 0.7521 -0.6450
vn -0.8800 0.1857 -0.4372
vn -0.4128 0.5636 -0.7155
vn -0.0692 0.2900 -0.9545
vn -0.1032 0.7180 -0.6883
vn -0.0881 0.7095 -0.6992
vn 0.4583 -0.2629 -0.8490
vn 0.1438 -0.0849 -0.9860
vn -0.0556 -0.0470 -0.9973
vn 0.4554 -0.4767 -0.7519
vn 0.6843 -0.1417 -0.7153
vn -0.1589 0.1434 -0.9768
vn 0.0132 0.0169 -0.9998
vn 0.1813 -0.3221 -0.9292
vn -0.0070 0.2439 -0.9698
vn -0.0597 -0.6401 -0.7660
vn 0.1333 -0.4753 -0.8697
vn -0.3482 -0.2294 -0.9089
vn 0.3762 -0.2634 -0.8883
vn 0.6861 0.0796 -0.7232
vn 0.3876 -0.4313 -0.8147
vn 0.4847 -0.5927 -0.6432
vn 0.0232 -0.2518 -0.9675
vn -0.2050 -0.3358 -0.9193
vn 0.0640 -0.7567 -0.6507
vn 0.6972 0.1089 -0.7085
vn 0.7241 -0.2424 -0.6457
vn -0.8732 0.2122 -0.4387
vn -0.3382 0.5189 -0.7851
vn 0.3604 -0.0926 -0.9282
vn -0.8656 -0.1146 -0.4875
vn -0.1571 -0.4859 -0.8598
vn 0.0557 -0.2443 -0.9681
vn 0.3432 -0.5393 -0.7690
vn 0.0173 -0.2222 -0.9748
vn 0.0144 -0.6086 -0.7933
vn 0.2059 -0.6225 -0.7551
vn 0.2096 -0.6284 -0.7492
vn 0.2059 -0.6225 -0.7550
vn 0.2058 -0.6223 -0.7553
vn -0.3962 -0.9175 -0.0338
vn -0.3286 -0.9432 0.0489
vn 0.2139 -0.7503 -0.6256
vn -0.6274 -0.6497 0.4292
vn -0.2877 -0.5587 -0.7779
vn 0.0886 -0.7132 -0.6954
vn 0.3990 -0.8663 -0.3004
vn 0.0475 -0.9841 -0.1710
vn 0.2261 -0.9736 0.0310
vn 0.0492 -0.9815 0.1848
vn 0.2188 -0.9758 -0.0003
vn 0.1085 -0.9505 0.2912
vn 0.5611 -0.8044 0.1952
vn 0.5718 -0.7589 0.3116
vn 0.4558 -0.7959 0.3985
vn -0.4591 -0.8884 0.0061
vn -0.3184 -0.9475 -0.0301
vn -0.3233 -0.9424 0.0863
vn 0.4724 -0.8326 0.2891
vn 0.6341 -0.7732 0.0026
vn 0.4899 -0.4231 0.7623
vn 0.6387 -0.7676 -0.0535
vn 0.9070 -0.2675 -0.3253
vn 0.9062 -0.4154 0.0791
vn 0.8909 -0.3913 -0.2307
vn 0.7093 -0.5483 0.4430
vn 0.7298 -0.5317 0.4299
vn 0.2897 0.8674 0.4047
vn 0.6811 -0.7199 0.1339
vn 0.6940 -0.7160 0.0753
vn 0.8457 -0.5241 -0.1007
vn 0.4803 -0.7029 -0.5246
vn 0.7463 -0.4841 -0.4568
vn 0.9212 -0.3644 -0.1363
vn 0.6322 -0.7040 -0.3237
vn 0.9045 -0.2127 -0.3696
vn 0.9692 -0.1245 -0.2125
vn 0.9719 -0.2196 -0.0853
vn 0.2705 -0.4180 -0.8672
vn 0.6821 0.0893 -0.7258
vn 0.6009 0.7989 0.0239
vn 0.7224 0.1107 -0.6826
vn 0.6220 0.6339 -0.4596
vn 0.5422 0.8356 -0.0879
vn 0.7792 0.5325 0.3307
vn 0.8246 -0.0701 0.5614
vn 0.8837 -0.1926 0.4266
vn 0.4986 -0.8661 -0.0361
vn 0.7844 -0.0807 0.6150
vn 0.7186 0.6858 -0.1155
vn 0.6533 0.4177 0.6314
vn 0.6373 0.6357 0.4356
vn 0.8108 0.3868 0.4394
vn -0.8132 -0.5239 0.2534
vn -0.7743 -0.5603 -0.2942
vn -0.8568 -0.5061 0.0983
vn -0.7624 -0.6471 -0.0073
vn -0.9579 -0.0687 -0.2788
vn -0.9619 -0.0513 -0.2684
vn -0.6479 -0.7595 -0.0581
vn -0.7267 -0.5207 -0.4480
vn -0.6258 -0.6046 0.4927
vn -0.7080 -0.5918 0.3854
vn -0.9035 -0.3515 0.2451
vn -0.9246 -0.1775 0.3370
vn -0.9037 -0.2810 0.3232
vn -0.9239 0.3608 0.1276
vn -0.9708 0.2311 -0.0639
vn -0.6641 0.3634 0.6534
vn -0.6388 -0.0803 0.7652
vn -0.4765 0.2710 0.8364
vn -0.5519 0.8226 0.1370
vn -0.7952 -0.1846 -0.5776
vn -0.7646 0.2848 -0.5782
vn -0.9485 0.2221 -0.2258
vn -0.8693 0.1000 -0.4840
vn -0.4516 0.8806 -0.1432
vn -0.3604 0.9328 0.0016
vn -0.2455 0.9693 0.0129
vn -0.4766 0.8015 -0.3611
vn -0.2211 0.6849 -0.6943
usemtl None
s 1
f 1/1/1 2/2/1 3/3/1
f 3/3/1 2/2/1 4/4/1
f 5/5/2 6/6/2 1/1/2
f 1/1/2 6/6/2 2/2/2
f 7/7/3 8/8/3 5/5/3
f 5/5/3 8/8/3 6/6/4
f 7/7/5 9/9/5 8/8/5
f 8/8/5 9/9/5 10/10/5
f 9/9/6 3/3/6 10/10/6
f 10/10/6 3/3/6 4/4/6
f 1/1/7 3/3/7 11/11/7
f 5/5/7 1/1/7 11/11/7
f 7/7/7 5/5/7 11/11/7
f 9/9/7 7/7/7 11/11/7
f 3/3/7 9/9/7 11/11/7
f 12/12/8 13/13/8 14/14/8
f 13/13/8 15/15/8 14/14/8
f 15/15/8 16/16/8 14/14/8
f 16/16/8 17/17/8 14/14/8
f 17/17/8 12/12/8 14/14/8
f 4/4/9 2/2/10 18/18/10
f 18/18/10 2/2/10 19/19/10
f 2/2/11 6/6/11 19/19/11
f 19/19/11 6/6/11 20/20/11
f 8/8/12 21/21/13 6/6/12
f 6/6/12 21/21/13 20/20/13
f 10/10/14 22/22/14 8/8/14
f 8/8/14 22/22/14 21/21/15
f 4/4/16 18/18/16 10/10/16
f 10/10/16 18/18/16 22/22/16
f 19/19/17 23/23/17 18/18/17
f 18/18/17 23/23/17 24/24/17
f 20/20/18 25/25/19 19/19/19
f 19/19/19 25/25/19 23/23/19
f 21/21/20 26/26/20 20/20/20
f 20/20/20 26/26/20 25/25/20
f 27/27/21 28/28/22 29/29/22
f 29/29/22 28/28/22 30/30/22
f 22/22/23 18/18/23 31/31/24
f 31/31/24 18/18/23 24/24/25
f 26/26/26 16/16/26 25/25/26
f 25/25/26 16/16/26 15/15/26
f 25/25/27 15/15/27 23/23/27
f 23/23/27 15/15/27 13/13/27
f 23/23/28 13/13/28 24/24/28
f 24/24/28 13/13/28 12/12/28
f 31/31/24 24/24/25 17/17/29
f 17/17/29 24/24/25 12/12/29
f 26/26/30 31/31/30 16/16/31
f 16/16/31 31/31/30 17/17/31
f 21/21/32 22/22/32 32/32/32
f 32/32/33 22/22/33 33/33/33
f 22/22/34 31/31/34 33/33/34
f 33/33/35 31/31/35 34/34/35
f 31/31/36 26/26/36 34/34/36
f 34/34/37 26/26/37 35/35/37
f 26/26/38 21/21/38 35/35/38
f 35/35/39 21/21/39 32/32/39
f 32/32/40 33/33/40 36/36/40
f 36/36/41 33/33/41 37/37/41
f 33/33/42 34/34/42 37/37/42
f 37/37/43 34/34/43 38/38/43
f 35/35/44 39/39/44 34/34/44
f 34/34/45 39/39/45 38/38/45
f 32/32/46 36/36/46 35/35/46
f 35/35/47 36/36/47 39/39/47
f 40/40/48 29/29/48 41/41/48
f 41/41/49 29/29/49 30/30/49
f 42/42/50 41/41/50 28/28/50
f 28/28/51 41/41/51 30/30/51
f 43/43/52 42/42/52 27/27/52
f 27/27/53 42/42/53 28/28/53
f 43/43/54 27/27/54 40/40/54
f 40/40/55 27/27/55 29/29/55
f 38/38/56 39/39/56 41/41/56
f 41/41/57 39/39/57 40/40/57
f 38/38/58 41/41/58 37/37/58
f 37/37/59 41/41/59 42/42/59
f 37/37/60 42/42/60 36/36/60
f 36/36/61 42/42/61 43/43/61
f 39/39/62 36/36/62 40/40/62
f 40/40/63 36/36/63 43/43/63
f 44/44/64 45/45/64 46/46/64
f 45/45/65 47/47/65 46/46/65
f 45/45/66 48/48/66 49/49/66
f 45/45/67 49/49/67 47/47/67
f 46/46/68 47/47/69 50/50/70
f 47/47/71 51/51/71 50/50/71
f 52/52/72 46/46/72 53/53/72
f 46/46/68 50/50/70 53/53/73
f 53/53/74 50/50/74 54/54/74
f 49/49/75 55/55/75 56/56/75
f 49/49/76 56/56/76 47/47/76
f 55/55/77 57/57/77 58/58/77
f 56/56/78 55/55/78 58/58/78
f 57/57/79 59/59/79 58/58/79
f 58/58/80 59/59/80 60/60/80
f 58/58/81 60/60/81 56/56/81
f 47/47/82 56/56/82 51/51/82
f 56/56/83 60/60/83 51/51/83
f 51/51/84 60/60/84 61/61/84
f 60/60/85 59/59/85 62/62/85
f 62/62/86 59/59/86 63/63/86
f 61/61/87 60/60/87 62/62/87
f 59/59/88 57/57/88 64/64/88
f 59/59/89 64/64/89 65/65/89
f 64/64/90 66/66/90 65/65/90
f 59/59/91 65/65/91 63/63/91
f 63/63/92 65/65/92 67/67/92
f 67/67/93 65/65/93 68/68/93
f 61/61/94 69/69/94 70/70/94
f 61/61/95 62/62/95 69/69/95
f 62/62/96 63/63/96 69/69/96
f 69/69/97 63/63/97 67/67/97
f 69/69/98 67/67/98 71/71/98
f 70/70/99 69/69/99 72/72/99
f 72/72/100 69/69/100 71/71/100
f 54/54/101 50/50/101 73/73/101
f 50/50/102 51/51/102 74/74/102
f 74/74/103 51/51/103 61/61/103
f 73/73/104 50/50/104 74/74/104
f 73/73/105 74/74/105 70/70/105
f 74/74/106 61/61/106 70/70/106
f 70/70/107 72/72/107 75/75/107
f 70/70/108 75/75/108 76/76/108
f 54/54/109 73/73/109 77/77/109
f 73/73/110 70/70/110 76/76/110
f 73/73/111 76/76/111 77/77/111
f 75/75/112 72/72/112 78/78/112
f 72/72/113 71/71/113 78/78/113
f 76/76/114 75/75/114 79/79/114
f 79/79/115 75/75/115 78/78/115
f 78/78/116 80/80/116 81/81/116
f 78/78/117 81/81/117 79/79/117
f 79/79/118 81/81/118 82/82/118
f 71/71/119 67/67/119 68/68/119
f 71/71/120 68/68/120 80/80/120
f 78/78/121 71/71/121 80/80/121
f 80/80/122 68/68/122 83/83/122
f 80/80/123 84/84/123 81/81/123
f 80/80/124 83/83/124 84/84/124
f 83/83/125 85/85/125 84/84/125
f 83/83/126 86/86/126 85/85/126
f 85/85/127 87/87/127 88/88/127
f 81/81/128 84/84/128 88/88/128
f 81/81/129 88/88/129 89/89/129
f 84/84/130 85/85/130 88/88/130
f 76/76/131 90/90/131 91/91/131
f 76/76/132 79/79/132 82/82/132
f 76/76/133 82/82/133 92/92/133
f 90/90/134 76/76/134 92/92/134
f 82/82/135 81/81/135 89/89/135
f 82/82/136 89/89/136 92/92/136
f 89/89/137 88/88/137 93/93/137
f 92/92/138 89/89/138 93/93/138
f 91/91/139 90/90/139 94/94/139
f 90/90/140 92/92/140 94/94/140
f 92/92/141 95/95/141 94/94/141
f 92/92/142 93/93/142 95/95/142
f 93/93/143 96/96/143 95/95/143
f 94/94/144 95/95/144 97/97/144
f 94/94/145 97/97/145 98/98/145
f 94/94/146 98/98/146 99/99/146
f 100/100/147 94/94/147 99/99/147
f 100/100/148 99/99/148 101/101/148
f 88/88/149 102/102/149 96/96/149
f 93/93/150 88/88/150 96/96/150
f 88/88/151 87/87/151 102/102/151
f 102/102/152 87/87/152 103/103/152
f 103/103/153 104/104/153 105/105/153
f 102/102/154 103/103/154 105/105/154
f 102/102/155 105/105/155 96/96/155
f 105/105/156 104/104/156 106/106/156
f 105/105/157 106/106/157 107/107/157
f 95/95/158 96/96/158 97/97/158
f 97/97/159 96/96/159 105/105/159
f 105/105/160 107/107/160 98/98/160
f 97/97/161 105/105/161 98/98/161
f 98/98/162 108/108/162 109/109/162
f 98/98/163 107/107/163 108/108/163
f 109/109/164 108/108/164 110/110/164
f 111/111/165 109/109/165 110/110/165
f 107/107/166 106/106/166 112/112/166
f 107/107/167 112/112/167 113/113/167
f 113/113/168 112/112/168 114/114/168
f 108/108/169 107/107/169 113/113/169
f 108/108/170 113/113/170 110/110/170
f 113/113/171 114/114/171 110/110/171
f 111/111/172 110/110/172 115/115/172
f 115/115/173 110/110/173 116/116/173
f 101/101/174 99/99/174 117/117/174
f 99/99/175 98/98/175 117/117/175
f 117/117/176 118/118/176 119/119/176
f 117/117/177 119/119/177 120/120/177
f 117/117/178 98/98/178 111/111/178
f 117/117/179 111/111/179 118/118/179
f 98/98/180 109/109/180 111/111/180
f 118/118/181 111/111/181 115/115/181
f 118/118/182 115/115/182 121/121/182
f 118/118/183 121/121/184 120/120/185
f 119/119/186 118/118/183 120/120/185
f 120/120/187 121/121/187 122/122/187
f 122/122/188 121/121/188 123/123/188
f 115/115/189 116/116/189 121/121/189
f 122/122/190 123/123/190 124/124/190
f 124/124/191 123/123/191 125/125/191
f 110/110/192 114/114/192 116/116/192
f 116/116/193 114/114/193 126/126/193
f 121/121/194 116/116/194 123/123/194
f 116/116/195 126/126/195 123/123/195
f 123/123/196 127/127/196 48/48/196
f 123/123/197 126/126/197 127/127/197
f 48/48/198 127/127/198 49/49/198
f 126/126/199 128/128/199 127/127/199
f 127/127/200 128/128/200 55/55/200
f 127/127/201 55/55/201 49/49/201
f 125/125/202 123/123/202 45/45/202
f 125/125/203 45/45/203 44/44/203
f 123/123/204 48/48/204 45/45/204
f 55/55/205 128/128/205 129/129/205
f 129/129/206 128/128/206 130/130/206
f 55/55/207 129/129/207 57/57/207
f 128/128/208 131/131/208 130/130/208
f 130/130/209 131/131/209 132/132/209
f 66/66/210 131/131/210 133/133/210
f 132/132/211 131/131/211 66/66/211
f 129/129/212 130/130/212 57/57/212
f 57/57/213 130/130/213 132/132/213
f 57/57/214 132/132/214 66/66/214
f 128/128/215 126/126/215 131/131/215
f 131/131/216 126/126/216 134/134/216
f 126/126/217 114/114/217 112/112/217
f 126/126/218 112/112/218 134/134/218
f 134/134/219 112/112/219 106/106/219
f 134/134/220 106/106/220 131/131/220
f 131/131/221 106/106/221 133/133/221
f 133/133/222 104/104/222 86/86/222
f 135/135/223 133/133/223 136/136/223
f 133/133/224 86/86/224 136/136/224
f 133/133/225 106/106/225 104/104/225
f 86/86/226 104/104/226 137/137/226
f 86/86/227 137/137/227 85/85/227
f 104/104/228 103/103/228 137/137/228
f 137/137/229 103/103/229 87/87/229
f 137/137/230 87/87/230 85/85/230
f 57/57/231 66/66/231 64/64/231
f 66/66/232 138/138/232 65/65/232
f 66/66/233 135/135/233 136/136/233
f 66/66/234 133/133/234 135/135/234
f 66/66/235 136/136/235 138/138/235
f 136/136/236 86/86/236 83/83/236
f 138/138/237 136/136/237 68/68/237
f 68/68/238 136/136/238 83/83/238
f 65/65/239 138/138/239 68/68/239
f 120/120/240 122/122/240 139/139/240
f 124/124/241 125/125/241 140/140/241
f 122/122/242 124/124/242 139/139/242
f 139/139/243 124/124/243 140/140/243
f 139/139/244 101/101/244 117/117/244
f 120/120/245 139/139/245 117/117/245
f 125/125/246 44/44/246 141/141/246
f 125/125/247 141/141/247 140/140/247
f 44/44/248 46/46/248 52/52/248
f 44/44/249 52/52/249 141/141/249
f 141/141/250 52/52/250 140/140/250
f 52/52/251 53/53/251 140/140/251
f 140/140/252 53/53/252 142/142/252
f 142/142/253 143/143/253 144/144/253
f 140/140/254 142/142/254 144/144/254
f 53/53/255 54/54/255 142/142/255
f 142/142/256 54/54/256 143/143/256
f 143/143/257 54/54/257 77/77/257
f 144/144/258 143/143/258 77/77/258
f 101/101/259 139/139/259 140/140/259
f 101/101/260 145/145/260 100/100/260
f 145/145/261 140/140/261 144/144/261
f 140/140/262 145/145/262 101/101/262
f 145/145/263 144/144/263 91/91/263
f 144/144/264 77/77/264 91/91/264
f 91/91/265 77/77/265 76/76/265
f 100/100/266 145/145/266 91/91/266
f 94/94/267 100/100/267 91/91/267
