# Blender v2.78 (sub 0) OBJ File: ''
# www.blender.org
mtllib SM_Env_FloorTile_06.mtl
o SM_Env_FloorTile_06
v 76.159180 0.000021 -67.494385
v 85.685059 0.000023 -69.480469
v 76.159180 0.000025 -76.159302
v 150.000000 0.000025 -76.159302
v 93.833008 0.000021 -63.399780
v 150.000000 0.000001 -0.772827
v 93.795410 0.000017 -49.690918
v 76.159180 0.000001 -0.772827
v 76.159180 0.000005 -14.893188
v 83.421997 0.000013 -38.648682
v 76.159180 0.000011 -36.679565
v -68.017212 0.000001 -0.772827
v 0.772949 0.000001 -0.772827
v -56.540039 0.000003 -7.770874
v -74.613403 0.000005 -17.784668
v -66.090332 0.000009 -27.997192
v -74.613403 0.000025 -76.159302
v 0.772949 0.000025 -76.159302
v -56.372070 0.000005 -17.972534
v 8.985840 -0.000033 102.107666
v 3.599609 -0.000035 106.275879
v 0.772949 -0.000049 150.000000
v 8.985840 -0.000031 96.931030
v 0.772949 -0.000025 74.613525
v 1.025513 -0.000031 93.001465
v -74.613403 -0.000049 150.000000
v -74.613403 -0.000025 74.613525
v -3.803711 -0.000033 99.985718
v -37.899048 -0.000021 63.724365
v -30.616821 -0.000021 63.724365
v 76.159180 -0.000025 74.613525
v 82.096436 -0.000027 84.489014
v 150.000000 -0.000025 74.613525
v 86.379150 -0.000029 90.965820
v 150.000000 -0.000049 150.000000
v 82.096436 -0.000033 98.279785
v 76.159180 -0.000049 150.000000
v -150.000000 0.000025 -76.159302
v -150.000000 0.000001 -0.772827
v -74.613403 0.000001 -0.772827
v -150.000000 -0.000049 150.000000
v -150.000000 -0.000025 74.613525
v 51.537231 0.000005 -17.737549
v 54.738892 0.000003 -6.717896
v 65.361816 0.000007 -20.680298
v 68.156616 0.000001 -0.772827
v 75.675049 -0.000033 100.834473
v 72.896240 -0.000029 89.689453
v 89.047974 -0.000017 50.621094
v 99.358521 -0.000017 53.330933
v 101.931641 -0.000015 44.376465
v 89.047974 -0.000015 44.157837
v 98.577271 -0.000013 40.599731
v 0.772949 -0.000015 46.525146
v 11.746094 -0.000017 51.609009
v 21.184570 -0.000015 47.121216
v 0.772949 -0.000005 12.418457
v 11.959839 -0.000005 13.948364
v 19.109375 -0.000011 31.892578
v -43.223511 -0.000019 58.156250
v -39.438110 -0.000017 52.143188
v -29.847412 -0.000017 50.424561
v -26.211670 -0.000019 57.673096
v -12.231079 -0.000013 41.644653
v -8.801758 -0.000007 21.688965
v 76.159180 0.000049 -150.000000
v 150.000000 0.000049 -150.000000
v 16.882690 0.000031 -96.762695
v 0.772949 0.000049 -150.000000
v 16.882690 0.000037 -113.640747
v 22.346069 0.000034 -104.481934
v 8.426270 0.000033 -100.210449
v 8.224976 0.000035 -110.439087
v -74.613403 0.000049 -150.000000
v -150.000000 0.000049 -150.000000
v 66.756836 0.000019 -60.991333
v 65.068237 0.000015 -47.144775
vt 0.9659 0.4514
vt 0.9659 0.4514
vt 0.9659 0.4514
vt 0.9659 0.4514
vt 0.9659 0.4514
vt 0.9659 0.4514
vt 0.9659 0.4514
vt 0.9659 0.4514
vt 0.9659 0.4514
vt 0.9659 0.4514
vt 0.9659 0.4514
vt 0.9659 0.4514
vt 0.9659 0.4514
vt 0.9659 0.4514
vt 0.9659 0.4514
vt 0.9659 0.4514
vt 0.9659 0.4514
vt 0.9659 0.4514
vt 0.9659 0.4514
vt 0.9659 0.4514
vt 0.9659 0.4514
vt 0.9659 0.4514
vt 0.9659 0.4514
vt 0.9659 0.4514
vt 0.9659 0.4514
vt 0.9659 0.4514
vt 0.9659 0.4514
vt 0.9659 0.4514
vt 0.9659 0.4514
vt 0.9659 0.4514
vt 0.9659 0.4514
vt 0.9659 0.4514
vt 0.9659 0.4514
vt 0.9659 0.4514
vt 0.9659 0.4514
vt 0.9659 0.4514
vt 0.9659 0.4514
vt 0.9659 0.4514
vt 0.9659 0.4514
vt 0.9659 0.4514
vt 0.9659 0.4514
vt 0.9659 0.4514
vt 0.9680 0.5024
vt 0.9680 0.5024
vt 0.9680 0.5024
vt 0.9680 0.5024
vt 0.9680 0.5024
vt 0.9680 0.5024
vt 0.9659 0.4514
vt 0.9659 0.4514
vt 0.9659 0.4514
vt 0.9659 0.4514
vt 0.9659 0.4514
vt 0.9659 0.4514
vt 0.9659 0.4514
vt 0.9659 0.4514
vt 0.9659 0.4514
vt 0.9659 0.4514
vt 0.9659 0.4514
vt 0.9659 0.4514
vt 0.9659 0.4514
vt 0.9659 0.4514
vt 0.9659 0.4514
vt 0.9659 0.4514
vt 0.9659 0.4514
vt 0.9659 0.4514
vt 0.9659 0.4514
vt 0.9659 0.4514
vt 0.9659 0.4514
vt 0.9659 0.4514
vt 0.9659 0.4514
vt 0.9659 0.4514
vt 0.9659 0.4514
vt 0.9659 0.4514
vt 0.9659 0.4514
vt 0.9659 0.4514
vt 0.9659 0.4514
vt 0.9659 0.4514
vt 0.9420 0.4562
vt 0.9420 0.4562
vt 0.9420 0.4562
vt 0.9420 0.4562
vt 0.9420 0.4562
vt 0.9420 0.4562
vt 0.9420 0.4562
vt 0.9420 0.4562
vt 0.9420 0.4562
vt 0.9420 0.4562
vt 0.9420 0.4562
vt 0.9420 0.4562
vt 0.9420 0.4562
vt 0.9420 0.4562
vt 0.9420 0.4562
vt 0.9420 0.4562
vt 0.9420 0.4562
vt 0.9420 0.4562
vt 0.9420 0.4562
vt 0.9420 0.4562
vt 0.9420 0.4562
vt 0.9420 0.4562
vt 0.9420 0.4562
vt 0.9420 0.4562
vt 0.9420 0.4562
vt 0.9420 0.4562
vt 0.9420 0.4562
vt 0.9420 0.4562
vt 0.9420 0.4562
vt 0.9420 0.4562
vt 0.9420 0.4562
vt 0.9420 0.4562
vt 0.9659 0.4514
vt 0.9659 0.4514
vt 0.9659 0.4514
vt 0.9659 0.4514
vt 0.9659 0.4514
vt 0.9680 0.5024
vt 0.9680 0.5024
vt 0.9680 0.5024
vt 0.9680 0.5024
vt 0.9680 0.5024
vt 0.9680 0.5024
vt 0.9680 0.5024
vt 0.9680 0.5024
vt 0.9680 0.5024
vt 0.9680 0.5024
vt 0.9680 0.5024
vt 0.9680 0.5024
vt 0.9680 0.5024
vt 0.9680 0.5024
vt 0.9680 0.5024
vt 0.9680 0.5024
vn -0.0000 1.0000 0.0000
usemtl None
s 1
f 1/1/1 2/2/1 3/3/1
f 3/3/1 2/2/1 4/4/1
f 2/2/1 5/5/1 4/4/1
f 4/4/1 5/5/1 6/6/1
f 5/5/1 7/7/1 6/6/1
f 8/8/1 6/6/1 9/9/1
f 7/7/1 10/10/1 6/6/1
f 9/9/1 6/6/1 11/11/1
f 10/10/1 11/11/1 6/6/1
f 12/12/1 13/13/1 14/14/1
f 15/15/1 16/16/1 17/17/1
f 17/17/1 16/16/1 18/18/1
f 16/16/1 19/19/1 18/18/1
f 13/13/1 18/18/1 14/14/1
f 18/18/1 19/19/1 14/14/1
f 20/20/1 21/21/1 22/22/1
f 23/23/1 24/24/1 25/25/1
f 26/26/1 22/22/1 27/27/1
f 22/22/1 21/21/1 27/27/1
f 21/21/1 28/28/1 27/27/1
f 27/27/1 28/28/1 29/29/1
f 29/29/1 28/28/1 30/30/1
f 28/28/1 25/25/1 30/30/1
f 24/24/1 30/30/1 25/25/1
f 31/31/1 32/32/1 33/33/1
f 32/32/1 34/34/1 33/33/1
f 33/33/1 34/34/1 35/35/1
f 34/34/1 36/36/1 35/35/1
f 36/36/1 37/37/1 35/35/1
f 17/17/1 38/38/1 15/15/1
f 39/39/1 40/40/1 38/38/1
f 38/38/1 40/40/1 15/15/1
f 26/26/1 27/27/1 41/41/1
f 41/41/1 27/27/1 42/42/1
f 43/43/1 44/44/1 45/45/1
f 44/44/1 46/46/1 45/45/1
f 45/45/1 46/46/1 9/47/1
f 9/47/1 46/46/1 8/48/1
f 36/36/1 47/49/1 37/37/1
f 24/24/1 23/23/1 31/31/1
f 22/22/1 37/37/1 20/20/1
f 37/37/1 47/49/1 20/20/1
f 47/49/1 48/50/1 20/20/1
f 20/20/1 48/50/1 23/23/1
f 32/32/1 31/31/1 48/50/1
f 48/50/1 31/31/1 23/23/1
f 31/31/1 33/33/1 49/51/1
f 49/51/1 33/33/1 50/52/1
f 33/33/1 6/6/1 50/52/1
f 50/52/1 6/6/1 51/53/1
f 8/8/1 52/54/1 6/6/1
f 52/54/1 53/55/1 6/6/1
f 6/6/1 53/55/1 51/53/1
f 54/56/1 24/24/1 55/57/1
f 24/24/1 31/31/1 55/57/1
f 55/57/1 31/31/1 56/58/1
f 13/13/1 57/59/1 46/60/1
f 57/59/1 58/61/1 46/60/1
f 58/61/1 59/62/1 46/60/1
f 31/31/1 49/51/1 56/58/1
f 49/51/1 52/54/1 56/58/1
f 52/54/1 8/8/1 56/58/1
f 8/8/1 46/60/1 56/58/1
f 46/60/1 59/62/1 56/58/1
f 29/29/1 60/63/1 27/27/1
f 27/27/1 60/63/1 40/40/1
f 40/40/1 60/63/1 12/12/1
f 60/63/1 61/64/1 12/12/1
f 12/12/1 61/64/1 13/13/1
f 61/64/1 62/65/1 13/13/1
f 24/24/1 54/56/1 30/30/1
f 30/30/1 54/56/1 63/66/1
f 54/56/1 64/67/1 63/66/1
f 63/66/1 64/67/1 62/65/1
f 64/67/1 65/68/1 62/65/1
f 62/65/1 65/68/1 13/13/1
f 13/13/1 65/68/1 57/59/1
f 42/42/1 27/27/1 39/39/1
f 39/39/1 27/27/1 40/40/1
f 66/69/1 3/3/1 67/70/1
f 67/70/1 3/3/1 4/4/1
f 18/18/1 3/3/1 68/71/1
f 69/72/1 70/73/1 66/69/1
f 3/3/1 66/69/1 68/71/1
f 68/71/1 66/69/1 71/74/1
f 70/73/1 71/74/1 66/69/1
f 68/71/1 72/75/1 18/18/1
f 70/73/1 69/72/1 73/76/1
f 74/77/1 17/17/1 69/72/1
f 69/72/1 17/17/1 73/76/1
f 73/76/1 17/17/1 72/75/1
f 17/17/1 18/18/1 72/75/1
f 75/78/1 38/38/1 74/77/1
f 74/77/1 38/38/1 17/17/1
f 16/79/1 15/80/1 19/81/1
f 19/81/1 15/80/1 14/82/1
f 14/82/1 15/80/1 12/83/1
f 12/83/1 15/80/1 40/84/1
f 57/85/1 65/86/1 54/87/1
f 54/87/1 65/86/1 64/88/1
f 57/85/1 54/87/1 58/89/1
f 58/89/1 54/87/1 59/90/1
f 54/87/1 55/91/1 59/90/1
f 55/91/1 56/92/1 59/90/1
f 76/93/1 77/94/1 1/95/1
f 1/95/1 77/94/1 11/96/1
f 11/96/1 10/97/1 1/95/1
f 10/97/1 7/98/1 1/95/1
f 1/95/1 7/98/1 2/99/1
f 7/98/1 5/100/1 2/99/1
f 50/101/1 51/102/1 49/103/1
f 49/103/1 51/102/1 52/104/1
f 51/102/1 53/105/1 52/104/1
f 28/106/1 21/107/1 25/108/1
f 21/107/1 20/109/1 25/108/1
f 23/110/1 25/108/1 20/109/1
f 46/60/1 44/111/1 13/13/1
f 9/9/1 11/11/1 45/112/1
f 44/111/1 43/113/1 13/13/1
f 13/13/1 43/113/1 18/18/1
f 3/3/1 18/18/1 1/1/1
f 1/1/1 18/18/1 76/114/1
f 76/114/1 18/18/1 77/115/1
f 11/11/1 77/115/1 45/112/1
f 45/112/1 77/115/1 43/113/1
f 18/18/1 43/113/1 77/115/1
f 60/116/1 29/117/1 61/118/1
f 61/118/1 29/117/1 62/119/1
f 62/119/1 29/117/1 63/120/1
f 30/121/1 63/120/1 29/117/1
f 32/122/1 48/123/1 36/124/1
f 36/124/1 48/123/1 47/125/1
f 36/124/1 34/126/1 32/122/1
f 73/127/1 72/128/1 70/129/1
f 70/129/1 72/128/1 68/130/1
f 68/130/1 71/131/1 70/129/1
