# Blender v2.78 (sub 0) OBJ File: ''
# www.blender.org
mtllib SM_Env_Rock_015.mtl
o SM_Env_Rock_015
v -3.068359 18.907352 -26.320555
v 10.781738 19.930670 -19.321348
v -3.307129 1.263799 -28.202393
v 13.491211 1.264024 -18.999329
v 22.716309 17.732092 4.022281
v 23.983887 1.263982 3.024841
v -16.760254 17.729925 -20.916319
v -23.983887 1.263979 0.369507
v -22.576416 18.910486 -2.228391
v 10.603516 0.000092 -20.182129
v -7.419922 0.000013 26.312622
v -15.621094 17.731850 18.129763
v 20.765625 0.000050 16.997253
v -4.848633 1.263841 28.202393
v 18.755615 19.928129 18.450380
v -6.870605 18.908028 26.374147
v 22.474121 1.263891 18.370667
v 7.531250 31.941172 -13.642511
v 15.628906 31.941193 3.002019
v -0.991455 32.877434 -16.634762
v -15.668213 31.941570 -1.570246
v -11.126953 32.622108 -13.793573
v -9.315186 32.877098 12.348272
v -3.153076 31.944393 18.263432
v 12.907227 32.877159 10.614447
v -17.165527 0.000004 -21.183105
v -13.650146 21.272610 18.865725
vt 0.9431 0.5022
vt 0.9431 0.5022
vt 0.9431 0.5022
vt 0.9431 0.5022
vt 0.9431 0.5022
vt 0.9431 0.5022
vt 0.9431 0.5022
vt 0.9431 0.5022
vt 0.9431 0.5022
vt 0.9431 0.5022
vt 0.9431 0.5022
vt 0.9431 0.5022
vt 0.9431 0.5022
vt 0.9431 0.5022
vt 0.9431 0.5022
vt 0.9431 0.5022
vt 0.9431 0.5022
vt 0.9431 0.5022
vt 0.9431 0.5022
vt 0.9431 0.5022
vt 0.9431 0.5022
vt 0.9431 0.5022
vt 0.9431 0.5022
vt 0.9431 0.5022
vt 0.9431 0.5022
vt 0.9431 0.5022
vt 0.9431 0.5022
vn 0.4440 0.0891 -0.8916
vn 0.4798 0.0545 -0.8757
vn 0.8884 0.1213 -0.4428
vn 0.8987 0.0951 -0.4282
vn -0.3729 0.1034 -0.9221
vn -0.9527 0.0266 -0.3028
vn -0.9538 0.0321 -0.2989
vn -0.9537 0.0317 -0.2992
vn -0.0474 -0.9987 -0.0184
vn -0.9369 0.1229 0.3272
vn 0.0000 -1.0000 -0.0000
vn 0.2881 0.1313 0.9486
vn 0.9927 0.0705 0.0977
vn 0.3681 0.4770 -0.7981
vn 0.8348 0.3884 -0.3902
vn 0.8200 0.4105 -0.3989
vn -0.3438 0.5690 -0.7470
vn -0.8404 0.4598 -0.2869
vn -0.8404 0.4600 -0.2866
vn -0.8404 0.4597 -0.2870
vn -0.0274 0.9996 -0.0079
vn 0.2454 0.4607 0.8530
vn 0.3183 0.5919 0.7405
vn -0.0000 1.0000 0.0000
vn 0.8260 0.5136 0.2322
vn 0.4630 -0.2670 -0.8452
vn 0.0060 -0.9861 -0.1658
vn 0.4658 -0.8566 -0.2219
vn -0.4534 0.0238 -0.8910
vn -0.0021 -0.9983 0.0579
vn -0.6869 0.0176 0.7265
vn 0.1371 -0.8995 0.4149
vn 0.1895 -0.8286 0.5267
vn 0.5646 -0.8235 0.0555
vn 0.3350 0.5027 -0.7969
vn 0.1408 0.9876 -0.0693
vn 0.1341 0.9886 -0.0679
vn 0.1438 0.9871 -0.0700
vn -0.2464 0.4924 -0.8347
vn -0.8407 0.4570 -0.2905
vn -0.1468 0.9892 0.0005
vn -0.8465 0.4331 0.3097
vn -0.8055 0.4889 0.3348
vn -0.5297 0.5571 0.6396
vn -0.5289 0.5564 0.6409
vn -0.5252 0.5531 0.6468
vn -0.8554 0.4105 0.3160
vn -0.6829 0.2365 0.6911
vn 0.9539 0.1891 0.2331
vn 0.8765 0.4496 0.1722
vn -0.9527 0.0263 -0.3029
vn -0.8373 -0.1438 0.5276
vn -0.5968 0.0147 0.8022
vn 0.3379 0.0633 0.9390
vn 0.1766 -0.9831 -0.0483
vn 0.1323 0.9889 -0.0675
vn -0.5246 0.5526 0.6477
vn 0.0113 0.9895 0.1443
usemtl None
s 1
f 1/1/1 2/2/1 3/3/1
f 3/3/2 2/2/2 4/4/2
f 2/2/3 5/5/3 4/4/3
f 4/4/4 5/5/4 6/6/4
f 7/7/5 1/1/5 3/3/5
f 8/8/6 9/9/7 7/7/8
f 8/8/9 10/10/9 11/11/9
f 12/12/10 9/9/10 8/8/10
f 11/11/11 10/10/11 13/13/11
f 14/14/12 15/15/12 16/16/12
f 6/6/13 5/5/13 17/17/13
f 2/2/14 1/1/14 18/18/14
f 19/19/15 5/5/15 2/2/15
f 19/19/16 2/2/16 18/18/16
f 1/1/17 7/7/17 20/20/17
f 9/9/18 21/21/19 22/22/20
f 22/22/21 23/23/21 20/20/21
f 16/16/22 15/15/22 24/24/22
f 24/24/23 15/15/23 25/25/23
f 23/23/24 25/25/24 20/20/24
f 15/15/25 19/19/25 25/25/25
f 4/4/26 10/10/26 3/3/26
f 3/3/27 10/10/27 26/26/27
f 4/4/28 6/6/28 10/10/28
f 3/3/29 26/26/29 7/7/29
f 26/26/30 10/10/30 8/8/30
f 12/12/31 11/11/31 16/16/31
f 14/14/32 11/11/32 13/13/32
f 14/14/33 13/13/33 17/17/33
f 17/17/34 13/13/34 6/6/34
f 18/18/35 1/1/35 20/20/35
f 18/18/36 25/25/37 19/19/38
f 20/20/39 7/7/39 22/22/39
f 22/22/20 7/7/40 9/9/18
f 23/23/41 22/22/41 21/21/41
f 21/21/42 9/9/42 27/27/42
f 21/21/43 27/27/43 23/23/43
f 23/23/44 27/27/45 24/24/46
f 27/27/47 9/9/47 12/12/47
f 27/27/48 12/12/48 16/16/48
f 15/15/49 17/17/49 5/5/49
f 15/15/50 5/5/50 19/19/50
f 26/26/51 8/8/6 7/7/8
f 8/8/52 11/11/52 12/12/52
f 11/11/53 14/14/53 16/16/53
f 17/17/54 15/15/54 14/14/54
f 13/13/55 10/10/55 6/6/55
f 18/18/36 20/20/56 25/25/37
f 27/27/45 16/16/57 24/24/46
f 24/24/58 25/25/58 23/23/58
