# This file uses centimeters as units for non-parametric coordinates.

v -1.146240 -6.061472 6.088379
v 3.835205 -1.353108 -1.463379
v 19.122070 13.452087 17.850342
v -4.742676 -1.709742 6.428711
v 0.237305 2.998577 -1.123291
v 10.652100 8.740988 15.667236
v 12.638916 10.757197 10.886475
v 9.040771 15.108973 11.226318
v 7.053711 13.092685 16.007568
v -1.783203 -0.240301 6.558105
v 5.572266 -3.901571 0.515625
v 9.752930 22.384315 -10.322998
v -5.514893 -0.776936 2.340820
v 1.840088 -4.438300 -3.701416
v 6.665039 15.464020 -0.228271
v 10.351074 12.467750 -3.109375
v 6.619385 11.931080 -7.326660
v 2.933350 14.927425 -4.445557
v -5.245117 -1.451747 10.627197
v 2.161133 0.205029 3.814209
v -10.745850 24.570084 -4.290283
v -8.424805 -3.821369 6.593506
v -1.019775 -2.164691 -0.218994
v -6.885254 19.597723 4.926514
v -2.489990 19.478334 1.530762
v -5.670410 17.108728 -2.502686
v -10.065674 17.228094 0.893066
vt 0.965595 0.456176
vt 0.965595 0.456176
vt 0.965595 0.456176
vt 0.965595 0.456176
vt 0.965595 0.456176
vt 0.965595 0.456176
vt 0.965595 0.456176
vt 0.965595 0.456176
vt 0.965595 0.456176
vt 0.965595 0.456176
vt 0.965595 0.456176
vt 0.965595 0.456176
vt 0.965595 0.456176
vt 0.965595 0.456176
vt 0.965595 0.456176
vt 0.965595 0.456176
vt 0.965595 0.456176
vt 0.965595 0.456176
vt 0.965595 0.456176
vt 0.965595 0.456176
vt 0.965595 0.456176
vt 0.965595 0.456176
vt 0.965595 0.456176
vt 0.965595 0.456176
vt 0.965595 0.456176
vt 0.965595 0.456176
vt 0.965595 0.456176
vt 0.965595 0.456176
vt 0.965595 0.456176
vt 0.965595 0.456176
vt 0.965595 0.456176
vt 0.965595 0.456176
vt 0.965595 0.456176
vt 0.965595 0.456176
vt 0.965595 0.456176
vt 0.965595 0.456176
vt 0.965595 0.456176
vt 0.965595 0.456176
vt 0.965595 0.456176
vt 0.965595 0.456176
vt 0.965595 0.456176
vt 0.965595 0.456176
vt 0.965595 0.456176
vt 0.965595 0.456176
vt 0.965595 0.456176
vn 0.509346 -0.848088 -0.145991
vn 0.509346 -0.848089 -0.145991
vn 0.509345 -0.848088 -0.145991
vn -0.082362 0.930084 0.357994
vn -0.082362 0.930084 0.357994
vn -0.082362 0.930084 0.357994
vn -0.597569 -0.441510 -0.669313
vn -0.597569 -0.441510 -0.669313
vn -0.597569 -0.441510 -0.669313
vn -0.597400 -0.441606 -0.669401
vn -0.597400 -0.441606 -0.669401
vn -0.597400 -0.441606 -0.669401
vn 0.532680 0.494091 -0.687114
vn 0.532681 0.494091 -0.687114
vn 0.532680 0.494091 -0.687114
vn -0.142447 -0.193701 0.970664
vn -0.142447 -0.193701 0.970664
vn -0.142447 -0.193701 0.970664
vn 0.750811 -0.654758 0.087037
vn 0.750811 -0.654758 0.087037
vn 0.750811 -0.654758 0.087037
vn 0.777714 -0.625818 0.059278
vn 0.777714 -0.625818 0.059278
vn 0.777714 -0.625818 0.059278
vn 0.464432 0.443875 -0.766340
vn 0.464432 0.443875 -0.766340
vn 0.464432 0.443875 -0.766340
vn 0.464444 0.443859 -0.766342
vn 0.464444 0.443859 -0.766342
vn 0.464444 0.443859 -0.766342
vn -0.777712 0.625818 -0.059301
vn -0.777712 0.625818 -0.059301
vn -0.777712 0.625818 -0.059301
vn -0.750881 0.654684 -0.086985
vn -0.750881 0.654684 -0.086985
vn -0.750881 0.654684 -0.086985
vn -0.312419 -0.327920 0.891551
vn -0.312419 -0.327920 0.891551
vn -0.312419 -0.327920 0.891551
vn -0.312354 -0.328007 0.891541
vn -0.312354 -0.328007 0.891541
vn -0.312354 -0.328007 0.891542
vn 0.745757 0.420738 0.516552
vn 0.745757 0.420738 0.516552
vn 0.745757 0.420738 0.516552
vn -0.631812 -0.032589 -0.774437
vn -0.631812 -0.032589 -0.774436
vn -0.631812 -0.032589 -0.774436
vn -0.211448 -0.928500 0.305249
vn -0.211448 -0.928500 0.305249
vn -0.211448 -0.928501 0.305249
vn -0.211398 -0.928505 0.305269
vn -0.211398 -0.928505 0.305269
vn -0.211398 -0.928505 0.305269
vn 0.715670 -0.382117 -0.584639
vn 0.715670 -0.382117 -0.584639
vn 0.715670 -0.382117 -0.584639
vn -0.524562 0.768506 0.366379
vn -0.524562 0.768506 0.366379
vn -0.524562 0.768506 0.366379
vn 0.632980 -0.005981 0.774145
vn 0.632980 -0.005981 0.774145
vn 0.632980 -0.005981 0.774145
vn 0.613652 -0.004298 0.789565
vn 0.613652 -0.004298 0.789565
vn 0.613652 -0.004298 0.789565
vn 0.724480 -0.343831 -0.597420
vn 0.724480 -0.343831 -0.597420
vn 0.724479 -0.343831 -0.597420
vn 0.724539 -0.343806 -0.597362
vn 0.724539 -0.343806 -0.597362
vn 0.724539 -0.343806 -0.597362
vn -0.613649 0.004303 -0.789567
vn -0.613649 0.004303 -0.789567
vn -0.613649 0.004303 -0.789567
vn -0.632987 0.005988 -0.774139
vn -0.632987 0.005988 -0.774139
vn -0.632987 0.005988 -0.774139
vn -0.650964 0.567876 0.503749
vn -0.650964 0.567876 0.503749
vn -0.650964 0.567876 0.503749
vn -0.650961 0.567877 0.503752
vn -0.650961 0.567877 0.503752
vn -0.650961 0.567877 0.503752
vn 0.297440 0.886762 0.353811
vn 0.297440 0.886762 0.353811
vn 0.297440 0.886762 0.353811
vn -0.530626 -0.521106 -0.668494
vn -0.530626 -0.521106 -0.668494
vn -0.530626 -0.521106 -0.668494
vn 0.395711 -0.893362 0.212880
vn 0.395711 -0.893361 0.212880
vn 0.395711 -0.893362 0.212880
vn 0.395662 -0.893388 0.212862
vn 0.395662 -0.893388 0.212862
vn 0.395662 -0.893388 0.212862
vn 0.663678 0.285844 -0.691248
vn 0.663678 0.285844 -0.691248
vn 0.663678 0.285844 -0.691248
vn -0.826876 0.271212 0.492666
vn -0.826876 0.271212 0.492666
vn -0.826876 0.271212 0.492666
vn 0.624912 0.249073 0.739897
vn 0.624912 0.249073 0.739897
vn 0.624912 0.249073 0.739897
vn 0.598232 0.235128 0.766050
vn 0.598232 0.235128 0.766050
vn 0.598232 0.235128 0.766050
vn 0.750413 0.103726 -0.652780
vn 0.750413 0.103726 -0.652780
vn 0.750413 0.103726 -0.652780
vn 0.750463 0.103773 -0.652715
vn 0.750463 0.103773 -0.652715
vn 0.750463 0.103773 -0.652715
vn -0.598232 -0.235121 -0.766052
vn -0.598232 -0.235121 -0.766052
vn -0.598232 -0.235121 -0.766052
vn -0.624942 -0.249081 -0.739869
vn -0.624942 -0.249081 -0.739869
vn -0.624942 -0.249081 -0.739869
vn -0.808059 0.094480 0.581476
vn -0.808059 0.094480 0.581476
vn -0.808059 0.094480 0.581476
vn -0.807988 0.094544 0.581564
vn -0.807988 0.094544 0.581564
vn -0.807988 0.094544 0.581564
s off
f 6/1/1 7/2/2 3/3/3
f 3/3/4 8/4/5 9/5/6
f 4/6/7 5/7/8 1/9/9
f 1/9/10 5/7/11 2/8/12
f 7/2/13 8/10/14 3/3/15
f 9/11/16 6/1/17 3/3/18
f 1/12/19 2/13/20 6/1/21
f 6/1/22 2/13/23 7/2/24
f 2/13/25 5/14/26 7/2/27
f 7/2/28 5/14/29 8/10/30
f 8/4/31 5/7/32 9/5/33
f 9/5/34 5/7/35 4/6/36
f 1/12/37 6/1/38 4/15/39
f 4/15/40 6/1/41 9/11/42
f 15/16/43 16/17/44 12/18/45
f 12/18/46 17/19/47 18/20/48
f 13/21/49 14/22/50 10/24/51
f 10/24/52 14/22/53 11/23/54
f 16/17/55 17/25/56 12/18/57
f 18/26/58 15/16/59 12/18/60
f 10/27/61 11/28/62 15/16/63
f 15/16/64 11/28/65 16/17/66
f 14/29/67 17/25/68 11/28/69
f 11/28/70 17/25/71 16/17/72
f 17/19/73 14/22/74 18/20/75
f 18/20/76 14/22/77 13/21/78
f 13/30/79 10/27/80 18/26/81
f 18/26/82 10/27/83 15/16/84
f 24/31/85 25/32/86 21/33/87
f 21/33/88 26/34/89 27/35/90
f 22/36/91 23/37/92 19/39/93
f 19/39/94 23/37/95 20/38/96
f 25/32/97 26/40/98 21/33/99
f 27/41/100 24/31/101 21/33/102
f 19/42/103 20/43/104 24/31/105
f 24/31/106 20/43/107 25/32/108
f 23/44/109 26/40/110 20/43/111
f 20/43/112 26/40/113 25/32/114
f 26/34/115 23/37/116 27/35/117
f 27/35/118 23/37/119 22/36/120
f 22/45/121 19/42/122 27/41/123
f 27/41/124 19/42/125 24/31/126
