# Blender v2.78 (sub 0) OBJ File: ''
# www.blender.org
mtllib SM_Env_Rock_02.mtl
o SM_Env_Rock_02
v 55.216248 66.963127 25.492500
v 28.541351 55.065239 37.843784
v 59.041168 65.011803 27.905708
v 30.325686 53.113922 53.307438
v 12.062531 91.761169 0.158219
v 39.725922 97.727890 -7.383467
v 24.688141 94.771645 -38.941250
v 39.725922 97.727913 -30.452423
v 59.041168 50.706059 -34.977612
v 30.325686 57.599495 -53.307369
v 55.216248 52.657368 -32.922131
v 28.541351 59.550789 -49.949284
v 9.625122 -95.764832 -7.505326
v 13.169159 -96.500168 -30.204086
v 26.703949 -90.053467 -15.786756
v 18.191040 -95.684586 -34.310894
v 55.216248 52.657364 -7.197691
v -59.041199 62.667469 -34.977604
v -59.041199 70.634277 -0.362236
v -44.783752 64.618752 -32.922123
v -44.783752 72.585571 -0.766669
v -17.849028 84.628914 -35.835888
v -19.894041 84.141235 -22.703617
v -19.894041 84.141235 0.158216
v -22.566467 55.065239 37.843784
v -24.691801 53.113922 53.307438
v -0.084991 -97.599716 -26.896225
v -8.251160 -94.886749 -7.505325
v -7.280060 -94.257065 -34.174908
v -24.691801 66.821968 -48.273716
v -22.566467 68.773293 -45.273380
v -39.274536 79.520050 -0.959873
v -29.047699 81.958595 -30.216480
v -39.274536 79.520058 -26.657505
v -48.608673 70.634270 27.905708
v -44.783752 72.585564 25.492500
v -37.274689 -90.358063 -14.566516
v -22.092745 -94.886749 12.717621
v -49.983185 33.787807 28.772854
v 30.966888 33.787796 54.514126
v 60.415680 33.787807 28.772854
v 60.415680 33.787811 -7.316777
v 60.415680 33.787827 -35.716282
v 30.966888 33.787827 -54.514118
v -25.455566 33.787827 -49.351902
v -60.415680 33.787827 -35.716282
v -60.415680 33.787811 -0.216954
v -19.894041 84.141228 33.664906
v -39.274536 79.520050 22.588634
v 16.963074 93.137848 22.348740
v 14.448395 92.330070 33.664906
v 37.904602 69.163925 -0.766670
v 47.753723 101.172760 6.104739
v 55.216248 66.963135 7.111122
v 60.415680 33.787811 8.480006
v 50.486267 47.355057 -2.689956
v 44.952118 8.156152 -5.444074
v 29.749786 -95.764801 3.748107
v 29.749786 -95.764801 -3.234086
v -11.251465 -103.169266 24.095379
v 13.687469 -95.764847 24.095383
v 47.277710 103.169250 22.588642
v 26.496490 98.214073 33.664906
v 26.703949 -95.764832 12.717621
v 21.119843 89.146446 27.313614
v -24.749359 73.051949 -33.366673
v 23.040831 -7.715959 -40.561031
v 37.861328 -77.290497 -22.382702
v 22.775055 -61.693222 -40.258778
v 37.861328 -83.001862 -4.585324
v -12.583801 -61.693222 -37.023762
v -44.952118 -7.715973 -0.161486
v -50.992191 -56.959610 -8.935810
v -31.323486 -83.001862 18.031391
v 44.952118 -7.715976 21.408308
v 37.861267 -71.941956 5.314217
v -18.940155 -34.842728 40.561047
v -15.952515 -83.001877 34.162891
v 19.406342 -83.001877 34.162891
v -37.189850 -7.715976 21.408308
v 34.775421 -61.986282 36.251522
v 30.096315 -88.009979 -3.644880
v 18.476074 -79.159622 -44.033405
v 23.494469 -88.751999 -26.805006
v -6.462860 -79.159622 -41.751698
v 9.392792 -83.001862 0.726597
v 27.913879 -89.135376 3.917986
v -7.280060 -86.346298 -33.673237
v 13.169159 -88.589401 -29.702444
v -0.084991 -89.688980 -26.394491
v 18.191040 -87.773849 -33.809223
vt 0.9479 0.4471
vt 0.9479 0.4471
vt 0.9479 0.4471
vt 0.9479 0.4471
vt 0.9479 0.4471
vt 0.9479 0.4471
vt 0.9479 0.4471
vt 0.9479 0.4471
vt 0.9479 0.4471
vt 0.9479 0.4471
vt 0.9479 0.4471
vt 0.9479 0.4471
vt 0.9479 0.4471
vt 0.9479 0.4471
vt 0.9479 0.4471
vt 0.9479 0.4471
vt 0.9479 0.4471
vt 0.9479 0.4471
vt 0.9479 0.4471
vt 0.9479 0.4471
vt 0.9479 0.4471
vt 0.9479 0.4471
vt 0.9479 0.4471
vt 0.9479 0.4471
vt 0.9479 0.4471
vt 0.9479 0.4471
vt 0.9479 0.4471
vt 0.9479 0.4471
vt 0.9479 0.4471
vt 0.9479 0.4471
vt 0.9479 0.4471
vt 0.9479 0.4471
vt 0.9479 0.4471
vt 0.9479 0.4471
vt 0.9479 0.4471
vt 0.9479 0.4471
vt 0.9479 0.4471
vt 0.9479 0.4471
vt 0.9479 0.4471
vt 0.9479 0.4471
vt 0.9479 0.4471
vt 0.9479 0.4471
vt 0.9479 0.4471
vt 0.9479 0.4471
vt 0.9479 0.4471
vt 0.9479 0.4471
vt 0.9479 0.4471
vt 0.9479 0.4471
vt 0.9479 0.4471
vt 0.9479 0.4471
vt 0.9479 0.4471
vt 0.9479 0.4471
vt 0.9479 0.4471
vt 0.9479 0.4471
vt 0.9479 0.4471
vt 0.9479 0.4471
vt 0.9479 0.4471
vt 0.9479 0.4471
vt 0.9479 0.4471
vt 0.9479 0.4471
vt 0.9479 0.4471
vt 0.9479 0.4471
vt 0.9479 0.4471
vt 0.9479 0.4471
vt 0.9479 0.4471
vt 0.9479 0.4471
vt 0.9479 0.4471
vt 0.9479 0.4471
vt 0.9479 0.4471
vt 0.9479 0.4471
vt 0.9479 0.4471
vt 0.9479 0.4471
vt 0.9479 0.4471
vt 0.9479 0.4471
vt 0.9479 0.4471
vt 0.9479 0.4471
vt 0.9479 0.4471
vt 0.9479 0.4471
vt 0.9479 0.4471
vt 0.9479 0.4471
vt 0.9479 0.4471
vt 0.9479 0.4471
vt 0.9479 0.4471
vt 0.9479 0.4471
vt 0.9479 0.4471
vt 0.9479 0.4471
vt 0.9479 0.4471
vt 0.9479 0.4471
vt 0.9479 0.4471
vt 0.9479 0.4471
vt 0.9479 0.4471
vn -0.0311 0.7526 0.6578
vn -0.2618 0.9533 0.1505
vn -0.2088 0.9779 0.0079
vn -0.1929 0.9812 0.0000
vn 0.3527 0.9120 -0.2095
vn 0.4074 0.8669 -0.2873
vn 0.3529 -0.9317 0.0853
vn 0.2827 -0.9462 0.1577
vn 0.4544 0.8908 0.0000
vn -0.1005 0.9696 -0.2232
vn -0.1383 0.9613 -0.2382
vn -0.2319 0.9727 -0.0000
vn -0.2319 0.9727 0.0001
vn -0.2328 0.9725 -0.0047
vn 0.0000 0.9921 0.1252
vn -0.3909 -0.9197 -0.0359
vn 0.1063 0.8832 -0.4568
vn 0.0913 0.8040 -0.5876
vn 0.4560 0.8730 0.1728
vn 0.1207 0.6697 0.7328
vn -0.1473 -0.9887 -0.0287
vn -0.1320 -0.9871 -0.0904
vn -0.3461 0.8794 -0.3268
vn -0.1313 0.9909 -0.0297
vn -0.7124 0.0431 0.7005
vn 0.0000 0.0623 0.9981
vn 0.6501 0.0497 0.7582
vn 0.6566 0.0687 0.7511
vn 0.9580 0.2633 0.1134
vn 0.9967 0.0810 0.0000
vn 0.5469 0.0571 -0.8353
vn 0.5363 0.0803 -0.8402
vn -0.0853 0.0345 -0.9958
vn -0.0910 0.0480 -0.9947
vn -0.3648 0.0388 -0.9303
vn -0.3632 0.0409 -0.9308
vn -0.3647 0.0389 -0.9303
vn -0.3631 0.0411 -0.9309
vn -0.9989 0.0475 0.0000
vn -0.9989 0.0470 -0.0005
vn -0.9991 0.0423 -0.0043
vn -0.9993 0.0372 -0.0086
vn -0.4544 0.8908 0.0000
vn -0.1341 0.9897 0.0495
vn -0.2322 0.9727 -0.0000
vn -0.2345 0.9721 -0.0046
vn -0.2319 0.9726 0.0179
vn 0.1171 0.1739 -0.9778
vn 0.8015 0.1013 -0.5894
vn 0.7143 -0.0518 -0.6979
vn 0.0000 -1.0000 -0.0000
vn 0.2777 -0.9354 -0.2188
vn -0.0491 -0.9988 0.0063
vn -0.3914 -0.8804 -0.2679
vn -0.9375 0.0363 0.3460
vn -0.9377 0.0367 0.3456
vn -0.9399 0.0427 0.3387
vn -0.9401 0.0430 0.3383
vn 0.2154 0.2073 0.9543
vn 0.2945 -0.1083 0.9495
vn 0.5842 0.1560 0.7965
vn -0.2544 0.9671 -0.0038
vn -0.3109 0.9424 -0.1231
vn -0.3090 0.9375 -0.1603
vn 0.9990 0.0440 0.0000
vn 0.9753 0.1460 -0.1657
vn -0.0346 0.1453 0.9888
vn 0.0000 0.1114 0.9938
vn -0.3762 0.1656 0.9116
vn -0.4910 0.6383 0.5928
vn -0.7830 0.6221 0.0000
vn -0.7830 0.6220 0.0000
vn -0.9203 0.3798 -0.0941
vn -0.3881 0.4754 -0.7895
vn -0.4829 0.5452 -0.6853
vn -0.0342 0.2947 -0.9550
vn -0.1892 0.5432 -0.8180
vn 0.5655 0.2376 -0.7898
vn 0.4197 0.3123 -0.8522
vn 0.9457 0.3250 0.0000
vn 0.5239 0.2299 0.8202
vn 0.4806 0.1687 0.8606
vn 0.4201 0.0650 -0.9051
vn 0.4258 0.3203 -0.8462
vn 0.9770 0.2131 0.0000
vn 0.9770 0.2133 0.0004
vn 0.9768 0.2141 0.0017
vn 0.9768 0.2143 0.0022
vn 0.3781 0.1070 0.9196
vn 0.4327 0.1659 0.8861
vn -0.7794 0.0237 0.6260
vn -0.7655 0.0032 0.6435
vn 0.5592 0.8088 0.1820
vn 0.7284 0.3420 0.5937
vn -0.8639 0.4901 -0.1163
vn -0.8440 0.4366 -0.3116
vn 0.9020 0.4317 0.0102
vn 0.4806 0.4893 -0.7277
vn 0.7610 -0.0074 -0.6487
vn 0.9715 0.2259 0.0725
vn 0.0792 -0.1171 -0.9900
vn -0.0911 -0.0051 -0.9958
vn -0.5598 0.2114 -0.8012
vn -0.8102 -0.0050 0.5861
vn 0.9959 -0.0779 -0.0460
vn 0.9746 -0.1494 0.1670
vn 0.0000 -0.1317 0.9913
vn -0.7808 -0.0886 0.6185
vn -0.7173 -0.1353 0.6835
vn -0.9373 -0.0882 0.3373
vn 0.9790 -0.1442 0.1441
vn 0.1906 0.2256 0.9554
vn 0.0218 -0.1146 0.9932
vn -0.8881 -0.3305 0.3196
vn -0.9371 -0.3491 -0.0000
vn -0.2656 -0.6824 -0.6810
vn -0.0868 -0.3025 -0.9492
vn 0.5019 -0.3602 -0.7863
vn 0.8562 -0.5166 -0.0000
vn 0.7421 -0.6484 -0.1700
vn 0.8834 -0.4034 -0.2385
vn 0.9371 -0.3491 -0.0000
vn 0.6154 -0.3542 0.7041
vn 0.4305 -0.4697 0.7707
vn -0.0727 -0.1477 0.9864
vn -0.5331 -0.3044 0.7894
vn -0.8064 -0.1361 0.5755
vn -0.2072 0.0610 0.9764
vn 0.6268 -0.5888 -0.5104
vn 0.6499 -0.7093 -0.2731
vn 0.9640 -0.0568 -0.2598
vn -0.0886 0.2312 -0.9689
vn -0.5893 0.0122 -0.8078
vn -0.8796 -0.4037 0.2517
vn -0.6951 -0.6636 0.2766
vn -0.1825 0.0993 -0.9782
vn -0.0465 0.5408 -0.8398
vn 0.9615 -0.0285 0.2732
vn 0.9637 0.2669 0.0000
vn 0.0000 -0.6193 0.7851
vn 0.1246 -0.4198 0.8990
vn -0.5460 -0.6567 0.5203
vn -0.7905 -0.4110 0.4541
vn 0.9178 0.2462 0.3116
vn 0.6536 -0.5315 0.5388
vn 0.4919 -0.6643 0.5628
vn 0.7461 -0.0400 -0.6646
vn -0.6292 -0.1292 -0.7664
vn -0.8540 -0.1782 -0.4889
vn 0.0914 -0.8979 -0.4307
vn 0.6725 -0.7047 -0.2262
vn 0.5412 -0.8409 -0.0097
vn 0.7235 -0.4604 0.5143
vn 0.5445 -0.8381 0.0324
vn 0.9091 -0.3615 0.2070
vn 0.8488 -0.4717 -0.2387
vn -0.3200 -0.6915 -0.6476
vn -0.0514 -0.8254 -0.5622
vn 0.0463 -0.7487 -0.6613
vn -0.0233 -0.9170 -0.3981
vn -0.6370 0.0488 -0.7693
vn 0.8862 -0.3533 -0.2999
vn 0.7205 0.0439 -0.6921
vn -0.2465 0.0613 -0.9672
vn -0.5416 0.0532 -0.8390
vn 0.5697 -0.6363 -0.5202
vn -0.3786 -0.7026 -0.6025
vn 0.7992 0.0380 -0.5998
vn -0.0487 -0.9918 0.1182
vn 0.0942 -0.9944 0.0469
vn 0.8604 -0.0717 -0.5045
usemtl None
s 1
f 1/1/1 2/2/1 3/3/1
f 3/3/2 2/2/2 4/4/2
f 5/5/3 6/6/3 7/7/3
f 7/7/4 6/6/4 8/8/4
f 9/9/5 10/10/5 11/11/5
f 11/11/6 10/10/6 12/12/6
f 13/13/7 14/14/7 15/15/7
f 15/15/8 14/14/8 16/16/8
f 11/11/9 17/17/9 9/9/9
f 18/18/10 19/19/10 20/20/10
f 20/20/11 19/19/11 21/21/11
f 7/7/12 22/22/12 5/5/13
f 22/22/12 23/23/12 5/5/13
f 23/23/12 24/24/14 5/5/13
f 2/2/15 25/25/15 4/4/15
f 4/4/15 25/25/15 26/26/15
f 27/27/16 28/28/16 29/29/16
f 10/10/17 30/30/17 12/12/17
f 12/12/18 30/30/18 31/31/18
f 24/24/14 23/23/12 32/32/12
f 23/23/12 33/33/12 32/32/12
f 32/32/12 33/33/12 34/34/12
f 26/26/19 25/25/19 35/35/19
f 35/35/20 25/25/20 36/36/20
f 29/29/21 28/28/21 37/37/21
f 37/37/22 28/28/22 38/38/22
f 31/31/23 30/30/23 20/20/23
f 20/20/24 30/30/24 18/18/24
f 39/39/25 26/26/25 35/35/25
f 4/4/26 26/26/26 40/40/26
f 3/3/27 4/4/27 41/41/27
f 41/41/28 4/4/28 40/40/28
f 17/17/29 42/42/29 9/9/29
f 9/9/30 42/42/30 43/43/30
f 10/10/31 9/9/31 44/44/31
f 44/44/32 9/9/32 43/43/32
f 30/30/33 10/10/33 45/45/33
f 45/45/34 10/10/34 44/44/34
f 30/30/35 45/45/36 18/18/37
f 18/18/37 45/45/36 46/46/38
f 46/46/39 47/47/40 18/18/41
f 18/18/41 47/47/40 19/19/42
f 36/36/43 21/21/43 35/35/43
f 35/35/44 21/21/44 19/19/44
f 48/48/45 24/24/14 49/49/12
f 49/49/12 24/24/14 32/32/12
f 24/24/14 48/48/45 50/50/46
f 50/50/47 48/48/47 51/51/47
f 52/52/48 5/5/48 53/53/48
f 54/54/49 55/55/49 56/56/49
f 56/56/50 55/55/50 57/57/50
f 58/58/51 13/13/51 59/59/51
f 60/60/52 28/28/52 61/61/52
f 61/61/53 28/28/53 13/13/53
f 38/38/54 28/28/54 60/60/54
f 19/19/55 47/47/56 35/35/57
f 35/35/57 47/47/56 39/39/58
f 6/6/59 5/5/59 52/52/59
f 57/57/60 42/42/60 56/56/60
f 56/56/61 42/42/61 17/17/61
f 5/5/62 50/50/62 53/53/62
f 53/53/63 50/50/63 62/62/63
f 50/50/64 63/63/64 62/62/64
f 3/3/9 54/54/9 1/1/9
f 41/41/65 55/55/65 3/3/65
f 3/3/66 55/55/66 54/54/66
f 61/61/51 13/13/51 64/64/51
f 13/13/51 58/58/51 64/64/51
f 48/48/67 25/25/67 51/51/67
f 51/51/68 25/25/68 2/2/68
f 25/25/69 48/48/69 36/36/69
f 36/36/70 48/48/70 49/49/70
f 32/32/71 21/21/72 49/49/72
f 49/49/72 21/21/72 36/36/72
f 20/20/73 21/21/73 34/34/73
f 34/34/72 21/21/72 32/32/71
f 34/34/74 33/33/74 20/20/74
f 20/20/75 33/33/75 31/31/75
f 12/12/76 31/31/76 7/7/76
f 7/7/77 31/31/77 22/22/77
f 11/11/78 12/12/78 8/8/78
f 8/8/79 12/12/79 7/7/79
f 6/6/80 17/17/80 8/8/80
f 8/8/80 17/17/80 11/11/80
f 56/56/81 17/17/81 52/52/81
f 52/52/82 17/17/82 6/6/82
f 53/53/83 54/54/83 52/52/83
f 52/52/84 54/54/84 56/56/84
f 54/54/85 53/53/86 1/1/87
f 1/1/87 53/53/86 62/62/88
f 2/2/89 1/1/89 63/63/89
f 63/63/90 1/1/90 62/62/90
f 65/65/91 2/2/91 63/63/91
f 50/50/92 65/65/92 63/63/92
f 50/50/93 51/51/93 65/65/93
f 51/51/94 2/2/94 65/65/94
f 5/5/13 24/24/14 50/50/46
f 66/66/95 23/23/95 22/22/95
f 31/31/96 66/66/96 22/22/96
f 31/31/97 33/33/97 66/66/97
f 33/33/98 23/23/98 66/66/98
f 67/67/99 68/68/99 69/69/99
f 67/67/100 70/70/100 68/68/100
f 45/45/101 67/67/101 71/71/101
f 71/71/102 67/67/102 69/69/102
f 72/72/103 71/71/103 73/73/103
f 72/72/104 73/73/104 74/74/104
f 57/57/105 75/75/105 70/70/105
f 70/70/106 75/75/106 76/76/106
f 77/77/107 78/78/107 79/79/107
f 80/80/108 74/74/108 77/77/108
f 77/77/109 74/74/109 78/78/109
f 80/80/110 72/72/110 74/74/110
f 75/75/111 81/81/111 76/76/111
f 75/75/112 77/77/112 81/81/112
f 81/81/113 77/77/113 79/79/113
f 47/47/114 72/72/114 39/39/114
f 39/39/114 72/72/114 80/80/114
f 47/47/115 46/46/115 72/72/115
f 46/46/116 45/45/116 72/72/116
f 45/45/117 44/44/117 67/67/117
f 44/44/118 43/43/118 67/67/118
f 42/42/119 57/57/119 43/43/119
f 43/43/120 57/57/120 67/67/120
f 57/57/121 55/55/121 75/75/121
f 55/55/122 41/41/122 75/75/122
f 41/41/123 40/40/123 75/75/123
f 75/75/124 40/40/124 77/77/124
f 40/40/125 26/26/125 77/77/125
f 39/39/126 80/80/126 26/26/126
f 26/26/127 80/80/127 77/77/127
f 13/13/128 59/59/128 82/82/128
f 83/83/129 68/68/129 84/84/129
f 84/84/130 68/68/130 15/15/130
f 15/15/131 82/82/131 59/59/131
f 71/71/132 69/69/132 85/85/132
f 85/85/132 69/69/132 83/83/132
f 73/73/133 71/71/133 85/85/133
f 73/73/134 37/37/134 74/74/134
f 74/74/135 37/37/135 38/38/135
f 70/70/136 82/82/136 86/86/136
f 86/86/137 82/82/137 13/13/137
f 82/82/138 87/87/138 59/59/138
f 59/59/139 87/87/139 58/58/139
f 79/79/140 78/78/140 61/61/140
f 61/61/141 78/78/141 60/60/141
f 74/74/142 38/38/142 78/78/142
f 78/78/143 38/38/143 60/60/143
f 87/87/144 64/64/144 58/58/144
f 81/81/145 79/79/145 64/64/145
f 64/64/146 79/79/146 61/61/146
f 69/69/147 68/68/147 83/83/147
f 73/73/148 85/85/148 37/37/148
f 72/72/149 45/45/149 71/71/149
f 59/59/150 13/13/150 15/15/150
f 68/68/151 70/70/151 15/15/151
f 15/15/152 70/70/152 82/82/152
f 76/76/153 87/87/153 70/70/153
f 70/70/154 87/87/154 82/82/154
f 81/81/155 64/64/155 76/76/155
f 76/76/156 64/64/156 87/87/156
f 37/37/157 85/85/157 88/88/157
f 83/83/158 89/89/158 85/85/158
f 85/85/159 89/89/159 88/88/159
f 89/89/160 90/90/160 88/88/160
f 91/91/161 16/16/161 89/89/161
f 89/89/161 16/16/161 14/14/161
f 15/15/162 16/16/162 84/84/162
f 88/88/163 90/90/163 29/29/163
f 29/29/163 90/90/163 27/27/163
f 89/89/164 14/14/164 90/90/164
f 90/90/164 14/14/164 27/27/164
f 37/37/165 88/88/165 29/29/165
f 84/84/166 91/91/166 83/83/166
f 91/91/167 89/89/167 83/83/167
f 84/84/168 16/16/168 91/91/168
f 28/28/169 27/27/169 13/13/169
f 13/13/170 27/27/170 14/14/170
f 67/67/171 57/57/171 70/70/171
