# Blender v2.78 (sub 0) OBJ File: ''
# www.blender.org
mtllib SM_Env_Tree_05.mtl
o SM_Env_Tree_05
v -76.910645 -292.540436 34.706627
v -64.331543 -211.762726 26.001574
v -61.293457 -292.540436 -11.568216
v -56.203613 -211.762726 1.917283
v -37.726074 -292.540436 63.859215
v -43.937988 -211.762726 41.174545
v 2.107910 -292.540436 35.601524
v -23.205566 -211.762726 26.467760
v -12.457520 -292.540436 -11.014873
v -30.786621 -211.762726 2.205003
v -37.256348 -292.540436 22.316854
v -73.476074 7.673247 5.314389
v -79.973145 7.673244 24.564573
v -63.478027 7.673245 19.410276
v -63.673340 7.673242 36.691887
v -47.103027 7.673244 24.936888
v -53.160645 7.673247 5.544736
v -43.200684 -126.893097 22.353407
v -49.697754 -126.893105 41.603348
v -33.395996 -126.893135 53.730667
v -16.825684 -126.893135 41.975784
v -22.885254 -126.893097 22.583509
v -53.152832 -103.772194 38.554955
v -46.655762 -103.772186 19.304831
v -36.853027 -103.772194 50.682152
v -20.280762 -103.772194 38.927208
v 102.109863 -87.474884 2.838466
v 101.641113 -87.031235 0.094203
v 101.714355 -84.227676 2.869169
v 101.245605 -83.784058 0.125028
v -26.340332 -103.772171 19.534933
v 6.294434 -120.578438 32.831436
v 4.121582 -117.495148 18.731279
v 1.579590 -100.786942 19.846395
v 3.753418 -103.870186 33.946251
v 32.456543 -101.585068 6.373069
v 30.530762 -97.876144 -5.377295
v 29.569824 -83.592072 -3.274996
v 31.495605 -87.300934 8.475002
v 67.141113 -92.522644 9.367945
v 66.056152 -90.876160 2.853969
v 66.754395 -98.708862 2.134668
v 67.840332 -100.355392 8.648827
v -116.401855 -8.583903 64.252739
v -91.094238 -18.748188 116.571098
v -115.503418 37.598858 122.062569
v -64.485840 10.956703 141.746704
v -64.204590 -29.034594 104.980385
v -11.119629 -20.459278 113.182732
v -110.246582 70.976143 123.068687
v -24.854980 77.941055 112.830711
v -152.670410 58.079910 99.989571
v -157.265137 90.931229 104.684532
v -117.246582 143.415970 116.171303
v 34.554199 7.021404 115.829948
v -9.905762 25.017984 125.929634
v 145.724121 91.648026 91.356224
v 20.029785 29.903238 132.051270
v 100.152832 111.293533 110.058800
v 43.982910 127.673103 123.022255
v -26.463379 161.812454 94.920082
v 45.426270 198.653275 116.366020
v 75.155762 229.145889 104.857857
v 126.671387 124.017593 84.128029
v 127.522949 203.211380 73.132744
v 155.183105 120.754456 22.204012
v 82.792480 243.145584 89.993904
v 143.250488 229.235138 21.200388
v 61.641113 243.821487 98.544991
v -52.449707 207.826675 71.368034
v 93.803223 251.086151 37.725235
v 26.381348 236.137039 57.437630
v -94.947754 188.133621 109.973503
v -49.955566 179.380814 86.656914
v -38.990723 207.960724 45.823547
v -65.919434 210.753143 35.007751
v -124.831543 195.035294 95.121758
v 2.854981 256.746796 39.519058
v -11.799316 263.269501 17.820513
v 91.138184 286.025604 9.980190
v 69.033691 292.540436 -6.408175
v -33.032715 246.673431 -25.322863
v 114.983887 281.549774 -13.797033
v 87.180176 288.758209 -33.321571
v 112.234863 254.531906 -63.031662
v 183.233887 201.220749 -66.133186
v 106.711426 252.441757 -116.962395
v 68.400879 241.675766 -122.447258
v 23.503418 254.082504 -98.353874
v -63.273926 200.876389 -66.767097
v -114.520020 199.225677 -23.688662
v -25.136230 231.833969 -100.581474
v -9.103027 219.800827 -123.475456
v -83.802246 141.146835 -90.760826
v -34.909668 178.194443 -126.841927
v 21.603027 192.877670 -133.880920
v -15.376465 142.814194 -135.212891
v -36.574707 116.226128 -141.746689
v -123.286621 130.401291 -95.025475
v -142.302246 176.662262 -37.100716
v -138.321777 136.141708 -62.324242
v 76.927246 227.425705 -138.590698
v 110.813965 235.795761 -134.369553
v 169.406738 171.387375 -82.799629
v 61.849121 149.519394 -134.082581
v 129.792480 94.819374 -58.246254
v 72.811035 93.339951 -112.469398
v 21.183105 70.018723 -107.638969
v -19.310059 48.829269 -86.777519
v -21.459473 9.542310 -76.039619
v -51.551270 47.012131 -99.891167
v 96.870605 75.541061 -91.601173
v 36.898926 33.050949 -97.641350
v 51.247559 -5.883018 -50.954781
v -35.328613 5.939804 -90.240486
v 7.230957 -34.324520 -27.395830
v -119.763184 99.394882 -117.035439
v -76.638184 5.908920 -90.964607
v -114.293457 11.930407 -106.184517
v -122.578613 -16.885637 -84.700935
v -87.282715 -32.989155 -61.317276
v -104.284668 -26.237419 -45.318985
v -42.618652 -44.481342 17.211527
v -131.820801 28.720154 -2.372983
v -112.321777 -8.458926 17.117910
v 45.030762 -24.822784 -4.596754
v 9.260254 -32.863354 65.101479
v 57.275879 -3.245064 49.132439
v 107.634277 38.180435 86.159004
v 145.931152 69.513817 63.630814
v 125.743652 55.852932 18.586622
v 157.687012 95.123062 75.346092
v 167.663574 131.536362 -64.133080
v 111.729980 37.473545 -26.991449
v 178.164551 135.687042 -18.663961
v 188.959473 204.697479 -9.860962
v 151.412598 225.959091 -92.995964
v 152.829590 193.730194 34.777641
v -141.710449 40.652287 -27.142878
v -188.959473 95.779877 20.285486
v -154.467285 25.257591 46.295044
v -184.507324 124.938133 58.083038
v -163.083496 171.745316 80.877556
v -169.264160 178.000397 18.420095
v -162.812988 176.692169 -9.962594
vt 0.9890 0.3176
vt 0.9890 0.3176
vt 0.9890 0.3176
vt 0.9890 0.3176
vt 0.9890 0.3176
vt 0.9890 0.3176
vt 0.9890 0.3176
vt 0.9890 0.3176
vt 0.9890 0.3176
vt 0.9890 0.3176
vt 0.9890 0.3176
vt 0.9890 0.3176
vt 0.9890 0.3176
vt 0.9890 0.3176
vt 0.9890 0.3176
vt 0.9890 0.3176
vt 0.9890 0.3176
vt 0.9890 0.3176
vt 0.9890 0.3176
vt 0.9890 0.3176
vt 0.9890 0.3176
vt 0.9890 0.3176
vt 0.9890 0.3176
vt 0.9890 0.3176
vt 0.9890 0.3176
vt 0.9890 0.3176
vt 0.9890 0.3176
vt 0.9890 0.3176
vt 0.9890 0.3176
vt 0.9890 0.3176
vt 0.9890 0.3176
vt 0.9890 0.3176
vt 0.9890 0.3176
vt 0.9890 0.3176
vt 0.9890 0.3176
vt 0.9890 0.3176
vt 0.9890 0.3176
vt 0.9890 0.3176
vt 0.9890 0.3176
vt 0.9890 0.3176
vt 0.9890 0.3176
vt 0.9890 0.3176
vt 0.9890 0.3176
vt 0.8691 0.4165
vt 0.8691 0.4165
vt 0.8691 0.4165
vt 0.8691 0.4165
vt 0.8691 0.4165
vt 0.8691 0.4165
vt 0.8691 0.4165
vt 0.8691 0.4165
vt 0.8691 0.4165
vt 0.8691 0.4165
vt 0.8691 0.4165
vt 0.8691 0.4165
vt 0.8691 0.4165
vt 0.8691 0.4165
vt 0.8691 0.4165
vt 0.8691 0.4165
vt 0.8691 0.4165
vt 0.8691 0.4165
vt 0.8691 0.4165
vt 0.8691 0.4165
vt 0.8691 0.4165
vt 0.8691 0.4165
vt 0.8691 0.4165
vt 0.8691 0.4165
vt 0.8691 0.4165
vt 0.8691 0.4165
vt 0.8691 0.4165
vt 0.8691 0.4165
vt 0.8691 0.4165
vt 0.8691 0.4165
vt 0.8691 0.4165
vt 0.8691 0.4165
vt 0.8691 0.4165
vt 0.8691 0.4165
vt 0.8691 0.4165
vt 0.8691 0.4165
vt 0.8691 0.4165
vt 0.8691 0.4165
vt 0.8691 0.4165
vt 0.8691 0.4165
vt 0.8691 0.4165
vt 0.8691 0.4165
vt 0.8691 0.4165
vt 0.8691 0.4165
vt 0.8691 0.4165
vt 0.8691 0.4165
vt 0.8691 0.4165
vt 0.8691 0.4165
vt 0.8691 0.4165
vt 0.8691 0.4165
vt 0.8691 0.4165
vt 0.8691 0.4165
vt 0.8691 0.4165
vt 0.8691 0.4165
vt 0.8691 0.4165
vt 0.8691 0.4165
vt 0.8691 0.4165
vt 0.8691 0.4165
vt 0.8691 0.4165
vt 0.8691 0.4165
vt 0.8691 0.4165
vt 0.8691 0.4165
vt 0.8691 0.4165
vt 0.8691 0.4165
vt 0.8691 0.4165
vt 0.8691 0.4165
vt 0.8691 0.4165
vt 0.8691 0.4165
vt 0.8691 0.4165
vt 0.8691 0.4165
vt 0.8691 0.4165
vt 0.8691 0.4165
vt 0.8691 0.4165
vt 0.8691 0.4165
vt 0.8691 0.4165
vt 0.8691 0.4165
vt 0.8691 0.4165
vt 0.8691 0.4165
vt 0.8691 0.4165
vt 0.8691 0.4165
vt 0.8691 0.4165
vt 0.8691 0.4165
vt 0.8691 0.4165
vt 0.8691 0.4165
vt 0.8691 0.4165
vt 0.8691 0.4165
vt 0.8691 0.4165
vt 0.8691 0.4165
vt 0.8691 0.4165
vt 0.8691 0.4165
vt 0.8691 0.4165
vt 0.8691 0.4165
vt 0.8691 0.4165
vt 0.8691 0.4165
vt 0.8691 0.4165
vt 0.8691 0.4165
vt 0.8691 0.4165
vt 0.8691 0.4165
vt 0.8691 0.4165
vt 0.8691 0.4165
vt 0.8691 0.4165
vt 0.8691 0.4165
vn -0.9415 0.1124 -0.3177
vn -0.5875 0.1766 0.7897
vn 0.5581 0.2638 0.7867
vn 0.5581 0.2639 0.7867
vn 0.9226 0.2565 -0.2883
vn 0.0112 0.1640 -0.9864
vn 0.0000 -1.0000 0.0000
vn 0.0000 1.0000 0.0000
vn -0.9249 0.2169 -0.3122
vn -0.5963 -0.0445 0.8015
vn 0.5681 -0.1891 0.8009
vn 0.5682 -0.1891 0.8009
vn 0.9543 -0.0172 -0.2982
vn 0.9543 -0.0173 -0.2982
vn 0.0110 0.2325 -0.9725
vn -0.9319 -0.1807 -0.3145
vn -0.5968 0.0165 0.8022
vn -0.5968 0.0166 0.8022
vn 0.5680 0.1905 0.8007
vn 0.9815 0.1209 -0.1481
vn 0.9815 0.1210 -0.1481
vn 0.0112 -0.1291 -0.9916
vn 0.0112 -0.1294 -0.9915
vn 0.0113 -0.1216 -0.9925
vn 0.5624 0.2349 0.7928
vn -0.5964 -0.0429 0.8016
vn -0.9152 -0.2590 -0.3089
vn 0.0113 -0.1219 -0.9925
vn 0.9373 0.1888 -0.2929
vn 0.9373 0.1888 -0.2928
vn 0.2356 -0.9691 -0.0736
vn 0.2869 -0.9257 -0.2466
vn -0.0906 -0.1435 -0.9855
vn 0.0039 0.0672 -0.9977
vn -0.1066 0.9937 0.0333
vn 0.0468 0.9773 0.2065
vn 0.2010 0.1575 0.9668
vn 0.3692 -0.0059 0.9293
vn 0.3872 -0.8865 -0.2535
vn 0.3468 -0.8766 -0.3335
vn -0.6533 -0.0490 -0.7555
vn -0.6592 0.0659 -0.7490
vn -0.3178 0.9149 0.2490
vn -0.2806 0.9011 0.3304
vn 0.6893 0.0566 0.7223
vn 0.6940 -0.0589 0.7176
vn -0.1767 0.9469 0.2688
vn -0.1801 0.9657 0.1869
vn -0.0860 0.0835 -0.9928
vn -0.0773 0.0000 -0.9970
vn 0.2958 -0.9133 -0.2801
vn 0.3002 -0.9322 -0.2020
vn 0.1932 -0.0726 0.9785
vn 0.1817 0.0128 0.9833
vn 0.1433 0.9503 0.2765
vn 0.1359 0.9657 0.2214
vn 0.1938 0.1556 -0.9686
vn 0.2042 0.1076 -0.9730
vn 0.0418 -0.9508 -0.3070
vn 0.0498 -0.9663 -0.2525
vn -0.0465 -0.1485 0.9878
vn -0.0605 -0.0966 0.9935
vn -0.8525 -0.4019 0.3343
vn -0.4711 -0.2854 0.8346
vn 0.0132 -0.7325 0.6806
vn 0.0179 -0.6558 0.7548
vn -0.3529 0.0274 0.9353
vn -0.3478 0.0265 0.9372
vn -0.3487 0.0267 0.9368
vn 0.0829 0.3532 0.9319
vn -0.5778 -0.1941 0.7928
vn -0.3539 0.0275 0.9349
vn -0.3428 0.0562 0.9377
vn 0.1076 -0.2710 0.9566
vn 0.3304 -0.2629 0.9065
vn 0.4315 -0.3232 0.8422
vn -0.0639 -0.6038 0.7945
vn 0.3456 -0.0878 0.9343
vn 0.2337 0.0325 0.9718
vn -0.2207 0.1432 0.9648
vn 0.1975 0.2877 0.9371
vn -0.2585 0.1627 0.9522
vn -0.2803 0.1953 0.9398
vn 0.2477 0.0855 0.9651
vn 0.2690 0.0993 0.9580
vn -0.3289 0.0948 0.9396
vn 0.4993 0.4581 0.7354
vn 0.6724 0.0947 0.7341
vn 0.9083 0.0479 0.4157
vn 0.5672 0.1560 0.8087
vn 0.6111 0.3949 0.6860
vn 0.6774 0.5547 0.4831
vn -0.3074 0.2902 0.9062
vn -0.4631 0.4642 0.7550
vn -0.0258 0.3749 0.9267
vn 0.3150 0.6048 0.7315
vn 0.1001 0.9803 0.1700
vn -0.3208 0.9420 0.0991
vn -0.2158 0.9764 0.0025
vn 0.0723 0.1015 0.9922
vn 0.0929 0.2702 0.9583
vn -0.1873 0.2017 0.9614
vn 0.4656 0.0380 0.8842
vn 0.4785 0.4479 0.7553
vn 0.0472 0.4761 0.8781
vn -0.3610 0.9140 -0.1854
vn 0.0835 0.9953 0.0492
vn -0.3666 0.3046 0.8791
vn -0.2758 0.9445 0.1782
vn 0.0644 0.9482 0.3110
vn -0.3202 0.3864 0.8649
vn 0.0572 0.6915 0.7201
vn -0.2661 0.5363 0.8010
vn -0.5863 0.5764 0.5692
vn -0.1175 0.8582 0.4996
vn -0.2018 0.8920 0.4044
vn -0.3789 0.9108 -0.1639
vn 0.4561 0.8606 0.2268
vn 0.4756 0.5690 0.6708
vn 0.0542 0.6235 0.7800
vn 0.5978 0.6431 0.4785
vn 0.2568 0.9657 0.0375
vn 0.2237 0.9738 0.0410
vn 0.5009 0.7466 -0.4377
vn 0.5298 0.7307 -0.4305
vn -0.2692 0.9630 -0.0097
vn -0.3727 0.8506 -0.3708
vn 0.0375 0.9152 -0.4014
vn 0.4440 0.7503 -0.4899
vn -0.1150 0.9884 -0.0989
vn -0.6856 0.7256 0.0583
vn -0.8593 0.4772 -0.1843
vn -0.6740 0.7334 -0.0887
vn -0.3716 0.9076 -0.1956
vn -0.3978 0.8913 -0.2175
vn -0.1853 0.6894 -0.7003
vn -0.3089 0.7356 -0.6029
vn -0.5776 0.4674 -0.6693
vn -0.7686 0.4477 -0.4570
vn -0.7215 0.4060 -0.5608
vn -0.6144 0.4344 -0.6586
vn -0.1681 0.1827 -0.9687
vn -0.5403 -0.1006 -0.8354
vn -0.4666 0.5435 -0.6978
vn -0.1632 0.8183 -0.5511
vn -0.1350 0.7521 -0.6450
vn -0.8800 0.1857 -0.4372
vn -0.4128 0.5636 -0.7155
vn -0.0692 0.2900 -0.9545
vn -0.1032 0.7180 -0.6883
vn -0.0881 0.7095 -0.6992
vn 0.4583 -0.2629 -0.8490
vn 0.1438 -0.0849 -0.9860
vn -0.0556 -0.0470 -0.9973
vn 0.4554 -0.4767 -0.7519
vn 0.6843 -0.1417 -0.7153
vn -0.1589 0.1434 -0.9768
vn 0.0132 0.0169 -0.9998
vn 0.1813 -0.3221 -0.9292
vn -0.0070 0.2439 -0.9698
vn -0.0597 -0.6401 -0.7660
vn 0.1333 -0.4753 -0.8697
vn -0.3482 -0.2294 -0.9089
vn 0.3762 -0.2634 -0.8883
vn 0.6861 0.0796 -0.7232
vn 0.3876 -0.4313 -0.8147
vn 0.4847 -0.5927 -0.6432
vn 0.0232 -0.2518 -0.9675
vn -0.2050 -0.3358 -0.9193
vn 0.0640 -0.7567 -0.6507
vn 0.6972 0.1089 -0.7085
vn 0.7241 -0.2424 -0.6457
vn -0.8732 0.2122 -0.4387
vn -0.3382 0.5189 -0.7851
vn 0.3604 -0.0926 -0.9282
vn -0.8656 -0.1146 -0.4875
vn -0.1571 -0.4859 -0.8598
vn 0.0557 -0.2443 -0.9681
vn 0.3432 -0.5393 -0.7690
vn 0.0173 -0.2222 -0.9748
vn 0.0144 -0.6086 -0.7933
vn 0.2059 -0.6225 -0.7551
vn 0.2096 -0.6284 -0.7492
vn 0.2059 -0.6225 -0.7550
vn 0.2058 -0.6223 -0.7553
vn -0.3962 -0.9175 -0.0338
vn -0.3286 -0.9432 0.0489
vn 0.2139 -0.7503 -0.6256
vn -0.6274 -0.6497 0.4292
vn -0.2877 -0.5587 -0.7779
vn 0.0886 -0.7132 -0.6954
vn 0.3990 -0.8663 -0.3004
vn 0.0475 -0.9841 -0.1710
vn 0.2261 -0.9736 0.0310
vn 0.0492 -0.9815 0.1848
vn 0.2188 -0.9758 -0.0003
vn 0.1085 -0.9505 0.2912
vn 0.5611 -0.8044 0.1952
vn 0.5718 -0.7589 0.3116
vn 0.4558 -0.7959 0.3985
vn -0.4591 -0.8884 0.0061
vn -0.3184 -0.9475 -0.0301
vn -0.3233 -0.9424 0.0863
vn 0.4724 -0.8326 0.2891
vn 0.6341 -0.7732 0.0026
vn 0.4899 -0.4231 0.7623
vn 0.6387 -0.7676 -0.0535
vn 0.9070 -0.2675 -0.3253
vn 0.9062 -0.4154 0.0791
vn 0.8909 -0.3913 -0.2307
vn 0.7093 -0.5483 0.4430
vn 0.7298 -0.5317 0.4299
vn 0.2897 0.8674 0.4047
vn 0.6811 -0.7199 0.1339
vn 0.6940 -0.7160 0.0753
vn 0.8457 -0.5241 -0.1007
vn 0.4803 -0.7029 -0.5246
vn 0.7463 -0.4841 -0.4568
vn 0.9212 -0.3644 -0.1363
vn 0.6322 -0.7040 -0.3237
vn 0.9045 -0.2127 -0.3696
vn 0.9692 -0.1245 -0.2125
vn 0.9719 -0.2196 -0.0853
vn 0.2705 -0.4180 -0.8672
vn 0.6821 0.0893 -0.7258
vn 0.6009 0.7989 0.0239
vn 0.7224 0.1107 -0.6826
vn 0.6220 0.6339 -0.4596
vn 0.5422 0.8356 -0.0879
vn 0.7792 0.5325 0.3307
vn 0.8246 -0.0701 0.5614
vn 0.8837 -0.1926 0.4266
vn 0.4986 -0.8661 -0.0361
vn 0.7844 -0.0807 0.6150
vn 0.7186 0.6858 -0.1155
vn 0.6533 0.4177 0.6314
vn 0.6373 0.6357 0.4356
vn 0.8108 0.3868 0.4394
vn -0.8132 -0.5239 0.2534
vn -0.7743 -0.5603 -0.2942
vn -0.8568 -0.5061 0.0983
vn -0.7624 -0.6471 -0.0073
vn -0.9579 -0.0687 -0.2788
vn -0.9619 -0.0513 -0.2684
vn -0.6479 -0.7595 -0.0581
vn -0.7267 -0.5207 -0.4480
vn -0.6258 -0.6046 0.4927
vn -0.7080 -0.5918 0.3854
vn -0.9035 -0.3515 0.2451
vn -0.9246 -0.1775 0.3370
vn -0.9037 -0.2810 0.3232
vn -0.9239 0.3608 0.1276
vn -0.9708 0.2311 -0.0639
vn -0.6641 0.3634 0.6534
vn -0.6388 -0.0803 0.7652
vn -0.4765 0.2710 0.8364
vn -0.5519 0.8226 0.1370
vn -0.7952 -0.1846 -0.5776
vn -0.7646 0.2848 -0.5782
vn -0.9485 0.2221 -0.2258
vn -0.8693 0.1000 -0.4840
vn -0.4516 0.8806 -0.1432
vn -0.3604 0.9328 0.0016
vn -0.2455 0.9693 0.0129
vn -0.4766 0.8015 -0.3611
vn -0.2211 0.6849 -0.6943
usemtl None
s 1
f 1/1/1 2/2/1 3/3/1
f 3/3/1 2/2/1 4/4/1
f 5/5/2 6/6/2 1/1/2
f 1/1/2 6/6/2 2/2/2
f 7/7/3 8/8/3 5/5/3
f 5/5/3 8/8/3 6/6/4
f 7/7/5 9/9/5 8/8/5
f 8/8/5 9/9/5 10/10/5
f 9/9/6 3/3/6 10/10/6
f 10/10/6 3/3/6 4/4/6
f 1/1/7 3/3/7 11/11/7
f 5/5/7 1/1/7 11/11/7
f 7/7/7 5/5/7 11/11/7
f 9/9/7 7/7/7 11/11/7
f 3/3/7 9/9/7 11/11/7
f 12/12/8 13/13/8 14/14/8
f 13/13/8 15/15/8 14/14/8
f 15/15/8 16/16/8 14/14/8
f 16/16/8 17/17/8 14/14/8
f 17/17/8 12/12/8 14/14/8
f 4/4/9 2/2/9 18/18/9
f 18/18/9 2/2/9 19/19/9
f 2/2/10 6/6/10 19/19/10
f 19/19/10 6/6/10 20/20/10
f 8/8/11 21/21/12 6/6/11
f 6/6/11 21/21/12 20/20/12
f 10/10/13 22/22/13 8/8/13
f 8/8/13 22/22/13 21/21/14
f 4/4/15 18/18/15 10/10/15
f 10/10/15 18/18/15 22/22/15
f 19/19/16 23/23/16 18/18/16
f 18/18/16 23/23/16 24/24/16
f 20/20/17 25/25/18 19/19/18
f 19/19/18 25/25/18 23/23/18
f 21/21/19 26/26/19 20/20/19
f 20/20/19 26/26/19 25/25/19
f 27/27/20 28/28/21 29/29/21
f 29/29/21 28/28/21 30/30/21
f 22/22/22 18/18/22 31/31/23
f 31/31/23 18/18/22 24/24/24
f 26/26/25 16/16/25 25/25/25
f 25/25/25 16/16/25 15/15/25
f 25/25/26 15/15/26 23/23/26
f 23/23/26 15/15/26 13/13/26
f 23/23/27 13/13/27 24/24/27
f 24/24/27 13/13/27 12/12/27
f 31/31/23 24/24/24 17/17/28
f 17/17/28 24/24/24 12/12/28
f 26/26/29 31/31/29 16/16/30
f 16/16/30 31/31/29 17/17/30
f 21/21/31 22/22/31 32/32/31
f 32/32/32 22/22/32 33/33/32
f 22/22/33 31/31/33 33/33/33
f 33/33/34 31/31/34 34/34/34
f 31/31/35 26/26/35 34/34/35
f 34/34/36 26/26/36 35/35/36
f 26/26/37 21/21/37 35/35/37
f 35/35/38 21/21/38 32/32/38
f 32/32/39 33/33/39 36/36/39
f 36/36/40 33/33/40 37/37/40
f 33/33/41 34/34/41 37/37/41
f 37/37/42 34/34/42 38/38/42
f 35/35/43 39/39/43 34/34/43
f 34/34/44 39/39/44 38/38/44
f 32/32/45 36/36/45 35/35/45
f 35/35/46 36/36/46 39/39/46
f 40/40/47 29/29/47 41/41/47
f 41/41/48 29/29/48 30/30/48
f 42/42/49 41/41/49 28/28/49
f 28/28/50 41/41/50 30/30/50
f 43/43/51 42/42/51 27/27/51
f 27/27/52 42/42/52 28/28/52
f 43/43/53 27/27/53 40/40/53
f 40/40/54 27/27/54 29/29/54
f 38/38/55 39/39/55 41/41/55
f 41/41/56 39/39/56 40/40/56
f 38/38/57 41/41/57 37/37/57
f 37/37/58 41/41/58 42/42/58
f 37/37/59 42/42/59 36/36/59
f 36/36/60 42/42/60 43/43/60
f 39/39/61 36/36/61 40/40/61
f 40/40/62 36/36/62 43/43/62
f 44/44/63 45/45/63 46/46/63
f 45/45/64 47/47/64 46/46/64
f 45/45/65 48/48/65 49/49/65
f 45/45/66 49/49/66 47/47/66
f 46/46/67 47/47/68 50/50/69
f 47/47/70 51/51/70 50/50/70
f 52/52/71 46/46/71 53/53/71
f 46/46/67 50/50/69 53/53/72
f 53/53/73 50/50/73 54/54/73
f 49/49/74 55/55/74 56/56/74
f 49/49/75 56/56/75 47/47/75
f 55/55/76 57/57/76 58/58/76
f 56/56/77 55/55/77 58/58/77
f 57/57/78 59/59/78 58/58/78
f 58/58/79 59/59/79 60/60/79
f 58/58/80 60/60/80 56/56/80
f 47/47/81 56/56/81 51/51/81
f 56/56/82 60/60/82 51/51/82
f 51/51/83 60/60/83 61/61/83
f 60/60/84 59/59/84 62/62/84
f 62/62/85 59/59/85 63/63/85
f 61/61/86 60/60/86 62/62/86
f 59/59/87 57/57/87 64/64/87
f 59/59/88 64/64/88 65/65/88
f 64/64/89 66/66/89 65/65/89
f 59/59/90 65/65/90 63/63/90
f 63/63/91 65/65/91 67/67/91
f 67/67/92 65/65/92 68/68/92
f 61/61/93 69/69/93 70/70/93
f 61/61/94 62/62/94 69/69/94
f 62/62/95 63/63/95 69/69/95
f 69/69/96 63/63/96 67/67/96
f 69/69/97 67/67/97 71/71/97
f 70/70/98 69/69/98 72/72/98
f 72/72/99 69/69/99 71/71/99
f 54/54/100 50/50/100 73/73/100
f 50/50/101 51/51/101 74/74/101
f 74/74/102 51/51/102 61/61/102
f 73/73/103 50/50/103 74/74/103
f 73/73/104 74/74/104 70/70/104
f 74/74/105 61/61/105 70/70/105
f 70/70/106 72/72/106 75/75/106
f 70/70/107 75/75/107 76/76/107
f 54/54/108 73/73/108 77/77/108
f 73/73/109 70/70/109 76/76/109
f 73/73/110 76/76/110 77/77/110
f 75/75/111 72/72/111 78/78/111
f 72/72/112 71/71/112 78/78/112
f 76/76/113 75/75/113 79/79/113
f 79/79/114 75/75/114 78/78/114
f 78/78/115 80/80/115 81/81/115
f 78/78/116 81/81/116 79/79/116
f 79/79/117 81/81/117 82/82/117
f 71/71/118 67/67/118 68/68/118
f 71/71/119 68/68/119 80/80/119
f 78/78/120 71/71/120 80/80/120
f 80/80/121 68/68/121 83/83/121
f 80/80/122 84/84/122 81/81/122
f 80/80/123 83/83/123 84/84/123
f 83/83/124 85/85/124 84/84/124
f 83/83/125 86/86/125 85/85/125
f 85/85/126 87/87/126 88/88/126
f 81/81/127 84/84/127 88/88/127
f 81/81/128 88/88/128 89/89/128
f 84/84/129 85/85/129 88/88/129
f 76/76/130 90/90/130 91/91/130
f 76/76/131 79/79/131 82/82/131
f 76/76/132 82/82/132 92/92/132
f 90/90/133 76/76/133 92/92/133
f 82/82/134 81/81/134 89/89/134
f 82/82/135 89/89/135 92/92/135
f 89/89/136 88/88/136 93/93/136
f 92/92/137 89/89/137 93/93/137
f 91/91/138 90/90/138 94/94/138
f 90/90/139 92/92/139 94/94/139
f 92/92/140 95/95/140 94/94/140
f 92/92/141 93/93/141 95/95/141
f 93/93/142 96/96/142 95/95/142
f 94/94/143 95/95/143 97/97/143
f 94/94/144 97/97/144 98/98/144
f 94/94/145 98/98/145 99/99/145
f 100/100/146 94/94/146 99/99/146
f 100/100/147 99/99/147 101/101/147
f 88/88/148 102/102/148 96/96/148
f 93/93/149 88/88/149 96/96/149
f 88/88/150 87/87/150 102/102/150
f 102/102/151 87/87/151 103/103/151
f 103/103/152 104/104/152 105/105/152
f 102/102/153 103/103/153 105/105/153
f 102/102/154 105/105/154 96/96/154
f 105/105/155 104/104/155 106/106/155
f 105/105/156 106/106/156 107/107/156
f 95/95/157 96/96/157 97/97/157
f 97/97/158 96/96/158 105/105/158
f 105/105/159 107/107/159 98/98/159
f 97/97/160 105/105/160 98/98/160
f 98/98/161 108/108/161 109/109/161
f 98/98/162 107/107/162 108/108/162
f 109/109/163 108/108/163 110/110/163
f 111/111/164 109/109/164 110/110/164
f 107/107/165 106/106/165 112/112/165
f 107/107/166 112/112/166 113/113/166
f 113/113/167 112/112/167 114/114/167
f 108/108/168 107/107/168 113/113/168
f 108/108/169 113/113/169 110/110/169
f 113/113/170 114/114/170 110/110/170
f 111/111/171 110/110/171 115/115/171
f 115/115/172 110/110/172 116/116/172
f 101/101/173 99/99/173 117/117/173
f 99/99/174 98/98/174 117/117/174
f 117/117/175 118/118/175 119/119/175
f 117/117/176 119/119/176 120/120/176
f 117/117/177 98/98/177 111/111/177
f 117/117/178 111/111/178 118/118/178
f 98/98/179 109/109/179 111/111/179
f 118/118/180 111/111/180 115/115/180
f 118/118/181 115/115/181 121/121/181
f 118/118/182 121/121/183 120/120/184
f 119/119/185 118/118/182 120/120/184
f 120/120/186 121/121/186 122/122/186
f 122/122/187 121/121/187 123/123/187
f 115/115/188 116/116/188 121/121/188
f 122/122/189 123/123/189 124/124/189
f 124/124/190 123/123/190 125/125/190
f 110/110/191 114/114/191 116/116/191
f 116/116/192 114/114/192 126/126/192
f 121/121/193 116/116/193 123/123/193
f 116/116/194 126/126/194 123/123/194
f 123/123/195 127/127/195 48/48/195
f 123/123/196 126/126/196 127/127/196
f 48/48/197 127/127/197 49/49/197
f 126/126/198 128/128/198 127/127/198
f 127/127/199 128/128/199 55/55/199
f 127/127/200 55/55/200 49/49/200
f 125/125/201 123/123/201 45/45/201
f 125/125/202 45/45/202 44/44/202
f 123/123/203 48/48/203 45/45/203
f 55/55/204 128/128/204 129/129/204
f 129/129/205 128/128/205 130/130/205
f 55/55/206 129/129/206 57/57/206
f 128/128/207 131/131/207 130/130/207
f 130/130/208 131/131/208 132/132/208
f 66/66/209 131/131/209 133/133/209
f 132/132/210 131/131/210 66/66/210
f 129/129/211 130/130/211 57/57/211
f 57/57/212 130/130/212 132/132/212
f 57/57/213 132/132/213 66/66/213
f 128/128/214 126/126/214 131/131/214
f 131/131/215 126/126/215 134/134/215
f 126/126/216 114/114/216 112/112/216
f 126/126/217 112/112/217 134/134/217
f 134/134/218 112/112/218 106/106/218
f 134/134/219 106/106/219 131/131/219
f 131/131/220 106/106/220 133/133/220
f 133/133/221 104/104/221 86/86/221
f 135/135/222 133/133/222 136/136/222
f 133/133/223 86/86/223 136/136/223
f 133/133/224 106/106/224 104/104/224
f 86/86/225 104/104/225 137/137/225
f 86/86/226 137/137/226 85/85/226
f 104/104/227 103/103/227 137/137/227
f 137/137/228 103/103/228 87/87/228
f 137/137/229 87/87/229 85/85/229
f 57/57/230 66/66/230 64/64/230
f 66/66/231 138/138/231 65/65/231
f 66/66/232 135/135/232 136/136/232
f 66/66/233 133/133/233 135/135/233
f 66/66/234 136/136/234 138/138/234
f 136/136/235 86/86/235 83/83/235
f 138/138/236 136/136/236 68/68/236
f 68/68/237 136/136/237 83/83/237
f 65/65/238 138/138/238 68/68/238
f 120/120/239 122/122/239 139/139/239
f 124/124/240 125/125/240 140/140/240
f 122/122/241 124/124/241 139/139/241
f 139/139/242 124/124/242 140/140/242
f 139/139/243 101/101/243 117/117/243
f 120/120/244 139/139/244 117/117/244
f 125/125/245 44/44/245 141/141/245
f 125/125/246 141/141/246 140/140/246
f 44/44/247 46/46/247 52/52/247
f 44/44/248 52/52/248 141/141/248
f 141/141/249 52/52/249 140/140/249
f 52/52/250 53/53/250 140/140/250
f 140/140/251 53/53/251 142/142/251
f 142/142/252 143/143/252 144/144/252
f 140/140/253 142/142/253 144/144/253
f 53/53/254 54/54/254 142/142/254
f 142/142/255 54/54/255 143/143/255
f 143/143/256 54/54/256 77/77/256
f 144/144/257 143/143/257 77/77/257
f 101/101/258 139/139/258 140/140/258
f 101/101/259 145/145/259 100/100/259
f 145/145/260 140/140/260 144/144/260
f 140/140/261 145/145/261 101/101/261
f 145/145/262 144/144/262 91/91/262
f 144/144/263 77/77/263 91/91/263
f 91/91/264 77/77/264 76/76/264
f 100/100/265 145/145/265 91/91/265
f 94/94/266 100/100/266 91/91/266
