# Blender v2.78 (sub 0) OBJ File: ''
# www.blender.org
mtllib SM_Env_Reeds_03.mtl
o SM_Env_Reeds_03
v 26.115479 -8.588686 22.406549
v 28.163025 -1.985549 17.479561
v 40.193115 21.440905 32.703403
v 24.454834 12.266618 17.829819
v 22.406982 5.663223 22.757286
v 8.687500 -50.494034 1.838141
v 15.755188 -50.494030 4.887649
v 9.765198 -50.494030 10.398774
v 12.276855 -50.494030 10.161121
v 37.766479 5.250458 -24.936769
v 39.846069 -7.709003 -25.127001
v 49.730347 17.580664 -33.335468
v 38.213501 -9.223540 -30.714977
v 36.134216 3.735963 -30.524567
v 14.364380 -50.494022 -23.024841
v 20.226135 -50.494022 -24.073366
v 15.204407 -50.494022 -19.183323
v 21.066406 -50.494022 -20.231930
v -19.653442 23.694706 -24.684105
v -17.843933 22.069944 -30.054073
v -30.078003 32.752522 -31.441004
v -21.708862 11.645818 -30.618259
v -23.518372 13.270500 -25.248371
v -6.010803 -50.494022 -20.321907
v -2.709351 -50.494022 -19.413363
v -7.608582 -50.494022 -13.548172
v -4.307495 -50.494022 -12.638981
v 4.841431 34.028973 20.128288
v -0.880981 33.798489 20.520004
v 3.747620 50.494030 32.744019
v -0.832947 24.521893 24.502975
v 4.889404 24.752285 24.111206
v -3.846436 -50.494030 5.254543
v -4.145386 -50.494030 1.719305
v 3.083618 -50.494030 4.104553
v 2.785339 -50.494034 0.569399
v -18.589172 12.020854 6.526318
v -22.339600 0.757018 7.584935
v -26.559692 30.863028 16.356947
v -19.963989 -1.324110 12.848941
v -16.213806 9.939894 11.790283
v -1.454102 -50.494030 4.014473
v -7.595703 -50.494030 6.285868
v -2.973328 -50.494030 0.389547
v -9.115295 -50.494030 2.661024
v 3.406311 -13.806314 -19.841715
v -1.702026 -9.119789 -21.369274
v 0.948242 4.640513 -42.045433
v 0.994507 5.900615 -21.133018
v 6.792542 -1.899769 -21.159382
v 3.815552 -50.494030 -7.657992
v -2.791565 -50.494030 -5.526363
v 2.214844 -50.494030 -9.524787
v -4.789185 -50.494030 -9.273175
v -4.686035 -9.129722 38.835373
v -0.471313 -13.105075 43.081570
v -7.423584 -5.503983 50.369736
v 4.045410 -9.552943 38.544670
v -0.169617 -5.576864 34.298141
v 5.285950 -50.494030 7.881457
v 10.445984 -50.494038 15.497054
v 1.514099 -50.494041 14.216937
v 3.931396 -50.494038 17.203663
v -37.656006 -30.200214 -3.346437
v -37.230469 -31.138783 3.762409
v -49.730347 -24.486023 -2.117245
v -32.578186 -25.710979 2.182072
v -33.003967 -24.771994 -4.927493
v -13.220764 -50.494030 -1.172560
v -16.265015 -50.494030 7.003133
v -20.100037 -50.494034 0.517105
v -21.081726 -50.494030 3.972987
v -11.604675 -8.588686 24.123146
v -6.295593 -1.985550 24.653763
v -17.375916 21.440905 40.582172
v -7.706238 12.266617 21.206554
v -13.015930 5.663224 20.675850
v 3.024963 -50.494034 1.478805
v 2.156433 -50.494030 9.127237
v -4.855103 -50.494030 4.993067
v -3.899231 -50.494030 7.327792
v 21.327454 5.250449 6.883217
v 22.782227 -7.709014 8.381375
v 35.378845 17.580648 10.912013
v 26.103210 -9.223554 3.599935
v 24.648438 3.735954 2.102149
v 5.134216 -50.494030 -10.119545
v 9.633362 -50.494030 -6.218676
v 2.673828 -50.494030 -7.052040
v 7.173218 -50.494030 -3.151007
v -36.105835 -9.129704 -12.260883
v -38.947144 -13.105060 -6.995770
v -47.938354 -5.503965 -11.535397
v -33.295227 -9.552928 -3.989019
v -30.453796 -5.576853 -9.254531
v -3.590271 -50.494030 -11.695062
v -9.381897 -50.494030 -4.548080
v -10.747437 -50.494026 -13.467348
v -12.904602 -50.494030 -10.287710
v 10.310791 -30.200203 -39.170902
v 3.630920 -31.138771 -36.701809
v 5.632507 -24.486008 -50.369740
v 6.492615 -25.710968 -32.707859
v 13.173096 -24.771982 -35.177334
v 15.317261 -50.494022 -15.155497
v 6.610107 -50.494022 -15.697609
v 11.705078 -50.494026 -21.248999
v 8.112976 -50.494022 -21.186203
vt 0.9656 0.4562
vt 0.9656 0.4562
vt 0.9656 0.4562
vt 0.9656 0.4562
vt 0.9656 0.4562
vt 0.9656 0.4562
vt 0.9656 0.4562
vt 0.9656 0.4562
vt 0.9656 0.4562
vt 0.9656 0.4562
vt 0.9656 0.4562
vt 0.9656 0.4562
vt 0.9656 0.4562
vt 0.9656 0.4562
vt 0.9656 0.4562
vt 0.9656 0.4562
vt 0.9656 0.4562
vt 0.9656 0.4562
vt 0.9656 0.4562
vt 0.9656 0.4562
vt 0.9656 0.4562
vt 0.9656 0.4562
vt 0.9656 0.4562
vt 0.9656 0.4562
vt 0.9656 0.4562
vt 0.9656 0.4562
vt 0.9656 0.4562
vt 0.9656 0.4562
vt 0.9656 0.4562
vt 0.9656 0.4562
vt 0.9656 0.4562
vt 0.9656 0.4562
vt 0.9656 0.4562
vt 0.9656 0.4562
vt 0.9656 0.4562
vt 0.9656 0.4562
vt 0.9656 0.4562
vt 0.9656 0.4562
vt 0.9656 0.4562
vt 0.9656 0.4562
vt 0.9656 0.4562
vt 0.9656 0.4562
vt 0.9656 0.4562
vt 0.9656 0.4562
vt 0.9656 0.4562
vt 0.9656 0.4562
vt 0.9656 0.4562
vt 0.9656 0.4562
vt 0.9656 0.4562
vt 0.9656 0.4562
vt 0.9656 0.4562
vt 0.9656 0.4562
vt 0.9656 0.4562
vt 0.9656 0.4562
vt 0.9656 0.4562
vt 0.9656 0.4562
vt 0.9656 0.4562
vt 0.9656 0.4562
vt 0.9656 0.4562
vt 0.9656 0.4562
vt 0.9656 0.4562
vt 0.9656 0.4562
vt 0.9656 0.4562
vt 0.9656 0.4562
vt 0.9656 0.4562
vt 0.9656 0.4562
vt 0.9656 0.4562
vt 0.9656 0.4562
vt 0.9656 0.4562
vt 0.9656 0.4562
vt 0.9656 0.4562
vt 0.9656 0.4562
vt 0.9656 0.4562
vt 0.9656 0.4562
vt 0.9656 0.4562
vt 0.9656 0.4562
vt 0.9656 0.4562
vt 0.9656 0.4562
vt 0.9656 0.4562
vt 0.9656 0.4562
vt 0.9656 0.4562
vt 0.9656 0.4562
vt 0.9656 0.4562
vt 0.9656 0.4562
vt 0.9656 0.4562
vt 0.9656 0.4562
vt 0.9656 0.4562
vt 0.9656 0.4562
vt 0.9656 0.4562
vt 0.9656 0.4562
vt 0.9656 0.4562
vt 0.9656 0.4562
vt 0.9656 0.4562
vt 0.9656 0.4562
vt 0.9656 0.4562
vt 0.9656 0.4562
vt 0.9656 0.4562
vt 0.9656 0.4562
vt 0.9656 0.4562
vt 0.9656 0.4562
vt 0.9656 0.4562
vt 0.9656 0.4562
vt 0.9656 0.4562
vt 0.9656 0.4562
vt 0.9656 0.4562
vt 0.9656 0.4562
vt 0.9656 0.4562
vt 0.9656 0.4562
vn 0.9588 -0.2760 0.0678
vn 0.9589 -0.2752 0.0691
vn 0.8585 -0.4499 -0.2461
vn -0.1753 0.6231 0.7622
vn -0.9510 0.3082 -0.0238
vn -0.9503 0.3106 -0.0203
vn -0.6580 -0.1530 -0.7373
vn -0.6581 -0.1530 -0.7372
vn 0.5304 0.1585 -0.8328
vn 0.5261 0.1574 -0.8358
vn 0.6031 0.1760 -0.7780
vn -0.3031 -0.1022 0.9475
vn -0.2943 -0.0999 0.9505
vn -0.1449 -0.0620 0.9875
vn 0.9615 -0.2568 0.0982
vn 0.5121 0.1540 -0.8450
vn -0.9615 0.2568 -0.0982
vn -0.9615 0.2568 -0.0983
vn -0.3287 -0.1086 0.9382
vn 0.2260 0.0165 0.9740
vn 0.2251 0.0163 0.9742
vn 0.5227 0.0714 0.8495
vn -0.1872 -0.0156 -0.9822
vn -0.1730 -0.0078 -0.9849
vn -0.1731 -0.0079 -0.9849
vn -0.8928 -0.2948 0.3407
vn -0.8927 -0.2948 0.3407
vn 0.9077 -0.3880 -0.1600
vn 0.9075 -0.3883 -0.1599
vn 0.9022 -0.4027 -0.1544
vn -0.8315 0.5474 0.0946
vn -0.8334 0.5443 0.0959
vn -0.7116 0.7024 0.0175
vn 0.1707 0.0065 0.9853
vn 0.9090 -0.3842 -0.1614
vn 0.9090 -0.3843 -0.1614
vn -0.1707 -0.0065 -0.9853
vn -0.8519 0.5120 0.1101
vn -0.8519 0.5119 0.1102
vn 0.9378 0.2806 0.2042
vn 0.9384 0.2781 0.2051
vn 0.6581 0.7529 -0.0060
vn -0.9091 -0.3681 -0.1950
vn -0.9433 -0.2524 -0.2154
vn -0.9431 -0.2533 -0.2152
vn 0.9343 -0.3500 0.0682
vn 0.9343 -0.3500 0.0683
vn 0.2218 -0.0295 -0.9746
vn 0.2167 -0.0275 -0.9759
vn 0.1205 0.0091 -0.9927
vn -0.3732 0.0884 0.9235
vn -0.3685 0.0865 0.9256
vn -0.4618 0.1237 0.8783
vn 0.9458 0.2417 0.2170
vn 0.2373 -0.0354 -0.9708
vn -0.9458 -0.2417 -0.2171
vn -0.3556 0.0814 0.9311
vn -0.0992 0.2488 -0.9635
vn -0.0993 0.2468 -0.9640
vn -0.0786 0.6030 -0.7938
vn 0.0774 -0.3139 0.9463
vn 0.0983 -0.2263 0.9691
vn 0.0982 -0.2270 0.9689
vn -0.4341 -0.3573 -0.8270
vn -0.9863 0.0607 0.1533
vn -0.9856 0.0625 0.1574
vn -0.9672 0.0960 0.2352
vn 0.9996 -0.0063 -0.0268
vn 0.9995 -0.0081 -0.0309
vn 0.9983 0.0271 0.0512
vn -0.1003 0.2179 -0.9708
vn -0.9885 0.0552 0.1405
vn -0.9885 0.0552 0.1406
vn 0.1003 -0.2179 0.9708
vn 0.1002 -0.2179 0.9708
vn 0.9990 -0.0128 -0.0419
vn -0.3878 0.0362 -0.9210
vn -0.3871 0.0360 -0.9214
vn -0.6256 0.1361 -0.7681
vn 0.3529 -0.0296 0.9352
vn 0.3441 -0.0201 0.9387
vn 0.7133 -0.4793 -0.5114
vn 0.7132 -0.4793 -0.5114
vn -0.9195 -0.2115 0.3313
vn -0.9195 -0.2118 0.3312
vn -0.9185 -0.2238 0.3260
vn 0.8998 0.3419 -0.2709
vn 0.9004 0.3394 -0.2722
vn 0.8596 0.4692 -0.2024
vn -0.3426 0.0185 -0.9393
vn -0.9197 -0.2083 0.3327
vn 0.3426 -0.0184 0.9393
vn 0.9059 0.3132 -0.2850
vn -0.5741 -0.4436 -0.6882
vn -0.5730 -0.4429 -0.6895
vn -0.7704 -0.5597 -0.3055
vn 0.6687 0.4886 -0.5604
vn 0.6104 0.4719 0.6362
vn 0.6131 0.4739 0.6321
vn -0.1988 0.0219 0.9798
vn -0.1987 0.0219 0.9798
vn -0.9641 0.1838 -0.1919
vn -0.9652 0.1839 -0.1861
vn -0.9403 0.1809 -0.2884
vn 0.9771 -0.1815 -0.1107
vn 0.9759 -0.1810 -0.1223
vn 0.9336 -0.1701 -0.3155
vn -0.5479 -0.4269 -0.7194
vn -0.5479 -0.4270 -0.7194
vn -0.9685 0.1842 -0.1675
vn 0.5479 0.4270 0.7194
vn 0.9802 -0.1826 -0.0767
vn -0.8249 -0.4377 0.3577
vn -0.8250 -0.4366 0.3587
vn -0.7120 -0.7003 0.0511
vn -0.0156 0.7222 0.6915
vn 0.8208 0.4791 -0.3112
vn 0.8202 0.4822 -0.3077
vn 0.7713 -0.1617 -0.6156
vn 0.7712 -0.1617 -0.6157
vn 0.5741 -0.3403 0.7447
vn 0.5786 -0.3412 0.7408
vn 0.4934 -0.3231 0.8075
vn -0.7766 0.3694 -0.5104
vn -0.7829 0.3699 -0.5003
vn -0.8716 0.3690 -0.3228
vn -0.8279 -0.4106 0.3821
vn 0.5932 -0.3440 0.7279
vn 0.8280 0.4106 -0.3820
vn 0.8279 0.4106 -0.3820
vn -0.7575 0.3679 -0.5392
vn -0.5639 -0.8191 -0.1050
vn -0.5651 -0.8183 -0.1049
vn -0.1759 -0.9773 -0.1185
vn -0.7921 0.5972 0.1263
vn 0.5115 0.8516 0.1147
vn 0.5074 0.8540 0.1152
vn 0.9437 0.2888 0.1616
vn 0.9437 0.2888 0.1615
vn -0.1402 0.0408 0.9893
vn -0.1344 0.0425 0.9900
vn -0.2378 0.0108 0.9712
vn -0.1585 -0.1271 -0.9791
vn -0.1697 -0.1302 -0.9769
vn -0.3530 -0.1788 -0.9184
vn -0.5937 -0.7981 -0.1029
vn -0.1157 0.0481 0.9921
vn 0.5937 0.7981 0.1029
vn -0.1256 -0.1180 -0.9850
vn 0.2131 -0.2760 0.9372
vn 0.2120 -0.2752 0.9377
vn 0.4845 -0.4499 0.7502
vn -0.7803 0.6231 0.0533
vn -0.2530 0.3082 -0.9171
vn -0.2562 0.3106 -0.9154
vn 0.5148 -0.1530 -0.8436
vn 0.5147 -0.1530 -0.8436
vn 0.9508 0.1585 0.2661
vn 0.9524 0.1574 0.2611
vn 0.9195 0.1760 0.3515
vn -0.9946 -0.1022 -0.0153
vn -0.9950 -0.0999 -0.0060
vn -0.9871 -0.0620 0.1477
vn 0.1848 -0.2568 0.9486
vn 0.9572 0.1540 0.2450
vn -0.1848 0.2568 -0.9486
vn -0.9932 -0.1086 -0.0425
vn -0.8666 0.0165 0.4988
vn -0.8670 0.0163 0.4980
vn -0.6614 0.0715 0.7466
vn 0.8857 -0.0156 -0.4639
vn 0.8924 -0.0079 -0.4513
vn 0.8923 -0.0079 -0.4513
vn -0.5850 -0.2948 -0.7556
vn -0.5850 -0.2948 -0.7555
vn 0.4164 -0.3880 0.8222
vn 0.4162 -0.3883 0.8222
vn 0.4095 -0.4027 0.8186
vn -0.3317 0.5474 -0.7683
vn -0.3335 0.5444 -0.7697
vn -0.2231 0.7024 -0.6759
vn -0.8935 0.0065 0.4491
vn 0.4181 -0.3842 0.8231
vn 0.8935 -0.0065 -0.4491
vn -0.3525 0.5120 -0.7833
vn -0.3525 0.5120 -0.7834
vn -0.5816 -0.4377 -0.6857
vn -0.5826 -0.4366 -0.6855
vn -0.2555 -0.7003 -0.6666
vn -0.6663 0.7222 0.1856
vn 0.5358 0.4791 0.6952
vn 0.5324 0.4822 0.6957
vn 0.8129 -0.1617 0.5596
vn 0.8129 -0.1617 0.5594
vn 0.8129 -0.1617 0.5595
vn -0.5462 -0.3403 0.7654
vn -0.5411 -0.3412 0.7686
vn -0.6297 -0.3231 0.7064
vn 0.2632 0.3694 -0.8912
vn 0.2518 0.3699 -0.8943
vn 0.0561 0.3690 -0.9277
vn -0.6057 -0.4106 -0.6816
vn -0.5246 -0.3440 0.7788
vn -0.5245 -0.3440 0.7788
vn 0.6057 0.4106 0.6816
vn 0.6057 0.4106 0.6815
vn 0.2964 0.3680 -0.8813
vn 0.2963 0.3679 -0.8814
vn -0.0631 -0.8191 -0.5701
vn -0.0635 -0.8183 -0.5713
vn 0.0624 -0.9773 -0.2027
vn -0.3506 0.5972 -0.7214
vn 0.0386 0.8516 0.5228
vn 0.0369 0.8540 0.5190
vn 0.1191 0.2888 0.9500
vn 0.1190 0.2888 0.9500
vn -0.9874 0.0408 0.1527
vn -0.9864 0.0425 0.1585
vn -0.9985 0.0108 0.0541
vn 0.8911 -0.1271 -0.4356
vn 0.8857 -0.1302 -0.4457
vn 0.7765 -0.1788 -0.6042
vn -0.0737 -0.7981 -0.5980
vn -0.9830 0.0481 0.1770
vn 0.0737 0.7981 0.5980
vn 0.9063 -0.1180 -0.4059
usemtl None
s 1
f 1/1/1 2/2/2 3/3/3
f 3/3/4 4/4/5 5/5/6
f 6/6/7 7/7/7 8/8/8
f 8/8/8 7/7/7 9/9/7
f 2/2/9 4/4/10 3/3/11
f 5/5/12 1/1/13 3/3/14
f 9/9/15 7/7/15 1/1/1
f 1/1/1 7/7/15 2/2/2
f 7/7/16 6/6/16 2/2/9
f 2/2/9 6/6/16 4/4/10
f 4/4/5 6/6/17 5/5/6
f 5/5/6 6/6/17 8/8/18
f 9/9/19 1/1/13 8/8/19
f 8/8/19 1/1/13 5/5/12
f 10/10/20 11/11/21 12/12/22
f 12/12/23 13/13/24 14/14/25
f 15/15/26 16/16/26 17/17/26
f 17/17/26 16/16/26 18/18/27
f 11/11/28 13/13/29 12/12/30
f 14/14/31 10/10/32 12/12/33
f 18/18/34 11/11/21 17/17/34
f 17/17/34 11/11/21 10/10/20
f 16/16/35 13/13/29 18/18/36
f 18/18/36 13/13/29 11/11/28
f 14/14/25 13/13/24 15/15/37
f 15/15/37 13/13/24 16/16/37
f 15/15/38 17/17/39 14/14/31
f 14/14/31 17/17/39 10/10/32
f 19/19/40 20/20/41 21/21/42
f 21/21/43 22/22/44 23/23/45
f 24/24/46 25/25/47 26/26/46
f 26/26/46 25/25/47 27/27/47
f 20/20/48 22/22/49 21/21/50
f 23/23/51 19/19/52 21/21/53
f 25/25/54 20/20/41 27/27/54
f 27/27/54 20/20/41 19/19/40
f 24/24/55 22/22/49 25/25/55
f 25/25/55 22/22/49 20/20/48
f 23/23/45 22/22/44 26/26/56
f 26/26/56 22/22/44 24/24/56
f 26/26/57 27/27/57 23/23/51
f 23/23/51 27/27/57 19/19/52
f 28/28/58 29/29/59 30/30/60
f 30/30/61 31/31/62 32/32/63
f 33/33/64 34/34/64 35/35/64
f 35/35/64 34/34/64 36/36/64
f 29/29/65 31/31/66 30/30/67
f 32/32/68 28/28/69 30/30/70
f 34/34/71 29/29/59 36/36/71
f 36/36/71 29/29/59 28/28/58
f 33/33/72 31/31/66 34/34/73
f 34/34/73 31/31/66 29/29/65
f 32/32/63 31/31/62 35/35/74
f 35/35/74 31/31/62 33/33/75
f 35/35/76 36/36/76 32/32/68
f 32/32/68 36/36/76 28/28/69
f 37/37/77 38/38/78 39/39/79
f 39/39/80 40/40/81 41/41/81
f 42/42/82 43/43/82 44/44/83
f 44/44/83 43/43/82 45/45/82
f 38/38/84 40/40/85 39/39/86
f 41/41/87 37/37/88 39/39/89
f 45/45/90 38/38/78 44/44/90
f 44/44/90 38/38/78 37/37/77
f 43/43/91 40/40/85 45/45/91
f 45/45/91 40/40/85 38/38/84
f 41/41/81 40/40/81 42/42/92
f 42/42/92 40/40/81 43/43/92
f 42/42/93 44/44/93 41/41/87
f 41/41/87 44/44/93 37/37/88
f 46/46/94 47/47/95 48/48/96
f 48/48/97 49/49/98 50/50/99
f 51/51/100 52/52/101 53/53/101
f 53/53/101 52/52/101 54/54/100
f 47/47/102 49/49/103 48/48/104
f 50/50/105 46/46/106 48/48/107
f 53/53/108 54/54/109 46/46/94
f 46/46/94 54/54/109 47/47/95
f 54/54/110 52/52/110 47/47/102
f 47/47/102 52/52/110 49/49/103
f 49/49/98 52/52/111 50/50/99
f 50/50/99 52/52/111 51/51/111
f 53/53/112 46/46/106 51/51/112
f 51/51/112 46/46/106 50/50/105
f 55/55/113 56/56/114 57/57/115
f 57/57/116 58/58/117 59/59/118
f 60/60/119 61/61/120 62/62/120
f 62/62/120 61/61/120 63/63/120
f 56/56/121 58/58/122 57/57/123
f 59/59/124 55/55/125 57/57/126
f 63/63/127 56/56/114 62/62/127
f 62/62/127 56/56/114 55/55/113
f 61/61/128 58/58/122 63/63/128
f 63/63/128 58/58/122 56/56/121
f 58/58/117 61/61/129 59/59/118
f 59/59/118 61/61/129 60/60/130
f 60/60/131 62/62/131 59/59/124
f 59/59/124 62/62/131 55/55/125
f 64/64/132 65/65/133 66/66/134
f 66/66/135 67/67/136 68/68/137
f 69/69/138 70/70/139 71/71/139
f 71/71/139 70/70/139 72/72/139
f 65/65/140 67/67/141 66/66/142
f 68/68/143 64/64/144 66/66/145
f 72/72/146 65/65/133 71/71/146
f 71/71/146 65/65/133 64/64/132
f 70/70/147 67/67/141 72/72/147
f 72/72/147 67/67/141 65/65/140
f 68/68/137 67/67/136 69/69/148
f 69/69/148 67/67/136 70/70/148
f 69/69/149 71/71/149 68/68/143
f 68/68/143 71/71/149 64/64/144
f 73/73/150 74/74/151 75/75/152
f 75/75/153 76/76/154 77/77/155
f 78/78/156 79/79/156 80/80/157
f 80/80/157 79/79/156 81/81/156
f 74/74/158 76/76/159 75/75/160
f 77/77/161 73/73/162 75/75/163
f 81/81/164 79/79/164 73/73/150
f 73/73/150 79/79/164 74/74/151
f 79/79/165 78/78/165 74/74/158
f 74/74/158 78/78/165 76/76/159
f 76/76/154 78/78/166 77/77/155
f 77/77/155 78/78/166 80/80/166
f 81/81/167 73/73/162 80/80/167
f 80/80/167 73/73/162 77/77/161
f 82/82/168 83/83/169 84/84/170
f 84/84/171 85/85/172 86/86/173
f 87/87/174 88/88/174 89/89/175
f 89/89/175 88/88/174 90/90/174
f 83/83/176 85/85/177 84/84/178
f 86/86/179 82/82/180 84/84/181
f 90/90/182 83/83/169 89/89/182
f 89/89/182 83/83/169 82/82/168
f 88/88/183 85/85/177 90/90/183
f 90/90/183 85/85/177 83/83/176
f 86/86/173 85/85/172 87/87/184
f 87/87/184 85/85/172 88/88/184
f 87/87/185 89/89/186 86/86/179
f 86/86/179 89/89/186 82/82/180
f 91/91/187 92/92/188 93/93/189
f 93/93/190 94/94/191 95/95/192
f 96/96/193 97/97/194 98/98/195
f 98/98/195 97/97/194 99/99/195
f 92/92/196 94/94/197 93/93/198
f 95/95/199 91/91/200 93/93/201
f 99/99/202 92/92/188 98/98/202
f 98/98/202 92/92/188 91/91/187
f 97/97/203 94/94/197 99/99/204
f 99/99/204 94/94/197 92/92/196
f 94/94/191 97/97/205 95/95/192
f 95/95/192 97/97/205 96/96/206
f 96/96/207 98/98/208 95/95/199
f 95/95/199 98/98/208 91/91/200
f 100/100/209 101/101/210 102/102/211
f 102/102/212 103/103/213 104/104/214
f 105/105/215 106/106/216 107/107/215
f 107/107/215 106/106/216 108/108/215
f 101/101/217 103/103/218 102/102/219
f 104/104/220 100/100/221 102/102/222
f 108/108/223 101/101/210 107/107/223
f 107/107/223 101/101/210 100/100/209
f 106/106/224 103/103/218 108/108/224
f 108/108/224 103/103/218 101/101/217
f 104/104/214 103/103/213 105/105/225
f 105/105/225 103/103/213 106/106/225
f 105/105/226 107/107/226 104/104/220
f 104/104/220 107/107/226 100/100/221
