# Blender v2.78 (sub 0) OBJ File: ''
# www.blender.org
mtllib SM_Env_Rock_01.mtl
o SM_Env_Rock_01
v 16.482422 0.000001 -7.787628
v 14.633789 7.886819 -6.708587
v 14.196777 -0.000001 8.215363
v 12.348145 7.886817 7.056092
v -3.444824 12.035278 14.190554
v -0.954102 9.887444 -12.496488
v -6.598633 12.438509 -9.973539
v -15.926270 6.783803 -9.440154
v -16.481934 0.000001 -8.220337
v -13.937256 6.783800 5.114961
v -14.493164 -0.000001 8.084778
v -4.101318 -0.000003 16.296509
v -6.599609 0.000002 -15.672638
v -1.889893 0.000002 -14.455719
v 0.520508 4.927487 -16.296629
v -6.043701 6.976331 -14.069793
v 10.416016 10.963715 5.964113
v 12.159180 11.040809 -4.931425
v 6.785645 10.449970 9.472353
v 9.595215 12.035282 -10.211576
v 11.253418 0.000002 -12.317535
v 12.019043 4.927487 -14.287108
v 8.968018 -0.000002 12.745331
v 7.723633 4.386656 11.062226
v -12.028809 12.035280 6.834505
v -14.451660 11.797089 -8.054564
v -3.585938 4.386656 14.693727
vt 0.9431 0.5022
vt 0.9431 0.5022
vt 0.9431 0.5022
vt 0.9431 0.5022
vt 0.9431 0.5022
vt 0.9431 0.5022
vt 0.9431 0.5022
vt 0.9431 0.5022
vt 0.9431 0.5022
vt 0.9431 0.5022
vt 0.9431 0.5022
vt 0.9431 0.5022
vt 0.9431 0.5022
vt 0.9431 0.5022
vt 0.9431 0.5022
vt 0.9431 0.5022
vt 0.9431 0.5022
vt 0.9431 0.5022
vt 0.9431 0.5022
vt 0.9431 0.5022
vt 0.9431 0.5022
vt 0.9431 0.5022
vt 0.9431 0.5022
vt 0.9431 0.5022
vt 0.9431 0.5022
vt 0.9431 0.5022
vt 0.9431 0.5022
vn 0.9683 0.2080 0.1383
vn 0.9558 0.2474 0.1587
vn 0.3979 0.9167 -0.0366
vn -0.9853 0.1049 0.1346
vn -0.9838 0.1332 0.1200
vn 0.0000 -1.0000 -0.0000
vn -0.3627 -0.1652 -0.9171
vn 0.2452 0.1985 -0.9489
vn -0.1573 0.9874 -0.0182
vn 0.1682 0.9804 0.1030
vn 0.6071 -0.3745 -0.7008
vn 0.8767 0.2608 -0.4043
vn 0.5237 0.2428 0.8166
vn 0.5913 0.4296 0.6825
vn -0.4161 0.2350 -0.8784
vn -0.5994 -0.0938 -0.7949
vn -0.0161 0.9997 0.0188
vn -0.0820 0.9966 -0.0026
vn -0.5834 0.3383 0.7383
vn -0.5854 0.3649 0.7240
vn -0.2094 0.9766 0.0488
vn 0.1219 0.9902 -0.0683
vn 0.1587 -0.3876 -0.9081
vn 0.1466 -0.4083 -0.9010
vn 0.2786 0.4119 0.8676
vn 0.2496 0.3063 0.9186
vn 0.1461 0.5291 -0.8359
vn 0.0449 0.6160 -0.7865
vn 0.7329 0.5089 -0.4516
vn 0.7056 0.6750 -0.2155
vn 0.8151 0.5633 0.1354
vn 0.8165 0.5614 0.1348
vn 0.8155 0.5627 0.1352
vn 0.8169 0.5608 0.1347
vn 0.4909 0.2912 0.8211
vn 0.5334 0.5600 0.6340
vn 0.4248 0.0516 0.9038
vn 0.2931 0.2847 0.9127
vn -0.6784 0.0060 0.7346
vn -0.6495 0.0618 0.7579
vn -0.9440 0.2943 0.1489
vn -0.9603 0.2462 0.1312
vn -0.3672 0.5339 -0.7617
vn -0.2495 0.3255 -0.9121
vn -0.0886 0.5891 -0.8032
vn -0.0897 0.5904 -0.8021
vn -0.0896 0.5903 -0.8022
vn -0.0907 0.5916 -0.8011
usemtl None
s 1
f 1/1/1 2/2/1 3/3/1
f 3/3/2 2/2/2 4/4/2
f 5/5/3 6/6/3 7/7/3
f 8/8/4 9/9/4 10/10/4
f 10/10/5 9/9/5 11/11/5
f 12/12/6 13/13/6 14/14/6
f 15/15/7 14/14/7 16/16/7
f 16/16/8 14/14/8 13/13/8
f 17/17/9 18/18/9 19/19/9
f 19/19/10 18/18/10 20/20/10
f 21/21/11 22/22/11 1/1/11
f 1/1/12 22/22/12 2/2/12
f 23/23/6 21/21/6 3/3/6
f 3/3/6 21/21/6 1/1/6
f 4/4/13 24/24/13 3/3/13
f 3/3/14 24/24/14 23/23/14
f 16/16/15 13/13/15 8/8/15
f 8/8/16 13/13/16 9/9/16
f 5/5/17 7/7/17 25/25/17
f 25/25/18 7/7/18 26/26/18
f 12/12/19 27/27/19 11/11/19
f 11/11/20 27/27/20 10/10/20
f 9/9/6 13/13/6 11/11/6
f 11/11/6 13/13/6 12/12/6
f 20/20/21 6/6/21 19/19/21
f 19/19/22 6/6/22 5/5/22
f 22/22/23 21/21/23 15/15/23
f 15/15/24 21/21/24 14/14/24
f 12/12/6 14/14/6 23/23/6
f 23/23/6 14/14/6 21/21/6
f 24/24/25 27/27/25 23/23/25
f 23/23/26 27/27/26 12/12/26
f 22/22/27 15/15/27 20/20/27
f 20/20/28 15/15/28 6/6/28
f 22/22/29 20/20/29 2/2/29
f 2/2/30 20/20/30 18/18/30
f 2/2/31 18/18/32 4/4/33
f 4/4/33 18/18/32 17/17/34
f 24/24/35 4/4/35 19/19/35
f 19/19/36 4/4/36 17/17/36
f 5/5/37 27/27/37 19/19/37
f 19/19/38 27/27/38 24/24/38
f 10/10/39 27/27/39 25/25/39
f 25/25/40 27/27/40 5/5/40
f 25/25/41 26/26/41 10/10/41
f 10/10/42 26/26/42 8/8/42
f 16/16/43 8/8/43 7/7/43
f 7/7/44 8/8/44 26/26/44
f 15/15/45 16/16/46 6/6/47
f 6/6/47 16/16/46 7/7/48
