# Blender v2.78 (sub 0) OBJ File: ''
# www.blender.org
mtllib SM_Env_GroundMounds_02.mtl
o SM_Env_GroundMounds_02
v -80.408203 -0.000031 189.368164
v -82.887695 27.192125 115.892830
v -138.811523 -0.000029 171.115723
v -142.816406 21.271107 104.473885
v -220.228516 -0.000017 101.300781
v 23.627930 -0.000038 238.934814
v 25.318359 25.913216 155.292969
v -27.288086 -0.000034 214.132568
v -27.925781 26.346973 134.166260
v 73.844727 -0.000040 250.758057
v 160.870117 -0.000038 236.391846
v 85.753906 23.435444 176.479980
v 157.788086 16.272514 183.961426
v 217.250000 -0.000031 188.794678
v -153.786133 31.253408 49.350590
v -235.396484 -0.000008 48.520752
v -92.871094 53.705193 56.322273
v -103.875977 47.973854 4.727303
v -165.398438 29.920263 0.236821
v -247.882812 0.000004 -1.790527
v -36.492188 49.809177 68.337654
v 18.341797 45.618851 83.300056
v 5.483398 51.905590 25.892586
v -48.870117 54.254105 14.509286
v 83.143555 45.056320 101.988777
v 169.792969 25.170132 122.237556
v 150.686523 27.146950 54.852543
v 66.518555 46.253662 37.764900
v 251.896484 -0.000023 138.912842
v 239.698242 -0.000013 76.247803
v -171.440430 27.477625 -48.284908
v -251.895508 0.000008 -51.244873
v -112.526367 42.956772 -44.073723
v -116.723633 40.596161 -93.900627
v -171.646484 21.407593 -98.068108
v -246.690430 0.000017 -99.883789
v -59.800781 56.946236 -34.538078
v -6.514648 52.736164 -22.699211
v -17.595703 48.853603 -68.647697
v -66.410156 56.485184 -85.453598
v 49.327148 43.370659 -11.862785
v 122.747070 32.904739 1.012700
v 97.542969 40.698997 -44.052971
v 35.163086 42.157097 -53.208000
v 212.802734 -0.000002 11.296875
v 178.835938 0.000010 -38.448486
v -234.288086 0.000023 -142.951416
v -166.560547 12.030340 -144.284912
v -116.574219 19.321205 -143.646240
v -164.077148 1.233442 -192.024902
v -114.251953 3.524027 -191.019287
v -212.602539 0.000032 -196.079834
v -71.198242 27.520367 -134.380615
v -25.655273 27.290789 -116.802971
v -29.994141 7.478540 -168.041992
v -72.465820 5.409105 -185.653564
v 23.164062 24.042871 -95.767326
v 81.274414 23.591770 -88.063225
v 18.598633 8.960487 -150.488770
v 75.488281 8.430426 -141.335449
v 150.114258 0.000013 -86.130127
v 138.338867 0.000023 -141.254150
v -177.917969 0.000040 -246.445557
v -114.656250 0.000040 -250.758545
v -70.072266 0.000040 -243.867920
v -28.400391 0.000038 -230.837158
v 18.750000 0.000034 -212.822021
v 73.125977 0.000031 -190.737061
vt 0.9678 0.4518
vt 0.9678 0.4518
vt 0.9678 0.4518
vt 0.9678 0.4518
vt 0.9678 0.4518
vt 0.9678 0.4518
vt 0.9678 0.4518
vt 0.9678 0.4518
vt 0.9678 0.4518
vt 0.9678 0.4518
vt 0.9678 0.4518
vt 0.9678 0.4518
vt 0.9678 0.4518
vt 0.9678 0.4518
vt 0.9678 0.4518
vt 0.9678 0.4518
vt 0.9678 0.4518
vt 0.9678 0.4518
vt 0.9678 0.4518
vt 0.9678 0.4518
vt 0.9678 0.4518
vt 0.9678 0.4518
vt 0.9678 0.4518
vt 0.9678 0.4518
vt 0.9678 0.4518
vt 0.9678 0.4518
vt 0.9678 0.4518
vt 0.9678 0.4518
vt 0.9678 0.4518
vt 0.9678 0.4518
vt 0.9678 0.4518
vt 0.9678 0.4518
vt 0.9678 0.4518
vt 0.9678 0.4518
vt 0.9678 0.4518
vt 0.9678 0.4518
vt 0.9678 0.4518
vt 0.9678 0.4518
vt 0.9678 0.4518
vt 0.9678 0.4518
vt 0.9678 0.4518
vt 0.9678 0.4518
vt 0.9678 0.4518
vt 0.9678 0.4518
vt 0.9678 0.4518
vt 0.9678 0.4518
vt 0.9678 0.4518
vt 0.9678 0.4518
vt 0.9678 0.4518
vt 0.9678 0.4518
vt 0.9678 0.4518
vt 0.9678 0.4518
vt 0.9678 0.4518
vt 0.9678 0.4518
vt 0.9678 0.4518
vt 0.9678 0.4518
vt 0.9678 0.4518
vt 0.9678 0.4518
vt 0.9678 0.4518
vt 0.9678 0.4518
vt 0.9678 0.4518
vt 0.9678 0.4518
vt 0.9678 0.4518
vt 0.9678 0.4518
vt 0.9678 0.4518
vt 0.9678 0.4518
vt 0.9678 0.4518
vt 0.9678 0.4518
vn -0.1088 0.9311 0.3482
vn -0.1516 0.9390 0.3088
vn -0.2638 0.9142 0.3077
vn -0.1414 0.9464 0.2904
vn -0.1160 0.9431 0.3117
vn -0.1448 0.9394 0.3107
vn -0.1015 0.9319 0.3483
vn -0.1010 0.9324 0.3470
vn 0.0508 0.9501 0.3079
vn 0.0645 0.9541 0.2923
vn -0.0683 0.9545 0.2902
vn -0.0677 0.9544 0.2908
vn -0.0644 0.9537 0.2938
vn -0.0640 0.9536 0.2941
vn 0.2328 0.9326 0.2758
vn -0.2668 0.9376 0.2229
vn -0.3567 0.9286 0.1025
vn -0.1687 0.8897 0.4243
vn -0.3597 0.9030 0.2351
vn -0.3425 0.9390 -0.0313
vn -0.2841 0.9579 0.0412
vn -0.3575 0.9320 0.0592
vn -0.3416 0.9360 0.0848
vn -0.1006 0.9330 0.3456
vn -0.0243 0.9118 0.4099
vn -0.1000 0.9572 0.2717
vn -0.0203 0.9409 0.3380
vn 0.0493 0.9940 0.0978
vn 0.0271 0.9967 0.0761
vn 0.0539 0.9961 0.0698
vn -0.0973 0.9912 -0.0894
vn -0.0589 0.9581 0.2802
vn -0.0694 0.9605 0.2696
vn 0.0815 0.9841 0.1577
vn 0.1549 0.9502 0.2704
vn 0.2318 0.9721 -0.0372
vn 0.2294 0.9725 -0.0408
vn 0.2315 0.9721 -0.0376
vn 0.2291 0.9725 -0.0412
vn 0.0036 0.9998 0.0177
vn 0.0740 0.9930 0.0922
vn 0.2454 0.9516 0.1849
vn 0.2463 0.9515 0.1842
vn 0.2551 0.9505 0.1776
vn 0.2554 0.9504 0.1774
vn 0.3035 0.9510 -0.0591
vn 0.3040 0.9509 -0.0583
vn -0.3409 0.9401 -0.0049
vn -0.3240 0.9457 0.0263
vn -0.2779 0.9593 -0.0494
vn -0.2529 0.9673 -0.0172
vn -0.2529 0.9673 -0.0182
vn -0.2525 0.9673 -0.0236
vn -0.2524 0.9673 -0.0246
vn -0.3200 0.9406 -0.1134
vn -0.3219 0.9462 -0.0344
vn -0.2699 0.9559 -0.1154
vn -0.1276 0.9884 0.0827
vn -0.2466 0.9675 -0.0558
vn 0.0418 0.9991 0.0068
vn 0.0701 0.9968 0.0391
vn 0.1022 0.9889 -0.1082
vn 0.1646 0.9859 -0.0303
vn -0.2606 0.9651 0.0251
vn -0.2980 0.9544 -0.0201
vn 0.1102 0.9893 -0.0957
vn 0.1701 0.9851 -0.0252
vn 0.2236 0.9746 -0.0118
vn 0.1595 0.9808 -0.1122
vn 0.1228 0.9872 0.1020
vn 0.0291 0.9988 -0.0393
vn 0.1819 0.9791 -0.0910
vn 0.1599 0.9797 -0.1213
vn 0.3180 0.9389 -0.1317
vn 0.3503 0.9330 -0.0820
vn 0.3573 0.9016 -0.2440
vn 0.4509 0.8871 -0.0988
vn -0.2717 0.9592 -0.0783
vn -0.1749 0.9610 -0.2142
vn -0.2796 0.8825 -0.3782
vn -0.1384 0.9675 -0.2115
vn -0.1384 0.9675 -0.2118
vn -0.1378 0.9645 -0.2251
vn -0.1378 0.9645 -0.2253
vn -0.0371 0.9474 -0.3178
vn -0.1758 0.9818 -0.0718
vn -0.0063 0.9753 -0.2209
vn -0.1877 0.8532 -0.4867
vn -0.0855 0.9160 -0.3920
vn -0.0853 0.9158 -0.3924
vn -0.0854 0.9158 -0.3923
vn 0.2824 0.8570 -0.4310
vn 0.2024 0.8339 -0.5135
vn 0.1465 0.9184 -0.3675
vn 0.1197 0.9106 -0.3956
vn -0.0853 0.9157 -0.3928
vn -0.0022 0.9486 -0.3164
vn 0.2378 0.8677 -0.4364
vn 0.2430 0.8694 -0.4302
vn 0.2380 0.8678 -0.4362
vn 0.2431 0.8695 -0.4300
vn 0.0782 0.9191 -0.3862
vn 0.0608 0.9121 -0.4054
vn 0.0523 0.9616 -0.2694
vn 0.0484 0.9606 -0.2736
vn 0.0482 0.9606 -0.2738
vn 0.0443 0.9596 -0.2779
vn 0.1814 0.9441 -0.2753
vn 0.1041 0.9246 -0.3663
vn 0.4460 0.8538 -0.2686
vn 0.3021 0.8455 -0.4403
vn 0.3252 0.9431 -0.0695
vn 0.1278 0.9502 -0.2843
vn -0.0240 0.9996 -0.0165
vn -0.0447 0.9973 -0.0585
vn -0.0015 0.9998 -0.0223
vn -0.0328 0.9950 -0.0938
vn 0.0091 0.9982 -0.0589
vn 0.0006 0.9930 -0.1182
vn 0.0286 0.9954 -0.0913
vn 0.0212 0.9896 -0.1422
vn 0.0447 0.9921 -0.1170
vn 0.0365 0.9848 -0.1698
vn 0.0576 0.9882 -0.1419
vn 0.1312 0.9762 -0.1729
usemtl None
s 1
f 1/1/1 2/2/1 3/3/1
f 3/3/2 2/2/2 4/4/2
f 5/5/3 3/3/3 4/4/3
f 6/6/4 7/7/4 8/8/4
f 8/8/5 7/7/5 9/9/5
f 8/8/6 9/9/6 1/1/6
f 1/1/7 9/9/8 2/2/8
f 10/10/9 11/11/9 12/12/9
f 12/12/10 11/11/10 13/13/10
f 10/10/11 12/12/12 6/6/13
f 6/6/13 12/12/12 7/7/14
f 11/11/15 14/14/15 13/13/15
f 4/4/16 15/15/16 5/5/16
f 5/5/17 15/15/17 16/16/17
f 2/2/18 17/17/18 4/4/18
f 4/4/19 17/17/19 15/15/19
f 17/17/20 18/18/20 15/15/20
f 15/15/21 18/18/21 19/19/21
f 15/15/22 19/19/22 16/16/22
f 16/16/23 19/19/23 20/20/23
f 9/9/8 21/21/24 2/2/8
f 2/2/25 21/21/25 17/17/25
f 7/7/26 22/22/26 9/9/26
f 9/9/27 22/22/27 21/21/27
f 22/22/28 23/23/28 21/21/28
f 21/21/29 23/23/29 24/24/29
f 21/21/30 24/24/30 17/17/30
f 17/17/31 24/24/31 18/18/31
f 12/12/32 25/25/32 7/7/32
f 7/7/33 25/25/33 22/22/33
f 13/13/34 26/26/34 12/12/34
f 12/12/35 26/26/35 25/25/35
f 26/26/36 27/27/37 25/25/38
f 25/25/38 27/27/37 28/28/39
f 25/25/40 28/28/40 22/22/40
f 22/22/41 28/28/41 23/23/41
f 13/13/42 14/14/43 26/26/44
f 26/26/44 14/14/43 29/29/45
f 29/29/46 30/30/46 26/26/46
f 26/26/47 30/30/47 27/27/47
f 19/19/48 31/31/48 20/20/48
f 20/20/49 31/31/49 32/32/49
f 18/18/50 33/33/50 19/19/50
f 19/19/51 33/33/52 31/31/53
f 33/33/52 34/34/54 31/31/53
f 31/31/55 34/34/55 35/35/55
f 32/32/56 31/31/56 36/36/56
f 36/36/57 31/31/57 35/35/57
f 24/24/58 37/37/58 18/18/58
f 18/18/59 37/37/59 33/33/59
f 23/23/60 38/38/60 24/24/60
f 24/24/61 38/38/61 37/37/61
f 38/38/62 39/39/62 37/37/62
f 37/37/63 39/39/63 40/40/63
f 37/37/64 40/40/64 33/33/64
f 33/33/65 40/40/65 34/34/65
f 28/28/66 41/41/66 23/23/66
f 23/23/67 41/41/67 38/38/67
f 27/27/68 42/42/68 28/28/68
f 28/28/69 42/42/69 41/41/69
f 42/42/70 43/43/70 41/41/70
f 41/41/71 43/43/71 44/44/71
f 41/41/72 44/44/72 38/38/72
f 38/38/73 44/44/73 39/39/73
f 30/30/74 45/45/74 27/27/74
f 27/27/75 45/45/75 42/42/75
f 45/45/76 46/46/76 42/42/76
f 42/42/77 46/46/77 43/43/77
f 36/36/78 35/35/78 47/47/78
f 47/47/79 35/35/79 48/48/79
f 34/34/80 49/49/80 35/35/80
f 35/35/81 49/49/82 48/48/83
f 48/48/83 49/49/82 50/50/84
f 50/50/85 49/49/85 51/51/85
f 47/47/86 48/48/86 52/52/86
f 52/52/87 48/48/87 50/50/87
f 40/40/88 53/53/88 34/34/88
f 34/34/89 53/53/90 49/49/91
f 39/39/92 54/54/92 40/40/92
f 40/40/93 54/54/93 53/53/93
f 54/54/94 55/55/94 53/53/94
f 53/53/95 55/55/95 56/56/95
f 53/53/90 56/56/96 49/49/91
f 49/49/97 56/56/97 51/51/97
f 44/44/98 57/57/99 39/39/100
f 39/39/100 57/57/99 54/54/101
f 43/43/102 58/58/102 44/44/102
f 44/44/103 58/58/103 57/57/103
f 59/59/104 57/57/105 60/60/106
f 60/60/106 57/57/105 58/58/107
f 57/57/108 59/59/108 54/54/108
f 54/54/109 59/59/109 55/55/109
f 46/46/110 61/61/110 43/43/110
f 43/43/111 61/61/111 58/58/111
f 61/61/112 62/62/112 58/58/112
f 58/58/113 62/62/113 60/60/113
f 50/50/114 63/63/114 52/52/114
f 51/51/115 64/64/115 50/50/115
f 50/50/116 64/64/116 63/63/116
f 56/56/117 65/65/117 51/51/117
f 51/51/118 65/65/118 64/64/118
f 55/55/119 66/66/119 56/56/119
f 56/56/120 66/66/120 65/65/120
f 59/59/121 67/67/121 55/55/121
f 55/55/122 67/67/122 66/66/122
f 60/60/123 68/68/123 59/59/123
f 59/59/124 68/68/124 67/67/124
f 60/60/125 62/62/125 68/68/125
