# Blender v2.78 (sub 0) OBJ File: ''
# www.blender.org
mtllib SM_Env_Flower_02.mtl
o SM_Env_Flower_02
v -2.388603 32.277603 2.033334
v -0.723946 25.987841 0.195206
v 5.229202 30.840681 -2.891009
v 3.922997 25.266571 -3.801346
v -6.380032 23.204130 -14.364241
v -4.672791 28.790661 -19.522596
v -0.170128 23.243763 -14.376640
v 1.484657 27.205685 -16.614275
v 9.058098 29.273132 -8.450522
v 3.927574 24.119833 -9.851429
v -11.030121 23.937561 -10.364151
v -11.031551 25.072136 -4.317665
v -11.878876 27.515186 -11.759104
v -14.986938 30.835808 -7.002852
v -6.923599 25.949984 0.197727
v -8.022007 29.912922 0.106431
v 2.535950 27.351587 -10.252597
v -0.519112 26.806398 -14.352881
v -6.210289 27.195375 -14.223292
v -10.019409 27.543095 -11.042166
v -9.656834 28.063347 -5.820655
v -6.125641 28.510239 -2.507640
v -1.226173 28.812309 -2.129531
v 2.657349 28.526398 -4.886843
v -0.507713 28.687193 -14.355720
v 0.983765 30.878941 -10.810732
v -5.782181 31.125397 -13.982538
v -9.396828 29.497944 -11.437491
v -8.142773 31.344986 -7.587844
v -5.577969 29.856651 -3.996135
v -1.804329 31.913273 -4.788348
v 2.068977 30.330444 -5.352835
v -3.576836 27.234364 -7.843829
v -4.515518 21.479401 -8.871662
v -1.034111 21.741489 -7.230686
v -6.409126 22.293335 -5.303467
v -2.494186 22.539328 -3.685486
v -4.417709 5.092404 -4.766814
v -0.232555 5.449244 -2.805934
v -4.007809 0.234034 -2.118477
v -1.365608 0.482830 -0.887203
v -6.693588 5.979319 -0.450507
v -5.444332 0.742478 0.621677
v -1.987259 6.325523 1.480237
v -2.473003 0.989450 1.832504
v -1.706661 15.249533 -5.855798
v -1.994366 15.726403 -3.684804
v -4.401192 15.686457 -4.039220
v -3.876682 15.190049 -6.283204
v -1.504543 24.481697 13.108059
v 0.166122 19.439318 12.530422
v 3.441460 22.292130 17.805700
v 3.958168 18.252090 15.295755
v 10.708710 18.646652 5.523376
v 14.987030 22.810259 7.488121
v 11.618080 17.673216 10.217498
v 13.607620 20.512335 12.145084
v 8.334255 20.633726 19.522614
v 8.680210 17.549562 14.163566
v 6.913467 19.843636 2.759174
v 2.194626 20.536411 3.890262
v 7.882351 22.767815 2.819565
v 3.722351 25.678791 1.973225
v -0.733990 20.412756 7.843146
v -0.818615 23.634604 7.994526
v 8.794498 20.266783 13.866955
v 11.551926 20.463255 10.850094
v 10.626633 21.678310 6.671269
v 7.592052 22.467407 4.330261
v 3.569408 22.654148 5.466332
v 1.910313 21.756826 12.533184
v 1.495304 22.328445 8.707378
v 4.624855 20.990652 15.005337
v 11.557419 21.904993 11.329639
v 9.008179 23.241478 13.501278
v 10.503990 24.618256 8.012867
v 7.992558 23.878700 5.234474
v 5.170853 24.980038 7.183258
v 2.737751 23.317110 9.249382
v 3.904442 24.308662 12.501156
v 4.904812 22.484133 14.948067
v 6.028629 21.094334 9.562809
v 6.690216 16.859512 7.268356
v 5.913891 16.449312 10.191108
v 3.631359 17.685251 6.543736
v 2.935852 17.193260 9.786399
v 2.562771 3.685040 7.334085
v 0.896805 0.000000 5.503834
v 3.486687 4.145761 3.811620
v 1.474869 0.272635 3.275036
v -0.211338 5.067256 2.921891
v -0.871574 0.814380 2.702770
v -1.036251 4.514979 6.830705
v -1.386055 0.487741 5.176460
v 4.737869 11.535000 8.249681
v 3.002132 11.883526 8.456568
v 2.930069 12.252522 6.580694
v 4.757122 11.852852 6.537528
vt 0.2599 0.9328
vt 0.2599 0.9328
vt 0.2599 0.9328
vt 0.2599 0.9328
vt 0.2599 0.9328
vt 0.2599 0.9328
vt 0.2599 0.9328
vt 0.2599 0.9328
vt 0.2599 0.9328
vt 0.2599 0.9328
vt 0.2599 0.9328
vt 0.2599 0.9328
vt 0.2599 0.9328
vt 0.2599 0.9328
vt 0.2599 0.9328
vt 0.2599 0.9328
vt 0.2599 0.9328
vt 0.2599 0.9328
vt 0.2599 0.9328
vt 0.2599 0.9328
vt 0.2599 0.9328
vt 0.2599 0.9328
vt 0.2599 0.9328
vt 0.2599 0.9328
vt 0.2599 0.9328
vt 0.2599 0.9328
vt 0.2599 0.9328
vt 0.2599 0.9328
vt 0.2599 0.9328
vt 0.2599 0.9328
vt 0.2599 0.9328
vt 0.2599 0.9328
vt 0.2599 0.9328
vt 0.2599 0.9328
vt 0.2599 0.9328
vt 0.2599 0.9328
vt 0.2599 0.9328
vt 0.9656 0.4562
vt 0.9656 0.4562
vt 0.9656 0.4562
vt 0.9656 0.4562
vt 0.9656 0.4562
vt 0.9656 0.4562
vt 0.9656 0.4562
vt 0.9656 0.4562
vt 0.9656 0.4562
vt 0.9656 0.4562
vt 0.9656 0.4562
vt 0.9656 0.4562
vt 0.9656 0.4562
vt 0.9656 0.4562
vt 0.9656 0.4562
vt 0.9656 0.4562
vt 0.2599 0.9328
vt 0.2599 0.9328
vt 0.2599 0.9328
vt 0.2599 0.9328
vt 0.2599 0.9328
vt 0.2599 0.9328
vt 0.2599 0.9328
vt 0.2599 0.9328
vt 0.2599 0.9328
vt 0.2599 0.9328
vt 0.2599 0.9328
vt 0.2599 0.9328
vt 0.2599 0.9328
vt 0.2599 0.9328
vt 0.2599 0.9328
vt 0.2599 0.9328
vt 0.2599 0.9328
vt 0.2599 0.9328
vt 0.2599 0.9328
vt 0.2599 0.9328
vt 0.2599 0.9328
vt 0.2599 0.9328
vt 0.2599 0.9328
vt 0.2599 0.9328
vt 0.2599 0.9328
vt 0.2599 0.9328
vt 0.2599 0.9328
vt 0.2599 0.9328
vt 0.2599 0.9328
vt 0.2599 0.9328
vt 0.2599 0.9328
vt 0.2599 0.9328
vt 0.2599 0.9328
vt 0.2599 0.9328
vt 0.2599 0.9328
vt 0.2599 0.9328
vt 0.2599 0.9328
vt 0.9656 0.4562
vt 0.9656 0.4562
vt 0.9656 0.4562
vt 0.9656 0.4562
vt 0.9656 0.4562
vt 0.9656 0.4562
vt 0.9656 0.4562
vt 0.9656 0.4562
vt 0.9656 0.4562
vt 0.9656 0.4562
vt 0.9656 0.4562
vt 0.9656 0.4562
vt 0.9656 0.4562
vt 0.9656 0.4562
vt 0.9656 0.4562
vt 0.9656 0.4562
vn 0.5253 -0.1076 0.8441
vn 0.6049 -0.2644 0.7511
vn 0.0029 -0.6789 -0.7343
vn 0.2363 -0.5508 -0.8005
vn 0.6798 -0.5427 -0.4932
vn 0.6661 -0.5578 -0.4951
vn -0.9756 -0.2158 0.0403
vn -0.7965 -0.5954 -0.1048
vn 0.0021 -0.2800 0.9600
vn -0.2999 -0.0612 0.9520
vn -0.6332 -0.4117 -0.6554
vn -0.6320 -0.4079 -0.6589
vn -0.6332 -0.4114 -0.6556
vn -0.6317 -0.4071 -0.6597
vn -0.7146 -0.1748 0.6774
vn -0.7105 -0.1800 0.6803
vn -0.7143 -0.1751 0.6775
vn -0.7097 -0.1810 0.6809
vn 0.6832 -0.7173 0.1365
vn 0.7542 -0.2742 0.5967
vn -0.2891 0.9570 0.0258
vn -0.1864 0.9824 0.0083
vn 0.1172 0.9550 0.2724
vn 0.0719 0.9491 0.3066
vn 0.1975 0.9214 0.3347
vn 0.0185 0.9961 -0.0867
vn 0.4904 0.8318 -0.2603
vn 0.0239 0.9946 -0.1008
vn -0.1550 0.8192 -0.5521
vn 0.0019 0.7688 -0.6395
vn 0.4918 0.7834 -0.3801
vn 0.2056 0.9167 -0.3427
vn -0.2952 0.6922 -0.6586
vn -0.3112 0.7950 -0.5208
vn -0.3574 0.8052 -0.4732
vn -0.2245 0.9530 -0.2036
vn 0.8022 -0.0058 -0.5970
vn 0.8127 0.2765 -0.5129
vn -0.0229 -0.0014 -0.9997
vn -0.0403 0.0655 -0.9970
vn -0.6377 0.0476 -0.7688
vn -0.6058 0.1142 -0.7874
vn -0.9037 0.4278 0.0201
vn -0.9335 0.3271 0.1472
vn -0.0966 0.7556 0.6479
vn -0.1783 0.6211 0.7632
vn -0.5215 0.7194 0.4588
vn -0.5312 0.5784 0.6190
vn 0.5552 0.3731 0.7433
vn 0.3616 0.6448 0.6734
vn 0.9535 0.2891 -0.0849
vn 0.9140 0.3795 -0.1436
vn -0.6774 0.7182 -0.1590
vn 0.4103 0.8297 0.3785
vn -0.0027 0.8442 0.5360
vn 0.5641 0.6577 -0.4993
vn -0.4641 0.6008 -0.6509
vn 0.6552 0.7379 -0.1621
vn 0.0891 0.5207 -0.8491
vn -0.5350 0.8234 0.1891
vn 0.0055 -0.9535 -0.3013
vn 0.3620 -0.9201 -0.1497
vn 0.1600 -0.9697 -0.1845
vn -0.3088 -0.9324 -0.1880
vn -0.3576 -0.9336 0.0232
vn -0.4830 -0.8606 0.1614
vn 0.0048 -0.7486 0.6630
vn -0.3700 -0.7893 0.4900
vn -0.1689 -0.8280 0.5346
vn 0.4949 -0.8537 0.1622
vn 0.3389 -0.7747 0.5338
vn 0.3721 -0.8609 0.3470
vn 0.4156 -0.4080 -0.8129
vn 0.4166 -0.4086 -0.8121
vn 0.4163 -0.4084 -0.8123
vn 0.4168 -0.4088 -0.8119
vn -0.8697 -0.2908 -0.3988
vn -0.8697 -0.2907 -0.3989
vn -0.8689 -0.2897 -0.4013
vn -0.8688 -0.2895 -0.4017
vn -0.3838 0.0965 0.9183
vn -0.3831 0.0959 0.9187
vn -0.3827 0.0957 0.9189
vn -0.3824 0.0955 0.9190
vn 0.9195 -0.0596 0.3886
vn 0.9206 -0.0585 0.3862
vn 0.9195 -0.0596 0.3885
vn 0.9207 -0.0583 0.3858
vn 0.0061 -0.9826 0.1855
vn 0.9802 0.1758 0.0913
vn 0.9219 0.1871 0.3392
vn -0.1358 0.4770 0.8684
vn -0.3731 0.3980 0.8381
vn -0.9727 0.0174 -0.2312
vn -0.8812 0.0338 -0.4716
vn 0.1950 -0.1559 -0.9683
vn 0.4295 -0.2088 -0.8786
vn 0.9278 0.0681 0.3668
vn 0.9867 -0.0712 0.1464
vn -0.3845 0.0594 0.9212
vn -0.1455 -0.0106 0.9893
vn -0.8618 -0.3348 -0.3810
vn -0.9666 -0.1752 -0.1872
vn 0.4246 -0.3074 -0.8516
vn 0.1943 -0.2225 -0.9554
vn -0.7233 -0.3103 0.6169
vn -0.6110 -0.4727 0.6350
vn 0.7324 -0.6245 -0.2714
vn 0.8282 -0.5595 -0.0308
vn 0.5881 -0.6840 0.4316
vn 0.5877 -0.6941 0.4158
vn -0.2192 0.0927 -0.9713
vn -0.0447 -0.3373 -0.9403
vn -0.9828 -0.0343 0.1816
vn -0.9490 -0.3057 -0.0767
vn 0.5420 -0.1684 -0.8233
vn 0.5456 -0.1649 -0.8217
vn 0.5423 -0.1682 -0.8232
vn 0.5464 -0.1641 -0.8213
vn -0.8007 0.0146 -0.5989
vn -0.8031 0.0082 -0.5958
vn -0.8008 0.0143 -0.5987
vn -0.8036 0.0069 -0.5951
vn -0.0095 -0.8669 0.4983
vn -0.4339 -0.5148 0.7394
vn -0.0760 0.9946 -0.0707
vn -0.0411 0.9988 0.0274
vn -0.2525 0.8953 0.3670
vn -0.2943 0.8983 0.3264
vn -0.3026 0.8387 0.4528
vn 0.0904 0.9733 0.2109
vn 0.3617 0.6969 0.6193
vn 0.1054 0.9713 0.2134
vn 0.6182 0.7846 -0.0471
vn 0.4712 0.8784 0.0801
vn 0.4828 0.6515 0.5852
vn 0.3839 0.8615 0.3323
vn 0.5787 0.7773 -0.2470
vn 0.4431 0.8698 -0.2170
vn 0.3880 0.8875 -0.2485
vn 0.1572 0.9862 -0.0512
vn 0.7273 -0.2191 0.6504
vn 0.6613 0.0446 0.7488
vn 0.9781 0.0623 -0.1985
vn 0.9708 0.1319 -0.2004
vn 0.6309 0.2837 -0.7222
vn 0.6520 0.3371 -0.6791
vn -0.1756 0.6601 -0.7304
vn -0.3020 0.5736 -0.7614
vn -0.6595 0.7297 0.1806
vn -0.7839 0.6137 0.0941
vn -0.5301 0.8077 -0.2581
vn -0.6888 0.6731 -0.2694
vn -0.6424 0.1492 0.7517
vn -0.6164 0.4894 0.6169
vn 0.2614 -0.0120 0.9652
vn 0.3157 0.0934 0.9443
vn 0.0316 0.8673 -0.4967
vn -0.3110 0.6848 0.6590
vn -0.5357 0.7996 0.2713
vn 0.6151 0.5060 0.6046
vn 0.5358 0.7346 -0.4162
vn 0.2937 0.5455 0.7849
vn 0.8510 0.5235 0.0425
vn -0.2726 0.9163 -0.2934
vn 0.3011 -0.9204 -0.2492
vn 0.2076 -0.9703 0.1242
vn 0.2095 -0.9744 -0.0811
vn 0.1334 -0.8295 -0.5423
vn -0.0926 -0.8282 -0.5527
vn -0.2594 -0.7248 -0.6383
vn -0.6491 -0.7600 -0.0332
vn -0.5663 -0.6961 -0.4413
vn -0.5648 -0.7893 -0.2409
vn -0.0670 -0.9486 0.3094
vn -0.4497 -0.8580 0.2483
vn -0.2651 -0.9366 0.2292
vn 0.8653 -0.4732 0.1651
vn 0.8653 -0.4732 0.1652
vn 0.8654 -0.4726 0.1666
vn 0.2367 0.0117 -0.9715
vn 0.2368 0.0117 -0.9715
vn 0.2393 0.0127 -0.9709
vn 0.2397 0.0128 -0.9708
vn -0.9703 0.1592 -0.1823
vn -0.9704 0.1598 -0.1810
vn -0.9704 0.1596 -0.1814
vn -0.9704 0.1600 -0.1807
vn -0.2097 -0.3573 0.9102
vn -0.2072 -0.3565 0.9110
vn -0.2096 -0.3572 0.9102
vn -0.2068 -0.3563 0.9112
vn -0.1832 -0.9689 -0.1660
vn 0.0895 -0.1398 0.9861
vn -0.1657 -0.1251 0.9782
vn -0.8815 0.4558 0.1235
vn -0.8847 0.4495 -0.1232
vn 0.0490 0.3259 -0.9441
vn 0.2973 0.3268 -0.8971
vn 0.9641 -0.2627 -0.0379
vn 0.9476 -0.2333 0.2180
vn -0.1895 -0.2408 0.9519
vn 0.0352 -0.3745 0.9266
vn -0.9739 0.1244 -0.1900
vn -0.9992 -0.0210 0.0342
vn 0.2425 0.0478 -0.9690
vn -0.0244 -0.0036 -0.9997
vn 0.9306 -0.3035 0.2046
vn 0.9341 -0.3527 -0.0550
usemtl None
s 1
f 1/1/1 2/2/1 3/3/1
f 3/3/2 2/2/2 4/4/2
f 5/5/3 6/6/3 7/7/3
f 7/7/4 6/6/4 8/8/4
f 9/9/5 10/10/5 8/8/5
f 8/8/6 10/10/6 7/7/6
f 11/11/7 12/12/7 13/13/7
f 13/13/8 12/12/8 14/14/8
f 2/2/9 1/1/9 15/15/9
f 15/15/10 1/1/10 16/16/10
f 6/6/11 5/5/12 13/13/13
f 13/13/13 5/5/12 11/11/14
f 14/14/15 12/12/16 16/16/17
f 16/16/17 12/12/16 15/15/18
f 10/10/19 9/9/19 4/4/19
f 4/4/20 9/9/20 3/3/20
f 9/9/21 8/8/21 17/17/21
f 17/17/22 8/8/22 18/18/22
f 8/8/23 6/6/23 18/18/23
f 18/18/24 6/6/24 19/19/24
f 6/6/25 13/13/25 19/19/25
f 19/19/26 13/13/26 20/20/26
f 14/14/27 21/21/27 13/13/27
f 13/13/28 21/21/28 20/20/28
f 16/16/29 1/1/29 22/22/29
f 22/22/30 1/1/30 23/23/30
f 14/14/31 16/16/31 21/21/31
f 21/21/32 16/16/32 22/22/32
f 1/1/33 3/3/33 23/23/33
f 23/23/34 3/3/34 24/24/34
f 3/3/35 9/9/35 24/24/35
f 24/24/36 9/9/36 17/17/36
f 18/18/37 25/25/37 17/17/37
f 17/17/38 25/25/38 26/26/38
f 18/18/39 19/19/39 25/25/39
f 25/25/40 19/19/40 27/27/40
f 20/20/41 28/28/41 19/19/41
f 19/19/42 28/28/42 27/27/42
f 21/21/43 29/29/43 20/20/43
f 20/20/44 29/29/44 28/28/44
f 22/22/45 23/23/45 30/30/45
f 30/30/46 23/23/46 31/31/46
f 22/22/47 30/30/47 21/21/47
f 21/21/48 30/30/48 29/29/48
f 24/24/49 32/32/49 23/23/49
f 23/23/50 32/32/50 31/31/50
f 24/24/51 17/17/51 32/32/51
f 32/32/52 17/17/52 26/26/52
f 26/26/53 25/25/53 33/33/53
f 25/25/54 27/27/54 33/33/54
f 27/27/55 28/28/55 33/33/55
f 28/28/56 29/29/56 33/33/56
f 30/30/57 31/31/57 33/33/57
f 29/29/58 30/30/58 33/33/58
f 31/31/59 32/32/59 33/33/59
f 32/32/60 26/26/60 33/33/60
f 5/5/61 7/7/61 34/34/61
f 10/10/62 35/35/62 7/7/62
f 7/7/63 35/35/63 34/34/63
f 5/5/64 34/34/64 11/11/64
f 11/11/65 34/34/65 36/36/65
f 12/12/66 11/11/66 36/36/66
f 2/2/67 15/15/67 37/37/67
f 12/12/68 36/36/68 15/15/68
f 15/15/69 36/36/69 37/37/69
f 10/10/70 4/4/70 35/35/70
f 2/2/71 37/37/71 4/4/71
f 4/4/72 37/37/72 35/35/72
f 38/38/73 39/39/74 40/40/75
f 40/40/75 39/39/74 41/41/76
f 38/38/77 40/40/78 42/42/79
f 42/42/79 40/40/78 43/43/80
f 42/42/81 43/43/82 44/44/83
f 44/44/83 43/43/82 45/45/84
f 39/39/85 44/44/86 41/41/87
f 41/41/87 44/44/86 45/45/88
f 41/41/89 45/45/89 40/40/89
f 40/40/89 45/45/89 43/43/89
f 46/46/90 47/47/90 39/39/90
f 39/39/91 47/47/91 44/44/91
f 47/47/92 48/48/92 44/44/92
f 44/44/93 48/48/93 42/42/93
f 49/49/94 38/38/94 48/48/94
f 48/48/95 38/38/95 42/42/95
f 49/49/96 46/46/96 38/38/96
f 38/38/97 46/46/97 39/39/97
f 37/50/98 47/47/98 35/51/98
f 35/51/99 47/47/99 46/46/99
f 36/52/100 48/48/100 37/50/100
f 37/50/101 48/48/101 47/47/101
f 36/52/102 34/53/102 48/48/102
f 48/48/103 34/53/103 49/49/103
f 34/53/104 35/51/104 49/49/104
f 49/49/105 35/51/105 46/46/105
f 50/54/106 51/55/106 52/56/106
f 52/56/107 51/55/107 53/57/107
f 54/58/108 55/59/108 56/60/108
f 56/60/109 55/59/109 57/61/109
f 58/62/110 59/63/110 57/61/110
f 57/61/111 59/63/111 56/60/111
f 60/64/112 61/65/112 62/66/112
f 62/66/113 61/65/113 63/67/113
f 64/68/114 51/55/114 65/69/114
f 65/69/115 51/55/115 50/54/115
f 55/59/116 54/58/117 62/66/118
f 62/66/118 54/58/117 60/64/119
f 63/67/120 61/65/121 65/69/122
f 65/69/122 61/65/121 64/68/123
f 59/63/124 58/62/124 53/57/124
f 53/57/125 58/62/125 52/56/125
f 58/62/126 57/61/126 66/70/126
f 66/70/127 57/61/127 67/71/127
f 57/61/128 55/59/128 67/71/128
f 67/71/129 55/59/129 68/72/129
f 55/59/130 62/66/130 68/72/130
f 68/72/131 62/66/131 69/73/131
f 63/67/132 70/74/132 62/66/132
f 62/66/133 70/74/133 69/73/133
f 50/54/134 71/75/134 65/69/134
f 65/69/135 71/75/135 72/76/135
f 63/67/136 65/69/136 70/74/136
f 70/74/137 65/69/137 72/76/137
f 50/54/138 52/56/138 71/75/138
f 71/75/139 52/56/139 73/77/139
f 52/56/140 58/62/140 73/77/140
f 73/77/141 58/62/141 66/70/141
f 67/71/142 74/78/142 66/70/142
f 66/70/143 74/78/143 75/79/143
f 67/71/144 68/72/144 74/78/144
f 74/78/145 68/72/145 76/80/145
f 69/73/146 77/81/146 68/72/146
f 68/72/147 77/81/147 76/80/147
f 70/74/148 78/82/148 69/73/148
f 69/73/149 78/82/149 77/81/149
f 72/76/150 71/75/150 79/83/150
f 79/83/151 71/75/151 80/84/151
f 72/76/152 79/83/152 70/74/152
f 70/74/153 79/83/153 78/82/153
f 73/77/154 81/85/154 71/75/154
f 71/75/155 81/85/155 80/84/155
f 73/77/156 66/70/156 81/85/156
f 81/85/157 66/70/157 75/79/157
f 75/79/158 74/78/158 82/86/158
f 74/78/159 76/80/159 82/86/159
f 76/80/160 77/81/160 82/86/160
f 77/81/161 78/82/161 82/86/161
f 79/83/162 80/84/162 82/86/162
f 78/82/163 79/83/163 82/86/163
f 80/84/164 81/85/164 82/86/164
f 81/85/165 75/79/165 82/86/165
f 54/58/166 56/60/166 83/87/166
f 59/63/167 84/88/167 56/60/167
f 56/60/168 84/88/168 83/87/168
f 54/58/169 83/87/169 60/64/169
f 60/64/170 83/87/170 85/89/170
f 61/65/171 60/64/171 85/89/171
f 51/55/172 64/68/172 86/90/172
f 61/65/173 85/89/173 64/68/173
f 64/68/174 85/89/174 86/90/174
f 59/63/175 53/57/175 84/88/175
f 51/55/176 86/90/176 53/57/176
f 53/57/177 86/90/177 84/88/177
f 87/91/178 88/92/179 89/93/180
f 89/93/180 88/92/179 90/94/180
f 89/93/181 90/94/182 91/95/183
f 91/95/183 90/94/182 92/96/184
f 93/97/185 91/95/186 94/98/187
f 94/98/187 91/95/186 92/96/188
f 87/91/189 93/97/190 88/92/191
f 88/92/191 93/97/190 94/98/192
f 90/94/193 88/92/193 92/96/193
f 92/96/193 88/92/193 94/98/193
f 95/99/194 96/100/194 87/91/194
f 87/91/195 96/100/195 93/97/195
f 96/100/196 97/101/196 93/97/196
f 93/97/197 97/101/197 91/95/197
f 98/102/198 89/93/198 97/101/198
f 97/101/199 89/93/199 91/95/199
f 95/99/200 87/91/200 98/102/200
f 98/102/201 87/91/201 89/93/201
f 86/103/202 96/100/202 84/104/202
f 84/104/203 96/100/203 95/99/203
f 85/105/204 97/101/204 86/103/204
f 86/103/205 97/101/205 96/100/205
f 83/106/206 98/102/206 85/105/206
f 85/105/207 98/102/207 97/101/207
f 84/104/208 95/99/208 83/106/208
f 83/106/209 95/99/209 98/102/209
