# Blender v2.78 (sub 0) OBJ File: ''
# www.blender.org
mtllib SM_Env_FloorTile_06.mtl
o SM_Env_FloorTile_06
v 226.159302 0.000035 -217.494507
v 235.685181 0.000036 -219.480591
v 226.159302 0.000037 -226.159424
v 300.000122 0.000037 -226.159424
v 243.833130 0.000035 -213.399902
v 300.000122 0.000025 -150.772949
v 243.795532 0.000033 -199.691040
v 226.159302 0.000025 -150.772949
v 226.159302 0.000027 -164.893311
v 233.422119 0.000031 -188.648804
v 226.159302 0.000030 -186.679688
v 81.982910 0.000025 -150.772949
v 150.773071 0.000025 -150.772949
v 93.460083 0.000026 -157.770996
v 75.386719 0.000027 -167.784790
v 83.909790 0.000029 -177.997314
v 75.386719 0.000037 -226.159424
v 150.773071 0.000037 -226.159424
v 93.628052 0.000027 -167.972656
v 158.985962 0.000008 -47.892456
v 153.599731 0.000007 -43.724243
v 150.773071 0.000000 -0.000122
v 158.985962 0.000009 -53.069092
v 150.773071 0.000012 -75.386597
v 151.025635 0.000009 -56.998657
v 75.386719 0.000000 -0.000122
v 75.386719 0.000012 -75.386597
v 146.196411 0.000008 -50.014404
v 112.101074 0.000014 -86.275757
v 119.383301 0.000014 -86.275757
v 226.159302 0.000012 -75.386597
v 232.096558 0.000011 -65.511108
v 300.000122 0.000012 -75.386597
v 236.379272 0.000010 -59.034302
v 300.000122 0.000000 -0.000122
v 232.096558 0.000008 -51.720337
v 226.159302 0.000000 -0.000122
v 0.000122 0.000037 -226.159424
v 0.000122 0.000025 -150.772949
v 75.386719 0.000025 -150.772949
v 0.000122 0.000000 -0.000122
v 0.000122 0.000012 -75.386597
v 201.537354 0.000027 -167.737671
v 204.739014 0.000026 -156.718018
v 215.361938 0.000028 -170.680420
v 218.156738 0.000025 -150.772949
v 225.675171 0.000008 -49.165649
v 222.896362 0.000010 -60.310669
v 239.048096 0.000016 -99.379028
v 249.358643 0.000016 -96.669189
v 251.931763 0.000017 -105.623657
v 239.048096 0.000017 -105.842285
v 248.577393 0.000018 -109.400391
v 150.773071 0.000017 -103.474976
v 161.746216 0.000016 -98.391113
v 171.184692 0.000017 -102.878906
v 150.773071 0.000022 -137.581665
v 161.959961 0.000022 -136.051758
v 169.109497 0.000019 -118.107544
v 106.776611 0.000015 -91.843872
v 110.562012 0.000016 -97.856934
v 120.152710 0.000016 -99.575562
v 123.788452 0.000015 -92.327026
v 137.769043 0.000018 -108.355469
v 141.198364 0.000021 -128.311157
v 226.159302 0.000049 -300.000122
v 300.000122 0.000049 -300.000122
v 166.882812 0.000040 -246.762817
v 150.773071 0.000049 -300.000122
v 166.882812 0.000043 -263.640869
v 172.346191 0.000041 -254.482056
v 158.426392 0.000041 -250.210571
v 158.225098 0.000042 -260.439209
v 75.386719 0.000049 -300.000122
v 0.000122 0.000049 -300.000122
v 216.756958 0.000034 -210.991455
v 215.068359 0.000032 -197.144897
vt 0.9659 0.4514
vt 0.9659 0.4514
vt 0.9659 0.4514
vt 0.9659 0.4514
vt 0.9659 0.4514
vt 0.9659 0.4514
vt 0.9659 0.4514
vt 0.9659 0.4514
vt 0.9659 0.4514
vt 0.9659 0.4514
vt 0.9659 0.4514
vt 0.9659 0.4514
vt 0.9659 0.4514
vt 0.9659 0.4514
vt 0.9659 0.4514
vt 0.9659 0.4514
vt 0.9659 0.4514
vt 0.9659 0.4514
vt 0.9659 0.4514
vt 0.9659 0.4514
vt 0.9659 0.4514
vt 0.9659 0.4514
vt 0.9659 0.4514
vt 0.9659 0.4514
vt 0.9659 0.4514
vt 0.9659 0.4514
vt 0.9659 0.4514
vt 0.9659 0.4514
vt 0.9659 0.4514
vt 0.9659 0.4514
vt 0.9659 0.4514
vt 0.9659 0.4514
vt 0.9659 0.4514
vt 0.9659 0.4514
vt 0.9659 0.4514
vt 0.9659 0.4514
vt 0.9659 0.4514
vt 0.9659 0.4514
vt 0.9659 0.4514
vt 0.9659 0.4514
vt 0.9659 0.4514
vt 0.9659 0.4514
vt 0.9680 0.5024
vt 0.9680 0.5024
vt 0.9680 0.5024
vt 0.9680 0.5024
vt 0.9680 0.5024
vt 0.9680 0.5024
vt 0.9659 0.4514
vt 0.9659 0.4514
vt 0.9659 0.4514
vt 0.9659 0.4514
vt 0.9659 0.4514
vt 0.9659 0.4514
vt 0.9659 0.4514
vt 0.9659 0.4514
vt 0.9659 0.4514
vt 0.9659 0.4514
vt 0.9659 0.4514
vt 0.9659 0.4514
vt 0.9659 0.4514
vt 0.9659 0.4514
vt 0.9659 0.4514
vt 0.9659 0.4514
vt 0.9659 0.4514
vt 0.9659 0.4514
vt 0.9659 0.4514
vt 0.9659 0.4514
vt 0.9659 0.4514
vt 0.9659 0.4514
vt 0.9659 0.4514
vt 0.9659 0.4514
vt 0.9659 0.4514
vt 0.9659 0.4514
vt 0.9659 0.4514
vt 0.9659 0.4514
vt 0.9659 0.4514
vt 0.9659 0.4514
vt 0.9420 0.4562
vt 0.9420 0.4562
vt 0.9420 0.4562
vt 0.9420 0.4562
vt 0.9420 0.4562
vt 0.9420 0.4562
vt 0.9420 0.4562
vt 0.9420 0.4562
vt 0.9420 0.4562
vt 0.9420 0.4562
vt 0.9420 0.4562
vt 0.9420 0.4562
vt 0.9420 0.4562
vt 0.9420 0.4562
vt 0.9420 0.4562
vt 0.9420 0.4562
vt 0.9420 0.4562
vt 0.9420 0.4562
vt 0.9420 0.4562
vt 0.9420 0.4562
vt 0.9420 0.4562
vt 0.9420 0.4562
vt 0.9420 0.4562
vt 0.9420 0.4562
vt 0.9420 0.4562
vt 0.9420 0.4562
vt 0.9420 0.4562
vt 0.9420 0.4562
vt 0.9420 0.4562
vt 0.9420 0.4562
vt 0.9420 0.4562
vt 0.9420 0.4562
vt 0.9659 0.4514
vt 0.9659 0.4514
vt 0.9659 0.4514
vt 0.9659 0.4514
vt 0.9659 0.4514
vt 0.9680 0.5024
vt 0.9680 0.5024
vt 0.9680 0.5024
vt 0.9680 0.5024
vt 0.9680 0.5024
vt 0.9680 0.5024
vt 0.9680 0.5024
vt 0.9680 0.5024
vt 0.9680 0.5024
vt 0.9680 0.5024
vt 0.9680 0.5024
vt 0.9680 0.5024
vt 0.9680 0.5024
vt 0.9680 0.5024
vt 0.9680 0.5024
vt 0.9680 0.5024
vn -0.0000 1.0000 0.0000
usemtl None
s 1
f 1/1/1 2/2/1 3/3/1
f 3/3/1 2/2/1 4/4/1
f 2/2/1 5/5/1 4/4/1
f 4/4/1 5/5/1 6/6/1
f 5/5/1 7/7/1 6/6/1
f 8/8/1 6/6/1 9/9/1
f 7/7/1 10/10/1 6/6/1
f 9/9/1 6/6/1 11/11/1
f 10/10/1 11/11/1 6/6/1
f 12/12/1 13/13/1 14/14/1
f 15/15/1 16/16/1 17/17/1
f 17/17/1 16/16/1 18/18/1
f 16/16/1 19/19/1 18/18/1
f 13/13/1 18/18/1 14/14/1
f 18/18/1 19/19/1 14/14/1
f 20/20/1 21/21/1 22/22/1
f 23/23/1 24/24/1 25/25/1
f 26/26/1 22/22/1 27/27/1
f 22/22/1 21/21/1 27/27/1
f 21/21/1 28/28/1 27/27/1
f 27/27/1 28/28/1 29/29/1
f 29/29/1 28/28/1 30/30/1
f 28/28/1 25/25/1 30/30/1
f 24/24/1 30/30/1 25/25/1
f 31/31/1 32/32/1 33/33/1
f 32/32/1 34/34/1 33/33/1
f 33/33/1 34/34/1 35/35/1
f 34/34/1 36/36/1 35/35/1
f 36/36/1 37/37/1 35/35/1
f 17/17/1 38/38/1 15/15/1
f 39/39/1 40/40/1 38/38/1
f 38/38/1 40/40/1 15/15/1
f 26/26/1 27/27/1 41/41/1
f 41/41/1 27/27/1 42/42/1
f 43/43/1 44/44/1 45/45/1
f 44/44/1 46/46/1 45/45/1
f 45/45/1 46/46/1 9/47/1
f 9/47/1 46/46/1 8/48/1
f 36/36/1 47/49/1 37/37/1
f 24/24/1 23/23/1 31/31/1
f 22/22/1 37/37/1 20/20/1
f 37/37/1 47/49/1 20/20/1
f 47/49/1 48/50/1 20/20/1
f 20/20/1 48/50/1 23/23/1
f 32/32/1 31/31/1 48/50/1
f 48/50/1 31/31/1 23/23/1
f 31/31/1 33/33/1 49/51/1
f 49/51/1 33/33/1 50/52/1
f 33/33/1 6/6/1 50/52/1
f 50/52/1 6/6/1 51/53/1
f 8/8/1 52/54/1 6/6/1
f 52/54/1 53/55/1 6/6/1
f 6/6/1 53/55/1 51/53/1
f 54/56/1 24/24/1 55/57/1
f 24/24/1 31/31/1 55/57/1
f 55/57/1 31/31/1 56/58/1
f 13/13/1 57/59/1 46/60/1
f 57/59/1 58/61/1 46/60/1
f 58/61/1 59/62/1 46/60/1
f 31/31/1 49/51/1 56/58/1
f 49/51/1 52/54/1 56/58/1
f 52/54/1 8/8/1 56/58/1
f 8/8/1 46/60/1 56/58/1
f 46/60/1 59/62/1 56/58/1
f 29/29/1 60/63/1 27/27/1
f 27/27/1 60/63/1 40/40/1
f 40/40/1 60/63/1 12/12/1
f 60/63/1 61/64/1 12/12/1
f 12/12/1 61/64/1 13/13/1
f 61/64/1 62/65/1 13/13/1
f 24/24/1 54/56/1 30/30/1
f 30/30/1 54/56/1 63/66/1
f 54/56/1 64/67/1 63/66/1
f 63/66/1 64/67/1 62/65/1
f 64/67/1 65/68/1 62/65/1
f 62/65/1 65/68/1 13/13/1
f 13/13/1 65/68/1 57/59/1
f 42/42/1 27/27/1 39/39/1
f 39/39/1 27/27/1 40/40/1
f 66/69/1 3/3/1 67/70/1
f 67/70/1 3/3/1 4/4/1
f 18/18/1 3/3/1 68/71/1
f 69/72/1 70/73/1 66/69/1
f 3/3/1 66/69/1 68/71/1
f 68/71/1 66/69/1 71/74/1
f 70/73/1 71/74/1 66/69/1
f 68/71/1 72/75/1 18/18/1
f 70/73/1 69/72/1 73/76/1
f 74/77/1 17/17/1 69/72/1
f 69/72/1 17/17/1 73/76/1
f 73/76/1 17/17/1 72/75/1
f 17/17/1 18/18/1 72/75/1
f 75/78/1 38/38/1 74/77/1
f 74/77/1 38/38/1 17/17/1
f 16/79/1 15/80/1 19/81/1
f 19/81/1 15/80/1 14/82/1
f 14/82/1 15/80/1 12/83/1
f 12/83/1 15/80/1 40/84/1
f 57/85/1 65/86/1 54/87/1
f 54/87/1 65/86/1 64/88/1
f 57/85/1 54/87/1 58/89/1
f 58/89/1 54/87/1 59/90/1
f 54/87/1 55/91/1 59/90/1
f 55/91/1 56/92/1 59/90/1
f 76/93/1 77/94/1 1/95/1
f 1/95/1 77/94/1 11/96/1
f 11/96/1 10/97/1 1/95/1
f 10/97/1 7/98/1 1/95/1
f 1/95/1 7/98/1 2/99/1
f 7/98/1 5/100/1 2/99/1
f 50/101/1 51/102/1 49/103/1
f 49/103/1 51/102/1 52/104/1
f 51/102/1 53/105/1 52/104/1
f 28/106/1 21/107/1 25/108/1
f 21/107/1 20/109/1 25/108/1
f 23/110/1 25/108/1 20/109/1
f 46/60/1 44/111/1 13/13/1
f 9/9/1 11/11/1 45/112/1
f 44/111/1 43/113/1 13/13/1
f 13/13/1 43/113/1 18/18/1
f 3/3/1 18/18/1 1/1/1
f 1/1/1 18/18/1 76/114/1
f 76/114/1 18/18/1 77/115/1
f 11/11/1 77/115/1 45/112/1
f 45/112/1 77/115/1 43/113/1
f 18/18/1 43/113/1 77/115/1
f 60/116/1 29/117/1 61/118/1
f 61/118/1 29/117/1 62/119/1
f 62/119/1 29/117/1 63/120/1
f 30/121/1 63/120/1 29/117/1
f 32/122/1 48/123/1 36/124/1
f 36/124/1 48/123/1 47/125/1
f 36/124/1 34/126/1 32/122/1
f 73/127/1 72/128/1 70/129/1
f 70/129/1 72/128/1 68/130/1
f 68/130/1 71/131/1 70/129/1
