# This file uses centimeters as units for non-parametric coordinates.

v -3.703369 -1.843563 1.584290
v 3.703369 -1.843563 1.228882
v -3.123291 1.843563 1.336212
v 3.123291 1.843563 1.036377
v -0.575195 1.843563 -2.464722
v 1.979004 1.843563 -2.605713
v -3.398926 -1.843563 -2.839020
v 2.346680 -1.843563 -3.089600
v 0.235840 -1.843563 3.089691
v 0.198975 1.843563 2.605743
v -2.866699 0.163434 -2.394379
v -2.962891 1.843563 -0.148865
vt 0.943115 0.502157
vt 0.943115 0.502157
vt 0.943115 0.502157
vt 0.943115 0.502157
vt 0.943115 0.502157
vt 0.943115 0.502157
vt 0.943115 0.502157
vt 0.943115 0.502157
vt 0.943115 0.502157
vt 0.943115 0.502157
vt 0.943115 0.502157
vt 0.943115 0.502157
vn -0.354477 0.118177 0.927567
vn -0.354477 0.118177 0.927567
vn -0.354477 0.118177 0.927567
vn -0.354452 0.118203 0.927573
vn -0.354452 0.118203 0.927573
vn -0.354452 0.118203 0.927573
vn 0.000000 -1.000000 0.000000
vn 0.000000 -1.000000 0.000000
vn 0.000000 -1.000000 0.000000
vn 0.000000 -1.000000 -0.000000
vn 0.000000 -1.000000 -0.000000
vn 0.000000 -1.000000 -0.000000
vn 0.000000 -1.000000 0.000000
vn 0.000000 -1.000000 0.000000
vn 0.000000 -1.000000 0.000000
vn 0.945521 0.133246 -0.297044
vn 0.945521 0.133246 -0.297044
vn 0.945521 0.133246 -0.297044
vn 0.945511 0.133271 -0.297065
vn 0.945511 0.133271 -0.297065
vn 0.945511 0.133271 -0.297065
vn -0.512497 0.676865 -0.528395
vn -0.512497 0.676865 -0.528395
vn -0.512497 0.676865 -0.528395
vn 0.469480 0.119517 0.874817
vn 0.469480 0.119517 0.874817
vn 0.469480 0.119517 0.874817
vn 0.469464 0.119533 0.874823
vn 0.469464 0.119533 0.874823
vn 0.469464 0.119533 0.874823
vn -0.960748 0.269426 -0.066125
vn -0.960748 0.269426 -0.066125
vn -0.960748 0.269426 -0.066125
vn -0.981394 0.131190 -0.140199
vn -0.981394 0.131190 -0.140199
vn -0.981394 0.131190 -0.140199
vn -0.983334 0.147558 -0.106208
vn -0.983334 0.147558 -0.106208
vn -0.983334 0.147558 -0.106208
vn 0.000000 1.000000 0.000000
vn 0.000000 1.000000 0.000000
vn 0.000000 1.000000 0.000000
vn 0.000000 1.000000 0.000000
vn 0.000000 1.000000 0.000000
vn 0.000000 1.000000 0.000000
vn 0.000000 1.000000 0.000000
vn 0.000000 1.000000 0.000000
vn 0.000000 1.000000 0.000000
vn 0.000000 1.000000 0.000000
vn 0.000000 1.000000 0.000000
vn 0.000000 1.000000 0.000000
vn -0.042435 0.226820 -0.973012
vn -0.042435 0.226820 -0.973012
vn -0.042435 0.226820 -0.973012
vn -0.097138 0.090990 -0.991103
vn -0.097138 0.090990 -0.991103
vn -0.097138 0.090990 -0.991103
vn -0.054687 0.124563 -0.990703
vn -0.054687 0.124563 -0.990704
vn -0.054687 0.124563 -0.990703
s off
f 1/1/1 9/2/2 3/4/3
f 3/4/4 9/2/5 10/3/6
f 7/5/7 8/6/8 1/1/9
f 1/1/10 8/6/11 9/2/12
f 8/6/13 2/7/14 9/2/15
f 2/7/16 8/6/17 4/9/18
f 4/9/19 8/6/20 6/8/21
f 11/10/22 12/11/23 5/12/24
f 10/3/25 9/2/26 4/9/27
f 4/9/28 9/2/29 2/7/30
f 7/5/31 1/1/32 11/10/33
f 11/10/34 1/1/35 12/11/36
f 1/1/37 3/4/38 12/11/39
f 4/9/40 6/8/41 10/3/42
f 6/8/43 5/12/44 10/3/45
f 5/12/46 12/11/47 10/3/48
f 3/4/49 10/3/50 12/11/51
f 7/5/52 11/10/53 8/6/54
f 11/10/55 5/12/56 8/6/57
f 5/12/58 6/8/59 8/6/60
