# Blender v2.78 (sub 0) OBJ File: ''
# www.blender.org
mtllib SM_Item_Pouch_01.mtl
o SM_Item_Pouch_01
v 2.244212 13.618668 2.608683
v 2.244212 10.281532 2.771378
v 5.867661 13.618668 2.608683
v 5.867661 10.281532 2.771378
v 7.884441 14.289078 1.066481
v 2.244212 14.289078 1.066481
v 2.244212 1.404035 -3.589823
v 2.244212 13.840965 -3.589821
v 5.732750 1.404037 -3.589823
v 5.732750 13.840965 -3.589821
v 2.244212 1.252582 2.297005
v 2.244212 0.669944 1.066479
v 5.867661 1.252582 2.297005
v 6.386452 0.669944 1.066479
v 9.123512 2.153211 0.681504
v 9.123512 12.398205 0.681501
v 8.382355 2.615351 1.707510
v 8.382355 12.028080 1.707512
v -9.123512 2.153211 0.681504
v -8.382355 2.615351 1.707510
v -9.123512 12.398205 0.681501
v -8.382355 12.028080 1.707512
v 7.879406 12.800774 2.419840
v 8.576065 13.541466 0.758505
v 7.698315 12.198147 -3.128992
v 8.189705 11.931862 -3.013769
v 8.189705 2.735482 -3.013771
v -8.302402 13.689796 0.797007
v -7.627899 12.937042 2.478798
v -7.884441 14.289078 1.066481
v -5.867661 13.618668 2.608683
v -5.867661 10.281532 2.771378
v -6.386452 0.669944 1.066479
v -5.867661 1.252582 2.297005
v -5.732811 13.840965 -3.589821
v -5.732811 1.404037 -3.589823
v -7.452618 12.331291 -3.186607
v -8.189705 11.931862 -3.013769
v -8.189705 2.735482 -3.013771
v -7.627899 12.436905 1.884350
v -8.302402 12.843185 0.797007
v -5.867661 9.749363 2.297007
v 5.867661 9.749363 2.297007
v 2.244212 9.749363 2.297007
v 2.244212 6.589839 2.297006
v 2.244212 5.522388 2.297006
v 7.879406 12.300625 1.825359
v 8.576065 12.694855 0.758505
v 7.698315 13.214821 -3.128992
v -7.452618 13.347961 -3.186607
v 8.576065 12.694855 -2.242182
v 9.123512 12.398205 -2.154896
v 8.576065 13.541466 -2.242182
v 7.884441 14.289078 -2.591247
v 2.244212 14.289078 -2.591247
v -7.884441 14.289078 -2.591247
v -8.302402 13.689796 -2.285795
v -8.302402 12.843185 -2.285795
v -9.123512 12.398205 -2.154896
v -9.123512 2.153212 -2.154898
v -6.386452 0.669944 -2.591249
v 6.386452 0.669944 -2.591249
v 2.244212 0.669944 -2.591249
v 9.123512 2.153212 -2.154898
v -2.244212 1.404035 -3.589823
v -2.244212 13.840965 -3.589821
v -2.244212 14.289078 -2.591247
v -2.244212 14.289078 1.066481
v -2.244212 13.618668 2.608683
v -2.244212 10.281532 2.771378
v -2.244212 9.749363 2.297007
v -2.244212 1.252582 2.297005
v -2.244212 5.522388 2.297006
v -2.244212 6.589839 2.297006
v -2.244212 0.669944 1.066479
v -2.244212 0.669944 -2.591249
v -1.849331 14.466820 -3.969099
v 1.849331 14.466820 -3.969099
v -1.849331 0.806313 -3.969101
v 1.849331 0.806313 -3.969101
v -1.849331 14.959015 -2.851461
v 1.849331 14.959015 -2.851461
v -1.849331 14.959015 1.242508
v 1.849331 14.959015 1.242508
v -1.849331 14.222656 3.041414
v 1.849331 14.222656 3.041414
v -1.849331 14.222656 3.041414
v 1.849331 14.222656 3.041414
v -1.849331 0.639958 2.619745
v 1.849331 0.639958 2.619745
v -1.849331 5.803986 2.619746
v 1.849331 5.803988 2.619746
v -1.849331 0.000002 1.242506
v 1.849331 0.000002 1.242506
v -1.849331 0.000002 -2.851463
v 1.849331 0.000002 -2.851463
v 2.368525 7.165229 3.462701
v 2.368525 7.994530 3.426232
v -2.108943 4.678448 4.107411
v -2.108943 4.228106 3.625089
v 0.000000 3.069683 4.516659
v 0.000000 2.784871 4.025132
v 2.108943 4.228110 3.625089
v 2.108943 4.678448 4.107411
v -1.849331 8.054153 3.041413
v -2.368525 7.165229 3.462701
v -2.368525 7.994530 3.426232
v 1.849331 8.054153 3.041413
v 1.849331 6.659470 3.150683
v -1.849331 6.659470 3.150683
v 0.491595 5.394036 3.761838
v 0.548501 5.904650 3.515252
v -0.491595 5.394036 3.761838
v -0.548501 5.904650 3.515252
v -0.575579 8.546722 3.041414
v 0.575579 8.546722 3.041414
v -0.623248 9.299820 3.041414
v 0.623248 9.299820 3.041414
v -0.575579 11.129608 3.041414
v 0.575579 11.129608 3.041414
v -0.636248 11.923355 3.041414
v 0.636248 11.923355 3.041414
vt 0.0294 0.2715
vt 0.0294 0.2715
vt 0.0294 0.2715
vt 0.0294 0.2715
vt 0.0294 0.2715
vt 0.0294 0.2715
vt 0.0294 0.2715
vt 0.0294 0.2715
vt 0.0294 0.2715
vt 0.0294 0.2715
vt 0.0294 0.2715
vt 0.0294 0.2715
vt 0.0294 0.2715
vt 0.0294 0.2715
vt 0.0294 0.2715
vt 0.0294 0.2715
vt 0.0294 0.2715
vt 0.0294 0.2715
vt 0.0294 0.2715
vt 0.0294 0.2715
vt 0.0294 0.2715
vt 0.0294 0.2715
vt 0.0294 0.2715
vt 0.0294 0.2715
vt 0.0294 0.2715
vt 0.0294 0.2715
vt 0.0294 0.2715
vt 0.0294 0.2715
vt 0.0294 0.2715
vt 0.0294 0.2715
vt 0.0294 0.2715
vt 0.0294 0.2715
vt 0.0294 0.2715
vt 0.0294 0.2715
vt 0.0294 0.2715
vt 0.0294 0.2715
vt 0.0294 0.2715
vt 0.0294 0.2715
vt 0.0294 0.2715
vt 0.0294 0.2715
vt 0.0294 0.2715
vt 0.0294 0.2715
vt 0.0294 0.2715
vt 0.0294 0.2715
vt 0.0294 0.2715
vt 0.0294 0.2715
vt 0.0294 0.2715
vt 0.0294 0.2715
vt 0.0294 0.2715
vt 0.0294 0.2715
vt 0.0294 0.2715
vt 0.0294 0.2715
vt 0.0294 0.2715
vt 0.0294 0.2715
vt 0.0294 0.2715
vt 0.0294 0.2715
vt 0.0294 0.2715
vt 0.0294 0.2715
vt 0.0294 0.2715
vt 0.0294 0.2715
vt 0.0294 0.2715
vt 0.0294 0.2715
vt 0.0294 0.2715
vt 0.0294 0.2715
vt 0.0294 0.2715
vt 0.0294 0.2715
vt 0.0294 0.2715
vt 0.0294 0.2715
vt 0.0294 0.2715
vt 0.0294 0.2715
vt 0.0294 0.2715
vt 0.0294 0.2715
vt 0.0294 0.2715
vt 0.0294 0.2715
vt 0.0294 0.2715
vt 0.0294 0.2715
vt 0.0316 0.3272
vt 0.0316 0.3272
vt 0.0316 0.3272
vt 0.0316 0.3272
vt 0.0316 0.3272
vt 0.0316 0.3272
vt 0.0316 0.3272
vt 0.0316 0.3272
vt 0.0316 0.3272
vt 0.0316 0.3272
vt 0.0316 0.3272
vt 0.0316 0.3272
vt 0.0316 0.3272
vt 0.0316 0.3272
vt 0.0316 0.3272
vt 0.0316 0.3272
vt 0.0316 0.3272
vt 0.0316 0.3272
vt 0.0316 0.3272
vt 0.0316 0.3272
vt 0.0316 0.3272
vt 0.0316 0.3272
vt 0.0316 0.3272
vt 0.0316 0.3272
vt 0.0316 0.3272
vt 0.0316 0.3272
vt 0.0316 0.3272
vt 0.0316 0.3272
vt 0.0316 0.3272
vt 0.0316 0.3272
vt 0.0316 0.3272
vt 0.0316 0.3272
vt 0.0316 0.3272
vt 0.0316 0.3272
vt 0.5589 0.4263
vt 0.5589 0.4263
vt 0.5589 0.4263
vt 0.5589 0.4263
vt 0.0316 0.3272
vt 0.0316 0.3272
vt 0.0316 0.3272
vt 0.0316 0.3272
vt 0.0316 0.3272
vt 0.0316 0.3272
vt 0.0316 0.3272
vt 0.0316 0.3272
vt 0.0316 0.3272
vt 0.0316 0.3272
vt 0.0316 0.3272
vt 0.0316 0.3272
vt 0.0316 0.3272
vt 0.5595 0.4232
vt 0.5589 0.4263
vt 0.5593 0.4242
vt 0.5589 0.4263
vt 0.0316 0.3272
vt 0.0316 0.3272
vt 0.0316 0.3272
vt 0.0316 0.3272
vt 0.5589 0.4263
vt 0.5589 0.4263
vt 0.5589 0.4263
vt 0.5589 0.4263
vt 0.5589 0.4263
vt 0.5589 0.4263
vt 0.0316 0.2224
vt 0.0316 0.2224
vt 0.0316 0.2224
vt 0.0316 0.2224
vt 0.0316 0.3272
vt 0.0316 0.3272
vt 0.0316 0.3272
vt 0.0316 0.3272
vt 0.0316 0.3272
vt 0.0316 0.3272
vt 0.0316 0.3272
vt 0.0316 0.2224
vt 0.0316 0.2224
vt 0.0316 0.2224
vt 0.0316 0.2224
vt 0.0316 0.2224
vt 0.0316 0.2224
vt 0.0316 0.2224
vt 0.0316 0.2224
vt 0.0316 0.3272
vt 0.0316 0.3272
vt 0.0316 0.3272
vt 0.0316 0.3272
vt 0.0316 0.3272
vt 0.0316 0.3272
vt 0.0316 0.3272
vt 0.0316 0.3272
vn 0.0000 0.0487 0.9988
vn 0.0000 0.9171 0.3987
vn 0.0000 0.0000 -1.0000
vn 0.0000 -0.9038 0.4279
vn 0.8106 0.0000 0.5856
vn -0.8106 0.0000 0.5856
vn 0.1128 0.0484 0.9924
vn 0.7259 0.4614 0.5101
vn 0.3242 0.6358 0.7004
vn 0.2283 0.0000 -0.9736
vn 0.4962 -0.6849 0.5335
vn 0.4412 -0.6548 0.6136
vn -0.8064 0.3471 0.4788
vn -0.3060 0.6593 0.6868
vn -0.0922 0.0485 0.9946
vn -0.4412 -0.6548 0.6136
vn -0.4962 -0.6849 0.5335
vn -0.2283 0.0000 -0.9736
vn -0.4930 0.6693 0.5559
vn -0.4514 0.6842 0.5729
vn -0.2282 -0.0000 0.9736
vn 0.0000 -0.0000 1.0000
vn 0.2282 -0.0000 0.9736
vn 0.2282 0.0001 0.9736
vn 0.4513 0.6842 0.5729
vn 0.4914 0.6623 0.5656
vn 0.0000 -0.6654 0.7465
vn 0.7137 -0.4661 0.5229
vn 0.7308 -0.5223 0.4394
vn 0.8373 0.0000 0.5468
vn 0.9201 -0.2997 0.2522
vn -0.8498 0.0000 0.5271
vn -0.9263 -0.2882 0.2425
vn -0.7658 -0.4279 0.4800
vn -0.7836 -0.4754 0.3999
vn 0.4764 0.8792 0.0000
vn 1.0000 -0.0000 0.0000
vn 0.7341 0.6791 0.0000
vn 0.0000 1.0000 0.0000
vn -0.8202 0.5721 0.0000
vn -1.0000 0.0000 0.0000
vn -0.4765 0.8792 0.0000
vn -0.4765 -0.8792 -0.0000
vn 0.0000 -1.0000 -0.0000
vn 0.4765 -0.8792 -0.0000
vn 0.6770 0.0000 -0.7360
vn 0.4493 0.5125 -0.7318
vn 0.4091 0.5381 -0.7370
vn 0.7107 0.0000 -0.7035
vn 0.3238 0.3781 -0.8673
vn 0.6395 0.2526 -0.7261
vn 0.0000 0.9123 -0.4094
vn -0.6971 0.1265 -0.7057
vn -0.3162 0.3993 -0.8606
vn -0.7274 0.0000 -0.6862
vn -0.4091 0.5381 -0.7370
vn -0.4524 0.5218 -0.7233
vn -0.6770 0.0000 -0.7360
vn -0.4597 -0.5448 -0.7014
vn -0.3947 -0.5020 -0.7695
vn 0.0000 -0.8057 -0.5923
vn 0.3947 -0.5020 -0.7695
vn 0.4597 -0.5448 -0.7014
vn 0.0000 0.9152 -0.4030
vn 0.0000 0.9255 0.3788
vn -0.2581 0.4436 0.8583
vn -0.1081 -0.0000 0.9941
vn 0.3361 0.3917 0.8565
vn 0.0000 -0.9069 0.4214
vn 0.0000 -0.8110 -0.5851
vn -0.8662 0.4582 0.1992
vn -0.8776 0.4437 0.1816
vn -0.6328 -0.0000 0.7743
vn -0.8685 -0.4480 0.2121
vn -0.8680 -0.4491 0.2120
vn -0.8658 -0.4537 0.2113
vn -0.8653 -0.4545 0.2112
vn -0.6927 0.0000 -0.7212
vn -0.8615 0.5078 0.0000
vn -0.8615 -0.5078 -0.0000
vn -0.8762 0.4398 -0.1974
vn -0.8782 0.4376 -0.1930
vn -0.8764 0.4395 -0.1968
vn -0.8784 0.4375 -0.1926
vn -0.8728 -0.3932 -0.2891
vn -0.8700 -0.3995 -0.2889
vn -0.8724 -0.3942 -0.2890
vn -0.8696 -0.4004 -0.2889
vn 0.6927 0.0000 -0.7212
vn 0.8762 0.4398 -0.1974
vn 0.8764 0.4395 -0.1968
vn 0.8782 0.4376 -0.1930
vn 0.8784 0.4375 -0.1926
vn 0.8615 0.5078 0.0000
vn 0.8662 0.4582 0.1992
vn 0.8776 0.4437 0.1816
vn 0.9944 0.0000 -0.1060
vn 0.9945 -0.0035 -0.1043
vn 0.9944 -0.0010 -0.1056
vn 0.9946 -0.0046 -0.1038
vn 0.8685 -0.4480 0.2121
vn 0.8658 -0.4537 0.2113
vn 0.8680 -0.4491 0.2120
vn 0.8653 -0.4545 0.2112
vn 0.8615 -0.5078 -0.0000
vn 0.8728 -0.3932 -0.2891
vn 0.8724 -0.3942 -0.2890
vn 0.8700 -0.3995 -0.2889
vn 0.8696 -0.4004 -0.2889
vn -0.5679 -0.6016 0.5617
vn -0.5664 -0.7131 0.4132
vn 0.0000 -0.2671 -0.9637
vn 0.5679 -0.6016 0.5617
vn 0.5664 -0.7131 0.4132
vn 0.0000 0.2465 0.9691
vn -0.5659 0.4027 0.7194
vn -0.8834 0.0000 0.4686
vn -0.7387 -0.0000 0.6741
vn -0.3781 0.0451 0.9247
vn -0.9736 -0.1519 0.1704
vn -0.9944 0.0000 -0.1060
vn -0.9944 -0.0010 -0.1056
vn -0.9945 -0.0035 -0.1043
vn -0.9946 -0.0046 -0.1038
vn 0.0000 0.0439 0.9990
vn 0.6368 0.6412 0.4283
vn 0.8834 0.0000 0.4686
vn 0.7387 -0.0000 0.6741
vn 0.3781 0.0451 0.9247
vn 0.9736 -0.1519 0.1704
vn 0.5544 0.4911 -0.6719
vn 0.3034 -0.5025 0.8096
vn 0.0789 -0.5808 0.8102
vn -0.3034 -0.5025 0.8096
vn -0.0789 -0.5808 0.8102
vn -0.5544 0.4911 -0.6719
vn 0.0000 -0.5251 0.8511
vn 0.0000 0.9882 0.1531
vn 0.0000 0.4349 0.9005
vn -0.9904 0.0730 -0.1176
vn -0.9902 0.1022 -0.0955
vn 0.0000 -0.5378 -0.8431
vn 0.9904 0.0730 -0.1176
vn 0.9902 0.1022 -0.0954
vn 0.6328 -0.0000 0.7743
usemtl None
s 1
f 1/1/1 2/2/1 3/3/1
f 3/3/1 2/2/1 4/4/1
f 5/5/2 6/6/2 3/3/2
f 3/3/2 6/6/2 1/1/2
f 7/7/3 8/8/3 9/9/3
f 9/9/3 8/8/3 10/10/3
f 11/11/4 12/12/4 13/13/4
f 13/13/4 12/12/4 14/14/4
f 15/15/5 16/16/5 17/17/5
f 17/17/5 16/16/5 18/18/5
f 19/19/6 20/20/6 21/21/6
f 21/21/6 20/20/6 22/22/6
f 3/3/7 4/4/7 23/23/7
f 24/24/8 5/5/8 23/23/8
f 23/23/9 5/5/9 3/3/9
f 10/10/10 25/25/10 9/9/10
f 25/25/10 26/26/10 9/9/10
f 9/9/10 26/26/10 27/27/10
f 13/13/11 14/14/11 17/17/11
f 17/17/12 14/14/12 15/15/12
f 28/28/13 29/29/13 30/30/13
f 30/30/14 29/29/14 31/31/14
f 29/29/15 32/32/15 31/31/15
f 19/19/16 33/33/16 20/20/16
f 20/20/17 33/33/17 34/34/17
f 35/35/18 36/36/18 37/37/18
f 37/37/18 36/36/18 38/38/18
f 38/38/18 36/36/18 39/39/18
f 40/40/19 41/41/19 22/22/19
f 22/22/20 41/41/20 21/21/20
f 34/34/21 42/42/21 20/20/21
f 40/40/21 22/22/21 42/42/21
f 20/20/21 42/42/21 22/22/21
f 43/43/22 44/44/22 13/13/22
f 44/44/22 45/45/22 13/13/22
f 45/45/22 46/46/22 13/13/22
f 46/46/22 11/11/22 13/13/22
f 13/13/23 17/17/23 43/43/23
f 47/47/24 43/43/23 18/18/23
f 43/43/23 17/17/23 18/18/23
f 16/16/25 48/48/25 18/18/25
f 18/18/26 48/48/26 47/47/26
f 2/2/27 44/44/27 4/4/27
f 4/4/27 44/44/27 43/43/27
f 43/43/28 47/47/28 4/4/28
f 4/4/29 47/47/29 23/23/29
f 48/48/30 24/24/30 47/47/30
f 47/47/31 24/24/31 23/23/31
f 25/25/10 10/10/10 49/49/10
f 41/41/32 40/40/32 28/28/32
f 28/28/33 40/40/33 29/29/33
f 35/35/18 37/37/18 50/50/18
f 42/42/34 32/32/34 40/40/34
f 40/40/35 32/32/35 29/29/35
f 51/51/36 48/48/36 52/52/36
f 52/52/36 48/48/36 16/16/36
f 24/24/37 48/48/37 53/53/37
f 53/53/37 48/48/37 51/51/37
f 54/54/38 5/5/38 53/53/38
f 53/53/38 5/5/38 24/24/38
f 54/54/39 55/55/39 5/5/39
f 5/5/39 55/55/39 6/6/39
f 56/56/40 57/57/40 30/30/40
f 30/30/40 57/57/40 28/28/40
f 57/57/41 58/58/41 28/28/41
f 28/28/41 58/58/41 41/41/41
f 21/21/42 41/41/42 59/59/42
f 59/59/42 41/41/42 58/58/42
f 59/59/41 60/60/41 21/21/41
f 21/21/41 60/60/41 19/19/41
f 61/61/43 33/33/43 60/60/43
f 60/60/43 33/33/43 19/19/43
f 14/14/44 12/12/44 62/62/44
f 62/62/44 12/12/44 63/63/44
f 15/15/45 14/14/45 64/64/45
f 64/64/45 14/14/45 62/62/45
f 16/16/37 15/15/37 52/52/37
f 52/52/37 15/15/37 64/64/37
f 64/64/46 27/27/46 52/52/46
f 52/52/46 27/27/46 26/26/46
f 25/25/47 51/51/47 26/26/47
f 26/26/48 51/51/48 52/52/48
f 53/53/49 51/51/49 49/49/49
f 49/49/49 51/51/49 25/25/49
f 10/10/50 54/54/50 49/49/50
f 49/49/51 54/54/51 53/53/51
f 8/8/52 55/55/52 10/10/52
f 10/10/52 55/55/52 54/54/52
f 57/57/53 56/56/53 50/50/53
f 50/50/54 56/56/54 35/35/54
f 37/37/55 58/58/55 50/50/55
f 50/50/55 58/58/55 57/57/55
f 59/59/56 58/58/56 38/38/56
f 38/38/57 58/58/57 37/37/57
f 60/60/58 59/59/58 39/39/58
f 39/39/58 59/59/58 38/38/58
f 36/36/59 61/61/59 39/39/59
f 39/39/60 61/61/60 60/60/60
f 62/62/61 63/63/61 9/9/61
f 9/9/61 63/63/61 7/7/61
f 64/64/62 62/62/62 27/27/62
f 27/27/63 62/62/63 9/9/63
f 36/36/3 35/35/3 65/65/3
f 65/65/3 35/35/3 66/66/3
f 56/56/52 67/67/52 35/35/52
f 35/35/52 67/67/52 66/66/52
f 68/68/39 67/67/39 30/30/39
f 30/30/39 67/67/39 56/56/39
f 69/69/2 68/68/2 31/31/2
f 31/31/2 68/68/2 30/30/2
f 31/31/1 32/32/1 69/69/1
f 69/69/1 32/32/1 70/70/1
f 42/42/27 71/71/27 32/32/27
f 32/32/27 71/71/27 70/70/27
f 72/72/22 73/73/22 34/34/22
f 34/34/22 73/73/22 42/42/22
f 73/73/22 74/74/22 42/42/22
f 74/74/22 71/71/22 42/42/22
f 33/33/4 75/75/4 34/34/4
f 34/34/4 75/75/4 72/72/4
f 76/76/44 75/75/44 61/61/44
f 61/61/44 75/75/44 33/33/44
f 65/65/61 76/76/61 36/36/61
f 36/36/61 76/76/61 61/61/61
f 77/77/3 78/78/3 79/79/3
f 79/79/3 78/78/3 80/80/3
f 81/81/64 82/82/64 77/77/64
f 77/77/64 82/82/64 78/78/64
f 83/83/39 84/84/39 81/81/39
f 81/81/39 84/84/39 82/82/39
f 85/85/65 86/86/65 83/83/65
f 83/83/65 86/86/65 84/84/65
f 85/85/66 87/87/67 86/86/68
f 87/87/67 88/88/22 86/86/68
f 89/89/22 90/90/22 91/91/22
f 91/91/22 90/90/22 92/92/22
f 93/93/69 94/94/69 89/89/69
f 89/89/69 94/94/69 90/90/69
f 95/95/44 96/96/44 93/93/44
f 93/93/44 96/96/44 94/94/44
f 79/79/70 80/80/70 95/95/70
f 95/95/70 80/80/70 96/96/70
f 68/97/71 69/98/71 83/83/71
f 83/83/72 69/98/72 85/85/72
f 73/99/73 72/100/73 91/91/73
f 91/91/73 72/100/73 89/89/73
f 72/100/74 75/101/75 89/89/76
f 89/89/76 75/101/75 93/93/77
f 65/102/78 66/103/78 79/79/78
f 79/79/78 66/103/78 77/77/78
f 68/97/79 83/83/79 67/104/79
f 67/104/79 83/83/79 81/81/79
f 75/101/80 76/105/80 93/93/80
f 93/93/80 76/105/80 95/95/80
f 67/104/81 81/81/82 66/103/83
f 66/103/83 81/81/82 77/77/84
f 65/102/85 79/79/86 76/105/87
f 76/105/87 79/79/86 95/95/88
f 7/106/89 80/80/89 8/107/89
f 8/107/89 80/80/89 78/78/89
f 55/108/90 8/107/91 82/82/92
f 82/82/92 8/107/91 78/78/93
f 6/109/94 55/108/94 84/84/94
f 84/84/94 55/108/94 82/82/94
f 6/109/95 84/84/95 1/110/95
f 1/110/96 84/84/96 86/86/96
f 46/111/97 45/112/98 97/113/99
f 97/113/99 45/112/98 98/114/100
f 11/115/101 90/90/102 12/116/103
f 12/116/103 90/90/102 94/94/104
f 12/116/105 94/94/105 63/117/105
f 63/117/105 94/94/105 96/96/105
f 7/106/106 63/117/107 80/80/108
f 80/80/108 63/117/107 96/96/109
f 99/118/110 100/119/110 101/120/110
f 101/120/111 100/119/111 102/121/111
f 102/121/112 100/119/112 103/122/112
f 104/123/113 101/120/113 103/122/113
f 103/122/114 101/120/114 102/121/114
f 101/120/115 104/123/115 99/118/115
f 85/85/66 69/98/116 87/87/67
f 74/124/117 105/125/117 71/126/117
f 87/87/118 69/98/118 105/125/118
f 69/98/119 70/127/119 105/125/119
f 105/125/120 70/127/120 71/126/120
f 73/128/121 106/129/122 74/130/123
f 74/130/123 106/129/122 107/131/124
f 106/129/125 97/113/125 107/131/125
f 107/131/125 97/113/125 98/114/125
f 88/88/22 108/132/126 86/86/68
f 45/133/127 44/134/127 108/132/127
f 86/86/128 108/132/128 1/110/128
f 1/110/129 108/132/129 2/135/129
f 108/132/130 44/134/130 2/135/130
f 45/112/131 108/136/131 98/114/131
f 92/137/132 46/111/132 109/138/132
f 109/138/133 46/111/133 97/113/133
f 91/139/134 110/140/134 73/128/134
f 73/128/135 110/140/135 106/129/135
f 105/141/136 74/130/136 107/131/136
f 106/129/137 110/140/137 97/113/137
f 97/113/137 110/140/137 109/138/137
f 107/131/138 98/114/138 105/141/138
f 105/141/138 98/114/138 108/136/138
f 111/142/139 112/143/139 113/144/139
f 113/144/139 112/143/139 114/145/139
f 110/146/140 91/91/140 99/118/140
f 99/118/141 91/91/141 100/119/141
f 100/119/142 91/91/142 103/122/142
f 103/122/142 91/91/142 92/92/142
f 109/147/143 104/123/143 92/92/143
f 92/92/144 104/123/144 103/122/144
f 46/148/145 92/92/145 11/115/145
f 11/115/145 92/92/145 90/90/145
f 112/149/139 109/147/139 114/150/139
f 114/150/139 109/147/139 110/146/139
f 104/123/139 109/147/139 111/151/139
f 111/151/139 109/147/139 112/149/139
f 99/118/139 113/152/139 110/146/139
f 110/146/139 113/152/139 114/150/139
f 111/151/139 113/152/139 104/123/139
f 104/123/139 113/152/139 99/118/139
f 115/153/22 116/154/22 117/155/22
f 117/155/22 116/154/22 118/156/22
f 119/157/22 120/158/22 121/159/22
f 121/159/22 120/158/22 122/160/22
f 115/161/22 105/125/22 116/162/22
f 116/162/22 105/125/22 108/132/22
f 88/88/22 122/163/22 108/132/22
f 122/163/22 120/164/22 108/132/22
f 120/164/22 118/165/22 108/132/22
f 118/165/22 116/162/22 108/132/22
f 87/87/22 105/125/22 121/166/22
f 121/166/22 105/125/22 119/167/22
f 119/167/22 105/125/22 117/168/22
f 105/125/22 115/161/22 117/168/22
f 121/166/22 122/163/22 87/87/22
f 87/87/22 122/163/22 88/88/22
f 117/168/22 118/165/22 119/167/22
f 119/167/22 118/165/22 120/164/22
