# This file uses centimeters as units for non-parametric coordinates.

v -4.979557 0.000000 3.298592
v 4.979557 0.000000 3.298592
v -5.440082 14.223246 3.603655
v 5.440082 13.680920 3.603655
v -5.440082 14.366853 -3.603655
v 5.440082 12.561411 -3.603655
v -4.979557 0.000000 -3.298592
v 4.979557 0.000000 -3.298592
v -8.350446 2.808641 -5.531558
v -8.350446 4.034731 5.531558
v 8.350446 2.588441 5.531558
v 8.350446 4.331725 -5.531558
v 8.350446 10.661316 5.531558
v -8.350446 11.203641 5.531558
v -8.350446 11.347249 -5.531558
v 8.350446 9.541805 -5.531558
v -0.824821 3.056219 -8.997534
v -0.824821 9.541805 -8.997534
v -0.537348 12.561411 -5.861642
v -0.537348 13.037926 5.861642
v -0.824821 10.018322 8.997534
v -0.824821 2.539024 8.997534
v -0.491860 0.000000 5.365431
v -0.491860 0.000000 -5.365431
v -0.627078 10.559978 0.000000
v -0.627078 2.768500 0.000000
vt 0.264049 0.707554
vt 0.264049 0.707554
vt 0.264049 0.707554
vt 0.264049 0.707554
vt 0.264049 0.707554
vt 0.264049 0.707554
vt 0.264049 0.707554
vt 0.264049 0.707554
vt 0.264049 0.707554
vt 0.264049 0.707554
vt 0.264049 0.707554
vt 0.264049 0.707554
vt 0.264049 0.707554
vt 0.264049 0.707554
vt 0.264049 0.707554
vt 0.264049 0.707554
vt 0.264049 0.707554
vt 0.264049 0.707554
vt 0.264049 0.707554
vt 0.264049 0.707554
vt 0.264049 0.707554
vt 0.264049 0.707554
vt 0.264049 0.707554
vt 0.264049 0.707554
vt 0.264049 0.707554
vt 0.264049 0.707554
vt 0.264049 0.707554
vt 0.264049 0.707554
vt 0.264049 0.707554
vt 0.264049 0.707554
vt 0.264049 0.707554
vt 0.264049 0.707554
vt 0.264049 0.707554
vt 0.264049 0.707554
vt 0.264049 0.707554
vt 0.264049 0.707554
vt 0.264049 0.707554
vn 0.353380 -0.000000 0.935480
vn 0.353380 -0.000000 0.935480
vn 0.353380 -0.000000 0.935480
vn 0.353380 0.000000 0.935480
vn 0.353380 0.000000 0.935480
vn 0.353379 0.000000 0.935480
vn -0.120548 0.940016 0.319120
vn -0.120548 0.940016 0.319120
vn -0.120548 0.940016 0.319120
vn 0.353380 0.000000 -0.935480
vn 0.353380 0.000000 -0.935480
vn 0.353379 0.000000 -0.935480
vn 0.353380 0.000000 -0.935480
vn 0.353380 0.000000 -0.935480
vn 0.353380 0.000000 -0.935480
vn -0.169436 -0.877556 -0.448539
vn -0.169436 -0.877556 -0.448539
vn -0.169436 -0.877556 -0.448539
vn 1.000000 0.000000 0.000000
vn 1.000000 0.000000 0.000000
vn 1.000000 0.000000 0.000000
vn 1.000000 0.000000 0.000000
vn 1.000000 0.000000 0.000000
vn 1.000000 0.000000 0.000000
vn -1.000000 0.000000 0.000000
vn -1.000000 0.000000 0.000000
vn -1.000000 0.000000 0.000000
vn -1.000000 0.000000 0.000000
vn -1.000000 0.000000 0.000000
vn -1.000000 0.000000 0.000000
vn -0.640126 -0.768270 0.000000
vn -0.640126 -0.768270 0.000000
vn -0.640126 -0.768270 0.000000
vn -0.744955 -0.663055 0.073484
vn -0.744955 -0.663055 0.073484
vn -0.744955 -0.663055 0.073484
vn 0.216308 -0.790771 0.572619
vn 0.216308 -0.790771 0.572619
vn 0.216308 -0.790771 0.572619
vn 0.221994 -0.786393 0.576459
vn 0.221994 -0.786393 0.576459
vn 0.221994 -0.786393 0.576459
vn 0.609038 -0.793141 0.000000
vn 0.609038 -0.793141 0.000000
vn 0.609038 -0.793141 0.000000
vn 0.759146 -0.642986 -0.101319
vn 0.759146 -0.642986 -0.101319
vn 0.759146 -0.642986 -0.101319
vn 0.240898 -0.731634 -0.637714
vn 0.240898 -0.731634 -0.637714
vn 0.240898 -0.731634 -0.637714
vn 0.349600 -0.629676 -0.693750
vn 0.349600 -0.629676 -0.693750
vn 0.349600 -0.629676 -0.693750
vn 0.185561 0.699272 0.690352
vn 0.185561 0.699272 0.690352
vn 0.185561 0.699272 0.690352
vn 0.221728 0.667529 0.710804
vn 0.221728 0.667529 0.710804
vn 0.221728 0.667529 0.710804
vn -0.717089 0.696923 0.009047
vn -0.717089 0.696923 0.009047
vn -0.717089 0.696923 0.009047
vn -0.724310 0.689337 0.013735
vn -0.724310 0.689337 0.013735
vn -0.724310 0.689337 0.013735
vn 0.257757 0.684082 -0.682344
vn 0.257757 0.684082 -0.682344
vn 0.257757 0.684082 -0.682344
vn 0.257757 0.684082 -0.682344
vn 0.257757 0.684082 -0.682344
vn 0.257757 0.684082 -0.682344
vn 0.694615 0.715727 -0.072427
vn 0.694615 0.715727 -0.072427
vn 0.694615 0.715727 -0.072427
vn 0.747970 0.655867 -0.101876
vn 0.747970 0.655867 -0.101876
vn 0.747970 0.655867 -0.101876
vn -0.418323 0.000000 -0.908298
vn -0.418323 0.000000 -0.908298
vn -0.418323 0.000000 -0.908298
vn -0.418323 0.000000 -0.908298
vn -0.418323 0.000000 -0.908298
vn -0.418323 0.000000 -0.908298
vn -0.128915 0.618929 -0.774795
vn -0.128915 0.618929 -0.774795
vn -0.128915 0.618929 -0.774795
vn -0.140554 0.719592 -0.680023
vn -0.140555 0.719592 -0.680023
vn -0.140555 0.719592 -0.680023
vn 0.613008 0.789920 0.015739
vn 0.613008 0.789920 0.015739
vn 0.613008 0.789920 0.015739
vn -0.196258 0.715256 0.670740
vn -0.196258 0.715256 0.670740
vn -0.196258 0.715256 0.670740
vn -0.183461 0.648502 0.738774
vn -0.183461 0.648502 0.738774
vn -0.183461 0.648502 0.738774
vn -0.418323 0.000000 0.908298
vn -0.418323 0.000000 0.908298
vn -0.418323 0.000000 0.908298
vn -0.418323 0.000000 0.908298
vn -0.418323 0.000000 0.908298
vn -0.418323 0.000000 0.908298
vn -0.248499 -0.804438 0.539563
vn -0.248499 -0.804438 0.539563
vn -0.248499 -0.804438 0.539563
vn -0.413785 -0.680429 0.604813
vn -0.413785 -0.680429 0.604813
vn -0.413785 -0.680429 0.604813
vn 0.208455 -0.866999 -0.452615
vn 0.208455 -0.866999 -0.452615
vn 0.208455 -0.866999 -0.452615
vn -0.247292 -0.767256 -0.591748
vn -0.247292 -0.767256 -0.591748
vn -0.247292 -0.767256 -0.591748
vn -0.277915 -0.747416 -0.603434
vn -0.277915 -0.747416 -0.603434
vn -0.277915 -0.747416 -0.603434
vn 0.374498 0.851980 -0.365899
vn 0.374498 0.851980 -0.365899
vn 0.374498 0.851980 -0.365899
vn -0.238062 0.895899 -0.375088
vn -0.238062 0.895899 -0.375088
vn -0.238062 0.895899 -0.375088
vn -0.384985 0.911986 -0.141659
vn -0.384985 0.911986 -0.141659
vn -0.384985 0.911986 -0.141659
vn 0.446925 0.844468 0.295182
vn 0.446925 0.844468 0.295182
vn 0.446925 0.844468 0.295182
vn 0.208455 -0.866999 0.452615
vn 0.208455 -0.866999 0.452615
vn 0.208455 -0.866999 0.452615
vn -0.442753 -0.896644 0.000000
vn -0.442753 -0.896644 0.000000
vn -0.442753 -0.896644 0.000000
vn 0.536702 -0.843772 0.000000
vn 0.536702 -0.843772 0.000000
vn 0.536702 -0.843772 0.000000
vn -0.169436 -0.877556 0.448539
vn -0.169436 -0.877556 0.448539
vn -0.169436 -0.877556 0.448539
s off
f 22/32/1 11/18/2 21/31/3
f 21/31/4 11/18/5 13/21/6
f 19/29/7 25/36/8 6/6/9
f 17/27/10 18/28/11 12/19/12
f 12/19/13 18/28/14 16/25/15
f 23/34/16 26/37/17 2/10/18
f 11/18/19 12/20/20 13/21/21
f 13/21/22 12/20/23 16/26/24
f 9/15/25 10/17/26 15/23/27
f 15/23/28 10/17/29 14/22/30
f 7/13/31 1/1/32 9/15/33
f 9/15/34 1/1/35 10/17/36
f 23/33/37 2/2/38 22/32/39
f 22/32/40 2/2/41 11/18/42
f 2/2/43 8/11/44 11/18/45
f 11/18/46 8/11/47 12/20/48
f 24/35/49 17/27/50 8/8/51
f 8/8/52 17/27/53 12/19/54
f 20/30/55 21/31/56 4/4/57
f 4/4/58 21/31/59 13/21/60
f 14/22/61 3/3/62 15/23/63
f 15/23/64 3/3/65 5/14/66
f 19/29/67 6/6/68 18/28/69
f 18/28/70 6/6/71 16/25/72
f 16/26/73 6/12/74 13/21/75
f 13/21/76 6/12/77 4/4/78
f 15/24/79 18/28/80 9/16/81
f 9/16/82 18/28/83 17/27/84
f 5/5/85 19/29/86 15/24/87
f 15/24/88 19/29/89 18/28/90
f 3/3/91 25/36/92 5/5/93
f 21/31/94 20/30/95 14/22/96
f 14/22/97 20/30/98 3/3/99
f 22/32/100 21/31/101 10/17/102
f 10/17/103 21/31/104 14/22/105
f 23/33/106 22/32/107 1/1/108
f 1/1/109 22/32/110 10/17/111
f 1/9/112 26/37/113 23/34/114
f 9/16/115 17/27/116 7/7/117
f 7/7/118 17/27/119 24/35/120
f 3/3/121 20/30/122 25/36/123
f 4/4/124 25/36/125 20/30/126
f 6/6/127 25/36/128 4/4/129
f 5/5/130 25/36/131 19/29/132
f 7/7/133 24/35/134 26/37/135
f 2/10/136 26/37/137 8/8/138
f 7/7/139 26/37/140 1/9/141
f 8/8/142 26/37/143 24/35/144
