# Blender v2.78 (sub 0) OBJ File: ''
# www.blender.org
mtllib SM_Item_Wine_02.mtl
o SM_Item_Wine_02
v 0.000000 33.867222 2.899321
v 0.000000 28.781025 7.185376
v 2.075487 33.867222 2.075553
v 5.143799 28.781025 5.143865
v 0.035278 46.863510 -2.758682
v 0.000000 47.124817 0.000039
v 2.006883 47.040195 -1.959237
v 2.767540 47.267895 0.021920
v 0.000000 33.867203 -2.899249
v 2.075487 33.867203 -2.075481
v 0.000000 28.781025 -7.185366
v 5.143799 28.781025 -5.143794
v 5.034580 0.000000 0.000031
v 0.000000 0.000000 0.000031
v 3.604141 0.000000 -3.604111
v 0.000000 0.000000 -5.034550
v 2.899315 33.867214 0.000037
v 7.185432 28.781025 0.000036
v -5.143799 28.781025 -5.143794
v -7.185371 28.781025 0.000036
v -2.075487 33.867203 -2.075481
v -2.899254 33.867214 0.000037
v 0.000000 20.098680 7.185374
v 5.143799 20.098682 5.143863
v 7.185432 20.098682 0.000034
v 5.143799 2.771950 -5.143798
v 7.185432 11.454294 0.000033
v 7.185432 2.771950 0.000031
v 0.000000 2.771952 -7.185370
v -5.143799 2.771950 -5.143798
v -7.185371 2.771950 0.000031
v 2.114891 43.519257 0.000038
v 2.899315 43.519257 0.000038
v 1.514024 43.519257 -1.513956
v 2.075487 43.519253 -2.075480
v 0.000000 43.519257 2.114929
v 0.000000 43.519257 2.899322
v 1.514024 43.519257 1.514000
v 2.075487 43.519257 2.075555
v -2.075487 43.519253 -2.075480
v -2.899254 43.519257 0.000038
v -1.513963 43.519257 -1.513956
v -2.114891 43.519257 0.000038
v 0.000000 43.519253 -2.899247
v 0.000000 43.519257 -2.114884
v 0.000000 0.000000 5.034580
v 3.604141 0.000000 3.604141
v 0.000000 2.771948 7.185371
v 5.143799 2.771950 5.143860
v -5.034580 0.000000 0.000031
v -3.604141 0.000000 -3.604111
v -2.767540 46.981743 -0.021843
v -1.956101 46.835312 -1.990609
v -2.075487 43.519257 2.075555
v -1.513963 43.519257 1.514000
v -5.143799 28.781025 5.143865
v -2.075487 33.867222 2.075553
v -5.143799 20.098682 5.143863
v -3.604141 0.000000 3.604141
v -5.143799 2.771950 5.143860
v -5.143799 11.454293 5.143862
v -0.035278 47.386124 2.758728
v -2.006822 47.209442 1.959283
v 1.956162 47.414326 1.990655
v 0.000000 11.454293 7.185373
v 5.143799 11.454293 5.143862
vt 0.0311 0.8922
vt 0.0311 0.8922
vt 0.0311 0.8922
vt 0.0311 0.8922
vt 0.1561 0.5285
vt 0.1561 0.5285
vt 0.1561 0.5285
vt 0.1561 0.5285
vt 0.0311 0.8922
vt 0.0311 0.8922
vt 0.0311 0.8922
vt 0.0311 0.8922
vt 0.0311 0.8922
vt 0.0311 0.8922
vt 0.0311 0.8922
vt 0.0311 0.8922
vt 0.0311 0.8922
vt 0.0311 0.8922
vt 0.0311 0.8922
vt 0.0311 0.8922
vt 0.0311 0.8922
vt 0.0311 0.8922
vt 0.0311 0.8922
vt 0.0311 0.8922
vt 0.0311 0.8922
vt 0.0311 0.8922
vt 0.0311 0.8922
vt 0.0311 0.8922
vt 0.0311 0.8922
vt 0.0311 0.8922
vt 0.0311 0.8922
vt 0.0311 0.8922
vt 0.0311 0.8922
vt 0.0311 0.8922
vt 0.0311 0.8922
vt 0.0311 0.8922
vt 0.0311 0.8922
vt 0.0311 0.8922
vt 0.0311 0.8922
vt 0.0311 0.8922
vt 0.0311 0.8922
vt 0.0311 0.8922
vt 0.0311 0.8922
vt 0.0311 0.8922
vt 0.0311 0.8922
vt 0.0311 0.8922
vt 0.0311 0.8922
vt 0.0311 0.8922
vt 0.0311 0.8922
vt 0.0311 0.8922
vt 0.0311 0.8922
vt 0.1561 0.5285
vt 0.1561 0.5285
vt 0.0311 0.8922
vt 0.0311 0.8922
vt 0.0311 0.8922
vt 0.0311 0.8922
vt 0.0311 0.8922
vt 0.0311 0.8922
vt 0.0311 0.8922
vt 0.0311 0.8922
vt 0.1561 0.5285
vt 0.1561 0.5285
vt 0.1561 0.5285
vt 0.1561 0.5285
vt 0.1561 0.5285
vt 0.1561 0.5285
vt 0.1561 0.5285
vt 0.1561 0.5285
vt 0.1561 0.5285
vt 0.1561 0.5285
vt 0.1561 0.5285
vt 0.0311 0.8922
vt 0.0311 0.8922
vt 0.0936 0.3315
vt 0.0936 0.3315
vt 0.0936 0.3315
vt 0.0936 0.3315
vt 0.0936 0.3315
vt 0.0936 0.3315
vt 0.0936 0.3315
vt 0.0936 0.3315
vn 0.2904 0.6166 0.7317
vn -0.0506 0.9942 -0.0948
vn 0.2904 0.6166 -0.7317
vn 0.0000 -1.0000 0.0000
vn 0.7317 0.6166 -0.2904
vn -0.7317 0.6166 -0.2904
vn 0.3689 -0.0000 0.9295
vn 0.9295 0.0000 -0.3689
vn 0.3689 0.0000 -0.9295
vn -0.9295 0.0000 -0.3689
vn 0.0000 1.0000 0.0000
vn 0.2992 -0.5849 0.7539
vn 0.7539 -0.5850 -0.2992
vn 0.7539 -0.5849 -0.2992
vn 0.2992 -0.5849 -0.7539
vn -0.7539 -0.5849 -0.2992
vn -0.3689 0.0000 -0.9295
vn -0.2904 0.6166 -0.7317
vn -0.2904 0.6166 0.7317
vn -0.3689 -0.0000 0.9295
vn -0.2992 -0.5849 0.7539
vn -0.2992 -0.5849 -0.7539
vn -0.9295 -0.0000 0.3689
vn -0.7317 0.6166 0.2904
vn 0.7317 0.6166 0.2904
vn 0.9295 -0.0000 0.3689
vn 0.7539 -0.5849 0.2992
vn -0.7539 -0.5849 0.2992
vn 0.3629 -0.1798 -0.9143
vn 0.3833 -0.1685 -0.9081
vn 0.9276 -0.1595 -0.3378
vn 0.9153 -0.1741 -0.3633
vn 0.9172 -0.1618 0.3640
vn 0.9100 -0.1506 0.3862
vn 0.3648 -0.1497 0.9190
vn 0.3586 -0.1528 0.9209
vn 0.3634 -0.1504 0.9194
vn 0.3575 -0.1533 0.9212
vn -0.3642 -0.1594 0.9176
vn -0.3598 -0.1569 0.9197
vn -0.3632 -0.1588 0.9181
vn -0.3591 -0.1565 0.9201
vn -0.9159 -0.1703 0.3635
vn -0.9142 -0.1672 0.3692
vn -0.9155 -0.1697 0.3647
vn -0.9139 -0.1667 0.3701
vn -0.9152 -0.1742 -0.3633
vn -0.9149 -0.1747 -0.3640
vn -0.9151 -0.1744 -0.3635
vn -0.9148 -0.1747 -0.3641
vn -0.3523 -0.1733 -0.9197
vn -0.3536 -0.1741 -0.9190
vn -0.3611 -0.1787 -0.9152
vn -0.3629 -0.1798 -0.9143
usemtl None
s 1
f 1/1/1 2/2/1 3/3/1
f 3/3/1 2/2/1 4/4/1
f 5/5/2 6/6/2 7/7/2
f 7/7/2 6/6/2 8/8/2
f 9/9/3 10/10/3 11/11/3
f 11/11/3 10/10/3 12/12/3
f 13/13/4 14/14/4 15/15/4
f 15/15/4 14/14/4 16/16/4
f 17/17/5 18/18/5 10/10/5
f 10/10/5 18/18/5 12/12/5
f 19/19/6 20/20/6 21/21/6
f 21/21/6 20/20/6 22/22/6
f 2/2/7 23/23/7 4/4/7
f 4/4/7 23/23/7 24/24/7
f 18/18/8 25/25/8 12/12/8
f 12/12/8 25/25/8 26/26/8
f 25/25/8 27/27/8 26/26/8
f 27/27/8 28/28/8 26/26/8
f 29/29/9 11/11/9 26/26/9
f 26/26/9 11/11/9 12/12/9
f 30/30/10 31/31/10 19/19/10
f 19/19/10 31/31/10 20/20/10
f 32/32/11 33/33/11 34/34/11
f 34/34/11 33/33/11 35/35/11
f 36/36/11 37/37/11 38/38/11
f 38/38/11 37/37/11 39/39/11
f 40/40/11 41/41/11 42/42/11
f 42/42/11 41/41/11 43/43/11
f 35/35/11 44/44/11 34/34/11
f 34/34/11 44/44/11 45/45/11
f 46/46/12 47/47/12 48/48/12
f 48/48/12 47/47/12 49/49/12
f 13/13/13 15/15/14 28/28/14
f 28/28/14 15/15/14 26/26/14
f 16/16/15 29/29/15 15/15/15
f 15/15/15 29/29/15 26/26/15
f 50/50/16 31/31/16 51/51/16
f 51/51/16 31/31/16 30/30/16
f 19/19/17 11/11/17 30/30/17
f 30/30/17 11/11/17 29/29/17
f 9/9/18 11/11/18 21/21/18
f 21/21/18 11/11/18 19/19/18
f 45/45/11 44/44/11 42/42/11
f 42/42/11 44/44/11 40/40/11
f 52/52/2 6/6/2 53/53/2
f 53/53/2 6/6/2 5/5/2
f 54/54/11 37/37/11 55/55/11
f 55/55/11 37/37/11 36/36/11
f 56/56/19 2/2/19 57/57/19
f 57/57/19 2/2/19 1/1/19
f 58/58/20 23/23/20 56/56/20
f 56/56/20 23/23/20 2/2/20
f 46/46/21 48/48/21 59/59/21
f 59/59/21 48/48/21 60/60/21
f 16/16/4 14/14/4 51/51/4
f 51/51/4 14/14/4 50/50/4
f 30/30/22 29/29/22 51/51/22
f 51/51/22 29/29/22 16/16/22
f 20/20/23 31/31/23 56/56/23
f 56/56/23 31/31/23 58/58/23
f 58/58/23 31/31/23 61/61/23
f 31/31/23 60/60/23 61/61/23
f 22/22/24 20/20/24 57/57/24
f 57/57/24 20/20/24 56/56/24
f 43/43/11 41/41/11 55/55/11
f 55/55/11 41/41/11 54/54/11
f 62/62/2 6/6/2 63/63/2
f 63/63/2 6/6/2 52/52/2
f 8/8/2 6/6/2 64/64/2
f 64/64/2 6/6/2 62/62/2
f 39/39/11 33/33/11 38/38/11
f 38/38/11 33/33/11 32/32/11
f 4/4/25 18/18/25 3/3/25
f 3/3/25 18/18/25 17/17/25
f 24/24/26 25/25/26 4/4/26
f 4/4/26 25/25/26 18/18/26
f 13/13/27 28/28/27 47/47/27
f 47/47/27 28/28/27 49/49/27
f 46/46/4 14/14/4 47/47/4
f 47/47/4 14/14/4 13/13/4
f 50/50/4 14/14/4 59/59/4
f 59/59/4 14/14/4 46/46/4
f 50/50/28 59/59/28 31/31/28
f 31/31/28 59/59/28 60/60/28
f 54/54/23 41/41/23 57/57/23
f 57/57/23 41/41/23 22/22/23
f 57/57/20 1/1/20 54/54/20
f 54/54/20 1/1/20 37/37/20
f 39/39/7 37/37/7 3/3/7
f 3/3/7 37/37/7 1/1/7
f 3/3/26 17/17/26 39/39/26
f 39/39/26 17/17/26 33/33/26
f 35/35/8 33/33/8 10/10/8
f 10/10/8 33/33/8 17/17/8
f 9/9/9 44/44/9 10/10/9
f 10/10/9 44/44/9 35/35/9
f 40/40/17 44/44/17 21/21/17
f 21/21/17 44/44/17 9/9/17
f 21/21/10 22/22/10 40/40/10
f 40/40/10 22/22/10 41/41/10
f 45/65/29 5/5/29 34/66/29
f 34/66/30 5/5/30 7/7/30
f 8/8/31 32/67/31 7/7/31
f 7/7/32 32/67/32 34/66/32
f 32/67/33 8/8/33 38/68/33
f 38/68/34 8/8/34 64/64/34
f 36/69/35 38/68/36 62/62/37
f 62/62/37 38/68/36 64/64/38
f 55/70/39 36/69/40 63/63/41
f 63/63/41 36/69/40 62/62/42
f 43/71/43 55/70/44 52/52/45
f 52/52/45 55/70/44 63/63/46
f 42/72/47 43/71/48 53/53/49
f 53/53/49 43/71/48 52/52/50
f 5/5/51 45/65/52 53/53/53
f 53/53/53 45/65/52 42/72/54
f 60/60/20 48/48/20 61/61/20
f 61/61/20 48/48/20 65/73/20
f 66/74/7 65/73/7 49/49/7
f 49/49/7 65/73/7 48/48/7
f 49/49/26 28/28/26 66/74/26
f 66/74/26 28/28/26 27/27/26
f 66/75/26 27/76/26 24/77/26
f 24/77/26 27/76/26 25/78/26
f 24/77/7 23/79/7 66/75/7
f 66/75/7 23/79/7 65/80/7
f 61/81/20 65/80/20 58/82/20
f 58/82/20 65/80/20 23/79/20
