# Blender v2.78 (sub 0) OBJ File: ''
# www.blender.org
mtllib SM_Item_Canteen_01.mtl
o SM_Item_Canteen_01
v 8.843529 12.499829 2.028765
v 3.669922 17.687067 2.028766
v 8.228359 12.245489 2.895346
v 3.414623 17.071894 2.895347
v -3.656296 17.687067 2.028766
v -3.401984 17.071894 2.895347
v -8.843530 12.513462 2.028765
v -8.228361 12.258175 2.895346
v -8.843530 5.187241 2.028764
v -8.228361 5.441578 2.895345
v -3.669923 0.000000 2.028763
v -3.414625 0.615174 2.895344
v 3.656296 0.000000 2.028763
v 3.401985 0.615174 2.895344
v 8.843529 5.173604 2.028764
v 8.228359 5.428892 2.895345
v 3.414623 17.071894 -2.895341
v 8.228359 12.245489 -2.895342
v -0.000001 8.843534 -2.895343
v -3.401984 17.071894 -2.895341
v -8.228361 12.258175 -2.895342
v -8.228361 5.441579 -2.895343
v -3.414625 0.615174 -2.895344
v 3.401985 0.615174 -2.895344
v 8.228359 5.428893 -2.895343
v -0.000001 8.843534 2.895345
v 9.875832 7.331483 -0.372377
v 9.875832 10.349966 -0.372376
v 9.875832 7.331483 0.350717
v 9.875832 10.349966 0.350718
v 8.843529 12.499829 -2.050391
v 3.669921 17.687069 -2.050390
v 3.669922 17.687067 -0.010843
v 1.202077 21.556095 -0.010842
v -1.188450 21.556095 -0.010842
v 0.725577 21.556093 0.977094
v -0.711950 21.556093 0.977094
v -3.656296 17.687069 -2.050390
v -8.843530 12.513462 -2.050391
v -3.656296 17.687067 -0.010843
v -9.875772 10.355582 -0.372376
v -9.875772 7.337102 -0.372377
v -9.875772 10.355582 0.350718
v -9.875772 7.337102 0.350717
v -8.843530 5.187242 -2.050392
v -3.669923 0.000000 -2.050393
v 3.656296 0.000000 -2.050393
v 8.843529 5.173604 -2.050392
v 1.605914 17.687069 -2.050448
v -1.592289 17.687069 -2.050448
v -2.652356 17.687067 -0.010843
v -1.592289 17.687067 2.028793
v 1.605914 17.687067 2.028793
v 2.665982 17.687067 -0.010843
v 1.299351 18.446558 -1.787482
v -1.285724 18.446558 -1.787482
v -2.142597 18.446556 -0.010843
v -1.285724 18.446556 1.765826
v 1.299351 18.446556 1.765826
v 2.156225 18.446556 -0.010843
v 1.299351 19.076616 -1.787482
v -1.285724 19.076616 -1.787482
v -2.142597 19.076616 -0.010843
v -1.285724 19.076611 1.765826
v 1.299351 19.076611 1.765826
v 2.156226 19.076616 -0.010843
v 0.991402 19.076616 -1.364232
v -0.977775 19.076616 -1.364232
v -1.630492 19.076616 -0.010843
v -0.977775 19.076611 1.342515
v 0.991402 19.076611 1.342515
v 1.644119 19.076616 -0.010843
v 1.059444 20.714237 -1.457721
v -1.045816 20.714237 -1.457721
v -1.743651 20.714235 -0.010843
v -1.045816 20.714231 1.436067
v 1.059444 20.714231 1.436067
v 1.757278 20.714235 -0.010843
v 0.640459 20.714237 -0.881783
v -0.626832 20.714237 -0.881783
v -1.046892 20.714235 -0.010843
v -0.626832 20.714231 0.860128
v 0.640459 20.714231 0.860128
v 1.060520 20.714235 -0.010843
v 0.725577 21.556099 -0.998749
v -0.711950 21.556099 -0.998749
v 8.843529 6.777547 -0.715930
v 8.843529 10.901845 -0.715929
v 8.843529 10.901845 0.694302
v 8.843529 6.777547 0.694301
v -8.843530 10.909518 -0.715929
v -8.843530 6.785223 -0.715930
v -8.843530 6.785223 0.694301
v -8.843530 10.909518 0.694302
v 9.453142 6.777547 -0.715930
v 9.453142 10.901845 -0.715929
v 9.453142 10.901845 0.694302
v 9.453142 6.777547 0.694301
v -9.453142 10.909518 -0.715929
v -9.453142 6.785223 -0.715930
v -9.453142 6.785223 0.694301
v -9.453142 10.909518 0.694302
vt 0.2073 0.4815
vt 0.2073 0.4815
vt 0.2073 0.4815
vt 0.2073 0.4815
vt 0.2073 0.4815
vt 0.2073 0.4815
vt 0.2073 0.4815
vt 0.2073 0.4815
vt 0.2073 0.4815
vt 0.2073 0.4815
vt 0.2073 0.4815
vt 0.2073 0.4815
vt 0.2073 0.4815
vt 0.2073 0.4815
vt 0.2073 0.4815
vt 0.2073 0.4815
vt 0.2073 0.4815
vt 0.2073 0.4815
vt 0.2073 0.4815
vt 0.2073 0.4815
vt 0.2073 0.4815
vt 0.2073 0.4815
vt 0.2073 0.4815
vt 0.2073 0.4815
vt 0.2073 0.4815
vt 0.2073 0.4815
vt 0.5498 0.4229
vt 0.5498 0.4229
vt 0.5498 0.4229
vt 0.5498 0.4229
vt 0.2073 0.4815
vt 0.2073 0.4815
vt 0.2073 0.4815
vt 0.0338 0.3193
vt 0.0338 0.3193
vt 0.0338 0.3193
vt 0.0338 0.3193
vt 0.2073 0.4815
vt 0.2073 0.4815
vt 0.2073 0.4815
vt 0.5498 0.4229
vt 0.5498 0.4229
vt 0.5498 0.4229
vt 0.5498 0.4229
vt 0.2073 0.4815
vt 0.2073 0.4815
vt 0.2073 0.4815
vt 0.2073 0.4815
vt 0.2073 0.4815
vt 0.2073 0.4815
vt 0.2073 0.4815
vt 0.2073 0.4815
vt 0.2073 0.4815
vt 0.2073 0.4815
vt 0.2073 0.4815
vt 0.2073 0.4815
vt 0.2073 0.4815
vt 0.2073 0.4815
vt 0.2073 0.4815
vt 0.2073 0.4815
vt 0.2073 0.4815
vt 0.2073 0.4815
vt 0.2073 0.4815
vt 0.2073 0.4815
vt 0.2073 0.4815
vt 0.2073 0.4815
vt 0.2073 0.4815
vt 0.2073 0.4815
vt 0.2073 0.4815
vt 0.2073 0.4815
vt 0.2073 0.4815
vt 0.2073 0.4815
vt 0.5655 0.4252
vt 0.5655 0.4252
vt 0.5655 0.4252
vt 0.5655 0.4252
vt 0.5655 0.4252
vt 0.5655 0.4252
vt 0.5655 0.4252
vt 0.5655 0.4252
vt 0.5655 0.4252
vt 0.5655 0.4252
vt 0.5655 0.4252
vt 0.5655 0.4252
vt 0.5655 0.4252
vt 0.5655 0.4252
vt 0.5655 0.4252
vt 0.5655 0.4252
vt 0.5655 0.4252
vt 0.5655 0.4252
vt 0.0338 0.3193
vt 0.0338 0.3193
vt 0.0338 0.3193
vt 0.0338 0.3193
vt 0.0338 0.3193
vt 0.0338 0.3193
vt 0.0338 0.3193
vt 0.0338 0.3193
vt 0.2073 0.4815
vt 0.2073 0.4815
vt 0.2073 0.4815
vt 0.2073 0.4815
vt 0.2073 0.4815
vt 0.2073 0.4815
vt 0.2073 0.4815
vt 0.2073 0.4815
vt 0.5498 0.4229
vt 0.5498 0.4229
vt 0.5498 0.4229
vt 0.5498 0.4229
vt 0.5498 0.4229
vt 0.5498 0.4229
vt 0.5498 0.4229
vt 0.5498 0.4229
vt 0.5498 0.4229
vt 0.5498 0.4229
vt 0.5498 0.4229
vt 0.5498 0.4229
vt 0.5498 0.4229
vt 0.5498 0.4229
vt 0.5498 0.4229
vt 0.5498 0.4229
vn 0.5774 0.5758 0.5789
vn 0.5773 0.5758 0.5789
vn 0.0000 0.8154 0.5789
vn -0.5758 0.5774 0.5788
vn -0.5758 0.5774 0.5789
vn -0.8154 0.0000 0.5789
vn -0.5774 -0.5758 0.5789
vn -0.5773 -0.5758 0.5789
vn 0.0000 -0.8154 0.5789
vn 0.5758 -0.5774 0.5788
vn 0.5758 -0.5774 0.5789
vn 0.8154 -0.0000 0.5789
vn -0.0000 0.0000 -1.0000
vn 0.0000 -0.0000 1.0000
vn 1.0000 0.0000 0.0000
vn 0.7080 0.7062 0.0000
vn 0.0000 1.0000 -0.0000
vn -0.7062 0.7080 0.0000
vn -1.0000 0.0000 0.0000
vn -0.7080 -0.7062 -0.0000
vn 0.0000 -1.0000 0.0000
vn 0.7062 -0.7080 0.0000
vn 0.8084 0.0000 -0.5886
vn 0.5724 0.5709 -0.5886
vn 0.0000 0.8084 -0.5886
vn -0.5709 0.5724 -0.5886
vn -0.8084 0.0000 -0.5886
vn -0.5724 -0.5709 -0.5886
vn 0.0000 -0.8084 -0.5886
vn 0.5709 -0.5724 -0.5886
vn 0.3650 0.8796 -0.3052
vn -0.3638 0.8800 -0.3052
vn 0.0000 -0.9994 0.0359
vn 0.5274 -0.4385 -0.7277
vn -0.3638 0.8801 -0.3051
vn -0.0000 -0.9966 -0.0824
vn -0.3645 0.8815 0.3001
vn 0.0000 -0.9993 0.0386
vn -0.6008 -0.4813 0.6383
vn 0.3656 0.8811 0.3001
vn 0.0000 -0.9847 0.1744
vn 0.0000 0.3272 -0.9450
vn -0.7624 0.5117 0.3962
vn -0.8011 0.4571 0.3864
vn 0.0000 0.3272 0.9450
vn 0.7624 0.5117 0.3962
vn 0.8011 0.4571 0.3864
vn -0.9007 0.0000 0.4344
vn 0.9007 0.0000 0.4344
vn 0.0000 -0.0570 -0.9984
vn -0.8990 -0.0621 0.4336
vn 0.0000 -0.0570 0.9984
vn 0.8990 -0.0621 0.4336
vn 0.0000 -0.1376 -0.9905
vn -0.8906 -0.1497 0.4295
vn 0.0000 -0.1376 0.9905
vn 0.8906 -0.1497 0.4295
vn 0.7624 0.5117 -0.3962
vn 0.8011 0.4571 -0.3864
vn 0.9007 -0.0000 -0.4344
vn 0.8990 -0.0621 -0.4336
vn 0.8906 -0.1497 -0.4295
vn 0.8905 -0.1497 -0.4295
vn -0.8906 -0.1497 -0.4295
vn -0.8905 -0.1497 -0.4295
vn -0.8990 -0.0621 -0.4336
vn -0.9007 0.0000 -0.4344
vn -0.7624 0.5117 -0.3962
vn -0.8011 0.4571 -0.3864
vn 0.6307 0.0000 -0.7760
vn 0.7939 0.6081 0.0000
vn 0.6308 -0.0000 0.7760
vn 0.7950 -0.6066 0.0000
vn -0.6308 0.0000 -0.7760
vn -0.7939 -0.6080 0.0000
vn -0.6308 -0.0000 0.7759
vn -0.7950 0.6066 0.0000
usemtl None
s 1
f 1/1/1 2/2/2 3/3/1
f 3/3/1 2/2/2 4/4/2
f 2/2/3 5/5/3 4/4/3
f 4/4/3 5/5/3 6/6/3
f 5/5/4 7/7/5 6/6/4
f 6/6/4 7/7/5 8/8/5
f 7/7/6 9/9/6 8/8/6
f 8/8/6 9/9/6 10/10/6
f 9/9/7 11/11/8 10/10/7
f 10/10/7 11/11/8 12/12/8
f 11/11/9 13/13/9 12/12/9
f 12/12/9 13/13/9 14/14/9
f 13/13/10 15/15/11 14/14/10
f 14/14/10 15/15/11 16/16/11
f 15/15/12 1/1/12 16/16/12
f 16/16/12 1/1/12 3/3/12
f 17/17/13 18/18/13 19/19/13
f 20/20/13 17/17/13 19/19/13
f 21/21/13 20/20/13 19/19/13
f 22/22/13 21/21/13 19/19/13
f 23/23/13 22/22/13 19/19/13
f 24/24/13 23/23/13 19/19/13
f 25/25/13 24/24/13 19/19/13
f 18/18/13 25/25/13 19/19/13
f 3/3/14 4/4/14 26/26/14
f 4/4/14 6/6/14 26/26/14
f 6/6/14 8/8/14 26/26/14
f 8/8/14 10/10/14 26/26/14
f 10/10/14 12/12/14 26/26/14
f 12/12/14 14/14/14 26/26/14
f 14/14/14 16/16/14 26/26/14
f 16/16/14 3/3/14 26/26/14
f 27/27/15 28/28/15 29/29/15
f 29/29/15 28/28/15 30/30/15
f 31/31/16 32/32/16 1/1/16
f 32/32/16 33/33/16 1/1/16
f 33/33/16 2/2/16 1/1/16
f 34/34/17 35/35/17 36/36/17
f 36/36/17 35/35/17 37/37/17
f 38/38/18 39/39/18 40/40/18
f 39/39/18 7/7/18 40/40/18
f 7/7/18 5/5/18 40/40/18
f 41/41/19 42/42/19 43/43/19
f 43/43/19 42/42/19 44/44/19
f 45/45/20 46/46/20 9/9/20
f 9/9/20 46/46/20 11/11/20
f 46/46/21 47/47/21 11/11/21
f 11/11/21 47/47/21 13/13/21
f 47/47/22 48/48/22 13/13/22
f 13/13/22 48/48/22 15/15/22
f 25/25/23 18/18/23 48/48/23
f 48/48/23 18/18/23 31/31/23
f 18/18/24 17/17/24 31/31/24
f 31/31/24 17/17/24 32/32/24
f 17/17/25 20/20/25 32/32/25
f 32/32/25 20/20/25 38/38/25
f 20/20/26 21/21/26 38/38/26
f 38/38/26 21/21/26 39/39/26
f 21/21/27 22/22/27 39/39/27
f 39/39/27 22/22/27 45/45/27
f 22/22/28 23/23/28 45/45/28
f 45/45/28 23/23/28 46/46/28
f 23/23/29 24/24/29 46/46/29
f 46/46/29 24/24/29 47/47/29
f 24/24/30 25/25/30 47/47/30
f 47/47/30 25/25/30 48/48/30
f 32/32/31 38/38/32 49/49/33
f 49/49/34 38/38/35 50/50/36
f 40/40/17 5/5/17 51/51/17
f 51/51/17 5/5/17 52/52/17
f 5/5/37 2/2/38 52/52/38
f 52/52/39 2/2/40 53/53/41
f 33/33/17 32/32/17 54/54/17
f 54/54/17 32/32/17 49/49/17
f 49/49/42 50/50/42 55/55/42
f 55/55/42 50/50/42 56/56/42
f 51/51/43 52/52/43 57/57/43
f 57/57/44 52/52/44 58/58/44
f 52/52/45 53/53/45 58/58/45
f 58/58/45 53/53/45 59/59/45
f 54/54/46 60/60/46 53/53/46
f 53/53/47 60/60/47 59/59/47
f 55/55/13 56/56/13 61/61/13
f 61/61/13 56/56/13 62/62/13
f 63/63/48 57/57/48 64/64/48
f 64/64/48 57/57/48 58/58/48
f 58/58/14 59/59/14 64/64/14
f 64/64/14 59/59/14 65/65/14
f 59/59/49 60/60/49 65/65/49
f 65/65/49 60/60/49 66/66/49
f 61/61/17 62/62/17 67/67/17
f 67/67/17 62/62/17 68/68/17
f 69/69/17 63/63/17 70/70/17
f 70/70/17 63/63/17 64/64/17
f 64/64/17 65/65/17 70/70/17
f 70/70/17 65/65/17 71/71/17
f 65/65/17 66/66/17 71/71/17
f 71/71/17 66/66/17 72/72/17
f 67/73/50 68/74/50 73/75/50
f 73/75/50 68/74/50 74/76/50
f 69/77/51 70/78/51 75/79/51
f 75/79/51 70/78/51 76/80/51
f 70/78/52 71/81/52 76/80/52
f 76/80/52 71/81/52 77/82/52
f 72/83/53 78/84/53 71/81/53
f 71/81/53 78/84/53 77/82/53
f 73/75/17 74/76/17 79/85/17
f 79/85/17 74/76/17 80/86/17
f 81/87/17 75/79/17 82/88/17
f 82/88/17 75/79/17 76/80/17
f 76/80/17 77/82/17 82/88/17
f 82/88/17 77/82/17 83/89/17
f 77/82/17 78/84/17 83/89/17
f 83/89/17 78/84/17 84/90/17
f 79/91/54 80/92/54 85/93/54
f 85/93/54 80/92/54 86/94/54
f 81/95/55 82/96/55 35/35/55
f 35/35/55 82/96/55 37/37/55
f 82/96/56 83/97/56 37/37/56
f 37/37/56 83/97/56 36/36/56
f 84/98/57 34/34/57 83/97/57
f 83/97/57 34/34/57 36/36/57
f 54/54/58 49/49/58 60/60/58
f 60/60/59 49/49/59 55/55/59
f 66/66/60 60/60/60 61/61/60
f 61/61/60 60/60/60 55/55/60
f 72/72/17 66/66/17 67/67/17
f 67/67/17 66/66/17 61/61/17
f 72/83/61 67/73/61 78/84/61
f 78/84/61 67/73/61 73/75/61
f 84/90/17 78/84/17 79/85/17
f 79/85/17 78/84/17 73/75/17
f 84/98/62 79/91/62 34/34/62
f 34/34/62 79/91/62 85/93/63
f 85/93/17 86/94/17 34/34/17
f 34/34/17 86/94/17 35/35/17
f 81/95/64 35/35/64 80/92/64
f 80/92/64 35/35/64 86/94/65
f 74/76/17 75/79/17 80/86/17
f 80/86/17 75/79/17 81/87/17
f 69/77/66 75/79/66 68/74/66
f 68/74/66 75/79/66 74/76/66
f 62/62/17 63/63/17 68/68/17
f 68/68/17 63/63/17 69/69/17
f 56/56/67 57/57/67 62/62/67
f 62/62/67 57/57/67 63/63/67
f 51/51/68 57/57/68 50/50/68
f 50/50/69 57/57/69 56/56/69
f 33/33/17 54/54/17 2/2/17
f 2/2/17 54/54/17 53/53/17
f 40/40/17 51/51/17 38/38/17
f 38/38/17 51/51/17 50/50/17
f 48/48/15 31/31/15 87/99/15
f 87/99/15 31/31/15 88/100/15
f 31/31/15 1/1/15 88/100/15
f 88/100/15 1/1/15 89/101/15
f 15/15/15 90/102/15 1/1/15
f 1/1/15 90/102/15 89/101/15
f 15/15/15 48/48/15 90/102/15
f 90/102/15 48/48/15 87/99/15
f 39/39/19 45/45/19 91/103/19
f 91/103/19 45/45/19 92/104/19
f 45/45/19 9/9/19 92/104/19
f 92/104/19 9/9/19 93/105/19
f 7/7/19 94/106/19 9/9/19
f 9/9/19 94/106/19 93/105/19
f 7/7/19 39/39/19 94/106/19
f 94/106/19 39/39/19 91/103/19
f 87/107/13 88/108/13 95/109/13
f 95/109/13 88/108/13 96/110/13
f 88/108/17 89/111/17 96/110/17
f 96/110/17 89/111/17 97/112/17
f 89/111/14 90/113/14 97/112/14
f 97/112/14 90/113/14 98/114/14
f 90/113/21 87/107/21 98/114/21
f 98/114/21 87/107/21 95/109/21
f 91/115/13 92/116/13 99/117/13
f 99/117/13 92/116/13 100/118/13
f 92/116/21 93/119/21 100/118/21
f 100/118/21 93/119/21 101/120/21
f 93/119/14 94/121/14 101/120/14
f 101/120/14 94/121/14 102/122/14
f 94/121/17 91/115/17 102/122/17
f 102/122/17 91/115/17 99/117/17
f 95/109/70 96/110/70 27/27/70
f 27/27/70 96/110/70 28/28/70
f 96/110/71 97/112/71 28/28/71
f 28/28/71 97/112/71 30/30/71
f 98/114/72 29/29/72 97/112/72
f 97/112/72 29/29/72 30/30/72
f 98/114/73 95/109/73 29/29/73
f 29/29/73 95/109/73 27/27/73
f 99/117/74 100/118/74 41/41/74
f 41/41/74 100/118/74 42/42/74
f 100/118/75 101/120/75 42/42/75
f 42/42/75 101/120/75 44/44/75
f 102/122/76 43/43/76 101/120/76
f 101/120/76 43/43/76 44/44/76
f 102/122/77 99/117/77 43/43/77
f 43/43/77 99/117/77 41/41/77
