# Blender v2.78 (sub 0) OBJ File: ''
# www.blender.org
mtllib SM_Item_Gourd_01.mtl
o SM_Item_Gourd_01
v 3.573423 5.340401 -3.573454
v -0.000001 5.340401 -5.053605
v 2.890505 8.512341 -2.890537
v 0.000000 8.512341 -4.087815
v -3.573424 5.340401 -3.573454
v -2.890506 8.512341 -2.890537
v -5.053575 5.340400 0.000001
v -4.087816 8.512340 0.000001
v -3.573424 5.340400 3.573425
v -2.890506 8.512339 2.890538
v -0.000001 5.340399 5.053607
v 0.000000 8.512339 4.087786
v 3.573424 5.340400 3.573425
v 2.890505 8.512339 2.890538
v 5.053575 5.340400 0.000001
v 4.087816 8.512340 0.000001
v 0.000000 0.000002 -2.930700
v 2.072325 0.000001 -2.072325
v 0.000000 0.000001 0.000000
v -2.072326 0.000001 -2.072325
v -2.930670 0.000001 0.000000
v -2.072326 0.000001 2.072294
v 0.000000 0.000000 2.930700
v 2.072325 0.000001 2.072295
v 2.930669 0.000001 0.000000
v 0.601441 21.003946 0.000003
v 0.425248 21.003946 -0.425244
v 0.425248 21.003946 0.425281
v 0.000000 21.003946 -0.601407
v -0.425247 21.003946 -0.425244
v -0.601380 21.003946 0.000003
v -0.425247 21.003946 0.425281
v 0.000000 21.003946 0.601414
v 0.000000 2.158948 -4.782404
v -3.381677 2.158948 -3.381677
v -4.782405 2.158947 0.000000
v -3.381677 2.158946 3.381645
v 0.000000 2.158946 4.782374
v 3.381676 2.158946 3.381646
v 4.782405 2.158947 0.000000
v 3.381676 2.158948 -3.381677
v 1.293055 10.065106 1.293087
v 1.828675 10.065106 0.000002
v 0.000000 10.065106 1.828616
v -1.293055 10.065106 1.293087
v -1.828675 10.065106 0.000002
v -1.293055 10.065106 -1.293054
v 0.000000 10.065106 -1.828642
v 1.293054 10.065106 -1.293054
v 2.085824 11.609864 2.085857
v 2.949847 11.609864 0.000002
v 0.000000 11.609863 2.949848
v -2.085824 11.609864 2.085857
v -2.949848 11.609864 0.000002
v -2.085824 11.609864 -2.085883
v 0.000000 11.609865 -2.949815
v 2.085824 11.609864 -2.085883
v 2.338194 13.995455 2.338166
v 3.306692 13.995456 0.000002
v 1.795022 15.791571 1.795025
v 2.538573 15.791572 0.000003
v 0.000000 13.995455 3.306724
v 0.000000 15.791571 2.538605
v -2.338195 13.995455 2.338165
v -1.795023 15.791571 1.795025
v -3.306693 13.995456 0.000002
v -2.538574 15.791572 0.000003
v -2.338195 13.995457 -2.338162
v -1.795023 15.791573 -1.795051
v 0.000000 13.995457 -3.306691
v 0.000000 15.791573 -2.538571
v 2.338194 13.995457 -2.338162
v 1.795022 15.791573 -1.795051
v 0.940452 16.565845 0.940455
v 1.330007 16.565845 0.000003
v 0.000000 16.565845 1.330009
v -0.940452 16.565845 0.940455
v -1.330006 16.565845 0.000003
v -0.940452 16.565845 -0.940419
v 0.000000 16.565845 -1.329973
v 0.940452 16.565845 -0.940419
v 1.330007 17.993195 0.000003
v 0.940452 17.993195 -0.940419
v 0.000000 17.993195 -1.329973
v -0.940452 17.993195 -0.940419
v -1.330006 17.993195 0.000003
v -0.940452 17.993195 0.940455
v 0.000000 17.993195 1.330009
v 0.940452 17.993195 0.940455
v 1.043407 17.993195 0.000003
v 0.737804 17.993195 -0.737831
v 0.000000 17.993195 -1.043434
v -0.737803 17.993195 -0.737831
v -1.043468 17.993195 0.000003
v -0.737803 17.993195 0.737837
v 0.000000 17.993195 1.043410
v 0.737804 17.993195 0.737837
v 1.043407 19.611061 0.000003
v 0.737804 19.611061 -0.737831
v 0.000000 19.611061 -1.043434
v -0.737803 19.611061 -0.737831
v -1.043468 19.611061 0.000003
v -0.737803 19.611061 0.737837
v 0.000000 19.611061 1.043410
v 0.737804 19.611061 0.737837
v 0.773660 19.611061 0.000003
v 0.547059 19.611061 -0.547056
v 0.000000 19.611061 -0.773656
v -0.547059 19.611061 -0.547056
v -0.773659 19.611061 0.000003
v -0.547059 19.611061 0.547031
v 0.000000 19.611061 0.773693
v 0.547059 19.611061 0.547031
vt 0.0902 0.3779
vt 0.0902 0.3779
vt 0.0902 0.3779
vt 0.0902 0.3779
vt 0.0902 0.3779
vt 0.0902 0.3779
vt 0.0902 0.3779
vt 0.0902 0.3779
vt 0.0902 0.3779
vt 0.0902 0.3779
vt 0.0902 0.3779
vt 0.0902 0.3779
vt 0.0902 0.3779
vt 0.0902 0.3779
vt 0.0902 0.3779
vt 0.0902 0.3779
vt 0.0902 0.3779
vt 0.0902 0.3779
vt 0.0902 0.3779
vt 0.0902 0.3779
vt 0.0902 0.3779
vt 0.0902 0.3779
vt 0.0902 0.3779
vt 0.0902 0.3779
vt 0.0902 0.3779
vt 0.0181 0.3260
vt 0.0181 0.3260
vt 0.0181 0.3260
vt 0.0181 0.3260
vt 0.0181 0.3260
vt 0.0181 0.3260
vt 0.0181 0.3260
vt 0.0181 0.3260
vt 0.0902 0.3779
vt 0.0902 0.3779
vt 0.0902 0.3779
vt 0.0902 0.3779
vt 0.0902 0.3779
vt 0.0902 0.3779
vt 0.0902 0.3779
vt 0.0902 0.3779
vt 0.0902 0.3779
vt 0.0902 0.3779
vt 0.0902 0.3779
vt 0.0902 0.3779
vt 0.0902 0.3779
vt 0.0902 0.3779
vt 0.0902 0.3779
vt 0.0902 0.3779
vt 0.0902 0.3779
vt 0.0902 0.3779
vt 0.0902 0.3779
vt 0.0902 0.3779
vt 0.0902 0.3779
vt 0.0902 0.3779
vt 0.0902 0.3779
vt 0.0902 0.3779
vt 0.0902 0.3779
vt 0.0902 0.3779
vt 0.0902 0.3779
vt 0.0902 0.3779
vt 0.0902 0.3779
vt 0.0902 0.3779
vt 0.0902 0.3779
vt 0.0902 0.3779
vt 0.0902 0.3779
vt 0.0902 0.3779
vt 0.0902 0.3779
vt 0.0902 0.3779
vt 0.0902 0.3779
vt 0.0902 0.3779
vt 0.0902 0.3779
vt 0.0902 0.3779
vt 0.0902 0.3779
vt 0.0902 0.3779
vt 0.0902 0.3779
vt 0.0902 0.3779
vt 0.0902 0.3779
vt 0.0902 0.3779
vt 0.0902 0.3779
vt 0.0902 0.3779
vt 0.0902 0.3779
vt 0.0902 0.3779
vt 0.0902 0.3779
vt 0.0902 0.3779
vt 0.0902 0.3779
vt 0.0902 0.3779
vt 0.0902 0.3779
vt 0.0902 0.3779
vt 0.0902 0.3779
vt 0.0902 0.3779
vt 0.0902 0.3779
vt 0.0902 0.3779
vt 0.0902 0.3779
vt 0.0902 0.3779
vt 0.0902 0.3779
vt 0.0902 0.3779
vt 0.5610 0.4252
vt 0.5610 0.4252
vt 0.5610 0.4252
vt 0.5610 0.4252
vt 0.5610 0.4252
vt 0.5610 0.4252
vt 0.5610 0.4252
vt 0.5610 0.4252
vt 0.5610 0.4252
vt 0.5610 0.4252
vt 0.5610 0.4252
vt 0.5610 0.4252
vt 0.5610 0.4252
vt 0.5610 0.4252
vt 0.5610 0.4252
vt 0.5610 0.4252
vt 0.5610 0.4252
vt 0.5610 0.4252
vt 0.5610 0.4252
vt 0.5610 0.4252
vt 0.5610 0.4252
vt 0.5610 0.4252
vt 0.5610 0.4252
vt 0.5610 0.4252
vt 0.0181 0.3260
vt 0.0181 0.3260
vt 0.0181 0.3260
vt 0.0181 0.3260
vt 0.0181 0.3260
vt 0.0181 0.3260
vt 0.0181 0.3260
vt 0.0181 0.3260
vn 0.3684 0.2708 -0.8894
vn -0.3684 0.2708 -0.8894
vn -0.8894 0.2708 -0.3684
vn -0.8894 0.2708 0.3684
vn -0.3684 0.2708 0.8894
vn 0.3684 0.2708 0.8894
vn 0.8894 0.2708 0.3684
vn 0.8894 0.2708 -0.3684
vn -0.0000 -1.0000 -0.0000
vn 0.0000 1.0000 0.0000
vn -0.2999 -0.6211 -0.7241
vn -0.7241 -0.6211 -0.2999
vn -0.7241 -0.6211 0.2999
vn -0.2999 -0.6211 0.7241
vn 0.2999 -0.6210 0.7241
vn 0.2999 -0.6211 0.7241
vn 0.7241 -0.6211 0.2999
vn 0.7241 -0.6211 -0.2999
vn 0.2999 -0.6211 -0.7241
vn 0.5515 0.8023 0.2284
vn 0.2284 0.8023 0.5515
vn -0.2284 0.8023 0.5515
vn -0.5515 0.8023 0.2284
vn -0.5515 0.8023 -0.2284
vn -0.2284 0.8023 -0.5515
vn 0.2284 0.8023 -0.5515
vn 0.5515 0.8023 -0.2284
vn 0.5514 0.8023 -0.2284
vn 0.7673 -0.5569 0.3178
vn 0.7673 -0.5569 0.3179
vn 0.3178 -0.5570 0.7673
vn 0.3178 -0.5569 0.7673
vn -0.3178 -0.5569 0.7674
vn -0.3178 -0.5569 0.7673
vn -0.7673 -0.5569 0.3178
vn -0.7673 -0.5569 0.3179
vn -0.7673 -0.5569 -0.3179
vn -0.7673 -0.5569 -0.3178
vn -0.3178 -0.5569 -0.7673
vn 0.3178 -0.5569 -0.7673
vn 0.7673 -0.5569 -0.3179
vn 0.7673 -0.5569 -0.3178
vn 0.8592 0.3675 0.3559
vn 0.3559 0.3675 0.8592
vn -0.3559 0.3675 0.8592
vn -0.8592 0.3675 0.3559
vn -0.8592 0.3675 -0.3559
vn -0.3559 0.3675 -0.8592
vn 0.3559 0.3675 -0.8592
vn 0.8592 0.3675 -0.3559
vn 0.5265 0.8218 0.2181
vn 0.2181 0.8218 0.5265
vn -0.2181 0.8218 0.5265
vn -0.5265 0.8218 0.2181
vn -0.5265 0.8218 -0.2181
vn -0.2181 0.8218 -0.5265
vn -0.2181 0.8218 -0.5264
vn 0.2181 0.8218 -0.5265
vn 0.5265 0.8218 -0.2181
vn -0.3815 -0.0785 -0.9210
vn -0.9210 -0.0785 -0.3815
vn -0.9210 -0.0785 0.3815
vn -0.3815 -0.0785 0.9210
vn 0.3815 -0.0785 0.9210
vn 0.9210 -0.0785 0.3815
vn 0.9210 -0.0785 -0.3815
vn 0.3815 -0.0785 -0.9210
vn 0.9239 0.0000 -0.3827
vn 0.3827 0.0000 -0.9239
vn -0.3827 0.0000 -0.9239
vn -0.9239 0.0000 -0.3827
vn -0.9239 -0.0000 0.3827
vn -0.3827 -0.0000 0.9239
vn 0.3827 -0.0000 0.9239
vn 0.9239 -0.0000 0.3827
vn -0.9152 -0.1369 -0.3791
vn -0.9152 -0.1369 0.3791
vn -0.3791 -0.1369 0.9152
vn 0.3791 -0.1369 0.9152
vn 0.9152 -0.1369 0.3791
vn 0.9152 -0.1369 -0.3791
vn 0.3791 -0.1369 -0.9152
vn -0.3791 -0.1369 -0.9152
vn -0.3826 -0.0000 0.9239
vn 0.3826 -0.0000 0.9239
vn 0.9179 0.1135 -0.3802
vn 0.9179 0.1135 -0.3803
vn 0.3802 0.1135 -0.9179
vn -0.3802 0.1135 -0.9179
vn -0.9179 0.1135 -0.3802
vn -0.9179 0.1135 0.3802
vn -0.3803 0.1135 0.9179
vn -0.3802 0.1135 0.9179
vn 0.3803 0.1135 0.9179
vn 0.3802 0.1135 0.9179
vn 0.9179 0.1135 0.3802
vn 0.9179 0.1135 0.3803
usemtl None
s 1
f 1/1/1 2/2/1 3/3/1
f 3/3/1 2/2/1 4/4/1
f 2/2/2 5/5/2 4/4/2
f 4/4/2 5/5/2 6/6/2
f 5/5/3 7/7/3 6/6/3
f 6/6/3 7/7/3 8/8/3
f 7/7/4 9/9/4 8/8/4
f 8/8/4 9/9/4 10/10/4
f 9/9/5 11/11/5 10/10/5
f 10/10/5 11/11/5 12/12/5
f 11/11/6 13/13/6 12/12/6
f 12/12/6 13/13/6 14/14/6
f 13/13/7 15/15/7 14/14/7
f 14/14/7 15/15/7 16/16/7
f 15/15/8 1/1/8 16/16/8
f 16/16/8 1/1/8 3/3/8
f 17/17/9 18/18/9 19/19/9
f 20/20/9 17/17/9 19/19/9
f 21/21/9 20/20/9 19/19/9
f 22/22/9 21/21/9 19/19/9
f 23/23/9 22/22/9 19/19/9
f 24/24/9 23/23/9 19/19/9
f 25/25/9 24/24/9 19/19/9
f 18/18/9 25/25/9 19/19/9
f 26/26/10 27/27/10 28/28/10
f 27/27/10 29/29/10 28/28/10
f 29/29/10 30/30/10 28/28/10
f 30/30/10 31/31/10 28/28/10
f 31/31/10 32/32/10 28/28/10
f 32/32/10 33/33/10 28/28/10
f 17/17/11 20/20/11 34/34/11
f 34/34/11 20/20/11 35/35/11
f 20/20/12 21/21/12 35/35/12
f 35/35/12 21/21/12 36/36/12
f 21/21/13 22/22/13 36/36/13
f 36/36/13 22/22/13 37/37/13
f 22/22/14 23/23/14 37/37/14
f 37/37/14 23/23/14 38/38/14
f 23/23/15 24/24/16 38/38/16
f 38/38/16 24/24/16 39/39/16
f 24/24/17 25/25/17 39/39/17
f 39/39/17 25/25/17 40/40/17
f 25/25/18 18/18/18 40/40/18
f 40/40/18 18/18/18 41/41/18
f 18/18/19 17/17/19 41/41/19
f 41/41/19 17/17/19 34/34/19
f 14/14/20 16/16/20 42/42/20
f 42/42/20 16/16/20 43/43/20
f 12/12/21 14/14/21 44/44/21
f 44/44/21 14/14/21 42/42/21
f 10/10/22 12/12/22 45/45/22
f 45/45/22 12/12/22 44/44/22
f 8/8/23 10/10/23 46/46/23
f 46/46/23 10/10/23 45/45/23
f 6/6/24 8/8/24 47/47/24
f 47/47/24 8/8/24 46/46/24
f 4/4/25 6/6/25 48/48/25
f 48/48/25 6/6/25 47/47/25
f 3/3/26 4/4/26 49/49/26
f 49/49/26 4/4/26 48/48/26
f 16/16/27 3/3/27 43/43/27
f 43/43/27 3/3/27 49/49/28
f 42/42/29 43/43/30 50/50/30
f 50/50/30 43/43/30 51/51/30
f 44/44/31 42/42/32 52/52/32
f 52/52/32 42/42/32 50/50/32
f 45/45/33 44/44/34 53/53/34
f 53/53/34 44/44/34 52/52/34
f 46/46/35 45/45/36 54/54/36
f 54/54/36 45/45/36 53/53/36
f 47/47/37 46/46/37 55/55/37
f 55/55/37 46/46/37 54/54/38
f 48/48/39 47/47/39 56/56/39
f 56/56/39 47/47/39 55/55/39
f 49/49/40 48/48/40 57/57/40
f 57/57/40 48/48/40 56/56/40
f 43/43/41 49/49/41 51/51/41
f 51/51/41 49/49/41 57/57/42
f 58/58/43 59/59/43 60/60/43
f 60/60/43 59/59/43 61/61/43
f 62/62/44 58/58/44 63/63/44
f 63/63/44 58/58/44 60/60/44
f 64/64/45 62/62/45 65/65/45
f 65/65/45 62/62/45 63/63/45
f 66/66/46 64/64/46 67/67/46
f 67/67/46 64/64/46 65/65/46
f 68/68/47 66/66/47 69/69/47
f 69/69/47 66/66/47 67/67/47
f 70/70/48 68/68/48 71/71/48
f 71/71/48 68/68/48 69/69/48
f 72/72/49 70/70/49 73/73/49
f 73/73/49 70/70/49 71/71/49
f 59/59/50 72/72/50 61/61/50
f 61/61/50 72/72/50 73/73/50
f 60/60/51 61/61/51 74/74/51
f 74/74/51 61/61/51 75/75/51
f 63/63/52 60/60/52 76/76/52
f 76/76/52 60/60/52 74/74/52
f 65/65/53 63/63/53 77/77/53
f 77/77/53 63/63/53 76/76/53
f 67/67/54 65/65/54 78/78/54
f 78/78/54 65/65/54 77/77/54
f 69/69/55 67/67/55 79/79/55
f 79/79/55 67/67/55 78/78/55
f 71/71/56 69/69/56 80/80/56
f 80/80/56 69/69/56 79/79/57
f 73/73/58 71/71/58 81/81/58
f 81/81/58 71/71/58 80/80/58
f 61/61/59 73/73/59 75/75/59
f 75/75/59 73/73/59 81/81/59
f 34/34/60 35/35/60 2/2/60
f 2/2/60 35/35/60 5/5/60
f 35/35/61 36/36/61 5/5/61
f 5/5/61 36/36/61 7/7/61
f 36/36/62 37/37/62 7/7/62
f 7/7/62 37/37/62 9/9/62
f 37/37/63 38/38/63 9/9/63
f 9/9/63 38/38/63 11/11/63
f 38/38/64 39/39/64 11/11/64
f 11/11/64 39/39/64 13/13/64
f 39/39/65 40/40/65 13/13/65
f 13/13/65 40/40/65 15/15/65
f 40/40/66 41/41/66 15/15/66
f 15/15/66 41/41/66 1/1/66
f 41/41/67 34/34/67 1/1/67
f 1/1/67 34/34/67 2/2/67
f 75/75/68 81/81/68 82/82/68
f 82/82/68 81/81/68 83/83/68
f 81/81/69 80/80/69 83/83/69
f 83/83/69 80/80/69 84/84/69
f 80/80/70 79/79/70 84/84/70
f 84/84/70 79/79/70 85/85/70
f 79/79/71 78/78/71 85/85/71
f 85/85/71 78/78/71 86/86/71
f 78/78/72 77/77/72 86/86/72
f 86/86/72 77/77/72 87/87/72
f 77/77/73 76/76/73 87/87/73
f 87/87/73 76/76/73 88/88/73
f 76/76/74 74/74/74 88/88/74
f 88/88/74 74/74/74 89/89/74
f 74/74/75 75/75/75 89/89/75
f 89/89/75 75/75/75 82/82/75
f 55/55/76 54/54/76 68/68/76
f 68/68/76 54/54/76 66/66/76
f 54/54/77 53/53/77 66/66/77
f 66/66/77 53/53/77 64/64/77
f 53/53/78 52/52/78 64/64/78
f 64/64/78 52/52/78 62/62/78
f 52/52/79 50/50/79 62/62/79
f 62/62/79 50/50/79 58/58/79
f 50/50/80 51/51/80 58/58/80
f 58/58/80 51/51/80 59/59/80
f 51/51/81 57/57/81 59/59/81
f 59/59/81 57/57/81 72/72/81
f 57/57/82 56/56/82 72/72/82
f 72/72/82 56/56/82 70/70/82
f 56/56/83 55/55/83 70/70/83
f 70/70/83 55/55/83 68/68/83
f 82/82/10 83/83/10 90/90/10
f 90/90/10 83/83/10 91/91/10
f 83/83/10 84/84/10 91/91/10
f 91/91/10 84/84/10 92/92/10
f 84/84/10 85/85/10 92/92/10
f 92/92/10 85/85/10 93/93/10
f 85/85/10 86/86/10 93/93/10
f 93/93/10 86/86/10 94/94/10
f 86/86/10 87/87/10 94/94/10
f 94/94/10 87/87/10 95/95/10
f 87/87/10 88/88/10 95/95/10
f 95/95/10 88/88/10 96/96/10
f 88/88/10 89/89/10 96/96/10
f 96/96/10 89/89/10 97/97/10
f 89/89/10 82/82/10 97/97/10
f 97/97/10 82/82/10 90/90/10
f 90/98/68 91/99/68 98/100/68
f 98/100/68 91/99/68 99/101/68
f 91/99/69 92/102/69 99/101/69
f 99/101/69 92/102/69 100/103/69
f 92/102/70 93/104/70 100/103/70
f 100/103/70 93/104/70 101/105/70
f 93/104/71 94/106/71 101/105/71
f 101/105/71 94/106/71 102/107/71
f 94/106/72 95/108/72 102/107/72
f 102/107/72 95/108/72 103/109/72
f 95/108/84 96/110/84 103/109/84
f 103/109/84 96/110/84 104/111/84
f 96/110/85 97/112/85 104/111/85
f 104/111/85 97/112/85 105/113/85
f 97/112/75 90/98/75 105/113/75
f 105/113/75 90/98/75 98/100/75
f 98/100/10 99/101/10 106/114/10
f 106/114/10 99/101/10 107/115/10
f 99/101/10 100/103/10 107/115/10
f 107/115/10 100/103/10 108/116/10
f 100/103/10 101/105/10 108/116/10
f 108/116/10 101/105/10 109/117/10
f 101/105/10 102/107/10 109/117/10
f 109/117/10 102/107/10 110/118/10
f 102/107/10 103/109/10 110/118/10
f 110/118/10 103/109/10 111/119/10
f 103/109/10 104/111/10 111/119/10
f 111/119/10 104/111/10 112/120/10
f 104/111/10 105/113/10 112/120/10
f 112/120/10 105/113/10 113/121/10
f 105/113/10 98/100/10 113/121/10
f 113/121/10 98/100/10 106/114/10
f 106/122/86 107/123/86 26/26/87
f 26/26/87 107/123/86 27/27/87
f 107/123/88 108/124/88 27/27/88
f 27/27/88 108/124/88 29/29/88
f 108/124/89 109/125/89 29/29/89
f 29/29/89 109/125/89 30/30/89
f 109/125/90 110/126/90 30/30/90
f 30/30/90 110/126/90 31/31/90
f 110/126/91 111/127/91 31/31/91
f 31/31/91 111/127/91 32/32/91
f 111/127/92 112/128/92 32/32/93
f 32/32/93 112/128/92 33/33/93
f 112/128/94 113/129/94 33/33/95
f 33/33/95 113/129/94 28/28/95
f 113/129/96 106/122/96 28/28/97
f 28/28/97 106/122/96 26/26/97
