# Blender v2.78 (sub 0) OBJ File: ''
# www.blender.org
mtllib SM_Prop_Cheese_02.mtl
o SM_Prop_Cheese_02
v 5.044125 6.941794 -14.842811
v 5.044121 -6.750660 -14.842814
v -11.089748 6.941793 -7.336668
v -11.089748 -6.750662 -7.336672
v 5.044144 10.528934 -12.212132
v 5.044144 -10.528925 -12.212139
v -9.229568 -10.528927 -5.476529
v -9.229568 10.528934 -5.476521
v 5.345242 0.745297 -10.864693
v 5.620003 -0.450347 -9.635063
v 5.989925 -2.059992 -7.979622
v 10.128536 -3.576606 10.541211
v 11.089748 -10.528934 14.842808
v 9.373749 -8.837313 7.163496
v 8.325859 -7.833073 2.474126
v 7.929070 -7.287024 0.698484
v 5.995842 -2.075141 -7.953125
v 5.999008 -2.083340 -7.938767
v 6.482002 -0.651627 -5.777459
v 6.653240 -0.143992 -5.011109
v 7.890686 -0.260835 0.526725
v 11.089748 -1.183411 14.842812
v 10.824452 -1.038297 13.655508
v 5.470242 1.791631 -10.305313
v 5.746708 4.106323 -9.067855
v 10.333904 -0.269966 11.460518
v 9.986217 -2.604988 9.904533
v 11.089748 10.528926 14.842815
v 6.387749 3.561915 -6.199279
v 6.595364 3.123192 -5.270150
v 11.089748 8.746642 14.842813
v 10.013203 7.259066 10.025262
v 9.867489 6.971106 9.373132
v 9.857876 6.460570 9.329995
v 9.954830 0.323898 9.763947
v 9.336082 1.835038 6.994979
v 8.843342 1.242311 4.789810
v 8.063019 0.011027 1.297790
v 6.610890 2.247676 -5.200758
v -7.603939 3.241172 -3.850861
v -6.955482 5.745781 -3.202414
v 7.711941 -3.467028 11.465001
v 7.948177 0.026149 11.701241
v 6.477924 -1.689851 10.230995
v -6.585102 6.643755 -2.832037
v -5.003406 6.364513 -1.250334
v -3.711895 6.136507 0.041155
v 9.533733 7.691627 13.286798
v 7.194042 6.105251 10.947099
v -3.382416 2.316611 0.370643
v 1.793633 -0.384150 5.546699
v 2.317783 0.086234 6.070869
v 3.414402 1.070365 7.167488
v 7.278271 4.427330 11.031335
v 4.273419 0.612741 8.026482
v 7.792812 1.046857 11.545876
v 5.234646 0.100666 8.987701
v -3.769760 -3.940588 -0.016718
v -6.014744 0.707370 -2.261673
v -5.818275 0.767395 -2.065216
v -5.452831 0.879047 -1.699784
v 0.957264 -2.495972 4.710340
v -0.892589 -5.912199 2.860487
v 0.919281 -4.405640 4.672330
v -1.723240 -3.428015 2.029821
v -2.518818 -3.581343 1.234243
v -3.466228 -3.763935 0.286817
v -3.660538 -3.877024 0.092512
v -3.924759 -5.680725 -0.171710
v -3.985302 -6.360353 -0.232234
v 4.920597 -7.730127 8.673665
v 1.555084 -6.332374 5.308134
v -2.502159 -7.853848 1.250897
v -2.499027 -7.856051 1.254017
v 3.774960 -8.416152 7.528018
v 8.608250 -0.146130 10.604675
v 9.706219 6.982123 9.378671
v 4.791042 -9.156691 7.696821
v 1.400951 -5.653023 3.029699
v 4.336838 -7.154291 0.981039
v 1.551777 -1.317050 2.909804
v 8.658512 -9.299595 7.392642
v 4.580811 -0.138537 0.787048
v 9.183208 -3.521393 11.349278
v 9.053303 2.052136 7.078819
v 5.185833 2.195040 7.382988
v -6.454784 6.584908 -3.152975
v -6.624519 3.159609 -4.464302
v -3.034935 5.830819 -1.625883
v -5.416157 5.184670 -4.344908
v -5.257744 1.442003 -3.594277
v -2.876514 2.088152 -0.875206
v -3.302563 4.718621 -3.401145
v -4.519047 3.272773 -4.344490
v -3.204670 2.405520 -2.937202
v 4.627815 -1.098470 -6.711037
v 3.450405 0.532564 -7.947411
v 4.068436 0.788111 -5.944191
v 4.109989 0.544194 -9.953651
v 5.751858 -0.005147 -4.945717
v 3.846767 2.633922 -6.946188
v 4.751301 3.944258 -8.333655
v 5.269123 2.301594 -5.091026
v -3.513973 -6.454962 -0.876284
v -1.095142 -7.650701 0.721341
v -3.633282 -3.805875 -0.169573
v -2.108665 -6.249405 -1.409495
v -0.588139 -5.867661 2.744932
v -2.228035 -3.600319 -0.702799
v -0.098286 -6.604273 0.260297
v -0.724659 -5.738226 -1.056635
v 0.215118 -5.502295 1.510961
v -1.288258 -3.364389 1.864767
v -0.798408 -4.101000 -0.619875
v 0.109455 -5.116675 0.047575
v -0.217590 -3.955187 0.966993
vt 0.2697 0.7073
vt 0.2697 0.7073
vt 0.2697 0.7073
vt 0.2697 0.7073
vt 0.3255 0.6150
vt 0.3255 0.6150
vt 0.3255 0.6150
vt 0.3255 0.6150
vt 0.2697 0.7073
vt 0.2697 0.7073
vt 0.2697 0.7073
vt 0.2697 0.7073
vt 0.3255 0.6150
vt 0.3255 0.6150
vt 0.3255 0.6150
vt 0.3255 0.6150
vt 0.3255 0.6150
vt 0.3255 0.6150
vt 0.3255 0.6150
vt 0.3255 0.6150
vt 0.3255 0.6150
vt 0.3255 0.6150
vt 0.3255 0.6150
vt 0.3255 0.6150
vt 0.3255 0.6150
vt 0.3255 0.6150
vt 0.3255 0.6150
vt 0.3255 0.6150
vt 0.3255 0.6150
vt 0.3255 0.6150
vt 0.3255 0.6150
vt 0.3255 0.6150
vt 0.3255 0.6150
vt 0.3255 0.6150
vt 0.3255 0.6150
vt 0.3255 0.6150
vt 0.3255 0.6150
vt 0.3255 0.6150
vt 0.3255 0.6150
vt 0.3255 0.6150
vt 0.3255 0.6150
vt 0.3255 0.6150
vt 0.3255 0.6150
vt 0.3255 0.6150
vt 0.3255 0.6150
vt 0.3255 0.6150
vt 0.3255 0.6150
vt 0.2697 0.7073
vt 0.2697 0.7073
vt 0.3255 0.6150
vt 0.3255 0.6150
vt 0.3255 0.6150
vt 0.3255 0.6150
vt 0.3255 0.6150
vt 0.3255 0.6150
vt 0.3255 0.6150
vt 0.3255 0.6150
vt 0.3255 0.6150
vt 0.3255 0.6150
vt 0.3255 0.6150
vt 0.3255 0.6150
vt 0.3255 0.6150
vt 0.3255 0.6150
vt 0.3255 0.6150
vt 0.3255 0.6150
vt 0.3255 0.6150
vt 0.3255 0.6150
vt 0.3255 0.6150
vt 0.3255 0.6150
vt 0.3255 0.6150
vt 0.3255 0.6150
vt 0.3255 0.6150
vt 0.3255 0.6150
vt 0.3255 0.6150
vt 0.3255 0.6150
vt 0.3255 0.6150
vt 0.3255 0.6150
vt 0.3255 0.6150
vt 0.3255 0.6150
vt 0.3255 0.6150
vt 0.3255 0.6150
vt 0.3255 0.6150
vt 0.3255 0.6150
vt 0.3255 0.6150
vt 0.3255 0.6150
vt 0.3255 0.6107
vt 0.3255 0.6107
vt 0.3255 0.6107
vt 0.3255 0.6107
vt 0.3255 0.6107
vt 0.3255 0.6107
vt 0.3255 0.6107
vt 0.3255 0.6107
vt 0.3255 0.6107
vt 0.3255 0.6107
vt 0.3255 0.6107
vt 0.3255 0.6107
vt 0.3255 0.6107
vt 0.3255 0.6107
vt 0.3255 0.6107
vt 0.3255 0.6107
vt 0.3255 0.6107
vt 0.3255 0.6107
vt 0.3255 0.6107
vt 0.3255 0.6107
vt 0.3255 0.6107
vt 0.3255 0.6107
vt 0.3255 0.6107
vt 0.3255 0.6107
vt 0.3255 0.6107
vt 0.3255 0.6107
vt 0.3255 0.6107
vt 0.3255 0.6107
vt 0.3255 0.6107
vt 0.3255 0.6107
vt 0.3255 0.6107
vt 0.3255 0.6107
vt 0.3255 0.6107
vt 0.3255 0.6107
vt 0.3255 0.6107
vt 0.3255 0.6107
vt 0.3255 0.6107
vt 0.3255 0.6107
vt 0.3255 0.6107
vt 0.3255 0.6107
vt 0.3255 0.6107
vt 0.3255 0.6107
vt 0.3255 0.6107
vt 0.3255 0.6107
vt 0.3255 0.6107
vt 0.3255 0.6107
vt 0.3255 0.6107
vt 0.3255 0.6107
vt 0.3255 0.6107
vt 0.3255 0.6107
vt 0.3255 0.6107
vt 0.3255 0.6107
vt 0.3255 0.6107
vt 0.3255 0.6107
vt 0.3255 0.6107
vt 0.3255 0.6107
vt 0.3255 0.6107
vt 0.3255 0.6107
vt 0.3255 0.6107
vt 0.3255 0.6107
vt 0.3255 0.6107
vt 0.3255 0.6107
vt 0.3255 0.6107
vt 0.3255 0.6107
vt 0.3255 0.6107
vt 0.3255 0.6107
vt 0.3255 0.6107
vt 0.3255 0.6107
vt 0.3255 0.6107
vt 0.3255 0.6107
vt 0.3255 0.6107
vt 0.3255 0.6107
vt 0.3255 0.6107
vt 0.3255 0.6107
vt 0.3255 0.6107
vt 0.3255 0.6107
vt 0.3255 0.6107
vt 0.3255 0.6107
vt 0.3255 0.6107
vt 0.3255 0.6107
vt 0.3255 0.6107
vt 0.3255 0.6107
vt 0.3255 0.6107
vt 0.3255 0.6107
vt 0.3255 0.6107
vt 0.3255 0.6107
vt 0.3255 0.6107
vt 0.3255 0.6107
vt 0.3255 0.6107
vt 0.3255 0.6107
vt 0.3255 0.6107
vt 0.3255 0.6107
vt 0.3255 0.6107
vt 0.3255 0.6107
vt 0.3255 0.6107
vt 0.3255 0.6107
vt 0.3255 0.6107
vt 0.3255 0.6107
vt 0.3255 0.6107
vt 0.3255 0.6107
vt 0.3255 0.6107
vt 0.3255 0.6107
vt 0.3255 0.6107
vt 0.3255 0.6107
vt 0.3255 0.6107
vt 0.3255 0.6107
vn -0.4218 0.0000 -0.9067
vn 1.0000 -0.0000 -0.0000
vn -0.3567 -0.5338 -0.7667
vn -0.3569 -0.5481 -0.7564
vn -0.3513 0.5537 -0.7550
vn -0.3512 0.5681 -0.7443
vn 0.9759 -0.0000 -0.2181
vn 0.9766 0.0053 -0.2149
vn 0.9154 0.3414 0.2133
vn 0.9821 0.0924 -0.1642
vn 0.9759 -0.0002 -0.2180
vn 0.9759 0.0001 -0.2181
vn -0.7071 -0.0000 0.7071
vn -0.0000 -1.0000 -0.0000
vn 0.0000 1.0000 0.0000
vn -0.7072 0.0001 0.7071
vn -0.7065 -0.0023 0.7077
vn -0.7020 -0.7090 0.0671
vn 0.3202 0.9463 0.0441
vn 0.8527 0.2031 0.4814
vn -0.1066 0.9308 0.3496
vn 0.5110 0.0687 0.8568
vn 0.5110 0.0686 0.8568
vn 0.4224 -0.8884 0.1799
vn 0.0284 -0.0847 0.9960
vn -0.0480 -0.9097 0.4124
vn 0.5544 0.8071 0.2031
vn 0.9459 0.3228 0.0323
vn 0.4671 0.4703 -0.7487
vn 0.9540 -0.0249 0.2987
vn 0.0575 0.9578 0.2817
vn 0.5732 0.0027 0.8194
vn -0.0437 0.5671 -0.8225
vn 0.9213 -0.3854 0.0518
vn -0.4948 -0.3349 -0.8019
vn -0.2198 -0.5570 -0.8009
vn -0.2522 -0.7476 -0.6144
vn -0.0846 -0.6073 -0.7900
vn 0.4975 -0.8312 0.2484
vn 0.4975 -0.8311 0.2484
vn -0.5425 0.5076 -0.6693
vn -0.4552 0.8444 0.2825
vn 0.0793 0.0248 0.9965
vn -0.0085 -0.9425 0.3342
vn -0.5777 -0.5049 -0.6414
vn -0.5122 -0.7938 0.3278
vn 0.4319 -0.5422 -0.7208
vn 0.7749 -0.4862 0.4038
vn -0.2472 -0.9659 0.0767
vn 0.4801 -0.3343 0.8110
vn 0.4381 0.6585 0.6119
vn -0.9277 -0.1108 -0.3564
vn -0.4011 -0.7478 0.5290
vn -0.0554 -0.0258 0.9981
vn -0.0736 0.4034 0.9120
vn -0.4691 0.8586 0.2068
vn -0.3261 0.8975 -0.2970
vn -0.9878 -0.0106 0.1556
vn -0.4364 -0.2046 0.8762
vn -0.4658 0.4899 0.7369
vn -0.6900 0.1142 0.7148
vn 0.6965 0.6783 0.2338
vn 0.6964 0.6787 0.2333
vn 0.6962 0.6791 0.2328
vn 0.0857 0.8217 -0.5635
vn 0.8666 0.3856 -0.3166
vn 0.0857 0.8217 -0.5634
vn 0.9562 -0.0424 -0.2896
vn 0.6027 0.4473 -0.6608
vn 0.9034 -0.3110 0.2952
vn 0.3385 0.7113 0.6160
vn -0.0844 -0.0802 -0.9932
vn -0.0844 -0.0803 -0.9932
vn 0.7476 -0.2452 -0.6172
vn 0.5292 0.0574 -0.8466
vn 0.4209 -0.7803 -0.4625
vn 0.5789 -0.4372 0.6884
vn 0.5789 -0.4372 0.6883
vn 0.5789 -0.4371 0.6883
vn 0.0192 -0.9815 -0.1906
vn 0.5335 0.8006 0.2728
vn 0.7920 -0.1238 0.5978
vn 0.0747 0.8484 0.5241
vn 0.0743 0.8491 0.5230
vn 0.0745 0.8488 0.5235
vn 0.7919 -0.1238 0.5980
vn 0.7919 -0.1238 0.5979
vn -0.3283 0.7480 -0.5768
vn -0.3284 0.7480 -0.5768
vn 0.6047 -0.7823 -0.1495
vn 0.3742 -0.2233 0.9001
vn -0.4054 0.6633 0.6290
vn -0.7524 0.5762 -0.3192
vn -0.7524 0.5762 -0.3191
vn -0.2772 -0.3868 -0.8795
vn -0.1468 -0.2611 0.9541
vn -0.8319 0.1907 0.5211
vn -0.7083 -0.4021 -0.5801
vn -0.7083 -0.4021 -0.5802
vn -0.9819 0.1530 0.1112
vn 0.1570 -0.9870 0.0332
vn -0.3341 -0.9196 0.2068
vn -0.7202 -0.2089 0.6616
vn -0.9629 -0.2699 -0.0016
vn -0.8011 -0.4936 0.3386
usemtl None
s 1
f 1/1/1 2/2/1 3/3/1
f 3/3/1 2/2/1 4/4/1
f 1/5/2 5/6/2 2/7/2
f 2/7/2 5/6/2 6/8/2
f 2/2/3 6/9/3 4/4/3
f 4/4/4 6/9/4 7/10/4
f 1/1/5 3/3/5 5/11/5
f 5/11/6 3/3/6 8/12/6
f 5/6/7 9/13/7 6/8/7
f 9/13/7 10/14/7 6/8/7
f 10/14/7 11/15/7 6/8/7
f 12/16/7 13/17/7 14/18/7
f 13/17/7 6/8/7 14/18/7
f 14/18/7 6/8/7 15/19/7
f 15/19/7 6/8/7 16/20/7
f 6/8/7 11/15/7 16/20/7
f 11/15/8 17/21/8 16/20/9
f 17/21/10 18/22/10 16/20/10
f 18/22/7 19/23/7 16/20/7
f 19/23/7 20/24/7 16/20/7
f 20/24/7 21/25/7 16/20/7
f 13/17/7 12/16/7 22/26/7
f 22/26/7 12/16/7 23/27/7
f 9/13/7 5/6/7 24/28/7
f 24/28/7 5/6/7 25/29/7
f 23/27/7 12/16/7 26/30/7
f 12/16/7 27/31/7 26/30/7
f 5/6/7 28/32/7 25/29/7
f 25/29/7 28/32/7 29/33/7
f 29/33/7 28/32/7 30/34/7
f 28/32/7 31/35/7 30/34/7
f 31/35/7 32/36/11 30/34/7
f 32/36/11 33/37/12 30/34/7
f 33/37/12 34/38/7 30/34/7
f 26/30/7 27/31/7 35/39/7
f 27/31/7 36/40/7 35/39/7
f 35/39/7 36/40/7 34/38/7
f 34/38/7 36/40/7 30/34/7
f 36/40/7 37/41/7 30/34/7
f 37/41/7 38/42/7 30/34/7
f 38/42/7 21/25/7 30/34/7
f 30/34/7 21/25/7 39/43/7
f 21/25/7 20/24/7 39/43/7
f 7/44/13 8/45/13 4/46/13
f 4/46/13 8/45/13 3/47/13
f 7/10/14 6/9/14 13/48/14
f 5/11/15 8/12/15 28/49/15
f 7/44/13 40/50/13 8/45/13
f 40/50/13 41/51/13 8/45/13
f 42/52/13 43/53/13 44/54/13
f 41/51/13 45/55/13 8/45/13
f 8/45/13 45/55/13 28/32/13
f 45/55/13 46/56/13 28/32/13
f 46/56/13 47/57/13 28/32/13
f 28/32/13 47/57/13 31/35/13
f 31/35/13 47/57/13 48/58/13
f 48/58/13 47/57/13 49/59/13
f 47/57/13 50/60/13 49/59/13
f 50/60/13 51/61/13 49/59/13
f 51/61/13 52/62/16 49/59/13
f 52/62/16 53/63/13 49/59/13
f 49/59/13 53/63/13 54/64/13
f 53/63/13 55/65/13 54/64/13
f 54/64/13 55/65/13 56/66/13
f 55/65/13 57/67/13 56/66/13
f 56/66/13 57/67/13 43/53/13
f 57/67/13 44/54/13 43/53/13
f 40/50/13 58/68/13 59/69/13
f 59/69/13 58/68/13 60/70/13
f 60/70/13 58/68/13 61/71/13
f 51/61/13 50/60/13 62/72/13
f 63/73/13 64/74/13 65/75/13
f 64/74/13 62/72/13 65/75/13
f 62/72/13 50/60/13 65/75/13
f 65/75/13 50/60/13 66/76/13
f 50/60/13 61/71/13 66/76/13
f 66/76/13 61/71/13 67/77/13
f 67/77/13 61/71/13 68/78/13
f 58/68/13 68/78/13 61/71/13
f 40/50/13 7/44/13 58/68/13
f 58/68/13 7/44/13 69/79/13
f 69/79/13 7/44/13 70/80/13
f 43/53/13 42/52/13 22/26/13
f 22/26/13 42/52/13 13/17/13
f 42/52/13 71/81/13 13/17/13
f 64/74/13 63/73/13 72/82/13
f 70/80/13 7/44/13 73/83/13
f 63/73/13 74/84/13 72/82/13
f 72/82/13 74/84/13 75/85/13
f 73/83/17 7/44/18 74/84/17
f 71/81/13 75/85/13 13/17/13
f 13/17/13 75/85/13 7/44/13
f 75/85/13 74/84/13 7/44/13
f 22/86/19 23/87/19 43/88/19
f 43/88/19 23/87/19 76/89/19
f 56/90/20 43/88/20 76/89/20
f 23/87/21 26/91/21 76/89/21
f 54/92/20 56/90/20 76/89/20
f 26/91/21 35/93/21 76/89/21
f 76/89/22 35/93/22 54/92/22
f 35/93/22 34/94/23 54/92/22
f 77/95/23 49/96/22 34/94/23
f 34/94/23 49/96/22 54/92/22
f 48/97/24 49/96/24 77/95/24
f 34/94/25 33/98/25 77/95/25
f 77/95/24 32/99/24 48/97/24
f 48/97/24 32/99/24 31/100/24
f 33/98/26 32/99/26 77/95/26
f 75/101/27 78/102/27 72/103/27
f 72/103/27 78/102/27 79/104/27
f 64/105/28 72/103/28 79/104/28
f 78/102/27 80/106/27 79/104/27
f 75/101/29 71/107/29 78/102/29
f 64/105/30 79/104/30 62/108/30
f 62/108/30 79/104/30 81/109/30
f 78/102/31 82/110/31 80/106/31
f 81/109/32 79/104/32 83/111/32
f 83/111/32 79/104/32 80/106/32
f 42/112/33 84/113/33 71/107/33
f 71/107/33 84/113/33 78/102/33
f 51/114/34 62/108/34 81/109/34
f 84/113/33 82/110/33 78/102/33
f 16/115/31 80/106/31 15/116/31
f 15/116/31 80/106/31 82/110/31
f 85/117/35 36/118/35 44/119/35
f 36/118/36 27/120/36 44/119/36
f 27/120/37 84/113/37 44/119/37
f 84/113/38 42/112/38 44/119/38
f 52/121/39 51/114/39 83/111/40
f 51/114/39 81/109/40 83/111/40
f 14/122/41 82/110/41 12/123/41
f 12/123/41 82/110/41 84/113/41
f 14/122/42 15/116/42 82/110/42
f 16/115/43 21/124/43 80/106/43
f 80/106/43 21/124/43 83/111/43
f 44/119/38 57/125/38 85/117/38
f 85/117/38 57/125/38 86/126/38
f 21/124/44 38/127/44 83/111/44
f 38/127/44 86/126/44 83/111/44
f 86/126/40 53/128/40 83/111/40
f 53/128/40 52/121/39 83/111/40
f 27/120/45 12/123/45 84/113/45
f 37/129/46 36/118/46 85/117/46
f 38/127/44 37/129/44 86/126/44
f 86/126/44 37/129/44 85/117/44
f 57/125/47 55/130/47 86/126/47
f 55/130/47 53/128/47 86/126/47
f 45/131/48 41/132/48 87/133/48
f 46/134/49 45/131/49 87/133/49
f 40/135/50 88/136/50 41/132/50
f 41/132/50 88/136/50 87/133/50
f 47/137/49 46/134/49 89/138/49
f 89/138/49 46/134/49 87/133/49
f 88/136/50 90/139/50 87/133/50
f 59/140/51 91/141/51 40/135/51
f 40/135/51 91/141/51 88/136/51
f 47/137/52 89/138/52 50/142/52
f 50/142/52 89/138/52 92/143/52
f 89/138/53 87/133/53 93/144/53
f 93/144/53 87/133/53 90/139/53
f 88/136/54 94/145/54 90/139/54
f 91/141/55 94/145/55 88/136/55
f 59/140/56 60/146/56 91/141/56
f 60/146/56 95/147/56 91/141/56
f 61/148/57 50/142/57 92/143/57
f 92/143/58 89/138/58 95/147/58
f 95/147/58 89/138/58 93/144/58
f 90/139/59 94/145/59 93/144/59
f 95/147/60 94/145/60 91/141/60
f 60/146/56 61/148/56 95/147/56
f 95/147/56 61/148/56 92/143/56
f 93/144/61 94/145/61 95/147/61
f 18/149/62 17/150/63 96/151/63
f 17/150/63 97/152/64 96/151/63
f 19/153/65 18/149/65 96/151/65
f 97/152/66 98/154/66 96/151/66
f 17/150/63 11/155/64 97/152/64
f 11/155/64 99/156/64 97/152/64
f 20/157/67 19/153/65 100/158/65
f 100/158/65 19/153/65 96/151/65
f 101/159/68 98/154/68 97/152/68
f 96/151/69 98/154/69 100/158/69
f 101/159/70 97/152/70 102/160/70
f 102/160/70 97/152/70 99/156/70
f 11/155/71 10/161/71 99/156/71
f 39/162/72 20/157/73 100/158/72
f 103/163/74 98/154/74 101/159/74
f 100/158/75 98/154/75 103/163/75
f 10/161/71 9/164/71 99/156/71
f 30/165/72 39/162/72 103/163/72
f 103/163/72 39/162/72 100/158/72
f 101/159/76 102/160/76 103/163/76
f 9/164/77 24/166/78 99/156/77
f 99/156/77 24/166/78 102/160/79
f 30/165/76 103/163/76 29/167/76
f 29/167/76 103/163/76 102/160/76
f 24/166/78 25/168/79 102/160/79
f 25/168/80 29/167/80 102/160/80
f 70/169/81 73/170/81 104/171/81
f 69/172/82 70/169/82 104/171/82
f 74/173/83 105/174/84 73/170/85
f 73/170/85 105/174/84 104/171/84
f 58/175/86 69/172/82 106/176/87
f 106/176/87 69/172/82 104/171/82
f 105/174/84 107/177/84 104/171/84
f 74/173/88 63/178/88 105/174/88
f 105/174/88 63/178/88 108/179/89
f 68/180/90 58/175/90 106/176/90
f 106/176/91 104/171/91 109/181/91
f 109/181/91 104/171/91 107/177/91
f 105/174/92 110/182/92 107/177/92
f 107/177/92 110/182/92 111/183/92
f 108/179/93 112/184/93 105/174/93
f 105/174/93 112/184/93 110/182/94
f 65/185/95 113/186/95 63/178/95
f 63/178/95 113/186/95 108/179/95
f 67/187/90 68/180/90 106/176/90
f 107/177/96 111/183/96 109/181/96
f 109/181/96 111/183/96 114/188/96
f 110/182/97 115/189/97 111/183/97
f 116/190/98 112/184/99 113/186/98
f 113/186/98 112/184/99 108/179/99
f 112/184/100 115/189/100 110/182/100
f 65/185/101 66/191/101 113/186/101
f 113/186/101 66/191/101 109/181/101
f 66/191/101 67/187/101 109/181/101
f 109/181/101 67/187/101 106/176/101
f 113/186/102 109/181/102 116/190/102
f 116/190/102 109/181/102 114/188/102
f 111/183/103 115/189/103 114/188/103
f 116/190/104 115/189/104 112/184/104
f 114/188/105 115/189/105 116/190/105
