# Blender v2.78 (sub 0) OBJ File: ''
# www.blender.org
mtllib SM_Prop_Basket_01.mtl
o SM_Prop_Basket_01
v 0.000000 22.056801 16.253103
v 13.117367 22.056799 12.641366
v 0.000000 24.906536 16.816082
v 13.571705 24.906538 13.079280
v 0.000000 3.248636 -14.616230
v 0.000000 3.248634 0.000001
v 12.069681 3.248636 -11.368315
v 14.460060 3.248634 0.000001
v 0.000000 22.056805 -16.253126
v 0.000000 24.906544 -16.816074
v 13.117369 22.056807 -12.641391
v 13.571705 24.906542 -13.079242
v 13.795858 0.142640 0.000000
v 0.000000 0.000000 0.000000
v 11.515232 0.142642 -11.097413
v 0.000000 0.142642 -14.267997
v 15.715246 22.056805 0.000004
v 16.259573 24.906540 0.000004
v -15.715246 22.056801 0.000004
v -16.259634 24.906540 0.000004
v -13.117369 22.056807 -12.641391
v -13.571705 24.906542 -13.079242
v -14.460121 3.248634 0.000001
v -12.069681 3.248636 -11.368315
v -13.117367 22.056799 12.641366
v -13.571705 24.906538 13.079280
v -11.515293 0.142642 -11.097413
v -13.795858 0.142640 0.000000
v 0.000000 3.248632 14.616261
v -12.069681 3.248632 11.368284
v 12.069681 3.248632 11.368284
v 0.000000 0.142638 14.267997
v 11.515232 0.142638 11.097413
v -11.515293 0.142638 11.097413
v -13.762318 17.535482 -13.262965
v -7.635168 19.419355 -14.617011
v 0.000000 18.143677 -16.944712
v -14.481670 12.492600 -13.956209
v -17.349792 12.492599 0.000002
v -14.481670 12.492597 13.956213
v -13.887119 16.660685 13.383176
v -15.350424 17.089336 5.906391
v -13.663589 18.227446 13.167847
v 0.000000 12.492596 17.943533
v -6.322415 17.129509 15.383201
v 5.222138 14.488277 16.152952
v 13.679237 18.117645 13.182931
v 14.481670 12.492597 13.956213
v 14.823704 19.410873 6.538720
v 16.148596 19.520885 0.000003
v 17.349792 12.492599 0.000002
v 14.481670 12.492600 -13.956209
v 16.446899 17.775646 0.000003
v 14.830212 18.492392 -8.544481
v 7.460053 12.492601 -15.889500
v 0.000000 12.492601 -17.943560
v -14.193287 9.722343 -13.678272
v -10.712448 9.136023 -14.561049
v 0.000000 7.467459 -17.295322
v -8.800655 5.697626 -14.643897
v -16.979265 9.521814 0.000002
v -14.970415 8.406631 9.098388
v -13.774302 5.697621 13.274486
v 0.000000 7.556169 17.306753
v 7.928785 11.059656 15.575621
v 13.774240 5.697621 13.274486
v 16.502254 5.697623 0.000001
v 14.305046 10.796229 -13.786035
v -13.774302 5.697625 -13.274453
v -12.672543 2.988355 -12.212682
v -6.494894 2.106975 -13.469539
v 0.000000 5.697626 -17.067062
v -12.171148 1.755437 -11.729509
v -13.858845 2.548210 -5.396483
v -15.318645 3.268168 0.000001
v 0.000000 5.697620 17.067032
v 13.774240 5.697625 -13.274453
v 6.915913 5.697626 -15.162831
v 12.500612 27.596725 -12.047050
v 14.976429 27.596724 0.000004
v 0.000000 27.596725 -15.488974
v -12.500673 27.596725 -12.047050
v -14.976429 27.596724 0.000004
v -12.500673 27.596722 12.047088
v 0.000000 27.596722 15.488951
v 12.500612 27.596722 12.047088
v 10.450064 27.596725 -9.842798
v 12.519743 27.596724 0.000004
v 0.000000 27.596725 -12.654953
v -10.450064 27.596725 -9.842798
v -12.519743 27.596724 0.000004
v -10.450064 27.596722 9.842806
v 0.000000 27.596722 12.654930
v 10.450064 27.596722 9.842806
v 12.695055 24.972601 0.000004
v 10.596462 24.972603 -9.980708
v 0.000000 24.972603 -12.832169
v -10.596523 24.972603 -9.980708
v -12.695116 24.972601 0.000004
v 0.000000 24.972599 12.832207
v -10.596523 24.972599 9.980746
v 10.596462 24.972599 9.980746
v 14.622791 16.275143 0.000003
v 12.205420 16.275145 -11.496193
v 0.000000 16.275145 -14.780714
v -12.205481 16.275145 -11.496193
v -14.622791 16.275143 0.000003
v 0.000000 16.275141 14.780748
v -12.205481 16.275141 11.496166
v 12.205420 16.275141 11.496166
v -4.841086 17.099865 -15.796300
v -16.502316 5.697623 0.000001
v -14.024033 8.096693 -13.515183
v -16.796165 8.054047 0.000001
vt 0.0842 0.3300
vt 0.0842 0.3300
vt 0.0842 0.3300
vt 0.0842 0.3300
vt 0.0842 0.3300
vt 0.0842 0.3300
vt 0.0842 0.3300
vt 0.0842 0.3300
vt 0.0842 0.3300
vt 0.0842 0.3300
vt 0.0842 0.3300
vt 0.0842 0.3300
vt 0.0842 0.3300
vt 0.0842 0.3300
vt 0.0842 0.3300
vt 0.0842 0.3300
vt 0.0842 0.3300
vt 0.0842 0.3300
vt 0.0842 0.3300
vt 0.0842 0.3300
vt 0.0842 0.3300
vt 0.0842 0.3300
vt 0.0842 0.3300
vt 0.0842 0.3300
vt 0.0842 0.3300
vt 0.0842 0.3300
vt 0.0842 0.3300
vt 0.0842 0.3300
vt 0.0842 0.3300
vt 0.0842 0.3300
vt 0.0842 0.3300
vt 0.0842 0.3300
vt 0.0842 0.3300
vt 0.0842 0.3300
vt 0.0842 0.3300
vt 0.0842 0.3300
vt 0.0842 0.3300
vt 0.0842 0.3300
vt 0.0842 0.3300
vt 0.0842 0.3300
vt 0.0842 0.3300
vt 0.0842 0.3300
vt 0.0842 0.3300
vt 0.0842 0.3300
vt 0.0842 0.3300
vt 0.0842 0.3300
vt 0.0842 0.3300
vt 0.0842 0.3300
vt 0.0842 0.3300
vt 0.0842 0.3300
vt 0.0842 0.3300
vt 0.0842 0.3300
vt 0.0842 0.3300
vt 0.0842 0.3300
vt 0.0842 0.3300
vt 0.0842 0.3300
vt 0.0842 0.3300
vt 0.0842 0.3300
vt 0.0842 0.3300
vt 0.0842 0.3300
vt 0.0842 0.3300
vt 0.0842 0.3300
vt 0.0842 0.3300
vt 0.0842 0.3300
vt 0.0842 0.3300
vt 0.0842 0.3300
vt 0.0842 0.3300
vt 0.0278 0.3285
vt 0.0278 0.3285
vt 0.0278 0.3285
vt 0.0278 0.3285
vt 0.0842 0.3300
vt 0.0842 0.3300
vt 0.0842 0.3300
vt 0.0842 0.3300
vt 0.0842 0.3300
vt 0.0278 0.3285
vt 0.0278 0.3285
vt 0.0278 0.3285
vt 0.0278 0.3285
vt 0.0278 0.3285
vt 0.0278 0.3285
vt 0.0842 0.3300
vt 0.0842 0.3300
vt 0.0842 0.3300
vt 0.0842 0.3300
vt 0.0842 0.3300
vt 0.0842 0.3300
vt 0.0842 0.3300
vt 0.0842 0.3300
vt 0.0842 0.3300
vt 0.0842 0.3300
vt 0.0842 0.3300
vt 0.0842 0.3300
vt 0.0842 0.3300
vt 0.0842 0.3300
vt 0.0842 0.3300
vt 0.0842 0.3300
vt 0.0842 0.3300
vt 0.0842 0.3300
vt 0.0842 0.3300
vt 0.0842 0.3300
vt 0.0842 0.3300
vt 0.0842 0.3300
vt 0.0842 0.3300
vt 0.0842 0.3300
vt 0.0842 0.3300
vt 0.0842 0.3300
vt 0.0842 0.3300
vt 0.0842 0.3300
vt 0.0842 0.3300
vt 0.0842 0.3300
vt 0.0842 0.3300
vt 0.0842 0.3300
vt 0.0842 0.3300
vt 0.0842 0.3300
vt 0.0842 0.3300
vt 0.0278 0.3285
vt 0.0278 0.3285
vt 0.0278 0.3285
vt 0.0278 0.3285
vt 0.0278 0.3285
vt 0.0278 0.3285
vt 0.0278 0.3285
vt 0.0842 0.3300
vt 0.0278 0.3285
vt 0.0278 0.3285
vt 0.0278 0.3285
vt 0.0278 0.3285
vt 0.0842 0.3300
vt 0.0278 0.3285
vt 0.0278 0.3285
vt 0.0278 0.3285
vt 0.0278 0.3285
vt 0.0278 0.3285
vt 0.0278 0.3285
vt 0.0278 0.3285
vt 0.0278 0.3285
vt 0.0842 0.3300
vt 0.0842 0.3300
vt 0.0842 0.3300
vt 0.0278 0.3285
vt 0.0311 0.3266
vt 0.0311 0.3266
vt 0.0311 0.3266
vt 0.0311 0.3266
vt 0.0311 0.3266
vt 0.0320 0.3221
vt 0.0320 0.3221
vt 0.0320 0.3221
vt 0.0842 0.3300
vt 0.0842 0.3300
vt 0.0336 0.3270
vt 0.0336 0.3270
vt 0.0336 0.3270
vt 0.0336 0.3270
vt 0.0336 0.3270
vt 0.0336 0.3270
vn 0.2608 -0.1871 0.9471
vn 0.0000 1.0000 0.0000
vn 0.2608 -0.1871 -0.9471
vn 0.0103 -0.9999 -0.0000
vn 0.0103 -0.9999 -0.0021
vn 0.0028 -0.9999 -0.0100
vn 0.0000 -1.0000 -0.0100
vn 0.0000 -0.9999 -0.0100
vn 0.9628 -0.1839 -0.1979
vn -0.9628 -0.1839 -0.1979
vn -0.2608 -0.1871 0.9471
vn -0.0028 -0.9999 -0.0100
vn -0.0103 -0.9999 -0.0021
vn -0.0103 -0.9999 -0.0000
vn -0.2608 -0.1871 -0.9471
vn 0.9628 -0.1839 0.1979
vn 0.0000 -0.9999 0.0100
vn 0.0000 -1.0000 0.0100
vn 0.0028 -0.9999 0.0100
vn 0.0103 -0.9999 0.0021
vn -0.0103 -0.9999 0.0021
vn -0.0028 -0.9999 0.0100
vn -0.9628 -0.1839 0.1979
vn -0.2617 0.1680 -0.9504
vn -0.9661 0.1651 -0.1985
vn -0.9661 0.1651 0.1985
vn -0.2617 0.1680 0.9504
vn 0.2617 0.1680 0.9504
vn 0.9661 0.1651 0.1985
vn 0.9661 0.1651 -0.1985
vn 0.9789 0.1024 -0.1766
vn 0.9531 0.1704 -0.2502
vn 0.9526 0.2328 -0.1958
vn 0.9714 0.1660 -0.1699
vn 0.2617 0.1680 -0.9504
vn -0.2634 -0.1234 -0.9568
vn -0.9723 -0.1213 -0.1998
vn -0.9723 -0.1213 0.1998
vn -0.2634 -0.1234 0.9568
vn 0.2634 -0.1234 0.9568
vn 0.9723 -0.1213 0.1998
vn 0.9723 -0.1213 -0.1998
vn 0.2634 -0.1234 -0.9568
vn -0.2388 -0.4370 -0.8672
vn -0.8840 -0.4307 -0.1817
vn -0.8840 -0.4307 0.1817
vn -0.2388 -0.4370 0.8672
vn 0.2388 -0.4370 0.8672
vn 0.8840 -0.4307 0.1817
vn 0.8840 -0.4307 -0.1817
vn 0.2388 -0.4370 -0.8672
vn 0.8874 0.4233 -0.1824
vn 0.2397 0.4295 -0.8707
vn -0.2397 0.4295 -0.8707
vn -0.8874 0.4233 -0.1824
vn -0.2397 0.4295 0.8707
vn -0.8874 0.4233 0.1824
vn 0.2397 0.4295 0.8707
vn 0.8874 0.4233 0.1824
vn -0.9765 -0.0652 0.2053
vn -0.9765 -0.0653 0.2053
vn -0.2593 -0.0651 0.9636
vn 0.2593 -0.0651 0.9636
vn 0.9765 -0.0653 0.2053
vn 0.2593 -0.0651 -0.9636
vn 0.9765 -0.0653 -0.2053
vn -0.2593 -0.0651 -0.9636
vn -0.9765 -0.0652 -0.2053
vn -0.9765 -0.0653 -0.2053
vn -0.9564 -0.2120 0.2011
vn -0.2540 -0.2114 0.9438
vn 0.2540 -0.2114 0.9438
vn 0.9564 -0.2120 0.2011
vn 0.2540 -0.2114 -0.9438
vn 0.9564 -0.2120 -0.2011
vn -0.2540 -0.2114 -0.9438
vn -0.9564 -0.2120 -0.2011
vn -0.9785 0.0122 0.2058
vn -0.2598 0.0122 0.9656
vn 0.2598 0.0122 0.9656
vn 0.9785 0.0122 0.2058
vn 0.2598 0.0122 -0.9656
vn 0.9785 0.0122 -0.2058
vn -0.2598 0.0122 -0.9656
vn -0.9785 0.0122 -0.2058
vn 0.2634 -0.1234 -0.9567
vn -0.9723 -0.1212 -0.1998
usemtl None
s 1
f 1/1/1 2/2/1 3/3/1
f 3/3/1 2/2/1 4/4/1
f 5/5/2 6/6/2 7/7/2
f 7/7/2 6/6/2 8/8/2
f 9/9/3 10/10/3 11/11/3
f 11/11/3 10/10/3 12/12/3
f 13/13/4 14/14/4 15/15/5
f 15/15/6 14/14/7 16/16/8
f 17/17/9 11/11/9 18/18/9
f 18/18/9 11/11/9 12/12/9
f 19/19/10 20/20/10 21/21/10
f 21/21/10 20/20/10 22/22/10
f 23/23/2 6/6/2 24/24/2
f 24/24/2 6/6/2 5/5/2
f 1/1/11 3/3/11 25/25/11
f 25/25/11 3/3/11 26/26/11
f 16/16/8 14/14/7 27/27/12
f 27/27/13 14/14/14 28/28/14
f 22/22/15 10/10/15 21/21/15
f 21/21/15 10/10/15 9/9/15
f 29/29/2 6/6/2 30/30/2
f 30/30/2 6/6/2 23/23/2
f 8/8/2 6/6/2 31/31/2
f 31/31/2 6/6/2 29/29/2
f 17/17/16 18/18/16 2/2/16
f 2/2/16 18/18/16 4/4/16
f 32/32/17 14/14/18 33/33/19
f 33/33/20 14/14/4 13/13/4
f 28/28/14 14/14/14 34/34/21
f 34/34/22 14/14/18 32/32/17
f 19/19/23 25/25/23 20/20/23
f 20/20/23 25/25/23 26/26/23
f 35/35/24 21/21/24 36/36/24
f 21/21/24 9/9/24 36/36/24
f 9/9/24 37/37/24 36/36/24
f 38/38/25 39/39/25 35/35/25
f 39/39/25 19/19/25 35/35/25
f 19/19/25 21/21/25 35/35/25
f 40/40/26 41/41/26 39/39/26
f 41/41/26 42/42/26 39/39/26
f 39/39/26 42/42/26 19/19/26
f 19/19/26 42/42/26 25/25/26
f 25/25/26 42/42/26 43/43/26
f 40/40/27 44/44/27 41/41/27
f 41/41/27 44/44/27 45/45/27
f 44/44/27 1/1/27 45/45/27
f 1/1/27 25/25/27 45/45/27
f 25/25/27 43/43/27 45/45/27
f 44/44/28 46/46/28 1/1/28
f 1/1/28 46/46/28 2/2/28
f 2/2/28 46/46/28 47/47/28
f 46/46/28 48/48/28 47/47/28
f 47/47/29 49/49/29 2/2/29
f 2/2/29 49/49/29 17/17/29
f 49/49/29 50/50/29 17/17/29
f 51/51/30 52/52/30 53/53/30
f 53/53/31 52/52/31 54/54/31
f 52/52/32 11/11/32 54/54/32
f 11/11/33 17/17/33 54/54/33
f 17/17/34 50/50/34 54/54/34
f 52/52/35 55/55/35 11/11/35
f 11/11/35 55/55/35 9/9/35
f 9/9/35 55/55/35 37/37/35
f 55/55/35 56/56/35 37/37/35
f 38/38/36 56/56/36 57/57/36
f 57/57/36 56/56/36 58/58/36
f 56/56/36 59/59/36 58/58/36
f 59/59/36 60/60/36 58/58/36
f 61/61/37 39/39/37 57/57/37
f 57/57/37 39/39/37 38/38/37
f 40/40/38 39/39/38 62/62/38
f 62/62/38 39/39/38 61/61/38
f 63/63/39 64/64/39 40/40/39
f 40/40/39 64/64/39 44/44/39
f 48/48/40 65/65/40 66/66/40
f 66/66/40 65/65/40 64/64/40
f 65/65/40 44/44/40 64/64/40
f 67/67/41 51/51/41 66/66/41
f 66/66/41 51/51/41 48/48/41
f 52/68/42 51/69/42 68/70/42
f 68/70/43 55/71/43 52/68/43
f 69/72/44 60/60/44 70/73/44
f 70/73/44 60/60/44 71/74/44
f 60/60/44 72/75/44 71/74/44
f 72/75/44 16/16/44 71/74/44
f 16/16/44 27/27/44 71/74/44
f 27/27/44 73/76/44 71/74/44
f 70/77/45 73/78/45 74/79/45
f 73/78/45 28/80/45 74/79/45
f 28/80/45 75/81/45 74/79/45
f 34/82/46 75/81/46 28/80/46
f 32/32/47 76/83/47 34/34/47
f 34/34/47 76/83/47 63/63/47
f 66/66/48 76/83/48 33/33/48
f 33/33/48 76/83/48 32/32/48
f 13/13/49 67/67/49 33/33/49
f 33/33/49 67/67/49 66/66/49
f 77/84/50 67/67/50 15/15/50
f 15/15/50 67/67/50 13/13/50
f 77/84/51 15/15/51 78/85/51
f 15/15/51 16/16/51 78/85/51
f 16/16/51 72/75/51 78/85/51
f 12/12/52 79/86/52 18/18/52
f 18/18/52 79/86/52 80/87/52
f 12/12/53 10/10/53 79/86/53
f 79/86/53 10/10/53 81/88/53
f 22/22/54 82/89/54 10/10/54
f 10/10/54 82/89/54 81/88/54
f 22/22/55 20/20/55 82/89/55
f 82/89/55 20/20/55 83/90/55
f 26/26/56 3/3/56 84/91/56
f 84/91/56 3/3/56 85/92/56
f 26/26/57 84/91/57 20/20/57
f 20/20/57 84/91/57 83/90/57
f 4/4/58 86/93/58 3/3/58
f 3/3/58 86/93/58 85/92/58
f 4/4/59 18/18/59 86/93/59
f 86/93/59 18/18/59 80/87/59
f 79/86/2 87/94/2 80/87/2
f 80/87/2 87/94/2 88/95/2
f 79/86/2 81/88/2 87/94/2
f 87/94/2 81/88/2 89/96/2
f 82/89/2 90/97/2 81/88/2
f 81/88/2 90/97/2 89/96/2
f 82/89/2 83/90/2 90/97/2
f 90/97/2 83/90/2 91/98/2
f 84/91/2 85/92/2 92/99/2
f 92/99/2 85/92/2 93/100/2
f 84/91/2 92/99/2 83/90/2
f 83/90/2 92/99/2 91/98/2
f 86/93/2 94/101/2 85/92/2
f 85/92/2 94/101/2 93/100/2
f 86/93/2 80/87/2 94/101/2
f 94/101/2 80/87/2 88/95/2
f 88/95/60 87/94/61 95/102/60
f 95/102/60 87/94/61 96/103/61
f 89/96/62 97/104/62 87/94/62
f 87/94/62 97/104/62 96/103/62
f 89/96/63 90/97/63 97/104/63
f 97/104/63 90/97/63 98/105/63
f 91/98/64 99/106/64 90/97/64
f 90/97/64 99/106/64 98/105/64
f 93/100/65 100/107/65 92/99/65
f 92/99/65 100/107/65 101/108/65
f 91/98/66 92/99/66 99/106/66
f 99/106/66 92/99/66 101/108/66
f 93/100/67 94/101/67 100/107/67
f 100/107/67 94/101/67 102/109/67
f 88/95/68 95/102/68 94/101/69
f 94/101/69 95/102/68 102/109/69
f 95/102/70 96/103/70 103/110/70
f 103/110/70 96/103/70 104/111/70
f 97/104/71 105/112/71 96/103/71
f 96/103/71 105/112/71 104/111/71
f 97/104/72 98/105/72 105/112/72
f 105/112/72 98/105/72 106/113/72
f 99/106/73 107/114/73 98/105/73
f 98/105/73 107/114/73 106/113/73
f 100/107/74 108/115/74 101/108/74
f 101/108/74 108/115/74 109/116/74
f 99/106/75 101/108/75 107/114/75
f 107/114/75 101/108/75 109/116/75
f 100/107/76 102/109/76 108/115/76
f 108/115/76 102/109/76 110/117/76
f 95/102/77 103/110/77 102/109/77
f 102/109/77 103/110/77 110/117/77
f 104/111/78 7/7/78 103/110/78
f 103/110/78 7/7/78 8/8/78
f 104/111/79 105/112/79 7/7/79
f 7/7/79 105/112/79 5/5/79
f 106/113/80 24/24/80 105/112/80
f 105/112/80 24/24/80 5/5/80
f 106/113/81 107/114/81 24/24/81
f 24/24/81 107/114/81 23/23/81
f 109/116/82 108/115/82 30/30/82
f 30/30/82 108/115/82 29/29/82
f 109/116/83 30/30/83 107/114/83
f 107/114/83 30/30/83 23/23/83
f 110/117/84 31/31/84 108/115/84
f 108/115/84 31/31/84 29/29/84
f 110/117/85 103/110/85 31/31/85
f 31/31/85 103/110/85 8/8/85
f 48/118/28 46/119/28 44/120/28
f 63/121/39 76/122/39 64/123/39
f 66/124/40 64/123/40 76/122/40
f 51/51/42 67/67/42 68/125/42
f 68/125/42 67/67/42 77/84/42
f 56/56/43 55/55/43 59/59/43
f 59/59/43 55/55/43 78/85/43
f 55/55/43 68/125/43 78/85/43
f 77/84/86 78/85/43 68/125/43
f 59/126/43 78/127/43 72/128/43
f 60/129/36 59/126/36 72/128/36
f 37/37/24 56/56/24 111/130/24
f 56/56/24 38/38/24 111/130/24
f 35/35/24 111/130/24 38/38/24
f 35/131/24 36/132/24 111/133/24
f 111/133/24 36/132/24 37/134/24
f 43/135/26 42/136/26 41/137/26
f 41/137/27 45/138/27 43/135/27
f 69/72/45 70/73/45 112/139/45
f 70/73/45 74/140/45 112/139/45
f 74/140/45 75/141/45 112/139/45
f 70/77/44 71/142/44 73/78/44
f 27/27/45 28/28/45 73/76/45
f 63/63/46 112/139/46 34/34/46
f 34/34/46 112/139/46 75/141/46
f 48/48/29 51/51/29 47/47/29
f 47/47/29 51/51/29 53/53/29
f 53/143/34 54/144/34 50/145/34
f 47/146/29 53/143/29 49/147/29
f 49/147/29 53/143/29 50/145/29
f 48/148/40 44/149/40 65/150/40
f 113/151/36 58/58/36 69/72/36
f 69/72/36 58/58/36 60/60/36
f 112/139/87 114/152/37 69/72/37
f 69/72/37 114/152/37 113/151/37
f 114/153/38 62/154/38 61/155/38
f 114/153/37 61/155/37 113/156/37
f 113/156/37 61/155/37 57/157/37
f 57/157/36 58/158/36 113/156/36
f 40/40/38 62/62/38 63/63/38
f 63/63/38 62/62/38 112/139/38
f 62/62/38 114/152/38 112/139/38
