# Blender v2.78 (sub 0) OBJ File: ''
# www.blender.org
mtllib SM_Prop_Pot_02.mtl
o SM_Prop_Pot_02
v -2.510864 9.562009 -25.932367
v 2.511475 9.562009 -25.932367
v -2.510864 9.800606 -27.354883
v 2.511475 9.800606 -27.354883
v 2.511475 6.790933 -26.397150
v 2.511475 7.029533 -27.819666
v -2.510864 7.029533 -27.819666
v -2.510864 6.790933 -26.397150
v -3.034058 7.930778 -12.724696
v -3.034058 8.070901 -13.704741
v -3.034058 3.981457 -13.387111
v -3.034058 4.121578 -14.367152
v 3.034424 7.930778 -12.724696
v 3.034424 8.176387 -14.333644
v 3.034546 3.981457 -13.387111
v 3.034546 4.227066 -14.996074
v -2.510864 4.363541 -11.925059
v -2.510864 7.134614 -11.460277
v -2.510864 4.530478 -12.920348
v -2.510864 7.301553 -12.455546
v 2.511475 7.134614 -11.460277
v 2.511475 7.301553 -12.455546
v 2.511475 4.363541 -11.925059
v 2.511475 4.530478 -12.920348
v 2.511475 7.708890 -14.884089
v 2.511475 7.784935 -15.337474
v -2.510864 7.603403 -14.255183
v -2.510864 7.924498 -16.169535
v -2.510864 4.832328 -14.719966
v -2.510864 5.153423 -16.634335
v 2.511475 5.013860 -15.802272
v 2.511475 4.937814 -15.348887
v 3.034424 8.414164 -15.606608
v 3.034546 8.679026 -17.330362
v -3.034058 8.553724 -16.438684
v -3.034058 8.818586 -18.162422
v -3.034058 4.604402 -17.101101
v -3.034058 4.869263 -18.824842
v 3.034546 4.729701 -17.992779
v 3.034546 4.464840 -16.269026
v 2.511475 8.211527 -17.880808
v 2.511475 8.552435 -19.913294
v -2.510864 8.351088 -18.712872
v -2.510864 8.434607 -19.210812
v -2.510864 5.580013 -19.177671
v -2.510864 5.663533 -19.675611
v 2.511475 5.781361 -20.378094
v 2.511475 5.440452 -18.345594
v -3.034058 9.063833 -19.479942
v 3.034546 9.181658 -20.182428
v -3.034058 9.356332 -21.368464
v 3.034546 9.448915 -21.920435
v -3.034058 5.114510 -20.142378
v -3.034058 5.407010 -22.030884
v 3.034546 5.499592 -22.582855
v 3.034546 5.232337 -20.844845
v 2.511475 8.981416 -22.470881
v 2.511475 9.099282 -23.173594
v -2.510864 8.888835 -21.918909
v -2.510864 9.195642 -23.748102
v -2.510864 6.117761 -22.383692
v -2.510864 6.424567 -24.212885
v 2.511475 6.328208 -23.638391
v 2.511475 6.210341 -22.935663
v 3.034546 9.728509 -23.442743
v 3.034546 10.029506 -25.381922
v -3.034058 9.824868 -24.017237
v -3.034058 10.029506 -25.381922
v -3.034058 5.875547 -24.679651
v -3.034058 6.080184 -26.044336
v 3.034546 6.080184 -26.044336
v 3.034546 5.779187 -24.105164
v -1.821045 9.627724 -28.601297
v 1.821533 9.627724 -28.601297
v -1.821045 7.599625 -28.941477
v 1.821533 7.599625 -28.941477
v -1.821045 9.429115 -27.417185
v 1.821533 9.429115 -27.417185
v 1.821533 7.401016 -27.757364
v -1.821045 7.401016 -27.757364
v 1.821533 4.735024 -11.862758
v 1.821533 6.763122 -11.522578
v -1.821045 6.763122 -11.522578
v -1.821045 4.735024 -11.862758
v 1.821533 5.734481 -5.389829
v 1.821533 3.549748 -4.796155
v -1.821045 5.734481 -5.389829
v -1.821045 3.549748 -4.796155
v 18.362228 5.031751 10.579243
v 16.497490 4.004036 10.579243
v 12.817581 5.031756 -2.238338
v 11.515923 4.004045 -0.936678
v 0.000000 -8.061365 -3.290086
v 0.000000 -8.061371 10.579239
v 9.681351 -8.061367 0.897888
v 13.869324 -8.061371 10.579239
v -11.515923 4.004040 -0.936680
v -16.497498 4.004041 10.579243
v -12.817581 5.031756 -2.238339
v -18.362228 5.031751 10.579243
v 14.422180 -10.029502 10.579237
v 0.000000 -10.029502 10.579237
v 10.067268 -10.029498 0.511969
v 0.000000 -10.029496 -3.842928
v 0.000000 4.004045 -5.918241
v 0.000000 5.031758 -7.782985
v 0.000000 5.031745 28.941477
v 0.000000 4.004031 27.076731
v 12.817581 5.031747 23.396822
v 11.515923 4.004037 22.095163
v 9.681351 -8.061373 20.260588
v 0.000000 -8.061375 24.448561
v 15.407053 5.031749 17.410730
v 0.000000 -10.029506 25.001417
v 10.067268 -10.029506 20.646505
v -12.817581 5.031747 23.396822
v -11.515923 4.004032 22.095165
v -14.422180 -10.029502 10.579237
v -10.067268 -10.029506 20.646505
v -10.067268 -10.029498 0.511969
v -13.869324 -8.061371 10.579239
v -9.681351 -8.061367 0.897888
v -9.681351 -8.061373 20.260588
v 18.362228 7.069955 10.579243
v 12.817581 7.069959 -2.238337
v 15.436998 7.069955 10.579243
v 10.775650 7.069959 -0.196407
v 0.000000 7.069962 -7.782985
v 0.000000 7.069962 -4.857757
v 12.817581 7.069951 23.396826
v 14.480975 7.069952 19.551550
v 10.775650 7.069952 21.354895
v 12.984274 7.069954 16.249208
v 0.000000 7.069948 28.941481
v 0.000000 7.069951 26.016243
v -12.817581 7.069959 -2.238338
v -10.775650 7.069959 -0.196407
v -9.595985 7.069959 -0.706708
v -6.881678 7.069959 -3.065546
v -3.489156 7.069959 -3.348410
v -18.362228 7.069955 10.579243
v -15.436998 7.069955 10.579243
v -12.817581 7.069951 23.396826
v -10.775650 7.069952 21.354895
v -7.211514 5.965909 -1.623802
v 16.255812 7.069954 15.448653
v -11.515923 -8.061375 22.095161
v -16.497498 -8.061371 10.579239
v 0.000000 -8.061377 27.076727
v 11.515923 -8.061375 22.095160
v 16.497490 -8.061371 10.579239
v 11.515923 -8.061367 -0.936682
v 0.000000 -8.061365 -5.918245
v -11.515923 -8.061367 -0.936684
vt 0.0890 0.2819
vt 0.0890 0.2819
vt 0.0890 0.2819
vt 0.0890 0.2819
vt 0.0890 0.2819
vt 0.0890 0.2819
vt 0.0890 0.2819
vt 0.0890 0.2819
vt 0.0967 0.3330
vt 0.0967 0.3330
vt 0.0967 0.3330
vt 0.0967 0.3330
vt 0.0967 0.3330
vt 0.0967 0.3330
vt 0.0967 0.3330
vt 0.0967 0.3330
vt 0.0890 0.2819
vt 0.0890 0.2819
vt 0.0890 0.2819
vt 0.0890 0.2819
vt 0.0890 0.2819
vt 0.0890 0.2819
vt 0.0890 0.2819
vt 0.0890 0.2819
vt 0.0927 0.2712
vt 0.0927 0.2712
vt 0.0927 0.2712
vt 0.0927 0.2712
vt 0.0927 0.2712
vt 0.0927 0.2712
vt 0.0927 0.2712
vt 0.0927 0.2712
vt 0.0967 0.3330
vt 0.0967 0.3330
vt 0.0967 0.3330
vt 0.0967 0.3330
vt 0.0967 0.3330
vt 0.0967 0.3330
vt 0.0967 0.3330
vt 0.0967 0.3330
vt 0.0927 0.2712
vt 0.0927 0.2712
vt 0.0927 0.2712
vt 0.0927 0.2712
vt 0.0927 0.2712
vt 0.0927 0.2712
vt 0.0927 0.2712
vt 0.0927 0.2712
vt 0.0967 0.3330
vt 0.0967 0.3330
vt 0.0967 0.3330
vt 0.0967 0.3330
vt 0.0967 0.3330
vt 0.0967 0.3330
vt 0.0967 0.3330
vt 0.0967 0.3330
vt 0.0927 0.2712
vt 0.0927 0.2712
vt 0.0927 0.2712
vt 0.0927 0.2712
vt 0.0927 0.2712
vt 0.0927 0.2712
vt 0.0927 0.2712
vt 0.0927 0.2712
vt 0.0967 0.3330
vt 0.0967 0.3330
vt 0.0967 0.3330
vt 0.0967 0.3330
vt 0.0967 0.3330
vt 0.0967 0.3330
vt 0.0967 0.3330
vt 0.0967 0.3330
vt 0.0967 0.3330
vt 0.0967 0.3330
vt 0.0967 0.3330
vt 0.0967 0.3330
vt 0.0967 0.3330
vt 0.0967 0.3330
vt 0.0967 0.3330
vt 0.0967 0.3330
vt 0.0967 0.3330
vt 0.0967 0.3330
vt 0.0967 0.3330
vt 0.0967 0.3330
vt 0.0967 0.3330
vt 0.0967 0.3330
vt 0.0967 0.3330
vt 0.0967 0.3330
vt 0.0967 0.3330
vt 0.0967 0.3330
vt 0.0967 0.3330
vt 0.0967 0.3330
vt 0.0967 0.3330
vt 0.0967 0.3330
vt 0.0967 0.3330
vt 0.0967 0.3330
vt 0.0967 0.3330
vt 0.0967 0.3330
vt 0.0967 0.3330
vt 0.0967 0.3330
vt 0.0967 0.3330
vt 0.0967 0.3330
vt 0.0967 0.3330
vt 0.0967 0.3330
vt 0.5627 0.3776
vt 0.5627 0.3776
vt 0.5627 0.3776
vt 0.5627 0.3776
vt 0.0890 0.2819
vt 0.0890 0.2819
vt 0.0890 0.2819
vt 0.0890 0.2819
vt 0.0890 0.2819
vt 0.0890 0.2819
vt 0.0890 0.2819
vt 0.0890 0.2819
vt 0.5627 0.3776
vt 0.5627 0.3776
vt 0.5627 0.3776
vt 0.5627 0.3776
vt 0.5627 0.3776
vt 0.5627 0.3776
vt 0.5627 0.3776
vt 0.5627 0.3776
vt 0.5627 0.3776
vt 0.5627 0.3776
vt 0.5627 0.3776
vt 0.5627 0.3776
vt 0.5675 0.3657
vt 0.5675 0.3657
vt 0.5675 0.3657
vt 0.5675 0.3657
vt 0.5675 0.3657
vt 0.5675 0.3657
vt 0.5675 0.3657
vt 0.5675 0.3657
vt 0.5675 0.3657
vt 0.5675 0.3657
vt 0.5675 0.3657
vt 0.5675 0.3657
vt 0.5675 0.3657
vt 0.5675 0.3657
vt 0.5675 0.3657
vt 0.5675 0.3657
vt 0.5675 0.3657
vt 0.5675 0.3657
vt 0.5675 0.3657
vt 0.5675 0.3657
vt 0.5675 0.3657
vt 0.5675 0.3657
vt 0.5675 0.3657
vt 0.5675 0.3657
vt 0.5675 0.3657
vt 0.5675 0.3657
vt 0.5675 0.3657
vt 0.5675 0.3657
vt 0.5675 0.3657
vt 0.5675 0.3657
vt 0.5675 0.3657
vt 0.5675 0.3657
vt 0.5675 0.3657
vt 0.5675 0.3657
vt 0.5675 0.3657
vt 0.5675 0.3657
vt 0.5675 0.3657
vt 0.5675 0.3657
vt 0.5675 0.3657
vt 0.5675 0.3657
vt 0.5675 0.3657
vt 0.5675 0.3657
vt 0.5675 0.3657
vt 0.5675 0.3657
vt 0.5675 0.3657
vt 0.5675 0.3657
vt 0.5675 0.3657
vt 0.5675 0.3657
vt 0.5675 0.3657
vt 0.5675 0.3657
vt 0.5675 0.3657
vt 0.5675 0.3657
vt 0.5675 0.3657
vt 0.5675 0.3657
vt 0.5675 0.3657
vt 0.5675 0.3657
vt 0.5675 0.3657
vt 0.5675 0.3657
vt 0.5675 0.3657
vt 0.5675 0.3657
vt 0.5675 0.3657
vt 0.5675 0.3657
vt 0.5675 0.3657
vt 0.5675 0.3657
vt 0.5675 0.3657
vt 0.5675 0.3657
vt 0.5651 0.4255
vt 0.5651 0.4255
vt 0.5651 0.4255
vt 0.5651 0.4255
vt 0.5675 0.4231
vt 0.5675 0.4231
vt 0.5675 0.4231
vt 0.5675 0.4231
vn 0.0000 0.9862 0.1654
vn 1.0000 0.0000 0.0000
vn 0.0000 -0.9862 -0.1654
vn -1.0000 0.0000 0.0000
vn 0.0000 0.9899 0.1415
vn -0.0004 0.9896 0.1440
vn -0.0012 0.9889 0.1487
vn -0.0015 0.9885 0.1509
vn 0.0015 -0.9885 -0.1509
vn 0.0004 -0.9896 -0.1439
vn 0.0012 -0.9889 -0.1487
vn 0.0000 -0.9899 -0.1415
vn 0.0019 0.9884 0.1519
vn -0.0019 -0.9884 -0.1519
vn 1.0000 0.0000 0.0001
vn -0.0015 0.9882 0.1531
vn -0.0013 0.9884 0.1522
vn -0.0014 0.9882 0.1529
vn -0.0013 0.9884 0.1520
vn 0.0013 -0.9884 -0.1520
vn 0.0014 -0.9883 -0.1528
vn 0.0013 -0.9883 -0.1524
vn 0.0015 -0.9882 -0.1531
vn 0.0012 0.9882 0.1534
vn 0.0003 0.9887 0.1496
vn 0.0009 0.9883 0.1522
vn 0.0000 0.9889 0.1483
vn 0.0000 -0.9889 -0.1483
vn -0.0003 -0.9887 -0.1496
vn -0.0009 -0.9883 -0.1523
vn -0.0012 -0.9882 -0.1534
vn -0.5769 -0.1351 0.8056
vn -0.6647 0.1236 -0.7368
vn 0.0000 0.3933 0.9194
vn -0.0911 0.8001 -0.5930
vn -0.0840 0.7187 -0.6902
vn 0.5771 -0.1351 0.8054
vn 0.5770 -0.1351 0.8055
vn 0.6649 0.1236 -0.7366
vn 0.6648 0.1236 -0.7367
vn -0.0973 -0.4991 -0.8611
vn -0.0882 -0.3900 -0.9166
vn 0.0000 -0.6477 0.7619
vn -0.1304 0.4796 0.8678
vn -0.1227 0.3023 0.9453
vn 0.1178 0.8093 -0.5754
vn 0.1126 0.7020 -0.7032
vn 0.1263 -0.5141 -0.8484
vn 0.1178 -0.3706 -0.9213
vn -0.1339 -0.7128 0.6884
vn -0.1244 -0.5712 0.8113
vn 0.5771 -0.1351 0.8055
vn 0.1117 0.4678 0.8767
vn 0.1029 0.3176 0.9426
vn -0.0806 0.7962 -0.5996
vn -0.0734 0.7247 -0.6852
vn -0.0861 -0.4931 -0.8657
vn -0.0771 -0.3972 -0.9145
vn 0.1145 -0.7045 0.7004
vn 0.1045 -0.5845 0.8046
vn -0.0925 0.4556 0.8853
vn -0.0837 0.3323 0.9395
vn 0.0000 0.7622 -0.6473
vn 0.0000 -0.4446 -0.8957
vn -0.0948 -0.6957 0.7121
vn -0.0850 -0.5971 0.7976
vn 0.0000 0.1654 -0.9862
vn -0.0000 -0.1654 0.9862
vn 0.4725 -0.8573 -0.2044
vn 0.0000 1.0000 0.0000
vn -0.4725 -0.8573 -0.2044
vn 0.0000 -1.0000 -0.0000
vn 0.2044 -0.8573 -0.4725
vn 0.2044 -0.8573 0.4725
vn 0.4725 -0.8573 0.2044
vn -0.4725 -0.8573 0.2044
vn -0.2044 -0.8573 -0.4725
vn -0.2044 -0.8573 0.4725
vn -0.9137 0.0947 0.3952
vn -0.3952 0.0947 0.9137
vn -0.9137 0.0947 -0.3952
vn -0.3952 0.0947 -0.9137
vn 0.3952 0.0947 0.9137
vn 0.9137 0.0947 0.3952
vn 0.9137 0.0947 -0.3952
vn 0.3952 0.0947 -0.9137
vn -0.9178 0.0000 -0.3970
vn -0.3970 0.0000 -0.9178
vn 0.3970 0.0000 -0.9178
vn 0.9178 0.0000 -0.3970
vn 0.9178 -0.0000 0.3970
vn 0.3970 -0.0000 0.9178
vn -0.3970 -0.0000 0.9178
vn -0.9178 -0.0000 0.3970
vn 0.2853 -0.6954 -0.6595
vn 0.6595 -0.6954 -0.2853
vn 0.6595 -0.6954 0.2853
vn 0.2853 -0.6954 0.6595
vn -0.6595 -0.6954 0.2853
vn -0.2853 -0.6954 0.6595
vn -0.6595 -0.6954 -0.2853
vn -0.2853 -0.6954 -0.6595
vn 0.6949 0.6465 -0.3149
vn 0.1824 0.6414 0.7452
vn 0.5148 0.6198 0.5924
vn 0.0512 0.7872 0.6145
usemtl None
s 1
f 1/1/1 2/2/1 3/3/1
f 3/3/1 2/2/1 4/4/1
f 2/2/2 5/5/2 4/4/2
f 4/4/2 5/5/2 6/6/2
f 7/7/3 6/6/3 8/8/3
f 8/8/3 6/6/3 5/5/3
f 8/8/4 1/1/4 7/7/4
f 7/7/4 1/1/4 3/3/4
f 9/9/4 10/10/4 11/11/4
f 11/11/4 10/10/4 12/12/4
f 9/9/5 13/13/6 10/10/7
f 10/10/7 13/13/6 14/14/8
f 13/13/2 15/15/2 14/14/2
f 14/14/2 15/15/2 16/16/2
f 16/16/9 15/15/10 12/12/11
f 12/12/11 15/15/10 11/11/12
f 17/17/4 18/18/4 19/19/4
f 19/19/4 18/18/4 20/20/4
f 18/18/1 21/21/1 20/20/1
f 20/20/1 21/21/1 22/22/1
f 21/21/2 23/23/2 22/22/2
f 22/22/2 23/23/2 24/24/2
f 19/19/3 24/24/3 17/17/3
f 17/17/3 24/24/3 23/23/3
f 25/25/1 26/26/1 27/27/1
f 27/27/1 26/26/1 28/28/1
f 29/29/4 27/27/4 30/30/4
f 30/30/4 27/27/4 28/28/4
f 30/30/3 31/31/3 29/29/3
f 29/29/3 31/31/3 32/32/3
f 25/25/2 32/32/2 26/26/2
f 26/26/2 32/32/2 31/31/2
f 33/33/13 34/34/13 35/35/13
f 35/35/13 34/34/13 36/36/13
f 35/35/4 36/36/4 37/37/4
f 37/37/4 36/36/4 38/38/4
f 38/38/14 39/39/14 37/37/14
f 37/37/14 39/39/14 40/40/14
f 33/33/15 40/40/2 34/34/15
f 34/34/15 40/40/2 39/39/2
f 41/41/1 42/42/1 43/43/1
f 43/43/1 42/42/1 44/44/1
f 45/45/4 43/43/4 46/46/4
f 46/46/4 43/43/4 44/44/4
f 46/46/3 47/47/3 45/45/3
f 45/45/3 47/47/3 48/48/3
f 41/41/2 48/48/2 42/42/2
f 42/42/2 48/48/2 47/47/2
f 49/49/16 50/50/17 51/51/18
f 51/51/18 50/50/17 52/52/19
f 49/49/4 51/51/4 53/53/4
f 53/53/4 51/51/4 54/54/4
f 55/55/20 56/56/21 54/54/22
f 54/54/22 56/56/21 53/53/23
f 50/50/2 56/56/2 52/52/2
f 52/52/2 56/56/2 55/55/2
f 57/57/1 58/58/1 59/59/1
f 59/59/1 58/58/1 60/60/1
f 61/61/4 59/59/4 62/62/4
f 62/62/4 59/59/4 60/60/4
f 62/62/3 63/63/3 61/61/3
f 61/61/3 63/63/3 64/64/3
f 57/57/2 64/64/2 58/58/2
f 58/58/2 64/64/2 63/63/2
f 65/65/24 66/66/25 67/67/26
f 67/67/26 66/66/25 68/68/27
f 67/67/4 68/68/4 69/69/4
f 69/69/4 68/68/4 70/70/4
f 70/70/28 71/71/29 69/69/30
f 69/69/30 71/71/29 72/72/31
f 65/65/2 72/72/2 66/66/2
f 66/66/2 72/72/2 71/71/2
f 20/73/32 9/9/32 19/74/32
f 19/74/32 9/9/32 11/11/32
f 27/75/33 29/76/33 10/10/33
f 10/10/33 29/76/33 12/12/33
f 20/73/34 22/77/34 9/9/34
f 9/9/34 22/77/34 13/13/34
f 25/78/35 27/75/35 14/14/35
f 14/14/36 27/75/36 10/10/36
f 22/77/37 24/79/38 13/13/37
f 13/13/37 24/79/38 15/15/38
f 25/78/39 14/14/39 32/80/40
f 32/80/40 14/14/39 16/16/40
f 32/80/41 16/16/41 29/76/41
f 29/76/42 16/16/42 12/12/42
f 24/79/43 19/74/43 15/15/43
f 15/15/43 19/74/43 11/11/43
f 26/81/44 33/33/44 28/82/44
f 28/82/45 33/33/45 35/35/45
f 43/83/46 36/36/46 41/84/46
f 41/84/47 36/36/47 34/34/47
f 28/82/32 35/35/32 30/85/32
f 30/85/32 35/35/32 37/37/32
f 43/83/33 45/86/33 36/36/33
f 36/36/33 45/86/33 38/38/33
f 45/86/48 48/87/48 38/38/48
f 38/38/49 48/87/49 39/39/49
f 31/88/50 30/85/50 40/40/50
f 40/40/51 30/85/51 37/37/51
f 26/81/37 31/88/38 33/33/52
f 33/33/52 31/88/38 40/40/38
f 41/84/40 34/34/40 48/87/40
f 48/87/40 34/34/40 39/39/40
f 44/89/53 42/90/53 49/49/53
f 49/49/54 42/90/54 50/50/54
f 57/91/55 59/92/55 52/52/55
f 52/52/56 59/92/56 51/51/56
f 44/89/32 49/49/32 46/93/32
f 46/93/32 49/49/32 53/53/32
f 59/92/33 61/94/33 51/51/33
f 51/51/33 61/94/33 54/54/33
f 64/95/57 55/55/57 61/94/57
f 61/94/58 55/55/58 54/54/58
f 46/93/59 53/53/59 47/96/59
f 47/96/60 53/53/60 56/56/60
f 42/90/38 47/96/38 50/50/38
f 50/50/38 47/96/38 56/56/38
f 57/91/40 52/52/40 64/95/40
f 64/95/40 52/52/40 55/55/40
f 58/97/61 65/65/61 60/98/61
f 60/98/62 65/65/62 67/67/62
f 2/99/63 1/100/63 66/66/63
f 66/66/63 1/100/63 68/68/63
f 60/98/32 67/67/32 62/101/32
f 62/101/32 67/67/32 69/69/32
f 1/100/33 8/102/33 68/68/33
f 68/68/33 8/102/33 70/70/33
f 8/102/64 5/103/64 70/70/64
f 70/70/64 5/103/64 71/71/64
f 63/104/65 62/101/65 72/72/65
f 72/72/66 62/101/66 69/69/66
f 58/97/38 63/104/38 65/65/38
f 65/65/38 63/104/38 72/72/38
f 2/99/40 66/66/40 5/103/40
f 5/103/40 66/66/40 71/71/40
f 73/105/67 74/106/67 75/107/67
f 75/107/67 74/106/67 76/108/67
f 3/3/67 4/4/67 77/109/67
f 77/109/67 4/4/67 78/110/67
f 4/4/67 6/6/67 78/110/67
f 78/110/67 6/6/67 79/111/67
f 6/6/67 7/7/67 79/111/67
f 79/111/67 7/7/67 80/112/67
f 7/7/67 3/3/67 80/112/67
f 80/112/67 3/3/67 77/109/67
f 23/23/68 21/21/68 81/113/68
f 81/113/68 21/21/68 82/114/68
f 21/21/68 18/18/68 82/114/68
f 82/114/68 18/18/68 83/115/68
f 18/18/68 17/17/68 83/115/68
f 83/115/68 17/17/68 84/116/68
f 17/17/68 23/23/68 84/116/68
f 84/116/68 23/23/68 81/113/68
f 77/117/1 78/118/1 73/105/1
f 73/105/1 78/118/1 74/106/1
f 78/118/2 79/119/2 74/106/2
f 74/106/2 79/119/2 76/108/2
f 79/119/3 80/120/3 76/108/3
f 76/108/3 80/120/3 75/107/3
f 80/120/4 77/117/4 75/107/4
f 75/107/4 77/117/4 73/105/4
f 82/121/2 85/122/2 81/123/2
f 81/123/2 85/122/2 86/124/2
f 82/121/1 83/125/1 85/122/1
f 85/122/1 83/125/1 87/126/1
f 83/125/4 84/127/4 87/126/4
f 87/126/4 84/127/4 88/128/4
f 84/127/3 81/123/3 88/128/3
f 88/128/3 81/123/3 86/124/3
f 89/129/69 90/130/69 91/131/69
f 91/131/69 90/130/69 92/132/69
f 93/133/70 94/134/70 95/135/70
f 95/135/70 94/134/70 96/136/70
f 97/137/71 98/138/71 99/139/71
f 99/139/71 98/138/71 100/140/71
f 101/141/72 102/142/72 103/143/72
f 103/143/72 102/142/72 104/144/72
f 92/132/73 105/145/73 91/131/73
f 91/131/73 105/145/73 106/146/73
f 107/147/74 108/148/74 109/149/74
f 109/149/74 108/148/74 110/150/74
f 96/136/70 94/134/70 111/151/70
f 111/151/70 94/134/70 112/152/70
f 89/129/75 113/153/75 90/130/75
f 90/130/75 113/153/75 110/150/75
f 110/150/75 113/153/75 109/149/75
f 114/154/72 102/142/72 115/155/72
f 115/155/72 102/142/72 101/141/72
f 100/140/76 98/138/76 116/156/76
f 116/156/76 98/138/76 117/157/76
f 118/158/72 102/142/72 119/159/72
f 119/159/72 102/142/72 114/154/72
f 104/144/72 102/142/72 120/160/72
f 120/160/72 102/142/72 118/158/72
f 106/146/77 105/145/77 99/139/77
f 99/139/77 105/145/77 97/137/77
f 121/161/70 94/134/70 122/162/70
f 122/162/70 94/134/70 93/133/70
f 112/152/70 94/134/70 123/163/70
f 123/163/70 94/134/70 121/161/70
f 117/157/78 108/148/78 116/156/78
f 116/156/78 108/148/78 107/147/78
f 124/164/70 125/165/70 126/166/70
f 126/166/70 125/165/70 127/167/70
f 128/168/70 129/169/70 125/165/70
f 125/165/70 129/169/70 127/167/70
f 130/170/70 131/171/70 132/172/70
f 132/172/70 131/171/70 133/173/70
f 134/174/70 130/170/70 135/175/70
f 135/175/70 130/170/70 132/172/70
f 128/168/70 136/176/70 129/169/70
f 137/177/70 138/178/70 136/176/70
f 138/178/70 139/179/70 136/176/70
f 136/176/70 139/179/70 129/169/70
f 139/179/70 140/180/70 129/169/70
f 141/181/70 142/182/70 136/176/70
f 136/176/70 142/182/70 137/177/70
f 141/181/70 143/183/70 142/182/70
f 142/182/70 143/183/70 144/184/70
f 134/174/70 135/175/70 143/183/70
f 143/183/70 135/175/70 144/184/70
f 126/166/79 127/167/79 96/136/79
f 96/136/79 127/167/79 95/135/79
f 129/169/80 93/133/80 127/167/80
f 127/167/80 93/133/80 95/135/80
f 132/172/81 133/173/81 111/151/81
f 111/151/81 133/173/81 96/136/81
f 133/173/81 126/166/81 96/136/81
f 135/175/82 132/172/82 112/152/82
f 112/152/82 132/172/82 111/151/82
f 129/169/83 140/180/83 93/133/83
f 93/133/83 140/180/83 122/162/83
f 140/180/83 145/185/83 122/162/83
f 137/177/83 122/162/83 138/178/83
f 145/185/83 138/178/83 122/162/83
f 142/182/84 121/161/84 137/177/84
f 137/177/84 121/161/84 122/162/84
f 142/182/85 144/184/85 121/161/85
f 121/161/85 144/184/85 123/163/85
f 135/175/86 112/152/86 144/184/86
f 144/184/86 112/152/86 123/163/86
f 99/139/87 100/140/87 136/176/87
f 136/176/87 100/140/87 141/181/87
f 128/168/88 106/146/88 136/176/88
f 136/176/88 106/146/88 99/139/88
f 91/131/89 106/146/89 125/165/89
f 125/165/89 106/146/89 128/168/89
f 124/164/90 89/129/90 125/165/90
f 125/165/90 89/129/90 91/131/90
f 113/153/91 89/129/91 146/186/91
f 146/186/91 89/129/91 124/164/91
f 134/174/92 107/147/92 130/170/92
f 130/170/92 107/147/92 109/149/92
f 116/156/93 107/147/93 143/183/93
f 143/183/93 107/147/93 134/174/93
f 143/183/94 141/181/94 116/156/94
f 116/156/94 141/181/94 100/140/94
f 117/157/94 98/138/94 147/187/94
f 147/187/94 98/138/94 148/188/94
f 147/187/93 149/189/93 117/157/93
f 117/157/93 149/189/93 108/148/93
f 110/150/92 108/148/92 150/190/92
f 150/190/92 108/148/92 149/189/92
f 150/190/91 151/191/91 110/150/91
f 110/150/91 151/191/91 90/130/91
f 92/132/90 90/130/90 152/192/90
f 152/192/90 90/130/90 151/191/90
f 152/192/89 153/193/89 92/132/89
f 92/132/89 153/193/89 105/145/89
f 97/137/88 105/145/88 154/194/88
f 154/194/88 105/145/88 153/193/88
f 148/188/87 98/138/87 154/194/87
f 154/194/87 98/138/87 97/137/87
f 153/193/95 152/192/95 104/144/95
f 104/144/95 152/192/95 103/143/95
f 151/191/96 101/141/96 152/192/96
f 152/192/96 101/141/96 103/143/96
f 151/191/97 150/190/97 101/141/97
f 101/141/97 150/190/97 115/155/97
f 149/189/98 114/154/98 150/190/98
f 150/190/98 114/154/98 115/155/98
f 148/188/99 118/158/99 147/187/99
f 147/187/99 118/158/99 119/159/99
f 149/189/100 147/187/100 114/154/100
f 114/154/100 147/187/100 119/159/100
f 148/188/101 154/194/101 118/158/101
f 118/158/101 154/194/101 120/160/101
f 153/193/102 104/144/102 154/194/102
f 154/194/102 104/144/102 120/160/102
f 133/173/70 146/186/70 126/166/70
f 126/166/70 146/186/70 124/164/70
f 113/153/91 131/171/91 109/149/91
f 109/149/91 131/171/91 130/170/91
f 131/195/103 113/196/103 133/197/103
f 133/197/104 113/196/104 146/198/104
f 138/199/105 145/200/105 139/201/105
f 139/201/106 145/200/106 140/202/106
