# Blender v2.78 (sub 0) OBJ File: ''
# www.blender.org
mtllib SM_Prop_Pot_01.mtl
o SM_Prop_Pot_01
v -2.510864 8.972712 -36.511612
v 2.511475 8.972712 -36.511612
v -2.510864 9.211308 -37.934128
v 2.511475 9.211308 -37.934128
v 2.511475 6.201636 -36.976395
v 2.511475 6.440234 -38.398911
v -2.510864 6.440234 -38.398911
v -2.510864 6.201636 -36.976395
v -3.034058 3.351993 -23.886124
v -3.034058 7.301315 -23.223709
v -3.034058 3.581423 -24.966232
v -3.034058 7.530746 -24.303818
v 3.034424 7.301315 -23.223709
v 3.034424 7.636231 -24.932724
v 3.034546 3.351993 -23.886124
v 3.034546 3.686909 -25.595150
v -2.510864 3.774244 -22.504303
v -2.510864 6.545319 -22.039520
v -2.510864 3.941182 -23.499588
v -2.510864 6.712258 -23.034790
v 2.511475 6.545319 -22.039520
v 2.511475 6.712258 -23.034790
v 2.511475 3.774244 -22.504303
v 2.511475 3.941182 -23.499588
v 2.511475 7.119596 -25.463333
v 2.511475 7.195639 -25.916714
v -2.510864 7.014107 -24.834427
v -2.510864 7.335201 -26.748779
v -2.510864 4.243033 -25.299210
v -2.510864 4.564127 -27.213573
v 2.511475 4.424564 -26.381516
v 2.511475 4.348519 -25.928131
v 3.034424 7.784698 -26.105619
v 3.034546 8.138868 -27.929443
v -3.034058 7.924258 -26.937698
v -3.034058 8.278429 -28.761501
v -3.034058 3.974938 -27.600109
v -3.034058 4.329107 -29.423920
v 3.034546 4.189545 -28.591854
v 3.034546 3.835376 -26.768036
v 2.511475 7.622230 -28.460052
v 2.511475 7.963138 -30.492538
v -2.510864 7.761792 -29.292114
v -2.510864 7.845311 -29.790054
v -2.510864 4.990716 -29.756912
v -2.510864 5.074236 -30.254852
v 2.511475 5.192063 -30.957333
v 2.511475 4.851156 -28.924835
v -3.034058 8.434368 -29.978954
v 3.034546 8.552195 -30.681442
v -3.034058 8.816174 -31.967545
v 3.034546 8.908756 -32.519516
v -3.034058 4.485047 -30.641388
v -3.034058 4.866854 -32.629959
v 3.034546 4.959434 -33.181931
v 3.034546 4.602874 -31.343853
v 2.511475 8.392118 -33.050125
v 2.511475 8.509985 -33.752838
v -2.510864 8.299538 -32.498154
v -2.510864 8.606345 -34.327347
v -2.510864 5.528464 -32.962936
v -2.510864 5.835270 -34.792130
v 2.511475 5.738911 -34.217636
v 2.511475 5.621044 -33.514908
v 3.034546 9.099044 -33.941757
v 3.034546 9.489349 -35.981003
v -3.034058 9.195403 -34.516251
v -3.034058 9.489349 -35.981003
v -3.034058 5.246082 -35.178665
v -3.034058 5.540026 -36.643417
v 3.034546 5.540026 -36.643417
v 3.034546 5.149722 -34.604172
v -1.821045 9.038424 -39.180542
v 1.821533 9.038424 -39.180542
v -1.821045 7.010328 -39.520721
v 1.821533 7.010328 -39.520721
v -1.821045 8.839815 -37.996429
v 1.821533 8.839815 -37.996429
v 1.821533 6.811718 -38.336609
v -1.821045 6.811718 -38.336609
v 1.821533 4.145730 -22.442001
v 1.821533 6.173826 -22.101822
v -1.821045 6.173826 -22.101822
v -1.821045 4.145730 -22.442001
v 1.821533 5.145187 -15.969070
v 1.821533 2.960455 -15.375397
v -1.821045 5.145187 -15.969070
v -1.821045 2.960455 -15.375397
v 18.362228 4.442459 0.000001
v 16.497490 3.414745 0.000001
v 15.117660 4.442461 -7.500476
v 11.515923 3.414751 -11.515924
v 12.817581 4.442461 -12.817581
v 0.000000 0.971057 -11.733490
v 0.000000 0.971055 0.000000
v 8.190453 0.971056 -8.190454
v 11.733490 0.971055 0.000000
v -11.515923 3.414747 -11.515922
v -16.497498 3.414749 0.000001
v -12.817581 4.442461 -12.817580
v -18.362228 4.442459 0.000001
v 12.842087 0.000000 0.000000
v 0.000000 0.000000 0.000000
v 8.964294 0.000001 -8.964294
v 0.000000 0.000002 -12.842071
v 0.000000 3.414752 -16.497482
v 0.000000 4.442462 -18.362228
v 0.000000 4.442456 18.362236
v 0.000000 3.414742 16.497490
v 12.817581 4.442457 12.817582
v 11.515923 3.414747 11.515924
v 8.190453 0.971054 8.190454
v 0.000000 0.971053 11.733491
v 0.000000 -0.000002 12.842088
v 8.964294 -0.000001 8.964303
v -12.817581 4.442457 12.817582
v -11.515923 3.414743 11.515922
v -12.842087 0.000000 0.000000
v -8.964294 -0.000001 8.964303
v -8.964294 0.000001 -8.964294
v -11.733490 0.971055 0.000000
v -8.190453 0.971056 -8.190453
v -8.190453 0.971054 8.190454
v -5.165011 4.442457 16.127945
v 14.128308 6.480664 -5.325852
v 15.769036 6.480664 -5.994691
v 13.031787 5.329451 -5.591112
v 0.000000 6.480666 -18.362226
v 0.000000 6.480666 -16.432173
v 12.817581 6.480665 -12.817581
v 11.470322 6.480665 -11.470321
v 18.362228 6.480663 0.000001
v 16.432175 6.480663 0.000000
v 12.817581 6.480661 12.817582
v 11.470322 6.480661 11.470323
v 0.000000 6.480660 18.362236
v 0.000000 6.480660 16.432167
v -12.817581 6.480665 -12.817580
v -11.470322 6.480665 -11.470321
v -18.362228 6.480663 0.000001
v -16.432175 6.480663 0.000002
v -12.817581 6.480661 12.817582
v -11.470322 6.480661 11.470323
v -3.668700 6.480660 16.775223
v -6.426005 6.480660 15.582463
v -4.462432 6.480659 15.347766
v 12.959953 6.480664 -8.026735
v 14.534603 6.480664 -8.848335
vt 0.0890 0.2819
vt 0.0890 0.2819
vt 0.0890 0.2819
vt 0.0890 0.2819
vt 0.0890 0.2819
vt 0.0890 0.2819
vt 0.0890 0.2819
vt 0.0890 0.2819
vt 0.0967 0.3330
vt 0.0967 0.3330
vt 0.0967 0.3330
vt 0.0967 0.3330
vt 0.0967 0.3330
vt 0.0967 0.3330
vt 0.0967 0.3330
vt 0.0967 0.3330
vt 0.0890 0.2819
vt 0.0890 0.2819
vt 0.0890 0.2819
vt 0.0890 0.2819
vt 0.0890 0.2819
vt 0.0890 0.2819
vt 0.0890 0.2819
vt 0.0890 0.2819
vt 0.0927 0.2712
vt 0.0927 0.2712
vt 0.0927 0.2712
vt 0.0927 0.2712
vt 0.0927 0.2712
vt 0.0927 0.2712
vt 0.0927 0.2712
vt 0.0927 0.2712
vt 0.0967 0.3330
vt 0.0967 0.3330
vt 0.0967 0.3330
vt 0.0967 0.3330
vt 0.0967 0.3330
vt 0.0967 0.3330
vt 0.0967 0.3330
vt 0.0967 0.3330
vt 0.0927 0.2712
vt 0.0927 0.2712
vt 0.0927 0.2712
vt 0.0927 0.2712
vt 0.0927 0.2712
vt 0.0927 0.2712
vt 0.0927 0.2712
vt 0.0927 0.2712
vt 0.0967 0.3330
vt 0.0967 0.3330
vt 0.0967 0.3330
vt 0.0967 0.3330
vt 0.0967 0.3330
vt 0.0967 0.3330
vt 0.0967 0.3330
vt 0.0967 0.3330
vt 0.0927 0.2712
vt 0.0927 0.2712
vt 0.0927 0.2712
vt 0.0927 0.2712
vt 0.0927 0.2712
vt 0.0927 0.2712
vt 0.0927 0.2712
vt 0.0927 0.2712
vt 0.0967 0.3330
vt 0.0967 0.3330
vt 0.0967 0.3330
vt 0.0967 0.3330
vt 0.0967 0.3330
vt 0.0967 0.3330
vt 0.0967 0.3330
vt 0.0967 0.3330
vt 0.0967 0.3330
vt 0.0967 0.3330
vt 0.0967 0.3330
vt 0.0967 0.3330
vt 0.0967 0.3330
vt 0.0967 0.3330
vt 0.0967 0.3330
vt 0.0967 0.3330
vt 0.0967 0.3330
vt 0.0967 0.3330
vt 0.0967 0.3330
vt 0.0967 0.3330
vt 0.0967 0.3330
vt 0.0967 0.3330
vt 0.0967 0.3330
vt 0.0967 0.3330
vt 0.0967 0.3330
vt 0.0967 0.3330
vt 0.0967 0.3330
vt 0.0967 0.3330
vt 0.0967 0.3330
vt 0.0967 0.3330
vt 0.0967 0.3330
vt 0.0967 0.3330
vt 0.0967 0.3330
vt 0.0967 0.3330
vt 0.0967 0.3330
vt 0.0967 0.3330
vt 0.0967 0.3330
vt 0.0967 0.3330
vt 0.0967 0.3330
vt 0.0967 0.3330
vt 0.5627 0.3776
vt 0.5627 0.3776
vt 0.5627 0.3776
vt 0.5627 0.3776
vt 0.0890 0.2819
vt 0.0890 0.2819
vt 0.0890 0.2819
vt 0.0890 0.2819
vt 0.0890 0.2819
vt 0.0890 0.2819
vt 0.0890 0.2819
vt 0.0890 0.2819
vt 0.5627 0.3776
vt 0.5627 0.3776
vt 0.5627 0.3776
vt 0.5627 0.3776
vt 0.5627 0.3776
vt 0.5627 0.3776
vt 0.5627 0.3776
vt 0.5627 0.3776
vt 0.5627 0.3776
vt 0.5627 0.3776
vt 0.5627 0.3776
vt 0.5627 0.3776
vt 0.5675 0.3657
vt 0.5675 0.3657
vt 0.5675 0.3657
vt 0.5675 0.3657
vt 0.5675 0.3657
vt 0.5675 0.3657
vt 0.5675 0.3657
vt 0.5675 0.3657
vt 0.5675 0.3657
vt 0.5675 0.3657
vt 0.5675 0.3657
vt 0.5675 0.3657
vt 0.5675 0.3657
vt 0.5675 0.3657
vt 0.5675 0.3657
vt 0.5675 0.3657
vt 0.5675 0.3657
vt 0.5675 0.3657
vt 0.5675 0.3657
vt 0.5675 0.3657
vt 0.5675 0.3657
vt 0.5675 0.3657
vt 0.5675 0.3657
vt 0.5675 0.3657
vt 0.5675 0.3657
vt 0.5675 0.3657
vt 0.5675 0.3657
vt 0.5675 0.3657
vt 0.5675 0.3657
vt 0.5675 0.3657
vt 0.5675 0.3657
vt 0.5675 0.3657
vt 0.5675 0.3657
vt 0.5675 0.3657
vt 0.5675 0.3657
vt 0.5675 0.3657
vt 0.5627 0.4231
vt 0.5627 0.4231
vt 0.5627 0.4231
vt 0.5627 0.4231
vt 0.5675 0.3657
vt 0.5675 0.3657
vt 0.5675 0.3657
vt 0.5675 0.3657
vt 0.5675 0.3657
vt 0.5675 0.3657
vt 0.5675 0.3657
vt 0.5675 0.3657
vt 0.5675 0.3657
vt 0.5675 0.3657
vt 0.5675 0.3657
vt 0.5675 0.3657
vt 0.5675 0.3657
vt 0.5675 0.3657
vt 0.5675 0.3657
vt 0.5675 0.3657
vt 0.5675 0.3657
vt 0.5675 0.3657
vt 0.5675 0.3657
vt 0.5675 0.3657
vt 0.5675 0.3657
vt 0.5675 0.3657
vt 0.5555 0.4231
vt 0.5555 0.4231
vt 0.5555 0.4231
vt 0.5555 0.4231
vt 0.5675 0.3657
vt 0.5675 0.3657
vt 0.5627 0.4231
vt 0.5627 0.4231
vn 0.0000 0.9862 0.1654
vn 1.0000 0.0000 0.0000
vn 0.0000 -0.9862 -0.1654
vn -1.0000 0.0000 0.0000
vn 0.0000 0.9782 0.2078
vn 0.0029 0.9813 0.1923
vn -0.0029 -0.9813 -0.1923
vn 0.0000 -0.9782 -0.2078
vn -0.0036 0.9817 0.1906
vn 0.0036 -0.9817 -0.1906
vn 1.0000 -0.0000 0.0001
vn 0.0028 0.9821 0.1886
vn 0.0027 0.9820 0.1890
vn 0.0024 0.9818 0.1900
vn 0.0023 0.9817 0.1904
vn -0.0023 -0.9817 -0.1904
vn -0.0027 -0.9820 -0.1890
vn -0.0025 -0.9818 -0.1900
vn -0.0028 -0.9821 -0.1886
vn -0.0022 0.9822 0.1880
vn -0.0005 0.9809 0.1947
vn -0.0017 0.9818 0.1899
vn 0.0000 0.9805 0.1968
vn 0.0000 -0.9805 -0.1968
vn 0.0005 -0.9809 -0.1946
vn 0.0017 -0.9818 -0.1899
vn 0.0022 -0.9822 -0.1880
vn -0.4768 -0.1454 0.8669
vn -0.4767 -0.1454 0.8669
vn -0.6418 0.1269 -0.7563
vn 0.0000 0.3054 0.9522
vn -0.0966 0.7590 -0.6439
vn -0.0881 0.6689 -0.7381
vn 0.4769 -0.1454 0.8668
vn 0.4768 -0.1454 0.8669
vn 0.6419 0.1268 -0.7563
vn 0.6419 0.1269 -0.7562
vn 0.6419 0.1268 -0.7562
vn -0.0966 -0.5073 -0.8563
vn -0.0881 -0.3913 -0.9160
vn 0.0000 -0.5485 0.8361
vn -0.1378 0.4113 0.9010
vn -0.1287 0.1974 0.9718
vn 0.1251 0.7697 -0.6260
vn 0.1178 0.6509 -0.7499
vn 0.1251 -0.5232 -0.8430
vn 0.1178 -0.3706 -0.9213
vn -0.1440 -0.6290 0.7639
vn -0.1310 -0.4599 0.8783
vn 0.4769 -0.1454 0.8669
vn 0.1180 0.3967 0.9103
vn 0.1082 0.2152 0.9706
vn -0.0854 0.7546 -0.6506
vn -0.0770 0.6753 -0.7335
vn -0.0854 -0.5010 -0.8612
vn -0.0770 -0.3990 -0.9137
vn 0.1231 -0.6185 0.7761
vn 0.1103 -0.4749 0.8731
vn -0.0978 0.3816 0.9191
vn -0.0880 0.2325 0.9686
vn 0.0000 0.7165 -0.6976
vn 0.0000 -0.4496 -0.8933
vn -0.1018 -0.6073 0.7879
vn -0.0899 -0.4893 0.8675
vn 0.0000 0.1654 -0.9862
vn -0.0000 -0.1654 0.9862
vn 0.4725 -0.8573 -0.2044
vn 0.0000 1.0000 0.0000
vn -0.4725 -0.8573 -0.2044
vn 0.0000 -1.0000 -0.0000
vn 0.2044 -0.8573 -0.4725
vn 0.2044 -0.8573 0.4725
vn 0.4725 -0.8573 0.2044
vn -0.4725 -0.8573 0.2044
vn -0.2044 -0.8573 -0.4725
vn -0.2044 -0.8573 0.4725
vn -0.3275 0.4971 -0.8035
vn -0.3649 0.6259 -0.6893
vn -0.7227 0.6164 0.3126
vn -0.3126 0.6164 0.7227
vn -0.7227 0.6164 -0.3126
vn -0.3126 0.6164 -0.7227
vn 0.3126 0.6164 0.7227
vn 0.7227 0.6164 0.3126
vn 0.7227 0.6164 -0.3126
vn 0.3126 0.6164 -0.7227
vn -0.9178 0.0000 -0.3970
vn -0.3970 0.0000 -0.9178
vn 0.3970 0.0000 -0.9178
vn 0.9178 0.0000 0.3970
vn 0.3970 0.0000 0.9178
vn -0.3970 -0.0000 0.9178
vn -0.9178 0.0000 0.3970
vn -0.2832 -0.7008 0.6547
vn 0.2832 -0.7008 0.6547
vn 0.6547 -0.7008 0.2832
vn 0.6547 -0.7008 -0.2832
vn 0.2832 -0.7008 -0.6547
vn -0.6547 -0.7008 0.2832
vn -0.6547 -0.7008 -0.2832
vn -0.2832 -0.7008 -0.6547
vn -0.7857 0.4380 0.4369
vn 0.1124 0.3212 0.9403
vn 0.9178 0.0000 -0.3970
vn 0.6063 0.7258 0.3252
vn 0.3756 0.5836 0.7200
usemtl None
s 1
f 1/1/1 2/2/1 3/3/1
f 3/3/1 2/2/1 4/4/1
f 2/2/2 5/5/2 4/4/2
f 4/4/2 5/5/2 6/6/2
f 7/7/3 6/6/3 8/8/3
f 8/8/3 6/6/3 5/5/3
f 8/8/4 1/1/4 7/7/4
f 7/7/4 1/1/4 3/3/4
f 9/9/4 10/10/4 11/11/4
f 11/11/4 10/10/4 12/12/4
f 10/10/5 13/13/5 12/12/5
f 12/12/6 13/13/6 14/14/6
f 15/15/2 16/16/2 13/13/2
f 13/13/2 16/16/2 14/14/2
f 16/16/7 15/15/7 11/11/7
f 11/11/8 15/15/8 9/9/8
f 17/17/4 18/18/4 19/19/4
f 19/19/4 18/18/4 20/20/4
f 18/18/1 21/21/1 20/20/1
f 20/20/1 21/21/1 22/22/1
f 21/21/2 23/23/2 22/22/2
f 22/22/2 23/23/2 24/24/2
f 19/19/3 24/24/3 17/17/3
f 17/17/3 24/24/3 23/23/3
f 25/25/1 26/26/1 27/27/1
f 27/27/1 26/26/1 28/28/1
f 29/29/4 27/27/4 30/30/4
f 30/30/4 27/27/4 28/28/4
f 30/30/3 31/31/3 29/29/3
f 29/29/3 31/31/3 32/32/3
f 25/25/2 32/32/2 26/26/2
f 26/26/2 32/32/2 31/31/2
f 33/33/9 34/34/9 35/35/9
f 35/35/9 34/34/9 36/36/9
f 37/37/4 35/35/4 38/38/4
f 38/38/4 35/35/4 36/36/4
f 38/38/10 39/39/10 37/37/10
f 37/37/10 39/39/10 40/40/10
f 40/40/2 39/39/2 33/33/2
f 33/33/2 39/39/2 34/34/11
f 41/41/1 42/42/1 43/43/1
f 43/43/1 42/42/1 44/44/1
f 45/45/4 43/43/4 46/46/4
f 46/46/4 43/43/4 44/44/4
f 46/46/3 47/47/3 45/45/3
f 45/45/3 47/47/3 48/48/3
f 41/41/2 48/48/2 42/42/2
f 42/42/2 48/48/2 47/47/2
f 49/49/12 50/50/13 51/51/14
f 51/51/14 50/50/13 52/52/15
f 53/53/4 49/49/4 54/54/4
f 54/54/4 49/49/4 51/51/4
f 55/55/16 56/56/17 54/54/18
f 54/54/18 56/56/17 53/53/19
f 56/56/2 55/55/2 50/50/2
f 50/50/2 55/55/2 52/52/2
f 57/57/1 58/58/1 59/59/1
f 59/59/1 58/58/1 60/60/1
f 61/61/4 59/59/4 62/62/4
f 62/62/4 59/59/4 60/60/4
f 62/62/3 63/63/3 61/61/3
f 61/61/3 63/63/3 64/64/3
f 57/57/2 64/64/2 58/58/2
f 58/58/2 64/64/2 63/63/2
f 65/65/20 66/66/21 67/67/22
f 67/67/22 66/66/21 68/68/23
f 69/69/4 67/67/4 70/70/4
f 70/70/4 67/67/4 68/68/4
f 70/70/24 71/71/25 69/69/26
f 69/69/26 71/71/25 72/72/27
f 72/72/2 71/71/2 65/65/2
f 65/65/2 71/71/2 66/66/2
f 20/73/28 10/10/28 19/74/29
f 19/74/29 10/10/28 9/9/29
f 27/75/30 29/76/30 12/12/30
f 12/12/30 29/76/30 11/11/30
f 20/73/31 22/77/31 10/10/31
f 10/10/31 22/77/31 13/13/31
f 25/78/32 27/75/32 14/14/32
f 14/14/33 27/75/33 12/12/33
f 22/77/34 24/79/35 13/13/34
f 13/13/34 24/79/35 15/15/35
f 32/80/36 25/78/37 16/16/38
f 16/16/38 25/78/37 14/14/37
f 32/80/39 16/16/39 29/76/39
f 29/76/40 16/16/40 11/11/40
f 24/79/41 19/74/41 15/15/41
f 15/15/41 19/74/41 9/9/41
f 26/81/42 33/33/42 28/82/42
f 28/82/43 33/33/43 35/35/43
f 43/83/44 36/36/44 41/84/44
f 41/84/45 36/36/45 34/34/45
f 28/82/28 35/35/28 30/85/29
f 30/85/29 35/35/28 37/37/29
f 43/83/30 45/86/30 36/36/30
f 36/36/30 45/86/30 38/38/30
f 45/86/46 48/87/46 38/38/46
f 38/38/47 48/87/47 39/39/47
f 31/88/48 30/85/48 40/40/48
f 40/40/49 30/85/49 37/37/49
f 26/81/34 31/88/35 33/33/50
f 33/33/50 31/88/35 40/40/35
f 48/87/36 41/84/36 39/39/36
f 39/39/36 41/84/36 34/34/36
f 44/89/51 42/90/51 49/49/51
f 49/49/52 42/90/52 50/50/52
f 57/91/53 59/92/53 52/52/53
f 52/52/54 59/92/54 51/51/54
f 44/89/29 49/49/29 46/93/29
f 46/93/29 49/49/29 53/53/29
f 59/92/30 61/94/30 51/51/30
f 51/51/30 61/94/30 54/54/30
f 64/95/55 55/55/55 61/94/55
f 61/94/56 55/55/56 54/54/56
f 46/93/57 53/53/57 47/96/57
f 47/96/58 53/53/58 56/56/58
f 42/90/35 47/96/35 50/50/35
f 50/50/35 47/96/35 56/56/35
f 64/95/36 57/91/36 55/55/36
f 55/55/36 57/91/36 52/52/36
f 58/97/59 65/65/59 60/98/59
f 60/98/60 65/65/60 67/67/60
f 2/99/61 1/100/61 66/66/61
f 66/66/61 1/100/61 68/68/61
f 60/98/29 67/67/29 62/101/29
f 62/101/29 67/67/29 69/69/29
f 1/100/30 8/102/30 68/68/30
f 68/68/30 8/102/30 70/70/30
f 8/102/62 5/103/62 70/70/62
f 70/70/62 5/103/62 71/71/62
f 63/104/63 62/101/63 72/72/63
f 72/72/64 62/101/64 69/69/64
f 58/97/35 63/104/35 65/65/35
f 65/65/35 63/104/35 72/72/35
f 5/103/36 2/99/36 71/71/36
f 71/71/36 2/99/36 66/66/36
f 73/105/65 74/106/65 75/107/65
f 75/107/65 74/106/65 76/108/65
f 3/3/65 4/4/65 77/109/65
f 77/109/65 4/4/65 78/110/65
f 4/4/65 6/6/65 78/110/65
f 78/110/65 6/6/65 79/111/65
f 6/6/65 7/7/65 79/111/65
f 79/111/65 7/7/65 80/112/65
f 7/7/65 3/3/65 80/112/65
f 80/112/65 3/3/65 77/109/65
f 23/23/66 21/21/66 81/113/66
f 81/113/66 21/21/66 82/114/66
f 21/21/66 18/18/66 82/114/66
f 82/114/66 18/18/66 83/115/66
f 18/18/66 17/17/66 83/115/66
f 83/115/66 17/17/66 84/116/66
f 17/17/66 23/23/66 84/116/66
f 84/116/66 23/23/66 81/113/66
f 77/117/1 78/118/1 73/105/1
f 73/105/1 78/118/1 74/106/1
f 78/118/2 79/119/2 74/106/2
f 74/106/2 79/119/2 76/108/2
f 79/119/3 80/120/3 76/108/3
f 76/108/3 80/120/3 75/107/3
f 80/120/4 77/117/4 75/107/4
f 75/107/4 77/117/4 73/105/4
f 82/121/2 85/122/2 81/123/2
f 81/123/2 85/122/2 86/124/2
f 82/121/1 83/125/1 85/122/1
f 85/122/1 83/125/1 87/126/1
f 83/125/4 84/127/4 87/126/4
f 87/126/4 84/127/4 88/128/4
f 84/127/3 81/123/3 88/128/3
f 88/128/3 81/123/3 86/124/3
f 89/129/67 90/130/67 91/131/67
f 90/130/67 92/132/67 91/131/67
f 93/133/67 91/131/67 92/132/67
f 94/134/68 95/135/68 96/136/68
f 96/136/68 95/135/68 97/137/68
f 98/138/69 99/139/69 100/140/69
f 100/140/69 99/139/69 101/141/69
f 102/142/70 103/143/70 104/144/70
f 104/144/70 103/143/70 105/145/70
f 92/132/71 106/146/71 93/133/71
f 93/133/71 106/146/71 107/147/71
f 108/148/72 109/149/72 110/150/72
f 110/150/72 109/149/72 111/151/72
f 97/137/68 95/135/68 112/152/68
f 112/152/68 95/135/68 113/153/68
f 111/151/73 90/130/73 110/150/73
f 110/150/73 90/130/73 89/129/73
f 114/154/70 103/143/70 115/155/70
f 115/155/70 103/143/70 102/142/70
f 101/141/74 99/139/74 116/156/74
f 116/156/74 99/139/74 117/157/74
f 118/158/70 103/143/70 119/159/70
f 119/159/70 103/143/70 114/154/70
f 105/145/70 103/143/70 120/160/70
f 120/160/70 103/143/70 118/158/70
f 107/147/75 106/146/75 100/140/75
f 100/140/75 106/146/75 98/138/75
f 121/161/68 95/135/68 122/162/68
f 122/162/68 95/135/68 94/134/68
f 113/153/68 95/135/68 123/163/68
f 123/163/68 95/135/68 121/161/68
f 108/148/76 124/164/76 109/149/76
f 109/149/76 124/164/76 117/157/76
f 117/157/76 124/164/76 116/156/76
f 125/165/77 126/166/77 127/167/77
f 127/167/78 126/166/78 91/168/78
f 128/169/68 129/170/68 130/171/68
f 130/171/68 129/170/68 131/172/68
f 132/173/68 133/174/68 134/175/68
f 134/175/68 133/174/68 135/176/68
f 136/177/68 134/175/68 137/178/68
f 137/178/68 134/175/68 135/176/68
f 128/169/68 138/179/68 129/170/68
f 129/170/68 138/179/68 139/180/68
f 140/181/68 141/182/68 138/179/68
f 138/179/68 141/182/68 139/180/68
f 140/181/68 142/183/68 141/182/68
f 141/182/68 142/183/68 143/184/68
f 136/177/68 137/178/68 144/185/68
f 142/183/68 145/186/68 143/184/68
f 144/185/68 137/178/68 146/187/68
f 137/178/68 143/184/68 146/187/68
f 145/186/68 146/187/68 143/184/68
f 133/174/79 125/188/79 97/137/79
f 125/188/79 127/189/79 97/137/79
f 97/137/79 127/189/79 96/136/79
f 131/172/79 96/136/79 147/190/79
f 127/189/79 147/190/79 96/136/79
f 129/170/80 94/134/80 131/172/80
f 131/172/80 94/134/80 96/136/80
f 133/174/81 97/137/81 135/176/81
f 135/176/81 97/137/81 112/152/81
f 137/178/82 135/176/82 113/153/82
f 113/153/82 135/176/82 112/152/82
f 129/170/83 139/180/83 94/134/83
f 94/134/83 139/180/83 122/162/83
f 141/182/84 121/161/84 139/180/84
f 139/180/84 121/161/84 122/162/84
f 141/182/85 143/184/85 121/161/85
f 121/161/85 143/184/85 123/163/85
f 137/178/86 113/153/86 143/184/86
f 143/184/86 113/153/86 123/163/86
f 100/140/87 101/141/87 138/179/87
f 138/179/87 101/141/87 140/181/87
f 128/169/88 107/147/88 138/179/88
f 138/179/88 107/147/88 100/140/88
f 93/133/89 107/147/89 130/171/89
f 130/171/89 107/147/89 128/169/89
f 110/150/90 89/129/90 134/175/90
f 134/175/90 89/129/90 132/173/90
f 136/177/91 108/148/91 134/175/91
f 134/175/91 108/148/91 110/150/91
f 124/164/92 108/148/92 144/185/92
f 144/185/92 108/148/92 136/177/92
f 142/183/93 140/181/93 116/156/93
f 116/156/93 140/181/93 101/141/93
f 109/149/94 117/157/94 114/154/94
f 114/154/94 117/157/94 119/159/94
f 109/149/95 114/154/95 111/151/95
f 111/151/95 114/154/95 115/155/95
f 90/130/96 111/151/96 102/142/96
f 102/142/96 111/151/96 115/155/96
f 90/130/97 102/142/97 92/132/97
f 92/132/97 102/142/97 104/144/97
f 104/144/98 105/145/98 92/132/98
f 92/132/98 105/145/98 106/146/98
f 99/139/99 118/158/99 117/157/99
f 117/157/99 118/158/99 119/159/99
f 120/160/100 118/158/100 98/138/100
f 98/138/100 118/158/100 99/139/100
f 106/146/101 105/145/101 98/138/101
f 98/138/101 105/145/101 120/160/101
f 124/164/92 145/186/92 116/156/92
f 116/156/92 145/186/92 142/183/92
f 146/191/102 124/192/102 144/193/102
f 145/194/103 124/192/103 146/191/103
f 132/173/68 126/195/68 133/174/68
f 133/174/68 126/195/68 125/188/68
f 132/173/104 89/129/104 126/195/104
f 126/195/104 89/129/104 91/131/104
f 91/131/104 93/133/104 148/196/104
f 148/196/104 93/133/104 130/171/104
f 147/190/68 148/196/68 131/172/68
f 131/172/68 148/196/68 130/171/68
f 127/167/105 91/168/105 147/197/105
f 147/197/106 91/168/106 148/198/106
