# Blender v2.78 (sub 0) OBJ File: ''
# www.blender.org
mtllib SM_Prop_StoneBlock_01.mtl
o SM_Prop_StoneBlock_01
v -31.217018 -0.000002 -7.623278
v 9.650620 -0.000008 17.767544
v -31.217018 -0.000008 20.574867
v 9.650620 3.090134 23.664944
v -28.278107 17.449520 23.664946
v -31.217018 3.090134 23.664944
v -34.307358 11.679771 -20.574747
v -34.307358 5.442250 -7.623277
v -34.307358 18.736017 20.574869
v -34.307358 3.090134 20.574867
v -11.130379 32.582539 18.422676
v -31.217018 32.582542 5.365639
v -13.396088 32.582539 20.574871
v 28.827896 11.679771 -23.664942
v 9.650620 5.532833 -23.664944
v -29.340836 14.116913 -23.664942
v -31.217018 3.090141 -23.664944
v 31.217354 3.090134 23.664944
v 34.307358 3.090134 20.574867
v 31.217354 11.679764 23.664946
v 34.307358 11.679765 18.561384
v -31.217018 32.582539 20.574871
v -34.307358 29.492386 20.574871
v -34.307358 26.560390 5.365638
v -7.347702 32.582539 20.574871
v -6.895737 27.986984 23.664948
v 9.650620 32.582539 20.574871
v 9.650620 26.791157 23.664948
v 31.217354 32.582539 20.574871
v 34.307358 29.492386 20.574871
v 31.217354 32.582542 5.365639
v 34.307358 27.023746 5.365638
v -34.307358 3.090141 -20.574749
v -31.217018 32.582546 -20.574745
v 2.832031 32.582542 -15.559233
v -31.217018 29.492393 -23.664940
v 9.650620 29.492393 -23.664940
v 34.307358 11.679771 -20.574747
v 31.217354 3.090141 -23.664944
v 34.307358 3.090141 -20.574749
v -31.217018 0.000000 -20.574749
v 9.650620 0.000000 -20.574749
v 31.217354 -0.000008 20.574867
v -31.217018 29.492386 23.664948
v 31.217354 29.492386 23.664948
v -34.307358 29.492393 -20.574745
v 34.307358 29.492393 -20.574745
v 31.217354 29.492393 -23.664940
v 31.217354 32.582546 -20.574745
v 31.217354 0.000000 -20.574749
v -31.217018 32.582542 -10.717972
v -29.477524 32.582542 -13.478380
v -31.217018 32.582542 -15.737991
v -34.307358 28.407373 -10.975190
v 31.217354 -0.000004 -3.486898
v 29.545204 -0.000002 -11.213579
v 31.217354 -0.000002 -13.047956
v 34.307358 3.090139 -13.411366
v 34.307358 3.090138 -3.816452
v 34.307358 4.394999 -11.730439
v -14.168594 28.297174 23.664948
v -11.441032 24.014114 23.664948
v -34.307358 28.978519 -16.028374
v -34.307358 26.257435 -14.499396
vt 0.8523 0.5080
vt 0.8523 0.5080
vt 0.8523 0.5080
vt 0.8523 0.5080
vt 0.8523 0.5080
vt 0.8523 0.5080
vt 0.8523 0.5080
vt 0.8523 0.5080
vt 0.8523 0.5080
vt 0.8523 0.5080
vt 0.8523 0.5080
vt 0.8523 0.5080
vt 0.8523 0.5080
vt 0.8523 0.5080
vt 0.8523 0.5080
vt 0.8523 0.5080
vt 0.8523 0.5080
vt 0.8523 0.5080
vt 0.8523 0.5080
vt 0.8523 0.5080
vt 0.8523 0.5080
vt 0.8523 0.5080
vt 0.8523 0.5080
vt 0.8523 0.5080
vt 0.8523 0.5080
vt 0.8523 0.5080
vt 0.8523 0.5080
vt 0.8523 0.5080
vt 0.8523 0.5080
vt 0.8523 0.5080
vt 0.8523 0.5080
vt 0.8523 0.5080
vt 0.8523 0.5080
vt 0.8523 0.5080
vt 0.8523 0.5080
vt 0.8523 0.5080
vt 0.8523 0.5080
vt 0.8523 0.5080
vt 0.8523 0.5080
vt 0.8523 0.5080
vt 0.8523 0.5080
vt 0.8523 0.5080
vt 0.8523 0.5080
vt 0.8523 0.5080
vt 0.8523 0.5080
vt 0.8523 0.5080
vt 0.8523 0.5080
vt 0.8523 0.5080
vt 0.8523 0.5080
vt 0.8523 0.5080
vt 0.8523 0.5080
vt 0.8523 0.5080
vt 0.8523 0.5080
vt 0.8523 0.5080
vt 0.8523 0.5080
vt 0.8523 0.5080
vt 0.8523 0.5080
vt 0.8523 0.5080
vt 0.8523 0.5080
vt 0.8523 0.5080
vt 0.8523 0.5080
vt 0.8493 0.4558
vt 0.8493 0.4558
vt 0.8493 0.4558
vt 0.8493 0.4558
vt 0.8523 0.5080
vt 0.8493 0.4558
vt 0.8493 0.4558
vt 0.8493 0.4558
vt 0.8493 0.4558
vt 0.8493 0.4558
vt 0.8493 0.4558
vt 0.8493 0.4558
vt 0.8493 0.4558
vt 0.8523 0.5080
vt 0.8493 0.4558
vt 0.8493 0.4558
vt 0.8493 0.4558
vt 0.8493 0.4558
vt 0.8493 0.4558
vt 0.8493 0.4558
vt 0.8523 0.5080
vn -0.0000 -1.0000 -0.0000
vn -0.0000 -0.0000 1.0000
vn -1.0000 -0.0000 0.0000
vn 0.0000 1.0000 -0.0000
vn -0.0000 0.0000 -1.0000
vn -0.7071 -0.7071 -0.0000
vn -0.8688 -0.4934 -0.0412
vn 0.0000 -0.7071 0.7071
vn 0.0319 -0.8853 0.4639
vn -0.6998 0.1432 0.6998
vn -0.4561 -0.0000 0.8899
vn 0.7071 0.0000 0.7071
vn 0.8492 0.1205 0.5142
vn -0.7071 0.7071 0.0000
vn -0.8863 0.4548 -0.0877
vn 0.0000 0.5580 0.8298
vn 0.0340 0.4705 0.8818
vn 0.7071 0.7071 0.0000
vn 0.8713 0.4844 -0.0786
vn -0.5591 0.0951 -0.8236
vn -0.7071 0.0000 -0.7071
vn 0.1036 0.7033 -0.7033
vn 0.0000 0.9344 -0.3562
vn 0.4867 0.1354 -0.8630
vn 0.7071 0.0000 -0.7071
vn 0.0000 -0.7071 -0.7071
vn 0.0291 -0.4874 -0.8727
vn -0.5773 -0.5774 0.5774
vn 0.5774 -0.5773 0.5774
vn -0.5773 0.5774 0.5774
vn 0.5774 0.5773 0.5774
vn -0.5773 0.5774 -0.5774
vn 0.5774 0.5773 -0.5773
vn -0.5773 -0.5774 -0.5774
vn 0.5774 -0.5773 -0.5773
vn -0.0720 0.9103 -0.4076
vn 0.0000 0.7071 -0.7071
vn -0.0551 -0.4869 -0.8717
vn -0.0603 -0.8842 0.4633
vn -0.0589 0.4699 0.8807
vn 0.0000 0.7071 0.7071
vn -0.8885 0.4560 0.0515
vn -0.8038 0.5949 0.0000
vn -0.8661 -0.4918 0.0893
vn 0.7071 -0.7071 -0.0000
vn 1.0000 0.0000 0.0000
vn 0.8731 0.4853 0.0462
vn 0.8540 -0.0584 0.5170
vn -0.4724 -0.1153 0.8738
vn -0.7071 -0.0000 0.7071
vn -0.7045 -0.0860 -0.7045
vn -0.5283 0.0000 -0.8491
vn 0.4902 -0.0658 -0.8691
vn 0.0495 0.7062 0.7062
vn 0.0000 0.5849 0.8111
vn 0.6397 0.3703 0.6735
vn 0.6183 0.3937 0.6802
vn -0.4230 0.4840 0.7660
vn -0.4359 0.4723 0.7661
vn 0.6911 -0.7071 -0.1496
vn 0.6661 -0.7360 -0.1213
vn 0.5993 -0.5851 0.5463
vn 0.6529 -0.5983 0.4644
vn -0.7600 0.6458 0.0730
vn -0.6368 0.3777 0.6722
vn -0.6703 0.5332 0.5160
vn -0.7064 0.5503 -0.4452
vn -0.7099 0.6013 -0.3668
usemtl None
s 1
f 1/1/1 2/2/1 3/3/1
f 4/4/2 5/5/2 6/6/2
f 7/7/3 8/8/3 9/9/3
f 9/9/3 8/8/3 10/10/3
f 11/11/4 12/12/4 13/13/4
f 14/14/5 15/15/5 16/16/5
f 16/16/5 15/15/5 17/17/5
f 3/3/6 10/10/6 1/1/6
f 1/1/7 10/10/7 8/8/7
f 6/6/8 3/3/8 4/4/8
f 4/4/9 3/3/9 2/2/9
f 6/6/10 5/5/10 10/10/10
f 10/10/11 5/5/11 9/9/11
f 18/18/12 19/19/12 20/20/12
f 20/20/13 19/19/13 21/21/13
f 22/22/14 12/12/14 23/23/14
f 23/23/15 12/12/15 24/24/15
f 25/25/16 26/26/16 27/27/16
f 27/27/17 26/26/17 28/28/17
f 29/29/18 30/30/18 31/31/18
f 31/31/19 30/30/19 32/32/19
f 16/16/20 17/17/20 7/7/20
f 7/7/21 17/17/21 33/33/21
f 34/34/22 35/35/22 36/36/22
f 36/36/23 35/35/23 37/37/23
f 14/14/24 38/38/24 39/39/24
f 39/39/25 38/38/25 40/40/25
f 41/41/26 17/17/26 42/42/26
f 42/42/27 17/17/27 15/15/27
f 10/10/28 3/3/28 6/6/28
f 43/43/29 19/19/29 18/18/29
f 22/22/30 23/23/30 44/44/30
f 30/30/31 29/29/31 45/45/31
f 36/36/32 46/46/32 34/34/32
f 47/47/33 48/48/33 49/49/33
f 41/41/34 33/33/34 17/17/34
f 40/40/35 50/50/35 39/39/35
f 29/29/4 31/31/4 27/27/4
f 27/27/4 31/31/4 11/11/4
f 35/35/36 49/49/36 37/37/36
f 37/37/37 49/49/37 48/48/37
f 14/14/5 39/39/5 15/15/5
f 15/15/38 39/39/38 42/42/38
f 42/42/26 39/39/26 50/50/26
f 2/2/39 43/43/39 4/4/39
f 4/4/8 43/43/8 18/18/8
f 18/18/2 20/20/2 4/4/2
f 28/28/40 45/45/40 27/27/40
f 27/27/41 45/45/41 29/29/41
f 49/49/4 35/35/4 31/31/4
f 31/31/4 35/35/4 11/11/4
f 51/51/4 35/35/4 52/52/4
f 35/35/4 53/53/4 52/52/4
f 24/24/42 12/12/42 54/54/42
f 54/54/43 12/12/43 51/51/43
f 8/8/3 7/7/3 33/33/3
f 8/8/44 33/33/44 1/1/44
f 1/1/6 33/33/6 41/41/6
f 41/41/1 42/42/1 1/1/1
f 1/1/1 42/42/1 2/2/1
f 55/55/1 42/42/1 56/56/1
f 42/42/1 57/57/1 56/56/1
f 57/57/45 50/50/45 58/58/45
f 58/58/45 50/50/45 40/40/45
f 59/59/46 60/60/46 38/38/46
f 58/58/46 38/38/46 60/60/46
f 32/32/47 47/47/47 31/31/47
f 31/31/18 47/47/18 49/49/18
f 47/47/46 32/32/46 38/38/46
f 38/38/46 32/32/46 21/21/46
f 21/21/46 32/32/46 30/30/46
f 21/21/48 30/30/48 20/20/48
f 20/20/12 30/30/12 45/45/12
f 4/4/2 20/20/2 28/28/2
f 28/28/2 20/20/2 45/45/2
f 26/26/2 4/4/2 28/28/2
f 5/5/49 44/44/49 9/9/49
f 9/9/50 44/44/50 23/23/50
f 23/23/3 24/24/3 9/9/3
f 9/9/3 24/24/3 7/7/3
f 7/7/3 24/24/3 54/54/3
f 36/36/51 16/16/51 46/46/51
f 46/46/52 16/16/52 7/7/52
f 14/14/5 16/16/5 37/37/5
f 37/37/5 16/16/5 36/36/5
f 48/48/5 14/14/5 37/37/5
f 47/47/25 38/38/25 48/48/25
f 48/48/53 38/38/53 14/14/53
f 13/13/4 12/12/4 22/22/4
f 44/44/54 61/61/54 22/22/54
f 22/22/55 61/61/55 13/13/55
f 5/5/2 61/61/2 44/44/2
f 27/27/4 11/11/4 25/25/4
f 13/62/56 61/63/56 11/64/56
f 11/64/57 61/63/57 62/65/57
f 26/26/2 62/66/2 4/4/2
f 61/61/2 5/5/2 62/66/2
f 5/5/2 4/4/2 62/66/2
f 62/65/58 26/67/58 11/64/58
f 11/64/59 26/67/59 25/68/59
f 38/38/46 21/21/46 59/59/46
f 59/59/46 21/21/46 19/19/46
f 43/43/45 55/55/45 19/19/45
f 19/19/45 55/55/45 59/59/45
f 55/69/60 56/70/60 59/71/60
f 59/71/61 56/70/61 60/72/61
f 56/70/62 57/73/62 60/72/62
f 60/72/63 57/73/63 58/74/63
f 40/40/46 38/38/46 58/58/46
f 43/43/1 2/2/1 55/55/1
f 55/55/1 2/2/1 42/42/1
f 57/57/1 42/42/1 50/50/1
f 53/53/4 35/35/4 34/34/4
f 63/75/64 53/53/64 46/46/64
f 46/46/14 53/53/14 34/34/14
f 64/76/65 52/77/65 63/78/65
f 63/78/66 52/77/66 53/79/66
f 51/80/67 52/77/67 54/81/67
f 54/81/68 52/77/68 64/76/68
f 12/12/4 11/11/4 51/51/4
f 51/51/4 11/11/4 35/35/4
f 7/7/3 63/75/3 46/46/3
f 54/54/3 64/82/3 7/7/3
f 7/7/3 64/82/3 63/75/3
