# Blender v2.78 (sub 0) OBJ File: ''
# www.blender.org
mtllib SM_Prop_Loghalf_01.mtl
o SM_Prop_Loghalf_01
v -127.853516 9.535827 27.037066
v -61.688477 9.948425 26.401777
v -116.474602 27.667780 31.895519
v -50.386723 27.628111 31.139015
v -127.853516 -2.277514 12.448956
v -59.057617 -1.570246 12.177505
v -127.853516 -3.259917 -6.296883
v -57.668949 -1.752252 -7.436622
v -115.497063 6.963812 -22.040152
v -57.486324 6.888470 -21.599161
v -127.853516 24.488575 -28.767273
v -59.057617 24.528221 -28.010675
v -114.293945 16.421104 18.273077
v -114.293945 27.190132 22.781921
v -114.293945 26.078167 1.564232
v -114.293945 8.157322 8.068192
v -114.293945 15.000912 9.395000
v -114.293945 5.555265 -3.934854
v -114.293945 12.885290 -1.970806
v -114.293945 14.378216 -14.172937
v -114.293945 18.265881 -8.943781
v -114.293945 24.966206 -19.653553
v -114.293945 27.732973 -12.665043
v 115.412102 14.506289 19.383303
v 115.412102 23.586700 12.677223
v 115.412102 24.698965 21.791889
v 115.412102 26.078167 1.564232
v 115.412102 8.053328 9.661478
v 115.412102 12.957440 7.421146
v 115.412102 5.555265 -3.934854
v 115.412102 13.011800 -4.218521
v 115.412102 12.707085 -14.947684
v 115.412102 25.420628 -17.768799
v 115.412102 24.601999 -12.787393
v -115.763680 27.342066 25.681236
v -128.697266 12.925042 21.818228
v -128.697266 3.532114 10.218701
v -128.697266 2.750935 -4.686296
v -114.653328 10.879977 -17.203890
v -128.697266 24.814236 -22.552782
v 128.000977 27.667780 31.895519
v 115.644524 9.535827 27.037066
v 128.697266 27.315765 25.179157
v 114.946297 13.198875 21.396528
v 128.000977 -2.277514 12.448956
v 128.697266 4.001467 10.038640
v 128.000977 -3.259917 -6.296883
v 128.697266 3.236559 -4.556170
v 128.000977 6.963812 -22.040152
v 128.697266 11.196393 -16.813169
v 128.000977 24.488575 -28.767273
v 128.697266 24.840582 -22.050785
v -32.518555 -1.503572 -6.883189
v -31.074221 6.850253 -19.861750
v 37.146484 2.638484 -12.460131
v 40.167969 11.481359 -26.077009
v 37.146484 3.488225 3.753761
v 29.481447 13.705965 16.371847
v 39.928711 29.388988 20.574080
v 37.146484 26.639175 -31.895504
v -46.585938 -2.284245 -1.657010
v -45.665039 -3.009016 -9.699941
v -43.668945 2.735436 -18.670200
v -39.607422 -1.813738 -11.871924
v -39.058594 1.833491 -17.068428
v -43.083984 9.463106 -22.093739
v -49.845703 1.495617 -17.233917
v -50.281250 -1.160635 -12.943265
v -42.961914 2.563439 -27.417698
v -31.577148 0.335964 -23.461706
v -32.976562 -7.503601 -11.296459
v -46.135742 -10.699774 -6.574083
v -56.492188 -7.743225 -11.798641
v -56.459965 0.424793 -25.179956
v -35.144531 -0.900106 -21.656883
v -43.844727 0.802435 -24.680595
v -36.299805 -6.296913 -13.346701
v -45.515625 -8.938787 -9.311163
v -52.800781 -6.327190 -13.910101
v -53.406250 -0.435879 -23.532248
v 115.412102 16.138210 6.029415
v -114.293945 15.823285 -1.183550
v -114.293945 20.104141 -6.471125
v -57.785587 27.816544 -19.333351
v -59.057617 27.361788 -28.010675
v -114.293945 27.799772 -19.653553
v -128.697266 27.647800 -22.552782
v -127.853516 27.322140 -28.767273
v 37.507141 29.829201 -25.093924
v 37.146484 29.472748 -31.895502
v 128.000977 27.322140 -28.767273
v 128.697266 27.674149 -22.050785
v 115.412102 28.254192 -17.768799
v -50.386723 30.461679 31.139017
v -51.523430 30.055302 23.384802
v -116.474602 30.501347 31.895521
v -115.763680 30.175632 25.681238
v -114.293945 30.023701 22.781923
v 39.507740 31.806488 12.635012
v -15.515777 30.747988 19.132692
v 39.928711 32.222553 20.574080
v 115.412102 27.532532 21.791889
v 128.000977 30.501347 31.895521
v 128.697266 30.149332 25.179159
v 39.507740 28.972921 12.635011
v 50.243973 28.227859 4.855423
v 38.437080 27.914738 -7.556342
v -52.405857 26.906260 17.365179
v -42.463287 27.198544 18.338959
v -44.192070 26.928308 13.695651
v -30.201775 27.313417 14.495353
v -51.523430 27.221733 23.384800
v -54.494781 26.159458 3.115350
v 37.507141 26.995632 -25.093925
v -57.785587 24.982979 -19.333351
v -33.005959 26.565336 0.647715
v -103.765213 26.320786 -6.170308
v -83.638992 25.549229 -8.528651
v -68.792992 25.702538 -5.603293
v 5.560618 27.500729 0.269372
v 89.136612 26.839022 8.934197
v 69.949883 27.614471 4.538738
v 70.409340 27.171579 9.668424
v -86.654022 25.798084 -3.780120
v -15.515777 27.914421 19.132690
vt 0.9857 0.3129
vt 0.9857 0.3129
vt 0.9857 0.3129
vt 0.9857 0.3129
vt 0.9857 0.3129
vt 0.9857 0.3129
vt 0.9857 0.3129
vt 0.9857 0.3129
vt 0.9857 0.3129
vt 0.9857 0.3129
vt 0.9857 0.3129
vt 0.9857 0.3129
vt 0.0868 0.4158
vt 0.0868 0.4158
vt 0.0868 0.4158
vt 0.0868 0.4158
vt 0.0868 0.4158
vt 0.0868 0.4158
vt 0.0868 0.4158
vt 0.0868 0.4158
vt 0.0868 0.4158
vt 0.0868 0.4158
vt 0.0868 0.4158
vt 0.0868 0.4158
vt 0.0868 0.4158
vt 0.0868 0.4158
vt 0.0868 0.4158
vt 0.0868 0.4158
vt 0.0868 0.4158
vt 0.0868 0.4158
vt 0.0868 0.4158
vt 0.0868 0.4158
vt 0.0868 0.4158
vt 0.0868 0.4158
vt 0.9857 0.3129
vt 0.9857 0.3129
vt 0.9857 0.3129
vt 0.9857 0.3129
vt 0.9857 0.3129
vt 0.9857 0.3129
vt 0.9857 0.3129
vt 0.9857 0.3129
vt 0.9857 0.3129
vt 0.9857 0.3129
vt 0.9857 0.3129
vt 0.9857 0.3129
vt 0.9857 0.3129
vt 0.9857 0.3129
vt 0.9857 0.3129
vt 0.9857 0.3129
vt 0.9857 0.3129
vt 0.9857 0.3129
vt 0.9857 0.3129
vt 0.9857 0.3129
vt 0.9857 0.3129
vt 0.9857 0.3129
vt 0.9857 0.3129
vt 0.9857 0.3129
vt 0.9857 0.3129
vt 0.9857 0.3129
vt 0.9857 0.3129
vt 0.9857 0.3129
vt 0.9857 0.3129
vt 0.9857 0.3129
vt 0.9857 0.3129
vt 0.9857 0.3129
vt 0.9857 0.3129
vt 0.9857 0.3129
vt 0.9857 0.3129
vt 0.9857 0.3129
vt 0.9857 0.3129
vt 0.9857 0.3129
vt 0.9857 0.3129
vt 0.2175 0.3264
vt 0.2175 0.3264
vt 0.2175 0.3264
vt 0.2175 0.3264
vt 0.9857 0.3129
vt 0.2175 0.3264
vt 0.2175 0.3264
vt 0.9857 0.3129
vt 0.9857 0.3129
vt 0.9857 0.3129
vt 0.9857 0.3129
vt 0.9857 0.3129
vt 0.9857 0.3129
vt 0.9857 0.3129
vt 0.9857 0.3129
vt 0.9857 0.3129
vt 0.9857 0.3129
vt 0.9857 0.3129
vt 0.9857 0.3129
vt 0.9857 0.3129
vt 0.9857 0.3129
vt 0.9857 0.3129
vt 0.9857 0.3129
vt 0.9857 0.3129
vt 0.9857 0.3129
vt 0.0868 0.4158
vt 0.1016 0.3331
vt 0.1016 0.3331
vt 0.1016 0.3331
vt 0.1016 0.3331
vt 0.0868 0.4158
vt 0.0868 0.4158
vt 0.0967 0.3297
vt 0.0967 0.3297
vt 0.0967 0.3297
vt 0.0967 0.3298
vt 0.0967 0.3298
vt 0.0967 0.3297
vt 0.9908 0.3171
vt 0.9908 0.3171
vt 0.9908 0.3171
vt 0.9908 0.3171
vt 0.9908 0.3171
vt 0.9908 0.3171
vt 0.9908 0.3171
vt 0.9908 0.3171
vt 0.9908 0.3171
vt 0.9908 0.3171
vt 0.9908 0.3171
vt 0.9908 0.3171
vt 0.9908 0.3171
vt 0.9908 0.3171
vt 0.9908 0.3171
vt 0.9908 0.3171
vt 0.9908 0.3171
vt 0.9908 0.3171
vt 0.9908 0.3171
vt 0.9908 0.3171
vt 0.9908 0.3171
vt 0.0868 0.4234
vt 0.0868 0.4234
vt 0.0868 0.4234
vt 0.0868 0.3323
vt 0.0868 0.3323
vt 0.0868 0.3323
vt 0.0868 0.3323
vt 0.0868 0.4234
vt 0.0868 0.4234
vt 0.0868 0.4234
vt 0.0868 0.4234
vt 0.0868 0.4234
vt 0.0868 0.4234
vt 0.0868 0.4234
vt 0.0868 0.4234
vt 0.0868 0.4234
vt 0.0868 0.4234
vt 0.0868 0.4234
vt 0.0868 0.4234
vt 0.0868 0.4234
vt 0.0868 0.4234
vt 0.0868 0.4234
vt 0.0868 0.3323
vt 0.0868 0.3323
vt 0.0868 0.3323
vt 0.0868 0.4234
vt 0.0868 0.4234
vt 0.0868 0.3323
vt 0.0868 0.3323
vt 0.0868 0.3323
vt 0.0868 0.3323
vt 0.0868 0.4234
vt 0.0868 0.4234
vt 0.0868 0.4234
vt 0.0868 0.4234
vt 0.0868 0.3323
vt 0.0868 0.3323
vt 0.0868 0.3323
vt 0.0868 0.3323
vt 0.0868 0.4234
vt 0.0868 0.4234
vt 0.0868 0.4234
vt 0.0868 0.4234
vt 0.0868 0.4234
vt 0.9908 0.3171
vt 0.9908 0.3171
vt 0.9908 0.3171
vt 0.9908 0.3171
vt 0.9908 0.3171
vt 0.9908 0.3171
vt 0.9908 0.3171
vt 0.9908 0.3171
vt 0.9908 0.3171
vt 0.9908 0.3171
vt 0.9908 0.3171
vt 0.9908 0.3171
vt 0.9908 0.3171
vt 0.9908 0.3171
vt 0.9908 0.3171
vt 0.9908 0.3171
vt 0.9908 0.3171
vt 0.9908 0.3171
vt 0.9908 0.3171
vt 0.9908 0.3171
vt 0.9908 0.3171
vn 0.0109 -0.2652 0.9641
vn 0.0109 -0.2653 0.9641
vn 0.0109 -0.7771 0.6293
vn 0.0106 -0.7764 0.6302
vn 0.0108 -0.7768 0.6296
vn 0.0105 -0.7762 0.6305
vn 0.0105 -0.9986 0.0523
vn 0.0217 -0.9997 0.0108
vn 0.0093 -0.8420 -0.5395
vn 0.0029 -0.8537 -0.5208
vn 0.0105 -0.3519 -0.9360
vn 0.0097 -0.3495 -0.9369
vn 0.0076 -0.3437 -0.9391
vn 0.0067 -0.3411 -0.9400
vn -1.0000 -0.0000 0.0000
vn 1.0000 0.0000 0.0000
vn -0.8253 0.5510 -0.1233
vn -0.7197 0.5234 0.4562
vn -0.9900 -0.1097 0.0888
vn -0.9900 -0.1409 0.0074
vn -0.8005 0.5263 -0.2865
vn -0.6923 0.0945 -0.7154
vn -0.8006 -0.5942 -0.0776
vn -0.6923 -0.4969 0.5232
vn 0.8065 -0.5802 0.1140
vn 0.6972 -0.5587 -0.4492
vn 0.8064 0.5365 0.2486
vn 0.6972 0.1882 0.6917
vn 0.9941 -0.1081 0.0057
vn 0.9941 -0.0908 -0.0589
vn 0.9941 -0.0388 -0.1010
vn -0.3197 0.5021 -0.8036
vn -0.8718 0.1892 -0.4519
vn -0.3249 0.7350 -0.5952
vn -0.3121 0.9488 -0.0497
vn -0.1764 0.9620 -0.2085
vn -0.1961 0.9082 0.3698
vn -0.9970 0.0586 0.0505
vn -0.1961 0.1729 0.9652
vn -0.9965 0.0383 0.0740
vn 0.2426 0.0235 -0.9698
vn 0.9794 -0.0464 0.1965
vn 0.2801 0.8832 -0.3762
vn 0.9784 -0.1724 0.1144
vn 0.1694 0.9842 -0.0516
vn 0.2918 0.9407 -0.1728
vn 0.1694 0.8266 0.5368
vn 0.1694 0.3532 0.9201
vn 0.3083 0.2061 0.9287
vn 0.0067 -0.8412 -0.5407
vn 0.0070 -0.8398 -0.5428
vn 0.0068 -0.8407 -0.5414
vn 0.0071 -0.8394 -0.5435
vn 0.0592 -0.9951 0.0790
vn 0.0634 -0.9966 0.0522
vn 0.1016 -0.7638 0.6373
vn 0.0970 -0.7438 0.6613
vn 0.1166 -0.3259 0.9382
vn 0.1165 -0.3266 0.9380
vn 0.1162 -0.3277 0.9376
vn 0.1161 -0.3285 0.9374
vn -0.0261 -0.4522 -0.8915
vn -0.0571 -0.3677 -0.9282
vn -0.0172 -0.8368 -0.5472
vn -0.0179 -0.8381 -0.5452
vn -0.0174 -0.8372 -0.5465
vn -0.0181 -0.8385 -0.5445
vn -0.0682 -0.9963 0.0522
vn -0.1112 -0.8043 0.5837
vn -0.1062 -0.8148 0.5699
vn -0.1293 -0.1754 0.9760
vn -0.1292 -0.1750 0.9761
vn -0.1290 -0.1742 0.9762
vn -0.1289 -0.1738 0.9763
vn 0.0238 -0.3541 -0.9349
vn 0.0240 -0.3552 -0.9345
vn 0.0243 -0.3572 -0.9337
vn 0.0245 -0.3583 -0.9333
vn 0.1103 -0.9825 0.1501
vn -0.0294 -0.8388 -0.5437
vn 0.0381 -0.8198 -0.5714
vn 0.1255 -0.2446 -0.9615
vn -0.0509 -0.9987 0.0057
vn 0.0495 -0.8515 -0.5221
vn 0.0362 -0.8452 -0.5332
vn 0.0284 -0.3392 -0.9403
vn 0.2699 0.5912 -0.7600
vn 0.3702 0.4273 -0.8249
vn 0.9938 -0.1017 0.0452
vn 0.9937 -0.1027 0.0450
vn 0.9932 -0.1073 0.0445
vn 0.9931 -0.1084 0.0444
vn 0.3312 -0.4627 0.8223
vn 0.3969 -0.5633 0.7247
vn -0.9876 -0.1279 -0.0908
vn -0.9905 -0.1165 -0.0735
vn -0.1349 0.6038 -0.7856
vn -0.2148 0.4470 -0.8684
vn -0.4250 -0.4735 0.7715
vn -0.4936 -0.5732 0.6541
vn 0.0197 -0.8426 -0.5381
vn 0.0257 -0.8420 -0.5389
vn 0.0212 -0.8439 -0.5361
vn 0.0203 -0.8412 -0.5404
vn 0.0291 -0.8402 -0.5416
vn 0.0170 -0.8494 -0.5275
vn 0.0046 -0.8414 -0.5403
vn 0.0294 -0.8532 -0.5207
vn 0.0318 -0.8528 -0.5213
vn 0.0393 -0.8515 -0.5229
vn 0.0427 -0.8509 -0.5236
vn 0.0466 -0.8474 -0.5289
vn 0.0464 -0.8472 -0.5292
vn 0.0461 -0.8469 -0.5298
vn 0.0460 -0.8468 -0.5300
vn 0.0238 -0.8491 -0.5277
vn 0.0352 -0.8441 -0.5351
vn -0.2829 -0.9106 0.3012
vn -0.2828 -0.9106 0.3012
vn -0.2828 -0.9107 0.3012
vn -0.7930 -0.4547 -0.4055
vn -0.7939 -0.4543 -0.4040
vn -0.7946 -0.4541 -0.4030
vn -0.7949 -0.4540 -0.4026
vn -0.4022 0.0044 -0.9155
vn -0.3244 -0.0700 -0.9433
vn 0.8285 -0.4529 -0.3294
vn 0.8986 -0.4080 -0.1614
vn 0.1504 -0.9658 0.2111
vn 0.2526 -0.9232 0.2895
vn 0.5223 -0.0427 -0.8517
vn 0.5421 -0.1084 -0.8333
vn 0.0000 0.9986 -0.0523
vn -0.0242 0.9984 -0.0510
vn -0.0240 0.9985 -0.0494
vn -0.0241 0.9984 -0.0504
vn -0.0239 0.9985 -0.0488
vn 0.0255 0.9982 -0.0537
vn 0.0254 0.9981 -0.0553
vn 0.0255 0.9982 -0.0539
vn 0.0254 0.9981 -0.0558
vn 0.0255 0.9981 -0.0562
vn -0.0252 0.9984 -0.0510
vn -0.0248 0.9984 -0.0504
vn -0.0253 0.9984 -0.0501
vn -0.0252 0.9985 -0.0493
vn -0.0250 0.9985 -0.0487
vn 0.0628 0.9965 -0.0556
vn 0.0259 0.9984 -0.0496
vn 0.0539 0.6768 -0.7342
vn 0.0302 0.9981 -0.0539
vn -0.0245 0.9985 -0.0488
vn -0.0248 0.9985 -0.0492
vn -0.0246 0.9985 -0.0489
vn -0.0248 0.9985 -0.0490
vn 0.0252 0.9982 -0.0537
vn 0.0534 0.9854 0.1619
vn 0.0358 0.9941 -0.1023
vn -0.0240 0.9985 -0.0488
vn -0.0246 0.9985 -0.0498
vn -0.0243 0.9985 -0.0496
vn -0.0247 0.9984 -0.0500
vn -0.0247 0.9984 -0.0510
vn 0.0003 0.9950 -0.1002
vn 0.0446 0.9975 0.0545
vn -0.0249 0.9985 -0.0496
vn 0.0254 0.9996 -0.0128
vn 0.0842 0.9772 -0.1951
vn 0.0323 0.9960 0.0831
vn 0.0239 0.9962 0.0839
vn 0.0217 0.9962 0.0841
vn 0.0210 0.9962 0.0841
vn 0.0479 0.9965 0.0679
vn 0.0581 0.9982 -0.0155
vn 0.0223 0.9926 0.1196
vn 0.0219 0.9979 0.0612
vn 0.0619 0.9914 0.1153
vn 0.3318 0.8771 -0.3472
vn 0.0347 0.9989 -0.0303
vn -0.0249 0.9985 -0.0492
vn -0.0251 0.9984 -0.0499
vn -0.0249 0.9984 -0.0504
vn -0.0057 0.0000 1.0000
vn 0.0110 0.0000 -0.9999
vn -0.9909 0.0000 -0.1345
vn -0.1973 0.0000 0.9803
vn 0.0603 0.0000 0.9982
vn -0.0403 0.0000 -0.9992
vn -0.0936 0.0000 0.9956
vn 0.3068 0.0000 0.9518
vn 0.9947 0.0000 -0.1031
vn 0.0344 0.0000 -0.9994
vn 0.0096 0.0000 -1.0000
vn -0.8919 0.0000 -0.4521
vn -0.9935 0.0000 -0.1137
vn 0.0114 -0.0000 0.9999
vn 0.1162 -0.0000 0.9932
vn -0.1173 0.0000 -0.9931
vn 0.1198 0.0000 -0.9928
vn -0.1275 -0.0000 0.9918
vn 0.9947 0.0000 0.1031
vn 0.2471 0.0000 -0.9690
usemtl None
s 1
f 1/1/1 2/2/2 3/3/1
f 3/3/1 2/2/2 4/4/2
f 1/1/3 5/5/4 2/2/5
f 2/2/5 5/5/4 6/6/6
f 5/5/7 7/7/7 6/6/7
f 6/6/8 7/7/8 8/8/8
f 7/7/9 9/9/9 8/8/9
f 8/8/10 9/9/10 10/10/10
f 11/11/11 12/12/12 9/9/13
f 9/9/13 12/12/12 10/10/14
f 13/13/15 14/14/15 15/15/15
f 16/16/15 13/13/15 17/17/15
f 17/17/15 13/13/15 15/15/15
f 18/18/15 16/16/15 19/19/15
f 19/19/15 16/16/15 17/17/15
f 18/18/15 19/19/15 20/20/15
f 20/20/15 19/19/15 21/21/15
f 20/20/15 21/21/15 22/22/15
f 22/22/15 21/21/15 23/23/15
f 24/24/16 25/25/16 26/26/16
f 26/26/16 25/25/16 27/27/16
f 28/28/16 29/29/16 24/24/16
f 24/24/16 29/29/16 25/25/16
f 28/28/16 30/30/16 29/29/16
f 29/29/16 30/30/16 31/31/16
f 30/30/16 32/32/16 31/31/16
f 31/31/16 32/32/16 27/27/16
f 33/33/16 34/34/16 32/32/16
f 32/32/16 34/34/16 27/27/16
f 3/3/17 35/35/17 1/1/17
f 1/1/18 35/35/18 36/36/18
f 5/5/19 1/1/19 37/37/19
f 37/37/19 1/1/19 36/36/19
f 7/7/20 5/5/20 38/38/20
f 38/38/20 5/5/20 37/37/20
f 9/9/21 7/7/21 39/39/21
f 39/39/22 7/7/22 38/38/22
f 11/11/23 9/9/23 40/40/23
f 40/40/24 9/9/24 39/39/24
f 41/41/25 42/42/25 43/43/25
f 43/43/26 42/42/26 44/44/26
f 42/42/27 45/45/27 44/44/27
f 44/44/28 45/45/28 46/46/28
f 45/45/29 47/47/29 46/46/29
f 46/46/29 47/47/29 48/48/29
f 47/47/30 49/49/30 48/48/30
f 48/48/30 49/49/30 50/50/30
f 49/49/31 51/51/31 50/50/31
f 50/50/31 51/51/31 52/52/31
f 36/36/32 35/35/32 13/53/32
f 13/53/33 35/35/33 14/54/33
f 37/37/34 36/36/34 16/55/34
f 16/55/34 36/36/34 13/53/34
f 37/37/35 16/55/35 38/38/35
f 38/38/36 16/55/36 18/56/36
f 38/38/37 18/56/37 39/39/37
f 39/39/38 18/56/38 20/57/38
f 40/40/39 39/39/39 22/58/39
f 22/58/40 39/39/40 20/57/40
f 43/43/41 44/44/41 26/59/41
f 26/59/42 44/44/42 24/60/42
f 46/46/43 28/61/43 44/44/43
f 44/44/44 28/61/44 24/60/44
f 48/48/45 30/62/45 46/46/45
f 46/46/46 30/62/46 28/61/46
f 48/48/47 50/50/47 30/62/47
f 30/62/47 50/50/47 32/63/47
f 50/50/48 52/52/48 32/63/48
f 32/63/49 52/52/49 33/64/49
f 53/65/50 54/66/51 55/67/52
f 55/67/52 54/66/51 56/68/53
f 6/6/54 53/65/54 57/69/54
f 57/69/55 53/65/55 55/67/55
f 2/2/56 6/6/56 58/70/56
f 58/70/57 6/6/57 57/69/57
f 2/2/58 58/70/59 4/4/60
f 4/4/60 58/70/59 59/71/61
f 12/12/62 60/72/62 54/66/62
f 54/66/63 60/72/63 56/68/63
f 55/67/64 56/68/65 47/47/66
f 47/47/66 56/68/65 49/49/67
f 55/67/68 47/47/68 57/69/68
f 57/69/68 47/47/68 45/45/68
f 58/70/69 57/69/69 42/42/69
f 42/42/70 57/69/70 45/45/70
f 58/70/71 42/42/72 59/71/73
f 59/71/73 42/42/72 41/41/74
f 60/72/75 51/51/76 56/68/77
f 56/68/77 51/51/76 49/49/78
f 6/6/79 61/73/79 53/65/79
f 62/74/80 63/75/80 64/76/80
f 64/76/81 63/75/81 65/77/81
f 66/78/82 12/12/82 54/66/82
f 6/6/83 8/8/83 61/73/83
f 67/79/84 63/75/84 68/80/84
f 68/80/85 63/75/85 62/74/85
f 10/10/86 12/12/86 66/78/86
f 66/78/87 54/66/87 69/81/87
f 69/81/88 54/66/88 70/82/88
f 54/66/89 53/65/90 70/82/91
f 70/82/91 53/65/90 71/83/92
f 61/73/93 72/84/93 53/65/93
f 53/65/94 72/84/94 71/83/94
f 8/8/95 10/10/95 73/85/95
f 73/85/96 10/10/96 74/86/96
f 66/78/97 69/81/97 10/10/97
f 10/10/98 69/81/98 74/86/98
f 61/73/99 8/8/99 72/84/99
f 72/84/100 8/8/100 73/85/100
f 70/82/101 75/87/102 69/81/103
f 69/81/103 75/87/102 76/88/103
f 70/82/101 71/83/104 75/87/102
f 75/87/102 71/83/104 77/89/105
f 71/83/106 72/84/106 77/89/106
f 77/89/107 72/84/107 78/90/107
f 73/85/108 74/86/109 79/91/110
f 79/91/110 74/86/109 80/92/111
f 74/86/112 69/81/113 80/92/114
f 80/92/114 69/81/113 76/88/115
f 73/85/116 79/91/116 72/84/116
f 72/84/117 79/91/117 78/90/117
f 75/87/118 65/93/119 76/88/120
f 76/88/120 65/93/119 63/94/120
f 75/87/121 77/89/122 65/93/123
f 65/93/123 77/89/122 64/95/124
f 77/89/125 78/90/125 64/95/125
f 64/95/126 78/90/126 62/96/126
f 80/92/127 67/97/127 79/91/127
f 79/91/128 67/97/128 68/98/128
f 80/92/129 76/88/129 67/97/129
f 67/97/130 76/88/130 63/94/130
f 78/90/131 79/91/131 62/96/131
f 62/96/132 79/91/132 68/98/132
f 81/99/16 31/31/16 27/27/16
f 25/25/16 81/99/16 27/27/16
f 25/100/16 29/101/16 81/102/16
f 29/101/16 31/103/16 81/102/16
f 82/104/15 17/17/15 15/15/15
f 83/105/15 82/104/15 15/15/15
f 23/23/15 83/105/15 15/15/15
f 23/106/15 21/107/15 83/108/15
f 19/109/15 82/110/15 21/107/15
f 21/107/15 82/110/15 83/108/15
f 19/109/15 17/111/15 82/110/15
f 84/112/133 85/113/133 86/114/133
f 87/115/133 86/114/133 88/116/133
f 86/114/133 85/113/133 88/116/133
f 89/117/134 90/118/135 84/112/136
f 84/112/136 90/118/135 85/113/137
f 90/118/138 89/117/139 91/119/140
f 91/119/140 89/117/139 92/120/141
f 89/117/139 93/121/142 92/120/141
f 94/122/133 95/123/133 96/124/133
f 96/124/133 95/123/133 97/125/133
f 95/123/133 98/126/133 97/125/133
f 99/127/143 100/128/144 101/129/145
f 101/129/145 100/128/144 94/122/146
f 94/122/146 100/128/144 95/123/147
f 99/127/148 101/129/148 102/130/148
f 103/131/149 104/132/149 101/129/149
f 102/130/150 101/129/150 104/132/150
f 105/133/151 106/134/151 107/135/151
f 108/136/152 109/137/153 110/138/154
f 110/138/154 109/137/153 111/139/155
f 112/140/133 108/141/133 14/142/133
f 14/142/133 108/141/133 15/143/133
f 108/141/133 113/144/133 15/143/133
f 114/145/156 107/135/156 33/146/156
f 33/146/157 107/135/157 34/147/157
f 107/135/158 27/148/158 34/147/158
f 115/149/159 113/144/160 114/145/161
f 113/144/160 116/150/162 114/145/161
f 116/150/162 107/135/163 114/145/161
f 22/151/164 117/152/164 115/149/164
f 117/152/165 118/153/165 115/149/165
f 118/153/133 119/154/133 115/149/133
f 116/155/162 120/156/166 107/157/163
f 27/148/167 107/135/167 121/158/167
f 121/158/168 107/135/168 122/159/168
f 107/135/151 106/134/151 122/159/151
f 106/160/169 123/161/170 122/162/171
f 122/162/171 123/161/170 121/163/172
f 27/148/173 121/158/173 26/164/173
f 105/133/174 26/164/174 106/134/174
f 106/134/169 26/164/169 123/165/170
f 26/164/175 121/158/175 123/165/175
f 113/144/133 119/154/133 15/143/133
f 119/154/133 124/166/133 15/143/133
f 15/143/176 124/166/176 117/152/176
f 15/143/177 117/152/177 23/167/177
f 23/167/178 117/152/178 22/151/178
f 119/168/133 118/169/133 124/170/133
f 124/170/179 118/169/179 117/171/179
f 115/149/133 119/154/133 113/144/133
f 120/172/166 116/150/162 111/173/155
f 108/141/152 110/174/154 113/144/160
f 113/144/160 110/174/154 116/150/162
f 110/174/154 111/173/155 116/150/162
f 112/140/180 125/175/181 109/176/153
f 125/175/181 111/173/155 109/176/153
f 112/140/180 109/176/153 108/141/152
f 120/172/166 105/133/182 107/135/163
f 111/173/155 125/175/181 120/172/166
f 120/172/166 125/175/181 105/133/182
f 22/177/183 115/178/183 86/114/183
f 86/114/183 115/178/183 84/112/183
f 12/179/184 11/180/184 85/113/184
f 85/113/184 11/180/184 88/116/184
f 11/180/185 40/181/185 88/116/185
f 88/116/185 40/181/185 87/115/185
f 40/181/186 22/177/186 87/115/186
f 87/115/186 22/177/186 86/114/186
f 115/178/187 114/182/187 84/112/187
f 84/112/187 114/182/187 89/117/187
f 12/179/188 85/113/188 60/183/188
f 60/183/188 85/113/188 90/118/188
f 33/184/189 93/121/189 114/182/189
f 114/182/189 93/121/189 89/117/189
f 52/185/190 92/120/190 33/184/190
f 33/184/190 92/120/190 93/121/190
f 51/186/191 91/119/191 52/185/191
f 52/185/191 91/119/191 92/120/191
f 51/186/192 60/183/192 91/119/192
f 91/119/192 60/183/192 90/118/192
f 112/187/193 14/188/193 95/123/193
f 95/123/193 14/188/193 98/126/193
f 14/188/194 35/189/194 98/126/194
f 98/126/194 35/189/194 97/125/194
f 35/189/195 3/190/195 97/125/195
f 97/125/195 3/190/195 96/124/195
f 3/190/196 4/191/196 96/124/196
f 96/124/196 4/191/196 94/122/196
f 4/191/197 59/192/197 94/122/197
f 94/122/197 59/192/197 101/129/197
f 125/193/198 100/128/198 105/194/198
f 105/194/198 100/128/198 99/127/198
f 112/187/198 95/123/198 125/193/198
f 125/193/198 95/123/198 100/128/198
f 26/195/199 105/194/199 102/130/199
f 102/130/199 105/194/199 99/127/199
f 41/196/200 103/131/200 59/192/200
f 59/192/200 103/131/200 101/129/200
f 43/197/201 104/132/201 41/196/201
f 41/196/201 104/132/201 103/131/201
f 26/195/202 102/130/202 43/197/202
f 43/197/202 102/130/202 104/132/202
