# Blender v2.78 (sub 0) OBJ File: ''
# www.blender.org
mtllib SM_Prop_Cheese_02.mtl
o SM_Prop_Cheese_02
v 5.044144 17.470720 -14.842801
v 5.044140 3.778266 -14.842803
v -11.089729 17.470720 -7.336659
v -11.089729 3.778265 -7.336661
v 5.044163 21.057861 -12.212124
v 5.044163 0.000002 -12.212128
v -9.229549 0.000001 -5.476517
v -9.229549 21.057861 -5.476513
v 5.345261 11.274224 -10.864683
v 5.620022 10.078580 -9.635054
v 5.989944 8.468936 -7.979612
v 10.128555 6.952325 10.541223
v 11.089767 -0.000003 14.842819
v 9.373768 1.691617 7.163507
v 8.325878 2.695856 2.474137
v 7.929089 3.241905 0.698495
v 5.995861 8.453787 -7.953115
v 5.999027 8.445587 -7.938757
v 6.482021 9.877301 -5.777449
v 6.653259 10.384936 -5.011099
v 7.890705 10.268094 0.526735
v 11.089767 9.345520 14.842821
v 10.824471 9.490634 13.655519
v 5.470261 12.320558 -10.305303
v 5.746727 14.635250 -9.067845
v 10.333923 10.258965 11.460528
v 9.986237 7.923942 9.904543
v 11.089767 21.057858 14.842823
v 6.387768 14.090843 -6.199270
v 6.595383 13.652120 -5.270140
v 11.089767 19.275574 14.842822
v 10.013222 17.787996 10.025271
v 9.867508 17.500036 9.373141
v 9.857895 16.989500 9.330005
v 9.954849 10.852828 9.763956
v 9.336102 12.363968 6.994989
v 8.843361 11.771240 4.789820
v 8.063038 10.539956 1.297800
v 6.610909 12.776604 -5.200749
v -7.603920 13.770100 -3.850851
v -6.955463 16.274710 -3.202405
v 7.711960 7.061903 11.465013
v 7.948196 10.555079 11.701250
v 6.477943 8.839080 10.231005
v -6.585083 17.172684 -2.832028
v -5.003387 16.893442 -1.250325
v -3.711876 16.665436 0.041164
v 9.533752 18.220558 13.286807
v 7.194061 16.634182 10.947108
v -3.382397 12.845540 0.370653
v 1.793652 10.144779 5.546709
v 2.317802 10.615164 6.070879
v 3.414421 11.599295 7.167498
v 7.278290 14.956261 11.031344
v 4.273438 11.141671 8.026491
v 7.792831 11.575788 11.545885
v 5.234665 10.629597 8.987711
v -3.769741 6.588341 -0.016707
v -6.014725 11.236299 -2.261663
v -5.818256 11.296324 -2.065206
v -5.452812 11.407975 -1.699774
v 0.957283 8.032957 4.710351
v -0.892570 4.616730 2.860498
v 0.919300 6.123290 4.672341
v -1.723221 7.100914 2.029832
v -2.518799 6.947586 1.234254
v -3.466209 6.764994 0.286828
v -3.660519 6.651905 0.092523
v -3.924740 4.848204 -0.171699
v -3.985283 4.168576 -0.232223
v 4.920616 2.798803 8.673676
v 1.555103 4.196556 5.308145
v -2.502140 2.675080 1.250908
v -2.499008 2.672877 1.254028
v 3.774979 2.112778 7.528030
v 8.608269 10.382800 10.604685
v 9.706238 17.511053 9.378680
v 4.791061 1.372239 7.696832
v 1.400970 4.875906 3.029710
v 4.336857 3.374638 0.981050
v 1.551796 9.211880 2.909814
v 8.658531 1.229335 7.392654
v 4.580830 10.390392 0.787058
v 9.183228 7.007538 11.349290
v 9.053322 12.581066 7.078829
v 5.185852 12.723969 7.382998
v -6.454765 17.113836 -3.152966
v -6.624500 13.688537 -4.464292
v -3.034916 16.359747 -1.625874
v -5.416138 15.713598 -4.344899
v -5.257725 11.970931 -3.594267
v -2.876495 12.617081 -0.875196
v -3.302544 15.247549 -3.401136
v -4.519028 13.801701 -4.344480
v -3.204651 12.934448 -2.937193
v 4.627834 9.430458 -6.711027
v 3.450424 11.061491 -7.947401
v 4.068455 11.317039 -5.944181
v 4.110008 11.073121 -9.953642
v 5.751877 10.523781 -4.945707
v 3.846786 13.162849 -6.946179
v 4.751320 14.473186 -8.333646
v 5.269142 12.830522 -5.091017
v -3.513954 4.073967 -0.876273
v -1.095123 2.878228 0.721352
v -3.633263 6.723054 -0.169562
v -2.108646 4.279524 -1.409484
v -0.588120 4.661268 2.744943
v -2.228016 6.928610 -0.702788
v -0.098267 3.924656 0.260308
v -0.724640 4.790703 -1.056624
v 0.215137 5.026634 1.510972
v -1.288239 7.164540 1.864778
v -0.798389 6.427929 -0.619864
v 0.109474 5.412254 0.047586
v -0.217571 6.573742 0.967004
vt 0.2697 0.7073
vt 0.2697 0.7073
vt 0.2697 0.7073
vt 0.2697 0.7073
vt 0.3255 0.6150
vt 0.3255 0.6150
vt 0.3255 0.6150
vt 0.3255 0.6150
vt 0.2697 0.7073
vt 0.2697 0.7073
vt 0.2697 0.7073
vt 0.2697 0.7073
vt 0.3255 0.6150
vt 0.3255 0.6150
vt 0.3255 0.6150
vt 0.3255 0.6150
vt 0.3255 0.6150
vt 0.3255 0.6150
vt 0.3255 0.6150
vt 0.3255 0.6150
vt 0.3255 0.6150
vt 0.3255 0.6150
vt 0.3255 0.6150
vt 0.3255 0.6150
vt 0.3255 0.6150
vt 0.3255 0.6150
vt 0.3255 0.6150
vt 0.3255 0.6150
vt 0.3255 0.6150
vt 0.3255 0.6150
vt 0.3255 0.6150
vt 0.3255 0.6150
vt 0.3255 0.6150
vt 0.3255 0.6150
vt 0.3255 0.6150
vt 0.3255 0.6150
vt 0.3255 0.6150
vt 0.3255 0.6150
vt 0.3255 0.6150
vt 0.3255 0.6150
vt 0.3255 0.6150
vt 0.3255 0.6150
vt 0.3255 0.6150
vt 0.3255 0.6150
vt 0.3255 0.6150
vt 0.3255 0.6150
vt 0.3255 0.6150
vt 0.2697 0.7073
vt 0.2697 0.7073
vt 0.3255 0.6150
vt 0.3255 0.6150
vt 0.3255 0.6150
vt 0.3255 0.6150
vt 0.3255 0.6150
vt 0.3255 0.6150
vt 0.3255 0.6150
vt 0.3255 0.6150
vt 0.3255 0.6150
vt 0.3255 0.6150
vt 0.3255 0.6150
vt 0.3255 0.6150
vt 0.3255 0.6150
vt 0.3255 0.6150
vt 0.3255 0.6150
vt 0.3255 0.6150
vt 0.3255 0.6150
vt 0.3255 0.6150
vt 0.3255 0.6150
vt 0.3255 0.6150
vt 0.3255 0.6150
vt 0.3255 0.6150
vt 0.3255 0.6150
vt 0.3255 0.6150
vt 0.3255 0.6150
vt 0.3255 0.6150
vt 0.3255 0.6150
vt 0.3255 0.6150
vt 0.3255 0.6150
vt 0.3255 0.6150
vt 0.3255 0.6150
vt 0.3255 0.6150
vt 0.3255 0.6150
vt 0.3255 0.6150
vt 0.3255 0.6150
vt 0.3255 0.6150
vt 0.3255 0.6107
vt 0.3255 0.6107
vt 0.3255 0.6107
vt 0.3255 0.6107
vt 0.3255 0.6107
vt 0.3255 0.6107
vt 0.3255 0.6107
vt 0.3255 0.6107
vt 0.3255 0.6107
vt 0.3255 0.6107
vt 0.3255 0.6107
vt 0.3255 0.6107
vt 0.3255 0.6107
vt 0.3255 0.6107
vt 0.3255 0.6107
vt 0.3255 0.6107
vt 0.3255 0.6107
vt 0.3255 0.6107
vt 0.3255 0.6107
vt 0.3255 0.6107
vt 0.3255 0.6107
vt 0.3255 0.6107
vt 0.3255 0.6107
vt 0.3255 0.6107
vt 0.3255 0.6107
vt 0.3255 0.6107
vt 0.3255 0.6107
vt 0.3255 0.6107
vt 0.3255 0.6107
vt 0.3255 0.6107
vt 0.3255 0.6107
vt 0.3255 0.6107
vt 0.3255 0.6107
vt 0.3255 0.6107
vt 0.3255 0.6107
vt 0.3255 0.6107
vt 0.3255 0.6107
vt 0.3255 0.6107
vt 0.3255 0.6107
vt 0.3255 0.6107
vt 0.3255 0.6107
vt 0.3255 0.6107
vt 0.3255 0.6107
vt 0.3255 0.6107
vt 0.3255 0.6107
vt 0.3255 0.6107
vt 0.3255 0.6107
vt 0.3255 0.6107
vt 0.3255 0.6107
vt 0.3255 0.6107
vt 0.3255 0.6107
vt 0.3255 0.6107
vt 0.3255 0.6107
vt 0.3255 0.6107
vt 0.3255 0.6107
vt 0.3255 0.6107
vt 0.3255 0.6107
vt 0.3255 0.6107
vt 0.3255 0.6107
vt 0.3255 0.6107
vt 0.3255 0.6107
vt 0.3255 0.6107
vt 0.3255 0.6107
vt 0.3255 0.6107
vt 0.3255 0.6107
vt 0.3255 0.6107
vt 0.3255 0.6107
vt 0.3255 0.6107
vt 0.3255 0.6107
vt 0.3255 0.6107
vt 0.3255 0.6107
vt 0.3255 0.6107
vt 0.3255 0.6107
vt 0.3255 0.6107
vt 0.3255 0.6107
vt 0.3255 0.6107
vt 0.3255 0.6107
vt 0.3255 0.6107
vt 0.3255 0.6107
vt 0.3255 0.6107
vt 0.3255 0.6107
vt 0.3255 0.6107
vt 0.3255 0.6107
vt 0.3255 0.6107
vt 0.3255 0.6107
vt 0.3255 0.6107
vt 0.3255 0.6107
vt 0.3255 0.6107
vt 0.3255 0.6107
vt 0.3255 0.6107
vt 0.3255 0.6107
vt 0.3255 0.6107
vt 0.3255 0.6107
vt 0.3255 0.6107
vt 0.3255 0.6107
vt 0.3255 0.6107
vt 0.3255 0.6107
vt 0.3255 0.6107
vt 0.3255 0.6107
vt 0.3255 0.6107
vt 0.3255 0.6107
vt 0.3255 0.6107
vt 0.3255 0.6107
vt 0.3255 0.6107
vt 0.3255 0.6107
vt 0.3255 0.6107
vn -0.4218 0.0000 -0.9067
vn 1.0000 -0.0000 -0.0000
vn -0.3567 -0.5338 -0.7667
vn -0.3569 -0.5481 -0.7564
vn -0.3513 0.5537 -0.7550
vn -0.3512 0.5681 -0.7443
vn 0.9759 -0.0000 -0.2181
vn 0.9766 0.0053 -0.2149
vn 0.9154 0.3414 0.2131
vn 0.9821 0.0924 -0.1640
vn 0.9759 -0.0002 -0.2180
vn 0.9759 0.0001 -0.2181
vn -0.7071 -0.0000 0.7071
vn -0.0000 -1.0000 -0.0000
vn 0.0000 1.0000 0.0000
vn -0.7072 0.0001 0.7071
vn -0.7066 -0.0023 0.7076
vn -0.7019 -0.7092 0.0667
vn 0.3202 0.9463 0.0441
vn 0.8527 0.2031 0.4814
vn -0.1066 0.9308 0.3496
vn 0.5110 0.0687 0.8568
vn 0.5110 0.0686 0.8568
vn 0.4224 -0.8884 0.1799
vn 0.0284 -0.0847 0.9960
vn -0.0480 -0.9097 0.4124
vn 0.5544 0.8070 0.2031
vn 0.5544 0.8071 0.2031
vn 0.9459 0.3228 0.0323
vn 0.4671 0.4703 -0.7487
vn 0.9540 -0.0249 0.2987
vn 0.0575 0.9578 0.2817
vn 0.5732 0.0027 0.8194
vn -0.0437 0.5671 -0.8225
vn 0.9213 -0.3854 0.0519
vn -0.4948 -0.3349 -0.8019
vn -0.2198 -0.5570 -0.8009
vn -0.2522 -0.7476 -0.6144
vn -0.0846 -0.6073 -0.7900
vn 0.4975 -0.8312 0.2484
vn 0.4975 -0.8311 0.2484
vn -0.5425 0.5076 -0.6693
vn -0.4552 0.8444 0.2825
vn 0.0793 0.0248 0.9965
vn -0.0085 -0.9425 0.3342
vn -0.5777 -0.5049 -0.6414
vn -0.5122 -0.7938 0.3278
vn 0.4319 -0.5422 -0.7208
vn 0.7749 -0.4862 0.4038
vn -0.2472 -0.9659 0.0767
vn 0.4801 -0.3343 0.8110
vn 0.4381 0.6585 0.6119
vn -0.9277 -0.1108 -0.3564
vn -0.4011 -0.7478 0.5290
vn -0.0554 -0.0258 0.9981
vn -0.0736 0.4034 0.9120
vn -0.4691 0.8586 0.2068
vn -0.3261 0.8975 -0.2970
vn -0.9878 -0.0106 0.1556
vn -0.4364 -0.2046 0.8762
vn -0.4658 0.4899 0.7369
vn -0.6900 0.1142 0.7148
vn 0.6966 0.6783 0.2338
vn 0.6963 0.6789 0.2330
vn 0.6965 0.6786 0.2335
vn 0.6962 0.6791 0.2328
vn 0.0857 0.8217 -0.5635
vn 0.8666 0.3856 -0.3166
vn 0.0857 0.8217 -0.5634
vn 0.9562 -0.0424 -0.2896
vn 0.6027 0.4473 -0.6608
vn 0.9034 -0.3110 0.2952
vn 0.3385 0.7113 0.6160
vn -0.0844 -0.0802 -0.9932
vn -0.0844 -0.0803 -0.9932
vn 0.7476 -0.2452 -0.6172
vn 0.5292 0.0574 -0.8466
vn 0.4209 -0.7803 -0.4625
vn 0.5789 -0.4372 0.6884
vn 0.5789 -0.4372 0.6883
vn 0.5789 -0.4371 0.6883
vn 0.0192 -0.9815 -0.1906
vn 0.5335 0.8006 0.2728
vn 0.7920 -0.1238 0.5978
vn 0.0747 0.8484 0.5240
vn 0.0744 0.8488 0.5234
vn 0.0745 0.8488 0.5235
vn 0.0743 0.8491 0.5230
vn 0.7919 -0.1238 0.5980
vn 0.7919 -0.1238 0.5979
vn -0.3283 0.7480 -0.5768
vn -0.3284 0.7480 -0.5768
vn 0.6047 -0.7823 -0.1495
vn 0.3742 -0.2233 0.9001
vn -0.4054 0.6633 0.6290
vn -0.7524 0.5762 -0.3192
vn -0.7524 0.5762 -0.3191
vn -0.2772 -0.3868 -0.8795
vn -0.1468 -0.2611 0.9541
vn -0.8319 0.1907 0.5211
vn -0.7083 -0.4021 -0.5801
vn -0.7083 -0.4021 -0.5802
vn -0.9819 0.1530 0.1112
vn 0.1570 -0.9870 0.0332
vn -0.3341 -0.9196 0.2068
vn -0.7202 -0.2089 0.6616
vn -0.9629 -0.2699 -0.0016
vn -0.8011 -0.4936 0.3386
usemtl None
s 1
f 1/1/1 2/2/1 3/3/1
f 3/3/1 2/2/1 4/4/1
f 1/5/2 5/6/2 2/7/2
f 2/7/2 5/6/2 6/8/2
f 2/2/3 6/9/3 4/4/3
f 4/4/4 6/9/4 7/10/4
f 1/1/5 3/3/5 5/11/5
f 5/11/6 3/3/6 8/12/6
f 5/6/7 9/13/7 6/8/7
f 9/13/7 10/14/7 6/8/7
f 10/14/7 11/15/7 6/8/7
f 12/16/7 13/17/7 14/18/7
f 13/17/7 6/8/7 14/18/7
f 14/18/7 6/8/7 15/19/7
f 15/19/7 6/8/7 16/20/7
f 6/8/7 11/15/7 16/20/7
f 11/15/8 17/21/8 16/20/9
f 17/21/10 18/22/10 16/20/10
f 18/22/7 19/23/7 16/20/7
f 19/23/7 20/24/7 16/20/7
f 20/24/7 21/25/7 16/20/7
f 13/17/7 12/16/7 22/26/7
f 22/26/7 12/16/7 23/27/7
f 9/13/7 5/6/7 24/28/7
f 24/28/7 5/6/7 25/29/7
f 23/27/7 12/16/7 26/30/7
f 12/16/7 27/31/7 26/30/7
f 5/6/7 28/32/7 25/29/7
f 25/29/7 28/32/7 29/33/7
f 29/33/7 28/32/7 30/34/7
f 28/32/7 31/35/7 30/34/7
f 31/35/7 32/36/11 30/34/7
f 32/36/11 33/37/12 30/34/7
f 33/37/12 34/38/7 30/34/7
f 26/30/7 27/31/7 35/39/7
f 27/31/7 36/40/7 35/39/7
f 35/39/7 36/40/7 34/38/7
f 34/38/7 36/40/7 30/34/7
f 36/40/7 37/41/7 30/34/7
f 37/41/7 38/42/7 30/34/7
f 38/42/7 21/25/7 30/34/7
f 30/34/7 21/25/7 39/43/7
f 21/25/7 20/24/7 39/43/7
f 7/44/13 8/45/13 4/46/13
f 4/46/13 8/45/13 3/47/13
f 7/10/14 6/9/14 13/48/14
f 5/11/15 8/12/15 28/49/15
f 7/44/13 40/50/13 8/45/13
f 40/50/13 41/51/13 8/45/13
f 42/52/13 43/53/13 44/54/13
f 41/51/13 45/55/13 8/45/13
f 8/45/13 45/55/13 28/32/13
f 45/55/13 46/56/13 28/32/13
f 46/56/13 47/57/13 28/32/13
f 28/32/13 47/57/13 31/35/13
f 31/35/13 47/57/13 48/58/13
f 48/58/13 47/57/13 49/59/13
f 47/57/13 50/60/13 49/59/13
f 50/60/13 51/61/13 49/59/13
f 51/61/13 52/62/16 49/59/13
f 52/62/16 53/63/13 49/59/13
f 49/59/13 53/63/13 54/64/13
f 53/63/13 55/65/13 54/64/13
f 54/64/13 55/65/13 56/66/13
f 55/65/13 57/67/13 56/66/13
f 56/66/13 57/67/13 43/53/13
f 57/67/13 44/54/13 43/53/13
f 40/50/13 58/68/13 59/69/13
f 59/69/13 58/68/13 60/70/13
f 60/70/13 58/68/13 61/71/13
f 51/61/13 50/60/13 62/72/13
f 63/73/13 64/74/13 65/75/13
f 64/74/13 62/72/13 65/75/13
f 62/72/13 50/60/13 65/75/13
f 65/75/13 50/60/13 66/76/13
f 50/60/13 61/71/13 66/76/13
f 66/76/13 61/71/13 67/77/13
f 67/77/13 61/71/13 68/78/13
f 58/68/13 68/78/13 61/71/13
f 40/50/13 7/44/13 58/68/13
f 58/68/13 7/44/13 69/79/13
f 69/79/13 7/44/13 70/80/13
f 43/53/13 42/52/13 22/26/13
f 22/26/13 42/52/13 13/17/13
f 42/52/13 71/81/13 13/17/13
f 64/74/13 63/73/13 72/82/13
f 70/80/13 7/44/13 73/83/13
f 63/73/13 74/84/13 72/82/13
f 72/82/13 74/84/13 75/85/13
f 73/83/17 7/44/18 74/84/17
f 71/81/13 75/85/13 13/17/13
f 13/17/13 75/85/13 7/44/13
f 75/85/13 74/84/13 7/44/13
f 22/86/19 23/87/19 43/88/19
f 43/88/19 23/87/19 76/89/19
f 56/90/20 43/88/20 76/89/20
f 23/87/21 26/91/21 76/89/21
f 54/92/20 56/90/20 76/89/20
f 26/91/21 35/93/21 76/89/21
f 76/89/22 35/93/22 54/92/22
f 35/93/22 34/94/23 54/92/22
f 77/95/23 49/96/22 34/94/23
f 34/94/23 49/96/22 54/92/22
f 48/97/24 49/96/24 77/95/24
f 34/94/25 33/98/25 77/95/25
f 77/95/24 32/99/24 48/97/24
f 48/97/24 32/99/24 31/100/24
f 33/98/26 32/99/26 77/95/26
f 75/101/27 78/102/28 72/103/28
f 72/103/28 78/102/28 79/104/28
f 64/105/29 72/103/29 79/104/29
f 78/102/28 80/106/28 79/104/28
f 75/101/30 71/107/30 78/102/30
f 64/105/31 79/104/31 62/108/31
f 62/108/31 79/104/31 81/109/31
f 78/102/32 82/110/32 80/106/32
f 81/109/33 79/104/33 83/111/33
f 83/111/33 79/104/33 80/106/33
f 42/112/34 84/113/34 71/107/34
f 71/107/34 84/113/34 78/102/34
f 51/114/35 62/108/35 81/109/35
f 84/113/34 82/110/34 78/102/34
f 16/115/32 80/106/32 15/116/32
f 15/116/32 80/106/32 82/110/32
f 85/117/36 36/118/36 44/119/36
f 36/118/37 27/120/37 44/119/37
f 27/120/38 84/113/38 44/119/38
f 84/113/39 42/112/39 44/119/39
f 52/121/40 51/114/40 83/111/41
f 51/114/40 81/109/41 83/111/41
f 14/122/42 82/110/42 12/123/42
f 12/123/42 82/110/42 84/113/42
f 14/122/43 15/116/43 82/110/43
f 16/115/44 21/124/44 80/106/44
f 80/106/44 21/124/44 83/111/44
f 44/119/39 57/125/39 85/117/39
f 85/117/39 57/125/39 86/126/39
f 21/124/45 38/127/45 83/111/45
f 38/127/45 86/126/45 83/111/45
f 86/126/41 53/128/41 83/111/41
f 53/128/41 52/121/40 83/111/41
f 27/120/46 12/123/46 84/113/46
f 37/129/47 36/118/47 85/117/47
f 38/127/45 37/129/45 86/126/45
f 86/126/45 37/129/45 85/117/45
f 57/125/48 55/130/48 86/126/48
f 55/130/48 53/128/48 86/126/48
f 45/131/49 41/132/49 87/133/49
f 46/134/50 45/131/50 87/133/50
f 40/135/51 88/136/51 41/132/51
f 41/132/51 88/136/51 87/133/51
f 47/137/50 46/134/50 89/138/50
f 89/138/50 46/134/50 87/133/50
f 88/136/51 90/139/51 87/133/51
f 59/140/52 91/141/52 40/135/52
f 40/135/52 91/141/52 88/136/52
f 47/137/53 89/138/53 50/142/53
f 50/142/53 89/138/53 92/143/53
f 89/138/54 87/133/54 93/144/54
f 93/144/54 87/133/54 90/139/54
f 88/136/55 94/145/55 90/139/55
f 91/141/56 94/145/56 88/136/56
f 59/140/57 60/146/57 91/141/57
f 60/146/57 95/147/57 91/141/57
f 61/148/58 50/142/58 92/143/58
f 92/143/59 89/138/59 95/147/59
f 95/147/59 89/138/59 93/144/59
f 90/139/60 94/145/60 93/144/60
f 95/147/61 94/145/61 91/141/61
f 60/146/57 61/148/57 95/147/57
f 95/147/57 61/148/57 92/143/57
f 93/144/62 94/145/62 95/147/62
f 18/149/63 17/150/64 96/151/65
f 17/150/64 97/152/66 96/151/65
f 19/153/67 18/149/67 96/151/67
f 97/152/68 98/154/68 96/151/68
f 17/150/64 11/155/66 97/152/66
f 11/155/66 99/156/66 97/152/66
f 20/157/69 19/153/67 100/158/67
f 100/158/67 19/153/67 96/151/67
f 101/159/70 98/154/70 97/152/70
f 96/151/71 98/154/71 100/158/71
f 101/159/72 97/152/72 102/160/72
f 102/160/72 97/152/72 99/156/72
f 11/155/73 10/161/73 99/156/73
f 39/162/74 20/157/75 100/158/74
f 103/163/76 98/154/76 101/159/76
f 100/158/77 98/154/77 103/163/77
f 10/161/73 9/164/73 99/156/73
f 30/165/74 39/162/74 103/163/74
f 103/163/74 39/162/74 100/158/74
f 101/159/78 102/160/78 103/163/78
f 9/164/79 24/166/80 99/156/79
f 99/156/79 24/166/80 102/160/81
f 30/165/78 103/163/78 29/167/78
f 29/167/78 103/163/78 102/160/78
f 24/166/80 25/168/81 102/160/81
f 25/168/82 29/167/82 102/160/82
f 70/169/83 73/170/83 104/171/83
f 69/172/84 70/169/84 104/171/84
f 74/173/85 105/174/86 73/170/87
f 73/170/87 105/174/86 104/171/88
f 58/175/89 69/172/84 106/176/90
f 106/176/90 69/172/84 104/171/84
f 105/174/86 107/177/88 104/171/88
f 74/173/91 63/178/91 105/174/91
f 105/174/91 63/178/91 108/179/92
f 68/180/93 58/175/93 106/176/93
f 106/176/94 104/171/94 109/181/94
f 109/181/94 104/171/94 107/177/94
f 105/174/95 110/182/95 107/177/95
f 107/177/95 110/182/95 111/183/95
f 108/179/96 112/184/96 105/174/96
f 105/174/96 112/184/96 110/182/97
f 65/185/98 113/186/98 63/178/98
f 63/178/98 113/186/98 108/179/98
f 67/187/93 68/180/93 106/176/93
f 107/177/99 111/183/99 109/181/99
f 109/181/99 111/183/99 114/188/99
f 110/182/100 115/189/100 111/183/100
f 116/190/101 112/184/102 113/186/101
f 113/186/101 112/184/102 108/179/102
f 112/184/103 115/189/103 110/182/103
f 65/185/104 66/191/104 113/186/104
f 113/186/104 66/191/104 109/181/104
f 66/191/104 67/187/104 109/181/104
f 109/181/104 67/187/104 106/176/104
f 113/186/105 109/181/105 116/190/105
f 116/190/105 109/181/105 114/188/105
f 111/183/106 115/189/106 114/188/106
f 116/190/107 115/189/107 112/184/107
f 114/188/108 115/189/108 116/190/108
