# This file uses centimeters as units for non-parametric coordinates.

v -8.876572 10.934456 24.737900
v 8.407387 10.875737 24.737900
v -9.035400 11.564587 -24.737854
v 8.565998 11.517251 -24.737854
v -9.035400 5.067635 -24.737854
v 8.565998 5.548566 -24.737854
v -8.876572 5.604677 24.737900
v 8.407387 5.979322 24.737900
v 12.600243 12.836843 9.374092
v -13.410103 16.165392 9.374092
v -13.410103 6.566256 9.374092
v 12.600128 4.018211 9.374092
v 13.410080 15.797331 -12.116188
v -13.069313 13.069133 -12.116188
v -13.069313 0.000000 -12.116188
v 13.410080 7.610969 -12.116188
v -7.275906 10.934456 24.737900
v -11.001343 15.878672 9.374092
v -10.617275 13.560080 -12.116188
v -7.405415 11.564587 -24.737854
v -7.405415 5.067635 -24.737854
v -10.617165 0.490949 -12.116188
v -11.001343 6.279530 9.374092
v -7.275906 5.604677 24.737900
v 8.198437 11.365572 21.049164
v 3.656002 14.066299 9.374092
v 11.507721 16.700768 -7.541687
v 11.527161 5.393647 -8.059097
v -1.751663 5.136435 9.374092
v 8.081909 5.543958 21.475960
v 9.901024 11.574379 19.264557
v 9.801117 5.327420 19.630707
v 13.156708 16.184298 -5.395889
v 13.173706 5.209803 -5.844124
v 6.961315 13.704824 9.374092
v 2.823845 4.633769 9.374092
v -8.783165 2.253977 -19.323547
v 10.643997 4.496331 -19.323547
v 10.643997 12.948216 -19.323547
v -8.783215 11.453905 -19.323547
v -10.765854 11.273231 -19.323547
v -10.765854 2.073298 -19.323547
v -0.417683 11.120052 24.737885
v -0.041218 15.311986 9.374092
v 0.137222 16.331366 -12.116188
v -0.169289 11.704445 -24.737854
v -0.871723 4.619549 -24.737854
v -0.903557 1.852294 -12.116188
v -0.791782 4.783993 8.113907
v -0.802773 4.796741 10.541862
v -0.835464 5.307952 24.737900
v -0.805138 4.683941 9.374092
v -0.884991 2.456588 -19.323547
v -0.037369 12.573306 -19.323547
vt 0.085388 0.381807
vt 0.205972 0.612406
vt 0.205972 0.612406
vt 0.085388 0.381807
vt 0.085388 0.381807
vt 0.205972 0.612406
vt 0.205972 0.612406
vt 0.085388 0.381807
vt 0.085388 0.381807
vt 0.205972 0.612406
vt 0.205972 0.612406
vt 0.085388 0.381807
vt 0.085388 0.381807
vt 0.205972 0.612406
vt 0.205972 0.612406
vt 0.085388 0.381807
vt 0.205972 0.612406
vt 0.205972 0.612406
vt 0.205972 0.612406
vt 0.205972 0.612406
vt 0.085388 0.381807
vt 0.085388 0.381807
vt 0.085388 0.381807
vt 0.085388 0.381807
vt 0.205972 0.612406
vt 0.205972 0.612406
vt 0.085388 0.381807
vt 0.085388 0.381807
vt 0.085388 0.381807
vt 0.085388 0.381807
vt 0.205972 0.612406
vt 0.205972 0.612406
vt 0.205972 0.612406
vt 0.205972 0.612406
vt 0.085388 0.381807
vt 0.085388 0.381807
vt 0.085388 0.381807
vt 0.085388 0.381807
vt 0.205972 0.612406
vt 0.205972 0.612406
vt 0.205972 0.612406
vt 0.205972 0.612406
vt 0.205972 0.612406
vt 0.205972 0.612406
vt 0.085388 0.381807
vt 0.085388 0.381807
vt 0.085388 0.381807
vt 0.085388 0.381807
vt 0.205972 0.612406
vt 0.205972 0.612406
vt 0.085388 0.381807
vt 0.085388 0.381807
vt 0.205972 0.612406
vt 0.205972 0.612406
vt 0.085388 0.381807
vt 0.085388 0.381807
vt 0.085388 0.381807
vt 0.085388 0.381807
vt 0.205972 0.612406
vt 0.205972 0.612406
vt 0.205972 0.612406
vt 0.205972 0.612406
vt 0.205972 0.612406
vt 0.205972 0.612406
vt 0.205972 0.612406
vt 0.205972 0.612406
vt 0.205972 0.612406
vt 0.205972 0.612406
vt 0.205972 0.612406
vt 0.205972 0.612406
vt 0.205972 0.612406
vt 0.205972 0.612406
vt 0.085388 0.381807
vt 0.085388 0.381807
vt 0.205972 0.612406
vt 0.205972 0.612406
vt 0.085388 0.381807
vt 0.085388 0.381807
vt 0.085388 0.381807
vt 0.085388 0.381807
vt 0.085388 0.381807
vt 0.085388 0.381807
vt 0.085388 0.381807
vt 0.085388 0.381807
vt 0.085388 0.381807
vt 0.085388 0.381807
vt 0.085388 0.381807
vt 0.085388 0.381807
vt 0.205972 0.612406
vt 0.205972 0.612406
vt 0.085388 0.381807
vt 0.205972 0.612406
vt 0.085388 0.381807
vt 0.205972 0.612406
vt 0.085388 0.381807
vt 0.085388 0.381807
vt 0.085388 0.381807
vt 0.085388 0.381807
vt 0.085388 0.381807
vt 0.205972 0.612406
vt 0.205972 0.612406
vt 0.205972 0.612406
vt 0.085388 0.381807
vt 0.085388 0.381807
vt 0.085388 0.381807
vt 0.085388 0.381807
vt 0.205972 0.612406
vt 0.205972 0.612406
vt 0.085388 0.381807
vt 0.085388 0.381807
vt 0.085388 0.381807
vt 0.085388 0.381807
vt 0.205972 0.612406
vt 0.205972 0.612406
vt 0.085388 0.381807
vt 0.085388 0.381807
vt 0.205972 0.612406
vt 0.205972 0.612406
vt 0.205972 0.612406
vt 0.205972 0.612406
vt 0.085388 0.381807
vt 0.085388 0.381807
vt 0.205972 0.612406
vt 0.205972 0.612406
vt 0.205972 0.612406
vt 0.085388 0.381807
vt 0.205972 0.612406
vt 0.085388 0.381807
vt 0.205972 0.612406
vt 0.085388 0.381807
vt 0.085388 0.381807
vt 0.085388 0.381807
vt 0.205972 0.612406
vt 0.205972 0.612406
vt 0.205972 0.612406
vt 0.205972 0.612406
vt 0.085388 0.381807
vt 0.205972 0.612406
vt 0.205972 0.612406
vt 0.205972 0.612406
vt 0.205972 0.612406
vt 0.205972 0.612406
vt 0.085388 0.381807
vt 0.205972 0.612406
vt 0.085388 0.381807
vt 0.085388 0.381807
vt 0.085388 0.381807
vt 0.085388 0.381807
vt 0.205972 0.612406
vt 0.205972 0.612406
vt 0.205972 0.612406
vt 0.205972 0.612406
vt 0.205972 0.612406
vt 0.205972 0.612406
vt 0.205972 0.612406
vt 0.205972 0.612406
vt 0.205972 0.612406
vt 0.205972 0.612406
vt 0.205972 0.612406
vt 0.205972 0.612406
vt 0.205972 0.612406
vt 0.085388 0.381807
vt 0.205972 0.612406
vt 0.085388 0.381807
vt 0.205972 0.612406
vt 0.205972 0.612406
vt 0.085388 0.381807
vt 0.085388 0.381807
vt 0.205972 0.612406
vt 0.205972 0.612406
vn 0.000000 0.951923 0.306338
vn 0.000000 0.951923 0.306338
vn 0.000000 0.951923 0.306338
vn 0.113113 0.950269 0.290162
vn 0.113113 0.950269 0.290162
vn 0.113113 0.950269 0.290162
vn 0.000000 0.000000 -1.000000
vn 0.000000 0.000000 -1.000000
vn 0.000000 0.000000 -1.000000
vn 0.000000 0.000000 -1.000000
vn 0.000000 0.000000 -1.000000
vn 0.000000 0.000000 -1.000000
vn -0.118156 -0.992621 -0.027260
vn -0.118156 -0.992621 -0.027260
vn -0.118156 -0.992621 -0.027260
vn 0.000000 -0.999037 -0.043883
vn 0.000000 -0.999037 -0.043883
vn 0.000000 -0.999037 -0.043883
vn 0.000000 0.000000 1.000000
vn 0.000000 0.000000 1.000000
vn 0.000000 0.000000 1.000000
vn 0.000000 0.000000 1.000000
vn 0.000000 0.000000 1.000000
vn 0.000000 0.000000 1.000000
vn 0.995059 0.000000 -0.099287
vn 0.995059 0.000000 -0.099287
vn 0.995059 0.000000 -0.099287
vn 0.997916 -0.024356 -0.059762
vn 0.997916 -0.024356 -0.059762
vn 0.997916 -0.024356 -0.059762
vn -0.959116 0.000000 0.283014
vn -0.959116 0.000000 0.283014
vn -0.959116 0.000000 0.283014
vn -0.959116 0.000000 0.283014
vn -0.959116 0.000000 0.283014
vn -0.959116 0.000000 0.283014
vn 0.117037 0.983238 -0.139806
vn 0.117037 0.983238 -0.139806
vn 0.117037 0.983238 -0.139806
vn -0.195161 0.974734 -0.108652
vn -0.195161 0.974734 -0.108652
vn -0.195161 0.974734 -0.108652
vn -0.999874 0.000000 -0.015856
vn -0.999874 0.000000 -0.015856
vn -0.999874 0.000000 -0.015856
vn -0.999874 0.000000 -0.015856
vn -0.999874 0.000000 -0.015856
vn -0.999874 0.000000 -0.015856
vn 0.189642 -0.947206 0.258528
vn 0.189642 -0.947206 0.258528
vn 0.189642 -0.947206 0.258528
vn -0.113168 -0.950711 0.288691
vn -0.113168 -0.950711 0.288691
vn -0.113168 -0.950711 0.288691
vn 0.910520 -0.017338 0.413102
vn 0.910520 -0.017338 0.413102
vn 0.910520 -0.017338 0.413102
vn 0.923341 0.000000 0.383982
vn 0.923341 0.000000 0.383982
vn 0.923341 0.000000 0.383982
vn -0.187674 0.937342 -0.293543
vn -0.187674 0.937342 -0.293543
vn -0.187674 0.937342 -0.293543
vn -0.086581 0.950104 -0.299677
vn -0.086581 0.950104 -0.299677
vn -0.086581 0.950104 -0.299677
vn -0.952535 0.000000 -0.304429
vn -0.952535 0.000000 -0.304429
vn -0.952535 0.000000 -0.304429
vn -0.952535 0.000000 -0.304428
vn -0.952535 0.000000 -0.304428
vn -0.952535 0.000000 -0.304428
vn 0.088623 -0.972510 -0.215339
vn 0.088623 -0.972510 -0.215339
vn 0.088623 -0.972510 -0.215339
vn 0.191758 -0.957775 -0.214232
vn 0.191758 -0.957775 -0.214232
vn 0.191758 -0.957775 -0.214232
vn 0.933605 0.000000 -0.358304
vn 0.933605 0.000000 -0.358304
vn 0.933605 0.000000 -0.358304
vn 0.933605 0.000000 -0.358304
vn 0.933605 0.000000 -0.358304
vn 0.933605 0.000000 -0.358304
vn 0.049336 0.954191 0.295104
vn 0.049336 0.954190 0.295104
vn 0.049336 0.954191 0.295104
vn -0.026102 0.964569 0.262538
vn -0.026102 0.964568 0.262538
vn -0.026102 0.964568 0.262538
vn 0.051343 0.993016 -0.106219
vn 0.051343 0.993016 -0.106219
vn 0.051343 0.993016 -0.106219
vn -0.249295 0.967436 0.043820
vn -0.249295 0.967436 0.043820
vn -0.249295 0.967436 0.043820
vn -0.031118 0.886580 -0.461527
vn -0.031118 0.886580 -0.461527
vn -0.031118 0.886580 -0.461527
vn 0.037192 0.924369 -0.379682
vn 0.037192 0.924369 -0.379682
vn 0.037192 0.924369 -0.379682
vn 0.000000 0.000000 -1.000000
vn 0.000000 0.000000 -1.000000
vn 0.000000 0.000000 -1.000000
vn 0.000000 0.000000 -1.000000
vn 0.000000 0.000000 -1.000000
vn 0.000000 0.000000 -1.000000
vn 0.135912 -0.969776 -0.202637
vn 0.135912 -0.969776 -0.202637
vn 0.135912 -0.969776 -0.202637
vn 0.025555 -0.996184 -0.083458
vn 0.025555 -0.996184 -0.083458
vn 0.025555 -0.996184 -0.083458
vn -0.118553 -0.959306 0.256277
vn -0.118553 -0.959306 0.256277
vn -0.118553 -0.959306 0.256277
vn -0.052537 -0.971379 0.231653
vn -0.052537 -0.971379 0.231653
vn -0.052537 -0.971379 0.231653
vn 0.137399 -0.980383 0.141316
vn 0.137399 -0.980383 0.141316
vn 0.137399 -0.980383 0.141316
vn -0.122637 -0.992355 -0.013852
vn -0.122637 -0.992355 -0.013852
vn -0.122637 -0.992355 -0.013852
vn -0.263848 -0.962335 -0.065541
vn -0.263848 -0.962335 -0.065541
vn -0.263848 -0.962335 -0.065541
vn -0.045994 -0.998298 0.035844
vn -0.045994 -0.998299 0.035844
vn -0.045994 -0.998299 0.035844
vn 0.000000 0.000000 1.000000
vn 0.000000 0.000000 1.000000
vn 0.000000 0.000000 1.000000
vn 0.000002 0.000002 1.000000
vn 0.000002 0.000002 1.000000
vn 0.000002 0.000002 1.000000
vn 0.150040 0.974752 0.165370
vn 0.150040 0.974752 0.165370
vn 0.150040 0.974752 0.165370
vn 0.148272 0.963267 0.223900
vn 0.148272 0.963267 0.223900
vn 0.148272 0.963267 0.223900
vn 0.803299 0.025547 -0.595028
vn 0.803299 0.025547 -0.595028
vn 0.803299 0.025547 -0.595028
vn 0.795945 0.029038 -0.604672
vn 0.795945 0.029038 -0.604672
vn 0.795945 0.029038 -0.604672
vn -0.062637 -0.994804 -0.080254
vn -0.062637 -0.994805 -0.080254
vn -0.062637 -0.994804 -0.080254
vn -0.062462 -0.992014 0.109580
vn -0.062462 -0.992014 0.109580
vn -0.062462 -0.992014 0.109580
vn 0.964722 0.000002 0.263271
vn 0.964722 0.000002 0.263271
vn 0.964722 0.000002 0.263271
vn 0.964719 -0.000013 0.263281
vn 0.964719 -0.000013 0.263281
vn 0.964719 -0.000013 0.263281
vn 0.733254 0.035105 0.679048
vn 0.733254 0.035105 0.679048
vn 0.733254 0.035105 0.679048
vn 0.721536 0.029007 0.691769
vn 0.721536 0.029007 0.691769
vn 0.721536 0.029007 0.691769
vn 0.999291 -0.000013 0.037662
vn 0.999291 -0.000013 0.037662
vn 0.999291 -0.000013 0.037662
vn 0.999291 0.000010 0.037651
vn 0.999291 0.000010 0.037651
vn 0.999291 0.000010 0.037651
vn 0.067578 0.980585 0.184084
vn 0.067578 0.980585 0.184084
vn 0.067578 0.980585 0.184084
vn 0.106340 0.972366 0.207838
vn 0.106340 0.972366 0.207838
vn 0.106340 0.972366 0.207838
vn 0.083202 0.977516 0.193752
vn 0.083202 0.977516 0.193752
vn 0.083202 0.977516 0.193752
vn 0.106960 0.978039 0.178882
vn 0.106960 0.978039 0.178882
vn 0.106960 0.978039 0.178882
vn -0.027971 -0.995480 0.090758
vn -0.027971 -0.995480 0.090758
vn -0.027971 -0.995480 0.090758
vn -0.013760 -0.995270 0.096165
vn -0.013760 -0.995270 0.096165
vn -0.013760 -0.995270 0.096165
vn -0.018934 -0.996593 0.080280
vn -0.018934 -0.996593 0.080280
vn -0.018934 -0.996593 0.080280
vn -0.430059 -0.899598 -0.075980
vn -0.430059 -0.899598 -0.075980
vn -0.430059 -0.899598 -0.075980
vn 0.168684 -0.953430 -0.250033
vn 0.168684 -0.953430 -0.250033
vn 0.168684 -0.953430 -0.250033
vn 0.091040 -0.924860 -0.369249
vn 0.091040 -0.924860 -0.369249
vn 0.091040 -0.924860 -0.369249
vn 0.933601 0.000000 -0.358314
vn 0.933601 0.000000 -0.358314
vn 0.933601 0.000000 -0.358314
vn 0.933601 0.000000 -0.358314
vn 0.933601 0.000000 -0.358314
vn 0.933601 0.000000 -0.358314
vn -0.126947 0.991837 -0.012029
vn -0.126947 0.991837 -0.012029
vn -0.126947 0.991837 -0.012029
vn -0.019082 0.987260 -0.157966
vn -0.019082 0.987260 -0.157966
vn -0.019082 0.987260 -0.157966
vn -0.090725 0.995573 0.024578
vn -0.090725 0.995573 0.024578
vn -0.090725 0.995573 0.024578
vn 0.000000 0.999791 0.020438
vn 0.000000 0.999791 0.020438
vn 0.000000 0.999791 0.020438
vn -0.952533 0.000000 -0.304437
vn -0.952533 0.000000 -0.304437
vn -0.952533 0.000000 -0.304437
vn -0.952533 0.000000 -0.304437
vn -0.952533 0.000000 -0.304437
vn -0.952533 0.000000 -0.304437
vn 0.000000 -0.887336 -0.461123
vn 0.000000 -0.887336 -0.461123
vn 0.000000 -0.887336 -0.461123
vn 0.080459 -0.882921 -0.462577
vn 0.080459 -0.882921 -0.462577
vn 0.080459 -0.882921 -0.462577
vn 0.308530 0.915723 0.257410
vn 0.308530 0.915723 0.257410
vn 0.308530 0.915723 0.257410
vn 0.027438 0.991126 0.130060
vn 0.027438 0.991126 0.130060
vn 0.027438 0.991126 0.130060
vn 0.059099 0.977374 0.203097
vn 0.059099 0.977374 0.203097
vn 0.059099 0.977374 0.203097
vn 0.039562 0.983282 -0.177741
vn 0.039562 0.983282 -0.177741
vn 0.039562 0.983282 -0.177741
vn -0.079364 0.989917 0.117332
vn -0.079364 0.989916 0.117332
vn -0.079364 0.989916 0.117332
vn 0.318928 0.946585 0.047549
vn 0.318928 0.946585 0.047549
vn 0.318928 0.946585 0.047549
vn -0.112908 0.882149 -0.457235
vn -0.112908 0.882150 -0.457235
vn -0.112908 0.882150 -0.457235
vn -0.235783 0.915000 -0.327386
vn -0.235783 0.915000 -0.327386
vn -0.235783 0.915000 -0.327386
vn 0.000000 0.000000 -1.000000
vn 0.000000 0.000000 -1.000000
vn 0.000000 0.000000 -1.000000
vn 0.000000 0.000000 -1.000000
vn 0.000000 0.000000 -1.000000
vn 0.000000 0.000000 -1.000000
vn 0.173633 -0.981404 -0.081838
vn 0.173633 -0.981404 -0.081838
vn 0.173633 -0.981404 -0.081838
vn 0.361440 -0.898388 0.249520
vn 0.361440 -0.898388 0.249520
vn 0.361440 -0.898388 0.249520
vn 0.229323 -0.963467 0.138356
vn 0.229323 -0.963467 0.138356
vn 0.229323 -0.963467 0.138356
vn 0.354042 -0.879999 -0.316633
vn 0.354042 -0.879999 -0.316633
vn 0.354042 -0.879999 -0.316633
vn 0.039615 -0.998564 0.036050
vn 0.039615 -0.998565 0.036050
vn 0.039615 -0.998564 0.036050
vn 0.071878 -0.989562 0.124903
vn 0.071878 -0.989562 0.124903
vn 0.071878 -0.989562 0.124903
vn 0.000000 0.000003 1.000000
vn 0.000000 0.000003 1.000000
vn 0.000000 0.000003 1.000000
vn -0.000002 0.000000 1.000000
vn -0.000002 0.000000 1.000000
vn -0.000002 0.000000 1.000000
vn -0.429645 -0.898731 0.087682
vn -0.429645 -0.898731 0.087682
vn -0.429645 -0.898731 0.087682
vn -0.030033 -0.997717 -0.060485
vn -0.030033 -0.997717 -0.060485
vn -0.030033 -0.997717 -0.060485
vn -0.013781 -0.996757 -0.079283
vn -0.013781 -0.996757 -0.079283
vn -0.013781 -0.996757 -0.079283
vn -0.022884 -0.998314 -0.053351
vn -0.022884 -0.998314 -0.053351
vn -0.022884 -0.998314 -0.053351
vn -0.063555 -0.926709 -0.370367
vn -0.063555 -0.926709 -0.370367
vn -0.063555 -0.926709 -0.370367
vn 0.022817 -0.889469 -0.456425
vn 0.022817 -0.889469 -0.456425
vn 0.022817 -0.889469 -0.456425
vn 0.021152 0.987066 -0.158915
vn 0.021152 0.987066 -0.158915
vn 0.021152 0.987066 -0.158915
vn -0.034025 0.969393 -0.243146
vn -0.034025 0.969393 -0.243146
vn -0.034025 0.969393 -0.243146
s off
f 17/57/1 18/87/2 1/1/3
f 1/1/4 18/87/5 10/51/6
f 3/5/7 20/84/8 5/8/9
f 5/8/10 20/84/11 21/81/12
f 11/56/13 23/78/14 7/12/15
f 7/12/16 23/78/17 24/73/18
f 7/13/19 24/74/20 1/16/21
f 1/16/22 24/74/23 17/58/24
f 8/18/25 30/100/26 2/17/27
f 2/17/28 30/100/29 25/90/30
f 7/21/31 1/22/32 11/55/33
f 11/55/34 1/22/35 10/28/36
f 10/27/37 18/88/38 14/47/39
f 14/47/40 18/88/41 19/85/42
f 10/52/43 14/48/44 11/30/45
f 11/30/46 14/48/47 15/45/48
f 22/80/49 23/77/50 15/46/51
f 15/46/52 23/77/53 11/29/54
f 28/135/55 16/42/56 27/94/57
f 27/94/58 16/42/59 13/34/60
f 14/35/61 19/86/62 41/145/63
f 41/145/64 19/86/65 40/143/66
f 15/38/67 14/36/68 42/147/69
f 42/147/70 14/36/71 41/146/72
f 37/137/73 22/79/74 42/148/75
f 42/148/76 22/79/77 15/37/78
f 13/44/79 16/40/80 39/141/81
f 39/141/82 16/40/83 38/139/84
f 18/59/85 17/75/86 44/151/87
f 44/151/88 17/75/89 43/149/90
f 18/60/91 44/152/92 19/61/93
f 19/61/94 44/152/95 45/153/96
f 54/170/97 45/154/98 39/142/99
f 39/142/100 45/154/101 13/43/102
f 21/65/103 20/64/104 47/157/105
f 47/157/106 20/64/107 46/156/108
f 22/68/109 37/138/110 48/159/111
f 48/159/112 37/138/113 53/169/114
f 23/70/115 22/67/116 29/133/117
f 29/133/118 22/67/119 49/161/120
f 22/67/121 48/160/122 49/161/123
f 23/69/124 29/134/125 24/71/126
f 29/134/127 50/163/128 24/71/129
f 24/71/130 50/163/131 51/165/132
f 24/72/133 51/166/134 17/76/135
f 17/76/136 51/166/137 43/150/138
f 35/120/139 31/101/140 9/25/141
f 33/124/142 35/119/143 9/53/144
f 34/115/145 28/96/146 33/106/147
f 33/106/148 28/96/149 27/128/150
f 36/114/151 34/107/152 12/31/153
f 32/118/154 36/113/155 12/49/156
f 32/117/157 12/32/158 31/102/159
f 31/102/160 12/32/161 9/26/162
f 30/130/163 32/104/164 25/132/165
f 25/132/166 32/104/167 31/121/168
f 12/50/169 34/108/170 9/54/171
f 9/54/172 34/108/173 33/123/174
f 27/93/175 26/126/176 33/105/177
f 33/105/178 26/126/179 35/110/180
f 25/131/181 31/122/182 26/91/183
f 26/91/184 31/122/185 35/109/186
f 30/99/187 50/164/188 32/103/189
f 52/167/190 36/111/191 50/164/192
f 50/164/193 36/111/194 32/103/195
f 29/98/196 49/162/197 52/168/198
f 38/140/199 53/169/200 6/10/201
f 6/10/202 53/169/203 47/158/204
f 39/141/205 38/139/206 4/20/207
f 4/20/208 38/139/209 6/19/210
f 40/144/211 54/170/212 20/63/213
f 20/63/214 54/170/215 46/155/216
f 41/145/217 40/143/218 3/4/219
f 3/4/220 40/143/221 20/83/222
f 42/147/223 41/146/224 5/24/225
f 5/24/226 41/146/227 3/23/228
f 21/82/229 37/137/230 5/9/231
f 5/9/232 37/137/233 42/148/234
f 44/151/235 43/149/236 26/125/237
f 2/2/238 25/89/239 43/149/240
f 43/149/241 25/89/242 26/125/243
f 13/33/244 45/153/245 27/127/246
f 27/127/247 45/153/248 26/92/249
f 45/153/250 44/152/251 26/92/252
f 54/170/253 40/144/254 45/154/255
f 45/154/256 40/144/257 19/62/258
f 47/157/259 46/156/260 6/7/261
f 6/7/262 46/156/263 4/6/264
f 53/169/265 38/140/266 48/159/267
f 48/159/268 38/140/269 16/39/270
f 49/161/271 48/160/272 28/136/273
f 28/136/274 48/160/275 16/41/276
f 50/163/277 30/129/278 51/165/279
f 51/165/280 30/129/281 8/11/282
f 51/166/283 8/14/284 43/150/285
f 43/150/286 8/14/287 2/15/288
f 52/167/289 50/164/290 29/97/291
f 28/95/292 34/116/293 49/162/294
f 52/168/295 49/162/296 36/112/297
f 49/162/298 34/116/299 36/112/300
f 47/158/301 53/169/302 21/66/303
f 21/66/304 53/169/305 37/138/306
f 46/155/307 54/170/308 4/3/309
f 4/3/310 54/170/311 39/142/312
