# Blender v2.78 (sub 0) OBJ File: ''
# www.blender.org
mtllib SM_Prop_Cheese_03.mtl
o SM_Prop_Cheese_03
v -15.294601 3.587142 -3.439177
v -15.294605 17.279594 -3.439175
v -0.474495 3.587143 -13.288505
v -0.474495 17.279596 -13.288503
v -13.050198 0.000001 -2.066895
v -13.050198 21.057861 -2.066891
v 0.142216 21.057861 -10.731091
v 0.142216 0.000002 -10.731094
v -12.057632 9.783642 -1.107146
v -11.151890 10.979281 -0.231275
v -9.932541 12.588924 0.947878
v 3.709915 14.105530 14.140071
v 6.878464 21.057858 17.204029
v 1.221912 19.366240 11.734127
v -2.232288 18.362003 8.393939
v -3.540211 17.815952 7.129191
v -9.913013 12.604074 0.966745
v -9.902462 12.612273 0.976954
v -8.310398 11.180559 2.516466
v -7.745911 10.672924 3.062296
v -3.666729 10.789764 7.006867
v 6.878464 11.712334 17.204027
v 6.003914 11.567221 16.358339
v -11.645645 8.737305 -0.708715
v -10.734108 6.422609 0.172723
v 4.387024 10.798892 14.794847
v 3.240936 13.133914 13.686525
v 6.878464 -0.000003 17.204025
v -8.621082 6.967017 2.215982
v -7.936722 7.405739 2.877809
v 6.878464 1.782279 17.204025
v 3.329872 3.269859 13.772523
v 2.849503 3.557820 13.308015
v 2.817734 4.068355 13.277299
v 3.137344 10.205027 13.586405
v 1.097759 8.693889 11.614100
v -0.526573 9.286617 10.043421
v -3.098766 10.517902 7.556040
v -7.885612 8.281257 2.927239
v 0.681114 7.287759 -8.496177
v 0.896099 4.783155 -7.604659
v 5.758652 13.995954 12.560199
v 5.836929 10.502781 12.884997
v 5.349525 12.218777 10.863665
v 1.018860 3.885177 -7.095458
v 1.543243 4.164413 -4.920951
v 1.971413 4.392425 -3.145362
v 6.362610 2.837296 15.064820
v 5.586945 4.423675 11.848168
v 2.080677 8.212320 -2.692397
v 3.796581 10.913079 4.423693
v 3.970390 10.442694 5.144274
v 4.333916 9.458561 6.651902
v 5.614899 6.101595 11.963990
v 4.618713 9.916186 7.832888
v 5.785446 9.482069 12.671404
v 4.937363 10.428260 9.154398
v 1.952244 14.469521 -3.224928
v 1.207993 9.821562 -6.311346
v 1.273113 9.761535 -6.041250
v 1.394234 9.649885 -5.538824
v 3.519356 13.024901 3.273829
v 2.906075 16.441130 0.730647
v 3.506763 14.934568 3.221598
v 2.630722 13.956945 -0.411360
v 2.366943 14.110273 -1.505125
v 2.052895 14.292867 -2.807623
v 1.988468 14.405955 -3.074774
v 1.900822 16.209656 -3.438023
v 1.880745 16.889282 -3.521252
v 4.833275 18.259056 8.722659
v 3.717518 16.861301 4.095714
v 2.372494 18.382778 -1.482213
v 2.373489 18.384983 -1.477933
v 4.453445 18.945080 7.147632
v 4.557060 10.675056 12.876108
v 2.938354 3.546802 13.173295
v 4.067429 19.685619 8.102565
v 1.853973 16.181953 2.775714
v -1.425350 17.683222 4.211795
v 1.673073 11.845980 2.841822
v 1.790489 19.828522 11.243487
v -1.718060 10.667467 4.318795
v 4.892456 14.050318 13.755084
v 1.316811 8.476793 11.416567
v 3.593750 8.333891 8.275666
v 0.677132 3.944025 -7.151687
v -0.353138 7.369322 -7.980559
v 0.196041 4.698113 -3.437400
v -0.881592 5.344263 -6.887351
v -0.323826 9.086930 -6.360624
v 0.753815 8.440780 -2.910659
v -1.178947 5.810314 -4.591811
v -1.349228 7.256159 -6.121734
v -0.834229 8.123412 -4.266265
v -8.139683 11.627402 0.447573
v -8.580338 9.996370 -1.201918
v -7.193630 9.740821 0.370302
v -10.636024 9.984741 -1.685758
v -7.219925 10.534080 2.327425
v -7.932877 7.895011 -0.341506
v -9.588463 6.584673 -0.293548
v -7.092125 8.227337 1.839768
v 1.085411 16.983894 -3.455037
v 1.186737 18.179630 -0.558064
v 1.750587 14.334805 -3.188238
v -0.102543 16.778336 -2.534299
v 2.648697 16.396591 0.930125
v 0.562634 14.129251 -2.267485
v 0.273376 17.133204 0.051967
v -0.523468 16.267157 -1.169415
v 1.176868 16.031225 0.971728
v 2.262970 13.893318 -0.126341
v -0.112354 14.629930 -1.004507
v -0.016502 15.645605 0.118235
v 0.938496 14.484118 0.318781
vt 0.2697 0.7073
vt 0.2697 0.7073
vt 0.2697 0.7073
vt 0.2697 0.7073
vt 0.3255 0.6150
vt 0.3255 0.6150
vt 0.3255 0.6150
vt 0.3255 0.6150
vt 0.2697 0.7073
vt 0.2697 0.7073
vt 0.2697 0.7073
vt 0.2697 0.7073
vt 0.3255 0.6150
vt 0.3255 0.6150
vt 0.3255 0.6150
vt 0.3255 0.6150
vt 0.3255 0.6150
vt 0.3255 0.6150
vt 0.3255 0.6150
vt 0.3255 0.6150
vt 0.3255 0.6150
vt 0.3255 0.6150
vt 0.3255 0.6150
vt 0.3255 0.6150
vt 0.3255 0.6150
vt 0.3255 0.6150
vt 0.3255 0.6150
vt 0.3255 0.6150
vt 0.3255 0.6150
vt 0.3255 0.6150
vt 0.3255 0.6150
vt 0.3255 0.6150
vt 0.3255 0.6150
vt 0.3255 0.6150
vt 0.3255 0.6150
vt 0.3255 0.6150
vt 0.3255 0.6150
vt 0.3255 0.6150
vt 0.3255 0.6150
vt 0.3255 0.6150
vt 0.3255 0.6150
vt 0.3255 0.6150
vt 0.3255 0.6150
vt 0.3255 0.6150
vt 0.3255 0.6150
vt 0.3255 0.6150
vt 0.3255 0.6150
vt 0.2697 0.7073
vt 0.2697 0.7073
vt 0.3255 0.6150
vt 0.3255 0.6150
vt 0.3255 0.6150
vt 0.3255 0.6150
vt 0.3255 0.6150
vt 0.3255 0.6150
vt 0.3255 0.6150
vt 0.3255 0.6150
vt 0.3255 0.6150
vt 0.3255 0.6150
vt 0.3255 0.6150
vt 0.3255 0.6150
vt 0.3255 0.6150
vt 0.3255 0.6150
vt 0.3255 0.6150
vt 0.3255 0.6150
vt 0.3255 0.6150
vt 0.3255 0.6150
vt 0.3255 0.6150
vt 0.3255 0.6150
vt 0.3255 0.6150
vt 0.3255 0.6150
vt 0.3255 0.6150
vt 0.3255 0.6150
vt 0.3255 0.6150
vt 0.3255 0.6150
vt 0.3255 0.6150
vt 0.3255 0.6150
vt 0.3255 0.6150
vt 0.3255 0.6150
vt 0.3255 0.6150
vt 0.3255 0.6150
vt 0.3255 0.6150
vt 0.3255 0.6150
vt 0.3255 0.6150
vt 0.3255 0.6150
vt 0.3255 0.6107
vt 0.3255 0.6107
vt 0.3255 0.6107
vt 0.3255 0.6107
vt 0.3255 0.6107
vt 0.3255 0.6107
vt 0.3255 0.6107
vt 0.3255 0.6107
vt 0.3255 0.6107
vt 0.3255 0.6107
vt 0.3255 0.6107
vt 0.3255 0.6107
vt 0.3255 0.6107
vt 0.3255 0.6107
vt 0.3255 0.6107
vt 0.3255 0.6107
vt 0.3255 0.6107
vt 0.3255 0.6107
vt 0.3255 0.6107
vt 0.3255 0.6107
vt 0.3255 0.6107
vt 0.3255 0.6107
vt 0.3255 0.6107
vt 0.3255 0.6107
vt 0.3255 0.6107
vt 0.3255 0.6107
vt 0.3255 0.6107
vt 0.3255 0.6107
vt 0.3255 0.6107
vt 0.3255 0.6107
vt 0.3255 0.6107
vt 0.3255 0.6107
vt 0.3255 0.6107
vt 0.3255 0.6107
vt 0.3255 0.6107
vt 0.3255 0.6107
vt 0.3255 0.6107
vt 0.3255 0.6107
vt 0.3255 0.6107
vt 0.3255 0.6107
vt 0.3255 0.6107
vt 0.3255 0.6107
vt 0.3255 0.6107
vt 0.3255 0.6107
vt 0.3255 0.6107
vt 0.3255 0.6107
vt 0.3255 0.6107
vt 0.3255 0.6107
vt 0.3255 0.6107
vt 0.3255 0.6107
vt 0.3255 0.6107
vt 0.3255 0.6107
vt 0.3255 0.6107
vt 0.3255 0.6107
vt 0.3255 0.6107
vt 0.3255 0.6107
vt 0.3255 0.6107
vt 0.3255 0.6107
vt 0.3255 0.6107
vt 0.3255 0.6107
vt 0.3255 0.6107
vt 0.3255 0.6107
vt 0.3255 0.6107
vt 0.3255 0.6107
vt 0.3255 0.6107
vt 0.3255 0.6107
vt 0.3255 0.6107
vt 0.3255 0.6107
vt 0.3255 0.6107
vt 0.3255 0.6107
vt 0.3255 0.6107
vt 0.3255 0.6107
vt 0.3255 0.6107
vt 0.3255 0.6107
vt 0.3255 0.6107
vt 0.3255 0.6107
vt 0.3255 0.6107
vt 0.3255 0.6107
vt 0.3255 0.6107
vt 0.3255 0.6107
vt 0.3255 0.6107
vt 0.3255 0.6107
vt 0.3255 0.6107
vt 0.3255 0.6107
vt 0.3255 0.6107
vt 0.3255 0.6107
vt 0.3255 0.6107
vt 0.3255 0.6107
vt 0.3255 0.6107
vt 0.3255 0.6107
vt 0.3255 0.6107
vt 0.3255 0.6107
vt 0.3255 0.6107
vt 0.3255 0.6107
vt 0.3255 0.6107
vt 0.3255 0.6107
vt 0.3255 0.6107
vt 0.3255 0.6107
vt 0.3255 0.6107
vt 0.3255 0.6107
vt 0.3255 0.6107
vt 0.3255 0.6107
vt 0.3255 0.6107
vt 0.3255 0.6107
vt 0.3255 0.6107
vt 0.3255 0.6107
vn -0.5535 0.0000 -0.8328
vn -0.5216 -0.0000 0.8532
vn -0.4680 0.5338 -0.7043
vn -0.4591 0.5481 -0.6991
vn -0.4609 -0.5537 -0.6935
vn -0.4518 -0.5681 -0.6879
vn -0.6951 0.0000 0.7189
vn -0.6952 -0.0000 0.7189
vn -0.6891 -0.0137 0.7245
vn -0.2940 -0.3416 0.8927
vn -0.6991 0.0080 0.7150
vn -0.2980 -0.3411 0.8915
vn -0.6951 0.0001 0.7189
vn 0.9724 0.0034 -0.2335
vn 0.9721 0.0000 -0.2344
vn 0.0000 1.0000 0.0000
vn -0.0000 -1.0000 -0.0000
vn 0.9721 -0.0003 -0.2346
vn 0.9721 0.0000 -0.2345
vn 0.9722 0.0018 -0.2341
vn 0.9725 0.0063 -0.2328
vn -0.1294 -0.9463 0.2962
vn -0.0341 -0.2031 0.9786
vn 0.3539 -0.9308 0.0914
vn 0.4645 -0.0687 0.8829
vn 0.4645 -0.0686 0.8829
vn -0.0669 0.8884 0.4542
vn -0.0668 0.8884 0.4542
vn 0.8350 0.0847 0.5437
vn -0.0669 0.8884 0.4543
vn 0.3769 0.9097 0.1742
vn -0.1159 -0.8070 0.5790
vn -0.1159 -0.8071 0.5790
vn -0.4659 -0.3228 0.8239
vn -0.8825 -0.4703 0.0080
vn -0.2428 0.0249 0.9698
vn 0.2103 -0.9578 0.1960
vn 0.4001 -0.0027 0.9165
vn -0.6789 -0.5671 -0.4663
vn -0.6789 -0.5672 -0.4663
vn -0.4363 0.3854 0.8131
vn -0.4260 0.3349 -0.8405
vn -0.5686 0.5570 -0.6053
vn -0.3926 0.7476 -0.5356
vn -0.6299 0.6073 -0.4842
vn -0.0476 0.8311 0.5540
vn -0.0476 0.8312 0.5540
vn -0.2880 -0.5076 -0.8120
vn -0.2881 -0.5076 -0.8120
vn 0.4785 -0.8443 -0.2410
vn 0.8089 -0.0248 0.5875
vn 0.2896 0.9425 0.1671
vn -0.2458 0.5049 -0.8274
vn 0.5469 0.7938 -0.2660
vn -0.8402 0.5422 -0.0075
vn -0.0597 0.4862 0.8718
vn 0.1944 0.9659 -0.1709
vn 0.1945 0.9659 -0.1709
vn 0.4415 0.3343 0.8327
vn 0.2935 -0.6585 0.6929
vn 0.1799 0.1108 -0.9774
vn 0.6606 0.7478 -0.0663
vn 0.8805 0.0258 0.4734
vn 0.8165 -0.4034 0.4130
vn 0.4212 -0.8586 -0.2924
vn 0.4212 -0.8586 -0.2923
vn -0.0833 -0.8975 -0.4332
vn 0.6480 0.0106 -0.7616
vn 0.9752 0.2046 0.0848
vn 0.8717 -0.4899 -0.0130
vn 0.9697 -0.1141 -0.2158
vn -0.1645 -0.6790 0.7154
vn -0.1645 -0.6791 0.7154
vn -0.5254 -0.8217 -0.2208
vn -0.7222 -0.3857 0.5743
vn -0.7459 0.0424 0.6647
vn -0.8782 -0.4473 0.1695
vn -0.2194 0.3110 0.9247
vn 0.3490 -0.7113 0.6101
vn -0.8033 0.0802 -0.5901
vn -0.9165 0.2453 0.3159
vn -0.9983 -0.0574 0.0098
vn -0.6142 0.7803 0.1178
vn -0.6142 0.7803 0.1179
vn 0.2853 0.4371 0.8529
vn 0.2853 0.4372 0.8529
vn -0.1726 0.9815 -0.0830
vn -0.0455 -0.8006 0.5974
vn 0.0969 0.1238 0.9876
vn 0.4102 -0.8459 0.3408
vn 0.4091 -0.8473 0.3387
vn 0.4105 -0.8461 0.3400
vn 0.4075 -0.8491 0.3362
vn 0.0970 0.1238 0.9876
vn -0.3209 -0.7480 -0.5810
vn -0.4429 0.7823 0.4380
vn 0.5727 0.2232 0.7888
vn 0.5727 0.2233 0.7888
vn 0.7481 -0.6633 -0.0177
vn 0.1202 -0.5762 -0.8084
vn -0.6058 0.3868 -0.6953
vn 0.8906 0.2611 0.3724
vn 0.8785 -0.1907 -0.4379
vn -0.1254 0.4021 -0.9070
vn -0.1255 0.4021 -0.9070
vn 0.6071 -0.1530 -0.7797
vn -0.0535 0.9870 0.1513
vn 0.3507 0.9196 -0.1771
vn 0.9401 0.2089 -0.2693
vn 0.5009 0.2699 -0.8223
vn 0.7067 0.4936 -0.5068
usemtl None
s 1
f 1/1/1 2/2/1 3/3/1
f 3/3/1 2/2/1 4/4/1
f 1/5/2 5/6/2 2/7/2
f 2/7/2 5/6/2 6/8/2
f 2/2/3 6/9/3 4/4/3
f 4/4/4 6/9/4 7/10/4
f 1/1/5 3/3/5 5/11/5
f 5/11/6 3/3/6 8/12/6
f 5/6/7 9/13/7 6/8/7
f 9/13/7 10/14/8 6/8/7
f 10/14/8 11/15/7 6/8/7
f 12/16/7 13/17/7 14/18/7
f 13/17/7 6/8/7 14/18/7
f 14/18/7 6/8/7 15/19/7
f 15/19/7 6/8/7 16/20/7
f 6/8/7 11/15/7 16/20/7
f 11/15/9 17/21/9 16/20/10
f 17/21/11 18/22/11 16/20/12
f 18/22/7 19/23/7 16/20/7
f 19/23/7 20/24/7 16/20/7
f 20/24/7 21/25/7 16/20/7
f 13/17/7 12/16/7 22/26/7
f 22/26/7 12/16/7 23/27/7
f 9/13/7 5/6/7 24/28/8
f 24/28/8 5/6/7 25/29/7
f 23/27/7 12/16/7 26/30/7
f 12/16/7 27/31/8 26/30/7
f 5/6/7 28/32/7 25/29/7
f 25/29/7 28/32/7 29/33/7
f 29/33/7 28/32/7 30/34/8
f 28/32/7 31/35/7 30/34/8
f 31/35/7 32/36/13 30/34/8
f 32/36/13 33/37/7 30/34/8
f 33/37/7 34/38/7 30/34/8
f 26/30/7 27/31/8 35/39/8
f 27/31/8 36/40/7 35/39/8
f 35/39/8 36/40/7 34/38/7
f 34/38/7 36/40/7 30/34/8
f 36/40/7 37/41/7 30/34/8
f 37/41/7 38/42/7 30/34/8
f 38/42/7 21/25/7 30/34/8
f 30/34/8 21/25/7 39/43/7
f 21/25/7 20/24/7 39/43/7
f 7/44/14 8/45/15 4/46/15
f 4/46/15 8/45/15 3/47/15
f 7/10/16 6/9/16 13/48/16
f 5/11/17 8/12/17 28/49/17
f 7/44/14 40/50/15 8/45/15
f 40/50/15 41/51/15 8/45/15
f 42/52/15 43/53/15 44/54/15
f 41/51/15 45/55/15 8/45/15
f 8/45/15 45/55/15 28/32/15
f 45/55/15 46/56/15 28/32/15
f 46/56/15 47/57/15 28/32/15
f 28/32/15 47/57/15 31/35/15
f 31/35/15 47/57/15 48/58/15
f 48/58/15 47/57/15 49/59/15
f 47/57/15 50/60/15 49/59/15
f 50/60/15 51/61/15 49/59/15
f 51/61/15 52/62/18 49/59/15
f 52/62/18 53/63/15 49/59/15
f 49/59/15 53/63/15 54/64/15
f 53/63/15 55/65/15 54/64/15
f 54/64/15 55/65/15 56/66/15
f 55/65/15 57/67/15 56/66/15
f 56/66/15 57/67/15 43/53/15
f 57/67/15 44/54/15 43/53/15
f 40/50/15 58/68/15 59/69/19
f 59/69/19 58/68/15 60/70/15
f 60/70/15 58/68/15 61/71/15
f 51/61/15 50/60/15 62/72/15
f 63/73/15 64/74/15 65/75/15
f 64/74/15 62/72/15 65/75/15
f 62/72/15 50/60/15 65/75/15
f 65/75/15 50/60/15 66/76/15
f 50/60/15 61/71/15 66/76/15
f 66/76/15 61/71/15 67/77/15
f 67/77/15 61/71/15 68/78/19
f 58/68/15 68/78/19 61/71/15
f 40/50/15 7/44/14 58/68/15
f 58/68/15 7/44/14 69/79/15
f 69/79/15 7/44/14 70/80/15
f 43/53/15 42/52/15 22/26/15
f 22/26/15 42/52/15 13/17/15
f 42/52/15 71/81/15 13/17/15
f 64/74/15 63/73/15 72/82/15
f 70/80/15 7/44/14 73/83/20
f 63/73/15 74/84/21 72/82/15
f 72/82/15 74/84/21 75/85/15
f 73/83/20 7/44/14 74/84/21
f 71/81/15 75/85/15 13/17/15
f 13/17/15 75/85/15 7/44/14
f 75/85/15 74/84/21 7/44/14
f 22/86/22 23/87/22 43/88/22
f 43/88/22 23/87/22 76/89/22
f 56/90/23 43/88/23 76/89/23
f 23/87/24 26/91/24 76/89/24
f 54/92/23 56/90/23 76/89/23
f 26/91/24 35/93/24 76/89/24
f 76/89/25 35/93/25 54/92/25
f 35/93/25 34/94/25 54/92/25
f 77/95/26 49/96/25 34/94/25
f 34/94/25 49/96/25 54/92/25
f 48/97/27 49/96/28 77/95/27
f 34/94/29 33/98/29 77/95/29
f 77/95/27 32/99/30 48/97/27
f 48/97/27 32/99/30 31/100/27
f 33/98/31 32/99/31 77/95/31
f 75/101/32 78/102/33 72/103/33
f 72/103/33 78/102/33 79/104/33
f 64/105/34 72/103/34 79/104/34
f 78/102/33 80/106/33 79/104/33
f 75/101/35 71/107/35 78/102/35
f 64/105/36 79/104/36 62/108/36
f 62/108/36 79/104/36 81/109/36
f 78/102/37 82/110/37 80/106/37
f 81/109/38 79/104/38 83/111/38
f 83/111/38 79/104/38 80/106/38
f 42/112/39 84/113/39 71/107/40
f 71/107/40 84/113/39 78/102/40
f 51/114/41 62/108/41 81/109/41
f 84/113/39 82/110/39 78/102/40
f 16/115/37 80/106/37 15/116/37
f 15/116/37 80/106/37 82/110/37
f 85/117/42 36/118/42 44/119/42
f 36/118/43 27/120/43 44/119/43
f 27/120/44 84/113/44 44/119/44
f 84/113/45 42/112/45 44/119/45
f 52/121/46 51/114/46 83/111/46
f 51/114/46 81/109/47 83/111/46
f 14/122/48 82/110/48 12/123/49
f 12/123/49 82/110/48 84/113/49
f 14/122/50 15/116/50 82/110/50
f 16/115/51 21/124/51 80/106/51
f 80/106/51 21/124/51 83/111/51
f 44/119/45 57/125/45 85/117/45
f 85/117/45 57/125/45 86/126/45
f 21/124/52 38/127/52 83/111/52
f 38/127/52 86/126/52 83/111/52
f 86/126/47 53/128/47 83/111/46
f 53/128/47 52/121/46 83/111/46
f 27/120/53 12/123/53 84/113/53
f 37/129/54 36/118/54 85/117/54
f 38/127/52 37/129/52 86/126/52
f 86/126/52 37/129/52 85/117/52
f 57/125/55 55/130/55 86/126/55
f 55/130/55 53/128/55 86/126/55
f 45/131/56 41/132/56 87/133/56
f 46/134/57 45/131/58 87/133/58
f 40/135/59 88/136/59 41/132/59
f 41/132/59 88/136/59 87/133/59
f 47/137/57 46/134/57 89/138/57
f 89/138/57 46/134/57 87/133/58
f 88/136/59 90/139/59 87/133/59
f 59/140/60 91/141/60 40/135/60
f 40/135/60 91/141/60 88/136/60
f 47/137/61 89/138/61 50/142/61
f 50/142/61 89/138/61 92/143/61
f 89/138/62 87/133/62 93/144/62
f 93/144/62 87/133/62 90/139/62
f 88/136/63 94/145/63 90/139/63
f 91/141/64 94/145/64 88/136/64
f 59/140/65 60/146/66 91/141/65
f 60/146/66 95/147/65 91/141/65
f 61/148/67 50/142/67 92/143/67
f 92/143/68 89/138/68 95/147/68
f 95/147/68 89/138/68 93/144/68
f 90/139/69 94/145/69 93/144/69
f 95/147/70 94/145/70 91/141/70
f 60/146/66 61/148/66 95/147/65
f 95/147/65 61/148/66 92/143/65
f 93/144/71 94/145/71 95/147/71
f 18/149/72 17/150/72 96/151/73
f 17/150/72 97/152/73 96/151/73
f 19/153/74 18/149/74 96/151/74
f 97/152/75 98/154/75 96/151/75
f 17/150/72 11/155/72 97/152/73
f 11/155/72 99/156/73 97/152/73
f 20/157/74 19/153/74 100/158/74
f 100/158/74 19/153/74 96/151/74
f 101/159/76 98/154/76 97/152/76
f 96/151/77 98/154/77 100/158/77
f 101/159/78 97/152/78 102/160/78
f 102/160/78 97/152/78 99/156/78
f 11/155/79 10/161/79 99/156/79
f 39/162/80 20/157/80 100/158/80
f 103/163/81 98/154/81 101/159/81
f 100/158/82 98/154/82 103/163/82
f 10/161/79 9/164/79 99/156/79
f 30/165/80 39/162/80 103/163/80
f 103/163/80 39/162/80 100/158/80
f 101/159/83 102/160/84 103/163/84
f 9/164/85 24/166/85 99/156/85
f 99/156/85 24/166/85 102/160/86
f 30/165/84 103/163/84 29/167/84
f 29/167/84 103/163/84 102/160/84
f 24/166/85 25/168/86 102/160/86
f 25/168/87 29/167/87 102/160/87
f 70/169/88 73/170/88 104/171/88
f 69/172/89 70/169/89 104/171/89
f 74/173/90 105/174/91 73/170/92
f 73/170/92 105/174/91 104/171/93
f 58/175/94 69/172/89 106/176/94
f 106/176/94 69/172/89 104/171/89
f 105/174/91 107/177/93 104/171/93
f 74/173/95 63/178/95 105/174/95
f 105/174/95 63/178/95 108/179/95
f 68/180/96 58/175/96 106/176/96
f 106/176/97 104/171/98 109/181/97
f 109/181/97 104/171/98 107/177/98
f 105/174/99 110/182/99 107/177/99
f 107/177/99 110/182/99 111/183/99
f 108/179/100 112/184/100 105/174/100
f 105/174/100 112/184/100 110/182/100
f 65/185/101 113/186/101 63/178/101
f 63/178/101 113/186/101 108/179/101
f 67/187/96 68/180/96 106/176/96
f 107/177/102 111/183/102 109/181/102
f 109/181/102 111/183/102 114/188/102
f 110/182/103 115/189/103 111/183/103
f 116/190/104 112/184/104 113/186/104
f 113/186/104 112/184/104 108/179/105
f 112/184/106 115/189/106 110/182/106
f 65/185/107 66/191/107 113/186/107
f 113/186/107 66/191/107 109/181/107
f 66/191/107 67/187/107 109/181/107
f 109/181/107 67/187/107 106/176/107
f 113/186/108 109/181/108 116/190/108
f 116/190/108 109/181/108 114/188/108
f 111/183/109 115/189/109 114/188/109
f 116/190/110 115/189/110 112/184/110
f 114/188/111 115/189/111 116/190/111
