# Blender v2.78 (sub 0) OBJ File: ''
# www.blender.org
mtllib SM_Prop_Meat_01.mtl
o SM_Prop_Meat_01
v -14.492844 2.840650 -15.561313
v -14.657976 1.877885 -11.851929
v -14.505915 4.933970 -15.018598
v -14.670883 3.971192 -11.309307
v 15.807171 4.782657 -13.709365
v 15.642076 3.819607 -9.999008
v 15.820240 2.688762 -14.252173
v 15.655048 1.725739 -10.541780
v -14.909721 1.166056 -6.107508
v -15.068789 1.126001 -2.431666
v -14.900339 3.240342 -6.084538
v -15.059364 3.200275 -2.408699
v 15.415979 3.129810 -4.846045
v 15.250792 3.088180 -1.026927
v 15.406229 0.974673 -4.869902
v 15.240940 0.933056 -1.050749
v -15.270832 0.969656 2.227248
v -15.446085 0.925522 6.277257
v -15.260471 3.255054 2.252599
v -15.435726 3.210919 6.302639
v 15.045162 3.011017 3.721773
v 14.883825 2.970380 7.450891
v 15.035660 0.906718 3.698405
v 14.874323 0.866081 7.427583
v -15.658436 1.606162 11.271922
v -15.828236 2.758657 15.335065
v -15.618925 3.898854 10.623250
v -15.788773 5.051352 14.686372
v 14.685921 3.702605 12.116928
v 14.529316 4.765124 15.862790
v 14.649521 1.588912 12.714912
v 14.492905 2.651426 16.460855
v -13.395439 6.305790 15.431376
v -13.464445 2.306138 16.563108
v -12.020898 5.883801 17.319366
v -12.060015 3.610360 17.962624
v 12.088229 6.178225 16.532578
v 10.551767 5.770805 18.294647
v 12.019329 2.178574 17.664219
v 10.512650 3.497363 18.937813
v 12.107974 3.686443 -17.962626
v -10.464751 3.799439 -18.937904
v 12.093730 5.973775 -17.369583
v -10.478933 6.086770 -18.344864
v 12.315609 4.635065 11.092022
v -13.168167 4.762629 9.990972
v -13.237114 0.762983 11.122533
v 12.246658 0.635419 12.223641
v 12.440720 4.156932 8.140670
v -13.043056 4.284497 7.039559
v 11.374063 3.301702 9.428948
v -12.100026 3.419199 8.414671
v -13.061810 0.127563 6.993405
v -12.140997 1.046876 9.085692
v 12.421967 -0.000001 8.094515
v 11.333257 0.929363 10.099906
v 12.663532 4.213040 2.992024
v -12.820406 4.340620 1.890949
v -12.839159 0.183685 1.844794
v 12.644615 0.056122 2.945904
v 12.810162 4.250002 -0.398636
v -12.673611 4.377566 -1.499746
v 11.728315 3.390924 1.241308
v -11.745877 3.508438 0.227096
v -12.692425 0.220632 -1.545931
v -11.757095 1.042822 0.199812
v 12.791245 0.093084 -0.444726
v 11.717097 0.925309 1.213995
v 13.041561 4.308283 -5.746353
v -12.442379 4.435844 -6.847366
v -12.461132 0.278927 -6.893552
v 13.022644 0.151364 -5.792442
v 13.176338 4.691040 -8.821712
v -12.307438 4.818584 -9.922882
v 12.109693 3.486984 -7.573093
v -11.364562 3.604479 -8.587307
v -12.282520 0.794500 -10.966333
v -11.349804 1.217659 -9.206071
v 13.201254 0.666936 -9.865224
v 12.124389 1.100145 -8.191888
v 13.440653 6.232555 -14.760902
v -12.043228 6.360118 -15.861948
v -12.018206 2.336015 -16.905436
v 13.465572 2.208470 -15.804324
v -11.105767 4.116010 -10.653689
v -10.925432 5.340693 -15.372075
v -11.091589 1.453262 -11.343955
v -10.911222 2.677928 -16.062405
v -11.280408 3.576233 -6.603899
v -11.291082 0.825580 -6.634407
v -11.461471 3.523102 -1.729513
v -11.472289 0.772464 -1.759987
v -11.522441 3.482917 1.922800
v -11.533189 0.732264 1.892291
v -11.703614 3.429797 6.797363
v -11.714282 0.679144 6.766855
v -12.076031 3.979015 10.327259
v -12.115148 1.332423 11.076122
v -12.244419 5.309412 15.017549
v -12.283541 2.662816 15.766431
v 11.085526 2.526602 16.942150
v 11.124661 5.173200 16.193237
v 11.293038 3.842801 11.502979
v 11.253934 1.196209 12.251779
v 11.102642 0.546148 7.914803
v 11.113305 3.296801 7.945312
v 11.294417 3.349921 3.070808
v 11.283736 0.599267 3.040299
v 11.589621 0.638040 -0.599691
v 11.600438 3.388677 -0.569247
v 11.781440 3.441809 -5.443695
v 11.770763 0.691157 -5.474203
v 11.785891 3.982577 -9.501964
v 11.800010 1.319831 -10.192289
v 11.966166 5.207276 -14.220347
v 11.980436 2.544496 -14.910707
vt 0.0901 0.3630
vt 0.0901 0.3630
vt 0.0901 0.3630
vt 0.0901 0.3630
vt 0.0901 0.3630
vt 0.0901 0.3630
vt 0.0901 0.3630
vt 0.0901 0.3630
vt 0.0901 0.3630
vt 0.0901 0.3630
vt 0.0901 0.3630
vt 0.0901 0.3630
vt 0.0901 0.3630
vt 0.0901 0.3630
vt 0.0901 0.3630
vt 0.0901 0.3630
vt 0.0901 0.3630
vt 0.0901 0.3630
vt 0.0901 0.3630
vt 0.0901 0.3630
vt 0.0901 0.3630
vt 0.0901 0.3630
vt 0.0901 0.3630
vt 0.0901 0.3630
vt 0.0901 0.3630
vt 0.0901 0.3630
vt 0.0901 0.3630
vt 0.0901 0.3630
vt 0.0901 0.3630
vt 0.0901 0.3630
vt 0.0901 0.3630
vt 0.0901 0.3630
vt 0.2071 0.6215
vt 0.2071 0.6215
vt 0.2071 0.6215
vt 0.2071 0.6215
vt 0.2071 0.6215
vt 0.2071 0.6215
vt 0.2071 0.6215
vt 0.2071 0.6215
vt 0.2071 0.6215
vt 0.2071 0.6215
vt 0.2071 0.6215
vt 0.2071 0.6215
vt 0.2071 0.6215
vt 0.2071 0.6215
vt 0.2071 0.6215
vt 0.2071 0.6215
vt 0.2071 0.6215
vt 0.2071 0.6215
vt 0.2071 0.6215
vt 0.2071 0.6215
vt 0.2071 0.6215
vt 0.2071 0.6215
vt 0.2071 0.6215
vt 0.2071 0.6215
vt 0.2071 0.6215
vt 0.2071 0.6215
vt 0.2071 0.6215
vt 0.2071 0.6215
vt 0.2071 0.6215
vt 0.2071 0.6215
vt 0.2071 0.6215
vt 0.2071 0.6215
vt 0.2071 0.6215
vt 0.2071 0.6215
vt 0.2071 0.6215
vt 0.2071 0.6215
vt 0.2071 0.6215
vt 0.2071 0.6215
vt 0.2071 0.6215
vt 0.2071 0.6215
vt 0.2071 0.6215
vt 0.2071 0.6215
vt 0.2071 0.6215
vt 0.2071 0.6215
vt 0.2071 0.6215
vt 0.2071 0.6215
vt 0.2071 0.6215
vt 0.2071 0.6215
vt 0.2071 0.6215
vt 0.2071 0.6215
vt 0.2071 0.6215
vt 0.2071 0.6215
vt 0.0901 0.3630
vt 0.0901 0.3630
vt 0.0901 0.3630
vt 0.0901 0.3630
vt 0.0901 0.3630
vt 0.0901 0.3630
vt 0.0901 0.3630
vt 0.0901 0.3630
vt 0.0901 0.3630
vt 0.0901 0.3630
vt 0.0901 0.3630
vt 0.0901 0.3630
vt 0.0901 0.3630
vt 0.0901 0.3630
vt 0.0901 0.3630
vt 0.0901 0.3630
vt 0.0901 0.3630
vt 0.0901 0.3630
vt 0.0901 0.3630
vt 0.0901 0.3630
vt 0.0901 0.3630
vt 0.0901 0.3630
vt 0.0901 0.3630
vt 0.0901 0.3630
vt 0.0901 0.3630
vt 0.0901 0.3630
vt 0.0901 0.3630
vt 0.0901 0.3630
vt 0.0901 0.3630
vt 0.0901 0.3630
vt 0.0901 0.3630
vt 0.0901 0.3630
vn -0.9991 0.0050 -0.0432
vn -0.9991 0.0050 -0.0431
vn 0.9991 -0.0050 0.0432
vn -0.7745 0.1846 0.6051
vn -0.7744 0.1846 0.6051
vn -0.7744 0.1845 0.6052
vn -0.0047 0.9752 0.2214
vn 0.7211 0.1771 0.6698
vn 0.7212 0.1771 0.6698
vn -0.0338 -0.7140 0.6993
vn -0.0402 0.2727 0.9613
vn -0.0402 0.2726 0.9613
vn 0.0430 0.2510 -0.9670
vn 0.0166 0.9621 -0.2722
vn -0.0166 -0.9621 0.2722
vn -0.0192 0.8402 0.5419
vn -0.8254 -0.0025 0.5645
vn -0.9269 0.1169 0.3566
vn -0.0223 -0.9116 0.4104
vn 0.7736 -0.0105 0.6336
vn 0.8938 0.1077 0.4353
vn 0.0045 0.9999 0.0111
vn -0.0045 -0.9999 -0.0111
vn 0.9991 -0.0050 0.0431
vn -0.0153 0.8898 0.4561
vn -0.0152 0.8898 0.4560
vn -0.8812 -0.0013 0.4728
vn -0.8812 -0.0012 0.4727
vn -0.0234 -0.8996 0.4362
vn -0.0233 -0.8995 0.4362
vn 0.8371 -0.0099 0.5470
vn -0.0258 0.7305 0.6824
vn -0.0258 0.7306 0.6824
vn -0.8624 -0.1321 0.4887
vn -0.8624 -0.1320 0.4887
vn -0.0153 -0.9703 0.2414
vn 0.8156 -0.1405 0.5613
vn -0.0060 0.9680 0.2510
vn 0.0060 -0.9680 -0.2510
vn 0.0095 0.9946 -0.1035
vn -0.8316 0.1345 -0.5388
vn 0.0207 -0.8188 -0.5737
vn 0.8763 0.1260 -0.4650
vn 0.8763 0.1260 -0.4649
vn -0.9119 0.0977 -0.3986
vn -0.8480 0.0097 -0.5299
vn 0.0227 0.9074 -0.4196
vn 0.0227 0.9074 -0.4195
vn 0.9438 0.0884 -0.3184
vn 0.8906 0.0010 -0.4548
vn 0.0114 -0.9284 -0.3714
vn -0.8378 0.0099 -0.5460
vn -0.8378 0.0098 -0.5459
vn 0.0233 0.9001 -0.4351
vn 0.8818 0.0012 -0.4716
vn 0.0152 -0.8904 -0.4550
vn -0.8668 -0.1218 -0.4836
vn -0.8668 -0.1218 -0.4835
vn 0.0313 0.7711 -0.6360
vn 0.0313 0.7711 -0.6359
vn 0.9041 -0.1306 -0.4069
vn 0.9040 -0.1307 -0.4070
vn 0.9041 -0.1307 -0.4070
vn 0.0010 -0.9905 -0.1375
vn -0.0846 0.9654 0.2468
vn -0.0849 0.9653 0.2470
vn -0.0850 0.9653 0.2471
vn -0.0852 0.9652 0.2473
vn -0.1655 -0.2483 0.9544
vn -0.1654 -0.2484 0.9544
vn -0.0792 -0.9641 -0.2533
vn -0.0786 -0.9641 -0.2537
vn -0.1231 0.2484 -0.9608
vn -0.1231 0.2483 -0.9608
vn -0.1431 0.0115 -0.9896
vn -0.1430 0.0116 -0.9897
vn -0.0907 0.9959 0.0069
vn -0.0910 0.9958 0.0072
vn -0.0911 0.9958 0.0072
vn -0.0913 0.9958 0.0075
vn -0.1845 -0.0100 0.9828
vn -0.1846 -0.0101 0.9828
vn -0.1846 -0.0102 0.9828
vn -0.0957 -0.9953 -0.0144
vn -0.0951 -0.9954 -0.0150
vn -0.0886 0.0114 -0.9960
vn -0.0885 0.0115 -0.9960
vn -0.0596 0.9982 0.0083
vn -0.0599 0.9982 0.0085
vn -0.0601 0.9982 0.0086
vn -0.1308 -0.0104 0.9914
vn -0.1308 -0.0105 0.9914
vn -0.0646 -0.9978 -0.0133
vn -0.0641 -0.9979 -0.0136
vn -0.0741 -0.2705 -0.9599
vn -0.0739 -0.2703 -0.9599
vn -0.0443 0.9606 -0.2743
vn -0.0445 0.9606 -0.2742
vn -0.0446 0.9607 -0.2741
vn -0.1090 0.2724 0.9560
vn -0.1091 0.2722 0.9560
vn -0.1090 0.2723 0.9560
vn -0.1091 0.2721 0.9560
vn -0.0593 -0.9609 0.2704
vn -0.0589 -0.9610 0.2701
vn 0.1251 0.2684 0.9551
vn 0.1250 0.2683 0.9552
vn 0.1249 0.2681 0.9553
vn 0.0889 0.9591 -0.2689
vn 0.0886 0.9591 -0.2687
vn 0.0885 0.9592 -0.2686
vn 0.0882 0.9593 -0.2684
vn 0.1608 -0.2709 -0.9491
vn 0.1605 -0.2713 -0.9490
vn 0.0734 -0.9586 0.2750
vn 0.0739 -0.9587 0.2746
vn 0.1291 -0.0115 0.9916
vn 0.1290 -0.0115 0.9916
vn 0.1290 -0.0116 0.9916
vn 0.0881 0.9960 0.0141
vn 0.0878 0.9960 0.0143
vn 0.0878 0.9960 0.0144
vn 0.0875 0.9961 0.0146
vn 0.1719 0.0103 -0.9851
vn 0.1719 0.0102 -0.9851
vn 0.0829 -0.9965 -0.0073
vn 0.0835 -0.9965 -0.0078
vn 0.1235 -0.0115 0.9923
vn 0.0838 0.9964 0.0140
vn 0.0835 0.9964 0.0142
vn 0.0832 0.9964 0.0145
vn 0.1632 0.0103 -0.9865
vn 0.1631 0.0102 -0.9866
vn 0.0790 -0.9968 -0.0074
vn 0.0796 -0.9968 -0.0079
vn 0.1135 -0.2488 0.9619
vn 0.1134 -0.2486 0.9619
vn 0.0734 0.9646 0.2532
vn 0.0732 0.9646 0.2534
vn 0.0731 0.9646 0.2534
vn 0.0729 0.9646 0.2536
vn 0.1546 0.2488 -0.9561
vn 0.1547 0.2488 -0.9561
vn 0.1547 0.2487 -0.9561
vn 0.0787 -0.9658 -0.2472
vn 0.0792 -0.9656 -0.2476
usemtl None
s 1
f 1/1/1 2/2/2 3/3/1
f 3/3/1 2/2/2 4/4/2
f 5/5/3 6/6/3 7/7/3
f 7/7/3 6/6/3 8/8/3
f 9/9/1 10/10/1 11/11/1
f 11/11/1 10/10/1 12/12/1
f 13/13/3 14/14/3 15/15/3
f 15/15/3 14/14/3 16/16/3
f 17/17/1 18/18/1 19/19/1
f 19/19/1 18/18/1 20/20/1
f 21/21/3 22/22/3 23/23/3
f 23/23/3 22/22/3 24/24/3
f 25/25/1 26/26/1 27/27/1
f 27/27/1 26/26/1 28/28/1
f 29/29/3 30/30/3 31/31/3
f 31/31/3 30/30/3 32/32/3
f 33/33/4 34/34/5 35/35/5
f 35/35/5 34/34/5 36/36/6
f 37/37/7 33/33/7 38/38/7
f 38/38/7 33/33/7 35/35/7
f 39/39/8 37/37/9 40/40/9
f 40/40/9 37/37/9 38/38/9
f 34/34/10 39/39/10 36/36/10
f 36/36/10 39/39/10 40/40/10
f 36/36/11 40/40/12 35/35/11
f 35/35/11 40/40/12 38/38/12
f 41/41/13 42/42/13 43/43/13
f 43/43/13 42/42/13 44/44/13
f 45/45/14 46/46/14 37/37/14
f 37/37/14 46/46/14 33/33/14
f 46/46/1 47/47/1 33/33/1
f 33/33/1 47/47/1 34/34/1
f 47/47/15 48/48/15 34/34/15
f 34/34/15 48/48/15 39/39/15
f 48/48/3 45/45/3 39/39/3
f 39/39/3 45/45/3 37/37/3
f 49/49/16 50/50/16 51/51/16
f 51/51/16 50/50/16 52/52/16
f 50/50/17 53/53/17 52/52/17
f 52/52/18 53/53/18 54/54/18
f 53/53/19 55/55/19 54/54/19
f 54/54/19 55/55/19 56/56/19
f 49/49/20 51/51/20 55/55/20
f 55/55/21 51/51/21 56/56/21
f 57/57/22 58/58/22 49/49/22
f 49/49/22 58/58/22 50/50/22
f 58/58/2 59/59/2 50/50/2
f 50/50/2 59/59/2 53/53/2
f 59/59/23 60/60/23 53/53/23
f 53/53/23 60/60/23 55/55/23
f 60/60/24 57/57/3 55/55/3
f 55/55/3 57/57/3 49/49/3
f 61/61/25 62/62/26 63/63/25
f 63/63/25 62/62/26 64/64/26
f 62/62/27 65/65/28 64/64/27
f 64/64/27 65/65/28 66/66/28
f 65/65/29 67/67/30 66/66/29
f 66/66/29 67/67/30 68/68/30
f 67/67/31 61/61/31 68/68/31
f 68/68/31 61/61/31 63/63/31
f 69/69/22 70/70/22 61/61/22
f 61/61/22 70/70/22 62/62/22
f 70/70/2 71/71/2 62/62/1
f 62/62/1 71/71/2 65/65/1
f 71/71/23 72/72/23 65/65/23
f 65/65/23 72/72/23 67/67/23
f 72/72/3 69/69/3 67/67/3
f 67/67/3 69/69/3 61/61/3
f 73/73/32 74/74/33 75/75/32
f 75/75/32 74/74/33 76/76/33
f 74/74/34 77/77/35 76/76/34
f 76/76/34 77/77/35 78/78/35
f 77/77/36 79/79/36 78/78/36
f 78/78/36 79/79/36 80/80/36
f 79/79/37 73/73/37 80/80/37
f 80/80/37 73/73/37 75/75/37
f 81/81/38 82/82/38 73/73/38
f 73/73/38 82/82/38 74/74/38
f 82/82/1 83/83/1 74/74/1
f 74/74/1 83/83/1 77/77/1
f 83/83/39 84/84/39 77/77/39
f 77/77/39 84/84/39 79/79/39
f 84/84/3 81/81/3 79/79/3
f 79/79/3 81/81/3 73/73/3
f 44/44/40 82/82/40 43/43/40
f 43/43/40 82/82/40 81/81/40
f 42/42/41 83/83/41 44/44/41
f 44/44/41 83/83/41 82/82/41
f 41/41/42 84/84/42 42/42/42
f 42/42/42 84/84/42 83/83/42
f 43/43/43 81/81/43 41/41/43
f 41/41/43 81/81/43 84/84/44
f 78/78/45 71/71/45 76/76/45
f 76/76/46 71/71/46 70/70/46
f 75/75/47 76/76/48 69/69/47
f 69/69/47 76/76/48 70/70/48
f 80/80/49 75/75/49 72/72/49
f 72/72/50 75/75/50 69/69/50
f 78/78/51 80/80/51 71/71/51
f 71/71/51 80/80/51 72/72/51
f 64/64/52 66/66/53 58/58/53
f 58/58/53 66/66/53 59/59/53
f 63/63/54 64/64/54 57/57/54
f 57/57/54 64/64/54 58/58/54
f 68/68/55 63/63/55 60/60/55
f 60/60/55 63/63/55 57/57/55
f 66/66/56 68/68/56 59/59/56
f 59/59/56 68/68/56 60/60/56
f 52/52/57 54/54/58 46/46/58
f 46/46/58 54/54/58 47/47/58
f 51/51/59 52/52/60 45/45/59
f 45/45/59 52/52/60 46/46/60
f 56/56/61 51/51/62 48/48/63
f 48/48/63 51/51/62 45/45/62
f 54/54/64 56/56/64 47/47/64
f 47/47/64 56/56/64 48/48/64
f 4/4/65 85/85/66 3/3/67
f 3/3/67 85/85/66 86/86/68
f 87/87/69 85/85/69 2/2/69
f 2/2/70 85/85/70 4/4/70
f 88/88/71 87/87/71 1/1/71
f 1/1/72 87/87/72 2/2/72
f 88/88/73 1/1/73 86/86/73
f 86/86/73 1/1/73 3/3/74
f 89/89/75 90/90/75 11/11/75
f 11/11/76 90/90/76 9/9/76
f 12/12/77 91/91/78 11/11/79
f 11/11/79 91/91/78 89/89/80
f 10/10/81 92/92/82 12/12/82
f 12/12/82 92/92/82 91/91/83
f 90/90/84 92/92/84 9/9/84
f 9/9/85 92/92/85 10/10/85
f 93/93/86 94/94/86 19/19/86
f 19/19/87 94/94/87 17/17/87
f 20/20/88 95/95/89 19/19/89
f 19/19/89 95/95/89 93/93/90
f 18/18/91 96/96/92 20/20/91
f 20/20/91 96/96/92 95/95/92
f 94/94/93 96/96/93 17/17/93
f 17/17/94 96/96/94 18/18/94
f 97/97/95 98/98/95 27/27/95
f 27/27/96 98/98/96 25/25/96
f 28/28/97 99/99/98 27/27/98
f 27/27/98 99/99/98 97/97/99
f 26/26/100 100/100/101 28/28/102
f 28/28/102 100/100/101 99/99/103
f 98/98/104 100/100/104 25/25/104
f 25/25/105 100/100/105 26/26/105
f 101/101/106 32/32/107 102/102/107
f 102/102/107 32/32/107 30/30/108
f 102/102/109 30/30/110 103/103/111
f 103/103/111 30/30/110 29/29/112
f 104/104/113 103/103/113 31/31/113
f 31/31/114 103/103/114 29/29/114
f 31/31/115 32/32/115 104/104/115
f 104/104/116 32/32/116 101/101/116
f 105/105/117 24/24/118 106/106/117
f 106/106/117 24/24/118 22/22/119
f 106/106/120 22/22/121 107/107/122
f 107/107/122 22/22/121 21/21/123
f 108/108/124 107/107/124 23/23/124
f 23/23/125 107/107/125 21/21/125
f 23/23/126 24/24/126 108/108/126
f 108/108/127 24/24/127 105/105/127
f 109/109/128 16/16/128 110/110/128
f 110/110/128 16/16/128 14/14/128
f 110/110/129 14/14/130 111/111/130
f 111/111/130 14/14/130 13/13/131
f 112/112/132 111/111/132 15/15/132
f 15/15/133 111/111/133 13/13/133
f 15/15/134 16/16/134 112/112/134
f 112/112/135 16/16/135 109/109/135
f 113/113/136 114/114/136 6/6/136
f 6/6/137 114/114/137 8/8/137
f 113/113/138 6/6/139 115/115/140
f 115/115/140 6/6/139 5/5/141
f 7/7/142 116/116/143 5/5/143
f 5/5/143 116/116/143 115/115/144
f 7/7/145 8/8/145 116/116/145
f 116/116/146 8/8/146 114/114/146
