# This file uses centimeters as units for non-parametric coordinates.

v -34.307358 3.090137 20.574865
v -31.217018 -0.000004 20.574865
v -31.217018 3.090137 23.664942
v 31.217354 -0.000004 20.574865
v 34.307358 3.090137 20.574865
v 31.217354 3.090137 23.664942
v -31.217018 32.582542 20.574865
v -34.307358 29.492390 20.574865
v -31.217018 29.492390 23.664942
v 34.307358 29.492390 20.574865
v 31.217354 32.582542 20.574865
v 31.217354 29.492390 23.664942
v -31.217018 29.492390 -23.664944
v -34.307358 29.492390 -20.574751
v -31.217018 32.582542 -20.574751
v 34.307358 29.492390 -20.574751
v 31.217354 29.492390 -23.664944
v 31.217354 32.582542 -20.574751
v -31.217018 -0.000004 -20.574751
v -34.307358 3.090137 -20.574751
v -31.217018 3.090137 -23.664944
v 34.307358 3.090137 -20.574751
v 31.217354 -0.000004 -20.574751
v 31.217354 3.090137 -23.664944
v 9.650620 32.582542 20.574865
v 2.832031 32.582542 -15.559238
v 9.650620 29.492390 -23.664944
v 9.650620 5.532829 -23.664944
v 9.650620 -0.000004 -20.574751
v 9.650620 -0.000004 17.767542
v 9.650620 3.090137 23.664942
v 9.650620 26.791161 23.664942
v 31.217354 32.582542 5.365633
v -11.130379 32.582542 18.422670
v -31.217018 32.582542 5.365633
v -34.307358 26.560390 5.365633
v -34.307358 5.442249 -7.623278
v -31.217018 -0.000004 -7.623278
v 34.307358 27.023746 5.365633
v 34.307358 11.679768 -20.574751
v 34.307358 11.679768 18.561380
v 31.217354 11.679768 23.664942
v -28.278107 17.449524 23.664942
v -34.307358 18.736021 20.574865
v -34.307358 11.679768 -20.574751
v -29.340836 14.116909 -23.664944
v 28.827896 11.679768 -23.664944
v -13.396088 32.582542 20.574865
v -14.168594 28.297178 23.664942
v -7.347702 32.582542 20.574865
v -6.895737 27.986988 23.664942
v -11.441032 24.014118 23.664942
v 34.307358 3.090137 -3.816452
v 31.217354 -0.000004 -3.486898
v 34.307358 4.394997 -11.730440
v 29.545204 -0.000004 -11.213579
v 34.307358 3.090137 -13.411367
v 31.217354 -0.000004 -13.047956
v -31.217018 32.582542 -15.737997
v -34.307358 28.978516 -16.028378
v -29.477524 32.582542 -13.478386
v -34.307358 26.257433 -14.499401
v -31.217018 32.582542 -10.717978
v -34.307358 28.407372 -10.975195
vt 0.852251 0.507980
vt 0.852251 0.507980
vt 0.852251 0.507980
vt 0.852251 0.507980
vt 0.852251 0.507980
vt 0.852251 0.507980
vt 0.852251 0.507980
vt 0.852251 0.507980
vt 0.852251 0.507980
vt 0.852251 0.507980
vt 0.852251 0.507980
vt 0.852251 0.507980
vt 0.852251 0.507980
vt 0.852251 0.507980
vt 0.852251 0.507980
vt 0.852251 0.507980
vt 0.852251 0.507980
vt 0.852251 0.507980
vt 0.852251 0.507980
vt 0.852251 0.507980
vt 0.852251 0.507980
vt 0.852251 0.507980
vt 0.852251 0.507980
vt 0.852251 0.507980
vt 0.852251 0.507980
vt 0.852251 0.507980
vt 0.852251 0.507980
vt 0.852251 0.507980
vt 0.852251 0.507980
vt 0.852251 0.507980
vt 0.852251 0.507980
vt 0.852251 0.507980
vt 0.852251 0.507980
vt 0.852251 0.507980
vt 0.852251 0.507980
vt 0.852251 0.507980
vt 0.852251 0.507980
vt 0.852251 0.507980
vt 0.852251 0.507980
vt 0.852251 0.507980
vt 0.852251 0.507980
vt 0.852251 0.507980
vt 0.852251 0.507980
vt 0.852251 0.507980
vt 0.852251 0.507980
vt 0.852251 0.507980
vt 0.852251 0.507980
vt 0.852251 0.507980
vt 0.852251 0.507980
vt 0.852251 0.507980
vt 0.852251 0.507980
vt 0.849262 0.455784
vt 0.852251 0.507980
vt 0.852251 0.507980
vt 0.852251 0.507980
vt 0.852251 0.507980
vt 0.852251 0.507980
vt 0.852251 0.507980
vt 0.852251 0.507980
vt 0.852251 0.507980
vt 0.852251 0.507980
vt 0.852251 0.507980
vt 0.852251 0.507980
vt 0.852251 0.507980
vt 0.852251 0.507980
vt 0.849262 0.455784
vt 0.849262 0.455784
vt 0.849262 0.455784
vt 0.849262 0.455784
vt 0.849262 0.455784
vt 0.849262 0.455788
vt 0.849262 0.455788
vt 0.849262 0.455788
vt 0.849262 0.455784
vt 0.849262 0.455788
vt 0.849262 0.455788
vt 0.849262 0.455784
vt 0.849262 0.455784
vt 0.849262 0.455784
vt 0.849262 0.455784
vt 0.849262 0.455784
vt 0.849262 0.455784
vn 0.000000 -1.000000 0.000000
vn 0.000000 -1.000000 0.000000
vn 0.000000 -1.000000 0.000000
vn 0.000000 0.000000 1.000000
vn 0.000000 0.000000 1.000000
vn 0.000000 0.000000 1.000000
vn -1.000000 0.000000 0.000000
vn -1.000000 0.000000 0.000000
vn -1.000000 0.000000 0.000000
vn -1.000000 0.000000 0.000000
vn -1.000000 0.000000 0.000000
vn -1.000000 0.000000 0.000000
vn 0.000000 1.000000 -0.000001
vn 0.000000 1.000000 -0.000001
vn 0.000000 1.000000 -0.000001
vn 0.000000 0.000000 -1.000000
vn 0.000000 0.000000 -1.000000
vn 0.000000 0.000000 -1.000000
vn 0.000000 0.000000 -1.000000
vn 0.000000 0.000000 -1.000000
vn 0.000000 0.000000 -1.000000
vn -0.707084 -0.707130 0.000000
vn -0.707084 -0.707129 0.000000
vn -0.707084 -0.707130 0.000000
vn -0.868847 -0.493368 -0.041154
vn -0.868847 -0.493368 -0.041154
vn -0.868847 -0.493368 -0.041154
vn 0.000000 -0.707099 0.707114
vn 0.000000 -0.707099 0.707114
vn 0.000000 -0.707099 0.707114
vn 0.031866 -0.885318 0.463892
vn 0.031866 -0.885318 0.463892
vn 0.031866 -0.885318 0.463892
vn -0.699787 0.143224 0.699846
vn -0.699787 0.143224 0.699846
vn -0.699787 0.143224 0.699846
vn -0.456100 0.000000 0.889928
vn -0.456100 0.000000 0.889928
vn -0.456100 0.000000 0.889928
vn 0.707115 0.000000 0.707098
vn 0.707115 0.000000 0.707098
vn 0.707115 0.000000 0.707098
vn 0.849190 0.120521 0.514151
vn 0.849190 0.120521 0.514151
vn 0.849190 0.120521 0.514151
vn -0.707086 0.707128 0.000000
vn -0.707086 0.707128 0.000000
vn -0.707086 0.707128 0.000000
vn -0.886268 0.454799 -0.087675
vn -0.886268 0.454799 -0.087675
vn -0.886268 0.454799 -0.087675
vn 0.000000 0.557993 0.829846
vn 0.000000 0.557993 0.829846
vn 0.000000 0.557993 0.829846
vn 0.034002 0.470475 0.881758
vn 0.034002 0.470475 0.881758
vn 0.034002 0.470475 0.881758
vn 0.707124 0.707090 0.000000
vn 0.707124 0.707090 0.000000
vn 0.707124 0.707090 0.000000
vn 0.871333 0.484354 -0.078616
vn 0.871333 0.484354 -0.078616
vn 0.871333 0.484354 -0.078616
vn -0.559133 0.095135 -0.823601
vn -0.559133 0.095135 -0.823601
vn -0.559133 0.095135 -0.823601
vn -0.707090 0.000000 -0.707124
vn -0.707090 0.000000 -0.707124
vn -0.707090 0.000000 -0.707124
vn 0.103598 0.703307 -0.703297
vn 0.103598 0.703307 -0.703297
vn 0.103598 0.703307 -0.703297
vn 0.000000 0.934401 -0.356224
vn 0.000000 0.934401 -0.356224
vn 0.000000 0.934401 -0.356224
vn 0.486704 0.135391 -0.863012
vn 0.486704 0.135391 -0.863011
vn 0.486704 0.135391 -0.863011
vn 0.707128 0.000000 -0.707086
vn 0.707128 0.000000 -0.707086
vn 0.707128 0.000000 -0.707086
vn 0.000000 -0.707113 -0.707101
vn 0.000000 -0.707113 -0.707101
vn 0.000000 -0.707113 -0.707101
vn 0.029133 -0.487412 -0.872686
vn 0.029133 -0.487412 -0.872686
vn 0.029133 -0.487412 -0.872686
vn -0.577322 -0.577358 0.577371
vn -0.577322 -0.577358 0.577371
vn -0.577322 -0.577358 0.577371
vn 0.577364 -0.577337 0.577350
vn 0.577364 -0.577337 0.577350
vn 0.577364 -0.577337 0.577350
vn -0.577323 0.577357 0.577371
vn -0.577323 0.577357 0.577372
vn -0.577323 0.577357 0.577371
vn 0.577364 0.577336 0.577351
vn 0.577364 0.577336 0.577351
vn 0.577364 0.577336 0.577351
vn -0.577329 0.577364 -0.577357
vn -0.577329 0.577364 -0.577357
vn -0.577329 0.577364 -0.577357
vn 0.577371 0.577344 -0.577336
vn 0.577371 0.577344 -0.577336
vn 0.577371 0.577344 -0.577336
vn -0.577328 -0.577366 -0.577357
vn -0.577328 -0.577366 -0.577357
vn -0.577328 -0.577366 -0.577357
vn 0.577370 -0.577345 -0.577336
vn 0.577370 -0.577345 -0.577336
vn 0.577370 -0.577345 -0.577336
vn 0.000000 1.000000 0.000000
vn 0.000000 1.000000 0.000000
vn 0.000000 1.000000 0.000000
vn 0.000000 1.000000 -0.000000
vn 0.000000 1.000000 -0.000000
vn 0.000000 1.000000 -0.000000
vn -0.072025 0.910305 -0.407625
vn -0.072025 0.910305 -0.407625
vn -0.072025 0.910305 -0.407625
vn 0.000000 0.707111 -0.707102
vn 0.000000 0.707111 -0.707102
vn 0.000000 0.707111 -0.707102
vn 0.000000 0.000000 -1.000000
vn 0.000000 0.000000 -1.000000
vn 0.000000 0.000000 -1.000000
vn -0.055145 -0.486877 -0.871728
vn -0.055145 -0.486877 -0.871728
vn -0.055145 -0.486877 -0.871728
vn 0.000000 -0.707113 -0.707101
vn 0.000000 -0.707113 -0.707101
vn 0.000000 -0.707113 -0.707101
vn -0.060305 -0.884156 0.463283
vn -0.060305 -0.884156 0.463283
vn -0.060305 -0.884156 0.463283
vn 0.000000 -0.707099 0.707114
vn 0.000000 -0.707099 0.707114
vn 0.000000 -0.707099 0.707114
vn 0.000000 0.000000 1.000000
vn 0.000000 0.000000 1.000000
vn 0.000000 0.000000 1.000000
vn -0.058859 0.469931 0.880739
vn -0.058859 0.469931 0.880739
vn -0.058859 0.469931 0.880739
vn 0.000000 0.707098 0.707116
vn 0.000000 0.707098 0.707116
vn 0.000000 0.707098 0.707116
vn 0.000000 1.000000 0.000000
vn 0.000000 1.000000 0.000000
vn 0.000000 1.000000 0.000000
vn 0.000000 1.000000 0.000000
vn 0.000000 1.000000 0.000000
vn 0.000000 1.000000 0.000000
vn 0.000000 1.000000 0.000001
vn 0.000000 1.000000 0.000001
vn 0.000000 1.000000 0.000001
vn 0.000000 1.000000 0.000000
vn 0.000000 1.000000 0.000000
vn 0.000000 1.000000 0.000000
vn -0.888512 0.455951 0.051536
vn -0.888512 0.455951 0.051536
vn -0.888512 0.455951 0.051536
vn -0.803776 0.594932 0.000000
vn -0.803776 0.594931 0.000000
vn -0.803776 0.594932 0.000000
vn -1.000000 0.000000 0.000000
vn -1.000000 0.000000 0.000000
vn -1.000000 0.000000 0.000000
vn -0.866108 -0.491813 0.089318
vn -0.866108 -0.491813 0.089318
vn -0.866108 -0.491813 0.089318
vn -0.707084 -0.707130 0.000000
vn -0.707084 -0.707130 0.000000
vn -0.707084 -0.707130 0.000000
vn 0.000000 -1.000000 0.000000
vn 0.000000 -1.000000 0.000000
vn 0.000000 -1.000000 0.000000
vn 0.000000 -1.000000 0.000000
vn 0.000000 -1.000000 0.000000
vn 0.000000 -1.000000 0.000000
vn 0.000000 -1.000000 0.000000
vn 0.000000 -1.000000 0.000000
vn 0.000000 -1.000000 0.000000
vn 0.000000 -1.000000 0.000000
vn 0.000000 -1.000000 0.000000
vn 0.000000 -1.000000 0.000000
vn 0.707122 -0.707091 0.000000
vn 0.707122 -0.707091 0.000000
vn 0.707122 -0.707091 0.000000
vn 0.707123 -0.707091 0.000000
vn 0.707123 -0.707091 0.000000
vn 0.707123 -0.707091 0.000000
vn 1.000000 0.000000 0.000000
vn 1.000000 0.000000 0.000000
vn 1.000000 0.000000 0.000000
vn 1.000000 0.000001 0.000000
vn 1.000000 0.000001 0.000000
vn 1.000000 0.000001 0.000000
vn 0.873105 0.485339 0.046188
vn 0.873105 0.485339 0.046188
vn 0.873105 0.485339 0.046188
vn 0.707124 0.707090 0.000000
vn 0.707124 0.707090 0.000000
vn 0.707124 0.707090 0.000000
vn 1.000000 0.000000 0.000000
vn 1.000000 0.000000 0.000000
vn 1.000000 0.000000 0.000000
vn 1.000000 0.000000 0.000000
vn 1.000000 0.000000 0.000000
vn 1.000000 0.000000 0.000000
vn 1.000000 -0.000000 0.000000
vn 1.000000 -0.000000 0.000000
vn 1.000000 -0.000000 0.000000
vn 0.853963 -0.058444 0.517041
vn 0.853963 -0.058444 0.517041
vn 0.853963 -0.058444 0.517041
vn 0.707115 0.000000 0.707099
vn 0.707115 0.000000 0.707099
vn 0.707115 0.000000 0.707099
vn 0.000000 0.000000 1.000000
vn 0.000000 0.000000 1.000000
vn 0.000000 0.000000 1.000000
vn -0.000000 0.000000 1.000000
vn -0.000000 0.000000 1.000000
vn -0.000000 0.000000 1.000000
vn -0.000000 0.000000 1.000000
vn -0.000000 0.000000 1.000000
vn -0.000000 0.000000 1.000000
vn -0.472432 -0.115291 0.873794
vn -0.472432 -0.115291 0.873794
vn -0.472432 -0.115291 0.873794
vn -0.707077 0.000000 0.707137
vn -0.707077 0.000000 0.707137
vn -0.707077 0.000000 0.707137
vn -1.000000 0.000000 0.000000
vn -1.000000 0.000000 0.000000
vn -1.000000 0.000000 0.000000
vn -1.000000 0.000000 0.000000
vn -1.000000 0.000000 0.000000
vn -1.000000 0.000000 0.000000
vn -1.000000 0.000000 0.000000
vn -1.000000 0.000000 0.000000
vn -1.000000 0.000000 0.000000
vn -0.704473 -0.085963 -0.704506
vn -0.704473 -0.085963 -0.704506
vn -0.704473 -0.085963 -0.704506
vn -0.528291 0.000000 -0.849064
vn -0.528291 0.000000 -0.849064
vn -0.528291 0.000000 -0.849064
vn 0.000000 0.000000 -1.000000
vn 0.000000 0.000000 -1.000000
vn 0.000000 0.000000 -1.000000
vn 0.000000 0.000000 -1.000000
vn 0.000000 0.000000 -1.000000
vn 0.000000 0.000000 -1.000000
vn 0.000000 0.000000 -1.000000
vn 0.000000 0.000000 -1.000000
vn 0.000000 0.000000 -1.000000
vn 0.707128 0.000000 -0.707086
vn 0.707128 0.000000 -0.707086
vn 0.707128 0.000000 -0.707086
vn 0.490164 -0.065752 -0.869147
vn 0.490164 -0.065752 -0.869147
vn 0.490164 -0.065752 -0.869147
vn 0.000000 1.000000 0.000000
vn 0.000000 1.000000 0.000000
vn 0.000000 1.000000 0.000000
vn 0.049512 0.706230 0.706249
vn 0.049512 0.706230 0.706249
vn 0.049512 0.706230 0.706249
vn 0.000000 0.584880 0.811120
vn 0.000000 0.584880 0.811120
vn 0.000000 0.584880 0.811120
vn 0.000000 0.000000 1.000000
vn 0.000000 0.000000 1.000000
vn 0.000000 0.000000 1.000000
vn 0.000000 1.000000 0.000003
vn 0.000000 1.000000 0.000003
vn 0.000000 1.000000 0.000003
vn 0.639748 0.370313 0.673491
vn 0.639748 0.370313 0.673491
vn 0.639748 0.370313 0.673491
vn 0.618291 0.393743 0.680208
vn 0.618291 0.393743 0.680208
vn 0.618291 0.393743 0.680208
vn 0.000000 0.000000 1.000000
vn 0.000000 0.000000 1.000000
vn 0.000000 0.000000 1.000000
vn 0.000000 0.000000 1.000000
vn 0.000000 0.000000 1.000000
vn 0.000000 0.000000 1.000000
vn 0.000000 0.000000 1.000000
vn 0.000000 0.000000 1.000000
vn 0.000000 0.000000 1.000000
vn -0.423043 0.483997 0.766017
vn -0.423043 0.483997 0.766017
vn -0.423043 0.483997 0.766017
vn -0.435896 0.472277 0.766126
vn -0.435896 0.472277 0.766126
vn -0.435896 0.472277 0.766126
vn 1.000000 0.000000 0.000000
vn 1.000000 0.000000 0.000000
vn 1.000000 0.000000 0.000000
vn 1.000000 0.000000 0.000000
vn 1.000000 0.000000 0.000000
vn 1.000000 0.000000 0.000000
vn 0.707123 -0.707091 0.000000
vn 0.707122 -0.707091 0.000000
vn 0.707122 -0.707091 0.000000
vn 0.707123 -0.707091 0.000000
vn 0.707123 -0.707091 0.000000
vn 0.707123 -0.707091 0.000000
vn 0.691147 -0.707068 -0.149573
vn 0.691147 -0.707068 -0.149573
vn 0.691147 -0.707068 -0.149573
vn 0.666055 -0.735966 -0.121346
vn 0.666055 -0.735966 -0.121346
vn 0.666055 -0.735966 -0.121346
vn 0.599310 -0.585128 0.546308
vn 0.599310 -0.585128 0.546308
vn 0.599310 -0.585128 0.546308
vn 0.652944 -0.598296 0.464441
vn 0.652944 -0.598296 0.464441
vn 0.652944 -0.598296 0.464441
vn 1.000000 0.000000 0.000000
vn 1.000000 0.000000 0.000000
vn 1.000000 0.000000 0.000000
vn 0.000000 -1.000000 0.000000
vn 0.000000 -1.000000 0.000000
vn 0.000000 -1.000000 0.000000
vn 0.000000 -1.000000 0.000000
vn 0.000000 -1.000000 0.000000
vn 0.000000 -1.000000 0.000000
vn 0.000000 -1.000000 0.000000
vn 0.000000 -1.000000 0.000000
vn 0.000000 -1.000000 0.000000
vn 0.000000 1.000000 0.000000
vn 0.000000 1.000000 0.000000
vn 0.000000 1.000000 0.000000
vn -0.760007 0.645802 0.072994
vn -0.760007 0.645802 0.072994
vn -0.760007 0.645802 0.072994
vn -0.707086 0.707128 0.000000
vn -0.707086 0.707128 0.000000
vn -0.707086 0.707128 0.000000
vn -0.636758 0.377717 0.672212
vn -0.636758 0.377717 0.672212
vn -0.636758 0.377717 0.672212
vn -0.670348 0.533224 0.516048
vn -0.670348 0.533224 0.516048
vn -0.670348 0.533224 0.516048
vn -0.706413 0.550291 -0.445152
vn -0.706413 0.550291 -0.445152
vn -0.706413 0.550291 -0.445152
vn -0.709878 0.601271 -0.366805
vn -0.709878 0.601271 -0.366805
vn -0.709878 0.601271 -0.366805
vn 0.000000 1.000000 0.000000
vn 0.000000 1.000000 0.000000
vn 0.000000 1.000000 0.000000
vn 0.000000 1.000000 0.000000
vn 0.000000 1.000000 0.000000
vn 0.000000 1.000000 0.000000
vn -1.000000 0.000000 0.000000
vn -1.000000 0.000000 0.000000
vn -1.000000 0.000000 0.000000
vn -1.000000 0.000000 0.000000
vn -1.000000 0.000000 0.000000
vn -1.000000 0.000000 0.000000
vn -1.000000 0.000000 0.000000
vn -1.000000 0.000000 0.000000
vn -1.000000 0.000000 0.000000
s off
f 38/38/1 30/30/2 2/14/3
f 31/31/4 43/43/5 3/15/6
f 45/45/7 37/37/8 44/44/9
f 44/44/10 37/37/11 1/1/12
f 34/34/13 35/35/14 48/48/15
f 47/47/16 28/28/17 46/46/18
f 46/46/19 28/28/20 21/23/21
f 2/14/22 1/1/23 38/38/24
f 38/38/25 1/1/26 37/37/27
f 3/15/28 2/14/29 31/31/30
f 31/31/31 2/14/32 30/30/33
f 3/15/34 43/43/35 1/1/36
f 1/1/37 43/43/38 44/44/39
f 6/2/40 5/17/41 42/42/42
f 42/42/43 5/17/44 41/41/45
f 7/4/46 35/35/47 8/3/48
f 8/3/49 35/35/50 36/36/51
f 50/50/52 51/51/53 25/25/54
f 25/25/55 51/51/56 32/32/57
f 11/6/58 10/19/59 33/33/60
f 33/33/61 10/19/62 39/39/63
f 46/46/64 21/23/65 45/45/66
f 45/45/67 21/23/68 20/22/69
f 15/20/70 26/26/71 13/8/72
f 13/8/73 26/26/74 27/27/75
f 47/47/76 40/40/77 24/13/78
f 24/13/79 40/40/80 22/11/81
f 19/12/82 21/23/83 29/29/84
f 29/29/85 21/23/86 28/28/87
f 1/1/88 2/14/89 3/15/90
f 4/16/91 5/17/92 6/2/93
f 7/4/94 8/3/95 9/18/96
f 10/19/97 11/6/98 12/5/99
f 13/8/100 14/7/101 15/20/102
f 16/21/103 17/10/104 18/9/105
f 19/12/106 20/22/107 21/23/108
f 22/11/109 23/24/110 24/13/111
f 11/6/112 33/33/113 25/25/114
f 25/25/115 33/33/116 34/34/117
f 26/26/118 18/9/119 27/27/120
f 27/27/121 18/9/122 17/10/123
f 47/47/124 24/13/125 28/28/126
f 28/28/127 24/13/128 29/29/129
f 29/29/130 24/13/131 23/24/132
f 30/30/133 4/16/134 31/31/135
f 31/31/136 4/16/137 6/2/138
f 6/2/139 42/42/140 31/31/141
f 32/32/142 12/5/143 25/25/144
f 25/25/145 12/5/146 11/6/147
f 18/9/148 26/26/149 33/33/150
f 33/33/151 26/26/152 34/34/153
f 63/64/154 26/26/155 61/62/156
f 26/26/157 59/60/158 61/62/159
f 36/36/160 35/35/161 64/65/162
f 64/65/163 35/35/164 63/64/165
f 37/37/166 45/45/167 20/22/168
f 37/37/169 20/22/170 38/38/171
f 38/38/172 20/22/173 19/12/174
f 19/12/175 29/29/176 38/38/177
f 38/38/178 29/29/179 30/30/180
f 54/55/181 29/29/182 56/57/183
f 29/29/184 58/59/185 56/57/186
f 58/59/187 23/24/188 57/58/189
f 57/58/190 23/24/191 22/11/192
f 53/54/193 55/56/194 40/40/195
f 57/58/196 40/40/197 55/56/198
f 39/39/199 16/21/200 33/33/201
f 33/33/202 16/21/203 18/9/204
f 16/21/205 39/39/206 40/40/207
f 40/40/208 39/39/209 41/41/210
f 41/41/211 39/39/212 10/19/213
f 41/41/214 10/19/215 42/42/216
f 42/42/217 10/19/218 12/5/219
f 31/31/220 42/42/221 32/32/222
f 32/32/223 42/42/224 12/5/225
f 51/51/226 31/31/227 32/32/228
f 43/43/229 9/18/230 44/44/231
f 44/44/232 9/18/233 8/3/234
f 8/3/235 36/36/236 44/44/237
f 44/44/238 36/36/239 45/45/240
f 45/45/241 36/36/242 64/65/243
f 13/8/244 46/46/245 14/7/246
f 14/7/247 46/46/248 45/45/249
f 47/47/250 46/46/251 27/27/252
f 27/27/253 46/46/254 13/8/255
f 17/10/256 47/47/257 27/27/258
f 16/21/259 40/40/260 17/10/261
f 17/10/262 40/40/263 47/47/264
f 48/48/265 35/35/266 7/4/267
f 9/18/268 49/49/269 7/4/270
f 7/4/271 49/49/272 48/48/273
f 43/43/274 49/49/275 9/18/276
f 25/25/277 34/34/278 50/50/279
f 48/52/280 49/66/281 34/68/282
f 34/68/283 49/66/284 52/67/285
f 51/51/286 52/53/287 31/31/288
f 49/49/289 43/43/290 52/53/291
f 43/43/292 31/31/293 52/53/294
f 52/67/295 51/69/296 34/68/297
f 34/68/298 51/69/299 50/70/300
f 40/40/301 41/41/302 53/54/303
f 53/54/304 41/41/305 5/17/306
f 4/16/307 54/55/308 5/17/309
f 5/17/310 54/55/311 53/54/312
f 54/72/313 56/73/314 53/71/315
f 53/71/316 56/73/317 55/74/318
f 56/73/319 58/75/320 55/74/321
f 55/74/322 58/75/323 57/76/324
f 22/11/325 40/40/326 57/58/327
f 4/16/328 30/30/329 54/55/330
f 54/55/331 30/30/332 29/29/333
f 58/59/334 29/29/335 23/24/336
f 59/60/337 26/26/338 15/20/339
f 60/61/340 59/60/341 14/7/342
f 14/7/343 59/60/344 15/20/345
f 62/77/346 61/78/347 60/80/348
f 60/80/349 61/78/350 59/79/351
f 63/82/352 61/78/353 64/81/354
f 64/81/355 61/78/356 62/77/357
f 35/35/358 34/34/359 63/64/360
f 63/64/361 34/34/362 26/26/363
f 45/45/364 60/61/365 14/7/366
f 64/65/367 62/63/368 45/45/369
f 45/45/370 62/63/371 60/61/372
