# This file uses centimeters as units for non-parametric coordinates.

v -8.274048 5.874285 15.806778
v 8.944641 5.874285 15.388855
v -8.965179 5.874285 -12.668884
v 8.253448 7.575694 -13.086807
v -8.965179 1.350212 -12.668884
v 8.253448 1.359949 -13.086807
v -8.274048 1.350212 15.806778
v 8.944641 1.350212 15.388855
v 11.603455 8.505621 0.215065
v -11.062973 6.551125 -0.642326
v -11.062973 0.673378 -0.642326
v 11.603455 0.430028 0.215065
v 3.543114 5.874285 19.162224
v 3.372726 9.014579 1.809303
v 2.608116 5.874285 -19.359009
v 2.608116 1.350212 -19.359009
v 3.372726 0.000000 1.809303
v 3.543114 1.350212 19.162224
v -5.386520 0.000000 2.021935
v -5.424797 1.350212 -16.077118
v -5.424797 5.874285 -16.077118
v -5.386520 9.014579 2.021935
v -4.564735 5.874285 19.359001
v -4.564735 1.350212 19.359001
v -5.419151 8.278940 -11.030952
v 0.959839 9.014579 1.867851
v 1.971451 5.874285 19.200378
v 1.691261 1.350212 19.207153
v 2.035194 0.000000 1.841789
v -5.417145 0.690107 -10.223129
v -4.968567 0.527969 10.839859
v 1.860245 0.527969 10.674133
v 3.459396 0.527969 10.635269
v 9.119698 1.017628 8.592278
v 9.119698 6.206872 8.592278
v 3.459396 8.486606 10.635269
v 1.474312 8.486606 10.683517
v -4.968567 8.486606 10.839859
v -8.054955 6.206872 8.004166
v -8.054955 1.017628 8.004166
vt 0.205972 0.612406
vt 0.205972 0.612406
vt 0.205972 0.612406
vt 0.205972 0.612406
vt 0.085388 0.381807
vt 0.205972 0.612406
vt 0.205972 0.612406
vt 0.085388 0.381807
vt 0.085388 0.381807
vt 0.205972 0.612406
vt 0.205972 0.612406
vt 0.205972 0.612406
vt 0.205972 0.612406
vt 0.205972 0.612406
vt 0.205972 0.612406
vt 0.205972 0.612406
vt 0.205972 0.612406
vt 0.205972 0.612406
vt 0.205972 0.612406
vt 0.205972 0.612406
vt 0.205972 0.612406
vt 0.205972 0.612406
vt 0.205972 0.612406
vt 0.205972 0.612406
vt 0.205972 0.612406
vt 0.205972 0.612406
vt 0.205972 0.612406
vt 0.205972 0.612406
vt 0.205972 0.612406
vt 0.205972 0.612406
vt 0.205972 0.612406
vt 0.205972 0.612406
vt 0.085388 0.381807
vt 0.205972 0.612406
vt 0.205972 0.612406
vt 0.205972 0.612406
vt 0.205972 0.612406
vt 0.205972 0.612406
vt 0.205972 0.612406
vt 0.085388 0.381807
vt 0.205972 0.612406
vt 0.205972 0.612406
vt 0.205972 0.612406
vt 0.205972 0.612406
vt 0.205972 0.612406
vt 0.085388 0.381807
vt 0.085388 0.381807
vt 0.205972 0.612406
vt 0.205972 0.612406
vt 0.205972 0.612406
vt 0.205972 0.612406
vt 0.205972 0.612406
vt 0.205972 0.612406
vt 0.205972 0.612406
vt 0.205972 0.612406
vt 0.205972 0.612406
vt 0.205972 0.612406
vt 0.205972 0.612406
vt 0.205972 0.612406
vt 0.205972 0.612406
vt 0.085388 0.381807
vt 0.085388 0.381807
vt 0.085388 0.381807
vt 0.085388 0.381807
vt 0.205972 0.612406
vt 0.085388 0.381807
vt 0.085388 0.381807
vt 0.205972 0.612406
vt 0.085388 0.381807
vt 0.085388 0.381807
vt 0.085388 0.381807
vt 0.085388 0.381807
vt 0.085388 0.381807
vt 0.085388 0.381807
vt 0.085388 0.381807
vt 0.085388 0.381807
vt 0.085388 0.381807
vt 0.085388 0.381807
vt 0.085388 0.381807
vt 0.205972 0.612406
vt 0.085388 0.381807
vt 0.085388 0.381807
vt 0.205972 0.612406
vt 0.205972 0.612406
vt 0.085388 0.381807
vt 0.085388 0.381807
vt 0.085388 0.381807
vt 0.085388 0.381807
vt 0.205972 0.612406
vt 0.085388 0.381807
vt 0.205972 0.612406
vt 0.085388 0.381807
vt 0.205972 0.612406
vt 0.205972 0.612406
vt 0.205972 0.612406
vt 0.205972 0.612406
vt 0.205972 0.612406
vt 0.085388 0.381807
vt 0.205972 0.612406
vt 0.085388 0.381807
vt 0.205972 0.612406
vt 0.205972 0.612406
vt 0.205972 0.612406
vt 0.205972 0.612406
vt 0.205972 0.612406
vt 0.205972 0.612406
vn 0.007118 0.956131 0.292852
vn 0.007118 0.956131 0.292852
vn 0.007118 0.956131 0.292852
vn 0.007109 0.956132 0.292851
vn 0.007109 0.956132 0.292851
vn 0.007109 0.956132 0.292851
vn -0.378208 0.000000 -0.925721
vn -0.378208 0.000000 -0.925721
vn -0.378208 0.000000 -0.925721
vn -0.378208 0.000000 -0.925721
vn -0.378208 0.000000 -0.925721
vn -0.378208 0.000000 -0.925721
vn 0.002328 -0.995382 0.095961
vn 0.002328 -0.995382 0.095961
vn 0.002328 -0.995382 0.095961
vn 0.002332 -0.995382 0.095960
vn 0.002332 -0.995382 0.095960
vn 0.002332 -0.995382 0.095960
vn 0.024255 -0.000005 0.999706
vn 0.024255 -0.000005 0.999706
vn 0.024255 -0.000005 0.999706
vn 0.024271 0.000000 0.999705
vn 0.024271 0.000000 0.999705
vn 0.024271 0.000000 0.999705
vn 0.999668 0.000000 0.025748
vn 0.999669 0.000000 0.025748
vn 0.999668 0.000000 0.025748
vn 0.999669 0.000000 0.025748
vn 0.999669 0.000000 0.025748
vn 0.999668 0.000000 0.025748
vn -0.999606 0.000000 -0.028068
vn -0.999606 0.000000 -0.028068
vn -0.999606 0.000000 -0.028068
vn -0.999606 0.000000 -0.028068
vn -0.999606 0.000000 -0.028068
vn -0.999606 0.000000 -0.028068
vn -0.058996 0.987759 -0.144402
vn -0.058996 0.987759 -0.144402
vn -0.058996 0.987759 -0.144402
vn -0.985126 0.000000 -0.171836
vn -0.985126 0.000000 -0.171836
vn -0.985126 0.000000 -0.171836
vn -0.985126 0.000000 -0.171836
vn -0.985126 0.000000 -0.171836
vn -0.985126 0.000000 -0.171836
vn -0.001367 -0.998415 -0.056265
vn -0.001367 -0.998415 -0.056265
vn -0.001367 -0.998415 -0.056265
vn 0.075290 -0.990871 -0.111831
vn 0.075290 -0.990871 -0.111831
vn 0.075290 -0.990871 -0.111831
vn 0.969720 0.000000 -0.244219
vn 0.969720 0.000000 -0.244219
vn 0.969720 0.000000 -0.244219
vn 0.969720 0.000000 -0.244219
vn 0.969720 0.000000 -0.244219
vn 0.969720 0.000000 -0.244219
vn 0.390054 0.919147 0.055025
vn 0.390054 0.919147 0.055025
vn 0.390054 0.919147 0.055025
vn 0.199274 0.937506 0.285258
vn 0.199274 0.937506 0.285258
vn 0.199274 0.937506 0.285258
vn -0.139458 0.980227 -0.140378
vn -0.139458 0.980227 -0.140378
vn -0.139458 0.980227 -0.140378
vn 0.045849 0.995647 -0.081152
vn 0.045849 0.995647 -0.081152
vn 0.045849 0.995647 -0.081152
vn 0.743274 0.000000 -0.668988
vn 0.743274 0.000000 -0.668988
vn 0.743274 0.000000 -0.668988
vn 0.743273 0.000000 -0.668988
vn 0.743273 0.000000 -0.668988
vn 0.743273 0.000000 -0.668988
vn 0.075246 -0.994966 -0.066181
vn 0.075246 -0.994966 -0.066181
vn 0.075246 -0.994966 -0.066181
vn 0.036765 -0.996204 -0.078903
vn 0.036765 -0.996204 -0.078903
vn 0.036765 -0.996204 -0.078903
vn 0.066452 -0.993245 0.095125
vn 0.066452 -0.993245 0.095125
vn 0.066452 -0.993245 0.095125
vn 0.104433 -0.993208 0.051292
vn 0.104433 -0.993208 0.051292
vn 0.104433 -0.993208 0.051292
vn 0.572678 0.000000 0.819781
vn 0.572678 0.000000 0.819781
vn 0.572678 0.000000 0.819781
vn 0.572677 0.000000 0.819781
vn 0.572677 0.000000 0.819781
vn 0.572677 0.000000 0.819781
vn -0.107115 -0.988001 -0.111269
vn -0.107115 -0.988001 -0.111269
vn -0.107115 -0.988001 -0.111269
vn -0.693533 0.000000 -0.720424
vn -0.693533 0.000000 -0.720424
vn -0.693533 0.000000 -0.720424
vn -0.693534 0.000000 -0.720424
vn -0.693534 0.000000 -0.720424
vn -0.693534 0.000000 -0.720424
vn -0.382329 0.834323 -0.397153
vn -0.382329 0.834323 -0.397153
vn -0.382329 0.834323 -0.397153
vn -0.281073 0.913704 0.293503
vn -0.281073 0.913703 0.293503
vn -0.281073 0.913704 0.293503
vn -0.604108 0.796721 0.016997
vn -0.604108 0.796721 0.016997
vn -0.604108 0.796721 0.016997
vn -0.691648 0.000000 0.722235
vn -0.691648 0.000000 0.722235
vn -0.691648 0.000000 0.722235
vn -0.691648 0.000000 0.722235
vn -0.691648 0.000000 0.722235
vn -0.691648 0.000000 0.722235
vn -0.189224 -0.981255 0.036512
vn -0.189224 -0.981255 0.036512
vn -0.189224 -0.981255 0.036512
vn -0.095890 -0.990343 0.100130
vn -0.095890 -0.990343 0.100130
vn -0.095890 -0.990343 0.100130
vn 0.484263 0.789618 -0.376819
vn 0.484263 0.789618 -0.376819
vn 0.484263 0.789618 -0.376819
vn -0.001365 0.998415 -0.056266
vn -0.001365 0.998415 -0.056266
vn -0.001365 0.998415 -0.056266
vn -0.377276 0.924686 -0.051171
vn -0.377276 0.924686 -0.051171
vn -0.377276 0.924686 -0.051171
vn -0.511829 0.848092 -0.137008
vn -0.511829 0.848092 -0.137008
vn -0.511829 0.848092 -0.137008
vn -0.001366 0.998415 -0.056266
vn -0.001366 0.998415 -0.056266
vn -0.001366 0.998415 -0.056266
vn 0.007106 0.956131 0.292852
vn 0.007106 0.956131 0.292852
vn 0.007106 0.956131 0.292852
vn 0.007107 0.956131 0.292853
vn 0.007107 0.956131 0.292853
vn 0.007107 0.956131 0.292853
vn 0.024265 0.000000 0.999706
vn 0.024265 0.000000 0.999706
vn 0.024265 0.000000 0.999706
vn 0.024261 -0.000005 0.999706
vn 0.024261 -0.000005 0.999706
vn 0.024261 -0.000005 0.999706
vn 0.002329 -0.995382 0.095961
vn 0.002329 -0.995382 0.095961
vn 0.002329 -0.995382 0.095961
vn 0.002329 -0.995382 0.095961
vn 0.002329 -0.995382 0.095961
vn 0.002329 -0.995382 0.095961
vn -0.001366 -0.998415 -0.056265
vn -0.001366 -0.998415 -0.056265
vn -0.001366 -0.998415 -0.056265
vn -0.129928 -0.988428 -0.078290
vn -0.129928 -0.988428 -0.078290
vn -0.129928 -0.988428 -0.078290
vn -0.091749 -0.994217 -0.055803
vn -0.091749 -0.994217 -0.055803
vn -0.091749 -0.994217 -0.055803
vn -0.025622 -0.997703 -0.062713
vn -0.025622 -0.997703 -0.062713
vn -0.025622 -0.997703 -0.062713
vn 0.001449 -0.998215 0.059699
vn 0.001449 -0.998215 0.059699
vn 0.001449 -0.998215 0.059699
vn 0.001449 -0.998215 0.059699
vn 0.001449 -0.998215 0.059699
vn 0.001449 -0.998215 0.059699
vn 0.001451 -0.998215 0.059699
vn 0.001451 -0.998215 0.059699
vn 0.001451 -0.998215 0.059699
vn 0.001450 -0.998215 0.059699
vn 0.001450 -0.998215 0.059699
vn 0.001450 -0.998215 0.059699
vn 0.106915 -0.992556 0.058325
vn 0.106915 -0.992556 0.058325
vn 0.106915 -0.992556 0.058325
vn 0.069390 -0.993498 0.090260
vn 0.069390 -0.993498 0.090260
vn 0.069390 -0.993498 0.090260
vn 0.958748 0.000000 0.284259
vn 0.958748 0.000000 0.284259
vn 0.958748 0.000000 0.284259
vn 0.958748 0.000000 0.284259
vn 0.958748 0.000000 0.284259
vn 0.958748 0.000000 0.284259
vn 0.388952 0.919834 0.051205
vn 0.388952 0.919834 0.051205
vn 0.388952 0.919834 0.051205
vn 0.115720 0.948586 0.294607
vn 0.115720 0.948586 0.294607
vn 0.115721 0.948586 0.294607
vn 0.001449 0.998215 0.059699
vn 0.001449 0.998215 0.059699
vn 0.001449 0.998215 0.059699
vn 0.001451 0.998215 0.059699
vn 0.001451 0.998215 0.059699
vn 0.001451 0.998215 0.059699
vn 0.001449 0.998215 0.059699
vn 0.001449 0.998215 0.059699
vn 0.001449 0.998215 0.059699
vn 0.001449 0.998215 0.059699
vn 0.001449 0.998215 0.059699
vn 0.001449 0.998215 0.059699
vn -0.636720 0.767328 0.076123
vn -0.636720 0.767328 0.076123
vn -0.636720 0.767328 0.076123
vn -0.466540 0.862365 0.196638
vn -0.466540 0.862365 0.196638
vn -0.466540 0.862365 0.196638
vn -0.944478 0.000000 0.328574
vn -0.944478 0.000000 0.328574
vn -0.944478 0.000000 0.328574
vn -0.944478 0.000000 0.328574
vn -0.944478 0.000000 0.328574
vn -0.944478 0.000000 0.328573
vn -0.161208 -0.982319 0.095192
vn -0.161208 -0.982319 0.095192
vn -0.161208 -0.982319 0.095192
vn -0.217503 -0.973646 0.068606
vn -0.217503 -0.973646 0.068606
vn -0.217503 -0.973646 0.068606
s off
f 37/100/1 27/73/2 36/98/3
f 36/98/4 27/73/5 13/33/6
f 20/44/7 21/83/8 16/38/9
f 16/38/10 21/83/11 15/37/12
f 28/72/13 32/90/14 18/87/15
f 18/87/16 32/90/17 33/92/18
f 28/71/19 18/88/20 27/74/21
f 27/74/22 18/88/23 13/81/24
f 2/17/25 8/18/26 35/96/27
f 35/96/28 8/18/29 34/94/30
f 7/21/31 1/22/32 40/105/33
f 40/105/34 1/22/35 39/103/36
f 21/84/37 14/35/38 15/36/39
f 11/30/40 10/28/41 5/24/42
f 5/24/43 10/28/44 3/23/45
f 29/70/46 30/66/47 17/40/48
f 17/40/49 30/66/50 20/63/51
f 9/26/52 12/32/53 4/20/54
f 4/20/55 12/32/56 6/19/57
f 35/97/58 36/99/59 2/2/60
f 2/2/61 36/99/62 13/80/63
f 15/36/64 14/35/65 4/3/66
f 4/3/67 14/35/68 9/25/69
f 16/38/70 15/37/71 6/7/72
f 6/7/73 15/37/74 4/6/75
f 16/39/76 6/10/77 17/65/78
f 17/65/79 6/10/80 12/31/81
f 18/41/82 33/93/83 8/11/84
f 8/11/85 33/93/86 34/95/87
f 13/34/88 18/42/89 2/15/90
f 2/15/91 18/42/92 8/14/93
f 5/9/94 20/62/95 30/67/96
f 3/5/97 21/47/98 5/8/99
f 5/8/100 21/47/101 20/61/102
f 3/79/103 25/77/104 21/82/105
f 23/49/106 38/102/107 1/1/108
f 1/1/109 38/102/110 39/104/111
f 7/13/112 24/52/113 1/16/114
f 1/16/115 24/52/116 23/50/117
f 40/106/118 31/89/119 7/12/120
f 7/12/121 31/89/122 24/51/123
f 21/46/124 25/78/125 14/86/126
f 14/86/127 25/78/128 26/75/129
f 22/48/130 25/53/131 10/27/132
f 10/27/133 25/53/134 3/4/135
f 26/54/136 25/53/137 22/48/138
f 38/102/139 23/49/140 37/101/141
f 37/101/142 23/49/143 27/55/144
f 24/52/145 28/58/146 23/50/147
f 23/50/148 28/58/149 27/56/150
f 24/51/151 31/89/152 28/57/153
f 28/57/154 31/89/155 32/91/156
f 19/43/157 30/60/158 29/59/159
f 5/68/160 30/60/161 11/29/162
f 11/29/163 30/60/164 19/43/165
f 17/65/166 20/45/167 16/39/168
f 31/89/169 19/43/170 32/91/171
f 32/91/172 19/43/173 29/59/174
f 32/90/175 29/69/176 33/92/177
f 33/92/178 29/69/179 17/64/180
f 33/93/181 17/65/182 34/95/183
f 34/95/184 17/65/185 12/31/186
f 34/94/187 12/32/188 35/96/189
f 35/96/190 12/32/191 9/26/192
f 36/99/193 35/97/194 14/35/195
f 14/35/196 35/97/197 9/25/198
f 26/76/199 37/100/200 14/85/201
f 14/85/202 37/100/203 36/98/204
f 22/48/205 38/102/206 26/54/207
f 26/54/208 38/102/209 37/101/210
f 38/102/211 22/48/212 39/104/213
f 39/104/214 22/48/215 10/27/216
f 40/105/217 39/103/218 11/30/219
f 11/30/220 39/103/221 10/28/222
f 11/29/223 19/43/224 40/106/225
f 40/106/226 19/43/227 31/89/228
