# Blender v2.78 (sub 0) OBJ File: ''
# www.blender.org
mtllib SM_Prop_Meat_03.mtl
o SM_Prop_Meat_03
v -7.275906 10.934452 24.737902
v -11.001343 15.878670 9.374094
v -8.876572 10.934452 24.737902
v -13.410103 16.165390 9.374094
v -9.035400 11.564590 -24.737852
v -7.405415 11.564590 -24.737852
v -9.035400 5.067639 -24.737852
v -7.405415 5.067639 -24.737852
v -13.410103 6.566255 9.374093
v -11.001343 6.279529 9.374093
v -8.876572 5.604673 24.737902
v -7.275906 5.604673 24.737902
v 8.407387 5.979318 24.737902
v 8.081909 5.543955 21.475962
v 8.407387 10.875733 24.737902
v 8.198437 11.365568 21.049166
v -13.069313 13.069135 -12.116186
v -10.617275 13.560081 -12.116186
v -13.069313 0.000002 -12.116188
v -10.617165 0.490951 -12.116188
v 11.527161 5.393649 -8.059097
v 13.410080 7.610971 -12.116187
v 11.507721 16.700768 -7.541684
v 13.410080 15.797333 -12.116186
v -10.765854 11.273233 -19.323545
v -8.783215 11.453908 -19.323545
v -10.765854 2.073301 -19.323547
v -8.783165 2.253980 -19.323547
v 10.643997 12.948219 -19.323545
v 10.643997 4.496334 -19.323545
v -0.041218 15.311985 9.374094
v -0.417683 11.120049 24.737886
v 0.137222 16.331367 -12.116186
v -0.037369 12.573309 -19.323545
v -0.871723 4.619553 -24.737852
v -0.169289 11.704449 -24.737852
v -0.903557 1.852296 -12.116188
v -0.884991 2.456591 -19.323547
v -1.751663 5.136434 9.374092
v -0.791782 4.783991 8.113907
v -0.802773 4.796740 10.541862
v -0.835464 5.307948 24.737902
v 6.961315 13.704823 9.374094
v 9.901024 11.574376 19.264559
v 12.600243 12.836842 9.374094
v 13.156708 16.184299 -5.395886
v 13.173706 5.209804 -5.844123
v 2.823845 4.633768 9.374092
v 12.600128 4.018209 9.374092
v 9.801117 5.327417 19.630709
v 3.656002 14.066298 9.374094
v -0.805138 4.683939 9.374092
v 8.565998 5.548570 -24.737852
v 8.565998 11.517255 -24.737852
vt 0.0854 0.3818
vt 0.0854 0.3818
vt 0.0854 0.3818
vt 0.0854 0.3818
vt 0.0854 0.3818
vt 0.0854 0.3818
vt 0.0854 0.3818
vt 0.0854 0.3818
vt 0.0854 0.3818
vt 0.0854 0.3818
vt 0.0854 0.3818
vt 0.0854 0.3818
vt 0.2060 0.6124
vt 0.2060 0.6124
vt 0.2060 0.6124
vt 0.2060 0.6124
vt 0.0854 0.3818
vt 0.0854 0.3818
vt 0.0854 0.3818
vt 0.0854 0.3818
vt 0.2060 0.6124
vt 0.2060 0.6124
vt 0.2060 0.6124
vt 0.2060 0.6124
vt 0.0854 0.3818
vt 0.0854 0.3818
vt 0.0854 0.3818
vt 0.0854 0.3818
vt 0.2060 0.6124
vt 0.2060 0.6124
vt 0.2060 0.6124
vt 0.2060 0.6124
vt 0.2060 0.6124
vt 0.2060 0.6124
vt 0.2060 0.6124
vt 0.2060 0.6124
vt 0.2060 0.6124
vt 0.2060 0.6124
vt 0.2060 0.6124
vt 0.2060 0.6124
vt 0.2060 0.6124
vt 0.2060 0.6124
vt 0.2060 0.6124
vt 0.2060 0.6124
vt 0.2060 0.6124
vt 0.2060 0.6124
vt 0.2060 0.6124
vt 0.2060 0.6124
vt 0.2060 0.6124
vt 0.2060 0.6124
vt 0.2060 0.6124
vt 0.2060 0.6124
vt 0.2060 0.6124
vt 0.2060 0.6124
vt 0.2060 0.6124
vt 0.0854 0.3818
vt 0.0854 0.3818
vt 0.0854 0.3818
vt 0.0854 0.3818
vt 0.2060 0.6124
vt 0.2060 0.6124
vt 0.2060 0.6124
vt 0.2060 0.6124
vt 0.0854 0.3818
vt 0.0854 0.3818
vt 0.0854 0.3818
vt 0.0854 0.3818
vt 0.0854 0.3818
vt 0.0854 0.3818
vt 0.0854 0.3818
vt 0.0854 0.3818
vt 0.0854 0.3818
vt 0.0854 0.3818
vt 0.0854 0.3818
vt 0.2060 0.6124
vt 0.2060 0.6124
vt 0.2060 0.6124
vt 0.2060 0.6124
vn 0.0000 0.9519 0.3063
vn 0.1131 0.9503 0.2902
vn 0.0000 0.0000 -1.0000
vn -0.1182 -0.9926 -0.0273
vn 0.0000 -0.9990 -0.0439
vn 0.0000 0.0000 1.0000
vn 0.9951 0.0000 -0.0993
vn 0.9979 -0.0244 -0.0598
vn -0.9591 0.0000 0.2830
vn 0.1170 0.9832 -0.1398
vn -0.1952 0.9747 -0.1087
vn -0.9999 0.0000 -0.0159
vn 0.1896 -0.9472 0.2585
vn -0.1132 -0.9507 0.2887
vn 0.9105 -0.0173 0.4131
vn 0.9233 0.0000 0.3840
vn -0.1877 0.9373 -0.2935
vn -0.0866 0.9501 -0.2997
vn -0.9525 0.0000 -0.3044
vn 0.0886 -0.9725 -0.2153
vn 0.1918 -0.9578 -0.2142
vn 0.9336 0.0000 -0.3583
vn 0.0493 0.9542 0.2951
vn -0.0261 0.9646 0.2625
vn 0.0513 0.9930 -0.1062
vn -0.2493 0.9674 0.0438
vn -0.0311 0.8866 -0.4615
vn 0.0372 0.9244 -0.3797
vn 0.1359 -0.9698 -0.2026
vn 0.0256 -0.9962 -0.0835
vn -0.1186 -0.9593 0.2563
vn -0.0525 -0.9714 0.2317
vn 0.1374 -0.9804 0.1413
vn -0.1226 -0.9924 -0.0139
vn -0.2638 -0.9623 -0.0655
vn -0.0460 -0.9983 0.0358
vn 0.1500 0.9748 0.1654
vn 0.1483 0.9633 0.2239
vn 0.8033 0.0255 -0.5950
vn 0.7977 0.0282 -0.6024
vn 0.8015 0.0264 -0.5974
vn 0.7959 0.0290 -0.6047
vn -0.0626 -0.9948 -0.0803
vn -0.0625 -0.9920 0.1096
vn 0.9647 0.0000 0.2633
vn 0.7333 0.0351 0.6790
vn 0.7215 0.0290 0.6918
vn 0.9993 -0.0000 0.0377
vn 0.0676 0.9806 0.1841
vn 0.1063 0.9724 0.2078
vn 0.0832 0.9775 0.1938
vn 0.1070 0.9780 0.1789
vn -0.0280 -0.9955 0.0908
vn -0.0258 -0.9958 0.0883
vn -0.0211 -0.9963 0.0828
vn -0.0138 -0.9953 0.0962
vn -0.0189 -0.9966 0.0803
vn -0.4301 -0.8996 -0.0760
vn 0.1687 -0.9534 -0.2500
vn 0.0910 -0.9249 -0.3692
vn -0.1269 0.9918 -0.0120
vn -0.0191 0.9873 -0.1580
vn -0.0907 0.9956 0.0246
vn 0.0000 0.9998 0.0204
vn 0.0000 -0.8873 -0.4611
vn 0.0805 -0.8829 -0.4626
vn 0.3085 0.9157 0.2574
vn 0.0274 0.9911 0.1301
vn 0.0591 0.9774 0.2031
vn 0.0396 0.9833 -0.1777
vn -0.0794 0.9899 0.1173
vn 0.3189 0.9466 0.0475
vn -0.1129 0.8821 -0.4572
vn -0.2358 0.9150 -0.3274
vn 0.1736 -0.9814 -0.0818
vn 0.3614 -0.8984 0.2495
vn 0.2293 -0.9635 0.1384
vn 0.3540 -0.8800 -0.3166
vn 0.0396 -0.9986 0.0361
vn 0.0719 -0.9896 0.1249
vn -0.4296 -0.8987 0.0877
vn -0.0300 -0.9977 -0.0605
vn -0.0248 -0.9982 -0.0552
vn -0.0282 -0.9979 -0.0586
vn -0.0138 -0.9968 -0.0793
vn -0.0229 -0.9983 -0.0534
vn -0.0636 -0.9267 -0.3704
vn 0.0228 -0.8895 -0.4564
vn 0.0212 0.9871 -0.1589
vn -0.0340 0.9694 -0.2431
usemtl None
s 1
f 1/1/1 2/2/1 3/3/1
f 3/3/2 2/2/2 4/4/2
f 5/5/3 6/6/3 7/7/3
f 7/7/3 6/6/3 8/8/3
f 9/9/4 10/10/4 11/11/4
f 11/11/5 10/10/5 12/12/5
f 11/11/6 12/12/6 3/3/6
f 3/3/6 12/12/6 1/1/6
f 13/13/7 14/14/7 15/15/7
f 15/15/8 14/14/8 16/16/8
f 11/11/9 3/3/9 9/9/9
f 9/9/9 3/3/9 4/4/9
f 4/4/10 2/2/10 17/17/10
f 17/17/11 2/2/11 18/18/11
f 4/4/12 17/17/12 9/9/12
f 9/9/12 17/17/12 19/19/12
f 20/20/13 10/10/13 19/19/13
f 19/19/14 10/10/14 9/9/14
f 21/21/15 22/22/15 23/23/15
f 23/23/16 22/22/16 24/24/16
f 17/17/17 18/18/17 25/25/17
f 25/25/18 18/18/18 26/26/18
f 19/19/19 17/17/19 27/27/19
f 27/27/19 17/17/19 25/25/19
f 28/28/20 20/20/20 27/27/20
f 27/27/21 20/20/21 19/19/21
f 24/24/22 22/22/22 29/29/22
f 29/29/22 22/22/22 30/30/22
f 2/31/23 1/32/23 31/33/23
f 31/33/24 1/32/24 32/34/24
f 2/31/25 31/33/25 18/35/25
f 18/35/26 31/33/26 33/36/26
f 34/37/27 33/36/27 29/29/27
f 29/29/28 33/36/28 24/24/28
f 8/38/3 6/39/3 35/40/3
f 35/40/3 6/39/3 36/41/3
f 20/42/29 28/43/29 37/44/29
f 37/44/30 28/43/30 38/45/30
f 10/46/31 20/42/31 39/47/31
f 39/47/32 20/42/32 40/48/32
f 20/42/33 37/44/33 40/48/33
f 10/46/34 39/47/34 12/49/34
f 39/47/35 41/50/35 12/49/35
f 12/49/36 41/50/36 42/51/36
f 12/49/6 42/51/6 1/32/6
f 1/32/6 42/51/6 32/34/6
f 43/52/37 44/53/37 45/54/37
f 46/55/38 43/52/38 45/54/38
f 47/56/39 21/57/40 46/58/41
f 46/58/41 21/57/40 23/59/42
f 48/60/43 47/61/43 49/62/43
f 50/63/44 48/60/44 49/62/44
f 50/63/45 49/62/45 44/53/45
f 44/53/45 49/62/45 45/54/45
f 14/64/46 50/65/46 16/66/46
f 16/66/47 50/65/47 44/67/47
f 49/62/48 47/61/48 45/54/48
f 45/54/48 47/61/48 46/55/48
f 23/59/49 51/68/49 46/58/49
f 46/58/50 51/68/50 43/69/50
f 16/66/51 44/67/51 51/68/51
f 51/68/52 44/67/52 43/69/52
f 14/64/53 41/70/54 50/65/55
f 52/71/56 48/72/56 41/70/56
f 41/70/54 48/72/57 50/65/55
f 39/73/58 40/74/58 52/71/58
f 30/30/59 38/45/59 53/75/59
f 53/75/60 38/45/60 35/40/60
f 29/29/22 30/30/22 54/76/22
f 54/76/22 30/30/22 53/75/22
f 26/77/61 34/37/61 6/39/61
f 6/39/62 34/37/62 36/41/62
f 25/25/63 26/26/63 5/5/63
f 5/5/64 26/26/64 6/6/64
f 27/27/19 25/25/19 7/7/19
f 7/7/19 25/25/19 5/5/19
f 8/8/65 28/28/65 7/7/65
f 7/7/66 28/28/66 27/27/66
f 31/33/67 32/34/67 51/78/67
f 15/15/68 16/16/68 32/34/68
f 32/34/69 16/16/69 51/78/69
f 24/24/70 33/36/70 23/23/70
f 23/23/71 33/36/71 51/78/71
f 33/36/72 31/33/72 51/78/72
f 34/37/73 26/77/73 33/36/73
f 33/36/74 26/77/74 18/35/74
f 35/40/3 36/41/3 53/75/3
f 53/75/3 36/41/3 54/76/3
f 38/45/75 30/30/75 37/44/75
f 37/44/76 30/30/76 22/22/76
f 40/48/77 37/44/77 21/21/77
f 21/21/78 37/44/78 22/22/78
f 41/50/79 14/14/79 42/51/79
f 42/51/80 14/14/80 13/13/80
f 42/51/6 13/13/6 32/34/6
f 32/34/6 13/13/6 15/15/6
f 52/71/81 41/70/81 39/73/81
f 21/57/82 47/56/83 40/74/84
f 52/71/85 40/74/85 48/72/85
f 40/74/84 47/56/83 48/72/86
f 35/40/87 38/45/87 8/38/87
f 8/38/88 38/45/88 28/43/88
f 36/41/89 34/37/89 54/76/89
f 54/76/90 34/37/90 29/29/90
