# Blender v2.78 (sub 0) OBJ File: ''
# www.blender.org
mtllib SM_Prop_Loghalf_02.mtl
o SM_Prop_Loghalf_02
v -127.853516 -4.084882 23.908796
v -127.853516 -15.898220 9.320503
v -61.688477 -3.672258 23.273390
v -61.688477 -15.190907 9.048958
v -116.474602 -16.880634 -9.425377
v -50.386723 -16.148838 -9.229332
v -127.853516 -6.656882 -25.168509
v -59.057617 -6.180102 -24.579794
v -128.697266 -10.088601 7.090343
v -128.697266 -0.695617 18.689711
v -115.763680 -10.869765 -7.814749
v -128.697266 -2.740731 -20.332262
v 115.644524 -4.084882 23.908796
v 115.644524 -15.898220 9.320503
v 114.946297 -0.421815 18.268141
v 114.946297 -9.619240 6.910166
v 128.000977 -16.880634 -9.425377
v 128.697266 -10.384131 -7.684591
v 128.000977 -6.656882 -25.168509
v 128.697266 -2.424313 -19.941637
v -114.293945 2.185816 15.181959
v -114.293945 -6.077931 4.976879
v -114.293945 -8.065434 -7.063406
v -114.293945 -0.913639 -18.076036
v 115.412102 0.885599 16.254957
v 115.412102 -7.378194 6.049907
v 115.412102 -6.559235 -6.687427
v 115.412102 -0.913639 -18.076036
v 37.146484 -6.011206 -14.755421
v 39.928711 -14.854082 -1.138633
v 29.481447 -14.004348 15.075388
v 29.481447 -3.786559 27.693251
v 115.412102 2.881136 11.421826
v 115.412102 -2.627309 4.494214
v 115.412102 -1.181434 -8.609118
v 115.412102 0.658681 2.964796
v 115.412102 5.935001 8.479507
v -114.293945 -2.430212 -5.553363
v -114.293945 6.352556 -13.947281
v -114.293945 -0.767110 4.536389
v -114.293945 0.419686 -4.789751
v -116.474602 10.867863 -31.895521
v -50.386723 10.907528 -31.139021
v -127.853516 14.047060 28.767290
v -59.057617 14.007410 28.010698
v -114.293945 11.345508 -22.781935
v -114.293945 12.457469 -1.564253
v -114.293945 13.569431 19.653551
v -114.293945 10.802665 12.665056
v 115.412102 13.836677 -21.791914
v 115.412102 12.457469 -1.564253
v 115.412102 13.933639 12.787432
v -115.763680 11.193576 -25.681227
v -128.697266 13.721400 22.552782
v 128.000977 10.867863 -31.895521
v 128.697266 11.219876 -25.179121
v 128.000977 14.047060 28.767290
v 128.697266 13.695052 22.050737
v 115.412102 13.115009 17.768785
v 39.928711 9.146655 -20.574080
v 37.146484 11.896456 31.895525
v -50.386723 13.741096 -31.139021
v -116.474602 13.701427 -31.895521
v -51.746971 14.227391 -21.859877
v -115.763680 14.027141 -25.681227
v -114.293945 14.179074 -22.781935
v -54.847282 12.502198 -0.710737
v -24.996403 11.894069 1.815049
v -51.746971 11.393825 -21.859877
v 39.537743 9.533061 -13.200911
v 15.833527 11.062269 5.269700
v 38.680717 10.380098 2.961595
v 64.053963 10.652298 -6.213607
v -57.972736 16.453129 20.609972
v -114.293945 16.402996 19.653551
v -59.057617 16.840981 28.010698
v -128.697266 16.554966 22.552782
v -127.853516 16.880630 28.767290
v 37.474735 14.405597 25.705065
v 37.146484 14.730021 31.895525
v 128.000977 16.880630 28.767290
v 128.697266 16.528618 22.050737
v 115.412102 15.948578 17.768785
v 39.537743 12.366628 -13.200911
v 115.412102 16.670242 -21.791914
v 39.928711 11.980220 -20.574080
v 128.000977 13.701427 -31.895521
v 128.697266 14.053443 -25.179121
v -89.032379 12.476478 -1.201490
v -55.284859 12.658637 2.274248
v -57.972736 13.619559 20.609972
v -48.155781 12.609190 4.839739
v 37.474735 11.572028 25.705065
v 38.456825 10.601381 7.183885
v 83.210251 11.680793 2.096453
v 99.505341 12.110058 -7.900344
v 82.977386 11.372657 -8.963057
v 83.335014 11.325962 -4.542922
vt 0.9857 0.3129
vt 0.9857 0.3129
vt 0.9857 0.3129
vt 0.9857 0.3129
vt 0.9857 0.3129
vt 0.9857 0.3129
vt 0.9857 0.3129
vt 0.9857 0.3129
vt 0.9857 0.3129
vt 0.9857 0.3129
vt 0.9857 0.3129
vt 0.9857 0.3129
vt 0.9857 0.3129
vt 0.9857 0.3129
vt 0.9857 0.3129
vt 0.9857 0.3129
vt 0.9857 0.3129
vt 0.9857 0.3129
vt 0.9857 0.3129
vt 0.9857 0.3129
vt 0.9857 0.3129
vt 0.9857 0.3129
vt 0.9857 0.3129
vt 0.9857 0.3129
vt 0.9857 0.3129
vt 0.9857 0.3129
vt 0.9857 0.3129
vt 0.9857 0.3129
vt 0.9857 0.3129
vt 0.9857 0.3129
vt 0.9857 0.3129
vt 0.9857 0.3129
vt 0.0868 0.4158
vt 0.0868 0.4158
vt 0.0868 0.4158
vt 0.0868 0.4158
vt 0.0868 0.4158
vt 0.0868 0.4158
vt 0.0933 0.3297
vt 0.0933 0.3297
vt 0.0933 0.3297
vt 0.0933 0.3297
vt 0.0933 0.3297
vt 0.0868 0.4158
vt 0.0868 0.4158
vt 0.0868 0.4158
vt 0.0868 0.4158
vt 0.0868 0.4158
vt 0.0868 0.4158
vt 0.0967 0.3297
vt 0.0967 0.3297
vt 0.0967 0.3297
vt 0.0967 0.3297
vt 0.9857 0.3129
vt 0.9857 0.3129
vt 0.9857 0.3129
vt 0.9857 0.3129
vt 0.0868 0.4158
vt 0.0868 0.4158
vt 0.0868 0.4158
vt 0.0868 0.4158
vt 0.0868 0.4158
vt 0.0868 0.4158
vt 0.0868 0.4158
vt 0.0868 0.4158
vt 0.0868 0.4158
vt 0.0868 0.4158
vt 0.0868 0.4158
vt 0.0868 0.4158
vt 0.9857 0.3129
vt 0.9857 0.3129
vt 0.9857 0.3129
vt 0.9857 0.3129
vt 0.9857 0.3129
vt 0.9857 0.3129
vt 0.9857 0.3129
vt 0.9857 0.3129
vt 0.9857 0.3129
vt 0.9857 0.3129
vt 0.9857 0.3129
vt 0.9857 0.3129
vt 0.0868 0.4158
vt 0.0933 0.3297
vt 0.9908 0.3171
vt 0.9908 0.3171
vt 0.9908 0.3171
vt 0.9908 0.3171
vt 0.9908 0.3171
vt 0.0868 0.4234
vt 0.0868 0.4234
vt 0.0868 0.4234
vt 0.0868 0.4234
vt 0.0868 0.4234
vt 0.0868 0.4234
vt 0.0868 0.4234
vt 0.9908 0.3171
vt 0.9908 0.3171
vt 0.9908 0.3171
vt 0.9908 0.3171
vt 0.9908 0.3171
vt 0.9908 0.3171
vt 0.9908 0.3171
vt 0.9908 0.3171
vt 0.9908 0.3171
vt 0.9908 0.3171
vt 0.9908 0.3171
vt 0.9908 0.3171
vt 0.9908 0.3171
vt 0.9908 0.3171
vt 0.9908 0.3171
vt 0.0868 0.4234
vt 0.0868 0.4234
vt 0.0868 0.4234
vt 0.0868 0.4234
vt 0.0868 0.4234
vt 0.0868 0.4234
vt 0.0868 0.4234
vt 0.0868 0.4234
vt 0.0868 0.4234
vt 0.0868 0.4234
vt 0.0868 0.4234
vt 0.0868 0.4234
vt 0.0868 0.4234
vt 0.0868 0.4234
vt 0.0868 0.3323
vt 0.0868 0.3323
vt 0.0868 0.3323
vt 0.0868 0.3323
vt 0.0868 0.3323
vt 0.0868 0.3323
vt 0.0868 0.3323
vt 0.0868 0.3323
vt 0.0868 0.3323
vt 0.0868 0.3323
vt 0.0868 0.3323
vt 0.0868 0.3323
vt 0.0868 0.3323
vt 0.0868 0.4234
vt 0.0868 0.4234
vt 0.0868 0.4234
vt 0.0868 0.4234
vt 0.9908 0.3171
vt 0.9908 0.3171
vt 0.9908 0.3171
vt 0.9908 0.3171
vt 0.9908 0.3171
vt 0.9908 0.3171
vt 0.9908 0.3171
vt 0.9908 0.3171
vt 0.9908 0.3171
vt 0.9908 0.3171
vt 0.9908 0.3171
vt 0.9908 0.3171
vt 0.9908 0.3171
vt 0.9908 0.3171
vt 0.9908 0.3171
vt 0.9908 0.3171
vt 0.9908 0.3171
vt 0.9908 0.3171
vt 0.9908 0.3171
vt 0.9908 0.3171
vn 0.0109 -0.7771 0.6293
vn 0.0109 -0.9982 0.0589
vn 0.0109 -0.9982 0.0590
vn 0.0103 -0.9982 0.0587
vn 0.0097 -0.9982 0.0583
vn 0.0105 -0.8351 -0.5499
vn 0.0106 -0.8354 -0.5496
vn 0.0107 -0.8355 -0.5494
vn 0.0109 -0.8358 -0.5489
vn -0.9900 -0.1097 0.0888
vn -0.8253 0.2352 -0.5133
vn -0.7197 -0.3375 -0.6068
vn -0.8253 -0.0530 0.5621
vn -0.7197 -0.5956 0.3568
vn 0.9941 0.0843 -0.0683
vn 0.8064 0.2879 0.5165
vn 0.6972 -0.2543 0.6702
vn 0.9941 -0.0908 -0.0589
vn -0.2950 0.7426 -0.6013
vn -0.2967 0.9050 -0.3049
vn -0.8741 0.4793 -0.0791
vn -0.1957 0.7177 0.6683
vn -0.8827 0.3941 0.2559
vn 0.9798 -0.1554 0.1258
vn 0.2851 0.9330 0.2197
vn 0.9780 -0.2084 -0.0134
vn 0.2717 0.8071 0.5241
vn 0.1621 0.8841 0.4383
vn 0.0593 -0.8215 -0.5670
vn 0.0614 -0.8313 -0.5524
vn 0.0091 -0.9983 0.0582
vn -0.0315 -0.7768 0.6290
vn -0.0696 -0.8431 -0.5333
vn -0.0686 -0.8383 -0.5409
vn -0.0692 -0.8415 -0.5359
vn -0.0682 -0.8367 -0.5434
vn -0.0193 -0.9990 0.0399
vn -0.0193 -0.9990 0.0397
vn 0.0249 -0.7769 0.6291
vn 1.0000 0.0000 0.0000
vn -1.0000 0.0000 0.0000
vn 0.0105 -0.3643 -0.9312
vn 0.0108 -0.3635 -0.9315
vn 0.0107 -0.3636 -0.9315
vn 0.0109 -0.3632 -0.9317
vn 0.0109 -0.2588 0.9659
vn 0.0108 -0.2592 0.9658
vn 0.0106 -0.2599 0.9656
vn 0.0105 -0.2603 0.9655
vn -0.8253 0.5609 0.0650
vn -0.7197 0.4728 -0.5084
vn -0.9900 -0.0365 0.1363
vn 0.9941 -0.0388 -0.1010
vn 0.8065 -0.5802 0.1140
vn 0.6972 -0.5588 -0.4492
vn -0.1957 0.5045 0.8409
vn -0.8827 0.1684 0.4387
vn -0.2759 0.2488 -0.9284
vn -0.1805 0.3596 -0.9155
vn 0.1694 0.3532 0.9201
vn 0.2833 0.2343 0.9300
vn 0.3083 -0.0457 -0.9502
vn 0.9775 -0.0259 0.2093
vn 0.0939 -0.3979 -0.9126
vn 0.1006 -0.3726 -0.9225
vn -0.0472 -0.2520 0.9666
vn -0.0444 -0.2383 0.9702
vn -0.1095 -0.3386 -0.9345
vn -0.1123 -0.3561 -0.9277
vn 0.0412 -0.2773 0.9599
vn 0.0408 -0.2790 0.9594
vn 0.0401 -0.2822 0.9585
vn 0.0397 -0.2838 0.9581
vn -0.0000 0.9986 -0.0523
vn 0.0245 0.9985 -0.0487
vn 0.0246 0.9985 -0.0497
vn 0.0247 0.9985 -0.0490
vn 0.0249 0.9984 -0.0500
vn 0.0247 0.9984 -0.0510
vn -0.0302 0.9981 -0.0539
vn 0.0241 0.9984 -0.0510
vn 0.0241 0.9984 -0.0504
vn 0.0240 0.9985 -0.0496
vn 0.0239 0.9985 -0.0488
vn -0.0255 0.9982 -0.0537
vn -0.0255 0.9982 -0.0542
vn -0.0255 0.9982 -0.0551
vn -0.0255 0.9981 -0.0559
vn -0.0255 0.9981 -0.0562
vn -0.0628 0.9965 -0.0556
vn -0.0259 0.9984 -0.0496
vn -0.0539 0.6768 -0.7342
vn 0.0252 0.9985 -0.0486
vn 0.0252 0.9984 -0.0503
vn 0.0252 0.9985 -0.0495
vn 0.0252 0.9984 -0.0510
vn -0.2550 0.8991 -0.3559
vn -0.0024 0.9933 0.1155
vn 0.0242 0.9985 -0.0489
vn 0.0243 0.9985 -0.0489
vn 0.0243 0.9985 -0.0500
vn -0.0252 0.9982 -0.0537
vn -0.0280 0.9990 -0.0340
vn -0.1220 0.9794 0.1610
vn -0.0356 0.9941 -0.1023
vn -0.0455 0.9989 0.0142
vn -0.0453 0.9989 0.0142
vn -0.0409 0.9991 0.0139
vn -0.0361 0.9993 0.0135
vn -0.0535 0.9982 0.0277
vn -0.0159 0.9886 0.1497
vn -0.0488 0.9965 0.0679
vn -0.0236 0.9997 0.0044
vn -0.0596 0.9967 -0.0544
vn -0.8919 0.0000 0.4522
vn -0.0147 0.0000 0.9999
vn 0.0114 0.0000 -0.9999
vn -0.9935 0.0000 0.1137
vn 0.1125 0.0000 0.9937
vn 0.2471 0.0000 0.9690
vn 0.9947 0.0000 -0.1031
vn -0.1275 0.0000 -0.9918
vn -0.0944 0.0000 0.9955
vn 0.1162 0.0000 -0.9932
vn 0.0170 0.0000 -0.9999
vn -0.1973 0.0000 -0.9803
vn -0.9909 0.0000 0.1345
vn 0.0110 0.0000 0.9999
vn 0.0533 0.0000 -0.9986
vn -0.0403 0.0000 0.9992
vn -0.1013 0.0000 -0.9949
vn 0.0344 0.0000 0.9994
vn 0.9947 0.0000 0.1031
vn 0.3068 0.0000 -0.9518
usemtl None
s 1
f 1/1/1 2/2/1 3/3/1
f 3/3/1 2/2/1 4/4/1
f 2/2/2 5/5/3 4/4/4
f 4/4/4 5/5/3 6/6/5
f 7/7/6 8/8/7 5/5/8
f 5/5/8 8/8/7 6/6/9
f 2/2/10 1/1/10 9/9/10
f 9/9/10 1/1/10 10/10/10
f 5/5/11 2/2/11 11/11/11
f 11/11/12 2/2/12 9/9/12
f 5/5/13 11/11/13 7/7/13
f 7/7/14 11/11/14 12/12/14
f 13/13/15 14/14/15 15/15/15
f 15/15/15 14/14/15 16/16/15
f 14/14/16 17/17/16 16/16/16
f 16/16/17 17/17/17 18/18/17
f 17/17/18 19/19/18 18/18/18
f 18/18/18 19/19/18 20/20/18
f 10/10/19 21/21/19 9/9/19
f 9/9/19 21/21/19 22/22/19
f 9/9/20 22/22/20 11/11/20
f 11/11/21 22/22/21 23/23/21
f 12/12/22 11/11/22 24/24/22
f 24/24/23 11/11/23 23/23/23
f 15/15/24 16/16/24 25/25/24
f 25/25/24 16/16/24 26/26/24
f 18/18/25 27/27/25 16/16/25
f 16/16/26 27/27/26 26/26/26
f 18/18/27 20/20/27 27/27/27
f 27/27/28 20/20/28 28/28/28
f 8/8/29 29/29/29 6/6/29
f 6/6/30 29/29/30 30/30/30
f 4/4/4 6/6/5 31/31/31
f 31/31/31 6/6/5 30/30/31
f 4/4/32 31/31/32 3/3/32
f 3/3/32 31/31/32 32/32/32
f 30/30/33 29/29/34 17/17/35
f 17/17/35 29/29/34 19/19/36
f 31/31/37 30/30/37 14/14/38
f 14/14/38 30/30/37 17/17/38
f 32/32/39 31/31/39 13/13/39
f 13/13/39 31/31/39 14/14/39
f 25/33/40 26/34/40 33/35/40
f 33/35/40 26/34/40 34/36/40
f 26/34/40 27/37/40 34/36/40
f 34/36/40 27/37/40 35/38/40
f 34/39/40 35/40/40 36/41/40
f 34/39/40 36/41/40 33/42/40
f 33/42/40 36/41/40 37/43/40
f 23/44/41 38/45/41 24/46/41
f 24/46/41 38/45/41 39/47/41
f 23/44/41 22/48/41 38/45/41
f 38/45/41 22/48/41 40/49/41
f 38/50/41 40/51/41 41/52/41
f 39/53/41 38/50/41 41/52/41
f 7/7/42 42/54/43 8/8/44
f 8/8/44 42/54/43 43/55/45
f 1/1/46 3/3/47 44/56/48
f 44/56/48 3/3/47 45/57/49
f 24/46/41 39/47/41 46/58/41
f 46/58/41 39/47/41 47/59/41
f 48/60/41 49/61/41 21/62/41
f 21/62/41 49/61/41 47/59/41
f 22/48/41 21/62/41 40/49/41
f 40/49/41 21/62/41 47/59/41
f 41/63/41 40/49/41 47/59/41
f 39/47/41 41/63/41 47/59/41
f 28/64/40 50/65/40 51/66/40
f 52/67/40 37/68/40 51/66/40
f 37/68/40 36/69/40 51/66/40
f 36/69/40 35/38/40 51/66/40
f 27/37/40 28/64/40 35/38/40
f 35/38/40 28/64/40 51/66/40
f 42/54/50 7/7/50 53/70/50
f 53/70/51 7/7/51 12/12/51
f 1/1/52 44/56/52 10/10/52
f 10/10/52 44/56/52 54/71/52
f 19/19/53 55/72/53 20/20/53
f 20/20/53 55/72/53 56/73/53
f 57/74/54 13/13/54 58/75/54
f 58/75/55 13/13/55 15/15/55
f 12/12/56 24/24/56 53/70/56
f 53/70/57 24/24/57 46/76/57
f 10/10/58 54/71/58 21/21/58
f 21/21/59 54/71/59 48/77/59
f 20/20/60 56/73/60 28/28/60
f 28/28/61 56/73/61 50/78/61
f 58/75/62 15/15/62 59/79/62
f 59/79/63 15/15/63 25/25/63
f 8/8/64 43/55/64 29/29/64
f 29/29/65 43/55/65 60/80/65
f 3/3/66 32/32/66 45/57/66
f 45/57/67 32/32/67 61/81/67
f 29/29/68 60/80/68 19/19/68
f 19/19/69 60/80/69 55/72/69
f 32/32/70 13/13/71 61/81/72
f 61/81/72 13/13/71 57/74/73
f 25/33/40 33/35/40 59/82/40
f 59/82/40 33/35/40 52/67/40
f 52/83/40 33/42/40 37/43/40
f 62/84/74 63/85/74 64/86/74
f 63/85/74 65/87/74 64/86/74
f 65/87/74 66/88/74 64/86/74
f 67/89/75 68/90/76 69/91/77
f 69/91/77 68/90/76 70/92/78
f 68/90/76 71/93/79 70/92/78
f 70/92/78 71/93/79 72/94/79
f 73/95/80 70/92/80 72/94/80
f 74/96/74 75/97/74 76/98/74
f 77/99/74 78/100/74 75/97/74
f 75/97/74 78/100/74 76/98/74
f 79/101/81 74/96/82 80/102/83
f 80/102/83 74/96/82 76/98/84
f 80/102/85 81/103/86 79/101/87
f 81/103/86 82/104/88 79/101/87
f 83/105/89 79/101/87 82/104/88
f 84/106/90 85/107/90 86/108/90
f 87/109/91 86/108/91 88/110/91
f 86/108/92 85/107/92 88/110/92
f 62/84/93 64/86/94 86/108/95
f 86/108/95 64/86/94 84/106/96
f 69/91/74 46/111/74 67/89/74
f 67/89/74 46/111/74 89/112/74
f 46/111/74 47/113/74 89/112/74
f 90/114/74 89/112/74 91/115/74
f 91/115/74 89/112/74 48/116/74
f 48/116/97 89/112/97 49/117/97
f 89/112/98 47/113/98 49/117/98
f 90/114/75 91/115/99 92/118/100
f 91/115/99 93/119/101 92/118/100
f 92/118/100 93/119/101 68/90/76
f 68/90/76 93/119/101 71/93/79
f 94/120/79 71/93/79 93/119/101
f 93/119/102 59/121/102 94/120/102
f 94/120/103 59/121/103 95/122/103
f 59/121/104 52/123/104 95/122/104
f 51/124/105 95/122/105 52/123/105
f 90/125/75 92/126/100 67/127/75
f 67/127/75 92/126/100 68/128/76
f 67/127/74 89/129/74 90/125/74
f 72/130/79 71/131/79 94/132/79
f 95/133/80 72/130/80 94/132/80
f 96/134/106 97/135/107 98/136/108
f 98/136/108 97/135/107 73/137/109
f 70/92/110 73/95/110 50/138/110
f 73/95/111 97/139/111 50/138/111
f 50/138/112 97/139/112 96/140/112
f 72/94/80 95/122/80 73/95/80
f 73/95/80 95/122/80 98/141/80
f 51/124/113 96/140/113 95/122/113
f 95/122/114 96/140/114 98/141/114
f 50/138/112 96/140/112 51/124/112
f 53/142/115 46/143/115 65/87/115
f 65/87/115 46/143/115 66/88/115
f 46/143/116 69/144/116 66/88/116
f 66/88/116 69/144/116 64/86/116
f 43/145/117 42/146/117 62/84/117
f 62/84/117 42/146/117 63/85/117
f 42/146/118 53/142/118 63/85/118
f 63/85/118 53/142/118 65/87/118
f 70/147/119 50/148/119 84/106/119
f 84/106/119 50/148/119 85/107/119
f 56/149/120 88/110/120 50/148/120
f 50/148/120 88/110/120 85/107/120
f 55/150/121 87/109/121 56/149/121
f 56/149/121 87/109/121 88/110/121
f 60/151/122 86/108/122 55/150/122
f 55/150/122 86/108/122 87/109/122
f 70/147/123 84/106/123 69/144/123
f 69/144/123 84/106/123 64/86/123
f 60/151/124 43/145/124 86/108/124
f 86/108/124 43/145/124 62/84/124
f 91/152/125 48/153/125 74/96/125
f 74/96/125 48/153/125 75/97/125
f 48/153/126 54/154/126 75/97/126
f 75/97/126 54/154/126 77/99/126
f 54/154/127 44/155/127 77/99/127
f 77/99/127 44/155/127 78/100/127
f 44/155/128 45/156/128 78/100/128
f 78/100/128 45/156/128 76/98/128
f 93/157/129 91/152/129 79/101/129
f 79/101/129 91/152/129 74/96/129
f 61/158/130 80/102/130 45/156/130
f 45/156/130 80/102/130 76/98/130
f 93/157/131 79/101/131 59/159/131
f 59/159/131 79/101/131 83/105/131
f 61/158/132 57/160/132 80/102/132
f 80/102/132 57/160/132 81/103/132
f 58/161/133 82/104/133 57/160/133
f 57/160/133 82/104/133 81/103/133
f 59/159/134 83/105/134 58/161/134
f 58/161/134 83/105/134 82/104/134
