# Blender v2.78 (sub 0) OBJ File: ''
# www.blender.org
mtllib SM_Prop_Sack_02.mtl
o SM_Prop_Sack_02
v -0.000023 33.969383 9.840146
v -0.000023 19.472773 11.808426
v 15.107307 33.637249 7.991137
v 17.135391 18.477655 9.063905
v 17.135391 18.477661 -9.063899
v -0.000023 19.472778 -11.808420
v 15.107307 33.637249 -7.991125
v -0.000023 33.969383 -9.840135
v -0.000023 -0.491611 2.951258
v -0.000023 -0.491611 -2.951258
v 19.866013 0.000002 2.951258
v 19.866013 0.000002 -2.951258
v 22.865856 18.477657 2.784493
v 22.865856 18.477659 -2.784487
v 20.159531 33.637249 2.454932
v 20.159531 33.637249 -2.454921
v -22.865898 18.477659 -2.784487
v -22.865898 18.477657 2.784493
v -20.159576 33.637249 -2.454921
v -20.159576 33.637249 2.454932
v -24.347588 2.688938 -2.128101
v -24.347588 2.688938 2.128102
v -20.159576 5.377872 -2.454926
v -20.159576 5.377871 2.454928
v -0.000023 7.172823 11.371317
v -0.000023 1.132019 8.228740
v 15.107307 5.377869 7.991132
v 19.478027 2.688936 5.904880
v 24.347542 2.688938 2.128102
v 24.347542 2.688938 -2.128101
v 20.159531 5.377871 2.454928
v 20.159531 5.377872 -2.454926
v -0.000023 7.172829 -11.371315
v 15.107307 5.377874 -7.991130
v -0.000023 1.132023 -8.228740
v 19.478027 2.688940 -5.904879
v -24.832565 0.000002 -0.763249
v -24.832565 0.000002 0.763249
v 24.832523 0.000002 0.763249
v 24.832523 0.000002 -0.763249
v -15.107353 33.637249 7.991137
v -17.135437 18.477655 9.063905
v -19.478081 2.688936 5.904880
v -15.107353 5.377869 7.991132
v -19.866058 0.000002 2.951258
v -19.866058 0.000002 -2.951258
v -19.478081 2.688940 -5.904879
v -15.107353 5.377874 -7.991130
v -17.135437 18.477661 -9.063899
v -15.107353 33.637249 -7.991125
v 7.794022 40.666515 1.331338
v 7.794022 40.666515 -1.331324
v 7.611435 41.823299 1.417008
v 7.611435 41.823299 -1.416994
v 5.703918 41.823299 4.612543
v 5.840729 40.666515 4.333672
v -0.000023 41.823299 5.479133
v -0.000023 40.666515 5.147871
v -5.703964 41.823299 4.612543
v -5.840775 40.666515 4.333672
v -7.794067 40.666515 1.331338
v -7.611481 41.823299 1.417008
v -7.794067 40.666515 -1.331324
v -7.611481 41.823299 -1.416994
v -5.703964 41.823299 -4.612529
v -5.840775 40.666515 -4.333658
v -0.000023 40.666515 -5.147857
v -0.000023 41.823299 -5.479119
v 5.840729 40.666515 -4.333658
v 5.703918 41.823299 -4.612529
v 14.457825 38.274933 1.895989
v 14.457825 38.274933 -1.895977
v 7.242821 40.166779 1.237185
v 7.242821 40.166779 -1.237171
v 10.834518 38.274933 6.171697
v 5.427666 40.166779 4.027192
v -0.000023 38.274933 7.331215
v -0.000023 40.166779 4.783810
v -10.834564 38.274933 6.171697
v -5.427711 40.166779 4.027192
v -14.457870 38.274933 1.895989
v -7.242867 40.166779 1.237185
v -14.457870 38.274933 -1.895977
v -7.242867 40.166779 -1.237171
v -10.834564 38.274933 -6.171683
v -5.427711 40.166779 -4.027178
v -0.000023 38.274933 -7.331202
v -0.000023 40.166779 -4.783796
v 10.834518 38.274933 -6.171683
v 5.427666 40.166779 -4.027178
v 6.213890 42.242252 -1.156817
v 6.099602 44.052040 -0.619535
v 6.213890 42.242252 1.156831
v 6.185791 43.808506 1.494928
v 4.730278 43.616329 3.970632
v 4.656609 42.242252 3.765631
v 0.113884 43.788322 4.890537
v -0.000023 42.242252 4.473106
v -4.555252 44.109253 4.517368
v -4.656654 42.242252 3.765631
v -6.213936 42.242252 1.156831
v -6.205055 44.466270 2.224528
v -6.213936 42.242252 -1.156817
v -6.369293 44.652687 -0.300745
v -4.913773 44.485565 -2.780370
v -4.656654 42.242252 -3.765617
v -0.000023 42.242252 -4.473092
v -0.297379 44.150852 -3.620906
v 4.656609 42.242252 -3.765617
v 4.371811 43.849060 -3.150140
v 7.598793 46.160347 6.206669
v 6.121941 47.973434 5.210508
v 0.417343 46.711540 7.998218
v 0.428589 48.433083 6.539384
v 6.449730 46.906189 -4.300909
v -0.900597 47.873363 -4.652933
v 5.247925 48.499584 -2.726910
v -0.562630 49.270386 -2.913362
v -6.932983 47.740036 7.958829
v -5.381958 49.223976 6.597587
v -8.082047 48.946030 -3.115779
v -6.255974 50.114399 -1.788717
v -9.674210 48.884193 4.876048
v -7.521629 50.043816 4.486724
v -10.200539 49.481606 0.565542
v -7.963463 50.519394 0.785487
v 9.717285 46.776226 2.537929
v 7.829422 48.375069 2.635778
v 9.441139 47.556679 -0.455911
v 7.637779 48.916706 0.558039
v 2.851074 45.512836 0.033617
v -0.286774 46.014805 0.590393
v -3.424614 46.516773 1.147171
vt 0.0910 0.3253
vt 0.0910 0.3253
vt 0.0910 0.3253
vt 0.0910 0.3253
vt 0.0910 0.3253
vt 0.0910 0.3253
vt 0.0910 0.3253
vt 0.0910 0.3253
vt 0.0910 0.3253
vt 0.0910 0.3253
vt 0.0910 0.3253
vt 0.0910 0.3253
vt 0.0910 0.3253
vt 0.0910 0.3253
vt 0.0910 0.3253
vt 0.0910 0.3253
vt 0.0910 0.3253
vt 0.0910 0.3253
vt 0.0910 0.3253
vt 0.0910 0.3253
vt 0.0910 0.3253
vt 0.0910 0.3253
vt 0.0910 0.3253
vt 0.0910 0.3253
vt 0.0910 0.3253
vt 0.0910 0.3253
vt 0.0910 0.3253
vt 0.0910 0.3253
vt 0.0910 0.3253
vt 0.0910 0.3253
vt 0.0910 0.3253
vt 0.0910 0.3253
vt 0.0910 0.3253
vt 0.0910 0.3253
vt 0.0910 0.3253
vt 0.0910 0.3253
vt 0.0910 0.3253
vt 0.0910 0.3253
vt 0.0910 0.3253
vt 0.0910 0.3253
vt 0.0910 0.3253
vt 0.0910 0.3253
vt 0.0910 0.3253
vt 0.0910 0.3253
vt 0.0910 0.3253
vt 0.0910 0.3253
vt 0.0910 0.3253
vt 0.0910 0.3253
vt 0.0910 0.3253
vt 0.0910 0.3253
vt 0.0337 0.3309
vt 0.0337 0.3309
vt 0.0337 0.3309
vt 0.0337 0.3309
vt 0.0337 0.3309
vt 0.0337 0.3309
vt 0.0337 0.3309
vt 0.0337 0.3309
vt 0.0337 0.3309
vt 0.0337 0.3309
vt 0.0337 0.3309
vt 0.0337 0.3309
vt 0.0337 0.3309
vt 0.0337 0.3309
vt 0.0337 0.3309
vt 0.0337 0.3309
vt 0.0337 0.3309
vt 0.0337 0.3309
vt 0.0337 0.3309
vt 0.0337 0.3309
vt 0.0910 0.3253
vt 0.0910 0.3253
vt 0.0910 0.3253
vt 0.0910 0.3253
vt 0.0910 0.3253
vt 0.0910 0.3253
vt 0.0910 0.3253
vt 0.0910 0.3253
vt 0.0910 0.3253
vt 0.0910 0.3253
vt 0.0910 0.3253
vt 0.0910 0.3253
vt 0.0910 0.3253
vt 0.0910 0.3253
vt 0.0910 0.3253
vt 0.0910 0.3253
vt 0.0910 0.3253
vt 0.0910 0.3253
vt 0.0910 0.3253
vt 0.0910 0.3253
vt 0.0910 0.3253
vt 0.0910 0.3253
vt 0.0910 0.3253
vt 0.0910 0.3253
vt 0.0910 0.3253
vt 0.0910 0.3253
vt 0.0910 0.3253
vt 0.0910 0.3253
vt 0.0910 0.3253
vt 0.0910 0.3253
vt 0.0910 0.3253
vt 0.0910 0.3253
vt 0.0910 0.3253
vt 0.0910 0.3253
vt 0.0910 0.3253
vt 0.0910 0.3253
vt 0.0910 0.3253
vt 0.0910 0.3253
vt 0.0910 0.3253
vt 0.0910 0.3253
vt 0.0910 0.3253
vt 0.0910 0.3253
vt 0.0910 0.3253
vt 0.0910 0.3253
vt 0.0910 0.3253
vt 0.0910 0.3253
vt 0.0910 0.3253
vt 0.0910 0.3253
vt 0.0910 0.3253
vt 0.0910 0.3253
vt 0.0910 0.3253
vt 0.0910 0.3253
vt 0.0910 0.3253
vt 0.0910 0.3253
vt 0.0910 0.3253
vt 0.0910 0.3253
vt 0.0910 0.3253
vt 0.0910 0.3253
vt 0.0910 0.3253
vt 0.0910 0.3253
vt 0.0910 0.3253
vt 0.0910 0.3253
vt 0.0910 0.3253
vt 0.0337 0.3309
vt 0.0337 0.3309
vt 0.0337 0.3309
vt 0.0337 0.3309
vt 0.0337 0.3309
vt 0.0337 0.3309
vt 0.0337 0.3309
vt 0.0337 0.3309
vt 0.0337 0.3309
vt 0.0337 0.3309
vt 0.0337 0.3309
vt 0.0337 0.3309
vt 0.0337 0.3309
vt 0.0337 0.3309
vt 0.0337 0.3309
vt 0.0337 0.3309
vt 0.0337 0.3309
vt 0.0337 0.3309
vt 0.0337 0.3309
vt 0.0337 0.3309
vn 0.1233 0.1335 0.9833
vn 0.1627 0.0913 0.9825
vn 0.1627 0.0913 -0.9825
vn 0.1233 0.1335 -0.9833
vn 0.0247 -0.9997 0.0000
vn 0.9844 0.1757 0.0000
vn -0.9844 0.1757 0.0000
vn -0.5403 0.8415 0.0000
vn 0.1422 -0.4568 0.8781
vn 0.1415 -0.4542 0.8796
vn 0.1420 -0.4560 0.8786
vn 0.1412 -0.4533 0.8801
vn 0.5403 0.8415 0.0000
vn 0.1422 -0.4568 -0.8781
vn 0.1420 -0.4560 -0.8786
vn 0.1415 -0.4541 -0.8796
vn 0.1412 -0.4533 -0.8801
vn -0.9841 0.1775 0.0000
vn 0.1108 -0.9499 0.2922
vn 0.0183 -0.7381 0.6744
vn 0.9841 0.1775 0.0000
vn 0.1108 -0.9499 -0.2922
vn 0.0183 -0.7381 -0.6744
vn -0.1233 0.1335 0.9833
vn -0.1627 0.0913 0.9825
vn -0.1412 -0.4533 0.8801
vn -0.1415 -0.4542 0.8796
vn -0.1420 -0.4560 0.8786
vn -0.1422 -0.4568 0.8781
vn -0.0183 -0.7381 0.6744
vn -0.1108 -0.9499 0.2922
vn -0.0247 -0.9997 0.0000
vn -0.0183 -0.7381 -0.6744
vn -0.1108 -0.9499 -0.2922
vn -0.1412 -0.4533 -0.8801
vn -0.1420 -0.4560 -0.8786
vn -0.1415 -0.4542 -0.8796
vn -0.1422 -0.4568 -0.8781
vn -0.1627 0.0913 -0.9825
vn -0.1233 0.1335 -0.9833
vn -0.7309 0.1450 0.6670
vn -0.4650 0.6514 0.5996
vn -0.6115 0.5610 0.5580
vn -0.3754 -0.3648 0.8521
vn -0.4834 -0.6148 0.6232
vn 0.0000 -1.0000 0.0000
vn -0.4834 -0.6148 -0.6232
vn -0.3754 -0.3648 -0.8521
vn -0.6115 0.5610 -0.5580
vn -0.4650 0.6514 -0.5996
vn -0.7309 0.1450 -0.6670
vn 0.4834 -0.6148 0.6232
vn 0.3754 -0.3648 0.8521
vn 0.6115 0.5610 0.5580
vn 0.4650 0.6514 0.5996
vn 0.7309 0.1450 0.6670
vn 0.7309 0.1450 -0.6670
vn 0.6115 0.5610 -0.5580
vn 0.4650 0.6514 -0.5996
vn 0.4834 -0.6148 -0.6232
vn 0.3754 -0.3648 -0.8521
vn 0.9878 0.1559 0.0000
vn 0.8584 -0.0220 0.5124
vn 0.8347 0.0915 0.5430
vn 0.1445 -0.2724 0.9513
vn 0.1348 -0.2171 0.9668
vn -0.1445 -0.2724 0.9513
vn -0.1348 -0.2171 0.9668
vn -0.8347 0.0915 0.5430
vn -0.8584 -0.0220 0.5124
vn -0.9878 0.1559 0.0000
vn -0.8584 -0.0220 -0.5124
vn -0.8347 0.0915 -0.5430
vn -0.1348 -0.2171 -0.9668
vn -0.1445 -0.2724 -0.9513
vn 0.1348 -0.2171 -0.9668
vn 0.1445 -0.2724 -0.9513
vn 0.8347 0.0915 -0.5430
vn 0.8584 -0.0220 -0.5124
vn 0.2536 0.9673 0.0000
vn 0.2319 0.9527 0.1965
vn 0.2640 0.9491 0.1717
vn 0.0609 0.8197 0.5695
vn 0.0828 0.8001 0.5942
vn -0.0609 0.8197 0.5695
vn -0.0828 0.8001 0.5942
vn -0.2319 0.9527 0.1965
vn -0.2640 0.9491 0.1717
vn -0.2536 0.9673 0.0000
vn -0.2319 0.9527 -0.1965
vn -0.2640 0.9491 -0.1717
vn -0.0609 0.8197 -0.5695
vn -0.0828 0.8001 -0.5942
vn 0.0609 0.8197 -0.5695
vn 0.0828 0.8001 -0.5942
vn 0.2319 0.9527 -0.1965
vn 0.2640 0.9491 -0.1717
vn 0.9980 0.0630 0.0000
vn 0.9989 0.0261 -0.0377
vn 0.8599 -0.1201 0.4962
vn 0.8548 -0.0948 0.5102
vn 0.1875 -0.1548 0.9700
vn 0.1447 -0.2678 0.9525
vn -0.0943 -0.2530 0.9629
vn -0.1399 -0.3633 0.9211
vn -0.8344 -0.2358 0.4981
vn -0.8115 -0.1798 0.5559
vn -0.9979 -0.0643 0.0000
vn -0.9977 -0.0262 0.0629
vn -0.8518 0.1257 -0.5085
vn -0.1386 0.3857 -0.9122
vn -0.1382 0.3849 -0.9125
vn 0.1392 0.3756 -0.9163
vn 0.1179 0.4201 -0.8998
vn 0.8108 0.3291 -0.4840
vn 0.7979 0.2173 -0.5622
vn 0.2357 0.6084 0.7578
vn 0.2245 0.6291 0.7442
vn 0.1293 0.7445 -0.6549
vn 0.1215 0.7623 -0.6358
vn 0.0833 0.6250 0.7762
vn 0.0952 0.6432 0.7598
vn -0.0231 0.7659 -0.6425
vn -0.0078 0.7804 -0.6252
vn -0.3114 0.7666 0.5615
vn -0.2558 0.7850 0.5642
vn -0.3685 0.8660 -0.3380
vn -0.3134 0.8840 -0.3470
vn -0.4284 0.8864 0.1752
vn -0.4442 0.8804 0.1661
vn 0.5898 0.6687 0.4528
vn 0.5416 0.6983 0.4681
vn 0.6443 0.7524 0.1367
vn 0.4254 0.7778 -0.4626
vn 0.4004 0.8263 -0.3962
vn -0.0239 0.9087 -0.4168
vn 0.0791 0.9201 -0.3835
vn 0.0620 0.6502 0.7573
vn 0.2312 0.7217 0.6524
vn 0.2311 0.7218 0.6524
vn 0.1192 0.9056 -0.4070
vn 0.2357 0.7190 0.6538
vn 0.2314 0.7216 0.6525
vn -0.5787 0.7745 0.2553
vn -0.9793 -0.2023 -0.0000
vn -0.7283 -0.1672 0.6646
vn -0.1561 -0.0351 0.9871
vn -0.2044 -0.1113 0.9725
vn 0.1561 -0.0351 0.9871
vn 0.2044 -0.1113 0.9725
vn 0.7283 -0.1672 0.6646
vn 0.9793 -0.2023 -0.0000
vn 0.7283 -0.1672 -0.6646
vn 0.1561 -0.0351 -0.9871
vn 0.2044 -0.1113 -0.9725
vn -0.2044 -0.1113 -0.9725
vn -0.1561 -0.0351 -0.9871
vn -0.7283 -0.1672 -0.6646
vn 0.1180 0.4550 -0.8826
vn 0.0921 0.5013 -0.8603
vn 0.5251 0.7033 -0.4792
vn 0.5513 0.6912 -0.4672
vn 0.6310 0.7758 0.0000
vn 0.5513 0.6912 0.4672
vn 0.5251 0.7033 0.4792
vn 0.0921 0.5013 0.8603
vn 0.1180 0.4550 0.8826
vn -0.0921 0.5013 0.8603
vn -0.1180 0.4550 0.8826
vn -0.5251 0.7033 0.4792
vn -0.5513 0.6912 0.4672
vn -0.6310 0.7758 0.0000
vn -0.5513 0.6912 -0.4672
vn -0.5251 0.7033 -0.4792
vn -0.1180 0.4550 -0.8826
vn -0.0921 0.5013 -0.8603
vn 0.6605 0.7506 0.0176
vn 0.6185 0.7280 0.2957
vn 0.5289 0.8203 -0.2175
vn -0.5720 0.7551 0.3203
vn -0.4333 0.8889 -0.1487
vn 0.6717 -0.7408 0.0000
vn 0.2872 0.9579 0.0000
vn 0.2574 0.9540 0.1536
vn 0.5847 -0.7166 0.3804
vn 0.0583 0.9216 0.3838
vn 0.1120 -0.5851 0.8032
vn -0.0583 0.9216 0.3838
vn -0.1120 -0.5851 0.8032
vn -0.5847 -0.7166 0.3804
vn -0.2574 0.9540 0.1536
vn -0.6717 -0.7408 0.0000
vn -0.2872 0.9579 0.0000
vn -0.2574 0.9540 -0.1536
vn -0.5847 -0.7166 -0.3804
vn -0.1120 -0.5851 -0.8032
vn -0.0583 0.9216 -0.3838
vn 0.1120 -0.5851 -0.8032
vn 0.0583 0.9216 -0.3838
vn 0.5847 -0.7166 -0.3804
vn 0.2574 0.9540 -0.1536
vn -0.7829 -0.6221 0.0050
vn -0.7836 -0.6212 0.0090
vn -0.7831 -0.6219 0.0059
vn -0.7837 -0.6211 0.0096
vn -0.7613 -0.5395 -0.3596
vn -0.7350 -0.5517 -0.3942
vn -0.1918 -0.2909 -0.9373
vn -0.2373 -0.2393 -0.9415
vn 0.0807 -0.2541 -0.9638
vn -0.0014 -0.3515 -0.9362
vn 0.6744 -0.6132 -0.4113
vn 0.6738 -0.6136 -0.4116
vn 0.6742 -0.6133 -0.4114
vn 0.6680 -0.6175 -0.4152
vn 0.7220 -0.6834 -0.1081
vn 0.6651 -0.7053 -0.2452
vn 0.5279 -0.8125 0.2473
vn 0.5916 -0.7781 0.2110
vn 0.1075 -0.7294 0.6756
vn 0.1084 -0.7288 0.6761
vn 0.1135 -0.7254 0.6789
vn 0.1138 -0.7252 0.6791
vn -0.1043 -0.7193 0.6868
vn -0.6147 -0.7161 0.3308
vn -0.6452 -0.6959 0.3154
usemtl None
s 1
f 1/1/1 2/2/1 3/3/1
f 3/3/2 2/2/2 4/4/2
f 5/5/3 6/6/3 7/7/3
f 7/7/4 6/6/4 8/8/4
f 9/9/5 10/10/5 11/11/5
f 11/11/5 10/10/5 12/12/5
f 13/13/6 14/14/6 15/15/6
f 15/15/6 14/14/6 16/16/6
f 17/17/7 18/18/7 19/19/7
f 19/19/7 18/18/7 20/20/7
f 21/21/8 22/22/8 23/23/8
f 23/23/8 22/22/8 24/24/8
f 25/25/9 26/26/10 27/27/11
f 27/27/11 26/26/10 28/28/12
f 29/29/13 30/30/13 31/31/13
f 31/31/13 30/30/13 32/32/13
f 33/33/14 34/34/15 35/35/16
f 35/35/16 34/34/15 36/36/17
f 37/37/18 38/38/18 21/21/18
f 21/21/18 38/38/18 22/22/18
f 26/26/19 9/9/19 28/28/19
f 28/28/20 9/9/20 11/11/20
f 39/39/21 40/40/21 29/29/21
f 29/29/21 40/40/21 30/30/21
f 35/35/22 36/36/22 10/10/22
f 10/10/23 36/36/23 12/12/23
f 1/1/24 41/41/24 2/2/24
f 2/2/25 41/41/25 42/42/25
f 43/43/26 26/26/27 44/44/28
f 44/44/28 26/26/27 25/25/29
f 45/45/30 9/9/30 43/43/30
f 43/43/31 9/9/31 26/26/31
f 45/45/32 46/46/32 9/9/32
f 9/9/32 46/46/32 10/10/32
f 46/46/33 47/47/33 10/10/33
f 10/10/34 47/47/34 35/35/34
f 47/47/35 48/48/36 35/35/37
f 35/35/37 48/48/36 33/33/38
f 49/49/39 50/50/39 6/6/39
f 6/6/40 50/50/40 8/8/40
f 18/18/41 42/42/41 20/20/41
f 20/20/41 42/42/41 41/41/41
f 22/22/42 43/43/42 24/24/42
f 24/24/43 43/43/43 44/44/43
f 38/38/44 45/45/44 22/22/44
f 22/22/45 45/45/45 43/43/45
f 37/37/46 46/46/46 38/38/46
f 38/38/46 46/46/46 45/45/46
f 47/47/47 46/46/47 21/21/47
f 21/21/48 46/46/48 37/37/48
f 48/48/49 47/47/49 23/23/49
f 23/23/50 47/47/50 21/21/50
f 50/50/51 49/49/51 19/19/51
f 19/19/51 49/49/51 17/17/51
f 11/11/46 12/12/46 39/39/46
f 39/39/46 12/12/46 40/40/46
f 28/28/52 11/11/52 29/29/52
f 29/29/53 11/11/53 39/39/53
f 27/27/54 28/28/54 31/31/54
f 31/31/55 28/28/55 29/29/55
f 3/3/56 4/4/56 15/15/56
f 15/15/56 4/4/56 13/13/56
f 14/14/57 5/5/57 16/16/57
f 16/16/57 5/5/57 7/7/57
f 34/34/58 32/32/58 36/36/58
f 36/36/59 32/32/59 30/30/59
f 36/36/60 30/30/60 12/12/60
f 12/12/61 30/30/61 40/40/61
f 51/51/62 52/52/62 53/53/62
f 53/53/62 52/52/62 54/54/62
f 55/55/63 56/56/63 53/53/63
f 53/53/64 56/56/64 51/51/64
f 57/57/65 58/58/65 55/55/65
f 55/55/66 58/58/66 56/56/66
f 57/57/67 59/59/67 58/58/67
f 58/58/68 59/59/68 60/60/68
f 61/61/69 60/60/69 62/62/69
f 62/62/70 60/60/70 59/59/70
f 63/63/71 61/61/71 64/64/71
f 64/64/71 61/61/71 62/62/71
f 65/65/72 66/66/72 64/64/72
f 64/64/73 66/66/73 63/63/73
f 66/66/74 65/65/74 67/67/74
f 67/67/75 65/65/75 68/68/75
f 69/69/76 67/67/76 70/70/76
f 70/70/77 67/67/77 68/68/77
f 52/52/78 69/69/78 54/54/78
f 54/54/79 69/69/79 70/70/79
f 71/71/80 72/72/80 73/73/80
f 73/73/80 72/72/80 74/74/80
f 71/71/81 73/73/81 75/75/81
f 75/75/82 73/73/82 76/76/82
f 75/75/83 76/76/83 77/77/83
f 77/77/84 76/76/84 78/78/84
f 79/79/85 77/77/85 80/80/85
f 80/80/86 77/77/86 78/78/86
f 81/81/87 79/79/87 82/82/87
f 82/82/88 79/79/88 80/80/88
f 83/83/89 81/81/89 84/84/89
f 84/84/89 81/81/89 82/82/89
f 83/83/90 84/84/90 85/85/90
f 85/85/91 84/84/91 86/86/91
f 85/85/92 86/86/92 87/87/92
f 87/87/93 86/86/93 88/88/93
f 89/89/94 87/87/94 90/90/94
f 90/90/95 87/87/95 88/88/95
f 72/72/96 89/89/96 74/74/96
f 74/74/97 89/89/97 90/90/97
f 91/91/98 92/92/98 93/93/98
f 93/93/99 92/92/99 94/94/99
f 95/95/100 96/96/100 94/94/100
f 94/94/101 96/96/101 93/93/101
f 95/95/102 97/97/102 96/96/102
f 96/96/103 97/97/103 98/98/103
f 97/97/104 99/99/104 98/98/104
f 98/98/105 99/99/105 100/100/105
f 101/101/106 100/100/106 102/102/106
f 102/102/107 100/100/107 99/99/107
f 103/103/108 101/101/108 104/104/108
f 104/104/109 101/101/109 102/102/109
f 104/104/110 105/105/110 103/103/110
f 103/103/110 105/105/110 106/106/110
f 107/107/111 106/106/111 108/108/112
f 108/108/112 106/106/111 105/105/112
f 109/109/113 107/107/113 110/110/113
f 110/110/114 107/107/114 108/108/114
f 109/109/115 110/110/115 91/91/115
f 91/91/116 110/110/116 92/92/116
f 111/111/117 112/112/117 113/113/117
f 113/113/118 112/112/118 114/114/118
f 115/115/119 116/116/119 117/117/119
f 117/117/120 116/116/120 118/118/120
f 119/119/121 113/113/121 120/120/121
f 120/120/122 113/113/122 114/114/122
f 121/121/123 122/122/123 116/116/123
f 116/116/124 122/122/124 118/118/124
f 123/123/125 119/119/125 124/124/125
f 124/124/126 119/119/126 120/120/126
f 125/125/127 126/126/127 121/121/127
f 121/121/128 126/126/128 122/122/128
f 125/125/129 123/123/129 126/126/129
f 126/126/130 123/123/130 124/124/130
f 127/127/131 128/128/131 111/111/131
f 111/111/132 128/128/132 112/112/132
f 127/127/133 129/129/133 128/128/133
f 128/128/133 129/129/133 130/130/133
f 115/115/134 117/117/134 129/129/134
f 129/129/135 117/117/135 130/130/135
f 112/112/136 131/131/136 114/114/136
f 114/114/137 131/131/137 132/132/137
f 117/117/138 118/118/138 131/131/138
f 131/131/139 118/118/140 132/132/139
f 120/120/141 114/114/141 133/133/141
f 133/133/137 114/114/137 132/132/137
f 122/122/142 133/133/143 118/118/140
f 118/118/140 133/133/143 132/132/139
f 131/131/144 128/128/144 130/130/144
f 23/23/145 24/24/145 17/17/145
f 17/17/145 24/24/145 18/18/145
f 44/44/146 42/42/146 24/24/146
f 24/24/146 42/42/146 18/18/146
f 2/2/147 42/42/147 25/25/147
f 25/25/148 42/42/148 44/44/148
f 2/2/149 25/25/149 4/4/149
f 4/4/150 25/25/150 27/27/150
f 13/13/151 4/4/151 31/31/151
f 31/31/151 4/4/151 27/27/151
f 31/31/152 32/32/152 13/13/152
f 13/13/152 32/32/152 14/14/152
f 34/34/153 5/5/153 32/32/153
f 32/32/153 5/5/153 14/14/153
f 6/6/154 5/5/154 33/33/154
f 33/33/155 5/5/155 34/34/155
f 48/48/156 49/49/156 33/33/156
f 33/33/157 49/49/157 6/6/157
f 17/17/158 49/49/158 23/23/158
f 23/23/158 49/49/158 48/48/158
f 7/7/159 8/8/159 89/89/159
f 89/89/160 8/8/160 87/87/160
f 16/16/161 7/7/161 72/72/161
f 72/72/162 7/7/162 89/89/162
f 15/15/163 16/16/163 71/71/163
f 71/71/163 16/16/163 72/72/163
f 75/75/164 3/3/164 71/71/164
f 71/71/165 3/3/165 15/15/165
f 77/77/166 1/1/166 75/75/166
f 75/75/167 1/1/167 3/3/167
f 77/77/168 79/79/168 1/1/168
f 1/1/169 79/79/169 41/41/169
f 20/20/170 41/41/170 81/81/170
f 81/81/171 41/41/171 79/79/171
f 19/19/172 20/20/172 83/83/172
f 83/83/172 20/20/172 81/81/172
f 85/85/173 50/50/173 83/83/173
f 83/83/174 50/50/174 19/19/174
f 50/50/175 85/85/175 8/8/175
f 8/8/176 85/85/176 87/87/176
f 133/133/177 126/126/177 124/124/177
f 133/133/178 122/122/178 126/126/178
f 133/133/179 124/124/179 120/120/179
f 131/131/180 130/130/180 117/117/180
f 131/131/181 112/112/181 128/128/181
f 73/134/182 74/135/182 51/51/182
f 51/51/182 74/135/182 52/52/182
f 91/136/183 93/137/183 54/54/183
f 54/54/183 93/137/183 53/53/183
f 96/138/184 55/55/184 93/137/184
f 93/137/184 55/55/184 53/53/184
f 76/139/185 73/134/185 56/56/185
f 56/56/185 73/134/185 51/51/185
f 98/140/186 57/57/186 96/138/186
f 96/138/186 57/57/186 55/55/186
f 78/141/187 76/139/187 58/58/187
f 58/58/187 76/139/187 56/56/187
f 98/140/188 100/142/188 57/57/188
f 57/57/188 100/142/188 59/59/188
f 78/141/189 58/58/189 80/143/189
f 80/143/189 58/58/189 60/60/189
f 80/143/190 60/60/190 82/144/190
f 82/144/190 60/60/190 61/61/190
f 100/142/191 101/145/191 59/59/191
f 59/59/191 101/145/191 62/62/191
f 84/146/192 82/144/192 63/63/192
f 63/63/192 82/144/192 61/61/192
f 101/145/193 103/147/193 62/62/193
f 62/62/193 103/147/193 64/64/193
f 106/148/194 65/65/194 103/147/194
f 103/147/194 65/65/194 64/64/194
f 86/149/195 84/146/195 66/66/195
f 66/66/195 84/146/195 63/63/195
f 88/150/196 86/149/196 67/67/196
f 67/67/196 86/149/196 66/66/196
f 107/151/197 68/68/197 106/148/197
f 106/148/197 68/68/197 65/65/197
f 88/150/198 67/67/198 90/152/198
f 90/152/198 67/67/198 69/69/198
f 107/151/199 109/153/199 68/68/199
f 68/68/199 109/153/199 70/70/199
f 90/152/200 69/69/200 74/135/200
f 74/135/200 69/69/200 52/52/200
f 109/153/201 91/136/201 70/70/201
f 70/70/201 91/136/201 54/54/201
f 104/104/202 102/102/203 125/125/204
f 125/125/204 102/102/203 123/123/205
f 125/125/206 121/121/206 104/104/206
f 104/104/207 121/121/207 105/105/207
f 108/108/208 105/105/208 116/116/208
f 116/116/209 105/105/209 121/121/209
f 108/108/210 116/116/210 110/110/210
f 110/110/211 116/116/211 115/115/211
f 110/110/212 115/115/213 92/92/214
f 92/92/214 115/115/213 129/129/215
f 92/92/216 129/129/216 94/94/216
f 94/94/217 129/129/217 127/127/217
f 95/95/218 94/94/218 111/111/218
f 111/111/219 94/94/219 127/127/219
f 97/97/220 95/95/221 113/113/222
f 113/113/222 95/95/221 111/111/223
f 119/119/224 99/99/224 113/113/224
f 113/113/224 99/99/224 97/97/224
f 99/99/225 119/119/225 102/102/225
f 102/102/226 119/119/226 123/123/226
