# Blender v2.78 (sub 0) OBJ File: ''
# www.blender.org
mtllib SM_Prop_Meat_02.mtl
o SM_Prop_Meat_02
v 1.204071 3.979313 10.683524
v 1.701210 1.366990 19.200382
v 3.189155 3.979313 10.635276
v 3.272873 1.366990 19.162228
v -5.695038 -3.157071 -16.077114
v -5.695038 1.367002 -16.077114
v 2.337875 -3.157071 -19.359005
v 2.337875 1.367003 -19.359005
v 1.421020 -3.157083 19.207157
v 1.590004 -3.979324 10.674136
v 3.272873 -3.157083 19.162228
v 3.189155 -3.979324 10.635272
v 8.674400 1.366991 15.388860
v 8.674400 -3.157083 15.388858
v 8.849457 1.699581 8.592281
v 8.849457 -3.489663 8.592280
v -8.544289 -3.157083 15.806781
v -8.544289 1.366991 15.806783
v -8.325195 -3.489663 8.004169
v -8.325195 1.699581 8.004170
v 3.102485 4.507288 1.809309
v -11.333214 -3.833911 -0.642323
v -11.333214 2.043836 -0.642321
v -9.235420 -3.157073 -12.668881
v -9.235420 1.367000 -12.668880
v 1.764953 -4.507289 1.841792
v -5.687386 -3.817178 -10.223126
v 3.102485 -4.507289 1.809306
v 11.333214 3.998332 0.215070
v 11.333214 -4.077261 0.215068
v 7.983207 3.068409 -13.086801
v 7.983207 -3.147336 -13.086804
v -5.689392 3.771655 -11.030946
v -4.834976 1.366990 19.359005
v -5.238808 3.979313 10.839866
v -4.834976 -3.157083 19.359005
v -5.238808 -3.979324 10.839862
v 0.689598 4.507288 1.867857
v -5.656761 4.507288 2.021940
v -5.656761 -4.507289 2.021938
vt 0.0854 0.3818
vt 0.0854 0.3818
vt 0.0854 0.3818
vt 0.0854 0.3818
vt 0.2060 0.6124
vt 0.2060 0.6124
vt 0.2060 0.6124
vt 0.2060 0.6124
vt 0.0854 0.3818
vt 0.0854 0.3818
vt 0.0854 0.3818
vt 0.0854 0.3818
vt 0.2060 0.6124
vt 0.2060 0.6124
vt 0.2060 0.6124
vt 0.2060 0.6124
vt 0.2060 0.6124
vt 0.2060 0.6124
vt 0.2060 0.6124
vt 0.2060 0.6124
vt 0.2060 0.6124
vt 0.2060 0.6124
vt 0.2060 0.6124
vt 0.2060 0.6124
vt 0.2060 0.6124
vt 0.0854 0.3818
vt 0.0854 0.3818
vt 0.0854 0.3818
vt 0.0854 0.3818
vt 0.2060 0.6124
vt 0.2060 0.6124
vt 0.2060 0.6124
vt 0.2060 0.6124
vt 0.2060 0.6124
vt 0.2060 0.6124
vt 0.2060 0.6124
vt 0.2060 0.6124
vt 0.2060 0.6124
vt 0.0854 0.3818
vt 0.0854 0.3818
vt 0.0854 0.3818
vt 0.0854 0.3818
vt 0.2060 0.6124
vt 0.2060 0.6124
vt 0.2060 0.6124
vt 0.2060 0.6124
vt 0.0854 0.3818
vt 0.0854 0.3818
vt 0.2060 0.6124
vt 0.2060 0.6124
vt 0.2060 0.6124
vt 0.2060 0.6124
vt 0.2060 0.6124
vt 0.2060 0.6124
vt 0.2060 0.6124
vt 0.2060 0.6124
vt 0.2060 0.6124
vt 0.2060 0.6124
vn 0.0071 0.9561 0.2929
vn -0.3782 0.0000 -0.9257
vn 0.0023 -0.9954 0.0960
vn 0.0243 -0.0000 0.9997
vn 0.9997 -0.0000 0.0257
vn -0.9996 0.0000 -0.0281
vn -0.0590 0.9878 -0.1444
vn -0.9851 0.0000 -0.1718
vn -0.0014 -0.9984 -0.0563
vn 0.0753 -0.9909 -0.1118
vn 0.9697 0.0000 -0.2442
vn 0.3895 0.9195 0.0532
vn 0.3900 0.9192 0.0548
vn 0.3901 0.9191 0.0550
vn 0.1993 0.9375 0.2853
vn -0.1395 0.9802 -0.1404
vn 0.0458 0.9956 -0.0812
vn 0.7433 0.0000 -0.6690
vn 0.0752 -0.9950 -0.0662
vn 0.0368 -0.9962 -0.0789
vn 0.0665 -0.9932 0.0951
vn 0.1044 -0.9932 0.0513
vn 0.1045 -0.9932 0.0515
vn 0.1057 -0.9929 0.0548
vn 0.5727 0.0000 0.8198
vn -0.1071 -0.9880 -0.1113
vn -0.6935 0.0000 -0.7204
vn -0.3823 0.8343 -0.3972
vn -0.2811 0.9137 0.2935
vn -0.6041 0.7967 0.0170
vn -0.6916 -0.0000 0.7222
vn -0.1892 -0.9813 0.0365
vn -0.0959 -0.9903 0.1001
vn 0.4843 0.7896 -0.3768
vn -0.0014 0.9984 -0.0563
vn -0.3773 0.9247 -0.0512
vn -0.5118 0.8481 -0.1370
vn -0.1299 -0.9884 -0.0783
vn -0.0917 -0.9942 -0.0558
vn -0.0256 -0.9977 -0.0627
vn 0.0014 -0.9982 0.0597
vn 0.0015 -0.9982 0.0597
vn 0.1069 -0.9926 0.0583
vn 0.0694 -0.9935 0.0903
vn 0.9587 0.0000 0.2843
vn 0.3890 0.9198 0.0512
vn 0.1157 0.9486 0.2946
vn 0.0014 0.9982 0.0597
vn 0.0015 0.9982 0.0597
vn -0.6367 0.7673 0.0761
vn -0.4665 0.8624 0.1966
vn -0.9445 -0.0000 0.3286
vn -0.1612 -0.9823 0.0952
vn -0.2175 -0.9736 0.0686
usemtl None
s 1
f 1/1/1 2/2/1 3/3/1
f 3/3/1 2/2/1 4/4/1
f 5/5/2 6/6/2 7/7/2
f 7/7/2 6/6/2 8/8/2
f 9/9/3 10/10/3 11/11/3
f 11/11/3 10/10/3 12/12/3
f 9/9/4 11/11/4 2/2/4
f 2/2/4 11/11/4 4/4/4
f 13/13/5 14/14/5 15/15/5
f 15/15/5 14/14/5 16/16/5
f 17/17/6 18/18/6 19/19/6
f 19/19/6 18/18/6 20/20/6
f 6/6/7 21/21/7 8/8/7
f 22/22/8 23/23/8 24/24/8
f 24/24/8 23/23/8 25/25/8
f 26/26/9 27/27/9 28/28/9
f 28/28/10 27/27/10 5/29/10
f 29/30/11 30/31/11 31/32/11
f 31/32/11 30/31/11 32/33/11
f 15/15/12 3/34/13 13/13/14
f 13/13/15 3/34/15 4/35/15
f 8/8/16 21/21/16 31/32/16
f 31/32/17 21/21/17 29/30/17
f 7/7/18 8/8/18 32/33/18
f 32/33/18 8/8/18 31/32/18
f 7/7/19 32/33/19 28/36/19
f 28/36/20 32/33/20 30/31/20
f 11/37/21 12/38/21 14/14/21
f 14/14/22 12/38/23 16/16/24
f 4/35/25 11/37/25 13/13/25
f 13/13/25 11/37/25 14/14/25
f 24/39/26 5/29/26 27/27/26
f 25/40/27 6/41/27 24/39/27
f 24/39/27 6/41/27 5/29/27
f 25/40/28 33/42/28 6/41/28
f 34/43/29 35/44/29 18/18/29
f 18/18/30 35/44/30 20/20/30
f 17/17/31 36/45/31 18/18/31
f 18/18/31 36/45/31 34/43/31
f 19/19/32 37/46/32 17/17/32
f 17/17/33 37/46/33 36/45/33
f 6/41/34 33/42/34 21/47/34
f 21/47/35 33/42/35 38/48/35
f 39/49/36 33/50/36 23/23/36
f 23/23/37 33/50/37 25/25/37
f 38/51/35 33/50/35 39/49/35
f 35/44/1 34/43/1 1/52/1
f 1/52/1 34/43/1 2/53/1
f 36/45/4 9/54/4 34/43/4
f 34/43/4 9/54/4 2/53/4
f 36/45/3 37/46/3 9/54/3
f 9/54/3 37/46/3 10/55/3
f 40/56/9 27/57/9 26/58/9
f 24/24/38 27/57/38 22/22/38
f 22/22/39 27/57/39 40/56/39
f 28/36/40 5/5/40 7/7/40
f 37/46/41 40/56/41 10/55/41
f 10/55/41 40/56/41 26/58/41
f 10/10/41 26/26/41 12/12/42
f 12/12/42 26/26/41 28/28/41
f 12/38/23 28/36/43 16/16/24
f 16/16/44 28/36/44 30/31/44
f 16/16/45 30/31/45 15/15/45
f 15/15/45 30/31/45 29/30/45
f 3/34/13 15/15/12 21/21/46
f 21/21/47 15/15/47 29/30/47
f 38/48/48 1/1/48 21/47/48
f 21/47/48 1/1/48 3/3/49
f 39/49/48 35/44/48 38/51/48
f 38/51/48 35/44/48 1/52/48
f 35/44/50 39/49/50 20/20/50
f 20/20/51 39/49/51 23/23/51
f 19/19/52 20/20/52 22/22/52
f 22/22/52 20/20/52 23/23/52
f 22/22/53 40/56/53 19/19/53
f 19/19/54 40/56/54 37/46/54
