# Blender v2.78 (sub 0) OBJ File: ''
# www.blender.org
mtllib SM_Prop_Washingline_01.mtl
o SM_Prop_Washingline_01
v 277.594818 5.685379 1.184813
v 254.912689 31.300034 3.611914
v 275.927460 3.983169 1.184813
v 249.848602 26.130051 3.611912
v 254.912689 31.300034 -3.625024
v 249.848602 26.130051 -3.625026
v 277.594818 5.685379 -1.197938
v 275.927460 3.983170 -1.197938
v -277.594818 5.685379 1.184813
v -275.927521 3.983169 1.184813
v -254.912750 31.300034 3.611914
v -249.848724 26.130051 3.611912
v -254.912750 31.300034 -3.625024
v -249.848724 26.130051 -3.625026
v -277.594818 5.685379 -1.197938
v -275.927521 3.983170 -1.197938
v -253.864349 16.155930 2.692752
v -212.879669 2.575058 2.692747
v -252.943390 18.686356 1.248049
v -212.107391 5.154770 1.248045
v -171.174591 -8.599777 2.692744
v -170.553558 -5.979538 1.248041
v -128.890289 -17.330765 2.692740
v -128.422760 -14.678848 1.248039
v -86.170074 -23.588364 2.692738
v -85.857452 -20.913742 1.248037
v -43.157990 -27.351425 2.692737
v -43.001495 -24.663162 1.248035
v -0.000031 -28.607193 2.692736
v -0.000031 -25.914383 1.248035
v 43.157806 -27.351425 2.692737
v 43.001312 -24.663162 1.248035
v 86.169891 -23.588364 2.692738
v 85.857269 -20.913757 1.248037
v 128.890228 -17.330765 2.692740
v 128.422699 -14.678848 1.248039
v 171.174408 -8.599777 2.692744
v 170.553436 -5.979538 1.248041
v 212.879486 2.575058 2.692747
v 212.107269 5.154770 1.248045
v 253.864349 16.155930 2.692752
v 252.943329 18.686356 1.248049
v -252.943390 18.686356 -1.248105
v -212.107391 5.154770 -1.248109
v -170.553558 -5.979538 -1.248113
v -128.422760 -14.678848 -1.248115
v -85.857452 -20.913742 -1.248117
v -43.001495 -24.663162 -1.248119
v -0.000031 -25.914383 -1.248119
v 43.001312 -24.663162 -1.248119
v 85.857269 -20.913757 -1.248117
v 128.422699 -14.678848 -1.248115
v 170.553436 -5.979538 -1.248113
v 212.107269 5.154770 -1.248109
v 252.943329 18.686356 -1.248105
v -253.864349 16.155930 -2.692808
v -212.879669 2.575058 -2.692813
v -171.174591 -8.599777 -2.692816
v -128.890289 -17.330765 -2.692820
v -86.170074 -23.588364 -2.692822
v -43.157990 -27.351425 -2.692822
v -0.000031 -28.607193 -2.692824
v 43.157806 -27.351425 -2.692822
v 86.169891 -23.588364 -2.692822
v 128.890228 -17.330765 -2.692820
v 171.174408 -8.599777 -2.692816
v 212.879486 2.575058 -2.692813
v 253.864349 16.155930 -2.692808
v -254.785431 13.625504 -1.248107
v -213.651947 -0.004623 -1.248111
v -254.785431 13.625504 1.248047
v -213.651947 -0.004624 1.248043
v -171.795624 -11.220016 -1.248115
v -171.795624 -11.220016 1.248039
v -129.357941 -19.982681 -1.248117
v -129.357941 -19.982681 1.248037
v -86.482697 -26.262985 -1.248119
v -86.482697 -26.262985 1.248035
v -43.314606 -30.039688 -1.248121
v -43.314606 -30.039688 1.248033
v -0.000031 -31.300034 -1.248121
v -0.000031 -31.300034 1.248033
v 43.314423 -30.039703 -1.248121
v 43.314423 -30.039703 1.248033
v 86.482513 -26.262985 -1.248119
v 86.482513 -26.262985 1.248035
v 129.357880 -19.982681 -1.248117
v 129.357880 -19.982681 1.248037
v 171.795380 -11.220016 -1.248115
v 171.795380 -11.220016 1.248039
v 213.651825 -0.004623 -1.248111
v 213.651825 -0.004624 1.248043
v 254.785248 13.625504 -1.248107
v 254.785248 13.625504 1.248047
v 266.901337 23.543411 5.104863
v 266.901337 23.543411 -5.104855
v 265.932953 25.757095 2.366003
v 265.932953 25.757095 -2.366084
v -266.901276 23.543411 -5.104855
v -266.901276 23.543411 5.104863
v -265.933014 25.757095 -2.366084
v -265.933014 25.757095 2.366003
v -267.869659 21.329666 -2.366085
v -267.869659 21.329666 2.366002
v 267.869476 21.329666 2.366002
v 267.869476 21.329666 -2.366085
v 258.282318 20.952972 -2.366086
v 259.222748 16.155930 -5.104856
v 258.282318 20.952972 2.366001
v 259.222748 16.155930 5.104861
v 260.163055 11.358871 2.365998
v 260.163055 11.358871 -2.366088
v -258.282257 20.952972 2.366001
v -259.222809 16.155930 5.104861
v -258.282257 20.952972 -2.366086
v -259.222809 16.155930 -5.104856
v -260.163177 11.358871 -2.366088
v -260.163177 11.358871 2.365998
vt 0.9900 0.3465
vt 0.9900 0.3465
vt 0.9900 0.3465
vt 0.9900 0.3465
vt 0.9900 0.3465
vt 0.9900 0.3465
vt 0.9900 0.3465
vt 0.9900 0.3465
vt 0.9900 0.3465
vt 0.9900 0.3465
vt 0.9900 0.3465
vt 0.9900 0.3465
vt 0.9900 0.3465
vt 0.9900 0.3465
vt 0.9900 0.3465
vt 0.9900 0.3465
vt 0.0916 0.2810
vt 0.0916 0.2810
vt 0.0916 0.2810
vt 0.0916 0.2810
vt 0.0916 0.2810
vt 0.0916 0.2810
vt 0.0916 0.2810
vt 0.0916 0.2810
vt 0.0916 0.2810
vt 0.0916 0.2810
vt 0.0916 0.2810
vt 0.0916 0.2810
vt 0.0916 0.2810
vt 0.0916 0.2810
vt 0.0916 0.2810
vt 0.0916 0.2810
vt 0.0916 0.2810
vt 0.0916 0.2810
vt 0.0916 0.2810
vt 0.0916 0.2810
vt 0.0916 0.2810
vt 0.0916 0.2810
vt 0.0916 0.2810
vt 0.0916 0.2810
vt 0.0916 0.2810
vt 0.0916 0.2810
vt 0.0916 0.2810
vt 0.0916 0.2810
vt 0.0916 0.2810
vt 0.0916 0.2810
vt 0.0916 0.2810
vt 0.0916 0.2810
vt 0.0916 0.2810
vt 0.0916 0.2810
vt 0.0916 0.2810
vt 0.0916 0.2810
vt 0.0916 0.2810
vt 0.0916 0.2810
vt 0.0916 0.2810
vt 0.0916 0.2810
vt 0.0916 0.2810
vt 0.0916 0.2810
vt 0.0916 0.2810
vt 0.0916 0.2810
vt 0.0916 0.2810
vt 0.0916 0.2810
vt 0.0916 0.2810
vt 0.0916 0.2810
vt 0.0916 0.2810
vt 0.0916 0.2810
vt 0.0916 0.2810
vt 0.0916 0.2810
vt 0.0916 0.2810
vt 0.0916 0.2810
vt 0.0916 0.2810
vt 0.0916 0.2810
vt 0.0916 0.2810
vt 0.0916 0.2810
vt 0.0916 0.2810
vt 0.0916 0.2810
vt 0.0916 0.2810
vt 0.0916 0.2810
vt 0.0916 0.2810
vt 0.0916 0.2810
vt 0.0916 0.2810
vt 0.0916 0.2810
vt 0.0916 0.2810
vt 0.0916 0.2810
vt 0.0916 0.2810
vt 0.0916 0.2810
vt 0.0916 0.2810
vt 0.0916 0.2810
vt 0.0916 0.2810
vt 0.0916 0.2810
vt 0.0916 0.2810
vt 0.0916 0.2810
vt 0.0916 0.2810
vt 0.0916 0.2810
vt 0.0916 0.2810
vt 0.0916 0.2810
vt 0.0916 0.2810
vt 0.0916 0.2810
vt 0.0916 0.2810
vt 0.0916 0.2810
vt 0.0916 0.2810
vt 0.0916 0.2810
vt 0.0916 0.2810
vt 0.0916 0.2810
vt 0.0916 0.2810
vt 0.0916 0.2810
vt 0.0916 0.2810
vt 0.0916 0.2810
vt 0.0916 0.2810
vt 0.0916 0.2810
vt 0.0916 0.2810
vt 0.0916 0.2810
vt 0.0916 0.2810
vt 0.0916 0.2810
vt 0.0916 0.2810
vt 0.0916 0.2810
vt 0.0916 0.2810
vt 0.0916 0.2810
vn 0.0507 -0.0496 0.9975
vn -0.7144 0.6998 0.0000
vn 0.0507 -0.0496 -0.9975
vn 0.7144 -0.6998 0.0000
vn -0.6473 -0.7622 0.0000
vn 0.7487 0.6630 0.0000
vn -0.0507 -0.0496 0.9975
vn 0.7144 0.6997 0.0000
vn -0.0507 -0.0496 -0.9975
vn -0.7144 -0.6997 0.0000
vn 0.6473 -0.7622 0.0000
vn -0.7487 0.6630 0.0000
vn 0.1488 0.4489 0.8811
vn 0.1224 0.4568 0.8811
vn 0.0956 0.4631 0.8811
vn 0.0685 0.4679 0.8811
vn 0.0412 0.4711 0.8811
vn 0.0138 0.4727 0.8811
vn -0.0138 0.4727 0.8811
vn -0.0412 0.4711 0.8811
vn -0.0685 0.4679 0.8811
vn -0.0956 0.4631 0.8811
vn -0.1224 0.4568 0.8811
vn -0.1488 0.4489 0.8811
vn 0.3145 0.9492 0.0000
vn 0.2588 0.9659 0.0000
vn 0.2022 0.9793 0.0000
vn 0.1449 0.9894 0.0000
vn 0.0872 0.9962 0.0000
vn 0.0291 0.9996 0.0000
vn -0.0291 0.9996 0.0000
vn -0.0872 0.9962 0.0000
vn -0.1449 0.9894 0.0000
vn -0.2022 0.9793 0.0000
vn -0.2588 0.9659 0.0000
vn -0.3145 0.9492 0.0000
vn 0.1488 0.4489 -0.8811
vn 0.1224 0.4568 -0.8811
vn 0.0956 0.4631 -0.8811
vn 0.0685 0.4679 -0.8811
vn 0.0412 0.4711 -0.8811
vn 0.0138 0.4727 -0.8811
vn -0.0138 0.4727 -0.8811
vn -0.0412 0.4711 -0.8811
vn -0.0685 0.4679 -0.8811
vn -0.0956 0.4631 -0.8811
vn -0.1224 0.4568 -0.8811
vn -0.1488 0.4489 -0.8811
vn -0.3145 -0.9492 0.0000
vn -0.2588 -0.9659 0.0000
vn -0.2022 -0.9793 0.0000
vn -0.1449 -0.9894 0.0000
vn -0.0872 -0.9962 0.0000
vn -0.0291 -0.9996 0.0000
vn 0.0291 -0.9996 0.0000
vn 0.0872 -0.9962 0.0000
vn 0.1449 -0.9894 0.0000
vn 0.2022 -0.9793 0.0000
vn 0.2588 -0.9659 0.0000
vn 0.3145 -0.9492 0.0000
vn 0.9162 0.4007 0.0000
vn 0.9162 0.4008 0.0000
vn -0.9162 0.4008 0.0000
vn -0.9162 0.4007 0.0000
vn 0.1224 -0.4568 -0.8811
vn 0.0956 -0.4631 -0.8811
vn 0.0685 -0.4679 -0.8811
vn 0.0412 -0.4711 -0.8811
vn 0.0138 -0.4727 -0.8811
vn -0.0138 -0.4727 -0.8811
vn -0.0412 -0.4711 -0.8811
vn -0.0685 -0.4679 -0.8811
vn -0.0956 -0.4631 -0.8811
vn -0.1224 -0.4568 -0.8811
vn -0.1488 -0.4489 -0.8811
vn -0.1488 -0.4489 0.8811
vn -0.1224 -0.4568 0.8811
vn -0.0956 -0.4631 0.8811
vn -0.0685 -0.4679 0.8811
vn -0.0412 -0.4711 0.8811
vn -0.0138 -0.4727 0.8811
vn 0.0138 -0.4727 0.8811
vn 0.0412 -0.4711 0.8811
vn 0.0685 -0.4679 0.8811
vn 0.0956 -0.4631 0.8811
vn 0.1224 -0.4568 0.8811
vn 0.1488 -0.4489 0.8811
vn 0.1488 -0.4489 -0.8811
vn -0.3385 0.3706 -0.8649
vn -0.3757 0.4028 -0.8346
vn -0.3765 0.4026 -0.8344
vn -0.3843 0.3998 -0.8322
vn -0.3908 0.9205 0.0000
vn -0.3385 0.3706 0.8649
vn -0.3765 0.4026 0.8344
vn -0.3757 0.4029 0.8346
vn -0.3843 0.3998 0.8322
vn -0.3884 -0.9215 0.0000
vn -0.3410 -0.5566 -0.7576
vn -0.3768 -0.5139 -0.7707
vn -0.3410 -0.5566 0.7576
vn -0.3768 -0.5139 0.7707
vn 0.3385 0.3706 0.8649
vn 0.3757 0.4029 0.8346
vn 0.3765 0.4026 0.8344
vn 0.3843 0.3998 0.8322
vn 0.3908 0.9205 0.0000
vn 0.3385 0.3706 -0.8649
vn 0.3765 0.4025 -0.8344
vn 0.3757 0.4028 -0.8346
vn 0.3843 0.3998 -0.8322
vn 0.3884 -0.9215 0.0000
vn 0.3410 -0.5566 0.7575
vn 0.3768 -0.5139 0.7707
vn 0.3410 -0.5566 -0.7575
vn 0.3768 -0.5139 -0.7707
vn -0.3845 0.3997 -0.8321
vn -0.4007 0.6381 -0.6575
vn -0.5318 0.8469 0.0000
vn -0.3845 0.3997 0.8321
vn -0.4007 0.6381 0.6574
vn 0.7912 -0.6115 0.0000
vn 0.4726 -0.3653 -0.8020
vn 0.5341 -0.5552 -0.6376
vn 0.4726 -0.3653 0.8020
vn 0.5341 -0.5552 0.6375
vn 0.3845 0.3997 0.8321
vn 0.4007 0.6381 0.6574
vn 0.5318 0.8469 0.0000
vn 0.3845 0.3997 -0.8321
vn 0.4007 0.6381 -0.6574
vn -0.7912 -0.6115 0.0000
vn -0.4726 -0.3653 0.8020
vn -0.5341 -0.5552 0.6376
vn -0.4726 -0.3653 -0.8020
vn -0.5341 -0.5552 -0.6376
usemtl None
s 1
f 1/1/1 2/2/1 3/3/1
f 3/3/1 2/2/1 4/4/1
f 2/2/2 5/5/2 4/4/2
f 4/4/2 5/5/2 6/6/2
f 5/5/3 7/7/3 6/6/3
f 6/6/3 7/7/3 8/8/3
f 7/7/4 1/1/4 8/8/4
f 8/8/4 1/1/4 3/3/4
f 3/3/5 4/4/5 8/8/5
f 8/8/5 4/4/5 6/6/5
f 7/7/6 5/5/6 1/1/6
f 1/1/6 5/5/6 2/2/6
f 9/9/7 10/10/7 11/11/7
f 11/11/7 10/10/7 12/12/7
f 11/11/8 12/12/8 13/13/8
f 13/13/8 12/12/8 14/14/8
f 13/13/9 14/14/9 15/15/9
f 15/15/9 14/14/9 16/16/9
f 15/15/10 16/16/10 9/9/10
f 9/9/10 16/16/10 10/10/10
f 10/10/11 16/16/11 12/12/11
f 12/12/11 16/16/11 14/14/11
f 15/15/12 9/9/12 13/13/12
f 13/13/12 9/9/12 11/11/12
f 17/17/13 18/18/13 19/19/13
f 19/19/13 18/18/13 20/20/13
f 18/18/14 21/21/14 20/20/14
f 20/20/14 21/21/14 22/22/14
f 21/21/15 23/23/15 22/22/15
f 22/22/15 23/23/15 24/24/15
f 23/23/16 25/25/16 24/24/16
f 24/24/16 25/25/16 26/26/16
f 25/25/17 27/27/17 26/26/17
f 26/26/17 27/27/17 28/28/17
f 27/27/18 29/29/18 28/28/18
f 28/28/18 29/29/18 30/30/18
f 29/29/19 31/31/19 30/30/19
f 30/30/19 31/31/19 32/32/19
f 31/31/20 33/33/20 32/32/20
f 32/32/20 33/33/20 34/34/20
f 33/33/21 35/35/21 34/34/21
f 34/34/21 35/35/21 36/36/21
f 35/35/22 37/37/22 36/36/22
f 36/36/22 37/37/22 38/38/22
f 37/37/23 39/39/23 38/38/23
f 38/38/23 39/39/23 40/40/23
f 39/39/24 41/41/24 40/40/24
f 40/40/24 41/41/24 42/42/24
f 19/19/25 20/20/25 43/43/25
f 43/43/25 20/20/25 44/44/25
f 20/20/26 22/22/26 44/44/26
f 44/44/26 22/22/26 45/45/26
f 22/22/27 24/24/27 45/45/27
f 45/45/27 24/24/27 46/46/27
f 24/24/28 26/26/28 46/46/28
f 46/46/28 26/26/28 47/47/28
f 26/26/29 28/28/29 47/47/29
f 47/47/29 28/28/29 48/48/29
f 28/28/30 30/30/30 48/48/30
f 48/48/30 30/30/30 49/49/30
f 30/30/31 32/32/31 49/49/31
f 49/49/31 32/32/31 50/50/31
f 32/32/32 34/34/32 50/50/32
f 50/50/32 34/34/32 51/51/32
f 34/34/33 36/36/33 51/51/33
f 51/51/33 36/36/33 52/52/33
f 36/36/34 38/38/34 52/52/34
f 52/52/34 38/38/34 53/53/34
f 38/38/35 40/40/35 53/53/35
f 53/53/35 40/40/35 54/54/35
f 40/40/36 42/42/36 54/54/36
f 54/54/36 42/42/36 55/55/36
f 43/43/37 44/44/37 56/56/37
f 56/56/37 44/44/37 57/57/37
f 44/44/38 45/45/38 57/57/38
f 57/57/38 45/45/38 58/58/38
f 45/45/39 46/46/39 58/58/39
f 58/58/39 46/46/39 59/59/39
f 46/46/40 47/47/40 59/59/40
f 59/59/40 47/47/40 60/60/40
f 47/47/41 48/48/41 60/60/41
f 60/60/41 48/48/41 61/61/41
f 48/48/42 49/49/42 61/61/42
f 61/61/42 49/49/42 62/62/42
f 49/49/43 50/50/43 62/62/43
f 62/62/43 50/50/43 63/63/43
f 50/50/44 51/51/44 63/63/44
f 63/63/44 51/51/44 64/64/44
f 51/51/45 52/52/45 64/64/45
f 64/64/45 52/52/45 65/65/45
f 52/52/46 53/53/46 65/65/46
f 65/65/46 53/53/46 66/66/46
f 53/53/47 54/54/47 66/66/47
f 66/66/47 54/54/47 67/67/47
f 54/54/48 55/55/48 67/67/48
f 67/67/48 55/55/48 68/68/48
f 69/69/49 70/70/49 71/71/49
f 71/71/49 70/70/49 72/72/49
f 70/70/50 73/73/50 72/72/50
f 72/72/50 73/73/50 74/74/50
f 73/73/51 75/75/51 74/74/51
f 74/74/51 75/75/51 76/76/51
f 75/75/52 77/77/52 76/76/52
f 76/76/52 77/77/52 78/78/52
f 77/77/53 79/79/53 78/78/53
f 78/78/53 79/79/53 80/80/53
f 79/79/54 81/81/54 80/80/54
f 80/80/54 81/81/54 82/82/54
f 81/81/55 83/83/55 82/82/55
f 82/82/55 83/83/55 84/84/55
f 83/83/56 85/85/56 84/84/56
f 84/84/56 85/85/56 86/86/56
f 85/85/57 87/87/57 86/86/57
f 86/86/57 87/87/57 88/88/57
f 87/87/58 89/89/58 88/88/58
f 88/88/58 89/89/58 90/90/58
f 89/89/59 91/91/59 90/90/59
f 90/90/59 91/91/59 92/92/59
f 91/91/60 93/93/60 92/92/60
f 92/92/60 93/93/60 94/94/60
f 95/95/61 96/96/61 97/97/62
f 97/97/62 96/96/61 98/98/62
f 99/99/63 100/100/63 101/101/64
f 101/101/64 100/100/63 102/102/64
f 66/66/65 67/67/65 89/89/65
f 89/89/65 67/67/65 91/91/65
f 65/65/66 66/66/66 87/87/66
f 87/87/66 66/66/66 89/89/66
f 64/64/67 65/65/67 85/85/67
f 85/85/67 65/65/67 87/87/67
f 63/63/68 64/64/68 83/83/68
f 83/83/68 64/64/68 85/85/68
f 62/62/69 63/63/69 81/81/69
f 81/81/69 63/63/69 83/83/69
f 61/61/70 62/62/70 79/79/70
f 79/79/70 62/62/70 81/81/70
f 60/60/71 61/61/71 77/77/71
f 77/77/71 61/61/71 79/79/71
f 59/59/72 60/60/72 75/75/72
f 75/75/72 60/60/72 77/77/72
f 58/58/73 59/59/73 73/73/73
f 73/73/73 59/59/73 75/75/73
f 57/57/74 58/58/74 70/70/74
f 70/70/74 58/58/74 73/73/74
f 56/56/75 57/57/75 69/69/75
f 69/69/75 57/57/75 70/70/75
f 103/103/63 104/104/63 99/99/63
f 99/99/63 104/104/63 100/100/63
f 71/71/76 72/72/76 17/17/76
f 17/17/76 72/72/76 18/18/76
f 72/72/77 74/74/77 18/18/77
f 18/18/77 74/74/77 21/21/77
f 74/74/78 76/76/78 21/21/78
f 21/21/78 76/76/78 23/23/78
f 76/76/79 78/78/79 23/23/79
f 23/23/79 78/78/79 25/25/79
f 78/78/80 80/80/80 25/25/80
f 25/25/80 80/80/80 27/27/80
f 80/80/81 82/82/81 27/27/81
f 27/27/81 82/82/81 29/29/81
f 82/82/82 84/84/82 29/29/82
f 29/29/82 84/84/82 31/31/82
f 84/84/83 86/86/83 31/31/83
f 31/31/83 86/86/83 33/33/83
f 86/86/84 88/88/84 33/33/84
f 33/33/84 88/88/84 35/35/84
f 88/88/85 90/90/85 35/35/85
f 35/35/85 90/90/85 37/37/85
f 90/90/86 92/92/86 37/37/86
f 37/37/86 92/92/86 39/39/86
f 92/92/87 94/94/87 39/39/87
f 39/39/87 94/94/87 41/41/87
f 105/105/61 106/106/61 95/95/61
f 95/95/61 106/106/61 96/96/61
f 67/67/88 68/68/88 91/91/88
f 91/91/88 68/68/88 93/93/88
f 55/55/89 107/107/89 68/68/89
f 68/68/90 107/107/91 108/108/92
f 55/55/93 42/42/93 107/107/93
f 107/107/93 42/42/93 109/109/93
f 42/42/94 41/41/94 109/109/94
f 109/109/95 41/41/96 110/110/97
f 94/94/98 93/93/98 111/111/98
f 111/111/98 93/93/98 112/112/98
f 68/68/99 108/108/99 93/93/99
f 93/93/100 108/108/100 112/112/100
f 41/41/101 94/94/101 110/110/101
f 110/110/102 94/94/102 111/111/102
f 19/19/103 113/113/103 17/17/103
f 17/17/104 113/113/105 114/114/106
f 19/19/107 43/43/107 113/113/107
f 113/113/107 43/43/107 115/115/107
f 43/43/108 56/56/108 115/115/108
f 115/115/109 56/56/110 116/116/111
f 69/69/112 71/71/112 117/117/112
f 117/117/112 71/71/112 118/118/112
f 17/17/113 114/114/113 71/71/113
f 71/71/114 114/114/114 118/118/114
f 56/56/115 69/69/115 116/116/115
f 116/116/116 69/69/116 117/117/116
f 108/108/92 107/107/91 96/96/117
f 96/96/118 107/107/118 98/98/118
f 107/107/119 109/109/119 98/98/119
f 98/98/119 109/109/119 97/97/119
f 110/110/97 95/95/120 109/109/95
f 109/109/121 95/95/121 97/97/121
f 111/111/122 112/112/122 105/105/122
f 105/105/122 112/112/122 106/106/122
f 112/112/123 108/108/123 106/106/123
f 106/106/124 108/108/124 96/96/124
f 111/111/125 105/105/125 110/110/125
f 110/110/126 105/105/126 95/95/126
f 114/114/106 113/113/105 100/100/127
f 100/100/128 113/113/128 102/102/128
f 113/113/129 115/115/129 102/102/129
f 102/102/129 115/115/129 101/101/129
f 116/116/111 99/99/130 115/115/109
f 115/115/131 99/99/131 101/101/131
f 117/117/132 118/118/132 103/103/132
f 103/103/132 118/118/132 104/104/132
f 118/118/133 114/114/133 104/104/133
f 104/104/134 114/114/134 100/100/134
f 117/117/135 103/103/135 116/116/135
f 116/116/136 103/103/136 99/99/136
