# Blender v2.78 (sub 0) OBJ File: ''
# www.blender.org
mtllib SM_Wep_Axe_01.mtl
o SM_Wep_Axe_01
v 9.672390 14.852634 2.188328
v 9.676579 14.852634 -2.188265
v 14.889481 13.052166 0.000056
v 14.889481 35.470020 0.000063
v 14.889481 31.687519 0.000062
v 9.676579 33.669552 -2.188259
v 9.676579 23.914837 -2.188263
v 13.135372 27.628284 -0.736335
v 14.889481 15.451656 0.000056
v 11.468796 17.589664 -1.435948
v 9.676579 19.932468 -2.188263
v 14.889481 25.188328 0.000060
v 14.889481 19.543705 0.000058
v 11.179657 17.887783 1.556104
v 9.676194 31.891521 2.188334
v 9.676579 33.669552 2.188334
v 13.254735 27.547318 0.686332
v 0.998307 31.984524 3.907630
v 0.998307 31.984524 -3.907617
v -12.583723 31.710056 3.907630
v -14.889481 31.663464 -3.907617
v -14.889481 31.663464 -0.315735
v 0.998307 17.022892 3.907625
v -14.889481 17.793056 3.907625
v -14.889481 28.859814 3.907629
v 0.998307 17.022892 -3.907622
v -14.889481 17.793056 -3.907622
v -14.889481 18.774380 -3.907621
v -12.641283 21.272243 -3.907621
v -14.889481 25.884624 -3.907619
v 7.697793 19.487408 2.579898
v 8.467435 24.566357 2.427557
v 7.035651 26.820644 2.711483
v 7.926585 17.310921 -2.534953
v 7.599110 28.347576 -2.599861
v -14.889481 22.353756 -2.049021
v -11.120173 14.578898 3.034240
v -0.619489 14.578898 3.034240
v -11.120173 18.078167 3.034241
v -0.619489 18.078167 3.034241
v -11.120173 18.078167 -3.034176
v -0.619489 18.078167 -3.034176
v -11.120173 14.578900 -3.034177
v -0.619489 14.578900 -3.034177
v -7.462215 -35.470020 -1.607683
v -4.277314 -35.470020 -1.607683
v -7.462215 -35.470020 1.607368
v -4.277314 -35.470020 1.607368
v -9.413235 0.745800 2.244636
v -2.326406 1.309776 2.244636
v -9.413327 3.587322 2.244579
v -2.326406 4.405719 2.244579
v -2.326406 1.309777 -2.244957
v -2.326252 4.405720 -2.244956
v -9.413235 3.587323 -2.244957
v -9.413235 0.745800 -2.244957
v -9.413235 14.578899 2.244640
v -2.326406 14.578899 2.244640
v -2.326406 14.578899 -2.244953
v -9.413235 14.578899 -2.244953
v -8.920060 -30.958530 -1.706715
v -2.819541 -30.958530 -1.706715
v -10.246184 -31.621933 -3.162550
v -1.492994 -31.621933 -3.162550
v -2.819541 -30.958530 1.706372
v -1.492994 -31.621933 3.162351
v -8.920060 -30.958530 1.706372
v -10.246184 -31.621933 3.162351
v -10.246184 -33.478539 -3.162551
v -1.492994 -33.478539 -3.162551
v -1.492994 -33.478539 3.162351
v -10.246184 -33.478539 3.162351
v -8.186569 -5.144268 -1.540408
v -8.394542 -5.144272 1.168314
v -8.920060 0.265652 -1.706706
v -8.920060 0.265651 1.706383
v -3.553160 -5.442109 1.540083
v -2.819541 0.829620 1.706383
v -3.345128 -5.442108 -1.168578
v -2.819541 0.829621 -1.706705
v -11.120173 34.464825 3.034246
v -3.023335 34.464825 3.034246
v -11.120173 34.464825 -3.034171
v -0.619489 34.464825 -3.034171
v -0.619489 34.464825 0.219208
v -9.413235 -28.481457 -2.244967
v -9.413327 -28.481457 2.244626
v -9.413235 -26.551954 -2.244966
v -9.413484 -26.551952 2.244569
v -2.326406 -29.389524 2.244626
v -2.326406 -27.460022 2.244569
v -2.326406 -29.389524 -2.244967
v -2.326406 -27.460022 -2.244967
v -8.920060 -28.981161 -1.706715
v -8.920192 -28.981161 1.706373
v -2.819541 -29.889229 1.706373
v -2.819541 -29.889229 -1.706715
v -8.920265 -26.167179 1.706307
v -2.819541 -27.075249 1.706307
v -8.920265 -25.768127 1.706308
v -2.819541 -24.470547 1.706309
v -8.920060 -26.167181 -1.706715
v -8.920060 -25.768127 -1.706714
v -2.819541 -24.470547 -1.706713
v -2.819541 -27.075249 -1.706715
v -9.413484 -25.268423 2.244570
v -2.326406 -23.970842 2.244571
v -9.413484 -22.566860 2.244571
v -2.326500 -21.269279 2.244571
v -9.413235 -25.268423 -2.244966
v -9.413139 -22.566860 -2.244965
v -2.326500 -21.269279 -2.244965
v -2.326406 -23.970842 -2.244965
v -2.819675 -20.884508 1.706309
v -2.819675 -20.521860 1.706309
v -8.920265 -22.182089 1.706309
v -8.920192 -19.239861 1.706310
v -8.919987 -22.182089 -1.706713
v -8.919987 -19.239861 -1.706712
v -2.819675 -20.521860 -1.706713
v -2.819675 -20.884508 -1.706713
v -2.326500 -20.022158 2.244571
v -2.326500 -17.227848 2.244630
v -9.413327 -18.740156 2.244572
v -9.413235 -15.945850 2.244630
v -9.413139 -18.740156 -2.244964
v -9.413235 -15.945850 -2.244963
v -2.326500 -17.227848 -2.244963
v -2.326500 -20.022158 -2.244965
v -2.819541 4.995021 1.706318
v -2.819541 5.899505 1.706318
v -8.920192 4.176616 1.706317
v -8.920192 6.932315 1.706318
v -8.920060 4.176617 -1.706705
v -8.920192 6.932316 -1.706703
v -2.819469 5.899506 -1.706704
v -2.819469 4.995022 -1.706704
v -2.326406 6.317100 2.244581
v -2.326252 8.821823 2.244581
v -9.413327 7.349910 2.244581
v -9.413139 9.854637 2.244581
v -9.413327 7.349911 -2.244955
v -9.413235 9.854637 -2.244955
v -2.326252 8.821823 -2.244955
v -2.326252 6.317101 -2.244956
v -2.819469 9.411125 1.706319
v -2.819469 11.868839 1.706320
v -8.919987 10.443939 1.706319
v -8.919987 11.013172 1.706320
v -8.920060 10.443939 -1.706703
v -8.920060 11.013172 -1.706703
v -2.819541 11.868839 -1.706702
v -2.819469 9.411125 -1.706703
v -9.413139 11.484051 2.244582
v -2.326252 12.339714 2.244582
v -9.413235 11.484051 -2.244954
v -2.326406 12.339714 -2.244954
v -8.920060 -15.561077 1.706377
v -2.819675 -16.843077 1.706377
v -8.920060 -15.561077 -1.706711
v -2.819675 -16.843077 -1.706711
v -11.120173 31.294033 3.034245
v -0.619489 31.294033 3.034245
v -0.619489 32.904278 3.034246
v -11.120173 31.294033 -3.034172
v -0.619489 31.294033 -3.034172
v -3.068650 -12.972733 1.649965
v -4.337016 -10.421825 1.616169
v -3.428228 -7.384116 1.568416
v -3.170981 -9.221586 -0.227131
vt 0.5675 0.5251
vt 0.5675 0.5251
vt 0.5675 0.5251
vt 0.5675 0.5251
vt 0.5675 0.5251
vt 0.5675 0.5251
vt 0.5675 0.5251
vt 0.5675 0.5251
vt 0.5675 0.5251
vt 0.5675 0.5251
vt 0.5675 0.5251
vt 0.5675 0.5251
vt 0.5675 0.5251
vt 0.5675 0.5251
vt 0.5675 0.5251
vt 0.5675 0.5251
vt 0.5675 0.5251
vt 0.5618 0.4794
vt 0.5618 0.4794
vt 0.5618 0.4794
vt 0.5618 0.4794
vt 0.5618 0.4794
vt 0.5618 0.4794
vt 0.5618 0.4794
vt 0.5618 0.4794
vt 0.5618 0.4794
vt 0.5618 0.4794
vt 0.5618 0.4794
vt 0.5618 0.4794
vt 0.5618 0.4794
vt 0.5618 0.4794
vt 0.5618 0.4794
vt 0.5618 0.4794
vt 0.5618 0.4794
vt 0.5618 0.4794
vt 0.5618 0.4794
vt 0.5618 0.4794
vt 0.5618 0.4794
vt 0.5618 0.4794
vt 0.5618 0.4794
vt 0.5618 0.4794
vt 0.5618 0.4794
vt 0.5618 0.4794
vt 0.5648 0.4237
vt 0.5648 0.4237
vt 0.5648 0.4237
vt 0.5648 0.4237
vt 0.5648 0.4237
vt 0.5648 0.4237
vt 0.5648 0.4237
vt 0.5648 0.4237
vt 0.5648 0.4237
vt 0.5648 0.4237
vt 0.5648 0.4237
vt 0.5648 0.4237
vt 0.0874 0.3279
vt 0.0874 0.3279
vt 0.0874 0.3279
vt 0.0874 0.3279
vt 0.0874 0.3279
vt 0.0874 0.3279
vt 0.0874 0.3279
vt 0.0874 0.3279
vt 0.5648 0.4237
vt 0.5648 0.4237
vt 0.5648 0.4237
vt 0.5648 0.4237
vt 0.5648 0.4237
vt 0.5648 0.4237
vt 0.5648 0.4237
vt 0.5648 0.4237
vt 0.5648 0.4237
vt 0.5648 0.4237
vt 0.5648 0.4237
vt 0.5648 0.4237
vt 0.5648 0.4237
vt 0.5648 0.4237
vt 0.5648 0.4237
vt 0.5648 0.4237
vt 0.9899 0.3482
vt 0.9899 0.3482
vt 0.9899 0.3482
vt 0.9899 0.3482
vt 0.9899 0.3482
vt 0.9899 0.3482
vt 0.9899 0.3482
vt 0.9899 0.3482
vt 0.5648 0.4237
vt 0.5648 0.4237
vt 0.5648 0.4237
vt 0.5648 0.4237
vt 0.5648 0.4237
vt 0.0874 0.3279
vt 0.0874 0.3279
vt 0.0874 0.3279
vt 0.0874 0.3279
vt 0.0874 0.3279
vt 0.0874 0.3279
vt 0.0874 0.3279
vt 0.0874 0.3279
vt 0.9899 0.3482
vt 0.9899 0.3482
vt 0.9899 0.3482
vt 0.9899 0.3482
vt 0.9899 0.3482
vt 0.9899 0.3482
vt 0.9899 0.3482
vt 0.9899 0.3482
vt 0.0814 0.2733
vt 0.0814 0.2733
vt 0.0814 0.2733
vt 0.0814 0.2733
vt 0.0814 0.2733
vt 0.0814 0.2733
vt 0.0814 0.2733
vt 0.0814 0.2733
vt 0.0874 0.3279
vt 0.0874 0.3279
vt 0.0874 0.3279
vt 0.0874 0.3279
vt 0.0874 0.3279
vt 0.0874 0.3279
vt 0.0874 0.3279
vt 0.0874 0.3279
vt 0.0814 0.2733
vt 0.0814 0.2733
vt 0.0814 0.2733
vt 0.0814 0.2733
vt 0.0814 0.2733
vt 0.0814 0.2733
vt 0.0814 0.2733
vt 0.0814 0.2733
vt 0.0874 0.3279
vt 0.0874 0.3279
vt 0.0874 0.3279
vt 0.0874 0.3279
vt 0.0874 0.3279
vt 0.0874 0.3279
vt 0.0874 0.3279
vt 0.0874 0.3279
vt 0.0814 0.2733
vt 0.0814 0.2733
vt 0.0814 0.2733
vt 0.0814 0.2733
vt 0.0814 0.2733
vt 0.0814 0.2733
vt 0.0814 0.2733
vt 0.0814 0.2733
vt 0.0874 0.3279
vt 0.0874 0.3279
vt 0.0874 0.3279
vt 0.0874 0.3279
vt 0.0874 0.3279
vt 0.0874 0.3279
vt 0.0874 0.3279
vt 0.0874 0.3279
vt 0.0814 0.2733
vt 0.0814 0.2733
vt 0.0814 0.2733
vt 0.0814 0.2733
vt 0.0814 0.2733
vt 0.0814 0.2733
vt 0.0814 0.2733
vt 0.0814 0.2733
vt 0.0874 0.3279
vt 0.0874 0.3279
vt 0.0874 0.3279
vt 0.0874 0.3279
vt 0.0874 0.3279
vt 0.0874 0.3279
vt 0.0874 0.3279
vt 0.0874 0.3279
vt 0.0874 0.3279
vt 0.0874 0.3279
vt 0.0874 0.3279
vt 0.0874 0.3279
vt 0.0895 0.3239
vt 0.0895 0.3239
vt 0.0895 0.3239
vt 0.0895 0.3239
vt 0.0874 0.3279
vt 0.0874 0.3279
vt 0.0895 0.3239
vt 0.0895 0.3239
vt 0.0874 0.3279
vt 0.0895 0.3239
vt 0.0895 0.3239
vt 0.0874 0.3279
vt 0.0874 0.3279
vt 0.0874 0.3279
vt 0.0874 0.3279
vt 0.0874 0.3279
vt 0.0874 0.3279
vt 0.0874 0.3279
vt 0.0874 0.3279
vt 0.0874 0.3279
vt 0.0874 0.3279
vt 0.0874 0.3279
vt 0.0895 0.3239
vt 0.0895 0.3239
vt 0.0895 0.3239
vt 0.0895 0.3239
vt 0.0874 0.3279
vt 0.0895 0.3239
vt 0.0895 0.3239
vt 0.0895 0.3239
vt 0.0895 0.3239
vt 0.0874 0.3279
vt 0.0874 0.3279
vt 0.0874 0.3279
vt 0.0874 0.3279
vt 0.0874 0.3279
vt 0.0874 0.3279
vt 0.0874 0.3279
vt 0.0874 0.3279
vt 0.0874 0.3279
vt 0.0874 0.3279
vt 0.0874 0.3279
vt 0.0874 0.3279
vt 0.0874 0.3279
vt 0.0996 0.3239
vt 0.0996 0.3239
vt 0.0996 0.3239
vt 0.0996 0.3239
vt 0.0996 0.3239
vt 0.0996 0.3239
vt 0.0996 0.3239
vt 0.0996 0.3239
vt 0.4416 0.4736
vt 0.4416 0.4736
vt 0.4416 0.4736
vt 0.4416 0.4736
vt 0.4416 0.4736
vt 0.4416 0.4736
vt 0.4416 0.4736
vt 0.4416 0.4736
vt 0.5670 0.5262
vt 0.5670 0.5262
vt 0.5670 0.5262
vt 0.5670 0.5262
vt 0.5670 0.5262
vt 0.5670 0.5262
vt 0.5670 0.5262
vt 0.5670 0.5262
vt 0.5670 0.5262
vt 0.5670 0.5262
vt 0.5670 0.5262
vt 0.5618 0.5239
vt 0.5618 0.5239
vt 0.5618 0.5239
vt 0.5618 0.5239
vt 0.5618 0.5239
vt 0.5618 0.5239
vt 0.5618 0.5239
vt 0.5648 0.4237
vt 0.5648 0.4237
vt 0.5648 0.4237
vt 0.5648 0.4237
vt 0.5648 0.4237
vt 0.5630 0.4757
vt 0.5630 0.4757
vt 0.5630 0.4757
vt 0.9899 0.3482
vt 0.9899 0.3482
vt 0.9899 0.3482
vt 0.9899 0.3482
vt 0.9899 0.3482
vt 0.9899 0.3482
vt 0.9899 0.3482
vt 0.9899 0.3482
vt 0.9901 0.4561
vt 0.9901 0.4561
vt 0.9901 0.4561
vt 0.9901 0.4561
vn -0.3263 -0.9453 -0.0003
vn 0.3871 0.0000 -0.9221
vn 0.3870 0.0000 -0.9221
vn 0.3868 0.0000 0.9222
vn 0.3868 -0.0000 0.9221
vn 0.3869 -0.0001 0.9221
vn 0.3870 -0.0001 0.9221
vn 0.3871 -0.0000 0.9221
vn 0.3870 -0.0000 0.9221
vn -0.3265 0.9452 0.0000
vn -0.0202 0.9998 0.0000
vn -0.0000 -0.0000 1.0000
vn -0.0484 -0.9988 0.0000
vn 0.0000 0.0000 -1.0000
vn -0.2426 -0.9701 -0.0002
vn -0.2426 -0.9701 -0.0001
vn -0.2427 -0.9701 -0.0001
vn -0.2427 -0.9701 0.0000
vn 0.1944 -0.0000 0.9809
vn 0.1941 0.0000 0.9810
vn 0.1943 -0.0001 0.9809
vn 0.1943 -0.0000 0.9809
vn -0.1906 0.9817 0.0000
vn 0.1943 0.0000 -0.9809
vn -1.0000 0.0000 0.0000
vn 0.0000 -1.0000 0.0000
vn 1.0000 0.0000 0.0000
vn 0.0000 0.9100 -0.4147
vn 0.4473 0.8944 0.0000
vn 0.0000 0.9100 0.4146
vn -0.4474 0.8943 0.0000
vn 0.0000 -0.6154 -0.7882
vn 0.5818 -0.8134 0.0000
vn 0.0000 -0.6154 0.7882
vn -0.5818 -0.8133 0.0000
vn -0.9878 -0.1363 -0.0758
vn -0.9953 -0.0967 -0.0000
vn -0.0826 -0.1066 0.9909
vn 0.0025 -0.0268 0.9996
vn 0.9901 -0.1178 0.0760
vn 0.9965 -0.0835 -0.0000
vn 0.0080 -0.0861 -0.9963
vn 0.0753 -0.0204 -0.9970
vn 0.0000 1.0000 0.0000
vn -1.0000 -0.0001 -0.0000
vn -1.0000 -0.0001 -0.0001
vn -1.0000 0.0000 -0.0001
vn -1.0000 0.0001 0.0000
vn 1.0000 -0.0001 0.0000
vn 1.0000 0.0001 -0.0000
vn -0.0848 0.6323 0.7700
vn -0.0818 0.7086 0.7008
vn 0.7669 0.6418 0.0000
vn -0.0848 0.6323 -0.7700
vn -0.0818 0.7086 -0.7008
vn -0.7669 0.6417 -0.0000
vn -0.7669 0.6418 -0.0000
vn -0.7117 -0.7025 -0.0000
vn -0.7118 -0.7024 -0.0000
vn -0.7117 -0.7024 -0.0000
vn -0.6151 0.7884 -0.0000
vn -0.1014 -0.6811 0.7252
vn -0.0990 -0.7729 0.6268
vn 0.1126 0.7566 0.6441
vn 0.1093 0.8533 0.5098
vn 0.7118 -0.7024 0.0000
vn 0.6152 0.7884 0.0000
vn 0.1126 0.7566 -0.6441
vn 0.1093 0.8533 -0.5098
vn -0.1014 -0.6811 -0.7252
vn -0.0990 -0.7729 -0.6268
vn 0.1400 -0.6584 0.7395
vn 0.1442 -0.7876 0.5991
vn -0.1554 0.7307 0.6648
vn -0.1586 0.8662 0.4739
vn -0.6151 0.7884 -0.0001
vn -0.1554 0.7307 -0.6648
vn -0.1586 0.8662 -0.4739
vn 0.1400 -0.6584 -0.7395
vn 0.1442 -0.7876 -0.5991
vn 0.6151 0.7884 0.0000
vn -0.1385 -0.6593 0.7390
vn -0.1424 -0.7871 0.6002
vn 0.1538 0.7318 0.6640
vn 0.1566 0.8657 0.4754
vn 0.1538 0.7318 -0.6640
vn 0.1566 0.8657 -0.4754
vn -0.1386 -0.6593 -0.7390
vn -0.1424 -0.7871 -0.6002
vn 0.7117 -0.7024 0.0000
vn -0.1230 -0.7264 0.6762
vn -0.1217 -0.8351 0.5364
vn 0.1052 0.6212 0.7765
vn 0.1045 0.7170 0.6892
vn -0.6462 -0.7631 -0.0000
vn 0.1052 0.6212 -0.7765
vn 0.1045 0.7170 -0.6892
vn -0.1230 -0.7264 -0.6762
vn -0.1217 -0.8351 -0.5364
vn 0.6462 -0.7631 0.0000
vn 0.6462 -0.7632 0.0000
vn 0.0985 -0.7025 0.7048
vn 0.0955 -0.7909 0.6044
vn -0.6906 -0.7233 0.0000
vn 0.0985 -0.7025 -0.7048
vn 0.0955 -0.7909 -0.6044
vn 0.6905 -0.7233 -0.0000
vn 0.6906 -0.7233 -0.0000
vn 0.0614 -0.7721 0.6325
vn 0.0660 -0.7138 0.6972
vn 0.6976 -0.7165 -0.0000
vn 0.0614 -0.7721 -0.6325
vn 0.0660 -0.7138 -0.6972
vn -0.6976 -0.7165 -0.0000
vn 0.5393 0.8415 -0.0317
vn 0.4495 -0.8835 0.1315
vn 0.8165 0.5762 -0.0357
vn 0.9199 -0.3796 -0.0988
vn -0.7174 0.5804 0.3853
vn -0.4557 0.4102 -0.7900
vn -0.6909 -0.3368 -0.6397
vn 0.4937 0.7606 0.4216
vn 0.0031 0.0148 0.9999
vn -0.0135 0.0523 0.9985
vn -0.2533 -0.1132 0.9607
vn -0.0646 0.0350 0.9973
vn -0.0760 0.0097 0.9971
vn 0.9979 0.0642 0.0000
vn 0.9949 0.0651 0.0764
vn 0.9950 0.0649 0.0763
vn 0.9950 0.0650 0.0763
vn 0.9950 0.0648 0.0762
vn 0.9989 0.0460 0.0000
vn 0.9988 0.0408 0.0271
vn 0.0772 0.0105 -0.9970
vn 0.0100 0.0476 -0.9988
vn -0.9987 0.0504 0.0000
vn -0.9945 0.0712 -0.0764
vn 0.8835 -0.2582 0.3908
vn 0.6756 0.3446 0.6518
usemtl None
s 1
f 1/1/1 2/2/1 3/3/1
f 4/4/2 5/5/2 6/6/2
f 6/6/2 5/5/2 7/7/2
f 5/5/2 8/8/3 7/7/2
f 3/3/2 2/2/2 9/9/2
f 9/9/2 2/2/2 10/10/2
f 2/2/2 11/11/2 10/10/2
f 8/8/3 12/12/2 7/7/2
f 12/12/2 13/13/2 7/7/2
f 7/7/2 13/13/2 11/11/2
f 13/13/2 10/10/2 11/11/2
f 3/3/4 9/9/4 1/1/5
f 9/9/4 14/14/6 1/1/5
f 1/1/5 14/14/6 15/15/7
f 4/4/8 16/16/7 5/5/9
f 16/16/7 15/15/7 5/5/9
f 5/5/9 15/15/7 17/17/7
f 15/15/7 14/14/6 17/17/7
f 17/17/7 14/14/6 12/12/6
f 14/14/6 13/13/4 12/12/6
f 6/6/10 16/16/10 4/4/10
f 18/18/11 19/19/11 20/20/11
f 21/21/11 22/22/11 19/19/11
f 19/19/11 22/22/11 20/20/11
f 23/23/12 18/18/12 24/24/12
f 18/18/12 20/20/12 24/24/12
f 24/24/12 20/20/12 25/25/12
f 26/26/13 23/23/13 27/27/13
f 27/27/13 23/23/13 24/24/13
f 26/26/14 27/27/14 19/19/14
f 27/27/14 28/28/14 19/19/14
f 28/28/14 29/29/14 19/19/14
f 29/29/14 30/30/14 19/19/14
f 21/21/14 19/19/14 30/30/14
f 2/31/15 1/32/16 26/26/17
f 26/26/17 1/32/16 23/23/18
f 1/32/19 31/33/19 23/23/19
f 23/23/19 31/33/19 18/18/19
f 31/33/19 32/34/20 18/18/19
f 32/34/20 33/35/21 18/18/19
f 33/35/21 15/36/19 18/18/19
f 18/18/19 15/36/19 16/37/22
f 16/37/23 6/38/23 18/18/23
f 18/18/23 6/38/23 19/19/23
f 2/31/24 26/26/24 34/39/24
f 6/38/24 35/40/24 19/19/24
f 19/19/24 35/40/24 26/26/24
f 26/26/24 35/40/24 34/39/24
f 34/39/24 35/40/24 11/41/24
f 35/40/24 7/42/24 11/41/24
f 21/21/25 30/30/25 22/22/25
f 22/22/25 30/30/25 25/25/25
f 25/25/25 30/30/25 24/24/25
f 30/30/25 36/43/25 24/24/25
f 27/27/25 24/24/25 28/28/25
f 36/43/25 28/28/25 24/24/25
f 37/44/12 38/45/12 39/46/12
f 39/46/12 38/45/12 40/47/12
f 41/48/14 42/49/14 43/50/14
f 43/50/14 42/49/14 44/51/14
f 45/52/26 46/53/26 47/54/26
f 47/54/26 46/53/26 48/55/26
f 38/45/27 44/51/27 40/47/27
f 40/47/27 44/51/27 42/49/27
f 43/50/25 37/44/25 41/48/25
f 41/48/25 37/44/25 39/46/25
f 49/56/12 50/57/12 51/58/12
f 51/58/12 50/57/12 52/59/12
f 50/57/27 53/60/27 52/59/27
f 52/59/27 53/60/27 54/61/27
f 54/61/14 53/60/14 55/62/14
f 55/62/14 53/60/14 56/63/14
f 56/63/25 49/56/25 55/62/25
f 55/62/25 49/56/25 51/58/25
f 57/64/26 58/65/26 37/44/26
f 37/44/26 58/65/26 38/45/26
f 59/66/26 60/67/26 44/51/26
f 44/51/26 60/67/26 43/50/26
f 58/65/26 59/66/26 38/45/26
f 38/45/26 59/66/26 44/51/26
f 60/67/26 57/64/26 43/50/26
f 43/50/26 57/64/26 37/44/26
f 61/68/28 62/69/28 63/70/28
f 63/70/28 62/69/28 64/71/28
f 62/69/29 65/72/29 64/71/29
f 64/71/29 65/72/29 66/73/29
f 65/72/30 67/74/30 66/73/30
f 66/73/30 67/74/30 68/75/30
f 67/74/31 61/68/31 68/75/31
f 68/75/31 61/68/31 63/70/31
f 63/70/14 64/71/14 69/76/14
f 69/76/14 64/71/14 70/77/14
f 64/71/27 66/73/27 70/77/27
f 70/77/27 66/73/27 71/78/27
f 66/73/12 68/75/12 71/78/12
f 71/78/12 68/75/12 72/79/12
f 68/75/25 63/70/25 72/79/25
f 72/79/25 63/70/25 69/76/25
f 69/76/32 70/77/32 45/52/32
f 45/52/32 70/77/32 46/53/32
f 70/77/33 71/78/33 46/53/33
f 46/53/33 71/78/33 48/55/33
f 71/78/34 72/79/34 48/55/34
f 48/55/34 72/79/34 47/54/34
f 72/79/35 69/76/35 47/54/35
f 47/54/35 69/76/35 45/52/35
f 73/80/36 74/81/36 75/82/36
f 75/82/37 74/81/37 76/83/37
f 74/81/38 77/84/38 76/83/38
f 76/83/39 77/84/39 78/85/39
f 77/84/40 79/86/40 78/85/40
f 78/85/41 79/86/41 80/87/41
f 80/87/42 79/86/42 75/82/42
f 75/82/43 79/86/43 73/80/43
f 81/88/44 82/89/44 83/90/44
f 84/91/44 83/90/44 85/92/44
f 82/89/44 85/92/44 83/90/44
f 86/93/25 87/94/45 88/95/25
f 88/95/25 87/94/45 89/96/46
f 90/97/12 91/98/12 87/94/12
f 87/94/12 91/98/12 89/96/12
f 90/97/27 92/99/27 91/98/27
f 91/98/27 92/99/27 93/100/27
f 88/95/14 93/100/14 86/93/14
f 86/93/14 93/100/14 92/99/14
f 61/101/25 67/102/25 94/103/25
f 94/103/25 67/102/25 95/104/45
f 65/105/12 96/106/12 67/102/12
f 67/102/12 96/106/12 95/104/12
f 65/105/27 62/107/27 96/106/27
f 96/106/27 62/107/27 97/108/27
f 94/103/14 97/108/14 61/101/14
f 61/101/14 97/108/14 62/107/14
f 98/109/12 99/110/12 100/111/12
f 100/111/12 99/110/12 101/112/12
f 102/113/47 98/109/47 103/114/47
f 103/114/47 98/109/47 100/111/47
f 104/115/14 105/116/14 103/114/14
f 103/114/14 105/116/14 102/113/14
f 99/110/27 105/116/27 101/112/27
f 101/112/27 105/116/27 104/115/27
f 106/117/12 107/118/12 108/119/12
f 108/119/12 107/118/12 109/120/12
f 110/121/47 106/117/47 111/122/47
f 111/122/47 106/117/47 108/119/47
f 112/123/14 113/124/14 111/122/14
f 111/122/14 113/124/14 110/121/14
f 107/118/27 113/124/27 109/120/27
f 109/120/27 113/124/27 112/123/27
f 114/125/12 115/126/12 116/127/12
f 116/127/12 115/126/12 117/128/12
f 118/129/47 116/127/47 119/130/47
f 119/130/47 116/127/47 117/128/47
f 120/131/14 121/132/14 119/130/14
f 119/130/14 121/132/14 118/129/14
f 114/125/27 121/132/27 115/126/27
f 115/126/27 121/132/27 120/131/27
f 122/133/12 123/134/12 124/135/12
f 124/135/12 123/134/12 125/136/12
f 126/137/25 124/135/25 127/138/25
f 127/138/25 124/135/25 125/136/25
f 127/138/14 128/139/14 126/137/14
f 126/137/14 128/139/14 129/140/14
f 122/133/27 129/140/27 123/134/27
f 123/134/27 129/140/27 128/139/27
f 130/141/12 131/142/12 132/143/12
f 132/143/12 131/142/12 133/144/12
f 134/145/25 132/143/25 135/146/25
f 135/146/25 132/143/25 133/144/25
f 135/146/14 136/147/14 134/145/14
f 134/145/14 136/147/14 137/148/14
f 130/141/27 137/148/27 131/142/27
f 131/142/27 137/148/27 136/147/27
f 138/149/12 139/150/12 140/151/12
f 140/151/12 139/150/12 141/152/12
f 142/153/25 140/151/48 143/154/25
f 143/154/25 140/151/48 141/152/48
f 143/154/14 144/155/14 142/153/14
f 142/153/14 144/155/14 145/156/14
f 138/149/49 145/156/27 139/150/27
f 139/150/27 145/156/27 144/155/27
f 146/157/12 147/158/12 148/159/12
f 148/159/12 147/158/12 149/160/12
f 150/161/25 148/159/25 151/162/25
f 151/162/25 148/159/25 149/160/25
f 151/162/14 152/163/14 150/161/14
f 150/161/14 152/163/14 153/164/14
f 146/157/27 153/164/27 147/158/27
f 147/158/27 153/164/27 152/163/27
f 154/165/12 155/166/12 57/167/12
f 57/167/12 155/166/12 58/168/12
f 156/169/25 154/165/25 60/170/25
f 60/170/25 154/165/25 57/167/25
f 59/171/14 157/172/14 60/170/14
f 60/170/14 157/172/14 156/169/14
f 155/166/50 157/172/27 58/168/27
f 58/168/27 157/172/27 59/171/27
f 130/173/51 132/174/51 52/59/51
f 52/59/52 132/174/52 51/58/52
f 137/175/53 130/173/53 54/61/53
f 54/61/53 130/173/53 52/59/53
f 137/175/54 54/61/54 134/176/54
f 134/176/55 54/61/55 55/62/55
f 132/174/56 134/176/57 51/58/57
f 51/58/57 134/176/57 55/62/57
f 94/177/58 95/178/59 86/179/60
f 86/179/60 95/178/59 87/180/59
f 98/181/61 102/182/61 89/96/61
f 89/96/61 102/182/61 88/95/61
f 96/183/62 90/184/62 95/178/62
f 95/178/63 90/184/63 87/180/63
f 98/181/64 89/96/64 99/185/64
f 99/185/65 89/96/65 91/98/65
f 96/183/66 97/186/66 90/184/66
f 90/184/66 97/186/66 92/187/66
f 105/188/67 99/185/67 93/100/67
f 93/100/67 99/185/67 91/98/67
f 102/182/68 105/188/68 88/95/68
f 88/95/69 105/188/69 93/100/69
f 97/186/70 94/177/70 92/187/70
f 92/187/71 94/177/71 86/179/71
f 100/189/72 101/190/72 106/117/72
f 106/117/73 101/190/73 107/118/73
f 114/191/74 116/192/74 109/120/74
f 109/120/75 116/192/75 108/119/75
f 103/193/58 100/189/58 110/121/58
f 110/121/58 100/189/58 106/117/58
f 116/192/76 118/194/61 108/119/61
f 108/119/61 118/194/61 111/122/61
f 121/195/77 112/123/77 118/194/77
f 118/194/78 112/123/78 111/122/78
f 103/193/79 110/121/79 104/196/79
f 104/196/80 110/121/80 113/124/80
f 101/190/66 104/196/66 107/118/66
f 107/118/66 104/196/66 113/124/66
f 121/195/81 114/191/81 112/123/81
f 112/123/81 114/191/81 109/120/81
f 115/197/82 122/133/82 117/198/82
f 117/198/83 122/133/83 124/135/83
f 158/199/84 125/200/84 159/201/84
f 159/201/85 125/200/85 123/202/85
f 119/203/60 117/198/59 126/137/60
f 126/137/60 117/198/59 124/135/59
f 158/199/61 160/204/61 125/200/61
f 125/200/61 160/204/61 127/205/61
f 160/204/86 161/206/86 127/205/86
f 127/205/87 161/206/87 128/207/87
f 120/208/88 119/203/88 129/140/88
f 129/140/89 119/203/89 126/137/89
f 115/197/90 120/208/90 122/133/90
f 122/133/90 120/208/90 129/140/90
f 161/206/81 159/201/81 128/207/81
f 128/207/81 159/201/81 123/202/81
f 131/209/91 138/149/91 133/210/91
f 133/210/92 138/149/92 140/151/92
f 148/211/93 141/152/93 146/212/93
f 146/212/94 141/152/94 139/150/94
f 135/213/95 133/210/95 142/153/95
f 142/153/95 133/210/95 140/151/95
f 148/211/57 150/214/57 141/152/57
f 141/152/57 150/214/57 143/154/57
f 150/214/96 153/215/96 143/154/96
f 143/154/97 153/215/97 144/155/97
f 136/216/98 135/213/98 145/156/98
f 145/156/99 135/213/99 142/153/99
f 131/209/100 136/216/101 138/149/101
f 138/149/101 136/216/101 145/156/101
f 153/215/53 146/212/53 144/155/53
f 144/155/53 146/212/53 139/150/53
f 149/217/102 147/218/102 154/165/102
f 154/165/103 147/218/103 155/166/103
f 151/219/104 149/217/104 156/169/104
f 156/169/104 149/217/104 154/165/104
f 151/219/105 156/169/105 152/220/105
f 152/220/106 156/169/106 157/172/106
f 147/218/107 152/220/108 155/166/107
f 155/166/107 152/220/108 157/172/108
f 50/221/109 49/222/109 78/223/109
f 78/223/110 49/222/110 76/224/110
f 53/225/111 50/221/111 80/226/111
f 80/226/111 50/221/111 78/223/111
f 53/225/112 80/226/112 56/227/112
f 56/227/113 80/226/113 75/228/113
f 49/222/114 56/227/114 76/224/114
f 76/224/114 56/227/114 75/228/114
f 9/229/115 10/230/115 14/231/115
f 14/231/116 10/230/116 13/232/116
f 12/233/117 8/234/117 17/235/117
f 17/235/118 8/234/118 5/236/118
f 1/237/19 15/238/19 31/239/19
f 31/239/19 15/238/19 32/240/20
f 15/238/19 33/241/21 32/240/20
f 7/242/24 35/243/24 6/244/24
f 2/245/24 34/246/24 11/247/24
f 25/248/119 20/249/119 22/250/119
f 36/251/120 29/252/120 28/253/120
f 30/254/121 29/252/121 36/251/121
f 162/255/12 163/256/12 81/88/12
f 163/256/12 164/257/12 81/88/12
f 164/257/12 82/89/12 81/88/12
f 165/258/25 162/255/25 83/90/25
f 83/90/25 162/255/25 81/88/25
f 83/90/14 84/91/14 165/258/14
f 165/258/14 84/91/14 166/259/14
f 163/256/27 166/259/27 164/257/27
f 164/257/27 166/259/27 85/92/27
f 166/259/27 84/91/27 85/92/27
f 164/260/122 85/261/122 82/262/122
f 159/263/123 167/264/123 158/265/123
f 158/265/124 167/264/124 74/81/124
f 167/264/125 168/266/125 74/81/125
f 168/266/126 169/267/126 74/81/126
f 169/267/127 77/84/127 74/81/127
f 159/263/128 161/268/128 167/264/128
f 77/84/129 169/267/130 79/86/131
f 169/267/130 170/269/132 79/86/131
f 79/86/133 170/269/133 161/268/133
f 161/268/134 170/269/134 167/264/134
f 73/80/135 79/86/135 160/270/135
f 160/270/136 79/86/136 161/268/136
f 158/265/137 74/81/137 160/270/137
f 160/270/138 74/81/138 73/80/138
f 169/271/139 168/272/139 170/273/139
f 170/273/140 168/272/140 167/274/140
